<?xml version="1.0" encoding="UTF-8" standalone="no"?>
<!-- Created with Inkscape (http://www.inkscape.org/) -->
<svg id="svg11037" xmlns:rdf="http://www.w3.org/1999/02/22-rdf-syntax-ns#" xmlns="http://www.w3.org/2000/svg" height="96" width="96" version="1.1" xmlns:cc="http://creativecommons.org/ns#" xmlns:xlink="http://www.w3.org/1999/xlink" xmlns:dc="http://purl.org/dc/elements/1.1/">
 <defs id="defs11039">
  <linearGradient id="linearGradient11642" x1="48" gradientUnits="userSpaceOnUse" x2="48" gradientTransform="matrix(1.15 0 0 1.15 -7.1999 -150.65)" y1="962.62" y2="1046.1">
   <stop id="stop3189-4" style="stop-color:#c8c8c8" offset="0"/>
   <stop id="stop3191-0" style="stop-color:#e6e6e6" offset="1"/>
  </linearGradient>
  <clipPath id="clipPath3009" clipPathUnits="userSpaceOnUse">
   <path id="path3011" style="opacity:.15;fill:#fff" d="m-2 956.36h-96v33.562l96 25.687v-59.25z"/>
  </clipPath>
  <clipPath id="clipPath3732">
   <path id="path3734" style="opacity:.3;color:#000000;fill:#f00" d="m-100-74v96h96v-96h-96zm40 16h16c4.432 0 8 3.568 8 8v16c4.432 0 8 3.568 8 8v24c0 4.432-3.568 8-8 8h-32c-4.432 0-8-3.568-8-8v-24c0-4.432 3.568-8 8-8v-16c0-4.432 3.568-8 8-8zm4 8c-2.216 0-4 1.784-4 4v12h16v-12c0-2.216-1.784-4-4-4h-8z"/>
  </clipPath>
  <filter id="filter3736" color-interpolation-filters="sRGB">
   <feGaussianBlur id="feGaussianBlur3738" stdDeviation="0.84"/>
  </filter>
  <linearGradient id="linearGradient3729" x1="11" gradientUnits="userSpaceOnUse" y1="3" gradientTransform="matrix(4,0,0,4,4,-70)" x2="11" y2="19">
   <stop id="stop5562" style="stop-color:#323232" offset="0"/>
   <stop id="stop5564" style="stop-color:#787878" offset="1"/>
  </linearGradient>
 </defs>
 <metadata id="metadata11042">
  <rdf:RDF>
   <cc:Work rdf:about="">
    <dc:format>image/svg+xml</dc:format>
    <dc:type rdf:resource="http://purl.org/dc/dcmitype/StillImage"/>
    <dc:title/>
   </cc:Work>
  </rdf:RDF>
 </metadata>
 <g id="layer1" transform="translate(0 -956.36)">
  <rect id="rect3867" style="fill:url(#linearGradient11642)" rx="25" ry="25" height="92" width="92" y="958.36" x="2"/>
  <g id="g3044" transform="translate(-6.2942e-8 1030.4)">
   <path id="path3725" style="opacity:.2;color:#000000;filter:url(#filter3736);stroke:#fff;stroke-width:4;fill:none" clip-path="url(#clipPath3732)" transform="translate(100)" d="m-60-58c-4.432 0-8 3.568-8 8v16c-4.432 0-8 3.568-8 8v24c0 4.432 3.568 8 8 8h32c4.432 0 8-3.568 8-8v-24c0-4.432-3.568-8-8-8v-16c0-4.432-3.568-8-8-8h-16zm4 8h8c2.216 0 4 1.784 4 4v12h-16v-12c0-2.216 1.784-4 4-4z"/>
   <path id="rect2941" style="color:#000000;fill:url(#linearGradient3729)" d="m40-58c-4.432 0-8 3.568-8 8v16c-4.432 0-8 3.568-8 8v24c0 4.432 3.568 8 8 8h32c4.432 0 8-3.568 8-8v-24c0-4.432-3.568-8-8-8v-16c0-4.432-3.568-8-8-8h-16zm4 8h8c2.216 0 4 1.784 4 4v12h-16v-12c0-2.216 1.784-4 4-4z"/>
   <path id="path3741" style="opacity:.1;color:#000000" transform="translate(0,-74)" d="m40 16c-4.432 0-8 3.568-8 8v16c-4.432 0-8 3.568-8 8v24c0 4.432 3.568 8 8 8h32c4.432 0 8-3.568 8-8v-24c0-4.432-3.568-8-8-8v-16c0-4.432-3.568-8-8-8h-16zm0 2.0625h16c3.3299 0 5.9375 2.6076 5.9375 5.9375v16a2.0536 2.0536 0 0 0 2.062 2.062c3.3299 0 5.9375 2.6076 5.9375 5.9375v24c0 3.3299-2.6076 5.9375-5.9375 5.9375h-32c-3.3299 0-5.9375-2.6076-5.9375-5.9375v-24c0-3.3299 2.6076-5.9375 5.9375-5.9375a2.0536 2.0536 0 0 0 2.062 -2.062v-16c0-3.3299 2.6076-5.9375 5.9375-5.9375zm4 3.875c-3.3181 0-6.0625 2.7444-6.0625 6.0625v12a2.0536 2.0536 0 0 0 2.062 2.062h16a2.0536 2.0536 0 0 0 2.062 -2.062v-12c0-3.3181-2.7444-6.0625-6.0625-6.0625h-8zm0 2.063h8c2.216 0 4 1.784 4 4v12h-16v-12c0-2.216 1.784-4 4-4z"/>
   <path id="path3956" style="opacity:.2;color:#000000" transform="translate(0,-74)" d="m40 16c-4.432 0-8 3.568-8 8v16c-4.432 0-8 3.568-8 8v24c0 4.432 3.568 8 8 8h32c4.432 0 8-3.568 8-8v-24c0-4.432-3.568-8-8-8v-16c0-4.432-3.568-8-8-8h-16zm0 1h16c3.8938 0 7 3.1062 7 7v16a1.0028 1.0028 0 0 0 1 1c3.8938 0 7 3.1062 7 7v24c0 3.8938-3.1062 7-7 7h-32c-3.8938 0-7-3.1062-7-7v-24c0-3.8938 3.1062-7 7-7a1.0028 1.0028 0 0 0 1 -1v-16c0-3.8938 3.1062-7 7-7zm4 6c-2.7542 0-5 2.2458-5 5v12a1.0028 1.0028 0 0 0 1 1h16a1.0028 1.0028 0 0 0 1 -1v-12c0-2.7542-2.2458-5-5-5h-8zm0 1h8c2.216 0 4 1.784 4 4v12h-16v-12c0-2.216 1.784-4 4-4z"/>
   <path id="path3963" style="opacity:.3;color:#000000" transform="translate(0,-74)" d="m40 16c-4.432 0-8 3.568-8 8v1c0-4.432 3.568-8 8-8h16c4.432 0 8 3.568 8 8v-1c0-4.432-3.568-8-8-8h-16zm-8 24c-4.432 0-8 3.568-8 8v1c0-4.432 3.568-8 8-8v-1zm8 0v1h16v-1h-16zm24 0v1c4.432 0 8 3.568 8 8v-1c0-4.432-3.568-8-8-8z"/>
   <path id="path3972" style="opacity:.5;color:#000000;fill:#fff" transform="translate(0,-74)" d="m44 24c-2.216 0-4 1.784-4 4v1c0-2.216 1.784-4 4-4h8c2.216 0 4 1.784 4 4v-1c0-2.216-1.784-4-4-4h-8zm-20 48v1c0 4.432 3.568 8 8 8h32c4.432 0 8-3.568 8-8v-1c0 4.432-3.568 8-8 8h-32c-4.432 0-8-3.568-8-8z"/>
  </g>
  <rect id="rect3003" style="opacity:.15;fill:#fff" clip-path="url(#clipPath3009)" rx="25" ry="25" transform="translate(98)" width="92" y="958.36" x="-96" height="92"/>
 </g>
</svg>
