<?xml version="1.0" encoding="UTF-8" standalone="no"?>
<!-- Created with Inkscape (http://www.inkscape.org/) -->
<svg id="svg11037" xmlns:rdf="http://www.w3.org/1999/02/22-rdf-syntax-ns#" xmlns="http://www.w3.org/2000/svg" height="96" width="96" version="1.1" xmlns:cc="http://creativecommons.org/ns#" xmlns:xlink="http://www.w3.org/1999/xlink" xmlns:dc="http://purl.org/dc/elements/1.1/">
 <defs id="defs11039">
  <linearGradient id="linearGradient11642" x1="48" gradientUnits="userSpaceOnUse" x2="48" gradientTransform="matrix(1.15 0 0 1.15 -7.1999 -150.65)" y1="962.62" y2="1046.1">
   <stop id="stop3189-4" style="stop-color:#c8c8c8" offset="0"/>
   <stop id="stop3191-0" style="stop-color:#e6e6e6" offset="1"/>
  </linearGradient>
  <clipPath id="clipPath3009" clipPathUnits="userSpaceOnUse">
   <path id="path3011" style="opacity:.15;fill:#fff" d="m-2 956.36h-96v33.562l96 25.687v-59.25z"/>
  </clipPath>
  <clipPath id="clipPath2986">
   <path id="path2988" style="opacity:.3;color:#000000;fill:#f00" d="m-100-74v96h96v-96h-96zm48 16c17.673 0 32 14.327 32 32s-14.327 32-32 32-32-14.327-32-32 14.327-32 32-32zm0 8c-13.255 0-24 10.745-24 24s10.745 24 24 24 24-10.745 24-24-10.745-24-24-24zm0 4c2.216 0 4 1.784 4 4v9l7.875-4.5c1.9191-1.108 4.392-0.41911 5.5 1.5s0.41911 4.392-1.5 5.5l-7.75 4.5 7.75 4.5c1.9191 1.108 2.608 3.5809 1.5 5.5s-3.5809 2.608-5.5 1.5l-7.875-4.5v9c0 2.216-1.784 4-4 4s-4-1.784-4-4v-9l-7.875 4.5c-1.9191 1.108-4.392 0.41911-5.5-1.5s-0.41911-4.392 1.5-5.5l7.75-4.5-7.75-4.5c-1.9191-1.108-2.608-3.5809-1.5-5.5s3.5809-2.608 5.5-1.5l7.875 4.5v-9c0-2.216 1.784-4 4-4z"/>
  </clipPath>
  <filter id="filter3762" color-interpolation-filters="sRGB">
   <feGaussianBlur id="feGaussianBlur3764" stdDeviation="0.96"/>
  </filter>
  <linearGradient id="linearGradient2975" x1="8" gradientUnits="userSpaceOnUse" y1="3" gradientTransform="matrix(4,0,0,4,4,-70)" x2="8" y2="19.031">
   <stop id="stop5006" style="stop-color:#323232" offset="0"/>
   <stop id="stop5008" style="stop-color:#787878" offset="1"/>
  </linearGradient>
 </defs>
 <metadata id="metadata11042">
  <rdf:RDF>
   <cc:Work rdf:about="">
    <dc:format>image/svg+xml</dc:format>
    <dc:type rdf:resource="http://purl.org/dc/dcmitype/StillImage"/>
    <dc:title/>
   </cc:Work>
  </rdf:RDF>
 </metadata>
 <g id="layer1" transform="translate(0 -956.36)">
  <rect id="rect3867" style="fill:url(#linearGradient11642)" rx="25" ry="25" height="92" width="92" y="958.36" x="2"/>
  <g id="g3055" transform="translate(-5.1498e-8 1030.4)">
   <path id="path2977" style="opacity:.2;color:#000000;filter:url(#filter3762);stroke:#fff;stroke-width:4;fill:none" clip-path="url(#clipPath2986)" transform="translate(100)" d="m-52-58c-17.673 0-32 14.327-32 32s14.327 32 32 32 32-14.327 32-32-14.327-32-32-32zm0 8c13.255 0 24 10.745 24 24s-10.745 24-24 24-24-10.745-24-24 10.745-24 24-24zm0 4c-2.216 0-4 1.784-4 4v9l-7.875-4.5c-1.9191-1.108-4.392-0.41911-5.5 1.5s-0.41911 4.392 1.5 5.5l7.75 4.5-7.75 4.5c-1.9191 1.108-2.608 3.5809-1.5 5.5s3.5809 2.608 5.5 1.5l7.875-4.5v9c0 2.216 1.784 4 4 4s4-1.784 4-4v-9l7.875 4.5c1.9191 1.108 4.392 0.41911 5.5-1.5s0.41911-4.392-1.5-5.5l-7.75-4.5 7.75-4.5c1.9191-1.108 2.608-3.5809 1.5-5.5s-3.5809-2.608-5.5-1.5l-7.875 4.5v-9c0-2.216-1.784-4-4-4z"/>
   <path id="path2932" style="color:#000000;fill:url(#linearGradient2975)" d="m48-58c-17.673 0-32 14.327-32 32s14.327 32 32 32 32-14.327 32-32-14.327-32-32-32zm0 8c13.255 0 24 10.745 24 24s-10.745 24-24 24-24-10.745-24-24 10.745-24 24-24zm0 4c-2.216 0-4 1.784-4 4v9l-7.875-4.5c-1.9191-1.108-4.392-0.41911-5.5 1.5s-0.41911 4.392 1.5 5.5l7.75 4.5-7.75 4.5c-1.9191 1.108-2.608 3.5809-1.5 5.5s3.5809 2.608 5.5 1.5l7.875-4.5v9c0 2.216 1.784 4 4 4s4-1.784 4-4v-9l7.875 4.5c1.9191 1.108 4.392 0.41911 5.5-1.5s0.41911-4.392-1.5-5.5l-7.75-4.5 7.75-4.5c1.9191-1.108 2.608-3.5809 1.5-5.5s-3.5809-2.608-5.5-1.5l-7.875 4.5v-9c0-2.216-1.784-4-4-4z"/>
   <path id="path3766" style="opacity:.1;color:#000000" transform="translate(0,-74)" d="m48 16c-17.673 0-32 14.327-32 32s14.327 32 32 32 32-14.327 32-32-14.327-32-32-32zm0 1.9688c16.604 0 30.031 13.427 30.031 30.031s-13.427 30.031-30.031 30.031-30.031-13.427-30.031-30.031 13.427-30.031 30.031-30.031zm0 4.0625c-14.324-0.001-25.969 11.644-25.969 25.968s11.645 25.969 25.969 25.969 25.969-11.645 25.969-25.969-11.645-25.969-25.969-25.969zm0 1.968c13.255 0 24 10.745 24 24s-10.745 24-24 24-24-10.745-24-24 10.745-24 24-24zm0 4c-2.216 0-4 1.784-4 4v9l-7.875-4.5c-1.9191-1.108-4.392-0.41911-5.5 1.5s-0.41911 4.392 1.5 5.5l7.75 4.5-7.75 4.5c-1.9191 1.108-2.608 3.5809-1.5 5.5s3.5809 2.608 5.5 1.5l7.875-4.5v9c0 2.216 1.784 4 4 4s4-1.784 4-4v-9l7.875 4.5c1.9191 1.108 4.392 0.41911 5.5-1.5s0.41911-4.392-1.5-5.5l-7.75-4.5 7.75-4.5c1.9191-1.108 2.608-3.5809 1.5-5.5s-3.5809-2.608-5.5-1.5l-7.875 4.5v-9c0-2.216-1.784-4-4-4zm0 1.9688c1.1543 0 2.0312 0.87692 2.0312 2.0312v9a1.9783 1.9783 0 0 0 2.9375 1.7188l7.875-4.5a1.9783 1.9783 0 0 0 0.03125 0c0.97441-0.56257 2.208-0.21166 2.7812 0.78125 0.56257 0.97441 0.21166 2.208-0.78125 2.7812l-7.75 4.5a1.9783 1.9783 0 0 0 0 3.4375l7.75 4.5c0.99291 0.57326 1.3438 1.8068 0.78125 2.7812-0.57326 0.99291-1.8068 1.3438-2.7812 0.78125a1.9783 1.9783 0 0 0 -0.03125 0l-7.875-4.5a1.9783 1.9783 0 0 0 -2.937 1.72v9c0 1.1543-0.87692 2.0312-2.0312 2.0312s-2.0312-0.87692-2.0312-2.0312v-9a1.9783 1.9783 0 0 0 -2.9375 -1.7188l-7.875 4.5a1.9783 1.9783 0 0 0 -0.03125 0c-0.975 0.563-2.209 0.212-2.782-0.781-0.563-0.974-0.212-2.208 0.781-2.781l7.75-4.5a1.9783 1.9783 0 0 0 0 -3.4375l-7.75-4.5c-0.993-0.574-1.344-1.808-0.781-2.782 0.573-0.993 1.807-1.344 2.781-0.781a1.9783 1.9783 0 0 0 0.03125 0l7.875 4.5a1.9783 1.9783 0 0 0 2.938 -1.719v-9c0-1.1543 0.87692-2.0312 2.0312-2.0312z"/>
   <path id="path4087" style="opacity:.2;color:#000000" transform="translate(0,-74)" d="m48 16c-17.673 0-32 14.327-32 32s14.327 32 32 32 32-14.327 32-32-14.327-32-32-32zm0 1.0312c17.118 0 30.969 13.851 30.969 30.969s-13.851 30.969-30.969 30.969-30.969-13.851-30.969-30.969 13.851-30.969 30.969-30.969zm0 5.9375c-13.809 0.001-25.031 11.223-25.031 25.032s11.222 25.031 25.031 25.031 25.031-11.222 25.031-25.031-11.222-25.031-25.031-25.031zm0 1.032c13.255 0 24 10.745 24 24s-10.745 24-24 24-24-10.745-24-24 10.745-24 24-24zm0 4c-2.216 0-4 1.784-4 4v9l-7.875-4.5c-1.9191-1.108-4.392-0.41911-5.5 1.5s-0.41911 4.392 1.5 5.5l7.75 4.5-7.75 4.5c-1.9191 1.108-2.608 3.5809-1.5 5.5s3.5809 2.608 5.5 1.5l7.875-4.5v9c0 2.216 1.784 4 4 4s4-1.784 4-4v-9l7.875 4.5c1.9191 1.108 4.392 0.41911 5.5-1.5s0.41911-4.392-1.5-5.5l-7.75-4.5 7.75-4.5c1.9191-1.108 2.608-3.5809 1.5-5.5s-3.5809-2.608-5.5-1.5l-7.875 4.5v-9c0-2.216-1.784-4-4-4zm0 1.0312c1.6652 0 2.9688 1.3035 2.9688 2.9688v9a1.0263 1.0263 0 0 0 1.531 0.906l7.875-4.5a1.0263 1.0263 0 0 0 0 -0.03125c1.429-0.82504 3.2944-0.31361 4.125 1.125 0.82504 1.429 0.31361 3.2944-1.125 4.125l-7.75 4.5a1.0263 1.0263 0 0 0 0 1.75l7.75 4.5c1.4386 0.83058 1.95 2.696 1.125 4.125-0.83058 1.4386-2.696 1.95-4.125 1.125a1.0263 1.0263 0 0 0 0 -0.03125l-7.875-4.5a1.0263 1.0263 0 0 0 -1.531 0.906v9c0 1.6652-1.3035 2.9688-2.9688 2.9688-1.6652 0-2.9688-1.3035-2.9688-2.9688v-9a1.0263 1.0263 0 0 0 -1.531 -0.906l-7.875 4.5a1.0263 1.0263 0 0 0 0 0.03125c-1.429 0.825-3.294 0.314-4.125-1.125-0.825-1.429-0.314-3.294 1.125-4.125l7.75-4.5a1.0263 1.0263 0 0 0 0 -1.75l-7.75-4.5c-1.439-0.831-1.95-2.696-1.125-4.125 0.83058-1.4386 2.696-1.95 4.125-1.125a1.0263 1.0263 0 0 0 0 0.03125l7.875 4.5a1.0263 1.0263 0 0 0 1.531 -0.906v-9c0-1.6652 1.3035-2.9688 2.9688-2.9688z"/>
   <path id="path4100" style="opacity:.3;color:#000000" transform="translate(0,-74)" d="m48 16c-17.673 0-32 14.327-32 32 0 0.16667-0.0025 0.33394 0 0.5 0.267-17.443 14.494-31.5 32-31.5s31.733 14.057 32 31.5c0.003-0.166 0-0.333 0-0.5 0-17.673-14.327-32-32-32zm0 12c-2.216 0-4 1.784-4 4v1c0-2.216 1.784-4 4-4s4 1.784 4 4v-1c0-2.216-1.784-4-4-4zm-14.156 7.969c-1.291 0.1-2.526 0.832-3.219 2.031-0.44853 0.77687-0.60279 1.6377-0.5 2.4688 0.06407-0.50846 0.22853-0.99855 0.5-1.4688 1.108-1.9191 3.5809-2.608 5.5-1.5l7.875 4.5v-1l-7.875-4.5c-0.71967-0.4155-1.507-0.59124-2.2812-0.53125zm28.312 0c-0.774-0.06-1.561 0.115-2.281 0.531l-7.875 4.5v1l7.875-4.5c1.9191-1.108 4.392-0.41911 5.5 1.5 0.27147 0.4702 0.43593 0.96028 0.5 1.4688 0.103-0.831-0.051-1.692-0.5-2.469-0.693-1.199-1.928-1.931-3.219-2.031zm-38.156 12.531c-0.0033 0.16478 0 0.33442 0 0.5 0 13.255 10.745 24 24 24s24-10.745 24-24c0-0.16558 0.0033-0.33522 0-0.5-0.264 13.026-10.911 23.5-24 23.5s-23.736-10.474-24-23.5zm15 0-6.875 4c-1.4393 0.831-2.1837 2.4429-2 4 0.15881-1.2108 0.86699-2.3459 2-3l7.75-4.5-0.875-0.5zm18 0-0.875 0.5 7.75 4.5c1.133 0.65415 1.8412 1.7892 2 3 0.18373-1.5571-0.56067-3.169-2-4l-6.875-4z"/>
   <path id="path4109" style="opacity:.5;color:#000000;fill:#fff" transform="translate(0,-74)" d="m48 24c-13.255 0-24 10.745-24 24 0 0.16558-0.0033 0.33522 0 0.5 0.264-13.026 10.911-23.5 24-23.5s23.736 10.474 24 23.5c0.003-0.165 0-0.334 0-0.5 0-13.255-10.745-24-24-24zm-17.875 16.5c-0.18373 1.5571 0.56067 3.169 2 4l6.875 4 0.875-0.5-7.75-4.5c-1.133-0.65415-1.8412-1.7892-2-3zm35.75 0c-0.15881 1.2108-0.86699 2.3459-2 3l-7.75 4.5 0.875 0.5 6.875-4c1.4393-0.831 2.1837-2.4429 2-4zm-49.875 8c-0.0025 0.16606 0 0.33333 0 0.5 0 17.673 14.327 32 32 32s32-14.327 32-32c0-0.16667 0.0025-0.33394 0-0.5-0.267 17.443-14.494 31.5-32 31.5s-31.733-14.057-32-31.5zm28 6.5-7.875 4.5c-1.9191 1.108-4.392 0.41911-5.5-1.5-0.27147-0.4702-0.43593-0.96028-0.5-1.4688-0.10279 0.83109 0.05147 1.6919 0.5 2.4688 1.108 1.9191 3.5809 2.608 5.5 1.5l7.875-4.5v-1zm8 0v1l7.875 4.5c1.9191 1.108 4.392 0.41911 5.5-1.5 0.44853-0.77687 0.60279-1.6377 0.5-2.4688-0.06407 0.50846-0.22853 0.99855-0.5 1.4688-1.108 1.9191-3.5809 2.608-5.5 1.5l-7.875-4.5zm-8 9v1c0 2.216 1.784 4 4 4s4-1.784 4-4v-1c0 2.216-1.784 4-4 4s-4-1.784-4-4z"/>
  </g>
  <rect id="rect3003" style="opacity:.15;fill:#fff" clip-path="url(#clipPath3009)" rx="25" ry="25" transform="translate(98)" width="92" y="958.36" x="-96" height="92"/>
 </g>
</svg>
