<?xml version="1.0" encoding="UTF-8" standalone="no"?>
<!-- Created with Inkscape (http://www.inkscape.org/) -->
<svg id="svg11037" xmlns:rdf="http://www.w3.org/1999/02/22-rdf-syntax-ns#" xmlns="http://www.w3.org/2000/svg" height="96" width="96" version="1.1" xmlns:cc="http://creativecommons.org/ns#" xmlns:xlink="http://www.w3.org/1999/xlink" xmlns:dc="http://purl.org/dc/elements/1.1/">
 <defs id="defs11039">
  <linearGradient id="linearGradient11642" x1="48" gradientUnits="userSpaceOnUse" x2="48" gradientTransform="matrix(1.15 0 0 1.15 -7.1999 -150.65)" y1="962.62" y2="1046.1">
   <stop id="stop3189-4" style="stop-color:#c8c8c8" offset="0"/>
   <stop id="stop3191-0" style="stop-color:#e6e6e6" offset="1"/>
  </linearGradient>
  <clipPath id="clipPath3009" clipPathUnits="userSpaceOnUse">
   <path id="path3011" style="opacity:.15;fill:#fff" d="m-2 956.36h-96v33.562l96 25.687v-59.25z"/>
  </clipPath>
  <clipPath id="clipPath3647">
   <path id="path3649" style="opacity:.3;color:#000000;fill:#f00" d="m-100-74v96h96v-96h-96zm32.938 20 15.062 15.062 15.062-15.062 12.938 12.938-15.062 15.062 15.062 15.062-12.938 12.938-15.062-15.062-15.062 15.062-12.938-12.938 15.062-15.062-15.062-15.062 12.938-12.938z"/>
  </clipPath>
  <filter id="filter3651" color-interpolation-filters="sRGB">
   <feGaussianBlur id="feGaussianBlur3653" stdDeviation="0.84000001"/>
  </filter>
  <linearGradient id="linearGradient3634" x1="11" gradientUnits="userSpaceOnUse" y1="3.9375" gradientTransform="matrix(4,0,0,4,4,-70)" x2="11" y2="18.083">
   <stop id="stop3906" style="stop-color:#323232" offset="0"/>
   <stop id="stop3908" style="stop-color:#787878" offset="1"/>
  </linearGradient>
 </defs>
 <metadata id="metadata11042">
  <rdf:RDF>
   <cc:Work rdf:about="">
    <dc:format>image/svg+xml</dc:format>
    <dc:type rdf:resource="http://purl.org/dc/dcmitype/StillImage"/>
    <dc:title/>
   </cc:Work>
  </rdf:RDF>
 </metadata>
 <g id="layer1" transform="translate(0 -956.36)">
  <rect id="rect3867" style="fill:url(#linearGradient11642)" rx="25" ry="25" height="92" width="92" y="958.36" x="2"/>
  <g id="g3044" transform="translate(8.0109e-8 1030.4)">
   <path id="path3638" style="opacity:.2;filter:url(#filter3651);stroke:#fff;stroke-width:4;fill:none" clip-path="url(#clipPath3647)" transform="translate(100)" d="m-36.923-54-15.077 15.077-15.077-15.077-12.923 12.923 15.077 15.077-15.077 15.077 12.923 12.923 15.077-15.077 15.077 15.077 12.923-12.923-15.077-15.077 15.077-15.077-12.923-12.923z"/>
   <path id="Symbol" style="fill:url(#linearGradient3634)" d="m63.077-54-15.077 15.077-15.077-15.077-12.923 12.923 15.077 15.077-15.077 15.077 12.923 12.923 15.077-15.077 15.077 15.077 12.923-12.923-15.077-15.077 15.077-15.077-12.923-12.923z"/>
   <path id="path3876" style="opacity:.1" transform="translate(0,-74)" d="m32.938 20-12.938 12.938 15.062 15.062-15.062 15.062 12.938 12.938 15.062-15.062 15.062 15.062 12.938-12.938-15.062-15.062 15.062-15.062-12.938-12.938-15.062 15.062-15.062-15.062zm0 2.6875 13.719 13.719a1.8997 1.8997 0 0 0 2.6875 0l13.718-13.719 10.25 10.25-13.719 13.719a1.8997 1.8997 0 0 0 0 2.6875l13.719 13.718-10.25 10.25-13.718-13.718a1.8997 1.8997 0 0 0 -2.6875 0l-13.718 13.718-10.25-10.25 13.718-13.718a1.8997 1.8997 0 0 0 0 -2.6875l-13.718-13.718 10.25-10.25z"/>
   <path id="path3104" style="opacity:.2" transform="translate(0,-74)" d="m32.938 20-12.938 12.938 15.062 15.062-15.062 15.062 12.938 12.938 15.062-15.062 15.062 15.062 12.938-12.938-15.062-15.062 15.062-15.062-12.938-12.938-15.062 15.062-15.062-15.062zm0 1.5625 14.281 14.281a1.1082 1.1082 0 0 0 1.5625 0l14.28-14.281 11.376 11.376-14.282 14.281a1.1082 1.1082 0 0 0 0 1.5625l14.282 14.28-11.376 11.376-14.281-14.282a1.1082 1.1082 0 0 0 -1.5625 0l-14.28 14.282-11.376-11.376 14.282-14.281a1.1082 1.1082 0 0 0 0 -1.5625l-14.282-14.28 11.376-11.376z"/>
   <path id="path3886" style="opacity:.3" transform="translate(0,-74)" d="m32.938 20-12.938 12.938l0.5 0.5 12.438-12.438 15.062 15.062 15.062-15.062 12.438 12.438 0.5-0.5-12.938-12.938-15.062 15.062-15.062-15.062zm1.624 28.5-14.562 14.562l0.5 0.5 14.562-14.562-0.5-0.5zm26.875 0-0.5 0.5l14.563 14.562 0.5-0.5-14.562-14.562z"/>
   <path id="path3895" style="opacity:.5;fill:#fff" transform="translate(0,-74)" d="m20.5 33.438-0.5 0.5 14.562 14.562 0.5-0.5-14.562-14.562zm55 0l-14.562 14.562 0.5 0.5 14.562-14.562-0.5-0.5zm-27.5 27.5-15.062 15.062-12.438-12.438-0.5 0.5 12.938 12.938 15.062-15.062 15.062 15.062 12.938-12.938-0.5-0.5-12.438 12.438-15.062-15.062z"/>
  </g>
  <rect id="rect3003" style="opacity:.15;fill:#fff" clip-path="url(#clipPath3009)" rx="25" ry="25" transform="translate(98)" width="92" y="958.36" x="-96" height="92"/>
 </g>
</svg>
