<?xml version="1.0" encoding="UTF-8" standalone="no"?>
<!-- Created with Inkscape (http://www.inkscape.org/) -->
<svg id="svg11037" xmlns:rdf="http://www.w3.org/1999/02/22-rdf-syntax-ns#" xmlns="http://www.w3.org/2000/svg" height="96" width="96" version="1.1" xmlns:cc="http://creativecommons.org/ns#" xmlns:xlink="http://www.w3.org/1999/xlink" xmlns:dc="http://purl.org/dc/elements/1.1/">
 <defs id="defs11039">
  <linearGradient id="linearGradient11642" x1="48" gradientUnits="userSpaceOnUse" x2="48" gradientTransform="matrix(1.15 0 0 1.15 -7.1999 -150.65)" y1="962.62" y2="1046.1">
   <stop id="stop3189-4" style="stop-color:#c8c8c8" offset="0"/>
   <stop id="stop3191-0" style="stop-color:#e6e6e6" offset="1"/>
  </linearGradient>
  <clipPath id="clipPath3009" clipPathUnits="userSpaceOnUse">
   <path id="path3011" style="opacity:.15;fill:#fff" d="m-2 956.36h-96v33.562l96 25.687v-59.25z"/>
  </clipPath>
  <clipPath id="clipPath2883-8">
   <path id="path2885-0" style="opacity:.3;color:#000000;fill:#f00" d="m-100-74v96h96v-96h-96zm48 16c17.664 0 32 14.336 32 32 0.000004 17.664-14.336 32-32 32s-32-14.336-32-32 14.336-32 32-32zm12.125 16.125-16.25 18.875-8-7.25-7.75 8.375 15.75 15.625 24-27.25-7.75-8.375z"/>
  </clipPath>
  <filter id="filter3663-9" color-interpolation-filters="sRGB">
   <feGaussianBlur id="feGaussianBlur3665-2" stdDeviation="0.96"/>
  </filter>
  <radialGradient id="radialGradient2872-3" gradientUnits="userSpaceOnUse" cy="120.2" cx="64" gradientTransform="matrix(.90098 0 0 1.1429 -9.663 -131.37)" r="56">
   <stop id="stop3627-9" style="stop-color:#787878" offset="0"/>
   <stop id="stop3629-0" style="stop-color:#323232" offset="1"/>
  </radialGradient>
 </defs>
 <metadata id="metadata11042">
  <rdf:RDF>
   <cc:Work rdf:about="">
    <dc:format>image/svg+xml</dc:format>
    <dc:type rdf:resource="http://purl.org/dc/dcmitype/StillImage"/>
    <dc:title/>
   </cc:Work>
  </rdf:RDF>
 </metadata>
 <g id="layer1" transform="translate(0 -956.36)">
  <rect id="rect3867" style="fill:url(#linearGradient11642)" rx="25" ry="25" height="92" width="92" y="958.36" x="2"/>
  <g id="layer3" transform="translate(-5.1498e-8 1030.4)">
   <path id="path2874" style="opacity:.2;filter:url(#filter3663-9);stroke:#fff;stroke-width:4;fill:none" clip-path="url(#clipPath2883-8)" transform="translate(100)" d="m-52-58c-17.664 0-32 14.336-32 32s14.336 32 32 32 32-14.336 32-32-14.336-32-32-32zm12.125 16.125 7.75 8.375-24 27.25-15.75-15.625 7.75-8.375 8 7.25 16.25-18.875z"/>
   <path id="path2505" style="fill:url(#radialGradient2872-3)" d="m48-58c-17.664 0-32 14.336-32 32s14.336 32 32 32 32-14.336 32-32-14.336-32-32-32zm12.125 16.125 7.75 8.375-24 27.25-15.75-15.625 7.75-8.375 8 7.25 16.25-18.875z"/>
   <path id="path3891" style="opacity:.1" transform="translate(0,-74)" d="m48 16c-17.664 0-32 14.336-32 32s14.336 32 32 32 32-14.336 32-32-14.336-32-32-32zm0 2.0312c16.572 0 29.969 13.397 29.969 29.969s-13.397 29.969-29.969 29.969-29.969-13.397-29.969-29.969 13.397-29.969 29.969-29.969zm12 12.062a2.0177 2.0177 0 0 0 -1.406 0.719l-14.906 17.313-6.469-5.875a2.0177 2.0177 0 0 0 -2.8125 0.125l-7.75 8.375a2.0177 2.0177 0 0 0 0.0625 2.8125l15.75 15.625a2.0177 2.0177 0 0 0 2.907 -0.093l24-27.25a2.0177 2.0177 0 0 0 -0.031 -2.719l-7.75-8.375a2.0177 2.0177 0 0 0 -1.375 -0.65625 2.0177 2.0177 0 0 0 -0.21875 0zm0.125 2.0312 7.75 8.375-24 27.25-15.75-15.625 7.75-8.375 8 7.25 16.25-18.875z"/>
   <path id="path3119" style="opacity:.2" transform="translate(0,-74)" d="m48 16c-17.664 0-32 14.336-32 32s14.336 32 32 32 32-14.336 32-32-14.336-32-32-32zm0 1.0312c17.109 0 30.969 13.86 30.969 30.969s-13.86 30.969-30.969 30.969-30.969-13.86-30.969-30.969 13.86-30.969 30.969-30.969zm11.938 14.062a1.0263 1.0263 0 0 0 -0.59375 0.375l-15.563 18.063-7.219-6.531a1.0263 1.0263 0 0 0 -1.4375 0.0625l-7.75 8.375a1.0263 1.0263 0 0 0 0.03125 1.4062l15.75 15.625a1.0263 1.0263 0 0 0 1.5 -0.03125l24-27.25a1.0263 1.0263 0 0 0 -0.03 -1.375l-7.75-8.375a1.0263 1.0263 0 0 0 -0.8125 -0.34375 1.0263 1.0263 0 0 0 -0.125 0zm0.1875 1.0312 7.75 8.375-24 27.25-15.75-15.625 7.75-8.375 8 7.25 16.25-18.875z"/>
   <path id="path3901" style="opacity:.3" transform="translate(0,-74)" d="m48 16c-17.664 0-32 14.336-32 32 0 0.16658-0.0025 0.33402 0 0.5 0.267-17.434 14.503-31.5 32-31.5s31.733 14.066 32 31.5c0.003-0.166 0-0.333 0-0.5 0-17.664-14.336-32-32-32zm19.438 25-23.563 26.75-15.281-15.156-0.469 0.531 15.75 15.625 24-27.25-0.437-0.5z"/>
   <path id="path3910" style="opacity:.5;fill:#fff" transform="translate(0,-74)" d="m60.125 32.125-16.25 18.875l-8-7.25-7.75 8.375 0.46875 0.46875 7.281-7.844 8 7.25 16.25-18.875 7.313 7.875 0.437-0.5-7.75-8.375zm-44.125 16.375c-0.0025 0.16598 0 0.33342 0 0.5 0 17.664 14.336 32 32 32s32-14.336 32-32c0-0.16658 0.0025-0.33402 0-0.5-0.267 17.434-14.503 31.5-32 31.5s-31.733-14.066-32-31.5z"/>
  </g>
  <rect id="rect3003" style="opacity:.15;fill:#fff" clip-path="url(#clipPath3009)" rx="25" ry="25" transform="translate(98)" width="92" y="958.36" x="-96" height="92"/>
 </g>
</svg>
