<?xml version="1.0" encoding="UTF-8" standalone="no"?>
<!-- Created with Inkscape (http://www.inkscape.org/) -->
<svg id="svg11037" xmlns:rdf="http://www.w3.org/1999/02/22-rdf-syntax-ns#" xmlns="http://www.w3.org/2000/svg" height="96" width="96" version="1.1" xmlns:cc="http://creativecommons.org/ns#" xmlns:xlink="http://www.w3.org/1999/xlink" xmlns:dc="http://purl.org/dc/elements/1.1/">
 <defs id="defs11039">
  <linearGradient id="linearGradient11642" x1="48" gradientUnits="userSpaceOnUse" x2="48" gradientTransform="matrix(1.15 0 0 1.15 -7.1999 -150.65)" y1="962.62" y2="1046.1">
   <stop id="stop3189-4" style="stop-color:#c8c8c8" offset="0"/>
   <stop id="stop3191-0" style="stop-color:#e6e6e6" offset="1"/>
  </linearGradient>
  <clipPath id="clipPath3009" clipPathUnits="userSpaceOnUse">
   <path id="path3011" style="opacity:.15;fill:#fff" d="m-2 956.36h-96v33.562l96 25.687v-59.25z"/>
  </clipPath>
  <filter id="filter3899" color-interpolation-filters="sRGB">
   <feGaussianBlur id="feGaussianBlur3901" stdDeviation="0.57"/>
  </filter>
  <linearGradient id="linearGradient3182" x1="12" gradientUnits="userSpaceOnUse" y1="4.5" gradientTransform="matrix(4,0,0,4,0,-82)" x2="12" y2="20.5">
   <stop id="stop3657" style="stop-color:#ad0707" offset="0"/>
   <stop id="stop3659" style="stop-color:#f75535" offset="1"/>
  </linearGradient>
 </defs>
 <metadata id="metadata11042">
  <rdf:RDF>
   <cc:Work rdf:about="">
    <dc:format>image/svg+xml</dc:format>
    <dc:type rdf:resource="http://purl.org/dc/dcmitype/StillImage"/>
    <dc:title/>
   </cc:Work>
  </rdf:RDF>
 </metadata>
 <g id="layer1" transform="translate(0 -956.36)">
  <rect id="rect3867" style="fill:url(#linearGradient11642)" rx="25" ry="25" height="92" width="92" y="958.36" x="2"/>
  <g id="g3053" transform="translate(-1.7166e-8 1036.4)">
   <path id="path3129" style="opacity:.2;color:#000000;filter:url(#filter3899);stroke:#fff;stroke-width:4;fill:none" d="m43-62c-1.662 0-3 1.338-3 3v30c0 1.662 1.338 3 3 3h10c1.662 0 3-1.338 3-3v-30c0-1.662-1.4233-2.4744-3-3h-7zm0 44c-1.662 0-3 1.338-3 3v10c0 1.662 1.4233 2.4744 3 3h10c1.662 0 3-1.338 3-3v-10c0-1.662-1.338-3-3-3h-7z"/>
   <path id="rect3734" style="color:#000000;fill:url(#linearGradient3182)" d="m43-62c-1.662 0-3 1.338-3 3v30c0 1.662 1.338 3 3 3h10c1.662 0 3-1.338 3-3v-30c0-1.662-1.4233-2.4744-3-3h-7zm0 44c-1.662 0-3 1.338-3 3v10c0 1.662 1.4233 2.4744 3 3h10c1.662 0 3-1.338 3-3v-10c0-1.662-1.338-3-3-3h-7z"/>
   <path id="path3956" style="opacity:.1;color:#000000;fill:#500" transform="translate(0,-80)" d="m43 18c-1.662 0-3 1.338-3 3v30c0 1.662 1.338 3 3 3h10c1.662 0 3-1.338 3-3v-30c0-1.662-1.4233-2.4744-3-3h-10zm0 2h9.5625c0.5423 0.20257 1.0224 0.42449 1.2188 0.59375 0.227 0.195 0.219 0.145 0.219 0.406v30c0 0.59107-0.40893 1-1 1h-10c-0.59107 0-1-0.40893-1-1v-30c0-0.59107 0.40893-1 1-1zm0 42c-1.662 0-3 1.338-3 3v10c0 1.662 1.4233 2.4744 3 3h10c1.662 0 3-1.338 3-3v-10c0-1.662-1.338-3-3-3h-10zm0 2h10c0.59107 0 1 0.40893 1 1v10c0 0.59107-0.40893 1-1 1h-9.5625c-0.543-0.203-1.023-0.424-1.219-0.594-0.227-0.195-0.219-0.145-0.219-0.406v-10c0-0.59107 0.40893-1 1-1z"/>
   <path id="path3184" style="opacity:.2;color:#000000;fill:#500" transform="translate(0,-80)" d="m43 18c-1.662 0-3 1.338-3 3v30c0 1.662 1.338 3 3 3h10c1.662 0 3-1.338 3-3v-30c0-1.662-1.4233-2.4744-3-3h-10zm0 0.96875h9.75c0.69712 0.23864 1.3388 0.51628 1.7188 0.84375 0.39381 0.33942 0.5625 0.63435 0.5625 1.1875v30c0 1.1396-0.89165 2.0312-2.0312 2.0312h-10c-1.1396 0-2.0312-0.89165-2.0312-2.0312v-30c0-1.1396 0.89165-2.0312 2.0312-2.0312zm0 43.031c-1.662 0-3 1.338-3 3v10c0 1.662 1.4233 2.4744 3 3h10c1.662 0 3-1.338 3-3v-10c0-1.662-1.338-3-3-3h-10zm0 0.96875h10c1.1396 0 2.0312 0.89165 2.0312 2.0312v10c0 1.1396-0.89165 2.0312-2.0312 2.0312h-9.75c-0.697-0.238-1.339-0.516-1.719-0.843-0.394-0.34-0.562-0.635-0.562-1.188v-10c0-1.1396 0.89165-2.0312 2.0312-2.0312z"/>
   <path id="path3966" style="opacity:.3;color:#000000;fill:#500" transform="translate(0,-80)" d="m43 18c-1.662 0-3 1.338-3 3v1c0-1.662 1.338-3 3-3h10c1.5767 0.52557 3 1.338 3 3v-1c0-1.662-1.4233-2.4744-3-3h-10zm0 44c-1.662 0-3 1.338-3 3v1c0-1.662 1.338-3 3-3h10c1.662 0 3 1.338 3 3v-1c0-1.662-1.338-3-3-3h-10z"/>
   <path id="path3975" style="opacity:.8;color:#000000;fill:#fff" transform="translate(0,-80)" d="m40 51v1c0 1.662 1.338 3 3 3h10c1.662 0 3-1.338 3-3v-1c0 1.662-1.338 3-3 3h-10c-1.662 0-3-1.338-3-3zm0 24v1c0 1.662 1.4233 2.4744 3 3h10c1.662 0 3-1.338 3-3v-1c0 1.662-1.338 3-3 3h-10c-1.5767-0.52557-3-1.338-3-3z"/>
  </g>
  <rect id="rect3003" style="opacity:.15;fill:#fff" clip-path="url(#clipPath3009)" rx="25" ry="25" transform="translate(98)" width="92" y="958.36" x="-96" height="92"/>
 </g>
</svg>
