<?xml version="1.0" encoding="UTF-8" standalone="no"?>
<!-- Created with Inkscape (http://www.inkscape.org/) -->
<svg id="svg11037" xmlns:rdf="http://www.w3.org/1999/02/22-rdf-syntax-ns#" xmlns="http://www.w3.org/2000/svg" height="96" width="96" version="1.1" xmlns:cc="http://creativecommons.org/ns#" xmlns:xlink="http://www.w3.org/1999/xlink" xmlns:dc="http://purl.org/dc/elements/1.1/">
 <defs id="defs11039">
  <linearGradient id="linearGradient11642" x1="48" gradientUnits="userSpaceOnUse" x2="48" gradientTransform="matrix(1.15 0 0 1.15 -7.1999 -150.65)" y1="962.62" y2="1046.1">
   <stop id="stop3189-4" style="stop-color:#c8c8c8" offset="0"/>
   <stop id="stop3191-0" style="stop-color:#e6e6e6" offset="1"/>
  </linearGradient>
  <clipPath id="clipPath3009" clipPathUnits="userSpaceOnUse">
   <path id="path3011" style="opacity:.15;fill:#fff" d="m-2 956.36h-96v33.562l96 25.687v-59.25z"/>
  </clipPath>
  <clipPath id="clipPath3723">
   <path id="path3725" style="opacity:.3;color:#000000;fill:#f00" d="m-100-80v96h96v-96h-96zm48 16c17.673 0 32 14.327 32 32s-14.327 32-32 32-32-14.327-32-32 14.327-32 32-32zm0 8c-13.255 0-24 10.745-24 24s10.745 24 24 24 24-10.745 24-24-10.745-24-24-24zm-0.25 4h0.5c2.0639 0 3.75 1.6861 3.75 3.75v12.25h10c2.216 0 4 1.784 4 4s-1.784 4-4 4h-14c-0.0869 0-0.16451 0.0054-0.25 0-2.0639 0-3.75-1.6861-3.75-3.75v-16.5c0-2.0639 1.6861-3.75 3.75-3.75z"/>
  </clipPath>
  <filter id="filter3727" color-interpolation-filters="sRGB">
   <feGaussianBlur id="feGaussianBlur3729" stdDeviation="0.96"/>
  </filter>
  <linearGradient id="linearGradient3728" x1="3" gradientUnits="userSpaceOnUse" y1="11" gradientTransform="matrix(0,4,-4,0,92,-76)" x2="19" y2="11">
   <stop id="stop3657" style="stop-color:#ad0707" offset="0"/>
   <stop id="stop3659" style="stop-color:#f75535" offset="1"/>
  </linearGradient>
 </defs>
 <metadata id="metadata11042">
  <rdf:RDF>
   <cc:Work rdf:about="">
    <dc:format>image/svg+xml</dc:format>
    <dc:type rdf:resource="http://purl.org/dc/dcmitype/StillImage"/>
    <dc:title/>
   </cc:Work>
  </rdf:RDF>
 </metadata>
 <g id="layer1" transform="translate(0 -956.36)">
  <rect id="rect3867" style="fill:url(#linearGradient11642)" rx="25" ry="25" height="92" width="92" y="958.36" x="2"/>
  <g id="g3044" transform="translate(-5.1498e-8 1036.4)">
   <path id="path3714" style="opacity:.2;color:#000000;filter:url(#filter3727);stroke:#fff;stroke-width:4;fill:none" clip-path="url(#clipPath3723)" transform="translate(100)" d="m-52-64c-17.673 0-32 14.327-32 32s14.327 32 32 32 32-14.327 32-32-14.327-32-32-32zm0 8c13.255 0 24 10.745 24 24s-10.745 24-24 24-24-10.745-24-24 10.745-24 24-24zm-0.25 4c-2.0639 0-3.75 1.6861-3.75 3.75v16.5c0 2.0639 1.6861 3.75 3.75 3.75 0.08549 0.0054 0.1631 0 0.25 0h14c2.216 0 4-1.784 4-4s-1.784-4-4-4h-10v-12.25c0-2.0639-1.6861-3.75-3.75-3.75h-0.5z"/>
   <path id="path3716" style="color:#000000;fill:url(#linearGradient3728)" d="m48-64c-17.673 0-32 14.327-32 32s14.327 32 32 32 32-14.327 32-32-14.327-32-32-32zm0 8c13.255 0 24 10.745 24 24s-10.745 24-24 24-24-10.745-24-24 10.745-24 24-24zm-0.25 4c-2.0639 0-3.75 1.6861-3.75 3.75v16.5c0 2.0639 1.6861 3.75 3.75 3.75 0.08549 0.0054 0.1631 0 0.25 0h14c2.216 0 4-1.784 4-4s-1.784-4-4-4h-10v-12.25c0-2.064-1.686-3.75-3.75-3.75h-0.5z"/>
   <path id="path3731" style="opacity:.1;color:#000000;fill:#500" d="m48-64c-17.673 0-32 14.327-32 32s14.327 32 32 32 32-14.327 32-32-14.327-32-32-32zm0 2c16.595 0 30 13.405 30 30s-13.405 30-30 30-30-13.405-30-30 13.405-30 30-30zm0 4c-14.332 0-26 11.668-26 26s11.668 26 26 26 26-11.668 26-26-11.668-26-26-26zm0 2c13.255 0 24 10.745 24 24s-10.745 24-24 24-24-10.745-24-24 10.745-24 24-24zm-0.25 4c-2.0639 0-3.75 1.6861-3.75 3.75v16.5c0 2.0639 1.6861 3.75 3.75 3.75 0.08549 0.0054 0.1631 0 0.25 0h14c2.216 0 4-1.784 4-4s-1.784-4-4-4h-10v-12.25c0-2.064-1.686-3.75-3.75-3.75h-0.5zm0 2h0.5c0.97797 0 1.75 0.77203 1.75 1.75v12.25a1.9942 1.9942 0 0 0 2 2h10c1.1458 0 2 0.8542 2 2s-0.8542 2-2 2h-14c-0.16951 0-0.19875-0.0047-0.125 0a1.9942 1.9942 0 0 0 -0.125 0c-0.978 0-1.75-0.772-1.75-1.75v-16.5c0-0.97797 0.77203-1.75 1.75-1.75z"/>
   <path id="path3186" style="opacity:.2;color:#000000;fill:#500" transform="translate(0,-80)" d="m48 16c-17.673 0-32 14.327-32 32s14.327 32 32 32 32-14.327 32-32-14.327-32-32-32zm0 1.0312c17.123 0 30.969 13.846 30.969 30.969s-13.846 30.969-30.969 30.969-30.969-13.846-30.969-30.969 13.846-30.969 30.969-30.969zm0 5.9375c-13.805 0.001-25.031 11.227-25.031 25.032s11.226 25.031 25.031 25.031 25.031-11.226 25.031-25.031-11.226-25.031-25.031-25.031zm0 1.032c13.255 0 24 10.745 24 24s-10.745 24-24 24-24-10.745-24-24 10.745-24 24-24zm-0.25 4c-2.064 0-3.75 1.686-3.75 3.75v16.5c0 2.0639 1.6861 3.75 3.75 3.75 0.08549 0.0054 0.1631 0 0.25 0h14c2.216 0 4-1.784 4-4s-1.784-4-4-4h-10v-12.25c0-2.064-1.686-3.75-3.75-3.75h-0.5zm0 1.0312h0.5c1.5091 0 2.7188 1.2096 2.7188 2.7188v12.25a1.0188 1.0188 0 0 0 1.031 1.031h10c1.6692 0 2.9688 1.2995 2.9688 2.9688 0 1.6692-1.2995 2.9688-2.9688 2.9688h-14c-0.1291 0-0.18337 0.000261-0.1875 0a1.0188 1.0188 0 0 0 -0.0625 0c-1.5091 0-2.7188-1.2096-2.7188-2.7188v-16.5c0-1.5091 1.2096-2.7188 2.7188-2.7188z"/>
   <path id="path3961" style="opacity:.3;color:#000000;fill:#500" transform="translate(0,-80)" d="m48 16c-17.673 0-32 14.327-32 32 0 0.16667-0.0025 0.33394 0 0.5 0.267-17.443 14.494-31.5 32-31.5s31.733 14.057 32 31.5c0.003-0.166 0-0.333 0-0.5 0-17.673-14.327-32-32-32zm-0.25 12c-2.064 0-3.75 1.686-3.75 3.75v1c0-2.064 1.686-3.75 3.75-3.75h0.5c2.0639 0 3.75 1.6861 3.75 3.75v-1c0-2.064-1.686-3.75-3.75-3.75h-0.5zm4.25 16v1h10c2.0454 0 3.6913 1.5235 3.9375 3.5 0.02-0.165 0.062-0.329 0.062-0.5 0-2.216-1.784-4-4-4h-10zm-28 4.5c-0.0033 0.16478 0 0.33442 0 0.5 0 13.255 10.745 24 24 24s24-10.745 24-24c0-0.16558 0.0033-0.33522 0-0.5-0.264 13.026-10.911 23.5-24 23.5s-23.736-10.474-24-23.5z"/>
   <path id="path3970" style="opacity:.5;color:#000000;fill:#fff" transform="translate(0,-80)" d="m48 24c-13.255 0-24 10.745-24 24 0 0.16558-0.0033 0.33522 0 0.5 0.264-13.026 10.911-23.5 24-23.5s23.736 10.474 24 23.5c0.003-0.165 0-0.334 0-0.5 0-13.255-10.745-24-24-24zm-4 24.25v1c0 2.0639 1.6861 3.75 3.75 3.75 0.08549 0.0054 0.1631 0 0.25 0h14c2.216 0 4-1.784 4-4 0-0.17065-0.04196-0.33509-0.0625-0.5-0.247 1.977-1.893 3.5-3.938 3.5h-14c-0.0869 0-0.16451 0.0054-0.25 0-2.064 0-3.75-1.686-3.75-3.75zm-28 0.25c-0.0025 0.16606 0 0.33333 0 0.5 0 17.673 14.327 32 32 32s32-14.327 32-32c0-0.16667 0.0025-0.33394 0-0.5-0.267 17.443-14.494 31.5-32 31.5s-31.733-14.057-32-31.5z"/>
  </g>
  <rect id="rect3003" style="opacity:.15;fill:#fff" clip-path="url(#clipPath3009)" rx="25" ry="25" transform="translate(98)" width="92" y="958.36" x="-96" height="92"/>
 </g>
</svg>
