<?xml version="1.0" encoding="UTF-8" standalone="no"?>
<!-- Created with Inkscape (http://www.inkscape.org/) -->
<svg id="svg11037" xmlns:rdf="http://www.w3.org/1999/02/22-rdf-syntax-ns#" xmlns="http://www.w3.org/2000/svg" height="96" width="96" version="1.1" xmlns:cc="http://creativecommons.org/ns#" xmlns:xlink="http://www.w3.org/1999/xlink" xmlns:dc="http://purl.org/dc/elements/1.1/">
 <defs id="defs11039">
  <linearGradient id="linearGradient11642" x1="48" gradientUnits="userSpaceOnUse" x2="48" gradientTransform="matrix(1.15 0 0 1.15 -7.1999 -150.65)" y1="962.62" y2="1046.1">
   <stop id="stop3189-4" style="stop-color:#c8c8c8" offset="0"/>
   <stop id="stop3191-0" style="stop-color:#e6e6e6" offset="1"/>
  </linearGradient>
  <clipPath id="clipPath3009" clipPathUnits="userSpaceOnUse">
   <path id="path3011" style="opacity:.15;fill:#fff" d="m-2 956.36h-96v33.562l96 25.687v-59.25z"/>
  </clipPath>
  <clipPath id="clipPath3647">
   <path id="path3649" style="opacity:.3;color:#000000;fill:#f00" d="m-100-74v96h96v-96h-96zm39.875 20.312h16.125v19.75h19.688v16.188h-19.688v19.438h-16.125v-19.438h-19.562v-16.188h19.562v-19.75z"/>
  </clipPath>
  <filter id="filter3651" color-interpolation-filters="sRGB">
   <feGaussianBlur id="feGaussianBlur3653" stdDeviation="0.83069354"/>
  </filter>
  <linearGradient id="linearGradient2862" x1="11.64" gradientUnits="userSpaceOnUse" y1="4.0776" gradientTransform="matrix(4,0,0,4,4,-70)" x2="11.64" y2="17.924">
   <stop id="stop3974" style="stop-color:#323232" offset="0"/>
   <stop id="stop3976" style="stop-color:#787878" offset="1"/>
  </linearGradient>
 </defs>
 <metadata id="metadata11042">
  <rdf:RDF>
   <cc:Work rdf:about="">
    <dc:format>image/svg+xml</dc:format>
    <dc:type rdf:resource="http://purl.org/dc/dcmitype/StillImage"/>
    <dc:title/>
   </cc:Work>
  </rdf:RDF>
 </metadata>
 <g id="layer1" transform="translate(0 -956.36)">
  <rect id="rect3867" style="fill:url(#linearGradient11642)" rx="25" ry="25" height="92" width="92" y="958.36" x="2"/>
  <g id="g3057" transform="translate(-4.969e-7 1030.4)">
   <path id="path3638" style="opacity:.2;filter:url(#filter3651);stroke:#fff;stroke-width:4;fill:none" clip-path="url(#clipPath3647)" transform="translate(100)" d="m-60.12-53.69v19.741h-19.57v16.19h19.57v19.448h16.12v-19.448h19.69v-16.19h-19.69v-19.741h-16.12z"/>
   <path id="Symbol" style="fill:url(#linearGradient2862)" d="m39.88-53.69v19.741h-19.57v16.19h19.57v19.448h16.12v-19.448h19.69v-16.19h-19.69v-19.741h-16.12z"/>
   <path id="path3655" style="opacity:.1" transform="translate(0,-74)" d="m39.875 20.312v19.75h-19.562v16.188h19.562v19.438h16.125v-19.438h19.688v-16.188h-19.688v-19.75h-16.125zm2.0312 2.0312h12.062v17.719a2.0174 2.0174 0 0 0 2.032 2.032h17.656v12.125h-17.656a2.0174 2.0174 0 0 0 -2.031 2.031v17.406h-12.062v-17.406a2.0174 2.0174 0 0 0 -2.032 -2.031h-17.531v-12.125h17.531a2.0174 2.0174 0 0 0 2.0312 -2.0312v-17.719z"/>
   <path id="path3104" style="opacity:.5;fill:#fff" transform="translate(0,-74)" d="m20.312 56.25v1h19.562v-1h-19.562zm35.688 0v1h19.688v-1h-19.688zm-16.125 19.438v1h16.125v-1h-16.125z"/>
   <path id="path3881" style="opacity:.2" transform="translate(0,-74)" d="m39.875 20.312v19.75h-19.562v16.188h19.562v19.438h16.125v-19.438h19.688v-16.188h-19.688v-19.75h-16.125zm0.84375 0.84375h14.438v18.906a0.83842 0.83842 0 0 0 0.843 0.844h18.844v14.5h-18.844a0.83842 0.83842 0 0 0 -0.844 0.844v18.594h-14.438v-18.594a0.83842 0.83842 0 0 0 -0.843 -0.844h-18.719v-14.5h18.719a0.83842 0.83842 0 0 0 0.84375 -0.84375v-18.906z"/>
   <path id="path3894" style="opacity:.3" transform="translate(0,-74)" d="m39.875 20.312v1h16.125v-1h-16.125zm-19.562 19.75v1h19.562v-1h-19.562zm35.688 0v1h19.688v-1h-19.688z"/>
  </g>
  <rect id="rect3003" style="opacity:.15;fill:#fff" clip-path="url(#clipPath3009)" rx="25" ry="25" transform="translate(98)" width="92" y="958.36" x="-96" height="92"/>
 </g>
</svg>
