<?xml version="1.0" encoding="UTF-8" standalone="no"?>
<!-- Created with Inkscape (http://www.inkscape.org/) -->
<svg id="svg11037" xmlns:rdf="http://www.w3.org/1999/02/22-rdf-syntax-ns#" xmlns="http://www.w3.org/2000/svg" height="96" width="96" version="1.1" xmlns:cc="http://creativecommons.org/ns#" xmlns:xlink="http://www.w3.org/1999/xlink" xmlns:dc="http://purl.org/dc/elements/1.1/">
 <defs id="defs11039">
  <linearGradient id="linearGradient11642" x1="48" gradientUnits="userSpaceOnUse" x2="48" gradientTransform="matrix(1.15 0 0 1.15 -7.1999 -150.65)" y1="962.62" y2="1046.1">
   <stop id="stop3189-4" style="stop-color:#c8c8c8" offset="0"/>
   <stop id="stop3191-0" style="stop-color:#e6e6e6" offset="1"/>
  </linearGradient>
  <clipPath id="clipPath3009" clipPathUnits="userSpaceOnUse">
   <path id="path3011" style="opacity:.15;fill:#fff" d="m-2 956.36h-96v33.562l96 25.687v-59.25z"/>
  </clipPath>
  <clipPath id="clipPath3720">
   <path id="path3722" style="opacity:.3;color:#000000;fill:#f00" d="m-100-74v96h96v-96h-96zm48.25 20.375c5.3103 0 10.283 1.5321 14.5 4.125l-4.75 7.875c-2.8172-1.7428-6.188-2.75-9.75-2.75-9.6302 0-17.523 7.3449-18.375 16.75h9.875l-13.875 20.75-13.875-20.75h8.625c0.89419-14.496 12.905-26 27.625-26zm21.875 8 13.875 20.75h-8.625c-0.89419 14.496-12.905 26-27.625 26-5.3103 0-10.283-1.5321-14.5-4.125l4.75-7.875c2.8172 1.7428 6.188 2.75 9.75 2.75 9.6302 0 17.523-7.3449 18.375-16.75h-9.875l13.875-20.75z"/>
  </clipPath>
  <filter id="filter3724" color-interpolation-filters="sRGB">
   <feGaussianBlur id="feGaussianBlur3726" stdDeviation="0.950625"/>
  </filter>
  <linearGradient id="linearGradient3760" x1="10" gradientUnits="userSpaceOnUse" y1="4" gradientTransform="matrix(4,0,0,4,0,-70)" x2="10" y2="18">
   <stop id="stop3906" style="stop-color:#323232" offset="0"/>
   <stop id="stop3908" style="stop-color:#787878" offset="1"/>
  </linearGradient>
 </defs>
 <metadata id="metadata11042">
  <rdf:RDF>
   <cc:Work rdf:about="">
    <dc:format>image/svg+xml</dc:format>
    <dc:type rdf:resource="http://purl.org/dc/dcmitype/StillImage"/>
    <dc:title/>
   </cc:Work>
  </rdf:RDF>
 </metadata>
 <g id="layer1" transform="translate(0 -956.36)">
  <rect id="rect3867" style="fill:url(#linearGradient11642)" rx="25" ry="25" height="92" width="92" y="958.36" x="2"/>
  <g id="g3055" transform="translate(0 1030.4)">
   <path id="path3711" style="opacity:.2;filter:url(#filter3724);stroke:#fff;stroke-width:4;fill:none" clip-path="url(#clipPath3720)" transform="translate(100)" d="m-51.75-53.625c-14.72-0.000003-26.731 11.504-27.625 26h-8.625l13.875 20.75 13.875-20.75h-9.875c0.85226-9.4051 8.7448-16.75 18.375-16.75 3.562 0.000001 6.9328 1.0072 9.75 2.75l4.75-7.875c-4.2173-2.5929-9.1897-4.125-14.5-4.125zm21.875 8-13.875 20.75h9.875c-0.85226 9.4051-8.7448 16.75-18.375 16.75-3.562 0-6.9328-1.0072-9.75-2.75l-4.75 7.875c4.2173 2.5929 9.1897 4.125 14.5 4.125 14.72 0.000004 26.731-11.504 27.625-26h8.625l-13.875-20.75z"/>
   <path id="Symbol" style="fill:url(#linearGradient3760)" d="m48.25-53.625c-14.72-0.000003-26.731 11.504-27.625 26h-8.625l13.875 20.75 13.875-20.75h-9.875c0.85226-9.4051 8.7448-16.75 18.375-16.75 3.562 0.000001 6.9328 1.0072 9.75 2.75l4.75-7.875c-4.2173-2.5929-9.1897-4.125-14.5-4.125zm21.875 8-13.875 20.75h9.875c-0.85226 9.4051-8.7448 16.75-18.375 16.75-3.562 0-6.9328-1.0072-9.75-2.75l-4.75 7.875c4.2173 2.5929 9.1897 4.125 14.5 4.125 14.72 0.000004 26.731-11.504 27.625-26h8.625l-13.875-20.75z"/>
   <path id="path3950" style="opacity:.1" transform="translate(0,-74)" d="m48.25 20.375c-14.72-0.000003-26.731 11.504-27.625 26h-8.625l13.875 20.75 13.875-20.75h-9.875c0.85226-9.4051 8.7448-16.75 18.375-16.75 3.562 0.000001 6.9328 1.0072 9.75 2.75l4.75-7.875c-4.2173-2.5929-9.1897-4.125-14.5-4.125zm0 1.9375c4.2535 0 8.1763 1.225 11.719 3.0625l-2.75 4.5312c-2.732-1.338-5.74-2.217-8.969-2.217-10.623 0-19.371 8.1074-20.312 18.5a1.9517 1.9517 0 0 0 1.9375 2.125h6.2188l-10.22 15.281-10.219-15.282h4.9688a1.9517 1.9517 0 0 0 1.937 -1.812c0.832-13.488 11.985-24.188 25.688-24.188zm21.875 6.0625-13.875 20.75h9.875c-0.85226 9.4051-8.7448 16.75-18.375 16.75-3.562 0-6.9328-1.0072-9.75-2.75l-4.75 7.876c4.2173 2.5929 9.1897 4.125 14.5 4.125 14.72 0.000004 26.731-11.504 27.625-26h8.625l-13.875-20.75zm0 3.5312 10.219 15.281h-4.9688a1.9517 1.9517 0 0 0 -1.937 1.814c-0.832 13.488-11.985 24.188-25.688 24.188-4.2535 0-8.1763-1.225-11.719-3.0625l2.75-4.5312c2.7319 1.3391 5.7398 2.2188 8.9688 2.2188 10.623 0 19.371-8.1074 20.312-18.5a1.9517 1.9517 0 0 0 -1.9375 -2.125h-6.2188l10.22-15.283z"/>
   <path id="path3178" style="opacity:.2" transform="translate(0,-74)" d="m48.25 20.375c-14.72-0.000003-26.731 11.504-27.625 26h-8.625l13.875 20.75 13.875-20.75h-9.875c0.85226-9.4051 8.7448-16.75 18.375-16.75 3.562 0.000001 6.9328 1.0072 9.75 2.75l4.75-7.875c-4.2173-2.5929-9.1897-4.125-14.5-4.125zm0 1.0312c4.7526 0 9.1604 1.3767 13.031 3.5625l-3.6875 6.125c-2.7871-1.5251-5.9525-2.5-9.3438-2.5-10.148 0-18.476 7.7673-19.375 17.688a1.018 1.018 0 0 0 1 1.125h7.9688l-11.969 17.906-11.969-17.906h6.7188a1.018 1.018 0 0 0 1.031 -0.968c0.862-13.971 12.404-25.032 26.594-25.032zm21.875 6.9688-13.875 20.75h9.875c-0.85226 9.4051-8.7448 16.75-18.375 16.75-3.562 0-6.9328-1.0072-9.75-2.75l-4.75 7.875c4.2173 2.5929 9.1897 4.125 14.5 4.125 14.72 0.000004 26.731-11.504 27.625-26h8.625l-13.875-20.75zm0 1.8125 11.969 17.906h-6.7188a1.018 1.018 0 0 0 -1.031 0.968c-0.862 13.971-12.404 25.032-26.594 25.032-4.7526 0-9.1604-1.3767-13.031-3.5625l3.6875-6.125c2.7871 1.5251 5.9525 2.5 9.3438 2.5 10.148 0 18.476-7.7673 19.375-17.688a1.018 1.018 0 0 0 -1 -1.125h-7.9688l11.969-17.906z"/>
   <path id="path3960" style="opacity:.3" transform="translate(0,-74)" d="m48.25 20.375c-14.72-0.000003-26.731 11.504-27.625 26h-8.625l0.65625 1h7.9688c0.89419-14.496 12.905-26 27.625-26 5.1306 0 9.939 1.4398 14.062 3.875l0.438-0.75c-4.2173-2.5929-9.1897-4.125-14.5-4.125zm21.875 8-13.875 20.75h0.65625l13.219-19.75 13.219 19.75h0.65625l-13.875-20.75zm-40.094 18c-0.04828 0.33101-0.12576 0.66347-0.15625 1h9.2188l0.65625-1h-9.7188zm35.938 3.75c-1.301 8.9199-8.9331 15.75-18.219 15.75-3.562 0-6.9328-1.0072-9.75-2.75l-4.75 7.875c0.14276 0.08777 0.29303 0.16468 0.4375 0.25l4.312-7.125c2.8172 1.7428 6.188 2.75 9.75 2.75 9.6302 0 17.523-7.3449 18.375-16.75h-0.15625z"/>
   <path id="path3969" style="opacity:.5;fill:#fff" transform="translate(0,-74)" d="m62.312 25.25-4.312 7.125c-2.8172-1.7428-6.188-2.75-9.75-2.75-9.6302 0-17.523 7.3449-18.375 16.75h0.15625c1.301-8.9199 8.9331-15.75 18.219-15.75 3.562 0.000001 6.9328 1.0072 9.75 2.75l4.75-7.875c-0.143-0.088-0.293-0.165-0.438-0.25zm-50.312 22.125l13.875 20.75 13.875-20.75h-0.65625l-13.219 19.75-13.219-19.75h-0.656zm44.906 1.75-0.65625 1h9.7188c0.04828-0.33101 0.12576-0.66347 0.15625-1h-9.2188zm18.469 0c-0.89419 14.496-12.905 26-27.625 26-5.1306 0-9.939-1.4398-14.062-3.875l-0.438 0.75c4.2173 2.5929 9.1897 4.125 14.5 4.125 14.72 0.000004 26.731-11.504 27.625-26h8.625l-0.65625-1h-7.9688z"/>
  </g>
  <rect id="rect3003" style="opacity:.15;fill:#fff" clip-path="url(#clipPath3009)" rx="25" ry="25" transform="translate(98)" width="92" y="958.36" x="-96" height="92"/>
 </g>
</svg>
