<?xml version="1.0" encoding="UTF-8" standalone="no"?>
<!-- Created with Inkscape (http://www.inkscape.org/) -->
<svg id="svg11037" xmlns:rdf="http://www.w3.org/1999/02/22-rdf-syntax-ns#" xmlns="http://www.w3.org/2000/svg" height="96" width="96" version="1.1" xmlns:cc="http://creativecommons.org/ns#" xmlns:xlink="http://www.w3.org/1999/xlink" xmlns:dc="http://purl.org/dc/elements/1.1/">
 <defs id="defs11039">
  <linearGradient id="linearGradient11642" x1="48" gradientUnits="userSpaceOnUse" x2="48" gradientTransform="matrix(1.15 0 0 1.15 -7.1999 -150.65)" y1="962.62" y2="1046.1">
   <stop id="stop3189-4" style="stop-color:#c8c8c8" offset="0"/>
   <stop id="stop3191-0" style="stop-color:#e6e6e6" offset="1"/>
  </linearGradient>
  <clipPath id="clipPath3009" clipPathUnits="userSpaceOnUse">
   <path id="path3011" style="opacity:.15;fill:#fff" d="m-2 956.36h-96v33.562l96 25.687v-59.25z"/>
  </clipPath>
  <clipPath id="clipPath3703">
   <path id="path3705" style="opacity:.3;color:#000000;fill:#f00" d="m-100-74v96h96v-96h-96zm28.312 19.844 43.657 0.156 0.031 43.5-14.094-14.094c-14.967 6.3104-22.381 18.46-24.938 28-9.606-14.409-4.6061-31.868 9.4375-43.469l-14.094-14.093z"/>
  </clipPath>
  <filter id="filter3707" color-interpolation-filters="sRGB">
   <feGaussianBlur id="feGaussianBlur3709" stdDeviation="0.76172645"/>
  </filter>
  <linearGradient id="linearGradient2884" x1="17.506" gradientUnits="userSpaceOnUse" y1="-42.696" gradientTransform="matrix(1.3691 0 0 -1.3691 28.199 -112.91)" x2="17.506" y2="-84.793">
   <stop id="stop4014" style="stop-color:#323232" offset="0"/>
   <stop id="stop4016" style="stop-color:#787878" offset="1"/>
  </linearGradient>
 </defs>
 <metadata id="metadata11042">
  <rdf:RDF>
   <cc:Work rdf:about="">
    <dc:format>image/svg+xml</dc:format>
    <dc:type rdf:resource="http://purl.org/dc/dcmitype/StillImage"/>
    <dc:title/>
   </cc:Work>
  </rdf:RDF>
 </metadata>
 <g id="layer1" transform="translate(0 -956.36)">
  <rect id="rect3867" style="fill:url(#linearGradient11642)" rx="25" ry="25" height="92" width="92" y="958.36" x="2"/>
  <g id="g3044" transform="translate(3.1159e-7 1030.4)">
   <path id="path3693" style="opacity:.2;filter:url(#filter3707);stroke:#fff;stroke-width:4;fill:none" clip-path="url(#clipPath3703)" transform="translate(100)" d="m-71.686-54.171 14.097 14.097c-14.044 11.601-19.063 29.06-9.4569 43.469 2.5562-9.54 9.9806-21.669 24.948-27.979l14.098 14.099-0.047-43.515-43.639-0.171z"/>
   <path id="path28" style="fill:url(#linearGradient2884)" d="m28.314-54.171 14.097 14.097c-14.043 11.601-19.062 29.06-9.456 43.469 2.5562-9.54 9.9806-21.669 24.948-27.979l14.097 14.099-0.047-43.515-43.639-0.171z"/>
   <path id="path3930" style="opacity:.1" transform="translate(0,-74)" d="m28.312 19.844 14.094 14.094c-14.044 11.601-19.043 29.06-9.4375 43.469 2.5562-9.54 9.9701-21.69 24.938-28l14.094 14.093-0.031-43.5-43.657-0.156zm4.9375 2.0625 36.688 0.125 0.03125 36.562-10.625-10.625a2.0378 2.0378 0 0 0 -2.219 -0.437c-13.466 5.6774-20.887 15.83-24.469 25-5.986-12.661-1.173-26.924 11.063-37.031a2.0378 2.0378 0 0 0 0.125 -3l-10.594-10.594z"/>
   <path id="path3158" style="opacity:.1" transform="translate(0,-74)" d="m28.312 19.844 14.094 14.094c-14.044 11.601-19.043 29.06-9.4375 43.469 2.5562-9.54 9.9701-21.69 24.938-28l14.094 14.093-0.031-43.5-43.657-0.156zm2.9688 1.2188 39.469 0.15625 0.03125 39.312-12-12a1.2227 1.2227 0 0 0 -1.3438 -0.25c-14.052 5.925-21.444 16.813-24.656 26.188-7.36-13.391-2.556-28.886 10.407-39.594a1.2227 1.2227 0 0 0 0.09375 -1.8125l-12-12z"/>
   <path id="path3940" style="opacity:.3" transform="translate(0,-74)" d="m28.312 19.844 1 1l42.657 0.156v-1l-43.657-0.156zm13.563 14.562c-8.981 7.647-14.137 17.697-13.875 27.75 0.095-9.919 5.39-19.771 14.406-27.218l-0.531-0.532z"/>
   <path id="path3949" style="opacity:.5;fill:#fff" transform="translate(0,-74)" d="m28.312 20.844 13.562 13.562c0.18142-0.15445 0.3467-0.3163 0.53125-0.46875l-13.093-13.093h-1zm29.594 28.562c-14.967 6.3104-22.381 18.46-24.938 28-3.23-4.845-4.833-10.053-4.968-15.25-0.05302 5.5317 1.5297 11.091 4.9688 16.25 2.5562-9.54 9.9701-21.69 24.938-28l14.093 14.094v-1l-14.094-14.094z"/>
  </g>
  <rect id="rect3003" style="opacity:.15;fill:#fff" clip-path="url(#clipPath3009)" rx="25" ry="25" transform="translate(98)" width="92" y="958.36" x="-96" height="92"/>
 </g>
</svg>
