<?xml version="1.0" encoding="UTF-8" standalone="no"?>
<!-- Created with Inkscape (http://www.inkscape.org/) -->
<svg id="svg11037" xmlns:rdf="http://www.w3.org/1999/02/22-rdf-syntax-ns#" xmlns="http://www.w3.org/2000/svg" height="96" width="96" version="1.1" xmlns:cc="http://creativecommons.org/ns#" xmlns:xlink="http://www.w3.org/1999/xlink" xmlns:dc="http://purl.org/dc/elements/1.1/">
 <defs id="defs11039">
  <linearGradient id="linearGradient11642" x1="48" gradientUnits="userSpaceOnUse" x2="48" gradientTransform="matrix(1.15 0 0 1.15 -7.1999 -150.65)" y1="962.62" y2="1046.1">
   <stop id="stop2883" style="stop-color:#df880b" offset="0"/>
   <stop id="stop2885" style="stop-color:#f7c15a" offset="1"/>
  </linearGradient>
  <clipPath id="clipPath3009" clipPathUnits="userSpaceOnUse">
   <path id="path3011" style="opacity:.15;fill:#fff" d="m-2 956.36h-96v33.562l96 25.687v-59.25z"/>
  </clipPath>
  <linearGradient id="linearGradient3077" x1="48.082" gradientUnits="userSpaceOnUse" x2="46.655" gradientTransform="translate(0 957.36)" y1="75.562" y2="16.973">
   <stop id="stop3733" style="stop-color:#dcdcdc" offset="0"/>
   <stop id="stop3757" style="stop-color:#ebebeb" offset=".30654"/>
   <stop id="stop3737" style="stop-color:#fff" offset=".70706"/>
   <stop id="stop3759" style="stop-color:#fafafa" offset=".84501"/>
   <stop id="stop3735" style="stop-color:#f0f0f0" offset="1"/>
  </linearGradient>
 </defs>
 <metadata id="metadata11042">
  <rdf:RDF>
   <cc:Work rdf:about="">
    <dc:format>image/svg+xml</dc:format>
    <dc:type rdf:resource="http://purl.org/dc/dcmitype/StillImage"/>
    <dc:title/>
   </cc:Work>
  </rdf:RDF>
 </metadata>
 <g id="layer1" transform="translate(0 -956.36)">
  <rect id="rect3867" style="fill:url(#linearGradient11642)" rx="25" ry="25" height="92" width="92" y="958.36" x="2"/>
  <path id="path3620" style="fill:url(#linearGradient3077)" d="m48 974.36c-18.225 0-33 12.088-33 27 0 9.4984 5.9998 17.843 15.062 22.656-0.34462 2.5088-1.914 8.6498-9.3438 10.75 9.6229 1.0459 16.014-3.6463 19.406-7.1875 2.5235 0.5055 5.1611 0.7813 7.875 0.7813 18.225 0 33-12.088 33-27s-14.775-27-33-27zm0 12c1.1144 0.00003 2.0563 0.33838 2.8125 1 0.79601 0.62493 1.1875 1.5113 1.1875 2.6875v14.563c-0.00001 1.1763-0.39149 2.0883-1.1875 2.75-0.75623 0.6616-1.6981 1-2.8125 1-1.0746 0-2.0165-0.3384-2.8125-1-0.79602-0.6617-1.1875-1.5737-1.1875-2.75v-14.563c-0.000002-1.1762 0.39148-2.0626 1.1875-2.6875 0.79602-0.66162 1.7379-0.99997 2.8125-1zm0.03125 25c1.1062 0 2.0306 0.4032 2.7812 1.1875 0.79011 0.7843 1.1875 1.7144 1.1875 2.8125-0.000011 1.098-0.39739 2.0282-1.1875 2.8125-0.75062 0.7843-1.6751 1.1875-2.7812 1.1875-1.1062 0-2.0536-0.4032-2.8438-1.1875-0.79013-0.7843-1.1875-1.7145-1.1875-2.8125-0.000002-1.0981 0.39737-2.0282 1.1875-2.8125 0.79012-0.7843 1.7376-1.1875 2.8438-1.1875z"/>
  <rect id="rect3003" style="opacity:.15;fill:#fff" clip-path="url(#clipPath3009)" rx="25" ry="25" transform="translate(98)" width="92" y="958.36" x="-96" height="92"/>
 </g>
</svg>
