<?xml version="1.0" encoding="UTF-8" standalone="no"?>
<!-- Created with Inkscape (http://www.inkscape.org/) -->
<svg id="svg11037" xmlns:rdf="http://www.w3.org/1999/02/22-rdf-syntax-ns#" xmlns="http://www.w3.org/2000/svg" height="96" width="96" version="1.1" xmlns:cc="http://creativecommons.org/ns#" xmlns:xlink="http://www.w3.org/1999/xlink" xmlns:dc="http://purl.org/dc/elements/1.1/">
 <defs id="defs11039">
  <linearGradient id="linearGradient11642" x1="48" gradientUnits="userSpaceOnUse" x2="48" gradientTransform="matrix(1.15 0 0 1.15 -7.1999 -150.65)" y1="962.62" y2="1046.1">
   <stop id="stop2883" style="stop-color:#a90c0c" offset="0"/>
   <stop id="stop2885" style="stop-color:#f05530" offset="1"/>
  </linearGradient>
  <clipPath id="clipPath3009" clipPathUnits="userSpaceOnUse">
   <path id="path3011" style="opacity:.15;fill:#fff" d="m-2 956.36h-96v33.562l96 25.687v-59.25z"/>
  </clipPath>
  <linearGradient id="linearGradient3077" x1="48.082" gradientUnits="userSpaceOnUse" x2="46.655" gradientTransform="translate(0 957.36)" y1="75.562" y2="16.973">
   <stop id="stop3733" style="stop-color:#dcdcdc" offset="0"/>
   <stop id="stop3757" style="stop-color:#ebebeb" offset=".30654"/>
   <stop id="stop3737" style="stop-color:#fff" offset=".70706"/>
   <stop id="stop3759" style="stop-color:#fafafa" offset=".84501"/>
   <stop id="stop3735" style="stop-color:#f0f0f0" offset="1"/>
  </linearGradient>
 </defs>
 <metadata id="metadata11042">
  <rdf:RDF>
   <cc:Work rdf:about="">
    <dc:format>image/svg+xml</dc:format>
    <dc:type rdf:resource="http://purl.org/dc/dcmitype/StillImage"/>
    <dc:title/>
   </cc:Work>
  </rdf:RDF>
 </metadata>
 <g id="layer1" transform="translate(0 -956.36)">
  <rect id="rect3867" style="fill:url(#linearGradient11642)" rx="25" ry="25" height="92" width="92" y="958.36" x="2"/>
  <path id="path3620" style="fill:url(#linearGradient3077)" d="m48 974.36c-18.225 0-33 12.088-33 27 0 9.4984 5.9998 17.843 15.062 22.656-0.34462 2.5088-1.914 8.6498-9.3438 10.75 9.6229 1.0459 16.014-3.6463 19.406-7.1875 2.5235 0.5055 5.1611 0.7813 7.875 0.7813 18.225 0 33-12.088 33-27s-14.775-27-33-27zm-7.8438 11l7.844 7.85 7.844-7.85 7.156 7.16-7.844 7.88 7.844 7.8-7.156 7.2-7.844-7.9-7.844 7.9-7.156-7.2 7.844-7.8-7.844-7.88 7.1562-7.1562z"/>
  <rect id="rect3003" style="opacity:.15;fill:#fff" clip-path="url(#clipPath3009)" rx="25" ry="25" transform="translate(98)" width="92" y="958.36" x="-96" height="92"/>
 </g>
</svg>
