<?xml version="1.0" encoding="UTF-8" standalone="no"?>
<!-- Created with Inkscape (http://www.inkscape.org/) -->
<svg id="svg11037" xmlns:rdf="http://www.w3.org/1999/02/22-rdf-syntax-ns#" xmlns="http://www.w3.org/2000/svg" height="96" width="96" version="1.1" xmlns:cc="http://creativecommons.org/ns#" xmlns:xlink="http://www.w3.org/1999/xlink" xmlns:dc="http://purl.org/dc/elements/1.1/">
 <defs id="defs11039">
  <linearGradient id="linearGradient11642" x1="48" gradientUnits="userSpaceOnUse" x2="48" gradientTransform="matrix(1.15 0 0 1.15 -7.1999 -150.65)" y1="962.62" y2="1046.1">
   <stop id="stop2883" style="stop-color:#1e57ae" offset="0"/>
   <stop id="stop2885" style="stop-color:#7da8e9" offset="1"/>
  </linearGradient>
  <clipPath id="clipPath3009" clipPathUnits="userSpaceOnUse">
   <path id="path3011" style="opacity:.15;fill:#fff" d="m-2 956.36h-96v33.562l96 25.687v-59.25z"/>
  </clipPath>
  <linearGradient id="linearGradient3079" x1="48.082" gradientUnits="userSpaceOnUse" x2="46.655" gradientTransform="translate(0 957.36)" y1="75.562" y2="16.973">
   <stop id="stop3733" style="stop-color:#dcdcdc" offset="0"/>
   <stop id="stop3757" style="stop-color:#ebebeb" offset=".30654"/>
   <stop id="stop3737" style="stop-color:#fff" offset=".70706"/>
   <stop id="stop3759" style="stop-color:#fafafa" offset=".84501"/>
   <stop id="stop3735" style="stop-color:#f0f0f0" offset="1"/>
  </linearGradient>
 </defs>
 <metadata id="metadata11042">
  <rdf:RDF>
   <cc:Work rdf:about="">
    <dc:format>image/svg+xml</dc:format>
    <dc:type rdf:resource="http://purl.org/dc/dcmitype/StillImage"/>
    <dc:title/>
   </cc:Work>
  </rdf:RDF>
 </metadata>
 <g id="layer1" transform="translate(0 -956.36)">
  <rect id="rect3867" style="fill:url(#linearGradient11642)" rx="25" ry="25" height="92" width="92" y="958.36" x="2"/>
  <path id="path3620" style="fill:url(#linearGradient3079)" d="m48 974.36c-18.225 0-33 12.088-33 27 0 9.4984 5.9998 17.843 15.062 22.656-0.34462 2.5088-1.914 8.6498-9.3438 10.75 9.6229 1.0459 16.014-3.6463 19.406-7.1875 2.5235 0.5055 5.1611 0.7813 7.875 0.7813 18.225 0 33-12.088 33-27s-14.775-27-33-27zm-0.90625 10.062c1.7291 0.00004 3.3395 0.20876 4.8125 0.625 1.473 0.4003 2.7398 0.99676 3.8125 1.7812 1.0727 0.76854 1.9228 1.723 2.5312 2.8438 0.60838 1.1208 0.90622 2.3876 0.90625 3.8125-0.000025 1.3129-0.20875 2.4906-0.625 3.5312-0.40029 1.0407-0.99598 1.9792-1.8125 2.8438-0.81656 0.86462-1.8297 1.6698-3.0625 2.4062-1.2168 0.7205-2.6482 1.4213-4.2812 2.0938l-1 4.4687h-3l-0.96875-6.0625c1.4089-0.5603 2.5409-1.2162 3.4375-1.9687 0.89658-0.7685 1.6126-1.5729 2.125-2.4375 0.52834-0.88056 0.90161-1.7893 1.0938-2.75 0.19211-0.96061 0.28123-1.9296 0.28125-2.9062-0.000017-0.78449-0.07468-1.5158-0.21875-2.1562-0.14411-0.65641-0.3673-1.2232-0.6875-1.6875-0.30422-0.48029-0.72243-0.83755-1.2188-1.0938-0.48033-0.25614-1.0463-0.37497-1.7188-0.375-0.7365 0.00003-1.3474 0.16381-1.8438 0.5-0.49634 0.33626-0.91456 0.78341-1.2188 1.3438-0.30421 0.5604-0.51216 1.2163-0.65625 1.9688-0.12809 0.75253-0.18751 1.5425-0.1875 2.375-1.0087 0.00003-1.9639-0.0746-2.8125-0.21875-0.84857-0.14407-1.5631-0.35279-2.1875-0.625-0.60841-0.28816-1.0853-0.63018-1.4375-1.0625-0.33623-0.43226-0.53125-0.95484-0.53125-1.5312-0.000002-0.8005 0.20872-1.5303 0.625-2.2188 0.41628-0.70444 1.0577-1.3314 1.9062-1.8438 0.86457-0.51231 1.9684-0.89927 3.2812-1.1875 1.3129-0.30417 2.847-0.46871 4.6562-0.46875zm-0.28125 28.156c0.54435 0 1.0509 0.059 1.5312 0.1875 0.49632 0.1281 0.94424 0.3521 1.3125 0.6563 0.36823 0.3042 0.66685 0.7064 0.875 1.2187 0.22413 0.4964 0.31248 1.1225 0.3125 1.875-0.000016 0.7365-0.08837 1.3475-0.3125 1.8438-0.20815 0.4963-0.50677 0.9145-0.875 1.2187-0.36826 0.3042-0.81618 0.4969-1.3125 0.625-0.48033 0.1441-0.9869 0.2188-1.5312 0.2188-0.56038 0-1.0662-0.075-1.5625-0.2188-0.49634-0.1281-0.94426-0.3208-1.3125-0.625-0.35224-0.3042-0.63562-0.7224-0.84375-1.2187-0.20815-0.4964-0.31251-1.1073-0.3125-1.8438-0.000008-0.7525 0.10435-1.3786 0.3125-1.875 0.20813-0.5123 0.49151-0.9145 0.84375-1.2187 0.36824-0.3042 0.81616-0.5282 1.3125-0.6563 0.49632-0.1281 1.0021-0.1875 1.5625-0.1875z"/>
  <rect id="rect3003" style="opacity:.15;fill:#fff" clip-path="url(#clipPath3009)" rx="25" ry="25" transform="translate(98)" width="92" y="958.36" x="-96" height="92"/>
 </g>
</svg>
