<?xml version="1.0" encoding="UTF-8" standalone="no"?>
<!-- Created with Inkscape (http://www.inkscape.org/) -->
<svg id="svg11037" xmlns:rdf="http://www.w3.org/1999/02/22-rdf-syntax-ns#" xmlns="http://www.w3.org/2000/svg" height="96" width="96" version="1.1" xmlns:cc="http://creativecommons.org/ns#" xmlns:xlink="http://www.w3.org/1999/xlink" xmlns:dc="http://purl.org/dc/elements/1.1/">
 <defs id="defs11039">
  <linearGradient id="linearGradient11642" x1="48" gradientUnits="userSpaceOnUse" x2="48" gradientTransform="matrix(1.15 0 0 1.15 -7.1999 -150.65)" y1="962.62" y2="1046.1">
   <stop id="stop3702" style="stop-color:#e6e6e6" offset="0"/>
   <stop id="stop3704" style="stop-color:#f5f5f5" offset="1"/>
  </linearGradient>
  <clipPath id="clipPath3009" clipPathUnits="userSpaceOnUse">
   <path id="path3011" style="opacity:.15;fill:#fff" d="m-2 956.36h-96v33.562l96 25.687v-59.25z"/>
  </clipPath>
  <clipPath id="clipPath2956">
   <rect id="rect2958" style="opacity:.65164;color:#000000;fill:#f00" rx="3" ry="3" height="56" width="72" y="20" x="12"/>
  </clipPath>
  <clipPath id="clipPath2952">
   <rect id="rect2954" style="opacity:.65164;color:#000000;fill:#f00" rx="3" ry="3" height="56" width="72" y="20" x="12"/>
  </clipPath>
  <linearGradient id="linearGradient3938" x1="48" spreadMethod="reflect" gradientUnits="userSpaceOnUse" y1="48" x2="48" y2="72">
   <stop id="stop3942" style="stop-color:#101010" offset="0"/>
   <stop id="stop3944" style="stop-color:#454545" offset="1"/>
  </linearGradient>
  <linearGradient id="linearGradient3982" gradientUnits="userSpaceOnUse" x2="48" x1="48" y1="56">
   <stop id="stop3739" style="stop-color:#fff" offset="0"/>
   <stop id="stop3741" style="stop-color:#fff;stop-opacity:0" offset="1"/>
  </linearGradient>
  <linearGradient id="linearGradient3748" x1="64" gradientUnits="userSpaceOnUse" y1="80" gradientTransform="translate(-20)" x2="64" y2="-40.067">
   <stop id="stop3720" offset="0"/>
   <stop id="stop3722" style="stop-opacity:0" offset="1"/>
  </linearGradient>
  <linearGradient id="linearGradient3330" x1="47.61" gradientUnits="userSpaceOnUse" y1="121.37" gradientTransform="matrix(.36607 0 0 .36607 24.571 24.571)" x2="47.61" y2="6.6341">
   <stop id="stop3292-2" style="stop-color:#ba0000" offset="0"/>
   <stop id="stop3294-3" style="stop-color:#ff331e" offset="1"/>
  </linearGradient>
  <linearGradient id="linearGradient3151" y2="91.008" gradientUnits="userSpaceOnUse" x2="52" y1="28" x1="52">
   <stop id="stop3808" style="stop-color:#fff6d5" offset="0"/>
   <stop id="stop3810" style="stop-color:#fff6d5;stop-opacity:0" offset="1"/>
  </linearGradient>
 </defs>
 <metadata id="metadata11042">
  <rdf:RDF>
   <cc:Work rdf:about="">
    <dc:format>image/svg+xml</dc:format>
    <dc:type rdf:resource="http://purl.org/dc/dcmitype/StillImage"/>
    <dc:title/>
   </cc:Work>
  </rdf:RDF>
 </metadata>
 <g id="layer1" transform="translate(0 -956.36)">
  <rect id="rect3867" style="fill:url(#linearGradient11642)" rx="25" ry="25" height="92" width="92" y="958.36" x="2"/>
  <rect id="rect3003" style="opacity:.15;fill:#fff" clip-path="url(#clipPath3009)" rx="25" ry="25" transform="translate(98)" width="92" y="958.36" x="-96" height="92"/>
  <g id="g3092" transform="translate(0 956.36)">
   <g id="layer3">
    <rect id="rect3727" style="opacity:.65164;color:#000000;fill:#f00" clip-path="url(#clipPath2956)" height="56" width="72" y="20" x="-88"/>
    <g id="g3871" clip-path="url(#clipPath2952)">
     <rect id="rect3966" style="color:#000000;fill:url(#linearGradient3938)" height="56" width="72" y="20" x="12"/>
    </g>
   </g>
   <path id="path3799" style="opacity:.1" d="m48 26.156c-12.589 0-22.844 10.255-22.844 22.844s10.255 22.844 22.844 22.844 22.844-10.255 22.844-22.844-10.255-22.844-22.844-22.844zm0 12c6.0038 0 10.844 4.84 10.844 10.844 0 0.25218-0.1313 0.57498-0.1875 0.84375l-11.5-11.5c0.26875-0.0562 0.5904-0.1875 0.84375-0.1875zm-10.625 9.5l11.969 11.969c-0.444 0.077-0.894 0.219-1.344 0.219-6.004 0-10.844-4.84-10.844-10.844 0-0.44862 0.14129-0.89978 0.21875-1.3438z"/>
   <path id="path3795" style="opacity:.15" d="m48 26.969c-12.147 0-22.031 9.884-22.031 22.031s9.884 22.031 22.031 22.031 22.031-9.884 22.031-22.031-9.884-22.031-22.031-22.031zm0 10.375c6.4434 0 11.656 5.2128 11.656 11.656 0 0.86773-0.30043 1.6563-0.5 2.4688l-13.625-13.625c0.81149-0.19946 1.5984-0.5 2.4688-0.5zm-11.156 8.656 14.156 14.156c-0.96826 0.28389-1.955 0.5-3 0.5-6.4434 0-11.656-5.2128-11.656-11.656 0-1.0421 0.21605-2.0306 0.5-3z"/>
   <path id="rect3969" style="opacity:.2;fill:url(#linearGradient3982)" d="m12 6c-3.324 0-6 2.676-6 6v53.375c15.66-11.05 42.933-18.375 74-18.375 3.3824 0 6.717 0.1124 10 0.28125v-35.281c0-3.324-2.676-6-6-6h-72z"/>
   <path id="path3791" style="opacity:.3" d="m48 27.938c-11.623 0-21.062 9.439-21.062 21.062s9.439 21.062 21.062 21.062 21.062-9.439 21.062-21.062-9.439-21.062-21.062-21.062zm0 8.4375c6.9671 0 12.625 5.6579 12.625 12.625 0 1.5772-0.34107 3.0454-0.875 4.4375l-16.188-16.188c1.392-0.535 2.857-0.875 4.438-0.875zm-11.594 7.812 16.406 16.406c-1.492 0.624-3.094 1.031-4.812 1.031-6.967 0-12.625-5.658-12.625-12.625 0-1.7147 0.40758-3.3204 1.0312-4.8125z"/>
   <path id="rect2960" style="opacity:.3;color:#000000;fill:url(#linearGradient3748)" d="m15 20c-1.662 0-3 1.338-3 3v50c0 1.662 1.338 3 3 3h66c1.662 0 3-1.338 3-3v-50c0-1.662-1.338-3-3-3h-66zm0 0.96875h66c1.1465 0 2.0312 0.88473 2.0312 2.0312v50c0 1.1465-0.88473 2.0312-2.0312 2.0312h-66c-1.1465 0-2.0312-0.88473-2.0312-2.0312v-50c0-1.1465 0.88473-2.0312 2.0312-2.0312z"/>
   <path id="path2424" style="stroke:#a00000;stroke-linecap:round;fill:url(#linearGradient3330)" d="m48 27.5c-11.316 0-20.5 9.184-20.5 20.5s9.184 20.5 20.5 20.5 20.5-9.184 20.5-20.5-9.184-20.5-20.5-20.5zm0 7.3214c7.2746 0 13.179 5.904 13.179 13.179 0 1.9659-0.43971 3.8262-1.2126 5.5025l-17.48-17.469c1.679-0.776 3.544-1.213 5.514-1.213zm-11.806 7.345 17.652 17.64c-1.763 0.875-3.745 1.373-5.846 1.373-7.2746 0-13.179-5.904-13.179-13.179 0-2.0969 0.50024-4.0737 1.3728-5.8343z"/>
   <path id="path3801" style="opacity:.5;fill:url(#linearGradient3151)" d="m48 27.5c-11.316 0-20.5 9.184-20.5 20.5 0 0.16627-0.0039 0.33468 0 0.5 0.26442-11.087 9.3503-20 20.5-20s20.236 8.9135 20.5 20c0.0039-0.16532 0-0.33373 0-0.5 0-11.316-9.184-20.5-20.5-20.5zm-4.7812 9.25c-0.243 0.095-0.483 0.172-0.719 0.281l17.469 17.469c0.77291-1.6763 1.2188-3.5341 1.2188-5.5 0-0.20095-0.02233-0.39498-0.03125-0.59375-0.05617 1.8159-0.46808 3.5335-1.1875 5.0938l-16.75-16.75zm-8.375 11.812c-0.005 0.146-0.032 0.291-0.032 0.438 0 7.2746 5.9129 13.188 13.188 13.188 2.1005 0 4.0809-0.49963 5.8438-1.375l-0.719-0.719c-1.582 0.674-3.297 1.094-5.125 1.094-7.0842 0-12.858-5.6137-13.156-12.625z"/>
  </g>
 </g>
</svg>
