<?xml version="1.0" encoding="UTF-8" standalone="no"?>
<!-- Created with Inkscape (http://www.inkscape.org/) -->
<svg id="svg2408" xmlns:rdf="http://www.w3.org/1999/02/22-rdf-syntax-ns#" xmlns="http://www.w3.org/2000/svg" height="96" width="96" version="1.0" xmlns:cc="http://creativecommons.org/ns#" xmlns:xlink="http://www.w3.org/1999/xlink" xmlns:dc="http://purl.org/dc/elements/1.1/">
 <defs id="defs2410">
  <linearGradient id="linearGradient4236">
   <stop id="stop4238" style="stop-color:#ffdf39" offset="0"/>
   <stop id="stop4240" style="stop-color:#eb9c00;stop-opacity:0" offset="1"/>
  </linearGradient>
  <linearGradient id="linearGradient4192">
   <stop id="stop4194" style="stop-color:#fff" offset="0"/>
   <stop id="stop4196" style="stop-color:#fff;stop-opacity:0" offset="1"/>
  </linearGradient>
  <linearGradient id="ButtonShadow" x1="45.448" gradientUnits="userSpaceOnUse" y1="92.54" gradientTransform="scale(1.0059 .99417)" x2="45.448" y2="7.0165">
   <stop id="stop3750" offset="0"/>
   <stop id="stop3752" style="stop-opacity:.58824" offset="1"/>
  </linearGradient>
  <filter id="filter3174" color-interpolation-filters="sRGB">
   <feGaussianBlur id="feGaussianBlur3176" stdDeviation="1.71"/>
  </filter>
  <clipPath id="clipPath3613">
   <rect id="rect3615" style="fill:#fff" rx="6" ry="6" height="84" width="84" y="6" x="6"/>
  </clipPath>
  <filter id="filter3794" width="1.384" y="-.192" x="-.192" height="1.384" color-interpolation-filters="sRGB">
   <feGaussianBlur id="feGaussianBlur3796" stdDeviation="5.28"/>
  </filter>
  <linearGradient id="linearGradient2885" y2="138.66" gradientUnits="userSpaceOnUse" y1="20.221" x2="48" x1="48">
   <stop id="stop3739-73" style="stop-color:#fff" offset="0"/>
   <stop id="stop3741-6" style="stop-color:#fff;stop-opacity:0" offset="1"/>
  </linearGradient>
  <linearGradient id="linearGradient4182" y2="72" gradientUnits="userSpaceOnUse" y1="24" x2="48" x1="48">
   <stop id="stop4178" offset="0"/>
   <stop id="stop4180" style="stop-color:#393939" offset="1"/>
  </linearGradient>
  <linearGradient id="linearGradient4198" x1="53" xlink:href="#linearGradient4192" gradientUnits="userSpaceOnUse" x2="53" y1="74" y2="32.988"/>
  <linearGradient id="linearGradient4222" x1="48" xlink:href="#linearGradient4192" gradientUnits="userSpaceOnUse" x2="48" y1="72" y2="24"/>
  <radialGradient id="radialGradient4232" xlink:href="#linearGradient4192" gradientUnits="userSpaceOnUse" cy="70" cx="48" gradientTransform="matrix(1.1875 0 0 .5625 -9 27)" r="16"/>
  <linearGradient id="linearGradient4242" x1="33" xlink:href="#linearGradient4236" gradientUnits="userSpaceOnUse" y1="68" gradientTransform="matrix(.5 0 0 1 18 0)" x2="33" y2="61"/>
  <linearGradient id="linearGradient4298" x1="33" xlink:href="#linearGradient4236" gradientUnits="userSpaceOnUse" y1="68" gradientTransform="translate(0,40)" x2="33" y2="61"/>
  <linearGradient id="linearGradient4300" x1="33" xlink:href="#linearGradient4236" gradientUnits="userSpaceOnUse" y1="68" gradientTransform="translate(4,40)" x2="33" y2="61"/>
  <linearGradient id="linearGradient4302" x1="33" xlink:href="#linearGradient4236" gradientUnits="userSpaceOnUse" y1="68" gradientTransform="translate(8,40)" x2="33" y2="61"/>
  <linearGradient id="linearGradient4304" x1="33" xlink:href="#linearGradient4236" gradientUnits="userSpaceOnUse" y1="68" gradientTransform="translate(12,40)" x2="33" y2="61"/>
  <linearGradient id="linearGradient4306" x1="33" xlink:href="#linearGradient4236" gradientUnits="userSpaceOnUse" y1="68" gradientTransform="translate(16,40)" x2="33" y2="61"/>
  <linearGradient id="linearGradient4308" x1="33" xlink:href="#linearGradient4236" gradientUnits="userSpaceOnUse" y1="68" gradientTransform="translate(20,40)" x2="33" y2="61"/>
  <linearGradient id="linearGradient4310" x1="33" xlink:href="#linearGradient4236" gradientUnits="userSpaceOnUse" y1="68" gradientTransform="translate(24,40)" x2="33" y2="61"/>
  <linearGradient id="linearGradient4312" x1="33" xlink:href="#linearGradient4236" gradientUnits="userSpaceOnUse" y1="68" gradientTransform="translate(28,40)" x2="33" y2="61"/>
  <linearGradient id="linearGradient4316" x1="33" xlink:href="#linearGradient4236" gradientUnits="userSpaceOnUse" y1="68" gradientTransform="matrix(.5 0 0 1 22 0)" x2="33" y2="61"/>
  <linearGradient id="linearGradient4320" x1="33" xlink:href="#linearGradient4236" gradientUnits="userSpaceOnUse" y1="68" gradientTransform="matrix(.5 0 0 1 26 0)" x2="33" y2="61"/>
  <linearGradient id="linearGradient4324" x1="33" xlink:href="#linearGradient4236" gradientUnits="userSpaceOnUse" y1="68" gradientTransform="matrix(.5 0 0 1 30 0)" x2="33" y2="61"/>
  <linearGradient id="linearGradient4328" x1="33" xlink:href="#linearGradient4236" gradientUnits="userSpaceOnUse" y1="68" gradientTransform="matrix(.5 0 0 1 34 0)" x2="33" y2="61"/>
  <linearGradient id="linearGradient4332" x1="33" xlink:href="#linearGradient4236" gradientUnits="userSpaceOnUse" y1="68" gradientTransform="matrix(.5 0 0 1 38 0)" x2="33" y2="61"/>
  <linearGradient id="linearGradient4336" x1="33" xlink:href="#linearGradient4236" gradientUnits="userSpaceOnUse" y1="68" gradientTransform="matrix(.5 0 0 1 42 0)" x2="33" y2="61"/>
  <linearGradient id="linearGradient4340" x1="33" xlink:href="#linearGradient4236" gradientUnits="userSpaceOnUse" y1="68" gradientTransform="matrix(.5 0 0 1 46 0)" x2="33" y2="61"/>
  <linearGradient id="linearGradient2927-4" x1="11" gradientUnits="userSpaceOnUse" y1="11.016" gradientTransform="matrix(0 -3 2.9653 0 45.336 123)" x2="19" y2="11.016">
   <stop id="stop3185-9" style="stop-color:#c80000" offset="0"/>
   <stop id="stop3187-6" style="stop-color:#f3604d" offset="1"/>
  </linearGradient>
  <linearGradient id="linearGradient3890" x1="48" gradientUnits="userSpaceOnUse" y1="90" gradientTransform="translate(-108,2)" x2="48" y2="5.9877">
   <stop id="stop4083" style="stop-color:#aaa" offset="0"/>
   <stop id="stop4085" style="stop-color:#f0f0f0" offset="1"/>
  </linearGradient>
  <linearGradient id="linearGradient3892" x1="48" xlink:href="#linearGradient4192" gradientUnits="userSpaceOnUse" y1="8" gradientTransform="translate(-110)" x2="48" y2="80"/>
 </defs>
 <metadata id="metadata2413">
  <rdf:RDF>
   <cc:Work rdf:about="">
    <dc:format>image/svg+xml</dc:format>
    <dc:type rdf:resource="http://purl.org/dc/dcmitype/StillImage"/>
    <dc:title/>
   </cc:Work>
  </rdf:RDF>
 </metadata>
 <g id="layer2" style="display:none">
  <rect id="rect3745" style="opacity:.9;filter:url(#filter3174);fill:url(#ButtonShadow)" rx="6" ry="6" height="85" width="86" y="7" x="5"/>
 </g>
 <g id="layer1">
  <path id="path3790" style="opacity:.08" d="m-98 6.0312c-3.8292 0-6.9688 3.1396-6.9688 6.9688v72c0 3.8292 3.1396 6.9688 6.9688 6.9688h72c3.8292 0 6.9688-3.1396 6.9688-6.9688v-72c0-3.8292-3.1396-6.9688-6.9688-6.9688h-72z"/>
  <path id="path3786" style="opacity:.1" transform="translate(-110)" d="m12 7c-3.3032 0-6 2.6968-6 6v72c0 3.3032 2.6968 6 6 6h72c3.3032 0 6-2.6968 6-6v-72c0-3.3032-2.697-6-6-6h-72z"/>
  <path id="path3782" style="opacity:.15" transform="translate(-110)" d="m12 8c-2.7584 0-5 2.242-5 5v72c0 2.7584 2.2416 5 5 5h72c2.7584 0 5-2.2416 5-5v-72c0-2.758-2.242-5-5-5h-72z"/>
  <rect id="rect3776" style="opacity:.3" rx="4" ry="4" height="80" width="80" y="9" x="-102"/>
  <rect id="rect2419" style="opacity:.2;fill:#fff" rx="4" ry="4" height="80" width="80" y="8" x="8"/>
  <rect id="rect3886" style="fill:url(#linearGradient3890)" rx="4" ry="4" height="80" width="80" y="8" x="-102"/>
  <path id="path3888" style="opacity:.6;fill:url(#linearGradient3892)" d="m-98 8c-2.216 0-4 1.784-4 4v72c0 1.7989 1.1844 3.275 2.8125 3.7812-1.082-0.45-1.812-1.521-1.812-2.781v-72c0-1.6801 1.3199-3 3-3h72c1.6801 0 3 1.3199 3 3v72c0 1.2601-0.73249 2.3313-1.8125 2.7812 1.628-0.506 2.812-1.982 2.812-3.781v-72c0-2.216-1.784-4-4-4h-72zm73.188 79.781c-0.15886 0.06619-0.32783 0.08639-0.5 0.125 0.17333-0.02984 0.33519-0.07375 0.5-0.125zm-74.375 0c0.16481 0.05125 0.32667 0.09516 0.5 0.125-0.17217-0.03861-0.34114-0.05881-0.5-0.125z"/>
 </g>
 <g id="layer4">
  <rect id="rect3171" style="opacity:.15;filter:url(#filter3794);stroke:#fff;stroke-linecap:round;stroke-width:.5;fill:url(#linearGradient2885)" clip-path="url(#clipPath3613)" rx="12" ry="12" height="66" width="66" y="15" x="15"/>
 </g>
 <g id="layer3">
  <path id="path4188" style="opacity:.4;color:#000000;fill:url(#linearGradient4198)" d="m39.812 22.031a1.9844 1.9844 0 0 0 -1.781 1.969v2.0312h-2.0312a1.9844 1.9844 0 0 0 -1.969 1.969v2.0312h-7.0312c-2.7269 0-4.9688 2.2418-4.9688 4.9688v34c0 2.7269 2.2418 4.9688 4.9688 4.9688h42c2.7269 0 4.9688-2.2418 4.9688-4.9688v-34c0-2.7269-2.2418-4.9688-4.9688-4.9688h-7.0312v-2.0312a1.9844 1.9844 0 0 0 -1.969 -1.969h-2.0312v-2.0312a1.9844 1.9844 0 0 0 -1.969 -1.969h-16a1.9844 1.9844 0 0 0 -0.1875 0z"/>
  <path id="rect4162" style="color:#000000;fill:url(#linearGradient4182)" d="m40 24v4h-4v4h-9c-1.662 0-3 1.338-3 3v34c0 1.662 1.338 3 3 3h42c1.662 0 3-1.338 3-3v-34c0-1.662-1.338-3-3-3h-9v-4h-4v-4h-16z"/>
  <path id="rect4168" style="color:#000000" d="m130 24v4h-4v4h-9c-1.662 0-3 1.338-3 3v34c0 1.662 1.338 3 3 3h42c1.662 0 3-1.338 3-3v-34c0-1.662-1.338-3-3-3h-9v-4h-4v-4h-16z"/>
  <path id="path4200" style="opacity:.15;color:#000000" d="m40 22v2h16v-2h-16zm-4 4v2h4v-2h-4zm20 0v2h4v-2h-4zm-29 4c-1.662 0-3 1.338-3 3v2c0-1.662 1.338-3 3-3h9v-2h-9zm33 0v2h9c1.662 0 3 1.338 3 3v-2c0-1.662-1.338-3-3-3h-9z"/>
  <path id="path4209" style="opacity:.2;color:#000000;fill:url(#linearGradient4222)" d="m40 24v4h-4v4h-9c-1.662 0-3 1.338-3 3v34c0 1.662 1.338 3 3 3h42c1.662 0 3-1.338 3-3v-34c0-1.662-1.338-3-3-3h-9v-4h-4v-4h-16zm1.9688 1.9688h12.062v2.0312a1.975 1.975 0 0 0 1.969 1.969h2.0312v2.0312a1.975 1.975 0 0 0 1.969 1.969h9c0.60214 0 1.0312 0.42911 1.0312 1.0312v34c0 0.60214-0.42911 1.0312-1.0312 1.0312h-42c-0.60214 0-1.0312-0.42911-1.0312-1.0312v-34c0-0.60214 0.42911-1.0312 1.0312-1.0312h9a1.975 1.975 0 0 0 1.969 -1.969v-2.0312h2.0312a1.975 1.975 0 0 0 1.969 -1.969v-2.0312z"/>
  <rect id="rect4224" style="opacity:.2;color:#000000;fill:url(#radialGradient4232)" height="18" width="38" y="54" x="29"/>
  <rect id="rect4234" style="color:#000000;fill:url(#linearGradient4242)" height="7" width="1" y="61" x="34"/>
  <path id="path4276" style="opacity:.3;color:#000000" d="m40 23v1h16v-1h-16zm-4 4v1h4v-1h-4zm20 0v1h4v-1h-4zm-29 4c-1.662 0-3 1.338-3 3v1c0-1.662 1.338-3 3-3h9v-1h-9zm33 0v1h9c1.662 0 3 1.338 3 3v-1c0-1.662-1.338-3-3-3h-9z"/>
  <rect id="rect4282" style="color:#000000;fill:url(#linearGradient4298)" height="7" width="2" y="101" x="32"/>
  <rect id="rect4284" style="color:#000000;fill:url(#linearGradient4300)" height="7" width="2" y="101" x="36"/>
  <rect id="rect4286" style="color:#000000;fill:url(#linearGradient4302)" height="7" width="2" y="101" x="40"/>
  <rect id="rect4288" style="color:#000000;fill:url(#linearGradient4304)" height="7" width="2" y="101" x="44"/>
  <rect id="rect4290" style="color:#000000;fill:url(#linearGradient4306)" height="7" width="2" y="101" x="48"/>
  <rect id="rect4292" style="color:#000000;fill:url(#linearGradient4308)" height="7" width="2" y="101" x="52"/>
  <rect id="rect4294" style="color:#000000;fill:url(#linearGradient4310)" height="7" width="2" y="101" x="56"/>
  <rect id="rect4296" style="color:#000000;fill:url(#linearGradient4312)" height="7" width="2" y="101" x="60"/>
  <rect id="rect4314" style="color:#000000;fill:url(#linearGradient4316)" height="7" width="1" y="61" x="38"/>
  <rect id="rect4318" style="color:#000000;fill:url(#linearGradient4320)" height="7" width="1" y="61" x="42"/>
  <rect id="rect4322" style="color:#000000;fill:url(#linearGradient4324)" height="7" width="1" y="61" x="46"/>
  <rect id="rect4326" style="color:#000000;fill:url(#linearGradient4328)" height="7" width="1" y="61" x="50"/>
  <rect id="rect4330" style="color:#000000;fill:url(#linearGradient4332)" height="7" width="1" y="61" x="54"/>
  <rect id="rect4334" style="color:#000000;fill:url(#linearGradient4336)" height="7" width="1" y="61" x="58"/>
  <rect id="rect4338" style="color:#000000;fill:url(#linearGradient4340)" height="7" width="1" y="61" x="62"/>
 </g>
 <g id="layer6">
  <path id="path3761" style="opacity:.1;fill-rule:evenodd" transform="translate(18,104)" d="m53.844-38.969c0.000723-0.000084-0.09447 0.03137-0.09375 0.03125 0.000718-0.00012-0.09446 0.000155-0.09375 0 0.000711-0.000155-0.09445 0.03144-0.09375 0.03125 0.001-0.000262-0.126 0.03158-0.125 0.03125 0.001-0.000335-0.12598 0.06291-0.125 0.0625 0.000978-0.000408-0.1572 0.06298-0.15625 0.0625 0.000946-0.000478-0.12591 0.06305-0.125 0.0625 0.000908-0.000545-0.09462 0.09436-0.09375 0.09375 0.000866-0.00061-0.12582 0.06317-0.125 0.0625 0.00082-0.000671-0.09452 0.09448-0.09375 0.09375 0.000577-0.000547-0.06575 0.06523-0.09375 0.09375-0.0093 0.0095-0.03143 0.03145-0.03125 0.03125l-6 6.0625c0.000953-0.001-0.12585 0.15734-0.125 0.15625 0.000853-0.0011-0.0945 0.12616-0.09375 0.125 0.000746-0.0012-0.09438 0.15748-0.09375 0.15625 0.000632-0.0012-0.09426 0.18878-0.09375 0.1875 0.000513-0.0013-0.06289 0.15758-0.0625 0.15625 0.000389-0.0013-0.03151 0.18886-0.03125 0.1875 0.000261-0.0014-0.03138 0.18888-0.03125 0.1875 0.000131-0.0014 0 0.18888 0 0.1875 0-0.0014 0.000131 0.18888 0 0.1875-0.000131-0.0014 0.03151 0.18886 0.03125 0.1875-0.000261-0.0014 0.03164 0.18883 0.03125 0.1875-0.000389-0.0013 0.06301 0.15754 0.0625 0.15625-0.000513-0.0013 0.09438 0.18873 0.09375 0.1875-0.000632-0.0012 0.0945 0.15742 0.09375 0.15625-0.000746-0.0012 0.0946 0.12609 0.09375 0.125-0.000853-0.0011 0.12595 0.15725 0.125 0.15625l4.5 4.5625-4.5 4.5625c0.000953-0.001-0.12585 0.15734-0.125 0.15625 0.000853-0.0011-0.0945 0.12616-0.09375 0.125 0.000746-0.0012-0.09438 0.15748-0.09375 0.15625 0.000632-0.0012-0.09426 0.18878-0.09375 0.1875 0.000513-0.0013-0.06289 0.15758-0.0625 0.15625 0.000389-0.0013-0.03151 0.18886-0.03125 0.1875 0.000261-0.0014-0.03138 0.18888-0.03125 0.1875 0.000131-0.0014 0 0.18888 0 0.1875 0-0.0014 0.000131 0.18888 0 0.1875-0.000131-0.0014 0.03151 0.18886 0.03125 0.1875-0.000261-0.0014 0.03164 0.18883 0.03125 0.1875-0.000389-0.0013 0.06301 0.15754 0.0625 0.15625-0.000513-0.0013 0.09438 0.18873 0.09375 0.1875-0.000632-0.0012 0.0945 0.15742 0.09375 0.15625-0.000746-0.0012 0.0946 0.12609 0.09375 0.125-0.000853-0.0011 0.12595 0.15725 0.125 0.15625l6.0312 6.0938c-0.000987-0.001 0.12608 0.12593 0.125 0.125-0.0011-0.000927 0.15742 0.12582 0.15625 0.125-0.0012-0.000817 0.15749 0.09445 0.15625 0.09375-0.0012-0.000699 0.1888 0.09432 0.1875 0.09375-0.0013-0.000574 0.18885 0.06294 0.1875 0.0625-0.0014-0.000444 0.15764 0.06281 0.15625 0.0625-0.0014-0.00031 0.18892 0.03142 0.1875 0.03125-0.0014-0.000172 0.22018 0.000033 0.21875 0-0.0014-0.000033 0.18892-0.000106 0.1875 0-0.0014 0.000106 0.1889-0.03149 0.1875-0.03125-0.0014 0.000245 0.18887-0.03163 0.1875-0.03125-0.0014 0.000381 0.15758-0.06301 0.15625-0.0625-0.0013 0.000513 0.18877-0.06314 0.1875-0.0625-0.0013 0.000641 0.15746-0.09451 0.15625-0.09375-0.0012 0.000762 0.15737-0.12588 0.15625-0.125-0.0011 0.000876 0.15728-0.12598 0.15625-0.125l4.5938-4.5625 4.4062 4.5c-0.000508-0.000529 0.06303 0.063 0.0625 0.0625-0.000534-0.000503 0.09431 0.06298 0.09375 0.0625-0.000559-0.000476 0.06308 0.06295 0.0625 0.0625-0.000582-0.000447 0.09435 0.06292 0.09375 0.0625-0.000604-0.000417 0.06312 0.06289 0.0625 0.0625-0.000624-0.000386 0.09439 0.06285 0.09375 0.0625-0.000643-0.000354 0.09441 0.03157 0.09375 0.03125-0.00066-0.000321 0.09443 0.03154 0.09375 0.03125-0.000675-0.000288 0.06319 0.0315 0.0625 0.03125-0.000689-0.000253 0.09445 0.03147 0.09375 0.03125-0.0007-0.000218 0.09446 0.03143 0.09375 0.03125-0.000711-0.000183 0.12572 0.0314 0.125 0.03125-0.000719-0.000147 0.09448 0.03136 0.09375 0.03125-0.000725-0.00011 0.09448 0.000074 0.09375 0s0.09448 0.000037 0.09375 0c-0.000733-0.000037 0.09448 0 0.09375 0-0.000734 0 0.09448-0.000037 0.09375 0-0.000733 0.000037 0.09448-0.000074 0.09375 0s0.09448-0.00011 0.09375 0c-0.000725 0.00011 0.09447-0.0314 0.09375-0.03125-0.000719 0.000147 0.12571-0.03143 0.125-0.03125-0.000711 0.000183 0.09445-0.03147 0.09375-0.03125-0.0007 0.000218 0.09444-0.0315 0.09375-0.03125-0.000689 0.000253 0.06318-0.03154 0.0625-0.03125-0.000675 0.000288 0.09441-0.03157 0.09375-0.03125-0.00066 0.000321 0.09439-0.0316 0.09375-0.03125-0.000643 0.000354 0.09437-0.06289 0.09375-0.0625-0.000624 0.000386 0.0631-0.06292 0.0625-0.0625-0.000604 0.000417 0.09433-0.06295 0.09375-0.0625-0.000582 0.000447 0.06306-0.06298 0.0625-0.0625-0.000559 0.000476 0.09428-0.063 0.09375-0.0625-0.000534 0.000503 0.06301-0.06303 0.0625-0.0625l6.2188-6.2812c-0.000982 0.001 0.12588-0.15737 0.125-0.15625-0.000876 0.0011 0.12576-0.15746 0.125-0.15625-0.000762 0.0012 0.09439-0.15752 0.09375-0.15625-0.000641 0.0013 0.06301-0.18883 0.0625-0.1875-0.000513 0.0013 0.06288-0.15762 0.0625-0.15625-0.000381 0.0014 0.0315-0.1889 0.03125-0.1875-0.000245 0.0014 0.03136-0.18892 0.03125-0.1875-0.000106 0.0014-0.000033-0.18892 0-0.1875 0.000033 0.0014-0.000172-0.22016 0-0.21875 0.000172 0.0014-0.03156-0.18889-0.03125-0.1875 0.00031 0.0014-0.06294-0.1576-0.0625-0.15625 0.000444 0.0014-0.06307-0.1888-0.0625-0.1875 0.000574 0.0013-0.09445-0.18874-0.09375-0.1875 0.000699 0.0012-0.09457-0.15742-0.09375-0.15625 0.000817 0.0012-0.12593-0.15733-0.125-0.15625 0.000927 0.0011-0.12603-0.12599-0.125-0.125l-4.406-4.313 4.4062-4.3125c-0.001 0.000987 0.12593-0.12608 0.125-0.125-0.000927 0.0011 0.12582-0.15742 0.125-0.15625-0.000817 0.0012 0.09445-0.15749 0.09375-0.15625-0.000699 0.0012 0.09432-0.1888 0.09375-0.1875-0.000574 0.0013 0.06294-0.18885 0.0625-0.1875-0.000444 0.0014 0.06281-0.15764 0.0625-0.15625-0.00031 0.0014 0.03142-0.18892 0.03125-0.1875-0.000172 0.0014 0.000033-0.22018 0-0.21875-0.000033 0.0014-0.000106-0.18892 0-0.1875 0.000106 0.0014-0.0315-0.1889-0.03125-0.1875 0.000245 0.0014-0.03163-0.18887-0.03125-0.1875 0.000381 0.0014-0.06301-0.15758-0.0625-0.15625 0.000513 0.0013-0.06314-0.18877-0.0625-0.1875 0.000641 0.0013-0.09451-0.15746-0.09375-0.15625 0.000762 0.0012-0.12588-0.15737-0.125-0.15625 0.000876 0.0011-0.12598-0.15728-0.125-0.15625l-6.2188-6.2812c0.000508 0.000529-0.06303-0.063-0.0625-0.0625 0.000534 0.000503-0.09431-0.06298-0.09375-0.0625 0.000559 0.000476-0.06308-0.06295-0.0625-0.0625 0.000582 0.000447-0.09435-0.06292-0.09375-0.0625 0.000604 0.000417-0.06312-0.06289-0.0625-0.0625 0.000624 0.000386-0.09439-0.06285-0.09375-0.0625 0.000643 0.000354-0.09441-0.03157-0.09375-0.03125 0.00066 0.000321-0.09443-0.03154-0.09375-0.03125 0.000675 0.000288-0.06319-0.0315-0.0625-0.03125 0.000689 0.000253-0.09445-0.03147-0.09375-0.03125 0.0007 0.000218-0.09446-0.03143-0.09375-0.03125 0.000711 0.000183-0.12572-0.0314-0.125-0.03125 0.000719 0.000147-0.09448-0.03136-0.09375-0.03125 0.000725 0.00011-0.09448-0.000074-0.09375 0s-0.09448-0.000037-0.09375 0c0.000733 0.000037-0.09448 0-0.09375 0 0.000734 0-0.09448 0.000037-0.09375 0 0.000733-0.000037-0.09448 0.000074-0.09375 0s-0.09448 0.00011-0.09375 0c0.000725-0.00011-0.09447 0.0314-0.09375 0.03125 0.000719-0.000147-0.12571 0.03143-0.125 0.03125 0.000711-0.000183-0.09445 0.03147-0.09375 0.03125 0.0007-0.000218-0.09444 0.0315-0.09375 0.03125 0.000689-0.000253-0.06318 0.03154-0.0625 0.03125 0.000675-0.000288-0.09441 0.03157-0.09375 0.03125 0.00066-0.000321-0.09439 0.0316-0.09375 0.03125 0.000643-0.000354-0.09437 0.06289-0.09375 0.0625 0.000624-0.000386-0.0631 0.06292-0.0625 0.0625 0.000604-0.000417-0.09433 0.06295-0.09375 0.0625 0.000582-0.000447-0.06306 0.06298-0.0625 0.0625 0.000559-0.000476-0.09428 0.063-0.09375 0.0625 0.000534-0.000503-0.06301 0.06303-0.0625 0.0625l-4.4062 4.5-4.5625-4.5312c0.000171 0.000172-0.02075-0.0212-0.03125-0.03125-0.021-0.0201-0.06286-0.06283-0.0625-0.0625 0.000539 0.000491-0.06306-0.06296-0.0625-0.0625 0.000563 0.000463-0.06309-0.06294-0.0625-0.0625 0.000585 0.000435-0.09436-0.03166-0.09375-0.03125 0.000606 0.000405-0.09438-0.06287-0.09375-0.0625 0.000626 0.000374-0.06314-0.06284-0.0625-0.0625 0.000644 0.000342-0.09441-0.03156-0.09375-0.03125 0.00066 0.000309-0.09443-0.03153-0.09375-0.03125 0.000675 0.000276-0.09444-0.03149-0.09375-0.03125 0.000688 0.000242-0.09445-0.03146-0.09375-0.03125 0.000699 0.000207-0.09446-0.03142-0.09375-0.03125 0.000708 0.000172-0.09447-0.03139-0.09375-0.03125 0.000716 0.000136-0.09447-0.0001-0.09375 0 0.000722 0.0001-0.09448-0.03131-0.09375-0.03125 0.000726 0.000064-0.09448-0.000028-0.09375 0 0.000728 0.000028-0.09448 0.000009-0.09375 0a0.99658 0.99658 0 0 0 -0.0625 0c0.000726-0.000047-0.09447 0.000084-0.09375 0z"/>
  <path id="path3757" style="opacity:.15;fill-rule:evenodd" transform="translate(18,104)" d="m53.812-37.938a0.95278 0.95278 0 0 0 -0.46875 0.28125l-6.0312 6.0938a0.95278 0.95278 0 0 0 0 1.3125l5.188 5.25-5.1875 5.25a0.95278 0.95278 0 0 0 0 1.3125l6.0312 6.0938a0.95278 0.95278 0 0 0 1.3438 0.03125l5.2812-5.25 5.125 5.2188a0.95278 0.95278 0 0 0 1.375 0l6.22-6.281a0.95278 0.95278 0 0 0 -0.03125 -1.3438l-5.157-5.031 5.156-5.031a0.95278 0.95278 0 0 0 0.032 -1.344l-6.2188-6.2812a0.95278 0.95278 0 0 0 -1.375 0l-5.125 5.2188-5.2812-5.25a0.95278 0.95278 0 0 0 -0.875 -0.25z"/>
  <path id="path3751" style="opacity:.3;fill-rule:evenodd" d="m66 84.906 6.023 6.094 5.931-5.906 5.838 5.906 6.208-6.281-5.838-5.719 5.838-5.719-6.208-6.281-5.838 5.906-5.931-5.906l-6.0232 6.0938 5.8378 5.9063-5.8378 5.9062z"/>
  <path id="path7165" style="fill:url(#linearGradient2927-4);fill-rule:evenodd" d="m66 83.906 6.023 6.094 5.931-5.906 5.838 5.906 6.208-6.281-5.838-5.719 5.838-5.719-6.208-6.281-5.838 5.906-5.931-5.906l-6.0232 6.0938 5.8378 5.9063-5.8378 5.9062z"/>
  <path id="path2970" style="opacity:.2;fill:#fff;fill-rule:evenodd" d="m72.031 66-6.0312 6.0938 1 1l5.031-5.094 5.938 5.906 5.812-5.906 5.219 5.25 1-0.969-6.219-6.281-5.812 5.906-5.938-5.906zm-0.19483 11.976-5.8364 5.9304 1 1l4.844-4.906-0.008-2.024zm12.343 0.047-0.023 1.977l4.8438 4.75 1-1.0312-5.8209-5.6957z"/>
 </g>
</svg>
