<?xml version="1.0" encoding="UTF-8" standalone="no"?>
<!-- Created with Inkscape (http://www.inkscape.org/) -->
<svg id="svg2" xmlns:rdf="http://www.w3.org/1999/02/22-rdf-syntax-ns#" xmlns="http://www.w3.org/2000/svg" height="96" width="96" version="1.0" xmlns:cc="http://creativecommons.org/ns#" xmlns:xlink="http://www.w3.org/1999/xlink" xmlns:dc="http://purl.org/dc/elements/1.1/">
 <defs id="defs4">
  <linearGradient id="linearGradient3713">
   <stop id="stop3715" style="stop-color:#fff" offset="0"/>
   <stop id="stop3717" style="stop-color:#fff;stop-opacity:0" offset="1"/>
  </linearGradient>
  <linearGradient id="linearGradient4081">
   <stop id="stop4083" style="stop-color:#aaa" offset="0"/>
   <stop id="stop4085" style="stop-color:#f0f0f0" offset="1"/>
  </linearGradient>
  <linearGradient id="linearGradient3689" x1="96" xlink:href="#linearGradient4081" gradientUnits="userSpaceOnUse" y1="-2" gradientTransform="translate(-20,16)" x2="96" y2="-82"/>
  <linearGradient id="linearGradient3691" x1="72" xlink:href="#linearGradient4081" gradientUnits="userSpaceOnUse" y1="-2" gradientTransform="translate(-16,16)" x2="72" y2="-66"/>
  <linearGradient id="linearGradient3693" x1="56" xlink:href="#linearGradient4081" gradientUnits="userSpaceOnUse" y1="-2" gradientTransform="translate(-12,16)" x2="56" y2="-50"/>
  <linearGradient id="linearGradient3695" x1="24" xlink:href="#linearGradient4081" gradientUnits="userSpaceOnUse" y1="-2" gradientTransform="translate(-8,16)" x2="24" y2="-34"/>
  <linearGradient id="linearGradient3719" x1="78" xlink:href="#linearGradient3713" gradientUnits="userSpaceOnUse" x2="78" y1="-66" y2="6.0278"/>
  <linearGradient id="linearGradient3727" x1="19" xlink:href="#linearGradient3713" gradientUnits="userSpaceOnUse" x2="19" y1="-18" y2="14.14"/>
  <linearGradient id="linearGradient3729" x1="37" xlink:href="#linearGradient3713" gradientUnits="userSpaceOnUse" x2="37" y1="-34" y2="14.01"/>
  <linearGradient id="linearGradient3731" x1="57" xlink:href="#linearGradient3713" gradientUnits="userSpaceOnUse" x2="57" y1="-50" y2="14.008"/>
 </defs>
 <metadata id="metadata7">
  <rdf:RDF>
   <cc:Work rdf:about="">
    <dc:format>image/svg+xml</dc:format>
    <dc:type rdf:resource="http://purl.org/dc/dcmitype/StillImage"/>
   </cc:Work>
  </rdf:RDF>
 </metadata>
 <g id="layer1" transform="translate(0,74)">
  <path id="path3770" style="opacity:.08" d="m74-67.969c-3.8275 0-6.9688 3.1413-6.9688 6.9688v11.281c-1.274-1.3588-3.0362-2.25-5.0312-2.25h-8c-3.8275 0-6.9688 3.1413-6.9688 6.9688v11.281c-1.274-1.3588-3.0362-2.25-5.0312-2.25h-8c-3.8275 0-6.9688 3.1413-6.9688 6.9688v11.281c-1.274-1.3588-3.0362-2.25-5.0312-2.25h-8c-3.8275 0-6.9688 3.1413-6.9688 6.9688v24c0 3.8275 3.1413 6.9688 6.9688 6.9688h8c2.6111 0 4.8076-1.5124 6-3.6562 1.1924 2.1438 3.3889 3.6562 6 3.6562h8c2.6111 0 4.8076-1.5124 6-3.6562 1.1924 2.1438 3.3889 3.6562 6 3.6562h8c2.6111 0 4.8076-1.5124 6-3.6562 1.1924 2.1438 3.3889 3.6562 6 3.6562h8c3.8275 0 6.9688-3.1413 6.9688-6.9688v-72c0-3.8275-3.1413-6.9688-6.9688-6.9688h-8z"/>
  <path id="path3766" style="opacity:.1" d="m74-66.969c-3.2831 0-5.9688 2.6857-5.9688 5.9688v72c0 3.2831 2.6857 5.9688 5.9688 5.9688h8c3.2831 0 5.9688-2.6857 5.9688-5.9688v-72c0-3.2831-2.6857-5.9688-5.9688-5.9688h-8zm-20 16c-3.2831 0-5.9688 2.6857-5.9688 5.9688v56c0 3.2831 2.6857 5.9688 5.9688 5.9688h8c3.2831 0 5.9688-2.6857 5.9688-5.9688v-56c0-3.2831-2.6857-5.9688-5.9688-5.9688h-8zm-20 16c-3.2831 0-5.9688 2.6857-5.9688 5.9688v40c0 3.2831 2.6857 5.9688 5.9688 5.9688h8c3.2831 0 5.9688-2.6857 5.9688-5.9688v-40c0-3.2831-2.6857-5.9688-5.9688-5.9688h-8zm-20 16c-3.2831 0-5.9688 2.6857-5.9688 5.9688v24c0 3.2831 2.6857 5.9688 5.9688 5.9688h8c3.2831 0 5.9688-2.6857 5.9688-5.9688v-24c0-3.2831-2.6857-5.9688-5.9688-5.9688h-8z"/>
  <path id="path3762" style="opacity:.15" d="m74-66.031c-2.7634 0-5.0312 2.2679-5.0312 5.0312v72c0 2.7634 2.2679 5.0312 5.0312 5.0312h8c2.7634 0 5.0312-2.2679 5.0312-5.0312v-72c0-2.7634-2.2679-5.0312-5.0312-5.0312h-8zm-20 16c-2.7634 0-5.0312 2.2679-5.0312 5.0312v56c0 2.7634 2.2679 5.0312 5.0312 5.0312h8c2.7634 0 5.0312-2.2679 5.0312-5.0312v-56c0-2.7634-2.2679-5.0312-5.0312-5.0312h-8zm-20 16c-2.7634 0-5.0312 2.2679-5.0312 5.0312v40c0 2.7634 2.2679 5.0312 5.0312 5.0312h8c2.7634 0 5.0312-2.2679 5.0312-5.0312v-40c0-2.7634-2.2679-5.0312-5.0312-5.0312h-8zm-20 16c-2.7634 0-5.0312 2.2679-5.0312 5.0312v24c0 2.7634 2.2679 5.0312 5.0312 5.0312h8c2.7634 0 5.0312-2.2679 5.0312-5.0312v-24c0-2.7634-2.2679-5.0312-5.0312-5.0312h-8z"/>
  <path id="rect3747" style="opacity:.3" d="m74-65c-2.216 0-4 1.784-4 4v72c0 2.216 1.784 4 4 4h8c2.216 0 4-1.784 4-4v-72c0-2.216-1.784-4-4-4h-8zm-20 16c-2.216 0-4 1.784-4 4v56c0 2.216 1.784 4 4 4h8c2.216 0 4-1.784 4-4v-56c0-2.216-1.784-4-4-4h-8zm-20 16c-2.216 0-4 1.784-4 4v40c0 2.216 1.784 4 4 4h8c2.216 0 4-1.784 4-4v-40c0-2.216-1.784-4-4-4h-8zm-20 16c-2.216 0-4 1.784-4 4v24c0 2.216 1.784 4 4 4h8c2.216 0 4-1.784 4-4v-24c0-2.216-1.784-4-4-4h-8z"/>
  <rect id="rect2903" style="fill:url(#linearGradient3689)" rx="4" ry="4" height="80" width="16" y="-66" x="70"/>
  <rect id="rect2905" style="fill:url(#linearGradient3691)" rx="4" ry="4" height="64" width="16" y="-50" x="50"/>
  <rect id="rect2907" style="fill:url(#linearGradient3693)" rx="4" ry="4" height="48" width="16" y="-34" x="30"/>
  <rect id="rect2909" style="fill:url(#linearGradient3695)" rx="4" ry="4" height="32" width="16" y="-18" x="10"/>
  <path id="path2939" style="opacity:.6;fill:url(#linearGradient3719)" d="m74-66c-2.216 0-4 1.784-4 4v72c0 1.7989 1.1844 3.275 2.8125 3.7812-1.091-0.454-1.843-1.508-1.843-2.781v-72c0-1.6976 1.3337-3.0312 3.0312-3.0312h8c1.6976 0 3.0312 1.3337 3.0312 3.0312v72c0 1.2732-0.75249 2.3266-1.8438 2.7812 1.629-0.506 2.813-1.982 2.813-3.781v-72c0-2.216-1.784-4-4-4h-8z"/>
  <path id="path2937" style="opacity:.6;fill:url(#linearGradient3731)" d="m54-50c-2.216 0-4 1.784-4 4v56c0 1.7989 1.1844 3.275 2.8125 3.7812-1.091-0.454-1.843-1.508-1.843-2.781v-56c0-1.6976 1.3337-3.0312 3.0312-3.0312h8c1.6976 0 3.0312 1.3337 3.0312 3.0312v56c0 1.2732-0.75249 2.3266-1.8438 2.7812 1.629-0.506 2.813-1.982 2.813-3.781v-56c0-2.216-1.784-4-4-4h-8z"/>
  <path id="path2935" style="opacity:.6;fill:url(#linearGradient3729)" d="m34-34c-2.216 0-4 1.784-4 4v40c0 1.7989 1.1844 3.275 2.8125 3.7812-1.091-0.454-1.843-1.508-1.843-2.781v-40c0-1.6976 1.3337-3.0312 3.0312-3.0312h8c1.6976 0 3.0312 1.3337 3.0312 3.0312v40c0 1.2732-0.75249 2.3266-1.8438 2.7812 1.629-0.506 2.813-1.982 2.813-3.781v-40c0-2.216-1.784-4-4-4h-8z"/>
  <path id="rect2912" style="opacity:.6;fill:url(#linearGradient3727)" d="m14-18c-2.216 0-4 1.784-4 4v24c0 1.7989 1.1844 3.275 2.8125 3.7812-1.091-0.454-1.843-1.508-1.843-2.781v-24c0-1.6976 1.3337-3.0312 3.0312-3.0312h8c1.6976 0 3.0312 1.3337 3.0312 3.0312v24c0 1.2732-0.75249 2.3266-1.8438 2.7812 1.629-0.506 2.813-1.982 2.813-3.781v-24c0-2.216-1.784-4-4-4h-8z"/>
 </g>
</svg>
