<?xml version="1.0" encoding="UTF-8" standalone="no"?>
<!-- Created with Inkscape (http://www.inkscape.org/) -->
<svg id="svg2408" xmlns:rdf="http://www.w3.org/1999/02/22-rdf-syntax-ns#" xmlns="http://www.w3.org/2000/svg" height="96" width="96" version="1.0" xmlns:cc="http://creativecommons.org/ns#" xmlns:xlink="http://www.w3.org/1999/xlink" xmlns:dc="http://purl.org/dc/elements/1.1/">
 <defs id="defs2410">
  <linearGradient id="linearGradient4236">
   <stop id="stop4238" style="stop-color:#ffdf39" offset="0"/>
   <stop id="stop4240" style="stop-color:#eb9c00;stop-opacity:0" offset="1"/>
  </linearGradient>
  <linearGradient id="linearGradient4192">
   <stop id="stop4194" style="stop-color:#fff" offset="0"/>
   <stop id="stop4196" style="stop-color:#fff;stop-opacity:0" offset="1"/>
  </linearGradient>
  <linearGradient id="ButtonShadow" x1="45.448" gradientUnits="userSpaceOnUse" y1="92.54" gradientTransform="scale(1.0059 .99417)" x2="45.448" y2="7.0165">
   <stop id="stop3750" offset="0"/>
   <stop id="stop3752" style="stop-opacity:.58824" offset="1"/>
  </linearGradient>
  <linearGradient id="linearGradient3706" x1="48" gradientUnits="userSpaceOnUse" y1="90" gradientTransform="translate(2,2)" x2="48" y2="5.9877">
   <stop id="stop4083" style="stop-color:#aaa" offset="0"/>
   <stop id="stop4085" style="stop-color:#f0f0f0" offset="1"/>
  </linearGradient>
  <filter id="filter3174" color-interpolation-filters="sRGB">
   <feGaussianBlur id="feGaussianBlur3176" stdDeviation="1.71"/>
  </filter>
  <clipPath id="clipPath3613">
   <rect id="rect3615" style="fill:#fff" rx="6" ry="6" height="84" width="84" y="6" x="6"/>
  </clipPath>
  <filter id="filter3794" width="1.384" y="-.192" x="-.192" height="1.384" color-interpolation-filters="sRGB">
   <feGaussianBlur id="feGaussianBlur3796" stdDeviation="5.28"/>
  </filter>
  <linearGradient id="linearGradient2885" y2="138.66" gradientUnits="userSpaceOnUse" y1="20.221" x2="48" x1="48">
   <stop id="stop3739-73" style="stop-color:#fff" offset="0"/>
   <stop id="stop3741-6" style="stop-color:#fff;stop-opacity:0" offset="1"/>
  </linearGradient>
  <linearGradient id="linearGradient4182" y2="72" gradientUnits="userSpaceOnUse" y1="24" x2="48" x1="48">
   <stop id="stop4178" offset="0"/>
   <stop id="stop4180" style="stop-color:#393939" offset="1"/>
  </linearGradient>
  <linearGradient id="linearGradient4198" x1="53" xlink:href="#linearGradient4192" gradientUnits="userSpaceOnUse" x2="53" y1="74" y2="32.988"/>
  <linearGradient id="linearGradient4222" x1="48" xlink:href="#linearGradient4192" gradientUnits="userSpaceOnUse" x2="48" y1="72" y2="24"/>
  <radialGradient id="radialGradient4232" xlink:href="#linearGradient4192" gradientUnits="userSpaceOnUse" cy="70" cx="48" gradientTransform="matrix(1.1875 0 0 .5625 -9 27)" r="16"/>
  <linearGradient id="linearGradient4242" x1="33" xlink:href="#linearGradient4236" gradientUnits="userSpaceOnUse" y1="68" gradientTransform="matrix(.5 0 0 1 18 0)" x2="33" y2="61"/>
  <linearGradient id="linearGradient4298" x1="33" xlink:href="#linearGradient4236" gradientUnits="userSpaceOnUse" y1="68" gradientTransform="translate(0,40)" x2="33" y2="61"/>
  <linearGradient id="linearGradient4300" x1="33" xlink:href="#linearGradient4236" gradientUnits="userSpaceOnUse" y1="68" gradientTransform="translate(4,40)" x2="33" y2="61"/>
  <linearGradient id="linearGradient4302" x1="33" xlink:href="#linearGradient4236" gradientUnits="userSpaceOnUse" y1="68" gradientTransform="translate(8,40)" x2="33" y2="61"/>
  <linearGradient id="linearGradient4304" x1="33" xlink:href="#linearGradient4236" gradientUnits="userSpaceOnUse" y1="68" gradientTransform="translate(12,40)" x2="33" y2="61"/>
  <linearGradient id="linearGradient4306" x1="33" xlink:href="#linearGradient4236" gradientUnits="userSpaceOnUse" y1="68" gradientTransform="translate(16,40)" x2="33" y2="61"/>
  <linearGradient id="linearGradient4308" x1="33" xlink:href="#linearGradient4236" gradientUnits="userSpaceOnUse" y1="68" gradientTransform="translate(20,40)" x2="33" y2="61"/>
  <linearGradient id="linearGradient4310" x1="33" xlink:href="#linearGradient4236" gradientUnits="userSpaceOnUse" y1="68" gradientTransform="translate(24,40)" x2="33" y2="61"/>
  <linearGradient id="linearGradient4312" x1="33" xlink:href="#linearGradient4236" gradientUnits="userSpaceOnUse" y1="68" gradientTransform="translate(28,40)" x2="33" y2="61"/>
  <linearGradient id="linearGradient4316" x1="33" xlink:href="#linearGradient4236" gradientUnits="userSpaceOnUse" y1="68" gradientTransform="matrix(.5 0 0 1 22 0)" x2="33" y2="61"/>
  <linearGradient id="linearGradient4320" x1="33" xlink:href="#linearGradient4236" gradientUnits="userSpaceOnUse" y1="68" gradientTransform="matrix(.5 0 0 1 26 0)" x2="33" y2="61"/>
  <linearGradient id="linearGradient4324" x1="33" xlink:href="#linearGradient4236" gradientUnits="userSpaceOnUse" y1="68" gradientTransform="matrix(.5 0 0 1 30 0)" x2="33" y2="61"/>
  <linearGradient id="linearGradient4328" x1="33" xlink:href="#linearGradient4236" gradientUnits="userSpaceOnUse" y1="68" gradientTransform="matrix(.5 0 0 1 34 0)" x2="33" y2="61"/>
  <linearGradient id="linearGradient4332" x1="33" xlink:href="#linearGradient4236" gradientUnits="userSpaceOnUse" y1="68" gradientTransform="matrix(.5 0 0 1 38 0)" x2="33" y2="61"/>
  <linearGradient id="linearGradient4336" x1="33" xlink:href="#linearGradient4236" gradientUnits="userSpaceOnUse" y1="68" gradientTransform="matrix(.5 0 0 1 42 0)" x2="33" y2="61"/>
  <linearGradient id="linearGradient4340" x1="33" xlink:href="#linearGradient4236" gradientUnits="userSpaceOnUse" y1="68" gradientTransform="matrix(.5 0 0 1 46 0)" x2="33" y2="61"/>
  <linearGradient id="linearGradient3774" x1="48" xlink:href="#linearGradient4192" gradientUnits="userSpaceOnUse" x2="48" y1="8" y2="80"/>
 </defs>
 <metadata id="metadata2413">
  <rdf:RDF>
   <cc:Work rdf:about="">
    <dc:format>image/svg+xml</dc:format>
    <dc:type rdf:resource="http://purl.org/dc/dcmitype/StillImage"/>
    <dc:title/>
   </cc:Work>
  </rdf:RDF>
 </metadata>
 <g id="layer2" style="display:none">
  <rect id="rect3745" style="opacity:.9;filter:url(#filter3174);fill:url(#ButtonShadow)" rx="6" ry="6" height="85" width="86" y="7" x="5"/>
 </g>
 <g id="layer1">
  <path id="path3790" style="opacity:.08" d="m12 6.0312c-3.8292 0-6.9688 3.1396-6.9688 6.9688v72c0 3.8292 3.1396 6.9688 6.9688 6.9688h72c3.8292 0 6.9688-3.1396 6.9688-6.9688v-72c0-3.8292-3.14-6.9688-6.969-6.9688h-72z"/>
  <path id="path3786" style="opacity:.1" d="m12 7c-3.3032 0-6 2.6968-6 6v72c0 3.3032 2.6968 6 6 6h72c3.3032 0 6-2.6968 6-6v-72c0-3.3032-2.697-6-6-6h-72z"/>
  <path id="path3782" style="opacity:.15" d="m12 8c-2.7584 0-5 2.242-5 5v72c0 2.7584 2.2416 5 5 5h72c2.7584 0 5-2.2416 5-5v-72c0-2.758-2.242-5-5-5h-72z"/>
  <rect id="rect3776" style="opacity:.3" rx="4" ry="4" height="80" width="80" y="9" x="8"/>
  <rect id="rect2419" style="fill:url(#linearGradient3706)" rx="4" ry="4" height="80" width="80" y="8" x="8"/>
  <path id="rect3761" style="opacity:.6;fill:url(#linearGradient3774)" d="m12 8c-2.216 0-4 1.784-4 4v72c0 1.7989 1.1844 3.275 2.8125 3.7812-1.0795-0.45-1.812-1.521-1.812-2.781v-72c0-1.6801 1.3199-3 3-3h72c1.6801 0 3 1.3199 3 3v72c0 1.2601-0.73249 2.3313-1.8125 2.7812 1.628-0.506 2.812-1.982 2.812-3.781v-72c0-2.216-1.784-4-4-4h-72zm73.188 79.781c-0.15886 0.06619-0.32783 0.08639-0.5 0.125 0.17333-0.02984 0.33519-0.07375 0.5-0.125zm-74.375 0c0.16481 0.05125 0.32667 0.09516 0.5 0.125-0.17217-0.03861-0.34114-0.05881-0.5-0.125z"/>
 </g>
 <g id="layer4">
  <rect id="rect3171" style="opacity:.15;filter:url(#filter3794);stroke:#fff;stroke-linecap:round;stroke-width:.5;fill:url(#linearGradient2885)" clip-path="url(#clipPath3613)" rx="12" ry="12" height="66" width="66" y="15" x="15"/>
 </g>
 <g id="layer3">
  <path id="path4188" style="opacity:.6;color:#000000;fill:url(#linearGradient4198)" d="m39.812 22.031a1.9844 1.9844 0 0 0 -1.781 1.969v2.0312h-2.0312a1.9844 1.9844 0 0 0 -1.969 1.969v2.0312h-7.0312c-2.7269 0-4.9688 2.2418-4.9688 4.9688v34c0 2.7269 2.2418 4.9688 4.9688 4.9688h42c2.7269 0 4.9688-2.2418 4.9688-4.9688v-34c0-2.7269-2.2418-4.9688-4.9688-4.9688h-7.0312v-2.0312a1.9844 1.9844 0 0 0 -1.969 -1.969h-2.0312v-2.0312a1.9844 1.9844 0 0 0 -1.969 -1.969h-16a1.9844 1.9844 0 0 0 -0.1875 0z"/>
  <path id="rect4162" style="color:#000000;fill:url(#linearGradient4182)" d="m40 24v4h-4v4h-9c-1.662 0-3 1.338-3 3v34c0 1.662 1.338 3 3 3h42c1.662 0 3-1.338 3-3v-34c0-1.662-1.338-3-3-3h-9v-4h-4v-4h-16z"/>
  <path id="rect4168" style="color:#000000" d="m130 24v4h-4v4h-9c-1.662 0-3 1.338-3 3v34c0 1.662 1.338 3 3 3h42c1.662 0 3-1.338 3-3v-34c0-1.662-1.338-3-3-3h-9v-4h-4v-4h-16z"/>
  <path id="path4200" style="opacity:.15;color:#000000" d="m40 22v2h16v-2h-16zm-4 4v2h4v-2h-4zm20 0v2h4v-2h-4zm-29 4c-1.662 0-3 1.338-3 3v2c0-1.662 1.338-3 3-3h9v-2h-9zm33 0v2h9c1.662 0 3 1.338 3 3v-2c0-1.662-1.338-3-3-3h-9z"/>
  <path id="path4209" style="opacity:.2;color:#000000;fill:url(#linearGradient4222)" d="m40 24v4h-4v4h-9c-1.662 0-3 1.338-3 3v34c0 1.662 1.338 3 3 3h42c1.662 0 3-1.338 3-3v-34c0-1.662-1.338-3-3-3h-9v-4h-4v-4h-16zm1.9688 1.9688h12.062v2.0312a1.975 1.975 0 0 0 1.969 1.969h2.0312v2.0312a1.975 1.975 0 0 0 1.969 1.969h9c0.60214 0 1.0312 0.42911 1.0312 1.0312v34c0 0.60214-0.42911 1.0312-1.0312 1.0312h-42c-0.60214 0-1.0312-0.42911-1.0312-1.0312v-34c0-0.60214 0.42911-1.0312 1.0312-1.0312h9a1.975 1.975 0 0 0 1.969 -1.969v-2.0312h2.0312a1.975 1.975 0 0 0 1.969 -1.969v-2.0312z"/>
  <rect id="rect4224" style="opacity:.2;color:#000000;fill:url(#radialGradient4232)" height="18" width="38" y="54" x="29"/>
  <rect id="rect4234" style="color:#000000;fill:url(#linearGradient4242)" height="7" width="1" y="61" x="34"/>
  <path id="path4276" style="opacity:.3;color:#000000" d="m40 23v1h16v-1h-16zm-4 4v1h4v-1h-4zm20 0v1h4v-1h-4zm-29 4c-1.662 0-3 1.338-3 3v1c0-1.662 1.338-3 3-3h9v-1h-9zm33 0v1h9c1.662 0 3 1.338 3 3v-1c0-1.662-1.338-3-3-3h-9z"/>
  <rect id="rect4282" style="color:#000000;fill:url(#linearGradient4298)" height="7" width="2" y="101" x="32"/>
  <rect id="rect4284" style="color:#000000;fill:url(#linearGradient4300)" height="7" width="2" y="101" x="36"/>
  <rect id="rect4286" style="color:#000000;fill:url(#linearGradient4302)" height="7" width="2" y="101" x="40"/>
  <rect id="rect4288" style="color:#000000;fill:url(#linearGradient4304)" height="7" width="2" y="101" x="44"/>
  <rect id="rect4290" style="color:#000000;fill:url(#linearGradient4306)" height="7" width="2" y="101" x="48"/>
  <rect id="rect4292" style="color:#000000;fill:url(#linearGradient4308)" height="7" width="2" y="101" x="52"/>
  <rect id="rect4294" style="color:#000000;fill:url(#linearGradient4310)" height="7" width="2" y="101" x="56"/>
  <rect id="rect4296" style="color:#000000;fill:url(#linearGradient4312)" height="7" width="2" y="101" x="60"/>
  <rect id="rect4314" style="color:#000000;fill:url(#linearGradient4316)" height="7" width="1" y="61" x="38"/>
  <rect id="rect4318" style="color:#000000;fill:url(#linearGradient4320)" height="7" width="1" y="61" x="42"/>
  <rect id="rect4322" style="color:#000000;fill:url(#linearGradient4324)" height="7" width="1" y="61" x="46"/>
  <rect id="rect4326" style="color:#000000;fill:url(#linearGradient4328)" height="7" width="1" y="61" x="50"/>
  <rect id="rect4330" style="color:#000000;fill:url(#linearGradient4332)" height="7" width="1" y="61" x="54"/>
  <rect id="rect4334" style="color:#000000;fill:url(#linearGradient4336)" height="7" width="1" y="61" x="58"/>
  <rect id="rect4338" style="color:#000000;fill:url(#linearGradient4340)" height="7" width="1" y="61" x="62"/>
 </g>
</svg>
