<?xml version="1.0" encoding="UTF-8" standalone="no"?>
<!-- Created with Inkscape (http://www.inkscape.org/) -->
<svg id="svg11037" xmlns:rdf="http://www.w3.org/1999/02/22-rdf-syntax-ns#" xmlns="http://www.w3.org/2000/svg" height="96" width="96" version="1.1" xmlns:cc="http://creativecommons.org/ns#" xmlns:xlink="http://www.w3.org/1999/xlink" xmlns:dc="http://purl.org/dc/elements/1.1/">
 <defs id="defs11039">
  <clipPath id="clipPath3009" clipPathUnits="userSpaceOnUse">
   <path id="path3011" style="opacity:.15;fill:#fff" d="m-2 956.36h-96v33.562l96 25.687v-59.25z"/>
  </clipPath>
  <clipPath id="clipPath4504">
   <rect id="rect4506" style="fill:#f0f" rx="6" ry="6" height="84" width="84" y="6" x="6"/>
  </clipPath>
  <linearGradient id="linearGradient3762-0">
   <stop id="stop3764-5" style="stop-color:#ffda56" offset="0"/>
   <stop id="stop3770-3" style="stop-color:#ffda56" offset=".64062"/>
   <stop id="stop3766-9" style="stop-color:#ffda56;stop-opacity:0" offset="1"/>
  </linearGradient>
  <clipPath id="clipPath4303">
   <path id="path4305" d="m96 32a32 32 0 1 1 -64 0 32 32 0 1 1 64 0z" style="color:#000000;fill:#f00" transform="matrix(.84375 0 0 .84375 -6 14)"/>
  </clipPath>
  <filter id="filter4421" width="1.235" y="-.12003" x="-.11752" height="1.2401" color-interpolation-filters="sRGB">
   <feGaussianBlur id="feGaussianBlur4423" stdDeviation="0.56854841"/>
  </filter>
  <filter id="filter4425" width="1.2709" y="-.12851" x="-.13547" height="1.257" color-interpolation-filters="sRGB">
   <feGaussianBlur id="feGaussianBlur4427" stdDeviation="0.56854841"/>
  </filter>
  <filter id="filter4429" color-interpolation-filters="sRGB">
   <feGaussianBlur id="feGaussianBlur4431" stdDeviation="0.56854841"/>
  </filter>
  <filter id="filter4433" width="1.1375" y="-.11615" x="-.068762" height="1.2323" color-interpolation-filters="sRGB">
   <feGaussianBlur id="feGaussianBlur4435" stdDeviation="0.56854841"/>
  </filter>
  <filter id="filter4437" color-interpolation-filters="sRGB">
   <feGaussianBlur id="feGaussianBlur4439" stdDeviation="0.56854841"/>
  </filter>
  <filter id="filter4441" color-interpolation-filters="sRGB">
   <feGaussianBlur id="feGaussianBlur4443" stdDeviation="0.56854841"/>
  </filter>
  <filter id="filter4445" color-interpolation-filters="sRGB">
   <feGaussianBlur id="feGaussianBlur4447" stdDeviation="0.56854841"/>
  </filter>
  <filter id="filter4449" width="1.1461" y="-.10019" x="-.073075" height="1.2004" color-interpolation-filters="sRGB">
   <feGaussianBlur id="feGaussianBlur4451" stdDeviation="0.56854841"/>
  </filter>
  <filter id="filter4453" color-interpolation-filters="sRGB">
   <feGaussianBlur id="feGaussianBlur4455" stdDeviation="0.56854841"/>
  </filter>
  <filter id="filter4457" color-interpolation-filters="sRGB">
   <feGaussianBlur id="feGaussianBlur4459" stdDeviation="0.56854841"/>
  </filter>
  <filter id="filter4461" width="1.2069" y="-.21037" x="-.10344" height="1.4207" color-interpolation-filters="sRGB">
   <feGaussianBlur id="feGaussianBlur4463" stdDeviation="0.5685484"/>
  </filter>
  <filter id="filter4465" width="1.1421" y="-.11024" x="-.071041" height="1.2205" color-interpolation-filters="sRGB">
   <feGaussianBlur id="feGaussianBlur4467" stdDeviation="0.5685484"/>
  </filter>
  <filter id="filter4469" color-interpolation-filters="sRGB">
   <feGaussianBlur id="feGaussianBlur4471" stdDeviation="0.5685484"/>
  </filter>
  <filter id="filter4473" width="1.1401" y="-.12051" x="-.070045" height="1.241" color-interpolation-filters="sRGB">
   <feGaussianBlur id="feGaussianBlur4475" stdDeviation="0.56854841"/>
  </filter>
  <linearGradient id="linearGradient4011" x1="48" gradientUnits="userSpaceOnUse" y1="962.62" gradientTransform="matrix(1.15 0 0 1.15 -7.1999 -150.65)" x2="48" y2="1046.1">
   <stop id="stop3702" style="stop-color:#2a76bd" offset="0"/>
   <stop id="stop3704" style="stop-color:#68b0f4" offset="1"/>
  </linearGradient>
  <radialGradient id="radialGradient4041" xlink:href="#linearGradient3762-0" gradientUnits="userSpaceOnUse" cy="31.114" cx="65.325" gradientTransform="matrix(1 0 0 1.0084 -18 12.737)" r="52.047"/>
  <radialGradient id="radialGradient4043" cx="64" xlink:href="#linearGradient3762-0" gradientUnits="userSpaceOnUse" cy="32" r="40"/>
  <radialGradient id="radialGradient4045" gradientUnits="userSpaceOnUse" cy="32" cx="64" r="32">
   <stop id="stop3754-6" style="stop-color:#ffdc4d" offset="0"/>
   <stop id="stop3756-2" style="stop-color:#ffe041" offset=".77642"/>
   <stop id="stop3758-7" style="stop-color:#fffda4;stop-opacity:0" offset="1"/>
  </radialGradient>
  <radialGradient id="radialGradient4047" gradientUnits="userSpaceOnUse" cy="43.852" cx="52.148" r="32">
   <stop id="stop3701-8" style="stop-color:#fff894" offset="0"/>
   <stop id="stop4084" style="stop-color:#ffc822" offset=".8"/>
   <stop id="stop3703-4" style="stop-color:#ffb400" offset="1"/>
  </radialGradient>
  <radialGradient id="radialGradient4049" gradientUnits="userSpaceOnUse" cy="44.185" cx="57.034" gradientTransform="matrix(1 0 0 1.069 0 -3.0472)" r="10.81">
   <stop id="stop4273" style="stop-color:#f60" offset="0"/>
   <stop id="stop4275" style="stop-color:#f60;stop-opacity:0" offset="1"/>
  </radialGradient>
  <linearGradient id="linearGradient4057" y2="55.536" gradientUnits="userSpaceOnUse" y1="-.90906" x2="64.996" x1="64.996">
   <stop id="stop4092" style="stop-color:#fff" offset="0"/>
   <stop id="stop4094" style="stop-color:#fff;stop-opacity:0" offset="1"/>
  </linearGradient>
 </defs>
 <metadata id="metadata11042">
  <rdf:RDF>
   <cc:Work rdf:about="">
    <dc:format>image/svg+xml</dc:format>
    <dc:type rdf:resource="http://purl.org/dc/dcmitype/StillImage"/>
    <dc:title/>
   </cc:Work>
  </rdf:RDF>
 </metadata>
 <g id="layer1" transform="translate(0 -956.36)">
  <rect id="rect3867" style="fill:url(#linearGradient4011)" rx="25" ry="25" height="92" width="92" y="958.36" x="2"/>
  <g id="g3182" transform="matrix(1.0952 0 0 1.0952 -98.768 952.04)">
   <g id="g4013" transform="matrix(.81522 0 0 .81522 94.875 8.639)">
    <g id="g4477" clip-path="url(#clipPath4504)">
     <path id="path3663" style="opacity:.3;color:#000000;fill:url(#radialGradient4041)" d="m72.833-1.4758-14.337 31.045 27.385-20.478-23.228 25.094 32.373-11.013-29.846 16.689 34.192-0.471-33.543 6.649 32.664 10.119-33.956-4.042 27.939 19.717-31.045-14.337 20.478 27.385-25.094-23.228 8.258 26.272-13.934-23.745-0.513 32.42-5.665-31.771-8.741 28.334 2.664-29.626-15.978 20.264 10.598-23.37-31.518 25.201 27.361-29.817-32.373 11.013 29.846-16.689-24.942-0.71 24.293-5.468-30.893-9.528 32.185 3.451-20.46-14.01 23.566 8.63-20.478-27.385 25.094 23.228-11.013-32.373 16.689 29.846-0.471-34.192 6.649 33.543 10.119-32.664-4.042 33.956 19.717-27.939z"/>
     <path id="path3760" style="opacity:.8;color:#000000;fill:url(#radialGradient4043)" transform="translate(-16 12)" d="m98.641 52-14.654-6.005 10.655 11.717-13.389-8.459 8.459 13.389-11.717-10.655 6.005 14.654-9.688-12.527 3.369 15.474-7.366-14.019 0.631 15.823-4.819-15.085-2.127 15.693-2.127-15.693-4.819 15.085 0.631-15.823-7.366 14.019 3.369-15.474-9.688 12.527 6.005-14.654-11.717 10.655 8.459-13.389-13.389 8.459 10.655-11.717-14.654 6.005 12.527-9.688-15.474 3.369 14.019-7.366-15.823 0.631 15.085-4.819-15.693-2.127 15.693-2.127-15.085-4.819 15.823 0.631-14.019-7.366 15.474 3.369-12.527-9.688 14.654 6.005-10.655-11.716 13.389 8.458-8.459-13.389 11.717 10.655-6.005-14.654 9.688 12.527-3.369-15.474 7.366 14.019-0.631-15.823 4.819 15.085 2.127-15.693 2.127 15.693 4.819-15.085-0.631 15.823 7.366-14.019-3.369 15.474 9.688-12.527-6.005 14.654 11.717-10.655-8.459 13.389 13.389-8.4585-10.655 11.716 14.654-6.004-12.527 9.688 15.476-3.369-14.021 7.366 15.821-0.631-15.083 4.819 15.693 2.127-15.693 2.127 15.083 4.819-15.821-0.631 14.021 7.366-15.476-3.369z"/>
     <path id="path3651" style="color:#000000;fill:url(#radialGradient4045)" transform="matrix(1.0312 0 0 1.0312 -18 10)" d="m96 32a32 32 0 1 1 -64 0 32 32 0 1 1 64 0z"/>
     <path id="path3695" style="color:#000000;fill:url(#radialGradient4047)" transform="matrix(.84375 0 0 .84375 -6 16)" d="m96 32a32 32 0 1 1 -64 0 32 32 0 1 1 64 0z"/>
     <path id="path3695-8" style="color:#000000;fill:#ffc000" d="m48 16c-14.912 0-27 12.088-27 27s12.088 27 27 27 27-12.088 27-27-12.088-27-27-27zm0 1c14.359 0 26 11.641 26 26s-11.641 26-26 26-26-11.641-26-26 11.641-26 26-26z"/>
     <g id="g4295" clip-path="url(#clipPath4303)" transform="translate(0,2)">
      <path id="path4269" style="opacity:.3;color:#000000;fill:url(#radialGradient4049)" transform="matrix(1.3218 0 0 1.3218 -14.876 -17.94)" d="m67.844 44.185a10.81 11.556 0 1 1 -21.621 0 10.81 11.556 0 1 1 21.621 0z"/>
      <path id="path4279" style="opacity:.3;color:#000000;fill:url(#radialGradient4049)" transform="matrix(1.0423 0 0 1.0423 -26.557 -5.5868)" d="m67.844 44.185a10.81 11.556 0 1 1 -21.621 0 10.81 11.556 0 1 1 21.621 0z"/>
      <path id="path4283" style="opacity:.3;color:#000000;fill:url(#radialGradient4049)" transform="matrix(1.4509 0 0 1.4509 -43.952 -36.067)" d="m67.844 44.185a10.81 11.556 0 1 1 -21.621 0 10.81 11.556 0 1 1 21.621 0z"/>
      <path id="path4287" style="opacity:.3;color:#000000;fill:url(#radialGradient4049)" transform="matrix(1.9221 0 0 1.6982 -48.091 -49.355)" d="m67.844 44.185a10.81 11.556 0 1 1 -21.621 0 10.81 11.556 0 1 1 21.621 0z"/>
     </g>
     <path id="path4086" style="opacity:.5;color:#000000;fill:url(#linearGradient4057)" transform="matrix(.58747 0 0 .37002 10.402 18.734)" d="m96 32a32 32 0 1 1 -64 0 32 32 0 1 1 64 0z"/>
     <path id="path4337" style="opacity:.07;filter:url(#filter4421);fill:#f60" d="m24.81 39.351c-0.48644 1.5237 0.0317 3.8322 1.8734 3.5386 1.0774 2.3671-3.4187 3.0283-2.4565 5.5284 0.39069 1.4186 2.4627 1.2096 1.5423-0.44499-0.27464-2.1005 2.9952-2.623 2.9997-0.28195 0.91369 1.6127 3.71 2.7178 4.9141 0.84697 0.85384-1.4404-3.4044-3.4838-0.65032-4.1775 2.548 0.77036 3.5376-2.508 1.7883-4.0171-1.2512-1.4606-2.7918 0.09474-3.1004 1.3859-2.1249 1.4956-4.4407-0.98157-4.1928-3.0686-0.75242-0.95344-2.4912-0.48632-2.7178 0.69026z"/>
     <path id="path4339" style="opacity:.07;filter:url(#filter4425);fill:#f60" d="m41.211 51.528c-1.1403-1.5758-2.3142-4.7414 0.0246-5.7916 2.3942-0.6691 3.112 2.3026 4.93 2.9444 2.0672 0.09268 2.8987 1.7057 2.57 3.5446 0.31242 1.4266 2.5284 3.158 0.0925 3.9475-1.6775 0.43783-3.8348-0.88801-3.6021-2.7638 0.04456-2.1216-2.2411-2.2051-3.5854-1.5065l-0.24715-0.1438-0.18246-0.23077z"/>
     <path id="path4341" style="opacity:.07;filter:url(#filter4429);fill:#f60" d="m31.271 47.552c2.0676-0.4704 1.5928-3.4727 3.4445-4.142 2.7459 0.54445 1.7901 4.1632 1.6408 6.1658 1.332 1.9684 5.7867 0.4749 5.5454 3.7003-0.42877 2.6355 1.508 4.7387 1.826 7.1091-0.60003 2.6435-4.9458 2.9579-5.5196 0.11003-1.1428-2.1695 3.3334-3.8415 0.38219-5.4696-1.8897-0.83289-4.5492-2.1149-6.029 0.08389-1.4733 1.9468-4.4451-0.12929-4.1283-2.1789 0.29698-2.1872 5.1204-0.81226 3.9456-3.5521-0.34871-0.56815-1.7974-0.9851-1.1075-1.8267z"/>
     <path id="path4343" style="opacity:.07;filter:url(#filter4433);fill:#f60" d="m34.005 59.481c-1.9162-0.98572-2.8005-4.9222 0.05414-5.1531 2.1846-0.07762 2.9497 2.5892 2.6322 4.3595-0.25837 2.6803 3.6841 2.9829 5.1689 1.363 2.2486-0.1592 4.1713 3.201 6.3801 1.1664 1.0062-0.75363 2.7794-3.5887 3.8333-1.924-0.65567 1.6798-3.7719 2.2218-2.832 4.5608-0.29362 2.2843-3.3065 2.6919-5.0093 1.7422-1.5317-1.0042-3.3235-4.116-5.2419-1.9056-1.7956 1.4246-4.8942-0.2323-4.5964-2.5351-0.10832-0.56242-0.20247-1.1307-0.38897-1.6741z"/>
     <path id="path4345" style="opacity:.07;filter:url(#filter4437);fill:#f60" d="m57.862 41.588c1.6916-0.3866 3.76-1.1037 5.2527 0.17694 1.6227 1.2104 0.94717 3.4383 1.4656 5.1202 1.0754 1.5788 2.8681 2.6301 3.3903 4.5725 0.5495 1.2124 1.0054 3.0547-0.32076 3.9365-1.6793 0.73423-4.2024 0.78641-5.2021-1.0391-1.2955-1.3245-1.3877-3.3926-2.4846-4.7369-1.8798-0.59972-3.9437-0.11482-5.8556-0.7948-1.655-0.18308-3.1725-1.7224-2.7222-3.4462 0.57506-2.2933 3.031-3.7321 5.3115-3.6481 0.3905-0.02534 0.78214-0.05803 1.1653-0.14112z"/>
     <path id="path4347" style="opacity:.07;filter:url(#filter4441);fill:#f60" d="m34.875 37.544c1.6916-0.3866 3.76-1.1037 5.2527 0.17694 1.6227 1.2104 0.94717 3.4383 1.4656 5.1202 1.0754 1.5788 2.8681 2.6301 3.3903 4.5725 0.5495 1.2124 1.0054 3.0547-0.32076 3.9365-1.6793 0.73423-4.2024 0.78641-5.2021-1.0391-1.2955-1.3245-1.3877-3.3926-2.4846-4.7369-1.8798-0.59972-3.9437-0.11482-5.8556-0.7948-1.655-0.18307-3.1725-1.7224-2.7222-3.4462 0.57506-2.2933 3.031-3.7321 5.3115-3.6481 0.3905-0.02534 0.78214-0.05803 1.1653-0.14112z"/>
     <path id="path4349" d="m55.418 42.073c-1.9162-0.98572-2.8005-4.9222 0.05414-5.1531 2.1846-0.07762 2.9497 2.5892 2.6322 4.3595-0.25837 2.6803 3.6841 2.9829 5.1689 1.363 2.2486-0.1592 4.1713 3.201 6.3801 1.1664 1.0062-0.75363 2.7794-3.5887 3.8333-1.924-0.65567 1.6798-3.7719 2.2218-2.832 4.5608-0.29362 2.2843-3.3065 2.6919-5.0093 1.7422-1.5317-1.0042-3.3235-4.116-5.2419-1.9056-1.7956 1.4246-4.8942-0.2323-4.5964-2.5351-0.10832-0.56242-0.20247-1.1307-0.38897-1.6741z" style="opacity:.07;filter:url(#filter4445);fill:#f60" transform="matrix(-.43764 .89915 -.89915 -.43764 125.1 15.56)"/>
     <path id="path4351" d="m63.496 27.343c1.6916-0.3866 3.76-1.1037 5.2527 0.17694 1.6227 1.2104 0.94717 3.4383 1.4656 5.1202 1.0754 1.5788 2.8681 2.6301 3.3903 4.5725 0.5495 1.2124 1.0054 3.0547-0.32076 3.9365-1.6793 0.73423-4.2024 0.78641-5.2021-1.0391-1.2955-1.3245-1.3877-3.3926-2.4846-4.7369-1.8798-0.59972-3.9437-0.11482-5.8556-0.7948-1.655-0.18307-3.1725-1.7224-2.7222-3.4462 0.57506-2.2933 3.031-3.7321 5.3115-3.6481 0.3905-0.02534 0.78214-0.05803 1.1653-0.14112z" style="opacity:.07;filter:url(#filter4449);fill:#f60" transform="matrix(-.97171 .23619 -.23619 -.97171 124.6 78.075)"/>
     <path id="path4353" style="opacity:.07;filter:url(#filter4453);fill:#f60" d="m46.679 46.806c2.0676-0.4704 1.5928-3.4727 3.4445-4.142 2.7459 0.54445 1.7901 4.1632 1.6408 6.1658 1.332 1.9684 5.7867 0.4749 5.5454 3.7003-0.42877 2.6355 1.508 4.7387 1.826 7.1091-0.60003 2.6435-4.9458 2.9579-5.5196 0.11003-1.1428-2.1695 3.3334-3.8415 0.38219-5.4696-1.8897-0.83289-4.5492-2.1149-6.029 0.08389-1.4733 1.9468-4.4451-0.12929-4.1283-2.1789 0.29698-2.1872 5.1204-0.81226 3.9456-3.5521-0.34871-0.56815-1.7974-0.9851-1.1075-1.8267z"/>
     <path id="path4355" d="m35.911 43.497c1.6916-0.3866 3.76-1.1037 5.2527 0.17694 1.6227 1.2104 0.94717 3.4383 1.4656 5.1202 1.0754 1.5788 2.8681 2.6301 3.3903 4.5725 0.5495 1.2124 1.0054 3.0547-0.32076 3.9365-1.6793 0.73423-4.2024 0.78641-5.2021-1.0391-1.2955-1.3245-1.3877-3.3926-2.4846-4.7369-1.8798-0.59972-3.9437-0.11482-5.8556-0.7948-1.655-0.18307-3.1725-1.7224-2.7222-3.4462 0.57506-2.2933 3.031-3.7321 5.3115-3.6481 0.3905-0.02534 0.78214-0.05803 1.1653-0.14112z" style="opacity:.07;filter:url(#filter4457);fill:#f60" transform="matrix(-.97412 -.22601 .22601 -.97412 56.552 110)"/>
     <path id="path4357" d="m57.655 36.606c-1.1403-1.5758-2.3142-4.7414 0.0246-5.7916 2.3942-0.6691 3.112 2.3026 4.93 2.9444 2.0672 0.09268 2.8987 1.7057 2.57 3.5446 0.31242 1.4266 2.5284 3.158 0.0925 3.9475-1.6775 0.43783-3.8348-0.88801-3.6021-2.7638 0.04456-2.1216-2.2411-2.2051-3.5854-1.5065l-0.24715-0.1438-0.18246-0.23077z" style="opacity:.07;filter:url(#filter4461);fill:#f60" transform="matrix(-.67461 .73817 -.73817 -.67461 106.62 34.56)"/>
     <path id="path4359" d="m47.714 32.629c2.0676-0.4704 1.5928-3.4727 3.4445-4.142 2.7459 0.54445 1.7901 4.1632 1.6408 6.1658 1.332 1.9684 5.7867 0.4749 5.5454 3.7003-0.42877 2.6355 1.508 4.7387 1.826 7.1091-0.60003 2.6435-4.9458 2.9579-5.5196 0.11003-1.1428-2.1695 3.3334-3.8415 0.38219-5.4696-1.8897-0.83289-4.5492-2.1149-6.029 0.08389-1.4733 1.9468-4.4451-0.12929-4.1283-2.1789 0.29698-2.1872 5.1204-0.81226 3.9456-3.5521-0.349-0.567-1.798-0.984-1.108-1.826z" style="opacity:.07;filter:url(#filter4465);fill:#f60" transform="matrix(-.67461 .73817 -.73817 -.67461 106.62 34.56)"/>
     <path id="path4361" d="m50.448 44.558c-1.9162-0.98572-2.8005-4.9222 0.05414-5.1531 2.1846-0.07762 2.9497 2.5892 2.6322 4.3595-0.25837 2.6803 3.6841 2.9829 5.1689 1.363 2.2486-0.1592 4.1713 3.201 6.3801 1.1664 1.0062-0.75363 2.7794-3.5887 3.8333-1.924-0.65567 1.6798-3.7719 2.2218-2.832 4.5608-0.29362 2.2843-3.3065 2.6919-5.0093 1.7422-1.5317-1.0042-3.3235-4.116-5.2419-1.9056-1.7956 1.4246-4.8942-0.2323-4.5964-2.5351-0.10832-0.56242-0.20247-1.1307-0.38897-1.6741z" style="opacity:.07;filter:url(#filter4469);fill:#f60" transform="matrix(-.67461 .73817 -.73817 -.67461 106.62 34.56)"/>
     <path id="path4363" d="m35.911 43.497c1.6916-0.3866 3.76-1.1037 5.2527 0.17694 1.6227 1.2104 0.94717 3.4383 1.4656 5.1202 1.0754 1.5788 2.8681 2.6301 3.3903 4.5725 0.5495 1.2124 1.0054 3.0547-0.32076 3.9365-1.6793 0.73423-4.2024 0.78641-5.2021-1.0391-1.2955-1.3245-1.3877-3.3926-2.4846-4.7369-1.8798-0.59972-3.9437-0.11482-5.8556-0.7948-1.655-0.18307-3.1725-1.7224-2.7222-3.4462 0.57506-2.2933 3.031-3.7321 5.3115-3.6481 0.3905-0.02534 0.78214-0.05803 1.1653-0.14112z" style="opacity:.07;filter:url(#filter4473);fill:#f60" transform="matrix(.82399 -.56660 .56660 .82399 -12.806 24.303)"/>
    </g>
   </g>
  </g>
  <rect id="rect3003" style="opacity:.15;fill:#fff" clip-path="url(#clipPath3009)" rx="25" ry="25" transform="translate(98)" width="92" y="958.36" x="-96" height="92"/>
 </g>
</svg>
