<?xml version="1.0" encoding="UTF-8" standalone="no"?>
<!-- Created with Inkscape (http://www.inkscape.org/) -->
<svg id="svg2" xmlns:rdf="http://www.w3.org/1999/02/22-rdf-syntax-ns#" xmlns="http://www.w3.org/2000/svg" height="16" width="16" version="1.0" xmlns:cc="http://creativecommons.org/ns#" xmlns:xlink="http://www.w3.org/1999/xlink" xmlns:dc="http://purl.org/dc/elements/1.1/">
 <metadata id="metadata7">
  <rdf:RDF>
   <cc:Work rdf:about="">
    <dc:format>image/svg+xml</dc:format>
    <dc:type rdf:resource="http://purl.org/dc/dcmitype/StillImage"/>
    <dc:title/>
   </cc:Work>
  </rdf:RDF>
 </metadata>
 <g id="layer1">
  <path id="path4792" style="opacity:.45;color:#000000;fill:#bebebe" d="m14 8a6 6 0 1 1 -12 0 6 6 0 1 1 12 0z"/>
  <path id="path2931" style="color:#000000;fill:#bebebe" d="m8 2c-3.3137 0-6 2.6863-6 6s2.6863 6 6 6c2.6924 0 4.9725-1.7629 5.7321-4.2054-0.86458 1.0062-2.1586 1.6339-3.5893 1.6339-2.6036 0-4.7143-2.1107-4.7143-4.7143 0-2.2579 1.6036-4.119 3.7232-4.5804-0.3744-0.0731-0.7556-0.1338-1.1516-0.1338z"/>
 </g>
</svg>
