<?xml version="1.0" encoding="UTF-8" standalone="no"?>
<!-- Created with Inkscape (http://www.inkscape.org/) -->
<svg id="svg11037" xmlns:rdf="http://www.w3.org/1999/02/22-rdf-syntax-ns#" xmlns="http://www.w3.org/2000/svg" height="96" width="96" version="1.1" xmlns:cc="http://creativecommons.org/ns#" xmlns:xlink="http://www.w3.org/1999/xlink" xmlns:dc="http://purl.org/dc/elements/1.1/">
 <defs id="defs11039">
  <linearGradient id="linearGradient11642" x1="48" gradientUnits="userSpaceOnUse" x2="48" gradientTransform="matrix(1.15 0 0 1.15 -7.1999 -150.65)" y1="962.62" y2="1046.1">
   <stop id="stop3702" style="stop-color:#e6e6e6" offset="0"/>
   <stop id="stop3704" style="stop-color:#f5f5f5" offset="1"/>
  </linearGradient>
  <clipPath id="clipPath3009" clipPathUnits="userSpaceOnUse">
   <path id="path3011" style="opacity:.15;fill:#fff" d="m-2 956.36h-96v33.562l96 25.687v-59.25z"/>
  </clipPath>
 </defs>
 <metadata id="metadata11042">
  <rdf:RDF>
   <cc:Work rdf:about="">
    <dc:format>image/svg+xml</dc:format>
    <dc:type rdf:resource="http://purl.org/dc/dcmitype/StillImage"/>
    <dc:title/>
   </cc:Work>
  </rdf:RDF>
 </metadata>
 <g id="layer1" transform="translate(0 -956.36)">
  <rect id="rect3867" style="fill:url(#linearGradient11642)" rx="25" ry="25" height="92" width="92" y="958.36" x="2"/>
  <g id="layer4" transform="translate(1.1111e-7 956.36)">
   <path id="path3764" style="opacity:.5;color:#000000;fill:#4ca31c" d="m48 16c-17.673 0-32 14.327-32 32s14.327 32 32 32h42v-6h-42c-14.359 0-26-11.641-26-26s11.641-26 26-26v-6z"/>
   <path id="path3760" style="opacity:.75;color:#000000;fill:#4ca31c" d="m48 24c-13.255 0-24 10.745-24 24s10.745 24 24 24h42v-6h-42c-9.9411 0-18-8.0589-18-18s8.0589-18 18-18c2.4155 0 4.7079 0.48077 6.8125 1.3438l2.2812-5.5625c-2.887-1.184-5.972-1.782-9.093-1.782z"/>
   <path id="path3756" style="color:#000000;fill:#4ca31c" d="m48 32c-8.8366 0-16 7.1634-16 16s7.1634 16 16 16h42v-6h-42c-5.5228 0-10-4.4772-10-10s4.4772-10 10-10c2.7614 0 5.2529 1.1279 7.0625 2.9375l4.25-4.25c-3-3.001-7.069-4.688-11.312-4.688z"/>
   <path id="path3804" style="opacity:.15;color:#000000;fill:#2c5e10" d="m48 16c-17.673 0-32 14.327-32 32s14.327 32 32 32h42v-1h-0.96875v0.03125h-41.031c-17.154 0-31.031-13.877-31.031-31.031 0-16.822 13.369-30.414 30.062-30.938v4.0625c-14.421 0.5213-26 12.328-26 26.875 0 14.878 12.09 26.969 26.969 26.969h41.031v0.03125l0.969 0.001v-1h-42c-14.359 0-26-11.641-26-26s11.641-26 26-26v-6zm0 8c-13.255 0-24 10.745-24 24s10.745 24 24 24h42v-1h-0.96875v0.03125h-41.031c-12.736 0-23.031-10.295-23.031-23.031s10.295-23.031 23.031-23.031c2.6797 0 5.3014 0.49814 7.8125 1.4062l-1.562 3.813c-1.963-0.691-4.05-1.157-6.25-1.157-10.46 0-18.969 8.509-18.969 18.969s8.5087 18.969 18.969 18.969h41.031v0.03125h0.969v-1h-42c-9.9411 0-18-8.0589-18-18s8.0589-18 18-18c2.4155 0 4.7079 0.48077 6.8125 1.3438l2.2812-5.5625c-2.887-1.184-5.972-1.782-9.093-1.782zm0 8c-8.8366 0-16 7.1634-16 16s7.1634 16 16 16h42v-1h-0.96875v0.03125h-41.031c-8.3176 0-15.031-6.7136-15.031-15.031 0-8.3176 6.7136-15.031 15.031-15.031 3.6593 0 7.1404 1.383 9.875 3.7812l-2.9375 2.9375c-1.9-1.589-4.27-2.657-6.938-2.657-6.0418 0-10.969 4.927-10.969 10.969 0 6.0418 4.927 10.969 10.969 10.969h41.031v0.03125h0.969v-1h-42c-5.5228 0-10-4.4772-10-10s4.4772-10 10-10c2.7614 0 5.2529 1.1279 7.0625 2.9375l4.25-4.25c-3-3.001-7.069-4.688-11.312-4.688z"/>
   <path id="path3794" style="opacity:.2;color:#000000;fill:#2b5c10" d="m48 16c-17.673 0-32 14.327-32 32 0 0.16667-0.0025 0.33394 0 0.5 0.267-17.443 14.494-31.5 32-31.5v-1zm0 8c-13.255 0-24 10.745-24 24 0 0.16558-0.0033 0.33522 0 0.5 0.264-13.026 10.911-23.5 24-23.5 2.9984 0 5.9608 0.56355 8.75 1.6562l0.34375-0.875c-2.888-1.183-5.973-1.781-9.094-1.781zm0 8c-8.8366 0-16 7.1634-16 16 0 0.16998 0.02599 0.3313 0.03125 0.5 0.269-8.601 7.302-15.5 15.969-15.5 4.0076 0 7.8379 1.5239 10.781 4.2188l0.531-0.531c-3-3.001-7.069-4.688-11.312-4.688zm-26 16.5c-0.0031 0.16613 0 0.33312 0 0.5 0 14.359 11.641 26 26 26h42v-1h-42c-14.193 0-25.734-11.371-26-25.5zm8.0312 0c-0.004 0.167-0.031 0.331-0.031 0.5 0 9.9411 8.0589 18 18 18h42v-1h-42c-9.773 0-17.702-7.792-17.969-17.5zm8 0c-0.008 0.165-0.031 0.333-0.031 0.5 0 5.5228 4.4772 10 10 10h42v-1h-42c-5.3555 0-9.7087-4.209-9.9688-9.5z"/>
   <path id="path3799" style="opacity:.6;color:#000000;fill:#fff" d="m48 22c-14.359 0-26 11.641-26 26 0 0.16688-0.0031 0.33387 0 0.5 0.266-14.129 11.807-25.5 26-25.5v-1zm8.75 4.6562-1.9375 4.6875c-2.104-0.863-4.396-1.344-6.812-1.344-9.9411 0-18 8.0589-18 18 0 0.16859 0.02664 0.33252 0.03125 0.5 0.267-9.708 8.196-17.5 17.969-17.5 2.4155 0 4.7079 0.48077 6.8125 1.3438l2.2812-5.5625c-0.112-0.047-0.229-0.081-0.343-0.126zm2.0312 10.562-3.7188 3.7188c-1.809-1.809-4.301-2.937-7.062-2.937-5.5228 0-10 4.4772-10 10 0 0.16738 0.02312 0.33464 0.03125 0.5 0.26-5.291 4.614-9.5 9.969-9.5 2.7614 0 5.2529 1.1279 7.0625 2.9375l4.25-4.25c-0.166-0.167-0.358-0.311-0.531-0.469zm-42.781 11.282c-0.0025 0.16606 0 0.33333 0 0.5 0 17.673 14.327 32 32 32h42v-1h-42c-17.506 0-31.733-14.057-32-31.5zm8 0c-0.0033 0.16478 0 0.33442 0 0.5 0 13.255 10.745 24 24 24h42v-1h-42c-13.089 0-23.736-10.474-24-23.5zm8.0312 0c-0.005 0.169-0.031 0.33-0.031 0.5 0 8.8366 7.1634 16 16 16h42v-1h-42c-8.667 0-15.7-6.899-15.969-15.5z"/>
  </g>
  <rect id="rect3003" style="opacity:.15;fill:#fff" clip-path="url(#clipPath3009)" rx="25" ry="25" transform="translate(98 3.8281e-7)" width="92" y="958.36" x="-96" height="92"/>
 </g>
</svg>
