<?xml version="1.0" encoding="UTF-8" standalone="no"?>
<!-- Created with Inkscape (http://www.inkscape.org/) -->
<svg id="svg11037" xmlns:rdf="http://www.w3.org/1999/02/22-rdf-syntax-ns#" xmlns="http://www.w3.org/2000/svg" height="96" width="96" version="1.1" xmlns:cc="http://creativecommons.org/ns#" xmlns:xlink="http://www.w3.org/1999/xlink" xmlns:dc="http://purl.org/dc/elements/1.1/">
 <defs id="defs11039">
  <radialGradient id="radialGradient3197" gradientUnits="userSpaceOnUse" cy="90" cx="90" gradientTransform="matrix(0 -1.085 2 0 -90 187.65)" r="42">
   <stop id="stop3702" style="stop-color:#b4b4b4" offset="0"/>
   <stop id="stop3704" style="stop-color:#dcdcdc" offset="1"/>
  </radialGradient>
  <linearGradient id="linearGradient3234" x1="6" xlink:href="#linearGradient3236" gradientUnits="userSpaceOnUse" x2="24" y1="73" y2="73"/>
  <linearGradient id="linearGradient3236">
   <stop id="stop3238" style="stop-color:#818181" offset="0"/>
   <stop id="stop3242" style="stop-color:#f9f9f9" offset=".2"/>
   <stop id="stop3240" style="stop-color:#dcdcdc;stop-opacity:0" offset="1"/>
  </linearGradient>
  <linearGradient id="linearGradient3246" x1="6" xlink:href="#linearGradient3236" gradientUnits="userSpaceOnUse" y1="73" gradientTransform="matrix(-1,0,0,1,96,0)" x2="24" y2="73"/>
  <linearGradient id="linearGradient3205" y2="5.8332" gradientUnits="userSpaceOnUse" y1="65.59" x2="38.748" x1="38.748">
   <stop id="stop3201" style="stop-color:#dcdcdc" offset="0"/>
   <stop id="stop3203" style="stop-color:#fafafa" offset="1"/>
  </linearGradient>
  <linearGradient id="linearGradient3090" y2="27.429" gradientUnits="userSpaceOnUse" x2="87.5" y1="74" x1="19.036">
   <stop id="stop3739" style="stop-color:#fff" offset="0"/>
   <stop id="stop3741" style="stop-color:#fff;stop-opacity:0" offset="1"/>
  </linearGradient>
  <clipPath id="clipPath3072" clipPathUnits="userSpaceOnUse">
   <rect id="rect3074" style="fill:url(#linearGradient3076)" rx="22.826" ry="22.826" height="84" width="84" y="6" x="6"/>
  </clipPath>
  <linearGradient id="linearGradient3076" x1="48" gradientUnits="userSpaceOnUse" y1="962.62" gradientTransform="matrix(1.05 0 0 1.05 -2.4 -1006.6)" x2="48" y2="1046.1">
   <stop id="stop3797" style="stop-color:#13a6fd" offset="0"/>
   <stop id="stop3799" style="stop-color:#2975b6" offset="1"/>
  </linearGradient>
  <clipPath id="clipPath3009" clipPathUnits="userSpaceOnUse">
   <path id="path3011" style="opacity:.15;fill:#fff" d="m-2 956.36h-96v33.562l96 25.687v-59.25z"/>
  </clipPath>
 </defs>
 <metadata id="metadata11042">
  <rdf:RDF>
   <cc:Work rdf:about="">
    <dc:format>image/svg+xml</dc:format>
    <dc:type rdf:resource="http://purl.org/dc/dcmitype/StillImage"/>
    <dc:title/>
   </cc:Work>
  </rdf:RDF>
 </metadata>
 <g id="layer1" transform="translate(0 -956.36)">
  <g id="layer1-1" transform="matrix(1.0952 0 0 1.0952 -4.5714 951.79)" clip-path="url(#clipPath3072)">
   <rect id="rect2419" style="fill:url(#radialGradient3197)" rx="6" ry="6" height="84" width="84" y="6" x="6"/>
   <path id="rect3222" style="fill:url(#linearGradient3234)" d="m6 56v28c0 3.324 2.676 6 6 6h12v-34h-18z"/>
   <path id="path3244" style="fill:url(#linearGradient3246)" d="m90 56v28c0 3.324-2.676 6-6 6h-12v-34h18z"/>
   <path id="rect2412" style="opacity:.15" d="m6 82v2c0 3.324 2.676 6 6 6h72c3.324 0 6-2.676 6-6v-2c0 3.324-2.676 6-6 6h-72c-3.324 0-6-2.676-6-6z"/>
   <path id="path3187" style="opacity:.8;fill:#fff" d="m6 78v2c0 3.324 2.676 6 6 6h72c3.324 0 6-2.676 6-6v-2c0 3.324-2.676 6-6 6h-72c-3.324 0-6-2.676-6-6z"/>
   <path id="path3189" style="opacity:.15" d="m6 76v2c0 3.324 2.676 6 6 6h72c3.324 0 6-2.676 6-6v-2c0 3.324-2.676 6-6 6h-72c-3.324 0-6-2.676-6-6z"/>
   <path id="path3191" style="opacity:.8;fill:#fff" d="m6 72v2c0 3.324 2.676 6 6 6h72c3.324 0 6-2.676 6-6v-2c0 3.324-2.676 6-6 6h-72c-3.324 0-6-2.676-6-6z"/>
   <path id="path3193" style="opacity:.15" d="m6 70v2c0 3.324 2.676 6 6 6h72c3.324 0 6-2.676 6-6v-2c0 3.324-2.676 6-6 6h-72c-3.324 0-6-2.676-6-6z"/>
   <rect id="rect3195" style="fill:url(#linearGradient3205)" rx="6" ry="6" height="68" width="84" y="6" x="6"/>
   <path id="rect3207" style="fill:url(#linearGradient3090)" d="m12 6c-3.324 0-6 2.676-6 6v56c0 3.324 2.676 6 6 6h72c3.324 0 6-2.676 6-6v-56c0-3.324-2.676-6-6-6h-72zm0 2h72c2.2458 0 4 1.7542 4 4v56c0 2.2458-1.7542 4-4 4h-72c-2.2458 0-4-1.754-4-4v-56c0-2.2458 1.7542-4 4-4z"/>
  </g>
  <rect id="rect3003" style="opacity:.15;fill:#fff" clip-path="url(#clipPath3009)" rx="25" ry="25" transform="translate(98 3.8281e-7)" width="92" y="958.36" x="-96" height="92"/>
 </g>
</svg>
