<?xml version="1.0" encoding="UTF-8" standalone="no"?>
<!-- Created with Inkscape (http://www.inkscape.org/) -->
<svg id="svg11037" xmlns:rdf="http://www.w3.org/1999/02/22-rdf-syntax-ns#" xmlns="http://www.w3.org/2000/svg" height="96" width="96" version="1.1" xmlns:cc="http://creativecommons.org/ns#" xmlns:xlink="http://www.w3.org/1999/xlink" xmlns:dc="http://purl.org/dc/elements/1.1/">
 <defs id="defs11039">
  <linearGradient id="linearGradient11642" x1="48" gradientUnits="userSpaceOnUse" x2="48" gradientTransform="matrix(1.15 0 0 1.15 -7.1999 -150.65)" y1="962.62" y2="1046.1">
   <stop id="stop3702" style="stop-color:#e6e6e6" offset="0"/>
   <stop id="stop3704" style="stop-color:#f5f5f5" offset="1"/>
  </linearGradient>
  <linearGradient id="linearGradient3987" y2="46.054" gradientUnits="userSpaceOnUse" y1="46.054" x2="59.081" x1="35.061">
   <stop id="stop3983" style="stop-color:#b4b4b4" offset="0"/>
   <stop id="stop3989" style="stop-color:#787878" offset=".5"/>
   <stop id="stop3985" style="stop-color:#b4b4b4" offset="1"/>
  </linearGradient>
  <clipPath id="clipPath4009">
   <path id="path4011" d="m67.428 45.745a20.203 20.203 0 1 1 -40.406 0 20.203 20.203 0 1 1 40.406 0z" style="fill:#f00" transform="matrix(1.4146 -.81671 .81671 1.4146 -56.163 21.859)"/>
  </clipPath>
  <filter id="filter4021" width="1.172" y="-.10866" x="-.085979" height="1.2173" color-interpolation-filters="sRGB">
   <feGaussianBlur id="feGaussianBlur4023" stdDeviation="2.3558157"/>
  </filter>
  <linearGradient id="linearGradient4050" x1="27.022" xlink:href="#linearGradient3737-7" gradientUnits="userSpaceOnUse" x2="94.365" y1="45.745" y2="45.745"/>
  <linearGradient id="linearGradient3737-7">
   <stop id="stop3739-3" style="stop-color:#fff" offset="0"/>
   <stop id="stop3741-05" style="stop-color:#fff;stop-opacity:0" offset="1"/>
  </linearGradient>
  <linearGradient id="linearGradient3960" y2="45.745" gradientUnits="userSpaceOnUse" y1="45.745" x2="67.428" x1="27.022">
   <stop id="stop3956" style="stop-color:#1a1a1a" offset="0"/>
   <stop id="stop3958" style="stop-color:#3a3a3a" offset="1"/>
  </linearGradient>
  <linearGradient id="linearGradient3855" x1="45.541" gradientUnits="userSpaceOnUse" y1="27.99" gradientTransform="matrix(.64024 0 0 .64024 17.765 18.712)" x2="45.541" y2="65.948">
   <stop id="stop4061" style="stop-color:#ccc" offset="0"/>
   <stop id="stop4063" style="stop-color:#969696" offset="1"/>
  </linearGradient>
  <radialGradient id="radialGradient3838" gradientUnits="userSpaceOnUse" cy="45.745" cx="47.225" r="20.203">
   <stop id="stop3842" style="stop-opacity:0" offset="0"/>
   <stop id="stop3844" offset=".82844"/>
   <stop id="stop3846" style="stop-opacity:0" offset="1"/>
  </radialGradient>
  <linearGradient id="linearGradient4126" y2="65.948" gradientUnits="userSpaceOnUse" y1="37.153" x2="45.541" x1="45.541">
   <stop id="stop4122" style="stop-color:#fff" offset="0"/>
   <stop id="stop4124" style="stop-color:#989898" offset="1"/>
  </linearGradient>
  <radialGradient id="radialGradient4046" gradientUnits="userSpaceOnUse" cy="48" cx="48" gradientTransform="matrix(.88889 0 0 -.88889 5.3333 90.667)" r="27">
   <stop id="stop3973" style="stop-opacity:0" offset="0"/>
   <stop id="stop3979" style="stop-opacity:0" offset=".87387"/>
   <stop id="stop3975" offset="1"/>
  </radialGradient>
  <linearGradient id="linearGradient4170" x1="36" gradientUnits="userSpaceOnUse" y1="48" gradientTransform="matrix(.78380 0 0 .78380 10.378 10.378)" x2="60" y2="48">
   <stop id="stop4166" style="stop-color:#fff" offset="0"/>
   <stop id="stop4168" style="stop-color:#fff;stop-opacity:0" offset="1"/>
  </linearGradient>
  <linearGradient id="linearGradient3836" x1="41.469" gradientUnits="userSpaceOnUse" y1="48" gradientTransform="matrix(0 1.4372 -1.4372 0 116.99 -20.986)" x2="54.531" y2="48">
   <stop id="stop3832" style="stop-color:#fff" offset="0"/>
   <stop id="stop3834" style="stop-color:#3a3a3a" offset="1"/>
  </linearGradient>
  <linearGradient id="linearGradient4262" x1="41.713" xlink:href="#linearGradient3737-7" gradientUnits="userSpaceOnUse" y1="36.094" gradientTransform="matrix(.78380 0 0 .78380 10.378 10.378)" x2="53.53" y2="59.906"/>
  <clipPath id="clipPath3009" clipPathUnits="userSpaceOnUse">
   <path id="path3011" style="opacity:.15;fill:#fff" d="m-2 956.36h-96v33.562l96 25.687v-59.25z"/>
  </clipPath>
 </defs>
 <metadata id="metadata11042">
  <rdf:RDF>
   <cc:Work rdf:about="">
    <dc:format>image/svg+xml</dc:format>
    <dc:type rdf:resource="http://purl.org/dc/dcmitype/StillImage"/>
    <dc:title/>
   </cc:Work>
  </rdf:RDF>
 </metadata>
 <g id="layer1" transform="translate(0 -956.36)">
  <rect id="rect3867" style="fill:url(#linearGradient11642)" rx="25" ry="25" height="92" width="92" y="958.36" x="2"/>
  <g id="layer4" transform="translate(0 956.36)">
   <path id="path3918" d="m47.219 24.312c-11.809 0-21.406 9.6302-21.406 21.438 0 11.807 9.5989 21.406 21.406 21.406s21.438-9.5968 21.438-21.406-9.6281-21.438-21.438-21.438z" style="opacity:.05" transform="matrix(1.3715 -.79183 .79183 1.3715 -52.99 23.655)"/>
   <path id="path3914" d="m47.219 24.906c-11.494 0-20.812 9.3513-20.812 20.844 0 11.492 9.3201 20.812 20.812 20.812s20.844-9.3189 20.844-20.812c0-11.494-9.3502-20.844-20.844-20.844z" style="opacity:.15" transform="matrix(1.3715 -.79183 .79183 1.3715 -52.99 23.655)"/>
   <path id="path3908" d="m67.428 45.745a20.203 20.203 0 1 1 -40.406 0 20.203 20.203 0 1 1 40.406 0z" style="opacity:.3" transform="matrix(1.3715 -.79183 .79183 1.3715 -52.99 23.655)"/>
   <path id="path3870" d="m67.428 45.745a20.203 20.203 0 1 1 -40.406 0 20.203 20.203 0 1 1 40.406 0z" style="fill:url(#linearGradient3987)" transform="matrix(1.3639 -.78748 .78748 1.3639 -52.435 22.8)"/>
   <g id="g3999" style="filter:url(#filter4021)" clip-path="url(#clipPath4009)" transform="matrix(.97003 0 0 .97003 1.4385 1.444)">
    <path id="path3993" d="m67.328 47.745a20.203 20.203 0 0 1 -17.951 18.088l-2.1522-20.088z" style="opacity:.2;fill:#fff" transform="matrix(1.3224e-8 -1.6334 1.6334 1.3224e-8 -26.773 125.17)"/>
    <path id="path3991" d="m67.428 45.745a20.203 20.203 0 0 1 -5.918 14.286l-14.285-14.286z" style="fill:#fff" transform="matrix(.81671 -1.4146 1.4146 .81671 -55.309 77.451)"/>
    <path id="path3995" d="m66.786 50.796a20.203 20.203 0 0 1 -3.1369 6.7132l-16.424-11.764z" style="opacity:.2;fill:#fff" transform="matrix(1.6334 1.3224e-8 -1.3224e-8 1.6334 -29.107 -26.712)"/>
    <path id="path3997" d="m67.428 45.745a20.203 20.203 0 0 1 -5.918 14.286l-14.285-14.286z" style="fill:#fff" transform="matrix(-1.4146 .81671 -.81671 -1.4146 152.16 74.263)"/>
   </g>
   <path id="path4040" d="m67.428 45.745a20.203 20.203 0 1 1 -40.406 0 20.203 20.203 0 1 1 40.406 0z" style="opacity:.6;fill:url(#linearGradient4050)" transform="matrix(0 -1.2374 1.2374 0 -8.6064 106.44)"/>
   <path id="path3898" d="m67.428 45.745a20.203 20.203 0 1 1 -40.406 0 20.203 20.203 0 1 1 40.406 0z" style="fill:url(#linearGradient3960)" transform="matrix(0 -1.1879 1.1879 0 -6.3422 104.1)"/>
   <path id="path4031" style="opacity:.1" d="m47.75 29.719c-1.3916 0.20308-1.9337 1.6393-2.7646 2.5883-0.65138 0.86639-1.3028 1.7328-1.9541 2.5992-5.78 1.9407-10.093 7.6522-10.122 13.787-0.21857 6.3521 4.0726 12.504 10.086 14.544 5.6857 2.0865 12.512 0.27612 16.407-4.3715 4.183-4.6737 4.917-12.057 1.6153-17.413-1.7996-3.0927-4.809-5.3677-8.1047-6.62-1.179-1.515-2.268-3.127-3.506-4.582-0.448-0.419-1.051-0.576-1.656-0.531z"/>
   <path id="path4027" style="opacity:.15" d="m48.031 30.812a1.0481 1.0481 0 0 0 -0.875 0.4375l-3.375 4.5c-5.649 1.797-9.781 7.017-9.781 13.25 0 7.7103 6.2897 14 14 14s14-6.2897 14-14c0-6.2329-4.1324-11.453-9.7812-13.25l-3.375-4.5a1.0481 1.0481 0 0 0 -0.8125 -0.4375z"/>
   <path id="path4021" style="opacity:.3" d="m48 31.888-3.5032 4.6709c-5.445 1.526-9.432 6.509-9.432 12.441 0 7.1437 5.7911 12.935 12.935 12.935 7.1437 0 12.935-5.7911 12.935-12.935 0-5.9318-3.9869-10.915-9.4316-12.441l-3.503-4.671z"/>
   <path id="path3848" style="fill:url(#linearGradient3855)" d="m48 30.888-3.5032 4.6709c-5.445 1.526-9.432 6.509-9.432 12.441 0 7.1437 5.7911 12.935 12.935 12.935 7.1437 0 12.935-5.7911 12.935-12.935 0-5.9318-3.9869-10.915-9.4316-12.441l-3.503-4.671z"/>
   <path id="path4144" d="m67.428 45.745a20.203 20.203 0 1 1 -40.406 0 20.203 20.203 0 1 1 40.406 0z" style="fill:url(#radialGradient3838)" transform="matrix(.52834 0 0 .52834 23.049 24.157)"/>
   <path id="path3904" d="m67.428 45.745a20.203 20.203 0 1 1 -40.406 0 20.203 20.203 0 1 1 40.406 0z" style="fill:url(#linearGradient4126)" transform="matrix(.46555 0 0 .46555 26.014 26.703)"/>
   <path id="rect3893" style="opacity:.7;fill:#fff" d="m35.88 28.445 1.2447-0.7186 2.8744 4.9786-1.2447 0.7186-2.8744-4.9786zm-10.278 14.298 0.37198-1.3882 5.5529 1.4879-0.37198 1.3882-5.5529-1.4879zm2.8425 17.377-0.7186-1.2447 4.9786-2.8744 0.7186 1.2447-4.9786 2.8744zm14.298 10.278-1.3882-0.37198 1.4879-5.5529 1.3882 0.37197-1.4879 5.5529zm17.377-2.8425-1.2447 0.7186-2.8744-4.9786 1.2447-0.7186 2.8744 4.9786zm10.278-14.298-0.37198 1.3882-5.5529-1.4879 0.37197-1.3882 5.5529 1.4879zm-2.8425-17.377 0.7186 1.2447-4.9786 2.8744-0.7186-1.2447 4.9786-2.8744zm-14.298-10.278 1.3882 0.37198-1.4879 5.5529-1.3882-0.37198 1.4879-5.5529z"/>
   <path id="path3962" style="fill:url(#radialGradient4046)" d="m48 72c-13.255 0-24-10.745-24-24s10.745-24 24-24 24 10.745 24 24-10.745 24-24 24zm0-3.8889c11.1 0 20.111-9.0109 20.111-20.111s-9.0109-20.111-20.111-20.111-20.111 9.0109-20.111 20.111 9.0109 20.111 20.111 20.111z"/>
   <path id="path4072" style="opacity:.2;fill:url(#linearGradient4170)" d="m48 38.594c-0.41098 0-0.82051 0.02006-1.2247 0.07349l1.225 3.063 1.225-3.062c-0.405-0.053-0.814-0.074-1.225-0.074zm1.2247 0.07349 0.3919 3.2821 1.984-2.6453c-0.377-0.155-0.779-0.285-1.176-0.391-0.397-0.107-0.796-0.192-1.2-0.245zm2.3759 0.63684-0.46538 3.2577 2.5963-2.033c-0.324-0.248-0.673-0.48-1.029-0.685-0.356-0.206-0.726-0.383-1.102-0.539zm2.1309 1.2247-1.2982 3.0372 3.0372-1.2982c-0.249-0.323-0.518-0.64-0.809-0.93h-0.02449c-0.29061-0.29061-0.5827-0.56027-0.90627-0.80829zm1.739 1.739-2.0575 2.5963h0.02449l3.2577-0.46538c-0.15621-0.37658-0.33337-0.7463-0.53886-1.1022h-0.02449c-0.20549-0.35592-0.41298-0.70542-0.66133-1.0287zm1.2247 2.1309-2.6453 1.984 3.0372-0.83278c-0.10636-0.39698-0.2357-0.77462-0.3919-1.1512zm-2.6453 1.984 3.2821 0.3919c-0.054-0.404-0.139-0.803-0.246-1.2l-3.0372 0.80829zm3.2821 0.3919-3.0617 1.2247 3.0617 1.2247c0.05302-0.40423 0.07349-0.8137 0.07349-1.2247 0-0.41098-0.02006-0.82051-0.07349-1.2247zm0 2.4494-3.2821 0.3919 2.6453 1.984c0.15583-0.37673 0.28553-0.77872 0.3919-1.1757s0.19193-0.79596 0.24494-1.2002zm-0.63683 2.3759-3.2577-0.46538 2.033 2.5963c0.24802-0.32356 0.48033-0.67281 0.68582-1.0287 0.20549-0.35592 0.38303-0.72548 0.53886-1.1022zm-1.2247 2.1309-3.0372-1.2982 1.2982 3.0372c0.32332-0.24835 0.64015-0.51768 0.93076-0.80829v-0.02449c0.29061-0.29061 0.56027-0.5827 0.80829-0.90626zm-1.739 1.739-2.5963-2.0575v0.02449l0.46538 3.2577c0.37658-0.1562 0.74629-0.33337 1.1022-0.53886v-0.02449c0.35592-0.20549 0.70542-0.41298 1.0287-0.66133zm-2.1309 1.2247-1.984-2.6453 0.83279 3.0372c0.39698-0.10636 0.77462-0.2357 1.1512-0.3919zm-1.984-2.6453-0.3919 3.2821c0.40417-0.05342 0.80321-0.13856 1.2002-0.24494l-0.808-3.037zm-0.392 3.282-1.225-3.062-1.225 3.062c0.40423 0.05302 0.8137 0.07349 1.2247 0.07349 0.41098 0 0.82051-0.02006 1.2247-0.07349zm-2.4494 0-0.3919-3.2821-1.984 2.6453c0.37674 0.15583 0.77872 0.28553 1.1757 0.3919 0.39698 0.10636 0.79596 0.19192 1.2002 0.24494zm-2.3759-0.63684 0.46538-3.2577-2.5963 2.033c0.32357 0.24802 0.67281 0.48033 1.0287 0.68582 0.35592 0.20549 0.72548 0.38303 1.1022 0.53886zm-2.1309-1.2247 1.2982-3.0372-3.0372 1.2982c0.24835 0.32332 0.51768 0.64015 0.80829 0.93076h0.02449c0.29061 0.29061 0.5827 0.56027 0.90626 0.80829zm-1.739-1.739 2.0575-2.5963h-0.02449l-3.2577 0.46538c0.15621 0.37658 0.33337 0.74629 0.53886 1.1022h0.02449c0.20549 0.35592 0.41298 0.70542 0.66133 1.0287zm-1.2247-2.1309 2.6453-1.984-3.0372 0.83278c0.10636 0.39698 0.23569 0.77462 0.3919 1.1512zm2.6453-1.984-3.2821-0.3919c0.05342 0.40418 0.13857 0.80321 0.24494 1.2002l3.0372-0.80829zm-3.2821-0.3919 3.0617-1.2247-3.0617-1.2247c-0.053 0.40423-0.07349 0.8137-0.07349 1.2247 0 0.41098 0.02006 0.82051 0.07349 1.2247zm0-2.4494 3.2821-0.3919-2.6453-1.984c-0.15583 0.37674-0.28553 0.77872-0.3919 1.1757s-0.19193 0.79596-0.24494 1.2002zm0.63684-2.3759 3.2577 0.46538-2.033-2.5963c-0.24802 0.32357-0.48033 0.67281-0.68582 1.0287-0.20549 0.35592-0.38303 0.72548-0.53886 1.1022zm1.2247-2.1309 3.0372 1.2982-1.2982-3.0372c-0.32332 0.24835-0.64015 0.51768-0.93076 0.80829v0.02449c-0.29061 0.29061-0.56027 0.5827-0.80829 0.90627zm1.739-1.739 2.5963 2.0575v-0.02449l-0.46538-3.2577c-0.37658 0.1562-0.74629 0.33337-1.1022 0.53886v0.02449c-0.35592 0.20549-0.70542 0.41298-1.0287 0.66133zm2.1309-1.2247 1.984 2.6453-0.83278-3.0372c-0.39698 0.10636-0.77462 0.2357-1.1512 0.3919zm1.984 2.6453 0.3919-3.2821c-0.40418 0.05342-0.80321 0.13856-1.2002 0.24494l0.80829 3.0372z"/>
   <path id="path3825" style="fill:url(#linearGradient3836)" d="m57.387 48c0-5.1945-4.1922-9.3867-9.3867-9.3867s-9.3867 4.1922-9.3867 9.3867 4.1922 9.3867 9.3867 9.3867 9.3867-4.1922 9.3867-9.3867zm-3.0541 0c0 3.4907-2.8419 6.3327-6.3327 6.3327-3.4907 0-6.3327-2.8419-6.3327-6.3327 0-3.4907 2.8419-6.3327 6.3327-6.3327 3.4907 0 6.3327 2.8419 6.3327 6.3327z"/>
   <path id="path4079" style="opacity:.7;fill:url(#linearGradient4262)" d="m46.775 38.668-0.3919 3.2821c0.54-0.145 1.083-0.219 1.617-0.22l-1.225-3.062zm1.225 3.062c0.55893 0 1.1009 0.08322 1.6166 0.22044l-0.392-3.282-1.225 3.062zm1.6166 0.22044c0.53989 0.14466 1.056 0.34632 1.5186 0.61234l0.46538-3.2577-1.984 2.6453zm1.5186 0.61234c0.48405 0.27947 0.92014 0.62754 1.2982 1.0042l1.2982-3.0372-2.5963 2.033zm1.2982 1.0042c0.39523 0.39522 0.7121 0.83646 0.97975 1.2982l2.0575-2.5963-3.0372 1.2982zm-6.0499-1.6166-1.984-2.6453 0.46538 3.2577c0.48405-0.27947 1.0034-0.47331 1.5186-0.61234zm-4.1149-1.4206 1.2982 3.0372c0.39523-0.39523 0.83647-0.7121 1.2982-0.97975l-2.5963-2.0575zm1.2982 3.0372-3.0372-1.2982 2.033 2.5963c0.27947-0.48405 0.62754-0.92014 1.0042-1.2982zm-1.0042 1.2982-3.2577-0.46538 2.6453 1.984c0.14466-0.53989 0.34632-1.056 0.61234-1.5186zm-0.61234 1.5186-3.2821 0.3919 3.0617 1.2247c0-0.55893 0.08322-1.1009 0.22044-1.6166zm-0.22044 1.6166-3.0617 1.2247 3.2821 0.3919c-0.14466-0.53989-0.2195-1.0829-0.22044-1.6166zm0.22044 1.6166-2.6453 1.984 3.2577-0.46538c-0.27947-0.48405-0.47331-1.0034-0.61234-1.5186zm14.745-5.2171-3.2577 0.46538c0.27947 0.48405 0.47331 1.0034 0.61234 1.5186l2.6453-1.984zm-2.6453 1.984c0.14466 0.53989 0.2195 1.0829 0.22044 1.6166l3.0617-1.2247-3.2821-0.3919zm0.22044 1.6166c0 0.55893-0.08322 1.1009-0.22044 1.6166l3.2821-0.3919-3.0617-1.2247zm-0.22044 1.6166c-0.14466 0.53989-0.34632 1.056-0.61234 1.5186l3.2577 0.46538-2.6453-1.984zm-0.61234 1.5186c-0.27947 0.48405-0.62755 0.92014-1.0042 1.2982l3.0372 1.2982-2.033-2.5963zm-1.0042 1.2982c-0.39522 0.39523-0.83646 0.7121-1.2982 0.97974l2.5963 2.0575-1.2982-3.0372zm-9.8464-1.2982-2.0575 2.5963 3.0372-1.2982c-0.398-0.396-0.714-0.837-0.982-1.299zm0.97974 1.2982-1.2982 3.0372 2.5963-2.033c-0.486-0.28-0.922-0.628-1.3-1.005zm1.2982 1.0042-0.46538 3.2577 1.984-2.6453c-0.53989-0.14466-1.056-0.34632-1.5186-0.61234zm1.5186 0.61234 0.3919 3.2821l1.222-3.062c-0.55893 0-1.1009-0.08322-1.6166-0.22044zm1.614 0.22l1.2247 3.0617 0.3919-3.2821c-0.54 0.145-1.083 0.219-1.617 0.22zm1.6166-0.22044 1.984 2.6453-0.46538-3.2577c-0.48405 0.27947-1.0034 0.47331-1.5186 0.61234z"/>
   <path id="path4176" style="opacity:.3" d="m46.775 38.668 1.225 3.062 1.225-3.062-1.225 1.494-1.225-1.494zl-0.80829 1.739v0.02449l-1.5676-1.1267 1.984 2.6453 0.3919-3.2821zm-2.3759 0.63684-0.31842 1.9105-1.8125-0.68582 2.5963 2.0575v-0.02449l-0.46538-3.2577zm-2.1309 1.2247 0.19595 1.935-1.935-0.19595 3.0372 1.2982-1.2982-3.0372zm-1.739 1.739 0.68582 1.8125-1.9105 0.31842 3.2577 0.46538-2.033-2.5963zm-1.2247 2.1309 1.1267 1.5676-1.7635 0.80829 3.2821-0.3919-2.6453-1.984zm-0.63684 2.3759 1.4941 1.2247-1.4941 1.2247 3.0617-1.2247-3.0617-1.2247zm0 2.4494 1.739 0.80829h0.02449l-1.1267 1.5676 2.6453-1.984-3.2822-0.3919zm0.63684 2.3759 1.9105 0.31842-0.68582 1.8125 2.0575-2.5963h-0.02449l-3.2577 0.46538zm1.2247 2.1309 1.935-0.19595-0.19595 1.935 1.2982-3.0372-3.0372 1.2982zm1.739 1.739 1.8125-0.68582 0.31842 1.9105 0.46538-3.2577-2.5963 2.033zm2.1309 1.2247 1.5676-1.1267 0.80829 1.7635-0.3919-3.2821-1.984 2.6453zm2.376 0.636 1.225-1.494 1.225 1.494-1.225-3.062-1.225 3.062zm2.4494 0 0.80829-1.739v-0.02449l1.5676 1.1267-1.984-2.6453-0.3919 3.2822zm2.3759-0.63684 0.31842-1.9105 1.8125 0.68582-2.5963-2.0575v0.02449l0.46538 3.2577zm2.1309-1.2247-0.19595-1.935 1.935 0.19595-3.0372-1.2982 1.2982 3.0372zm1.739-1.739-0.68582-1.8125 1.9105-0.31842-3.2577-0.46538 2.033 2.5963zm1.2247-2.1309-1.1267-1.5676 1.7635-0.80829-3.2821 0.3919 2.6453 1.984zm0.63683-2.3759-1.4941-1.2247 1.4941-1.2247-3.0617 1.2247 3.0617 1.2247zm0-2.4494-1.739-0.80829h-0.02449l1.1267-1.5676-2.6453 1.984 3.2821 0.3919zm-0.63683-2.3759-1.9105-0.31842 0.68582-1.8125-2.0575 2.5963h0.02449l3.2577-0.46538zm-1.2247-2.1309-1.935 0.19595 0.19595-1.935-1.2982 3.0372 3.0372-1.2982zm-1.739-1.739-1.8125 0.68582-0.31842-1.9105-0.46538 3.2577 2.5963-2.033zm-2.1309-1.2247-1.5676 1.1267-0.80829-1.7635 0.3919 3.2821 1.984-2.6453z"/>
   <path id="path4012" style="opacity:.8;fill:#fff" d="m48 30.875-3.5 4.6875c-5.445 1.526-9.438 6.506-9.438 12.438 0 0.18082 0.0239 0.35224 0.03125 0.53125 0.207-5.721 4.108-10.484 9.407-11.969l3.5-4.6875 3.5 4.6875c5.2988 1.4846 9.2 6.2471 9.4062 11.969 0.008-0.179 0.032-0.35 0.032-0.531 0-5.932-3.993-10.912-9.438-12.438l-3.5-4.687z"/>
   <path id="path4037" style="opacity:.3;fill:#fff" d="m42.75 25.594-1.4062 0.375 0.78125 2.9062c0.46064-0.14154 0.9321-0.23525 1.4062-0.34375l-0.781-2.937zm16.125 2.125-1.5 2.625c0.42476 0.22615 0.84418 0.46355 1.25 0.71875l1.5-2.625-1.25-0.71875zm-30.438 8.1562-0.71875 1.25 2.625 1.5c0.22615-0.42476 0.46355-0.84418 0.71875-1.25l-2.625-1.5zm41.594 5.469-2.906 0.781c0.14154 0.46064 0.23525 0.9321 0.34375 1.4062l2.9375-0.78125-0.375-1.4062zm-41.5 11.125-2.9375 0.78125 0.375 1.4062l2.906-0.781c-0.14154-0.46064-0.23525-0.9321-0.34375-1.4062zm37.125 4.9062c-0.22615 0.42476-0.46355 0.84418-0.71875 1.25l2.625 1.5 0.71875-1.25-2.625-1.5zm-28.281 7.5625-1.5 2.625 1.25 0.71875 1.5-2.625c-0.42476-0.22615-0.84418-0.46355-1.25-0.71875zm16.5 2.1875c-0.46064 0.14154-0.9321 0.23525-1.4062 0.34375l0.78125 2.9375 1.4062-0.375-0.781-2.907z"/>
   <path id="path4044" d="m42.75 25.594-1.4062 0.375 0.78125 2.9062c0.46064-0.14154 0.9321-0.23525 1.4062-0.34375l-0.781-2.937zm16.125 2.125-1.5 2.625c0.42476 0.22615 0.84418 0.46355 1.25 0.71875l1.5-2.625-1.25-0.71875zm-30.438 8.1562-0.71875 1.25 2.625 1.5c0.22615-0.42476 0.46355-0.84418 0.71875-1.25l-2.625-1.5zm41.594 5.469-2.906 0.781c0.14154 0.46064 0.23525 0.9321 0.34375 1.4062l2.9375-0.78125-0.375-1.4062zm-41.5 11.125-2.9375 0.78125 0.375 1.4062l2.906-0.781c-0.14154-0.46064-0.23525-0.9321-0.34375-1.4062zm37.125 4.9062c-0.22615 0.42476-0.46355 0.84418-0.71875 1.25l2.625 1.5 0.71875-1.25-2.625-1.5zm-28.281 7.5625-1.5 2.625 1.25 0.71875 1.5-2.625c-0.42476-0.22615-0.84418-0.46355-1.25-0.71875zm16.5 2.1875c-0.46064 0.14154-0.9321 0.23525-1.4062 0.34375l0.78125 2.9375 1.4062-0.375-0.781-2.907z" style="opacity:.3;fill:#fff" transform="matrix(.96593 .25882 -.25882 .96593 14.059 -10.788)"/>
  </g>
  <rect id="rect3003" style="opacity:.15;fill:#fff" clip-path="url(#clipPath3009)" rx="25" ry="25" transform="translate(98 3.8281e-7)" width="92" y="958.36" x="-96" height="92"/>
 </g>
</svg>
