<?xml version="1.0" encoding="UTF-8" standalone="no"?>
<!-- Created with Inkscape (http://www.inkscape.org/) -->
<svg id="svg11037" xmlns:rdf="http://www.w3.org/1999/02/22-rdf-syntax-ns#" xmlns="http://www.w3.org/2000/svg" height="96" width="96" version="1.1" xmlns:cc="http://creativecommons.org/ns#" xmlns:xlink="http://www.w3.org/1999/xlink" xmlns:dc="http://purl.org/dc/elements/1.1/">
 <defs id="defs11039">
  <radialGradient id="radialGradient3229" gradientUnits="userSpaceOnUse" cy="90" cx="90" gradientTransform="matrix(0 -1.085 2 0 -90 187.65)" r="42">
   <stop id="stop3317" style="stop-color:#264f8d" offset="0"/>
   <stop id="stop3319" style="stop-color:#4a7fce" offset="1"/>
  </radialGradient>
  <linearGradient id="linearGradient3234" x1="6" xlink:href="#linearGradient3318" gradientUnits="userSpaceOnUse" x2="24" y1="73" y2="73"/>
  <linearGradient id="linearGradient3318">
   <stop id="stop3320" style="stop-color:#162d50" offset="0"/>
   <stop id="stop3322" style="stop-color:#78aaf5" offset=".2"/>
   <stop id="stop3324" style="stop-color:#2d5da5;stop-opacity:0" offset="1"/>
  </linearGradient>
  <linearGradient id="linearGradient3246" x1="6" xlink:href="#linearGradient3318" gradientUnits="userSpaceOnUse" y1="73" gradientTransform="matrix(-1,0,0,1,96,0)" x2="24" y2="73"/>
  <linearGradient id="linearGradient3223" y2="5.8332" gradientUnits="userSpaceOnUse" y1="72.409" x2="38.748" x1="38.748">
   <stop id="stop3201" style="stop-color:#3771c8" offset="0"/>
   <stop id="stop3203" style="stop-color:#afc6e9" offset="1"/>
  </linearGradient>
  <linearGradient id="linearGradient3220" y2="27.429" gradientUnits="userSpaceOnUse" y1="74" x2="87.5" x1="19.036">
   <stop id="stop3329" style="stop-color:#73a5ee" offset="0"/>
   <stop id="stop3335" style="stop-color:#abc3e7;stop-opacity:0" offset="1"/>
  </linearGradient>
  <clipPath id="clipPath3369">
   <path id="path3371" style="fill:#fff" d="m8.0312 66.656c-2.216 0-4 1.784-4 4v32.906c0 2.216 1.784 4 4 4h46.062c2.216 0 4-1.784 4-4v-32.906c0-2.216-1.784-4-4-4h-46.062zm23.719 13.344c0.58485 0.000013 1.0995 0.08631 1.5625 0.28125 0.463 0.18278 0.89664 0.45916 1.25 0.8125 0.36553 0.34118 0.66255 0.76263 0.90625 1.25 0.24368 0.47521 0.44752 1.0089 0.59375 1.5938l-1.7188 0.46875c-0.10967-0.41426-0.26004-0.79601-0.40625-1.125-0.13404-0.32897-0.29287-0.61223-0.5-0.84375-0.20714-0.24368-0.43851-0.4094-0.71875-0.53125-0.26807-0.13402-0.59104-0.21874-0.96875-0.21875-0.64578 0.000011-1.1795 0.17103-1.5938 0.5-0.41428 0.32899-0.75631 0.76951-1 1.2812-0.23151 0.49957-0.40253 1.047-0.5 1.6562-0.08529 0.60923-0.125 1.1773-0.125 1.75-0.000002 0.57268 0.03971 1.1789 0.125 1.8125 0.08529 0.62142 0.23724 1.2139 0.46875 1.75 0.2315 0.53612 0.56666 0.9904 0.96875 1.3438 0.41427 0.34117 0.93578 0.5 1.5938 0.5 0.43864 0.000001 0.83945-0.09848 1.1562-0.28125 0.32898-0.18277 0.61224-0.4332 0.84375-0.75 0.2315-0.31679 0.41628-0.66729 0.5625-1.0938 0.15839-0.42645 0.25845-0.88761 0.34375-1.375l1.7188 0.53125c-0.13404 0.62141-0.331 1.2208-0.5625 1.7812-0.21933 0.56049-0.50947 1.0614-0.875 1.5-0.36554 0.42646-0.80076 0.77538-1.3125 1.0312-0.49957 0.25588-1.0989 0.375-1.7812 0.375-0.65797 0-1.2383-0.10536-1.75-0.3125-0.51175-0.20714-0.96603-0.4904-1.3438-0.84375-0.36554-0.35335-0.65038-0.75574-0.90625-1.2188-0.24369-0.47519-0.4666-0.97606-0.625-1.5-0.14622-0.52393-0.25158-1.0454-0.3125-1.5938-0.06092-0.56048-0.09375-1.1132-0.09375-1.625-0.000001-0.48737 0.03283-0.99512 0.09375-1.5312 0.07311-0.53611 0.18535-1.0507 0.34375-1.5625 0.1584-0.51174 0.36912-1.0179 0.625-1.4688 0.25587-0.463 0.57196-0.86539 0.9375-1.2188 0.37772-0.35334 0.82512-0.61753 1.3125-0.8125 0.499-0.208 1.053-0.313 1.687-0.313zm-11.625 0.21875h1.7188l4.4062 13.562h-2l-1.2188-4h-4l-1.125 4h-1.9062l4.125-13.562zm18.031 0h7.8438v1.7188h-6.0938v3.9688h5.2812v1.7188h-5.2812v4.4375h6.3438v1.7188h-8.0938v-13.562zm-17.156 2.75c-0.18277 0.87729-0.40038 1.753-0.65625 2.5938-0.25588 0.82855-0.52538 1.6593-0.78125 2.5h2.9062c-0.243-0.841-0.512-1.691-0.78-2.532-0.256-0.84-0.469-1.697-0.688-2.562z"/>
  </clipPath>
  <linearGradient id="linearGradient3360" x1="68.75" xlink:href="#linearGradient3354" gradientUnits="userSpaceOnUse" y1="59" gradientTransform="translate(0,-1)" x2="75.25" y2="59"/>
  <linearGradient id="linearGradient3354">
   <stop id="stop3356" style="stop-color:#b4b4b4" offset="0"/>
   <stop id="stop3362" style="stop-color:#646464" offset=".20467"/>
   <stop id="stop3364" style="stop-color:#fff" offset=".49568"/>
   <stop id="stop3358" style="stop-color:#3c3c3c" offset="1"/>
  </linearGradient>
  <clipPath id="clipPath3235">
   <path id="path3237" style="fill:#fff" d="m66 6v55c0 1.662 1.338 3 3 3h6c1.662 0 3-1.338 3-3v-55h-4v2h-4v-2h-4z"/>
  </clipPath>
  <filter id="filter3243" width="1.3323" y="-.03661" x="-.16615" height="1.0732" color-interpolation-filters="sRGB">
   <feGaussianBlur id="feGaussianBlur3245" stdDeviation="0.9"/>
  </filter>
  <linearGradient id="linearGradient3393" y2="65" gradientUnits="userSpaceOnUse" y1="64.163" x2="79" x1="63.485">
   <stop id="stop3331" style="stop-color:#3a73c9" offset="0"/>
   <stop id="stop3333" style="stop-color:#aac3e7" offset="1"/>
  </linearGradient>
  <filter id="filter3429" width="1.3237" y="-.095354" x="-.16183" height="1.1907" color-interpolation-filters="sRGB">
   <feGaussianBlur id="feGaussianBlur3431" stdDeviation="0.53551312"/>
  </filter>
  <linearGradient id="linearGradient3516" x1="68.029" xlink:href="#linearGradient3435" gradientUnits="userSpaceOnUse" y1="17.763" gradientTransform="translate(0,-2)" x2="75.971" y2="17.763"/>
  <linearGradient id="linearGradient3435">
   <stop id="stop3437" style="stop-color:#ededed" offset="0"/>
   <stop id="stop3439" style="stop-color:#b0b0b0" offset="1"/>
  </linearGradient>
  <linearGradient id="linearGradient3489" x1="68.969" xlink:href="#linearGradient3435" gradientUnits="userSpaceOnUse" y1="17.5" gradientTransform="matrix(-1 0 0 1 144.03 -2)" x2="75.062" y2="17.5"/>
  <linearGradient id="linearGradient3530" x1="68.75" xlink:href="#linearGradient3354" gradientUnits="userSpaceOnUse" y1="59" gradientTransform="matrix(1.1263 0 0 1 -7.402 -49.5)" x2="72.251" y2="59"/>
  <linearGradient id="linearGradient3449" x1="69" gradientUnits="userSpaceOnUse" y1="54" gradientTransform="translate(0,-1)" x2="73" y2="54">
   <stop id="stop3292" style="stop-color:#fff" offset="0"/>
   <stop id="stop3304" style="stop-color:#8c8c8c" offset=".48973"/>
   <stop id="stop3306" style="stop-color:#cfcfcf" offset=".50045"/>
   <stop id="stop3298" style="stop-color:#fff" offset=".62277"/>
   <stop id="stop3300" style="stop-color:#c8c8c8" offset=".81696"/>
   <stop id="stop3294" style="stop-color:#505050" offset="1"/>
  </linearGradient>
  <linearGradient id="linearGradient3451" x1="69" gradientUnits="userSpaceOnUse" y1="54" gradientTransform="matrix(-1,0,0,1,144,-4)" x2="73" y2="54">
   <stop id="stop3606" style="stop-color:#2f2f2f" offset="0"/>
   <stop id="stop3608" style="stop-color:#fff" offset=".43731"/>
   <stop id="stop3610" style="stop-color:#979797" offset=".62138"/>
   <stop id="stop3612" style="stop-color:#505050" offset=".77232"/>
   <stop id="stop3614" style="stop-color:#e6e6e6" offset="1"/>
  </linearGradient>
  <clipPath id="clipPath3453" clipPathUnits="userSpaceOnUse">
   <rect id="rect3455" style="fill:url(#linearGradient3457)" rx="22.826" ry="22.826" height="84" width="84" y="6" x="6"/>
  </clipPath>
  <linearGradient id="linearGradient3457" x1="48" gradientUnits="userSpaceOnUse" y1="962.62" gradientTransform="matrix(1.05 0 0 1.05 -2.4 -1006.6)" x2="48" y2="1046.1">
   <stop id="stop3797" style="stop-color:#13a6fd" offset="0"/>
   <stop id="stop3799" style="stop-color:#2975b6" offset="1"/>
  </linearGradient>
  <clipPath id="clipPath3009" clipPathUnits="userSpaceOnUse">
   <path id="path3011" style="opacity:.15;fill:#fff" d="m-2 956.36h-96v33.562l96 25.687v-59.25z"/>
  </clipPath>
 </defs>
 <metadata id="metadata11042">
  <rdf:RDF>
   <cc:Work rdf:about="">
    <dc:format>image/svg+xml</dc:format>
    <dc:type rdf:resource="http://purl.org/dc/dcmitype/StillImage"/>
    <dc:title/>
   </cc:Work>
  </rdf:RDF>
 </metadata>
 <g id="layer1" transform="translate(0 -956.36)">
  <g id="g3102" transform="matrix(1.0952 0 0 1.0952 -4.5714 951.79)" clip-path="url(#clipPath3453)">
   <g id="layer1-5">
    <path id="rect2419" style="fill:url(#radialGradient3229)" d="m12 6c-3.324 0-6 2.676-6 6v72c0 3.324 2.676 6 6 6h72c3.324 0 6-2.676 6-6v-72c0-3.324-2.676-6-6-6h-9v3h-6v-3h-57z"/>
    <path id="rect3222" style="fill:url(#linearGradient3234)" d="m6 56v28c0 3.324 2.676 6 6 6h12v-34h-18z"/>
    <path id="path3244" style="fill:url(#linearGradient3246)" d="m90 56v28c0 3.324-2.676 6-6 6h-12v-34h18z"/>
    <path id="rect2412" style="opacity:.5;fill:#214478" d="m6 82v2c0 3.324 2.676 6 6 6h72c3.324 0 6-2.676 6-6v-2c0 3.324-2.676 6-6 6h-72c-3.324 0-6-2.676-6-6z"/>
    <path id="path3187" style="opacity:.4;fill:#76a7ef" d="m6 78v2c0 3.324 2.676 6 6 6h72c3.324 0 6-2.676 6-6v-2c0 3.324-2.676 6-6 6h-72c-3.324 0-6-2.676-6-6z"/>
    <path id="path3189" style="opacity:.5;fill:#214478" d="m6 76v2c0 3.324 2.676 6 6 6h72c3.324 0 6-2.676 6-6v-2c0 3.324-2.676 6-6 6h-72c-3.324 0-6-2.676-6-6z"/>
    <path id="path3191" style="opacity:.4;fill:#76a7ef" d="m6 72v2c0 3.324 2.676 6 6 6h72c3.324 0 6-2.676 6-6v-2c0 3.324-2.676 6-6 6h-72c-3.324 0-6-2.676-6-6z"/>
    <path id="path3193" style="opacity:.5;fill:#214478" d="m6 70v2c0 3.324 2.676 6 6 6h72c3.324 0 6-2.676 6-6v-2c0 3.324-2.676 6-6 6h-72c-3.324 0-6-2.676-6-6z"/>
    <path id="rect3195" style="fill:url(#linearGradient3223)" d="m12 6c-3.324 0-6 2.676-6 6v56c0 3.324 2.676 6 6 6h72c3.324 0 6-2.676 6-6v-56c0-3.324-2.676-6-6-6h-9v3h-6v-3h-57z"/>
    <path id="rect3207" style="fill:url(#linearGradient3220)" d="m12 6c-3.324 0-6 2.676-6 6v56c0 3.324 2.676 6 6 6h72c3.324 0 6-2.676 6-6v-56c0-3.324-2.676-6-6-6h-9v2h9c2.2458 0 4 1.7542 4 4v56c0 2.2458-1.7542 4-4 4h-72c-2.2458 0-4-1.754-4-4v-56c0-2.2458 1.7542-4 4-4h57v-2h-57z"/>
   </g>
   <g id="layer3">
    <path id="path3792" style="opacity:.05;stroke:#fff;stroke-width:6;fill:none" clip-path="url(#clipPath3369)" transform="translate(0,-30)" d="m31.75 80c-0.6336 0.000012-1.1879 0.10538-1.6875 0.3125-0.48738 0.19497-0.93478 0.45916-1.3125 0.8125-0.36554 0.35336-0.68163 0.75575-0.9375 1.2188-0.25588 0.45084-0.4666 0.95701-0.625 1.4688-0.1584 0.51176-0.27064 1.0264-0.34375 1.5625-0.06092 0.53613-0.09375 1.0439-0.09375 1.5312-0.000002 0.51176 0.03283 1.0645 0.09375 1.625 0.06092 0.5483 0.16628 1.0698 0.3125 1.5938 0.1584 0.52394 0.38131 1.0248 0.625 1.5 0.25587 0.46301 0.54071 0.8654 0.90625 1.2188 0.37772 0.35335 0.832 0.63661 1.3438 0.84375 0.51174 0.20714 1.092 0.3125 1.75 0.3125 0.68233 0.000002 1.2817-0.11912 1.7812-0.375 0.51174-0.25587 0.94696-0.60479 1.3125-1.0312 0.36553-0.43864 0.65567-0.93951 0.875-1.5 0.2315-0.56048 0.42846-1.1598 0.5625-1.7812l-1.7188-0.53125c-0.0853 0.48739-0.18536 0.94855-0.34375 1.375-0.14622 0.42646-0.331 0.77696-0.5625 1.0938-0.23151 0.3168-0.51478 0.56723-0.84375 0.75-0.3168 0.18277-0.71761 0.28125-1.1562 0.28125-0.65797 0.000002-1.1795-0.15883-1.5938-0.5-0.40209-0.35335-0.73725-0.80763-0.96875-1.3438-0.23151-0.53612-0.38346-1.1286-0.46875-1.75-0.08529-0.63359-0.125-1.2398-0.125-1.8125-0.000001-0.57267 0.03971-1.1408 0.125-1.75 0.09747-0.60922 0.26849-1.1567 0.5-1.6562 0.24369-0.51174 0.58572-0.95226 1-1.2812 0.41427-0.32897 0.94797-0.49999 1.5938-0.5 0.37772 0.000011 0.70068 0.08473 0.96875 0.21875 0.28024 0.12186 0.51161 0.28757 0.71875 0.53125 0.20713 0.23152 0.36596 0.51478 0.5 0.84375 0.14621 0.32899 0.29658 0.71074 0.40625 1.125l1.718-0.469c-0.14622-0.58485-0.35007-1.1185-0.59375-1.5938-0.2437-0.48737-0.54072-0.90882-0.90625-1.25-0.35336-0.35334-0.787-0.62972-1.25-0.8125-0.463-0.196-0.977-0.282-1.562-0.282zm-11.625 0.219-4.125 13.562h1.9062l1.125-4h4l1.2188 4h2l-4.4062-13.562h-1.7188zm18.031 0v13.562h8.0938v-1.7188h-6.3438v-4.4375h5.2812v-1.7188h-5.2812v-3.9688h6.0938v-1.7188h-7.8438zm-17.156 2.75c0.21932 0.86511 0.43162 1.7218 0.6875 2.5625 0.26805 0.84074 0.53755 1.6905 0.78125 2.5312h-2.9062c0.25587-0.84072 0.52537-1.6714 0.78125-2.5 0.256-0.841 0.473-1.717 0.656-2.594z"/>
    <path id="path3790" style="opacity:.08;stroke:#fff;stroke-width:4;fill:none" clip-path="url(#clipPath3369)" transform="translate(0,-30)" d="m31.75 80c-0.6336 0.000012-1.1879 0.10538-1.6875 0.3125-0.48738 0.19497-0.93478 0.45916-1.3125 0.8125-0.36554 0.35336-0.68163 0.75575-0.9375 1.2188-0.25588 0.45084-0.4666 0.95701-0.625 1.4688-0.1584 0.51176-0.27064 1.0264-0.34375 1.5625-0.06092 0.53613-0.09375 1.0439-0.09375 1.5312-0.000002 0.51176 0.03283 1.0645 0.09375 1.625 0.06092 0.5483 0.16628 1.0698 0.3125 1.5938 0.1584 0.52394 0.38131 1.0248 0.625 1.5 0.25587 0.46301 0.54071 0.8654 0.90625 1.2188 0.37772 0.35335 0.832 0.63661 1.3438 0.84375 0.51174 0.20714 1.092 0.3125 1.75 0.3125 0.68233 0.000002 1.2817-0.11912 1.7812-0.375 0.51174-0.25587 0.94696-0.60479 1.3125-1.0312 0.36553-0.43864 0.65567-0.93951 0.875-1.5 0.2315-0.56048 0.42846-1.1598 0.5625-1.7812l-1.7188-0.53125c-0.0853 0.48739-0.18536 0.94855-0.34375 1.375-0.14622 0.42646-0.331 0.77696-0.5625 1.0938-0.23151 0.3168-0.51478 0.56723-0.84375 0.75-0.3168 0.18277-0.71761 0.28125-1.1562 0.28125-0.65797 0.000002-1.1795-0.15883-1.5938-0.5-0.40209-0.35335-0.73725-0.80763-0.96875-1.3438-0.23151-0.53612-0.38346-1.1286-0.46875-1.75-0.08529-0.63359-0.125-1.2398-0.125-1.8125-0.000001-0.57267 0.03971-1.1408 0.125-1.75 0.09747-0.60922 0.26849-1.1567 0.5-1.6562 0.24369-0.51174 0.58572-0.95226 1-1.2812 0.41427-0.32897 0.94797-0.49999 1.5938-0.5 0.37772 0.000011 0.70068 0.08473 0.96875 0.21875 0.28024 0.12186 0.51161 0.28757 0.71875 0.53125 0.20713 0.23152 0.36596 0.51478 0.5 0.84375 0.14621 0.32899 0.29658 0.71074 0.40625 1.125l1.718-0.469c-0.14622-0.58485-0.35007-1.1185-0.59375-1.5938-0.2437-0.48737-0.54072-0.90882-0.90625-1.25-0.35336-0.35334-0.787-0.62972-1.25-0.8125-0.463-0.196-0.977-0.282-1.562-0.282zm-11.625 0.219-4.125 13.562h1.9062l1.125-4h4l1.2188 4h2l-4.4062-13.562h-1.7188zm18.031 0v13.562h8.0938v-1.7188h-6.3438v-4.4375h5.2812v-1.7188h-5.2812v-3.9688h6.0938v-1.7188h-7.8438zm-17.156 2.75c0.21932 0.86511 0.43162 1.7218 0.6875 2.5625 0.26805 0.84074 0.53755 1.6905 0.78125 2.5312h-2.9062c0.25587-0.84072 0.52537-1.6714 0.78125-2.5 0.256-0.841 0.473-1.717 0.656-2.594z"/>
    <path id="path3362" style="opacity:.15;stroke:#fff;stroke-width:2;fill:none" clip-path="url(#clipPath3369)" transform="translate(0,-30)" d="m31.75 80c-0.6336 0.000012-1.1879 0.10538-1.6875 0.3125-0.48738 0.19497-0.93478 0.45916-1.3125 0.8125-0.36554 0.35336-0.68163 0.75575-0.9375 1.2188-0.25588 0.45084-0.4666 0.95701-0.625 1.4688-0.1584 0.51176-0.27064 1.0264-0.34375 1.5625-0.06092 0.53613-0.09375 1.0439-0.09375 1.5312-0.000002 0.51176 0.03283 1.0645 0.09375 1.625 0.06092 0.5483 0.16628 1.0698 0.3125 1.5938 0.1584 0.52394 0.38131 1.0248 0.625 1.5 0.25587 0.46301 0.54071 0.8654 0.90625 1.2188 0.37772 0.35335 0.832 0.63661 1.3438 0.84375 0.51174 0.20714 1.092 0.3125 1.75 0.3125 0.68233 0.000002 1.2817-0.11912 1.7812-0.375 0.51174-0.25587 0.94696-0.60479 1.3125-1.0312 0.36553-0.43864 0.65567-0.93951 0.875-1.5 0.2315-0.56048 0.42846-1.1598 0.5625-1.7812l-1.7188-0.53125c-0.0853 0.48739-0.18536 0.94855-0.34375 1.375-0.14622 0.42646-0.331 0.77696-0.5625 1.0938-0.23151 0.3168-0.51478 0.56723-0.84375 0.75-0.3168 0.18277-0.71761 0.28125-1.1562 0.28125-0.65797 0.000002-1.1795-0.15883-1.5938-0.5-0.40209-0.35335-0.73725-0.80763-0.96875-1.3438-0.23151-0.53612-0.38346-1.1286-0.46875-1.75-0.08529-0.63359-0.125-1.2398-0.125-1.8125-0.000001-0.57267 0.03971-1.1408 0.125-1.75 0.09747-0.60922 0.26849-1.1567 0.5-1.6562 0.24369-0.51174 0.58572-0.95226 1-1.2812 0.41427-0.32897 0.94797-0.49999 1.5938-0.5 0.37772 0.000011 0.70068 0.08473 0.96875 0.21875 0.28024 0.12186 0.51161 0.28757 0.71875 0.53125 0.20713 0.23152 0.36596 0.51478 0.5 0.84375 0.14621 0.32899 0.29658 0.71074 0.40625 1.125l1.718-0.469c-0.14622-0.58485-0.35007-1.1185-0.59375-1.5938-0.2437-0.48737-0.54072-0.90882-0.90625-1.25-0.35336-0.35334-0.787-0.62972-1.25-0.8125-0.463-0.196-0.977-0.282-1.562-0.282zm-11.625 0.219-4.125 13.562h1.9062l1.125-4h4l1.2188 4h2l-4.4062-13.562h-1.7188zm18.031 0v13.562h8.0938v-1.7188h-6.3438v-4.4375h5.2812v-1.7188h-5.2812v-3.9688h6.0938v-1.7188h-7.8438zm-17.156 2.75c0.21932 0.86511 0.43162 1.7218 0.6875 2.5625 0.26805 0.84074 0.53755 1.6905 0.78125 2.5312h-2.9062c0.25587-0.84072 0.52537-1.6714 0.78125-2.5 0.256-0.841 0.473-1.717 0.656-2.594z"/>
    <path id="rect3201" style="fill:#252525" d="m66 6v55c0 1.662 1.338 3 3 3h6c1.662 0 3-1.338 3-3v-55h-4v2h-4v-2h-4z"/>
    <rect id="rect3247" style="fill:#4d4d4d" height="49" width="4" y="8" x="70"/>
    <rect id="rect3211" style="stroke:#000;stroke-width:.5;stroke-linecap:square;stroke-opacity:.56364;fill:url(#linearGradient3360)" rx="1" ry="1" height="4" width="6" y="56" x="69"/>
    <path id="path3231" style="filter:url(#filter3243);stroke:#000;stroke-linecap:square;stroke-width:2;fill:none" clip-path="url(#clipPath3235)" d="m66 6v55c0 1.662 1.338 3 3 3h6c1.662 0 3-1.338 3-3v-55h-4v2h-4v-2h-4z"/>
    <path id="rect3249" style="stroke:#000;stroke-width:.5;stroke-linecap:square;stroke-opacity:.56364;fill:url(#linearGradient3449)" d="m69.5 51c-0.27 0-0.5 0.218-0.5 0.5v3c0 0.28204 0.23023 0.5 0.5 0.5h1c0.26977 0 0.5-0.21796 0.5-0.5v-0.5h1.5c0.277 0 0.5-0.223 0.5-0.5v-1c0-0.277-0.223-0.5-0.5-0.5h-1.5v-0.5c0-0.282-0.23-0.5-0.5-0.5h-1z"/>
    <use id="use3308" xlink:href="#rect3249" transform="translate(0,-6)" height="96" width="96" y="0" x="0"/>
    <use id="use3310" xlink:href="#use3308" transform="translate(0,-6)" height="96" width="96" y="0" x="0"/>
    <use id="use3312" xlink:href="#use3310" transform="translate(0,-6)" height="96" width="96" y="0" x="0"/>
    <use id="use3314" xlink:href="#use3312" transform="translate(0,-6)" height="96" width="96" y="0" x="0"/>
    <use id="use3316" xlink:href="#use3314" transform="translate(0,-6)" height="96" width="96" y="0" x="0"/>
    <use id="use3318" xlink:href="#use3316" transform="translate(0,-6)" height="96" width="96" y="0" x="0"/>
    <use id="use3320" xlink:href="#use3318" transform="translate(0,-6)" height="96" width="96" y="0" x="0"/>
    <path id="path3322" style="stroke:#000;stroke-width:.5;stroke-linecap:square;stroke-opacity:.56364;fill:url(#linearGradient3451)" d="m74.5 48c0.26977 0 0.5 0.21796 0.5 0.5v3c0 0.28204-0.23023 0.5-0.5 0.5h-1c-0.27 0-0.5-0.218-0.5-0.5v-0.5h-1.5c-0.277 0-0.5-0.223-0.5-0.5v-1c0-0.277 0.223-0.5 0.5-0.5h1.5v-0.5c0-0.282 0.23-0.5 0.5-0.5h1z"/>
    <use id="use3340" xlink:href="#path3322" transform="translate(0,-6)" height="96" width="96" y="0" x="0"/>
    <use id="use3342" xlink:href="#use3340" transform="translate(0,-6)" height="96" width="96" y="0" x="0"/>
    <use id="use3344" xlink:href="#use3342" transform="translate(0,-6)" height="96" width="96" y="0" x="0"/>
    <use id="use3346" xlink:href="#use3344" transform="translate(0,-6)" height="96" width="96" y="0" x="0"/>
    <use id="use3348" xlink:href="#use3346" transform="translate(0,-6)" height="96" width="96" y="0" x="0"/>
    <use id="use3350" xlink:href="#use3348" transform="translate(0,-6)" height="96" width="96" y="0" x="0"/>
    <path id="path3376" style="fill:url(#linearGradient3393)" d="m65 6v55c0 2.2023 1.7977 4 4 4h6c2.2023 0 4-1.7977 4-4v-55h-1v55c0 1.662-1.338 3-3 3h-6c-1.662 0-3-1.338-3-3v-55h-1z"/>
    <path id="path3433" style="filter:url(#filter3429);stroke:#000;stroke-linecap:square;stroke-opacity:.56364;stroke-width:.5" transform="translate(0,-2)" d="m69.5 10.531c-1.0277 0-1.9688 0.7652-1.9688 1.8125v10.812c0 1.048 0.918 1.844 1.969 1.844h5c1.0507 0 1.9688-0.79645 1.9688-1.8438v-10.812c-0.000003-1.0473-0.94105-1.8125-1.9688-1.8125h-5zm1.0625 9.0625h2.875v1.75h-2.875v-1.75z"/>
    <path id="rect3403" style="fill:url(#linearGradient3516)" d="m69.229 9.0214c-0.687 0-1.229 0.4824-1.229 1.0816l-0.005 10.815c0 0.6 0.542 1.082 1.229 1.082h5.5832c0.68714 0 1.2292-0.48237 1.2292-1.0815l0.0051-10.815c0-0.59918-0.54211-1.0815-1.2292-1.0815h-5.5832zm0.7043 7.9496h4.1013v3.1184h-4.1013v-3.1184z"/>
    <path id="rect3470" style="fill:url(#linearGradient3489)" d="m74.562 9.9688c0.277 0 0.5 0.223 0.5 0.5v10.062c0 0.277-0.223 0.5-0.5 0.5h-5.0938c-0.277 0-0.5-0.223-0.5-0.5v-10.062c0-0.277 0.223-0.5 0.5-0.5h5.0938zm-0.4375 6.9688h-4.125v3.125h4.125v-3.125z"/>
    <rect id="rect3399" style="stroke:#000;stroke-linecap:square;stroke-opacity:.56364;fill:url(#linearGradient3530)" rx=".56313" ry=".5" height="5" width="3.3788" y="7.5" x="70.311"/>
    <rect id="rect3518" style="opacity:.3" height="1" width="4" y="16" x="69.985"/>
    <path id="path3348" style="fill:#1e3d6d" d="m31.75 50c-0.6336 0.000012-1.1879 0.10538-1.6875 0.3125-0.48738 0.19497-0.93478 0.45916-1.3125 0.8125-0.36554 0.35336-0.68163 0.75575-0.9375 1.2188-0.25588 0.45084-0.4666 0.95701-0.625 1.4688-0.1584 0.51176-0.27064 1.0264-0.34375 1.5625-0.06092 0.53613-0.09375 1.0439-0.09375 1.5312-0.000002 0.51176 0.03283 1.0645 0.09375 1.625 0.06092 0.5483 0.16628 1.0698 0.3125 1.5938 0.1584 0.52394 0.38131 1.0248 0.625 1.5 0.25587 0.46301 0.54071 0.8654 0.90625 1.2188 0.37772 0.35335 0.832 0.63661 1.3438 0.84375 0.51174 0.20714 1.092 0.3125 1.75 0.3125 0.68233 0.000002 1.2817-0.11912 1.7812-0.375 0.51174-0.25587 0.94696-0.60479 1.3125-1.0312 0.36553-0.43864 0.65567-0.93951 0.875-1.5 0.2315-0.56048 0.42846-1.1598 0.5625-1.7812l-1.7188-0.53125c-0.0853 0.48739-0.18536 0.94855-0.34375 1.375-0.14622 0.42646-0.331 0.77696-0.5625 1.0938-0.23151 0.3168-0.51478 0.56723-0.84375 0.75-0.3168 0.18277-0.71761 0.28125-1.1562 0.28125-0.65797 0.000002-1.1795-0.15883-1.5938-0.5-0.40209-0.35335-0.73725-0.80763-0.96875-1.3438-0.23151-0.53612-0.38346-1.1286-0.46875-1.75-0.08529-0.63359-0.125-1.2398-0.125-1.8125-0.000001-0.57267 0.03971-1.1408 0.125-1.75 0.09747-0.60922 0.26849-1.1567 0.5-1.6562 0.24369-0.51174 0.58572-0.95226 1-1.2812 0.41427-0.32897 0.94797-0.49999 1.5938-0.5 0.37772 0.000011 0.70068 0.08473 0.96875 0.21875 0.28024 0.12186 0.51161 0.28757 0.71875 0.53125 0.20713 0.23152 0.36596 0.51478 0.5 0.84375 0.14621 0.32899 0.29658 0.71074 0.40625 1.125l1.718-0.469c-0.14622-0.58485-0.35007-1.1185-0.59375-1.5938-0.2437-0.48737-0.54072-0.90882-0.90625-1.25-0.35336-0.35334-0.787-0.62972-1.25-0.8125-0.463-0.196-0.977-0.282-1.562-0.282zm-11.625 0.219-4.125 13.562h1.9062l1.125-4h4l1.2188 4h2l-4.4062-13.562h-1.7188zm18.031 0v13.562h8.0938v-1.7188h-6.3438v-4.4375h5.2812v-1.7188h-5.2812v-3.9688h6.0938v-1.7188h-7.8438zm-17.156 2.75c0.21932 0.86511 0.43162 1.7218 0.6875 2.5625 0.26805 0.84074 0.53755 1.6905 0.78125 2.5312h-2.9062c0.25587-0.84072 0.52537-1.6714 0.78125-2.5 0.256-0.841 0.473-1.717 0.656-2.594z"/>
    <path id="path3352" style="opacity:.4" d="m31.75 50c-0.6336 0.000012-1.1879 0.10538-1.6875 0.3125-0.48738 0.19497-0.93478 0.45916-1.3125 0.8125-0.36554 0.35336-0.68163 0.75575-0.9375 1.2188-0.25588 0.45084-0.4666 0.95701-0.625 1.4688-0.1584 0.51176-0.27064 1.0264-0.34375 1.5625-0.06092 0.53613-0.09375 1.0439-0.09375 1.5312-0.000001 0.15751 0.02517 0.3357 0.03125 0.5 0.0141-0.33776 0.02147-0.6702 0.0625-1.0312 0.07311-0.53611 0.18535-1.0507 0.34375-1.5625 0.1584-0.51174 0.36912-1.0179 0.625-1.4688 0.25587-0.463 0.57196-0.86539 0.9375-1.2188 0.37772-0.35334 0.82512-0.61753 1.3125-0.8125 0.49956-0.20712 1.0539-0.31249 1.6875-0.3125 0.58485 0.000013 1.0995 0.08631 1.5625 0.28125 0.463 0.18278 0.89664 0.45916 1.25 0.8125 0.36553 0.34118 0.66255 0.76263 0.90625 1.25 0.10733 0.20931 0.22214 0.42487 0.3125 0.65625l0.28125-0.0625c-0.14622-0.58485-0.35007-1.1185-0.59375-1.5938-0.2437-0.48737-0.54072-0.90882-0.90625-1.25-0.35336-0.35334-0.787-0.62972-1.25-0.8125-0.463-0.196-0.977-0.282-1.562-0.282zm-11.625 0.219-4.125 13.562h0.3125l3.8125-12.562h1.7188l4.0938 12.562h0.3125l-4.4062-13.562h-1.7188zm18.031 0v1h7.8438v-1h-7.8438zm1.75 5.6875v1h5.2812v-1h-5.2812zm-11.344 1.469c-0.0066 0.1641-0.03125 0.33622-0.03125 0.5-0.000002 0.57268 0.03971 1.1789 0.125 1.8125 0.08529 0.62142 0.23724 1.2139 0.46875 1.75 0.2315 0.53612 0.56666 0.9904 0.96875 1.3438 0.41427 0.34117 0.93578 0.5 1.5938 0.5 0.43864 0.000001 0.83945-0.09848 1.1562-0.28125 0.32898-0.18277 0.61224-0.4332 0.84375-0.75 0.2315-0.31679 0.41628-0.66729 0.5625-1.0938 0.15839-0.42645 0.25845-0.88761 0.34375-1.375l1.4688 0.4375c0.09493-0.29758 0.18298-0.59554 0.25-0.90625l-1.7188-0.53125c-0.0853 0.48739-0.18536 0.94855-0.34375 1.375-0.14622 0.42646-0.331 0.77696-0.5625 1.0938-0.23151 0.3168-0.51478 0.56723-0.84375 0.75-0.3168 0.18277-0.71761 0.28125-1.1562 0.28125-0.65797 0.000002-1.1795-0.15883-1.5938-0.5-0.40209-0.35335-0.73725-0.80763-0.96875-1.3438-0.23151-0.53612-0.38346-1.1286-0.46875-1.75-0.0609-0.45239-0.07719-0.89026-0.09375-1.3125zm-8.6875 0.6875c-0.10497 0.33359-0.21015 0.66371-0.3125 1h2.9062c-0.09638-0.3325-0.20973-0.66579-0.3125-1h-2.2812zm20.031 4v1h6.3438v-1h-6.3438z"/>
   </g>
  </g>
  <rect id="rect3003" style="opacity:.15;fill:#fff" clip-path="url(#clipPath3009)" rx="25" ry="25" transform="translate(98 3.8281e-7)" width="92" y="958.36" x="-96" height="92"/>
 </g>
</svg>
