<?xml version="1.0" encoding="UTF-8" standalone="no"?>
<!-- Created with Inkscape (http://www.inkscape.org/) -->
<svg id="svg11037" xmlns:rdf="http://www.w3.org/1999/02/22-rdf-syntax-ns#" xmlns="http://www.w3.org/2000/svg" height="96" width="96" version="1.1" xmlns:cc="http://creativecommons.org/ns#" xmlns:xlink="http://www.w3.org/1999/xlink" xmlns:dc="http://purl.org/dc/elements/1.1/">
 <defs id="defs11039">
  <radialGradient id="radialGradient3229" gradientUnits="userSpaceOnUse" cy="90" cx="90" gradientTransform="matrix(0 -1.085 2 0 -90 187.65)" r="42">
   <stop id="stop3702" style="stop-color:#b4b4b4" offset="0"/>
   <stop id="stop3704" style="stop-color:#dcdcdc" offset="1"/>
  </radialGradient>
  <linearGradient id="linearGradient3234" x1="6" xlink:href="#linearGradient3236" gradientUnits="userSpaceOnUse" x2="24" y1="73" y2="73"/>
  <linearGradient id="linearGradient3236">
   <stop id="stop3238" style="stop-color:#818181" offset="0"/>
   <stop id="stop3242" style="stop-color:#f9f9f9" offset=".2"/>
   <stop id="stop3240" style="stop-color:#dcdcdc;stop-opacity:0" offset="1"/>
  </linearGradient>
  <linearGradient id="linearGradient3246" x1="6" xlink:href="#linearGradient3236" gradientUnits="userSpaceOnUse" y1="73" gradientTransform="matrix(-1,0,0,1,96,0)" x2="24" y2="73"/>
  <linearGradient id="linearGradient3223" y2="5.8332" gradientUnits="userSpaceOnUse" y1="65.59" x2="38.748" x1="38.748">
   <stop id="stop3201" style="stop-color:#dcdcdc" offset="0"/>
   <stop id="stop3203" style="stop-color:#fafafa" offset="1"/>
  </linearGradient>
  <linearGradient id="linearGradient3220" y2="27.429" gradientUnits="userSpaceOnUse" y1="74" x2="87.5" x1="19.036">
   <stop id="stop3739" style="stop-color:#fff" offset="0"/>
   <stop id="stop3741" style="stop-color:#fff;stop-opacity:0" offset="1"/>
  </linearGradient>
  <clipPath id="clipPath3321">
   <path id="path3323" style="fill:#fff" d="m10.688 67.906c-2.216 0-4 1.784-4 4v32.406c0 2.216 1.784 4 4 4h39.094c2.216 0 4-1.784 4-4v-32.406c0-2.216-1.784-4-4-4h-39.094zm12.656 12.094c0.67014 0.000014 1.2504 0.10538 1.75 0.3125 0.49956 0.19496 0.92789 0.46604 1.2812 0.84375 0.36553 0.37773 0.65567 0.85108 0.875 1.375 0.2315 0.52394 0.39721 1.0852 0.53125 1.7188l-1.531 0.531c-0.11-0.475-0.248-0.903-0.406-1.281-0.14622-0.37771-0.331-0.70068-0.5625-0.96875-0.21933-0.26805-0.49571-0.45971-0.8125-0.59375-0.30462-0.1462-0.68636-0.21874-1.125-0.21875-0.69452 0.000012-1.2557 0.15196-1.7188 0.46875-0.45083 0.30462-0.81351 0.70701-1.0938 1.2188-0.26806 0.49957-0.47191 1.0661-0.59375 1.6875-0.10966 0.62142-0.15625 1.2536-0.15625 1.875-0.000002 0.62142 0.04659 1.2223 0.15625 1.8438 0.12184 0.62141 0.32569 1.1879 0.59375 1.6875 0.28024 0.49957 0.63074 0.90196 1.0938 1.2188 0.46301 0.30462 1.0555 0.46875 1.75 0.46875 0.24368 0.000002 0.49412-0.03283 0.75-0.09375 0.26805-0.06092 0.5063-0.14034 0.75-0.25 0.25587-0.10966 0.49942-0.22878 0.71875-0.375 0.21931-0.14621 0.42316-0.31723 0.59375-0.5v-2.4688h-3.0625v-1.6875h4.8125v6.9688h-1.7188v-0.8125c-0.415 0.243-0.881 0.468-1.344 0.687-0.451 0.232-0.907 0.344-1.406 0.344-0.987 0-1.837-0.211-2.531-0.625-0.695-0.414-1.249-0.936-1.688-1.594s-0.774-1.402-0.969-2.219c-0.195-0.828-0.281-1.671-0.281-2.5-0.000001-0.81636 0.09848-1.628 0.28125-2.4688 0.18277-0.84072 0.46073-1.6111 0.875-2.2812 0.41427-0.68232 0.97392-1.2298 1.6562-1.6562 0.683-0.438 1.533-0.656 2.532-0.656zm7.25 0h7.7812v1.9062c-0.21933 0.35221-0.47665 0.77812-0.78125 1.2812-0.29244 0.49058-0.61541 1.0151-0.96875 1.5938-0.35336 0.57862-0.70385 1.2022-1.0938 1.8438-0.38991 0.64152-0.78542 1.296-1.1875 1.9375-0.38991 0.64151-0.78542 1.2586-1.1875 1.875-0.40209 0.61636-0.80978 1.1779-1.1875 1.7188h6.5938v1.8438h-8.563v-1.969l5.344-8.719c0.17058-0.26414 0.3416-0.49842 0.5-0.75 0.17058-0.25156 0.34848-0.52967 0.53125-0.78125h-5.7812v-1.7812z"/>
  </clipPath>
  <linearGradient id="linearGradient3360" x1="68.75" xlink:href="#linearGradient3354" gradientUnits="userSpaceOnUse" y1="59" gradientTransform="translate(0,-1)" x2="75.25" y2="59"/>
  <linearGradient id="linearGradient3354">
   <stop id="stop3356" style="stop-color:#b4b4b4" offset="0"/>
   <stop id="stop3362" style="stop-color:#646464" offset=".20467"/>
   <stop id="stop3364" style="stop-color:#fff" offset=".49568"/>
   <stop id="stop3358" style="stop-color:#3c3c3c" offset="1"/>
  </linearGradient>
  <clipPath id="clipPath3235">
   <path id="path3237" style="fill:#fff" d="m66 6v55c0 1.662 1.338 3 3 3h6c1.662 0 3-1.338 3-3v-55h-4v2h-4v-2h-4z"/>
  </clipPath>
  <filter id="filter3243" width="1.3323" y="-.03661" x="-.16615" height="1.0732" color-interpolation-filters="sRGB">
   <feGaussianBlur id="feGaussianBlur3245" stdDeviation="0.9"/>
  </filter>
  <linearGradient id="linearGradient3393" y2="65" gradientUnits="userSpaceOnUse" y1="64.163" x2="79" x1="63.485">
   <stop id="stop3413" style="stop-color:#a2a2a2" offset="0"/>
   <stop id="stop3415" style="stop-color:#fff" offset="1"/>
  </linearGradient>
  <filter id="filter3429" width="1.3237" y="-.095354" x="-.16183" height="1.1907" color-interpolation-filters="sRGB">
   <feGaussianBlur id="feGaussianBlur3431" stdDeviation="0.53551312"/>
  </filter>
  <linearGradient id="linearGradient3516" x1="68.029" xlink:href="#linearGradient3435" gradientUnits="userSpaceOnUse" y1="17.763" gradientTransform="translate(0,-2)" x2="75.971" y2="17.763"/>
  <linearGradient id="linearGradient3435">
   <stop id="stop3437" style="stop-color:#ededed" offset="0"/>
   <stop id="stop3439" style="stop-color:#b0b0b0" offset="1"/>
  </linearGradient>
  <linearGradient id="linearGradient3489" x1="68.969" xlink:href="#linearGradient3435" gradientUnits="userSpaceOnUse" y1="17.5" gradientTransform="matrix(-1 0 0 1 144.03 -2)" x2="75.062" y2="17.5"/>
  <linearGradient id="linearGradient3530" x1="68.75" xlink:href="#linearGradient3354" gradientUnits="userSpaceOnUse" y1="59" gradientTransform="matrix(1.1263 0 0 1 -7.402 -49.5)" x2="72.251" y2="59"/>
  <linearGradient id="linearGradient3444" x1="69" gradientUnits="userSpaceOnUse" y1="54" gradientTransform="translate(0,-1)" x2="73" y2="54">
   <stop id="stop3292" style="stop-color:#fff" offset="0"/>
   <stop id="stop3304" style="stop-color:#8c8c8c" offset=".48973"/>
   <stop id="stop3306" style="stop-color:#cfcfcf" offset=".50045"/>
   <stop id="stop3298" style="stop-color:#fff" offset=".62277"/>
   <stop id="stop3300" style="stop-color:#c8c8c8" offset=".81696"/>
   <stop id="stop3294" style="stop-color:#505050" offset="1"/>
  </linearGradient>
  <linearGradient id="linearGradient3446" x1="69" gradientUnits="userSpaceOnUse" y1="54" gradientTransform="matrix(-1,0,0,1,144,-4)" x2="73" y2="54">
   <stop id="stop3606" style="stop-color:#2f2f2f" offset="0"/>
   <stop id="stop3608" style="stop-color:#fff" offset=".43731"/>
   <stop id="stop3610" style="stop-color:#979797" offset=".62138"/>
   <stop id="stop3612" style="stop-color:#505050" offset=".77232"/>
   <stop id="stop3614" style="stop-color:#e6e6e6" offset="1"/>
  </linearGradient>
  <clipPath id="clipPath3448" clipPathUnits="userSpaceOnUse">
   <rect id="rect3450" style="fill:url(#linearGradient3452)" rx="22.826" ry="22.826" height="84" width="84" y="6" x="6"/>
  </clipPath>
  <linearGradient id="linearGradient3452" x1="48" gradientUnits="userSpaceOnUse" y1="962.62" gradientTransform="matrix(1.05 0 0 1.05 -2.4 -1006.6)" x2="48" y2="1046.1">
   <stop id="stop3797" style="stop-color:#13a6fd" offset="0"/>
   <stop id="stop3799" style="stop-color:#2975b6" offset="1"/>
  </linearGradient>
  <clipPath id="clipPath3009" clipPathUnits="userSpaceOnUse">
   <path id="path3011" style="opacity:.15;fill:#fff" d="m-2 956.36h-96v33.562l96 25.687v-59.25z"/>
  </clipPath>
 </defs>
 <metadata id="metadata11042">
  <rdf:RDF>
   <cc:Work rdf:about="">
    <dc:format>image/svg+xml</dc:format>
    <dc:type rdf:resource="http://purl.org/dc/dcmitype/StillImage"/>
    <dc:title/>
   </cc:Work>
  </rdf:RDF>
 </metadata>
 <g id="layer1" transform="translate(0 -956.36)">
  <g id="g3102" transform="matrix(1.0952 0 0 1.0952 -4.5714 951.79)" clip-path="url(#clipPath3448)">
   <g id="layer1-5">
    <path id="rect2419" style="fill:url(#radialGradient3229)" d="m12 6c-3.324 0-6 2.676-6 6v72c0 3.324 2.676 6 6 6h72c3.324 0 6-2.676 6-6v-72c0-3.324-2.676-6-6-6h-9v3h-6v-3h-57z"/>
    <path id="rect3222" style="fill:url(#linearGradient3234)" d="m6 56v28c0 3.324 2.676 6 6 6h12v-34h-18z"/>
    <path id="path3244" style="fill:url(#linearGradient3246)" d="m90 56v28c0 3.324-2.676 6-6 6h-12v-34h18z"/>
    <path id="rect2412" style="opacity:.15" d="m6 82v2c0 3.324 2.676 6 6 6h72c3.324 0 6-2.676 6-6v-2c0 3.324-2.676 6-6 6h-72c-3.324 0-6-2.676-6-6z"/>
    <path id="path3187" style="opacity:.8;fill:#fff" d="m6 78v2c0 3.324 2.676 6 6 6h72c3.324 0 6-2.676 6-6v-2c0 3.324-2.676 6-6 6h-72c-3.324 0-6-2.676-6-6z"/>
    <path id="path3189" style="opacity:.15" d="m6 76v2c0 3.324 2.676 6 6 6h72c3.324 0 6-2.676 6-6v-2c0 3.324-2.676 6-6 6h-72c-3.324 0-6-2.676-6-6z"/>
    <path id="path3191" style="opacity:.8;fill:#fff" d="m6 72v2c0 3.324 2.676 6 6 6h72c3.324 0 6-2.676 6-6v-2c0 3.324-2.676 6-6 6h-72c-3.324 0-6-2.676-6-6z"/>
    <path id="path3193" style="opacity:.15" d="m6 70v2c0 3.324 2.676 6 6 6h72c3.324 0 6-2.676 6-6v-2c0 3.324-2.676 6-6 6h-72c-3.324 0-6-2.676-6-6z"/>
    <path id="rect3195" style="fill:url(#linearGradient3223)" d="m12 6c-3.324 0-6 2.676-6 6v56c0 3.324 2.676 6 6 6h72c3.324 0 6-2.676 6-6v-56c0-3.324-2.676-6-6-6h-9v3h-6v-3h-57z"/>
    <path id="rect3207" style="fill:url(#linearGradient3220)" d="m12 6c-3.324 0-6 2.676-6 6v56c0 3.324 2.676 6 6 6h72c3.324 0 6-2.676 6-6v-56c0-3.324-2.676-6-6-6h-9v2h9c2.2458 0 4 1.7542 4 4v56c0 2.2458-1.7542 4-4 4h-72c-2.2458 0-4-1.754-4-4v-56c0-2.2458 1.7542-4 4-4h57v-2h-57z"/>
   </g>
   <g id="layer3">
    <path id="path3775" style="opacity:.05;stroke:#fff;stroke-width:6;fill:none" transform="translate(0,-30)" d="m23.344 80c-0.99914 0.000014-1.8489 0.21762-2.5312 0.65625-0.68234 0.42647-1.242 0.97393-1.6562 1.6562-0.41427 0.67016-0.69223 1.4405-0.875 2.2812-0.18277 0.84074-0.28125 1.6524-0.28125 2.4688-0.000001 0.82855 0.0863 1.6715 0.28125 2.5 0.19495 0.81637 0.53011 1.5608 0.96875 2.2188 0.43864 0.65797 0.99298 1.1795 1.6875 1.5938 0.69451 0.41427 1.5443 0.625 2.5312 0.625 0.49956-0.000001 0.95542-0.11224 1.4062-0.34375 0.463-0.21932 0.92947-0.44381 1.3438-0.6875v0.8125h1.7188v-6.9688h-4.8125v1.6875h3.0625v2.4688c-0.17059 0.18277-0.37444 0.35379-0.59375 0.5-0.21933 0.14622-0.46288 0.26534-0.71875 0.375-0.2437 0.10966-0.48195 0.18908-0.75 0.25-0.25588 0.06092-0.50632 0.09375-0.75 0.09375-0.69452 0.000001-1.287-0.16414-1.75-0.46875-0.464-0.316-0.815-0.718-1.095-1.218-0.268-0.5-0.472-1.066-0.593-1.688-0.10966-0.6214-0.15625-1.2223-0.15625-1.8438-0.000001-0.6214 0.04659-1.2536 0.15625-1.875 0.12184-0.6214 0.32569-1.1879 0.59375-1.6875 0.28024-0.51174 0.64292-0.91413 1.0938-1.2188 0.46301-0.31678 1.0242-0.46874 1.7188-0.46875 0.43864 0.00001 0.82038 0.07255 1.125 0.21875 0.31679 0.13404 0.59317 0.3257 0.8125 0.59375 0.2315 0.26807 0.41628 0.59104 0.5625 0.96875 0.15839 0.37773 0.29658 0.80606 0.40625 1.2812l1.53-0.531c-0.134-0.634-0.3-1.195-0.531-1.719-0.219-0.524-0.509-0.997-0.875-1.375-0.353-0.377-0.782-0.649-1.281-0.844-0.5-0.207-1.08-0.312-1.75-0.312zm7.25 0v1.7812h5.7812c-0.18277 0.25158-0.36067 0.52969-0.53125 0.78125-0.1584 0.25158-0.32942 0.48586-0.5 0.75l-5.344 8.719v1.969h8.5625v-1.8438h-6.5938c0.37772-0.54088 0.78541-1.1024 1.1875-1.7188 0.40208-0.61635 0.79759-1.2335 1.1875-1.875 0.40208-0.6415 0.79759-1.296 1.1875-1.9375 0.3899-0.6415 0.74039-1.2651 1.0938-1.8438 0.35334-0.57861 0.67632-1.1032 0.96875-1.5938 0.3046-0.50313 0.56192-0.92904 0.78125-1.2812v-1.9062h-7.7812z"/>
    <path id="path3771" style="opacity:.2;stroke:#fff;stroke-width:4;fill:none" clip-path="url(#clipPath3321)" transform="translate(0,-30)" d="m23.344 80c-0.99914 0.000014-1.8489 0.21762-2.5312 0.65625-0.68234 0.42647-1.242 0.97393-1.6562 1.6562-0.41427 0.67016-0.69223 1.4405-0.875 2.2812-0.18277 0.84074-0.28125 1.6524-0.28125 2.4688-0.000001 0.82855 0.0863 1.6715 0.28125 2.5 0.19495 0.81637 0.53011 1.5608 0.96875 2.2188 0.43864 0.65797 0.99298 1.1795 1.6875 1.5938 0.69451 0.41427 1.5443 0.625 2.5312 0.625 0.49956-0.000001 0.95542-0.11224 1.4062-0.34375 0.463-0.21932 0.92947-0.44381 1.3438-0.6875v0.8125h1.7188v-6.9688h-4.8125v1.6875h3.0625v2.4688c-0.17059 0.18277-0.37444 0.35379-0.59375 0.5-0.21933 0.14622-0.46288 0.26534-0.71875 0.375-0.2437 0.10966-0.48195 0.18908-0.75 0.25-0.25588 0.06092-0.50632 0.09375-0.75 0.09375-0.69452 0.000001-1.287-0.16414-1.75-0.46875-0.464-0.316-0.815-0.718-1.095-1.218-0.268-0.5-0.472-1.066-0.593-1.688-0.10966-0.6214-0.15625-1.2223-0.15625-1.8438-0.000001-0.6214 0.04659-1.2536 0.15625-1.875 0.12184-0.6214 0.32569-1.1879 0.59375-1.6875 0.28024-0.51174 0.64292-0.91413 1.0938-1.2188 0.46301-0.31678 1.0242-0.46874 1.7188-0.46875 0.43864 0.00001 0.82038 0.07255 1.125 0.21875 0.31679 0.13404 0.59317 0.3257 0.8125 0.59375 0.2315 0.26807 0.41628 0.59104 0.5625 0.96875 0.15839 0.37773 0.29658 0.80606 0.40625 1.2812l1.53-0.531c-0.134-0.634-0.3-1.195-0.531-1.719-0.219-0.524-0.509-0.997-0.875-1.375-0.353-0.377-0.782-0.649-1.281-0.844-0.5-0.207-1.08-0.312-1.75-0.312zm7.25 0v1.7812h5.7812c-0.18277 0.25158-0.36067 0.52969-0.53125 0.78125-0.1584 0.25158-0.32942 0.48586-0.5 0.75l-5.344 8.719v1.969h8.5625v-1.8438h-6.5938c0.37772-0.54088 0.78541-1.1024 1.1875-1.7188 0.40208-0.61635 0.79759-1.2335 1.1875-1.875 0.40208-0.6415 0.79759-1.296 1.1875-1.9375 0.3899-0.6415 0.74039-1.2651 1.0938-1.8438 0.35334-0.57861 0.67632-1.1032 0.96875-1.5938 0.3046-0.50313 0.56192-0.92904 0.78125-1.2812v-1.9062h-7.7812z"/>
    <path id="path3310" style="opacity:.6;stroke:#fff;stroke-width:2;fill:none" clip-path="url(#clipPath3321)" transform="translate(0,-30)" d="m23.344 80c-0.99914 0.000014-1.8489 0.21762-2.5312 0.65625-0.68234 0.42647-1.242 0.97393-1.6562 1.6562-0.41427 0.67016-0.69223 1.4405-0.875 2.2812-0.18277 0.84074-0.28125 1.6524-0.28125 2.4688-0.000001 0.82855 0.0863 1.6715 0.28125 2.5 0.19495 0.81637 0.53011 1.5608 0.96875 2.2188 0.43864 0.65797 0.99298 1.1795 1.6875 1.5938 0.69451 0.41427 1.5443 0.625 2.5312 0.625 0.49956-0.000001 0.95542-0.11224 1.4062-0.34375 0.463-0.21932 0.92947-0.44381 1.3438-0.6875v0.8125h1.7188v-6.9688h-4.8125v1.6875h3.0625v2.4688c-0.17059 0.18277-0.37444 0.35379-0.59375 0.5-0.21933 0.14622-0.46288 0.26534-0.71875 0.375-0.2437 0.10966-0.48195 0.18908-0.75 0.25-0.25588 0.06092-0.50632 0.09375-0.75 0.09375-0.69452 0.000001-1.287-0.16414-1.75-0.46875-0.464-0.316-0.815-0.718-1.095-1.218-0.268-0.5-0.472-1.066-0.593-1.688-0.10966-0.6214-0.15625-1.2223-0.15625-1.8438-0.000001-0.6214 0.04659-1.2536 0.15625-1.875 0.12184-0.6214 0.32569-1.1879 0.59375-1.6875 0.28024-0.51174 0.64292-0.91413 1.0938-1.2188 0.46301-0.31678 1.0242-0.46874 1.7188-0.46875 0.43864 0.00001 0.82038 0.07255 1.125 0.21875 0.31679 0.13404 0.59317 0.3257 0.8125 0.59375 0.2315 0.26807 0.41628 0.59104 0.5625 0.96875 0.15839 0.37773 0.29658 0.80606 0.40625 1.2812l1.53-0.531c-0.134-0.634-0.3-1.195-0.531-1.719-0.219-0.524-0.509-0.997-0.875-1.375-0.353-0.377-0.782-0.649-1.281-0.844-0.5-0.207-1.08-0.312-1.75-0.312zm7.25 0v1.7812h5.7812c-0.18277 0.25158-0.36067 0.52969-0.53125 0.78125-0.1584 0.25158-0.32942 0.48586-0.5 0.75l-5.344 8.719v1.969h8.5625v-1.8438h-6.5938c0.37772-0.54088 0.78541-1.1024 1.1875-1.7188 0.40208-0.61635 0.79759-1.2335 1.1875-1.875 0.40208-0.6415 0.79759-1.296 1.1875-1.9375 0.3899-0.6415 0.74039-1.2651 1.0938-1.8438 0.35334-0.57861 0.67632-1.1032 0.96875-1.5938 0.3046-0.50313 0.56192-0.92904 0.78125-1.2812v-1.9062h-7.7812z"/>
    <path id="rect3201" style="fill:#252525" d="m66 6v55c0 1.662 1.338 3 3 3h6c1.662 0 3-1.338 3-3v-55h-4v2h-4v-2h-4z"/>
    <rect id="rect3247" style="fill:#4d4d4d" height="49" width="4" y="8" x="70"/>
    <rect id="rect3211" style="stroke:#000;stroke-width:.5;stroke-linecap:square;stroke-opacity:.56364;fill:url(#linearGradient3360)" rx="1" ry="1" height="4" width="6" y="56" x="69"/>
    <path id="path3231" style="filter:url(#filter3243);stroke:#000;stroke-linecap:square;stroke-width:2;fill:none" clip-path="url(#clipPath3235)" d="m66 6v55c0 1.662 1.338 3 3 3h6c1.662 0 3-1.338 3-3v-55h-4v2h-4v-2h-4z"/>
    <path id="rect3249" style="stroke:#000;stroke-width:.5;stroke-linecap:square;stroke-opacity:.56364;fill:url(#linearGradient3444)" d="m69.5 51c-0.27 0-0.5 0.218-0.5 0.5v3c0 0.28204 0.23023 0.5 0.5 0.5h1c0.26977 0 0.5-0.21796 0.5-0.5v-0.5h1.5c0.277 0 0.5-0.223 0.5-0.5v-1c0-0.277-0.223-0.5-0.5-0.5h-1.5v-0.5c0-0.282-0.23-0.5-0.5-0.5h-1z"/>
    <use id="use3308" xlink:href="#rect3249" transform="translate(0,-6)" height="96" width="96" y="0" x="0"/>
    <use id="use3310" xlink:href="#use3308" transform="translate(0,-6)" height="96" width="96" y="0" x="0"/>
    <use id="use3312" xlink:href="#use3310" transform="translate(0,-6)" height="96" width="96" y="0" x="0"/>
    <use id="use3314" xlink:href="#use3312" transform="translate(0,-6)" height="96" width="96" y="0" x="0"/>
    <use id="use3316" xlink:href="#use3314" transform="translate(0,-6)" height="96" width="96" y="0" x="0"/>
    <use id="use3318" xlink:href="#use3316" transform="translate(0,-6)" height="96" width="96" y="0" x="0"/>
    <use id="use3320" xlink:href="#use3318" transform="translate(0,-6)" height="96" width="96" y="0" x="0"/>
    <path id="path3322" style="stroke:#000;stroke-width:.5;stroke-linecap:square;stroke-opacity:.56364;fill:url(#linearGradient3446)" d="m74.5 48c0.26977 0 0.5 0.21796 0.5 0.5v3c0 0.28204-0.23023 0.5-0.5 0.5h-1c-0.27 0-0.5-0.218-0.5-0.5v-0.5h-1.5c-0.277 0-0.5-0.223-0.5-0.5v-1c0-0.277 0.223-0.5 0.5-0.5h1.5v-0.5c0-0.282 0.23-0.5 0.5-0.5h1z"/>
    <use id="use3340" xlink:href="#path3322" transform="translate(0,-6)" height="96" width="96" y="0" x="0"/>
    <use id="use3342" xlink:href="#use3340" transform="translate(0,-6)" height="96" width="96" y="0" x="0"/>
    <use id="use3344" xlink:href="#use3342" transform="translate(0,-6)" height="96" width="96" y="0" x="0"/>
    <use id="use3346" xlink:href="#use3344" transform="translate(0,-6)" height="96" width="96" y="0" x="0"/>
    <use id="use3348" xlink:href="#use3346" transform="translate(0,-6)" height="96" width="96" y="0" x="0"/>
    <use id="use3350" xlink:href="#use3348" transform="translate(0,-6)" height="96" width="96" y="0" x="0"/>
    <path id="path3376" style="fill:url(#linearGradient3393)" d="m65 6v55c0 2.2023 1.7977 4 4 4h6c2.2023 0 4-1.7977 4-4v-55h-1v55c0 1.662-1.338 3-3 3h-6c-1.662 0-3-1.338-3-3v-55h-1z"/>
    <path id="path3433" style="filter:url(#filter3429);stroke:#000;stroke-linecap:square;stroke-opacity:.56364;stroke-width:.5" transform="translate(0,-2)" d="m69.5 10.531c-1.0277 0-1.9688 0.7652-1.9688 1.8125v10.812c0 1.048 0.918 1.844 1.969 1.844h5c1.0507 0 1.9688-0.79645 1.9688-1.8438v-10.812c-0.000003-1.0473-0.94105-1.8125-1.9688-1.8125h-5zm1.0625 9.0625h2.875v1.75h-2.875v-1.75z"/>
    <path id="rect3403" style="fill:url(#linearGradient3516)" d="m69.229 9.0214c-0.687 0-1.229 0.4824-1.229 1.0816l-0.005 10.815c0 0.6 0.542 1.082 1.229 1.082h5.5832c0.68714 0 1.2292-0.48237 1.2292-1.0815l0.0051-10.815c0-0.59918-0.54211-1.0815-1.2292-1.0815h-5.5832zm0.7043 7.9496h4.1013v3.1184h-4.1013v-3.1184z"/>
    <path id="rect3470" style="fill:url(#linearGradient3489)" d="m74.562 9.9688c0.277 0 0.5 0.223 0.5 0.5v10.062c0 0.277-0.223 0.5-0.5 0.5h-5.0938c-0.277 0-0.5-0.223-0.5-0.5v-10.062c0-0.277 0.223-0.5 0.5-0.5h5.0938zm-0.4375 6.9688h-4.125v3.125h4.125v-3.125z"/>
    <rect id="rect3399" style="stroke:#000;stroke-linecap:square;stroke-opacity:.56364;fill:url(#linearGradient3530)" rx=".56313" ry=".5" height="5" width="3.3788" y="7.5" x="70.311"/>
    <rect id="rect3518" style="opacity:.3" height="1" width="4" y="16" x="69.985"/>
    <path id="path2538" style="fill:#333" d="m23.344 50c-0.99914 0.000014-1.8489 0.21762-2.5312 0.65625-0.68234 0.42647-1.242 0.97393-1.6562 1.6562-0.41427 0.67016-0.69223 1.4405-0.875 2.2812-0.18277 0.84074-0.28125 1.6524-0.28125 2.4688-0.000001 0.82855 0.0863 1.6715 0.28125 2.5 0.19495 0.81637 0.53011 1.5608 0.96875 2.2188 0.43864 0.65797 0.99298 1.1795 1.6875 1.5938 0.69451 0.41427 1.5443 0.625 2.5312 0.625 0.49956-0.000001 0.95542-0.11224 1.4062-0.34375 0.463-0.21932 0.92947-0.44381 1.3438-0.6875v0.8125h1.7188v-6.9688h-4.8125v1.6875h3.0625v2.4688c-0.17059 0.18277-0.37444 0.35379-0.59375 0.5-0.21933 0.14622-0.46288 0.26534-0.71875 0.375-0.2437 0.10966-0.48195 0.18908-0.75 0.25-0.25588 0.06092-0.50632 0.09375-0.75 0.09375-0.69452 0.000001-1.287-0.16414-1.75-0.46875-0.464-0.316-0.815-0.718-1.095-1.218-0.268-0.5-0.472-1.066-0.593-1.688-0.10966-0.6214-0.15625-1.2223-0.15625-1.8438-0.000001-0.6214 0.04659-1.2536 0.15625-1.875 0.12184-0.6214 0.32569-1.1879 0.59375-1.6875 0.28024-0.51174 0.64292-0.91413 1.0938-1.2188 0.46301-0.31678 1.0242-0.46874 1.7188-0.46875 0.43864 0.00001 0.82038 0.07255 1.125 0.21875 0.31679 0.13404 0.59317 0.3257 0.8125 0.59375 0.2315 0.26807 0.41628 0.59104 0.5625 0.96875 0.15839 0.37773 0.29658 0.80606 0.40625 1.2812l1.53-0.531c-0.134-0.634-0.3-1.195-0.531-1.719-0.219-0.524-0.509-0.997-0.875-1.375-0.353-0.377-0.782-0.649-1.281-0.844-0.5-0.207-1.08-0.312-1.75-0.312zm7.25 0v1.7812h5.7812c-0.18277 0.25158-0.36067 0.52969-0.53125 0.78125-0.1584 0.25158-0.32942 0.48586-0.5 0.75l-5.344 8.719v1.969h8.5625v-1.8438h-6.5938c0.37772-0.54088 0.78541-1.1024 1.1875-1.7188 0.40208-0.61635 0.79759-1.2335 1.1875-1.875 0.40208-0.6415 0.79759-1.296 1.1875-1.9375 0.3899-0.6415 0.74039-1.2651 1.0938-1.8438 0.35334-0.57861 0.67632-1.1032 0.96875-1.5938 0.3046-0.50313 0.56192-0.92904 0.78125-1.2812v-1.9062h-7.7812z"/>
    <path id="path2535" style="opacity:.4" d="m23.344 50c-0.99914 0.000014-1.8489 0.21762-2.5312 0.65625-0.68234 0.42647-1.242 0.97393-1.6562 1.6562-0.41427 0.67016-0.69223 1.4405-0.875 2.2812-0.18277 0.84074-0.28125 1.6524-0.28125 2.4688 0 0.16581 0.02416 0.33327 0.03125 0.5 0.03165-0.6484 0.10474-1.3006 0.25-1.9688 0.18277-0.84072 0.46073-1.6111 0.875-2.2812 0.41427-0.68232 0.97392-1.2298 1.6562-1.6562 0.68233-0.43863 1.5321-0.65624 2.5312-0.65625 0.67014 0.000014 1.2504 0.10538 1.75 0.3125 0.49956 0.19496 0.92789 0.46604 1.2812 0.84375 0.36553 0.37773 0.65567 0.85108 0.875 1.375 0.11187 0.2532 0.2275 0.50669 0.3125 0.78125l0.218-0.062c-0.134-0.634-0.3-1.195-0.531-1.719-0.219-0.524-0.509-0.997-0.875-1.375-0.353-0.377-0.782-0.649-1.281-0.844-0.5-0.207-1.08-0.312-1.75-0.312zm7.25 0v1h7.7812v-1h-7.7812zm5.0938 2.7812c-0.11565 0.17229-0.22402 0.34584-0.34375 0.53125l-5.344 8.719v1l5.3438-8.7188c0.17058-0.26414 0.3416-0.49842 0.5-0.75 0.17058-0.25156 0.34848-0.52967 0.53125-0.78125h-0.6875zm-12.562 4.0312v1h4.8125v-1h-4.8125zm-3.3125 0.65625c-0.007 0.16699-0.03125 0.33413-0.03125 0.5-0.000002 0.62142 0.04659 1.2223 0.15625 1.8438 0.12184 0.62141 0.32569 1.1879 0.59375 1.6875 0.28024 0.49957 0.63074 0.90196 1.0938 1.2188 0.46301 0.30462 1.0555 0.46875 1.75 0.46875 0.24368 0.000002 0.49412-0.03283 0.75-0.09375 0.26805-0.06092 0.5063-0.14034 0.75-0.25 0.25587-0.10966 0.49942-0.22878 0.71875-0.375 0.21931-0.14621 0.42316-0.31723 0.59375-0.5v-1c-0.17059 0.18277-0.37444 0.35379-0.59375 0.5-0.21933 0.14622-0.46288 0.26534-0.71875 0.375-0.2437 0.10966-0.48195 0.18908-0.75 0.25-0.25588 0.06092-0.50632 0.09375-0.75 0.09375-0.69452 0.000001-1.287-0.16414-1.75-0.46875-0.464-0.316-0.815-0.718-1.095-1.218-0.268-0.5-0.472-1.066-0.593-1.688-0.081-0.455-0.106-0.894-0.126-1.343zm12.844 4.6875c-0.23267 0.33482-0.46809 0.68581-0.6875 1h6.5938v-1h-5.9062z"/>
   </g>
  </g>
  <rect id="rect3003" style="opacity:.15;fill:#fff" clip-path="url(#clipPath3009)" rx="25" ry="25" transform="translate(98 3.8281e-7)" width="92" y="958.36" x="-96" height="92"/>
 </g>
</svg>
