<?xml version="1.0" encoding="UTF-8" standalone="no"?>
<!-- Created with Inkscape (http://www.inkscape.org/) -->
<svg id="svg11037" xmlns:rdf="http://www.w3.org/1999/02/22-rdf-syntax-ns#" xmlns="http://www.w3.org/2000/svg" height="96" width="96" version="1.1" xmlns:cc="http://creativecommons.org/ns#" xmlns:xlink="http://www.w3.org/1999/xlink" xmlns:dc="http://purl.org/dc/elements/1.1/">
 <defs id="defs11039">
  <linearGradient id="linearGradient3706" y2="5.9877" gradientUnits="userSpaceOnUse" y1="90" x2="48" x1="48">
   <stop id="stop3702" style="stop-color:#4885bd" offset="0"/>
   <stop id="stop3704" style="stop-color:#91b5d7" offset="1"/>
  </linearGradient>
  <linearGradient id="linearGradient2919" y2="138.66" gradientUnits="userSpaceOnUse" y1="20.221" x2="48" x1="48">
   <stop id="stop3739-2" style="stop-color:#fff" offset="0"/>
   <stop id="stop3741-1" style="stop-color:#fff;stop-opacity:0" offset="1"/>
  </linearGradient>
  <clipPath id="clipPath3613">
   <rect id="rect3615" style="fill:#fff" rx="6" ry="6" height="84" width="84" y="6" x="6"/>
  </clipPath>
  <filter id="filter3794" width="1.384" y="-.192" x="-.192" height="1.384" color-interpolation-filters="sRGB">
   <feGaussianBlur id="feGaussianBlur3796" stdDeviation="5.28"/>
  </filter>
  <linearGradient id="linearGradient3710" x1="10" xlink:href="#linearGradient3704" gradientUnits="userSpaceOnUse" y1="11.5" gradientTransform="matrix(1.3572 0 0 1 -5.572 13)" x2="69" y2="11.5"/>
  <linearGradient id="linearGradient3704">
   <stop id="stop3706" style="stop-color:#fff;stop-opacity:0" offset="0"/>
   <stop id="stop3714" style="stop-color:#fff" offset=".15"/>
   <stop id="stop3716" style="stop-color:#fff" offset=".7"/>
   <stop id="stop3708" style="stop-color:#fff;stop-opacity:0" offset="1"/>
  </linearGradient>
  <linearGradient id="linearGradient3720" x1="10" xlink:href="#linearGradient3704" gradientUnits="userSpaceOnUse" y1="11.5" gradientTransform="matrix(1.0007 0 0 .83642 5.9933 -25.119)" x2="69" y2="11.5"/>
  <linearGradient id="linearGradient3726" x1="10" xlink:href="#linearGradient3704" gradientUnits="userSpaceOnUse" y1="11.5" gradientTransform="matrix(.99976 0 0 .83079 7.0024 -90.054)" x2="69" y2="11.5"/>
  <linearGradient id="linearGradient3729" x1="10" xlink:href="#linearGradient3704" gradientUnits="userSpaceOnUse" y1="11.5" gradientTransform="matrix(1.1017 0 0 1 -96.017 -86)" x2="69" y2="11.5"/>
  <linearGradient id="linearGradient4204" x1="10" xlink:href="#linearGradient3704" gradientUnits="userSpaceOnUse" y1="11.5" gradientTransform="matrix(1.2301 0 0 1 -2.3012 21)" x2="69" y2="11.5"/>
  <linearGradient id="linearGradient4238" x1="38" xlink:href="#linearGradient4232" gradientUnits="userSpaceOnUse" x2="78" y1="41" y2="41"/>
  <linearGradient id="linearGradient4232">
   <stop id="stop4234" style="stop-color:#fff" offset="0"/>
   <stop id="stop4236" style="stop-color:#fff;stop-opacity:0" offset="1"/>
  </linearGradient>
  <linearGradient id="linearGradient4292" x1="38" xlink:href="#linearGradient4232" gradientUnits="userSpaceOnUse" x2="89" y1="41" y2="41"/>
  <linearGradient id="linearGradient4290" x1="36" xlink:href="#linearGradient4232" gradientUnits="userSpaceOnUse" x2="89" y1="51.314" y2="51"/>
  <clipPath id="clipPath3420" clipPathUnits="userSpaceOnUse">
   <rect id="rect3422" style="fill:url(#linearGradient3424)" rx="22.826" ry="22.826" height="84" width="84" y="6" x="6"/>
  </clipPath>
  <linearGradient id="linearGradient3424" x1="48" gradientUnits="userSpaceOnUse" y1="962.62" gradientTransform="matrix(1.05 0 0 1.05 -2.4 -1006.6)" x2="48" y2="1046.1">
   <stop id="stop3797" style="stop-color:#13a6fd" offset="0"/>
   <stop id="stop3799" style="stop-color:#2975b6" offset="1"/>
  </linearGradient>
  <clipPath id="clipPath3009" clipPathUnits="userSpaceOnUse">
   <path id="path3011" style="opacity:.15;fill:#fff" d="m-2 956.36h-96v33.562l96 25.687v-59.25z"/>
  </clipPath>
 </defs>
 <metadata id="metadata11042">
  <rdf:RDF>
   <cc:Work rdf:about="">
    <dc:format>image/svg+xml</dc:format>
    <dc:type rdf:resource="http://purl.org/dc/dcmitype/StillImage"/>
    <dc:title/>
   </cc:Work>
  </rdf:RDF>
 </metadata>
 <g id="layer1" transform="translate(0 -956.36)">
  <g id="g3094" transform="matrix(1.0952 0 0 1.0952 -4.5714 951.79)" clip-path="url(#clipPath3420)">
   <rect id="rect2419" style="fill:url(#linearGradient3706)" rx="6" ry="6" height="84" width="84" y="6" x="6"/>
   <path id="rect3679" style="opacity:.1;color:#000000;fill:#fff" d="m6 16v1h84v-1h-84zm0 16v1h84v-1h-84zm0 16v1h84v-1h-84zm0 16v1h84v-1h-84zm0 16v1h84v-1h-84z"/>
   <path id="rect3689" style="opacity:.1;color:#000000;fill:#fff" d="m80 6h-1v84h1v-84zm-16 0h-1v84h1v-84zm-16 0h-1v84h1v-84zm-16 0h-1v84h1v-84zm-16 0h-1v84h1v-84z"/>
   <g id="layer4">
    <rect id="rect3171" style="opacity:.15;filter:url(#filter3794);stroke:#fff;stroke-linecap:round;stroke-width:.5;fill:url(#linearGradient2919)" clip-path="url(#clipPath3613)" rx="12" ry="12" height="66" width="66" y="15" x="15"/>
   </g>
   <g id="layer3">
    <rect id="rect3702" style="opacity:.7;color:#000000;fill:url(#linearGradient3710)" height="1" width="80.075" y="24" x="8"/>
    <rect id="rect3718" style="opacity:.7;color:#000000;fill:url(#linearGradient3720)" transform="rotate(90)" height=".83642" width="59.04" y="-15.918" x="16"/>
    <rect id="rect3722" style="opacity:.7;color:#000000;fill:url(#linearGradient3726)" transform="rotate(90)" height=".83079" width="58.986" y="-80.915" x="17"/>
    <rect id="rect3724" style="opacity:.7;color:#000000;fill:url(#linearGradient3729)" transform="scale(-1)" height="1" width="65" y="-75" x="-85"/>
    <rect id="rect4202" style="opacity:.5;color:#000000;fill:url(#linearGradient4204)" height="1" width="72.577" y="32" x="10"/>
    <path id="path4214" style="opacity:.6;color:#000000;fill:#fff" transform="translate(2)" d="m76 29a2 2 0 1 1 -4 0 2 2 0 1 1 4 0z"/>
    <path id="path4216" style="opacity:.4;color:#000000;fill:#fff" transform="translate(-4)" d="m76 29a2 2 0 1 1 -4 0 2 2 0 1 1 4 0z"/>
    <path id="path4218" style="opacity:.4;color:#000000;fill:#fff" transform="translate(-10)" d="m76 29a2 2 0 1 1 -4 0 2 2 0 1 1 4 0z"/>
    <path id="path4220" style="opacity:.6;color:#000000;stroke:#fff;stroke-width:1.2;fill:none" transform="matrix(.83333 0 0 .83333 2.5 5.1667)" d="m30 43a3 3 0 1 1 -6 0 3 3 0 1 1 6 0z"/>
    <path id="path4222" style="opacity:.6;color:#000000;stroke:#fff;stroke-width:1.2;fill:none" transform="matrix(.83333 0 0 .83333 2.5 15.167)" d="m30 43a3 3 0 1 1 -6 0 3 3 0 1 1 6 0z"/>
    <g id="text4224" style="opacity:.6;fill:url(#linearGradient4238)">
     <path id="path4243" style="fill:url(#linearGradient4238)" d="m31.457 43v-3.9547h2.6478v0.74756h-1.7576v0.82745h1.5636v0.74756h-1.5636v1.6321h-0.89022"/>
     <path id="path4245" style="fill:url(#linearGradient4238)" d="m35.527 43h-0.85028v-3.0017h0.85028v3.0017m0.07989-3.8691c-0.000002 0.15598-0.05136 0.27962-0.15408 0.37093-0.09891 0.0875-0.21685 0.13125-0.35381 0.13125-0.13696 0.000003-0.2568-0.04375-0.35951-0.13125-0.09891-0.0913-0.14837-0.21494-0.14837-0.37093-0.000001-0.15598 0.04946-0.27772 0.14837-0.36522 0.10272-0.0913 0.22256-0.13695 0.35951-0.13696 0.13696 0.000004 0.25489 0.04566 0.35381 0.13696 0.10272 0.08751 0.15408 0.20924 0.15408 0.36522"/>
     <path id="path4247" style="fill:url(#linearGradient4238)" d="m38.135 40.752c-0.07609-0.01902-0.16549-0.03804-0.26821-0.05707-0.10272-0.02282-0.21305-0.03424-0.33098-0.03424-0.05326 0.000003-0.11794 0.0057-0.19402 0.01712-0.07229 0.0076-0.12745 0.01712-0.16549 0.02853v2.294h-0.85028v-2.8419c0.15217-0.05326 0.33098-0.10272 0.53642-0.14837 0.20924-0.04945 0.44131-0.07418 0.6962-0.07418 0.04565 0.000003 0.10082 0.0038 0.16549 0.01141 0.06467 0.0038 0.12935 0.01142 0.19402 0.02283 0.06467 0.0076 0.12935 0.01902 0.19402 0.03424 0.06467 0.01142 0.11984 0.02663 0.16549 0.04565l-0.14266 0.70191"/>
     <path id="path4249" style="fill:url(#linearGradient4238)" d="m39.595 42.389c0.15598 0.000001 0.2663-0.01522 0.33098-0.04565 0.06467-0.03043 0.09701-0.0894 0.09701-0.1769-0.000001-0.06848-0.04185-0.12745-0.12554-0.1769-0.0837-0.05326-0.21114-0.11223-0.38234-0.1769-0.13315-0.04946-0.25489-0.10082-0.36522-0.15408-0.10652-0.05326-0.19783-0.11603-0.27392-0.18832-0.07609-0.07609-0.13506-0.16549-0.1769-0.26821-0.04185-0.10272-0.06277-0.22636-0.06277-0.37093 0-0.28152 0.10462-0.50408 0.31386-0.66767 0.20924-0.16358 0.49647-0.24538 0.86169-0.24538 0.18261 0.000003 0.35761 0.01712 0.525 0.05136 0.16739 0.03044 0.30054 0.06468 0.39946 0.10272l-0.14837 0.66196c-0.09892-0.03424-0.20734-0.06467-0.32528-0.0913-0.11413-0.02663-0.24348-0.03994-0.38805-0.03995-0.26631 0.000002-0.39946 0.07419-0.39946 0.22256-0.000001 0.03424 0.0057 0.06468 0.01712 0.0913 0.01141 0.02663 0.03424 0.05326 0.06848 0.07989 0.03424 0.02283 0.07989 0.04946 0.13696 0.07989 0.06087 0.02663 0.13696 0.05707 0.22826 0.0913 0.18641 0.06848 0.34049 0.13696 0.46223 0.20544 0.12174 0.06468 0.21685 0.13696 0.28533 0.21685 0.07228 0.07609 0.12174 0.16169 0.14837 0.2568 0.03043 0.09511 0.04565 0.20544 0.04565 0.33098-0.000002 0.29674-0.11223 0.5212-0.33669 0.67338-0.22066 0.15218-0.53452 0.22826-0.94158 0.22826-0.26631 0-0.48886-0.02283-0.66767-0.06848-0.175-0.04565-0.29674-0.0837-0.36522-0.11413l0.14266-0.6905c0.14457 0.05707 0.29294 0.10272 0.44511 0.13696 0.15217 0.03044 0.30245 0.04565 0.45082 0.04565"/>
     <path id="path4251" style="fill:url(#linearGradient4238)" d="m41.469 39.251 0.85028-0.13696v0.88452h1.0215v0.70762h-1.0215v1.0557c-0.000001 0.17881 0.03043 0.32147 0.09131 0.42799 0.06467 0.10652 0.19212 0.15978 0.38234 0.15978 0.0913 0.000001 0.18451-0.0076 0.27962-0.02283 0.09891-0.01902 0.18832-0.04375 0.26821-0.07418l0.11984 0.66196c-0.10272 0.04185-0.21685 0.07799-0.34239 0.10842-0.12555 0.03043-0.27962 0.04565-0.46223 0.04565-0.23207 0-0.42419-0.03044-0.57636-0.09131-0.15218-0.06468-0.27392-0.15218-0.36522-0.2625-0.0913-0.11413-0.15598-0.25109-0.19402-0.41087-0.03424-0.15978-0.05136-0.33669-0.05136-0.53071v-2.5223"/>
     <path id="path4253" style="fill:url(#linearGradient4238)" d="m48.206 41.493c-0.000003 0.23587-0.03424 0.45272-0.10272 0.65055-0.06848 0.19402-0.1674 0.36142-0.29674 0.50218-0.12935 0.13696-0.28533 0.24348-0.46794 0.31957-0.17881 0.07609-0.38044 0.11413-0.6049 0.11413-0.22066 0-0.42229-0.03804-0.6049-0.11413-0.17881-0.07609-0.33288-0.18261-0.46223-0.31957-0.12935-0.14076-0.23017-0.30815-0.30245-0.50218-0.07228-0.19783-0.10842-0.41468-0.10842-0.65055s0.03614-0.45082 0.10842-0.64484c0.07609-0.19402 0.1788-0.35951 0.30815-0.49647 0.13315-0.13696 0.28913-0.24348 0.46794-0.31957 0.18261-0.07608 0.38044-0.11413 0.59348-0.11413 0.21685 0.000003 0.41468 0.03805 0.59348 0.11413 0.18261 0.07609 0.33859 0.18261 0.46794 0.31957s0.23016 0.30245 0.30245 0.49647c0.07228 0.19402 0.10842 0.40897 0.10842 0.64484m-0.8674 0c-0.000002-0.2625-0.05326-0.46794-0.15978-0.61631-0.10272-0.15217-0.25109-0.22826-0.44511-0.22826-0.19402 0.000002-0.3443 0.07609-0.45082 0.22826-0.10652 0.14837-0.15978 0.35381-0.15978 0.61631-0.000001 0.2625 0.05326 0.47174 0.15978 0.62772 0.10652 0.15218 0.25679 0.22826 0.45082 0.22826 0.19402 0.000001 0.34239-0.07609 0.44511-0.22826 0.10652-0.15598 0.15978-0.36522 0.15978-0.62772"/>
     <path id="path4255" style="fill:url(#linearGradient4238)" d="m50.788 41.522c-0.000003-0.2625-0.05897-0.47174-0.1769-0.62772-0.11794-0.15978-0.29294-0.23967-0.525-0.23968-0.07609 0.000002-0.14647 0.0038-0.21114 0.01141-0.06468 0.0038-0.11794 0.0095-0.15978 0.01712v1.5351c0.05326 0.03424 0.12174 0.06277 0.20544 0.0856 0.0875 0.02283 0.175 0.03424 0.2625 0.03424 0.40326 0.000001 0.60489-0.27201 0.6049-0.81604m0.8674-0.02283c-0.000003 0.23207-0.02854 0.44321-0.0856 0.63343-0.05707 0.19022-0.14076 0.35381-0.25109 0.49076-0.11033 0.13696-0.24729 0.24348-0.41087 0.31957-0.16359 0.07609-0.35191 0.11413-0.56495 0.11413-0.11794 0-0.22826-0.01141-0.33098-0.03424-0.103-0.023-0.202-0.055-0.297-0.097v1.1299h-0.85028v-3.9547c0.07609-0.02282 0.16359-0.04375 0.2625-0.06277 0.09891-0.02282 0.20163-0.04185 0.30816-0.05707 0.11033-0.01521 0.22065-0.02663 0.33098-0.03424 0.11413-0.01141 0.22256-0.01712 0.32527-0.01712 0.24728 0.000003 0.46794 0.03805 0.66196 0.11413 0.19402 0.07229 0.35761 0.17691 0.49076 0.31386 0.13315 0.13316 0.23397 0.29674 0.30245 0.49076 0.07228 0.19402 0.10842 0.41088 0.10842 0.65055"/>
     <path id="path4257" style="fill:url(#linearGradient4292)" d="m52.28 39.251 0.85028-0.13696v0.88452h1.0215v0.70762h-1.0215v1.0557c-0.000001 0.17881 0.03043 0.32147 0.09131 0.42799 0.06467 0.10652 0.19212 0.15978 0.38234 0.15978 0.0913 0.000001 0.18451-0.0076 0.27962-0.02283 0.09891-0.01902 0.18832-0.04375 0.26821-0.07418l0.11984 0.66196c-0.10272 0.04185-0.21685 0.07799-0.34239 0.10842-0.12555 0.03043-0.27962 0.04565-0.46223 0.04565-0.23207 0-0.42419-0.03044-0.57636-0.09131-0.15218-0.06468-0.27392-0.15218-0.36522-0.2625-0.09131-0.11413-0.15598-0.25109-0.19402-0.41087-0.03424-0.15978-0.05136-0.33669-0.05136-0.53071v-2.5223"/>
     <path id="path4259" style="fill:url(#linearGradient4238)" d="m55.689 43h-0.85028v-3.0017h0.85028v3.0017m0.07989-3.8691c-0.000002 0.15598-0.05136 0.27962-0.15408 0.37093-0.09891 0.0875-0.21685 0.13125-0.35381 0.13125-0.13696 0.000003-0.2568-0.04375-0.35951-0.13125-0.09891-0.0913-0.14837-0.21494-0.14837-0.37093-0.000001-0.15598 0.04946-0.27772 0.14837-0.36522 0.10272-0.0913 0.22256-0.13695 0.35951-0.13696 0.13696 0.000004 0.25489 0.04566 0.35381 0.13696 0.10272 0.08751 0.15408 0.20924 0.15408 0.36522"/>
     <path id="path4261" style="fill:url(#linearGradient4238)" d="m59.296 41.493c-0.000003 0.23587-0.03424 0.45272-0.10272 0.65055-0.06848 0.19402-0.1674 0.36142-0.29674 0.50218-0.12935 0.13696-0.28533 0.24348-0.46794 0.31957-0.17881 0.07609-0.38044 0.11413-0.6049 0.11413-0.22066 0-0.42229-0.03804-0.6049-0.11413-0.17881-0.07609-0.33288-0.18261-0.46223-0.31957-0.12935-0.14076-0.23016-0.30815-0.30245-0.50218-0.07228-0.19783-0.10842-0.41468-0.10842-0.65055s0.03614-0.45082 0.10842-0.64484c0.07609-0.19402 0.1788-0.35951 0.30816-0.49647 0.13315-0.13696 0.28913-0.24348 0.46794-0.31957 0.18261-0.07608 0.38044-0.11413 0.59348-0.11413 0.21685 0.000003 0.41468 0.03805 0.59348 0.11413 0.18261 0.07609 0.33859 0.18261 0.46794 0.31957s0.23016 0.30245 0.30245 0.49647c0.07228 0.19402 0.10842 0.40897 0.10842 0.64484m-0.8674 0c-0.000002-0.2625-0.05326-0.46794-0.15978-0.61631-0.10272-0.15217-0.25109-0.22826-0.44511-0.22826-0.19402 0.000002-0.3443 0.07609-0.45082 0.22826-0.10652 0.14837-0.15978 0.35381-0.15978 0.61631-0.000002 0.2625 0.05326 0.47174 0.15978 0.62772 0.10652 0.15218 0.25679 0.22826 0.45082 0.22826 0.19402 0.000001 0.34239-0.07609 0.44511-0.22826 0.10652-0.15598 0.15978-0.36522 0.15978-0.62772"/>
     <path id="path4263" style="fill:url(#linearGradient4238)" d="m59.955 40.101c0.14457-0.04185 0.33098-0.07989 0.55924-0.11413 0.22826-0.03804 0.46794-0.05706 0.71903-0.05707 0.25489 0.000003 0.46603 0.03424 0.63343 0.10272 0.17119 0.06468 0.30625 0.15788 0.40517 0.27962 0.09891 0.12174 0.16929 0.26631 0.21114 0.4337s0.06277 0.35381 0.06277 0.55924v1.6949h-0.85028v-1.5921c-0.000002-0.27391-0.03614-0.46794-0.10842-0.58207-0.07229-0.11413-0.20734-0.1712-0.40517-0.1712-0.06087 0.000002-0.12555 0.0038-0.19402 0.01141-0.06848 0.0038-0.12935 0.0095-0.18261 0.01712v2.3169h-0.85028v-2.8989"/>
    </g>
    <g id="text4228" style="opacity:.6;fill:url(#linearGradient4290)">
     <path id="path4266" style="fill:url(#linearGradient4290)" d="m32.535 52.321c0.12554 0.000001 0.22826-0.0095 0.30815-0.02853 0.08369-0.02283 0.15027-0.05136 0.19973-0.0856 0.04945-0.03804 0.08369-0.08179 0.10272-0.13125 0.01902-0.04946 0.02853-0.10462 0.02853-0.16549-0.000002-0.12935-0.06087-0.23587-0.18261-0.31957-0.12174-0.0875-0.33098-0.18071-0.62772-0.27962-0.12935-0.04565-0.2587-0.09701-0.38805-0.15408-0.12935-0.06087-0.24538-0.13505-0.3481-0.22256-0.10272-0.0913-0.18642-0.19973-0.25109-0.32527-0.06467-0.12935-0.09701-0.28533-0.09701-0.46794s0.03424-0.3462 0.10272-0.49076c0.06848-0.14837 0.16549-0.27391 0.29104-0.37663 0.12554-0.10271 0.27772-0.1807 0.45652-0.23397 0.1788-0.05706 0.38044-0.08559 0.6049-0.0856 0.2663 0.000005 0.49647 0.02854 0.69049 0.0856 0.19402 0.05707 0.3538 0.11984 0.47935 0.18832l-0.2568 0.70191c-0.11033-0.05706-0.23397-0.10652-0.37093-0.14837-0.13316-0.04565-0.29484-0.06848-0.48506-0.06848-0.21305 0.000003-0.36712 0.03044-0.46223 0.0913-0.09131 0.05707-0.13696 0.14647-0.13696 0.26821-0.000002 0.07229 0.01712 0.13316 0.05136 0.18261 0.03424 0.04946 0.08179 0.09511 0.14266 0.13696 0.06467 0.03805 0.13696 0.07419 0.21685 0.10842 0.08369 0.03044 0.175 0.06278 0.27392 0.09701 0.20543 0.07609 0.38424 0.15218 0.53642 0.22826 0.15217 0.07229 0.27772 0.15788 0.37663 0.2568 0.10272 0.09892 0.1788 0.21495 0.22826 0.3481 0.04945 0.13316 0.07418 0.29484 0.07419 0.48506-0.000003 0.36903-0.12935 0.65626-0.38805 0.86169-0.2587 0.20163-0.64865 0.30245-1.1698 0.30245-0.175 0-0.33288-0.01141-0.47364-0.03424-0.14076-0.01902-0.26631-0.04375-0.37663-0.07419-0.10652-0.03043-0.19973-0.06277-0.27962-0.09701-0.07609-0.03424-0.14076-0.06658-0.19402-0.09701l0.25109-0.70762c0.11794 0.06468 0.2625 0.12364 0.4337 0.1769 0.175 0.04946 0.38804 0.07419 0.63914 0.07418"/>
     <path id="path4268" style="fill:url(#linearGradient4290)" d="m34.578 51.522c0-0.2663 0.03995-0.49837 0.11984-0.6962 0.0837-0.20163 0.19212-0.36902 0.32528-0.50218 0.13315-0.13315 0.28533-0.23397 0.45652-0.30245 0.175-0.06848 0.35381-0.10272 0.53642-0.10272 0.42609 0.000003 0.76278 0.13125 1.0101 0.39375 0.24728 0.2587 0.37092 0.64104 0.37093 1.147-0.000003 0.04946-0.0019 0.10462-0.0057 0.16549-0.0038 0.05707-0.0076 0.10843-0.01141 0.15408h-1.9288c0.01902 0.175 0.10082 0.31386 0.24538 0.41658s0.33859 0.15408 0.58207 0.15408c0.15598 0.000001 0.30815-0.01331 0.45652-0.03995 0.15217-0.03043 0.27582-0.06658 0.37093-0.10842l0.11413 0.69049c-0.04566 0.02283-0.10652 0.04565-0.18261 0.06848s-0.16169 0.04185-0.2568 0.05707c-0.09131 0.01902-0.19022 0.03424-0.29674 0.04565s-0.21305 0.01712-0.31957 0.01712c-0.27011 0-0.50598-0.03995-0.70761-0.11984-0.19783-0.07989-0.36332-0.18832-0.49647-0.32527-0.12935-0.14076-0.22636-0.30625-0.29103-0.49647-0.06087-0.19022-0.09131-0.39565-0.09131-0.61631m1.9973-0.32527c-0.0038-0.07228-0.01712-0.14266-0.03995-0.21114-0.01902-0.06848-0.05136-0.12935-0.09701-0.18261-0.04185-0.05326-0.09701-0.09701-0.16549-0.13125-0.06468-0.03424-0.14647-0.05136-0.24538-0.05136-0.09511 0.000003-0.1769 0.01712-0.24538 0.05136-0.06848 0.03044-0.12555 0.07229-0.1712 0.12554-0.04565 0.05326-0.08179 0.11604-0.10842 0.18832-0.02283 0.06848-0.03995 0.13886-0.05136 0.21114h1.1242"/>
     <path id="path4270" style="fill:url(#linearGradient4290)" d="m37.911 51.499c0-0.21685 0.03424-0.42038 0.10272-0.6106 0.07228-0.19402 0.175-0.36141 0.30816-0.50218 0.13315-0.14456 0.29484-0.2587 0.48506-0.34239s0.40707-0.12554 0.65055-0.12554c0.15978 0.000003 0.30625 0.01522 0.4394 0.04565 0.13315 0.02663 0.2625 0.06658 0.38805 0.11984l-0.1769 0.67908c-0.07989-0.03043-0.16739-0.05706-0.2625-0.07989-0.09511-0.02282-0.20163-0.03424-0.31957-0.03424-0.25109 0.000002-0.43941 0.07799-0.56495 0.23397-0.12174 0.15598-0.18261 0.36142-0.18261 0.61631-0.000001 0.27011 0.05707 0.47935 0.1712 0.62772 0.11794 0.14837 0.32147 0.22256 0.6106 0.22256 0.10272 0.000001 0.21304-0.0095 0.33098-0.02853 0.11793-0.01902 0.22636-0.04946 0.32527-0.0913l0.11984 0.6962c-0.09892 0.04185-0.22256 0.07799-0.37093 0.10842s-0.31196 0.04565-0.49076 0.04565c-0.27392 0-0.50979-0.03995-0.70761-0.11984-0.19783-0.0837-0.36142-0.19592-0.49076-0.33669-0.12554-0.14076-0.21875-0.30625-0.27962-0.49647-0.05707-0.19402-0.0856-0.40326-0.0856-0.62772"/>
     <path id="path4272" style="fill:url(#linearGradient4290)" d="m43.569 51.493c-0.000003 0.23587-0.03424 0.45272-0.10272 0.65055-0.06848 0.19402-0.1674 0.36142-0.29674 0.50218-0.12935 0.13696-0.28533 0.24348-0.46794 0.31957-0.17881 0.07609-0.38044 0.11413-0.6049 0.11413-0.22066 0-0.42229-0.03804-0.6049-0.11413-0.17881-0.07609-0.33288-0.18261-0.46223-0.31957-0.12935-0.14076-0.23016-0.30815-0.30245-0.50218-0.07228-0.19783-0.10842-0.41468-0.10842-0.65055-0.000001-0.23587 0.03614-0.45082 0.10842-0.64484 0.07609-0.19402 0.17881-0.35951 0.30816-0.49647 0.13315-0.13696 0.28913-0.24348 0.46794-0.31957 0.18261-0.07608 0.38044-0.11413 0.59348-0.11413 0.21685 0.000003 0.41468 0.03805 0.59348 0.11413 0.18261 0.07609 0.33859 0.18261 0.46794 0.31957s0.23016 0.30245 0.30245 0.49647c0.07228 0.19402 0.10842 0.40897 0.10842 0.64484m-0.8674 0c-0.000002-0.2625-0.05326-0.46794-0.15978-0.61631-0.10272-0.15217-0.25109-0.22826-0.44511-0.22826-0.19402 0.000002-0.3443 0.07609-0.45082 0.22826-0.10652 0.14837-0.15978 0.35381-0.15978 0.61631-0.000001 0.2625 0.05326 0.47174 0.15978 0.62772 0.10652 0.15218 0.25679 0.22826 0.45082 0.22826 0.19402 0.000001 0.34239-0.07609 0.44511-0.22826 0.10652-0.15598 0.15978-0.36522 0.15978-0.62772"/>
     <path id="path4274" style="fill:url(#linearGradient4290)" d="m44.228 50.101c0.14457-0.04185 0.33098-0.07989 0.55924-0.11413 0.22826-0.03804 0.46794-0.05706 0.71903-0.05707 0.25489 0.000003 0.46604 0.03424 0.63343 0.10272 0.1712 0.06468 0.30625 0.15788 0.40517 0.27962 0.09891 0.12174 0.16929 0.26631 0.21114 0.4337s0.06277 0.35381 0.06277 0.55924v1.6949h-0.85028v-1.5921c-0.000002-0.27391-0.03614-0.46794-0.10842-0.58207s-0.20734-0.1712-0.40517-0.1712c-0.06087 0.000002-0.12555 0.0038-0.19402 0.01141-0.06848 0.0038-0.12935 0.0095-0.18261 0.01712v2.3169h-0.85028v-2.8989"/>
     <path id="path4276" style="fill:url(#linearGradient4290)" d="m48.319 51.476c-0.000001 0.2625 0.05897 0.47365 0.1769 0.63343s0.29294 0.23968 0.525 0.23968c0.07609 0.000001 0.14647-0.0019 0.21114-0.0057 0.06467-0.0076 0.11793-0.01522 0.15978-0.02283v-1.5465c-0.05326-0.03424-0.12364-0.06277-0.21114-0.0856-0.0837-0.02282-0.1693-0.03424-0.2568-0.03424-0.40326 0.000002-0.6049 0.27392-0.6049 0.82174m1.9231 1.4266c-0.07609 0.02283-0.16359 0.04565-0.2625 0.06848-0.09892 0.01902-0.20354 0.03614-0.31386 0.05136-0.10652 0.01522-0.21685 0.02663-0.33098 0.03424-0.11033 0.01141-0.21685 0.01712-0.31957 0.01712-0.24729 0-0.46794-0.03614-0.66196-0.10842s-0.35761-0.175-0.49076-0.30816c-0.13315-0.13696-0.23587-0.30054-0.30816-0.49076-0.06848-0.19402-0.10272-0.41087-0.10272-0.65055 0-0.24348 0.03043-0.46223 0.0913-0.65626 0.06087-0.19782 0.14837-0.36522 0.2625-0.50218s0.25299-0.24158 0.41658-0.31386c0.16739-0.07228 0.35761-0.10842 0.57066-0.10842 0.11793 0.000003 0.22256 0.01142 0.31386 0.03424 0.09511 0.02283 0.19022 0.05517 0.28533 0.09701v-1.3582l0.85028-0.13696v4.3313"/>
     <path id="path4278" style="fill:url(#linearGradient4290)" d="m55.217 51.493c-0.000003 0.23587-0.03424 0.45272-0.10272 0.65055-0.06848 0.19402-0.1674 0.36142-0.29674 0.50218-0.12935 0.13696-0.28533 0.24348-0.46794 0.31957-0.17881 0.07609-0.38044 0.11413-0.6049 0.11413-0.22066 0-0.42229-0.03804-0.6049-0.11413-0.17881-0.07609-0.33288-0.18261-0.46223-0.31957-0.12935-0.14076-0.23016-0.30815-0.30245-0.50218-0.07228-0.19783-0.10842-0.41468-0.10842-0.65055-0.000001-0.23587 0.03614-0.45082 0.10842-0.64484 0.07609-0.19402 0.17881-0.35951 0.30816-0.49647 0.13315-0.13696 0.28913-0.24348 0.46794-0.31957 0.18261-0.07608 0.38044-0.11413 0.59348-0.11413 0.21685 0.000003 0.41468 0.03805 0.59348 0.11413 0.18261 0.07609 0.33859 0.18261 0.46794 0.31957s0.23016 0.30245 0.30245 0.49647c0.07228 0.19402 0.10842 0.40897 0.10842 0.64484m-0.8674 0c-0.000003-0.2625-0.05326-0.46794-0.15978-0.61631-0.10272-0.15217-0.25109-0.22826-0.44511-0.22826-0.19402 0.000002-0.3443 0.07609-0.45082 0.22826-0.10652 0.14837-0.15978 0.35381-0.15978 0.61631-0.000001 0.2625 0.05326 0.47174 0.15978 0.62772 0.10652 0.15218 0.25679 0.22826 0.45082 0.22826 0.19402 0.000001 0.34239-0.07609 0.44511-0.22826 0.10652-0.15598 0.15978-0.36522 0.15978-0.62772"/>
     <path id="path4280" style="fill:url(#linearGradient4290)" d="m57.798 51.522c-0.000002-0.2625-0.05897-0.47174-0.1769-0.62772-0.11794-0.15978-0.29294-0.23967-0.525-0.23968-0.07609 0.000002-0.14647 0.0038-0.21114 0.01141-0.06468 0.0038-0.11794 0.0095-0.15978 0.01712v1.5351c0.05326 0.03424 0.12174 0.06277 0.20544 0.0856 0.0875 0.02283 0.175 0.03424 0.2625 0.03424 0.40326 0.000001 0.60489-0.27201 0.6049-0.81604m0.8674-0.02283c-0.000004 0.23207-0.02854 0.44321-0.0856 0.63343-0.05707 0.19022-0.14076 0.35381-0.25109 0.49076-0.11033 0.13696-0.24729 0.24348-0.41087 0.31957-0.16359 0.07609-0.35191 0.11413-0.56495 0.11413-0.11794 0-0.22826-0.01141-0.33098-0.03424-0.102-0.023-0.201-0.055-0.296-0.097v1.1299h-0.85028v-3.9547c0.07609-0.02282 0.16359-0.04375 0.2625-0.06277 0.09891-0.02282 0.20163-0.04185 0.30816-0.05707 0.11033-0.01521 0.22065-0.02663 0.33098-0.03424 0.11413-0.01141 0.22255-0.01712 0.32527-0.01712 0.24728 0.000003 0.46794 0.03805 0.66196 0.11413 0.19402 0.07229 0.35761 0.17691 0.49076 0.31386 0.13315 0.13316 0.23397 0.29674 0.30245 0.49076 0.07228 0.19402 0.10842 0.41088 0.10842 0.65055"/>
     <path id="path4282" style="fill:url(#linearGradient4290)" d="m59.291 49.251 0.85028-0.13696v0.88452h1.0215v0.70762h-1.0215v1.0557c-0.000001 0.17881 0.03043 0.32147 0.09131 0.42799 0.06467 0.10652 0.19212 0.15978 0.38234 0.15978 0.0913 0.000001 0.18451-0.0076 0.27962-0.02283 0.09891-0.01902 0.18831-0.04375 0.26821-0.07418l0.11984 0.66196c-0.10272 0.04185-0.21685 0.07799-0.34239 0.10842-0.12555 0.03043-0.27962 0.04565-0.46223 0.04565-0.23207 0-0.42419-0.03044-0.57636-0.09131-0.15218-0.06468-0.27392-0.15218-0.36522-0.2625-0.09131-0.11413-0.15598-0.25109-0.19402-0.41087-0.03424-0.15978-0.05136-0.33669-0.05136-0.53071v-2.5223"/>
     <path id="path4284" style="fill:url(#linearGradient4290)" d="m62.7 53h-0.85028v-3.0017h0.85028v3.0017m0.07989-3.8691c-0.000002 0.15598-0.05136 0.27962-0.15408 0.37093-0.09892 0.0875-0.21685 0.13125-0.35381 0.13125-0.13696 0.000003-0.2568-0.04375-0.35951-0.13125-0.09891-0.0913-0.14837-0.21494-0.14837-0.37093 0-0.15598 0.04946-0.27772 0.14837-0.36522 0.10272-0.0913 0.22256-0.13695 0.35951-0.13696 0.13696 0.000004 0.25489 0.04566 0.35381 0.13696 0.10272 0.08751 0.15408 0.20924 0.15408 0.36522"/>
     <path id="path4286" style="fill:url(#linearGradient4290)" d="m66.307 51.493c-0.000003 0.23587-0.03424 0.45272-0.10272 0.65055-0.06848 0.19402-0.1674 0.36142-0.29674 0.50218-0.12935 0.13696-0.28533 0.24348-0.46794 0.31957-0.17881 0.07609-0.38044 0.11413-0.6049 0.11413-0.22066 0-0.42229-0.03804-0.6049-0.11413-0.17881-0.07609-0.33288-0.18261-0.46223-0.31957-0.12935-0.14076-0.23017-0.30815-0.30245-0.50218-0.07228-0.19783-0.10842-0.41468-0.10842-0.65055s0.03614-0.45082 0.10842-0.64484c0.07609-0.19402 0.1788-0.35951 0.30815-0.49647 0.13315-0.13696 0.28913-0.24348 0.46794-0.31957 0.18261-0.07608 0.38044-0.11413 0.59348-0.11413 0.21685 0.000003 0.41468 0.03805 0.59348 0.11413 0.18261 0.07609 0.33859 0.18261 0.46794 0.31957 0.12934 0.13696 0.23016 0.30245 0.30245 0.49647 0.07228 0.19402 0.10842 0.40897 0.10842 0.64484m-0.8674 0c-0.000002-0.2625-0.05326-0.46794-0.15978-0.61631-0.10272-0.15217-0.25109-0.22826-0.44511-0.22826-0.19402 0.000002-0.3443 0.07609-0.45082 0.22826-0.10652 0.14837-0.15978 0.35381-0.15978 0.61631-0.000001 0.2625 0.05326 0.47174 0.15978 0.62772 0.10652 0.15218 0.25679 0.22826 0.45082 0.22826 0.19402 0.000001 0.34239-0.07609 0.44511-0.22826 0.10652-0.15598 0.15978-0.36522 0.15978-0.62772"/>
     <path id="path4288" style="fill:url(#linearGradient4290)" d="m66.965 50.101c0.14457-0.04185 0.33098-0.07989 0.55924-0.11413 0.22826-0.03804 0.46794-0.05706 0.71903-0.05707 0.25489 0.000003 0.46603 0.03424 0.63343 0.10272 0.17119 0.06468 0.30625 0.15788 0.40517 0.27962 0.09891 0.12174 0.16929 0.26631 0.21114 0.4337s0.06277 0.35381 0.06277 0.55924v1.6949h-0.85028v-1.5921c-0.000003-0.27391-0.03614-0.46794-0.10842-0.58207-0.07229-0.11413-0.20734-0.1712-0.40517-0.1712-0.06087 0.000002-0.12555 0.0038-0.19402 0.01141-0.06848 0.0038-0.12935 0.0095-0.18261 0.01712v2.3169h-0.85028v-2.8989"/>
    </g>
    <rect id="rect4294" style="opacity:.5;color:#000000;stroke-dashoffset:8.6;stroke:#fff;stroke-linecap:round;fill:none" height="5" width="17" y="61.5" x="56.5"/>
    <rect id="rect4296" style="opacity:.3;color:#000000;stroke-dashoffset:8.6;stroke:#fff;stroke-linecap:round;fill:none" height="5" width="17" y="61.5" x="34.5"/>
   </g>
  </g>
  <rect id="rect3003" style="opacity:.15;fill:#fff" clip-path="url(#clipPath3009)" rx="25" ry="25" transform="translate(98 3.8281e-7)" width="92" y="958.36" x="-96" height="92"/>
 </g>
</svg>
