<?xml version="1.0" encoding="UTF-8" standalone="no"?>
<!-- Created with Inkscape (http://www.inkscape.org/) -->
<svg id="svg11037" xmlns:rdf="http://www.w3.org/1999/02/22-rdf-syntax-ns#" xmlns="http://www.w3.org/2000/svg" height="96" width="96" version="1.1" xmlns:cc="http://creativecommons.org/ns#" xmlns:xlink="http://www.w3.org/1999/xlink" xmlns:dc="http://purl.org/dc/elements/1.1/">
 <defs id="defs11039">
  <linearGradient id="linearGradient3452" x1="6" gradientUnits="userSpaceOnUse" y1="73" gradientTransform="translate(0,12)" x2="24" y2="73">
   <stop id="stop3426" style="stop-color:#025" offset="0"/>
   <stop id="stop3428" style="stop-color:#2b81ff" offset=".2"/>
   <stop id="stop3430" style="stop-color:#003380;stop-opacity:0" offset="1"/>
  </linearGradient>
  <linearGradient id="linearGradient3454" x1="6" gradientUnits="userSpaceOnUse" y1="73" gradientTransform="translate(0,6)" x2="24" y2="73">
   <stop id="stop3414" style="stop-color:#0d350d" offset="0"/>
   <stop id="stop3416" style="stop-color:#66d566;stop-opacity:.99216" offset=".2"/>
   <stop id="stop3418" style="stop-color:#217821;stop-opacity:0" offset="1"/>
  </linearGradient>
  <linearGradient id="linearGradient3456" x1="6" gradientUnits="userSpaceOnUse" x2="24" y1="73" y2="73">
   <stop id="stop3379" style="stop-color:#461552" offset="0"/>
   <stop id="stop3381" style="stop-color:#e27ffb;stop-opacity:.88627" offset=".2"/>
   <stop id="stop3383" style="stop-color:#892ca0;stop-opacity:0" offset="1"/>
  </linearGradient>
  <linearGradient id="linearGradient3223" y2="5.8332" gradientUnits="userSpaceOnUse" y1="74.004" x2="38.748" x1="38.748">
   <stop id="stop3201" style="stop-color:#853798" offset="0"/>
   <stop id="stop3203" style="stop-color:#c78bd5" offset="1"/>
  </linearGradient>
  <linearGradient id="linearGradient3220" y2="27.429" gradientUnits="userSpaceOnUse" y1="74" x2="87.5" x1="19.036">
   <stop id="stop3363" style="stop-color:#c978e0" offset="0"/>
   <stop id="stop3365" style="stop-color:#dab4e4;stop-opacity:0" offset="1"/>
  </linearGradient>
  <clipPath id="clipPath3353">
   <path id="path3355" style="fill:#fff" d="m7.0312 60.094c-2.216 0-4 1.784-4 4v45.281c0 2.216 1.784 4 4 4h55.375c2.216 0 4-1.784 4-4v-45.281c0-2.216-1.784-4-4-4h-55.375zm10.969 19.906h4.9062c0.37735 0.000014 0.72287 0.02478 1.0625 0.0625 0.33962 0.03775 0.67943 0.12423 0.96875 0.25 0.30188 0.1258 0.56092 0.29227 0.8125 0.53125 0.25156 0.22643 0.46756 0.54758 0.65625 0.9375 0.31446 0.64152 0.46874 1.3265 0.46875 2.0938-0.00001 0.98114-0.24077 1.796-0.71875 2.4375-0.46542 0.62894-1.1195 1.0735-2 1.3125 0.40251 0.32705 0.73584 0.69124 1 1.0938 0.27672 0.38994 0.52358 0.80975 0.75 1.25l2.032 4.031h-2.219c-0.0629-0.12579-0.16157-0.35436-0.3125-0.65625-0.15095-0.30189-0.34867-0.62264-0.5625-1-0.202-0.39-0.418-0.791-0.656-1.219-0.227-0.44-0.462-0.873-0.688-1.25-0.226-0.39-0.424-0.711-0.625-1-0.201-0.302-0.393-0.512-0.531-0.625-0.214-0.176-0.405-0.275-0.594-0.312-0.176-0.051-0.417-0.094-0.719-0.094h-1.2188v6.1562h-1.812v-14zm15.781 0h1.8125l4.5312 14h-2.0625l-1.25-4.125h-4.125l-1.187 4.125h-1.9688l4.25-14zm8.219 0h4.9062c0.37735 0.000014 0.75412 0.02478 1.0938 0.0625 0.33962 0.03775 0.64819 0.12423 0.9375 0.25 0.30188 0.1258 0.56092 0.29227 0.8125 0.53125 0.25156 0.22643 0.46756 0.54758 0.65625 0.9375 0.31446 0.64152 0.49999 1.3265 0.5 2.0938-0.00001 0.98114-0.24077 1.796-0.71875 2.4375-0.46542 0.62894-1.1508 1.0735-2.0312 1.3125 0.40251 0.32705 0.73584 0.69124 1 1.0938 0.27672 0.38994 0.52358 0.80975 0.75 1.25l2.032 4.031h-2.219c-0.0629-0.12579-0.16156-0.35436-0.3125-0.65625-0.15095-0.30189-0.34867-0.62264-0.5625-1-0.202-0.39-0.418-0.791-0.656-1.219-0.227-0.44-0.462-0.873-0.688-1.25-0.22642-0.38993-0.42375-0.71069-0.625-1-0.20126-0.30188-0.36164-0.51179-0.5-0.625-0.21384-0.1761-0.43633-0.27476-0.625-0.3125-0.1761-0.05031-0.41687-0.09374-0.71875-0.09375h-1.2188v6.1562h-1.812v-14zm-22.156 1.6875v4.4062h2.8125c0.77987 0.000007 1.3662-0.16037 1.7812-0.5 0.42766-0.35219 0.65624-0.92629 0.65625-1.7188-0.000008-0.69181-0.17906-1.2476-0.53125-1.625-0.352-0.377-0.87-0.562-1.562-0.562h-3.1562zm24 0v4.4062h2.8125c0.77987 0.000007 1.3974-0.16037 1.8125-0.5 0.42766-0.35219 0.62499-0.92629 0.625-1.7188-0.000008-0.69181-0.17906-1.2476-0.53125-1.625-0.352-0.377-0.87-0.562-1.562-0.562h-3.1562zm-9.1562 1.1562c-0.18868 0.90567-0.3921 1.7883-0.65625 2.6562-0.26416 0.85535-0.54835 1.7258-0.8125 2.5938h3c-0.252-0.868-0.505-1.726-0.781-2.594-0.26416-0.86792-0.52359-1.7632-0.75-2.6562z"/>
  </clipPath>
  <linearGradient id="linearGradient3360" x1="68.75" xlink:href="#linearGradient3354" gradientUnits="userSpaceOnUse" y1="59" gradientTransform="translate(0,-1)" x2="75.25" y2="59"/>
  <linearGradient id="linearGradient3354">
   <stop id="stop3356" style="stop-color:#b4b4b4" offset="0"/>
   <stop id="stop3362" style="stop-color:#646464" offset=".20467"/>
   <stop id="stop3364" style="stop-color:#fff" offset=".49568"/>
   <stop id="stop3358" style="stop-color:#3c3c3c" offset="1"/>
  </linearGradient>
  <clipPath id="clipPath3235">
   <path id="path3237" style="fill:#fff" d="m66 6v55c0 1.662 1.338 3 3 3h6c1.662 0 3-1.338 3-3v-55h-4v2h-4v-2h-4z"/>
  </clipPath>
  <filter id="filter3243" width="1.3323" y="-.03661" x="-.16615" height="1.0732" color-interpolation-filters="sRGB">
   <feGaussianBlur id="feGaussianBlur3245" stdDeviation="0.9"/>
  </filter>
  <linearGradient id="linearGradient3393" y2="65" gradientUnits="userSpaceOnUse" y1="64.163" x2="79" x1="63.485">
   <stop id="stop3307" style="stop-color:#6c257e" offset="0"/>
   <stop id="stop3309" style="stop-color:#be66d4" offset="1"/>
  </linearGradient>
  <filter id="filter3429" width="1.3237" y="-.095354" x="-.16183" height="1.1907" color-interpolation-filters="sRGB">
   <feGaussianBlur id="feGaussianBlur3431" stdDeviation="0.53551312"/>
  </filter>
  <linearGradient id="linearGradient3516" x1="68.029" xlink:href="#linearGradient3435" gradientUnits="userSpaceOnUse" y1="17.763" gradientTransform="translate(0,-2)" x2="75.971" y2="17.763"/>
  <linearGradient id="linearGradient3435">
   <stop id="stop3437" style="stop-color:#ededed" offset="0"/>
   <stop id="stop3439" style="stop-color:#b0b0b0" offset="1"/>
  </linearGradient>
  <linearGradient id="linearGradient3489" x1="68.969" xlink:href="#linearGradient3435" gradientUnits="userSpaceOnUse" y1="17.5" gradientTransform="matrix(-1 0 0 1 144.03 -2)" x2="75.062" y2="17.5"/>
  <linearGradient id="linearGradient3530" x1="68.75" xlink:href="#linearGradient3354" gradientUnits="userSpaceOnUse" y1="59" gradientTransform="matrix(1.1263 0 0 1 -7.402 -49.5)" x2="72.251" y2="59"/>
  <linearGradient id="linearGradient3496" x1="69" gradientUnits="userSpaceOnUse" y1="54" gradientTransform="translate(0,-1)" x2="73" y2="54">
   <stop id="stop3292" style="stop-color:#fff" offset="0"/>
   <stop id="stop3304" style="stop-color:#8c8c8c" offset=".48973"/>
   <stop id="stop3306" style="stop-color:#cfcfcf" offset=".50045"/>
   <stop id="stop3298" style="stop-color:#fff" offset=".62277"/>
   <stop id="stop3300" style="stop-color:#c8c8c8" offset=".81696"/>
   <stop id="stop3294" style="stop-color:#505050" offset="1"/>
  </linearGradient>
  <linearGradient id="linearGradient3498" x1="69" gradientUnits="userSpaceOnUse" y1="54" gradientTransform="matrix(-1,0,0,1,144,-4)" x2="73" y2="54">
   <stop id="stop3606" style="stop-color:#2f2f2f" offset="0"/>
   <stop id="stop3608" style="stop-color:#fff" offset=".43731"/>
   <stop id="stop3610" style="stop-color:#979797" offset=".62138"/>
   <stop id="stop3612" style="stop-color:#505050" offset=".77232"/>
   <stop id="stop3614" style="stop-color:#e6e6e6" offset="1"/>
  </linearGradient>
  <clipPath id="clipPath3500" clipPathUnits="userSpaceOnUse">
   <rect id="rect3502" style="fill:url(#linearGradient3504)" rx="22.826" ry="22.826" height="84" width="84" y="6" x="6"/>
  </clipPath>
  <linearGradient id="linearGradient3504" x1="48" gradientUnits="userSpaceOnUse" y1="962.62" gradientTransform="matrix(1.05 0 0 1.05 -2.4 -1006.6)" x2="48" y2="1046.1">
   <stop id="stop3797" style="stop-color:#13a6fd" offset="0"/>
   <stop id="stop3799" style="stop-color:#2975b6" offset="1"/>
  </linearGradient>
  <clipPath id="clipPath3009" clipPathUnits="userSpaceOnUse">
   <path id="path3011" style="opacity:.15;fill:#fff" d="m-2 956.36h-96v33.562l96 25.687v-59.25z"/>
  </clipPath>
 </defs>
 <metadata id="metadata11042">
  <rdf:RDF>
   <cc:Work rdf:about="">
    <dc:format>image/svg+xml</dc:format>
    <dc:type rdf:resource="http://purl.org/dc/dcmitype/StillImage"/>
    <dc:title/>
   </cc:Work>
  </rdf:RDF>
 </metadata>
 <g id="layer1" transform="translate(0 -956.36)">
  <g id="g3118" transform="matrix(1.0952 0 0 1.0952 -4.5714 951.79)" clip-path="url(#clipPath3500)">
   <g id="layer1-8">
    <path id="path3303" style="fill:#235299" d="m12 18c-3.324 0-6 2.676-6 6v60c0 3.324 2.676 6 6 6h72c3.324 0 6-2.676 6-6v-60c0-3.324-2.676-6-6-6h-9v3h-6v-3h-57z"/>
    <path id="path3301" style="fill:#217821" d="m12 12c-3.324 0-6 2.676-6 6v60c0 3.324 2.676 6 6 6h72c3.324 0 6-2.676 6-6v-60c0-3.324-2.676-6-6-6h-9v3h-6v-3h-57z"/>
    <path id="rect2419" style="fill:#892ca0" d="m12 6c-3.324 0-6 2.676-6 6v60c0 3.324 2.676 6 6 6h72c3.324 0 6-2.676 6-6v-60c0-3.324-2.676-6-6-6h-9v3h-6v-3h-57z"/>
    <g id="g3444" transform="matrix(-1,0,0,1,96,0)">
     <path id="path3446" style="fill:url(#linearGradient3452)" d="m6 78v6c0 3.324 2.676 6 6 6h12v-6h-12c-3.324 0-6-2.676-6-6z"/>
     <path id="path3448" style="fill:url(#linearGradient3454)" d="m6 72v6c0 3.324 2.676 6 6 6h12v-6h-12c-3.324 0-6-2.676-6-6z"/>
     <path id="path3450" style="fill:url(#linearGradient3456)" d="m6 56v16c0 3.324 2.676 6 6 6h12v-22h-18z"/>
    </g>
    <g id="g3432">
     <path id="path3420" style="fill:url(#linearGradient3452)" d="m6 78v6c0 3.324 2.676 6 6 6h12v-6h-12c-3.324 0-6-2.676-6-6z"/>
     <path id="path3385" style="fill:url(#linearGradient3454)" d="m6 72v6c0 3.324 2.676 6 6 6h12v-6h-12c-3.324 0-6-2.676-6-6z"/>
     <path id="rect3222" style="fill:url(#linearGradient3456)" d="m6 56v16c0 3.324 2.676 6 6 6h12v-22h-18z"/>
    </g>
    <path id="rect2412" style="opacity:.5;fill:#081323" d="m6 82v2c0 3.324 2.676 6 6 6h72c3.324 0 6-2.676 6-6v-2c0 3.324-2.676 6-6 6h-72c-3.324 0-6-2.676-6-6z"/>
    <path id="path3187" style="opacity:.3;fill:#fff" d="m6 78v2c0 3.324 2.676 6 6 6h72c3.324 0 6-2.676 6-6v-2c0 3.324-2.676 6-6 6h-72c-3.324 0-6-2.676-6-6z"/>
    <path id="path3189" style="opacity:.5;fill:#0b280b" d="m6 76v2c0 3.324 2.676 6 6 6h72c3.324 0 6-2.676 6-6v-2c0 3.324-2.676 6-6 6h-72c-3.324 0-6-2.676-6-6z"/>
    <path id="path3191" style="opacity:.3;fill:#fff" d="m6 72v2c0 3.324 2.676 6 6 6h72c3.324 0 6-2.676 6-6v-2c0 3.324-2.676 6-6 6h-72c-3.324 0-6-2.676-6-6z"/>
    <path id="path3193" style="opacity:.5;fill:#210e26" d="m6 70v2c0 3.324 2.676 6 6 6h72c3.324 0 6-2.676 6-6v-2c0 3.324-2.676 6-6 6h-72c-3.324 0-6-2.676-6-6z"/>
    <path id="rect3195" style="fill:url(#linearGradient3223)" d="m12 6c-3.324 0-6 2.676-6 6v56c0 3.324 2.676 6 6 6h72c3.324 0 6-2.676 6-6v-56c0-3.324-2.676-6-6-6h-9v3h-6v-3h-57z"/>
    <path id="rect3207" style="fill:url(#linearGradient3220)" d="m12 6c-3.324 0-6 2.676-6 6v56c0 3.324 2.676 6 6 6h72c3.324 0 6-2.676 6-6v-56c0-3.324-2.676-6-6-6h-9v2h9c2.2458 0 4 1.7542 4 4v56c0 2.2458-1.7542 4-4 4h-72c-2.2458 0-4-1.754-4-4v-56c0-2.2458 1.7542-4 4-4h57v-2h-57z"/>
   </g>
   <g id="layer3">
    <path id="path3742" style="opacity:.05;stroke:#fff;stroke-width:6;fill:none" clip-path="url(#clipPath3353)" transform="translate(0,-30)" d="m18 80v14h1.8125v-6.1562h1.2188c0.30188 0.000005 0.54264 0.04344 0.71875 0.09375 0.18867 0.03774 0.37991 0.1364 0.59375 0.3125 0.13836 0.11321 0.32999 0.32312 0.53125 0.625 0.20125 0.28931 0.39858 0.61007 0.625 1 0.22641 0.37736 0.46108 0.80975 0.6875 1.25 0.23899 0.42768 0.45498 0.82881 0.65625 1.2188 0.21383 0.37736 0.41155 0.69811 0.5625 1 0.15093 0.30188 0.2496 0.53046 0.3125 0.65625h2.2188l-2.0312-4.0312c-0.22642-0.44025-0.47328-0.86006-0.75-1.25-0.26416-0.40251-0.59749-0.7667-1-1.0938 0.88049-0.23899 1.5346-0.68356 2-1.3125 0.47798-0.6415 0.71874-1.4564 0.71875-2.4375-0.000009-0.76728-0.15429-1.4522-0.46875-2.0938-0.189-0.39-0.405-0.711-0.657-0.937-0.252-0.239-0.511-0.406-0.812-0.532-0.29-0.125-0.63-0.212-0.969-0.25-0.34-0.037-0.685-0.062-1.063-0.062h-4.906zm15.781 0-4.25 14h1.9688l1.1875-4.125h4.125l1.25 4.125h2.0625l-4.5312-14h-1.8125zm8.219 0v14h1.8125v-6.1562h1.2188c0.30188 0.000005 0.54264 0.04344 0.71875 0.09375 0.18867 0.03774 0.41116 0.1364 0.625 0.3125 0.13836 0.11321 0.29874 0.32312 0.5 0.625 0.20125 0.28931 0.39858 0.61007 0.625 1 0.22641 0.37736 0.46108 0.80975 0.6875 1.25 0.23899 0.42768 0.45498 0.82881 0.65625 1.2188 0.21383 0.37736 0.41155 0.69811 0.5625 1 0.15094 0.30188 0.2496 0.53046 0.3125 0.65625h2.2188l-2.0312-4.0312c-0.22642-0.44025-0.47328-0.86006-0.75-1.25-0.26416-0.40251-0.59749-0.7667-1-1.0938 0.88049-0.23899 1.5658-0.68356 2.0312-1.3125 0.47798-0.6415 0.71874-1.4564 0.71875-2.4375-0.000009-0.76728-0.18554-1.4522-0.5-2.0938-0.189-0.39-0.405-0.711-0.657-0.937-0.252-0.239-0.511-0.406-0.812-0.532-0.29-0.125-0.598-0.212-0.938-0.25-0.34-0.037-0.716-0.062-1.094-0.062h-4.906zm-22.156 1.6875h3.1562c0.69182 0.000012 1.2103 0.18515 1.5625 0.5625 0.35219 0.37737 0.53124 0.93319 0.53125 1.625-0.000008 0.79246-0.22858 1.3666-0.65625 1.7188-0.4151 0.33963-1.0014 0.50001-1.7812 0.5h-2.8125v-4.4062zm24 0h3.1562c0.69182 0.000012 1.2103 0.18515 1.5625 0.5625 0.3522 0.37737 0.53124 0.93319 0.53125 1.625-0.000006 0.79246-0.19734 1.3666-0.625 1.7188-0.4151 0.33963-1.0326 0.50001-1.8125 0.5h-2.8125v-4.4062zm-9.1562 1.1562c0.22641 0.89309 0.48584 1.7883 0.75 2.6562 0.27672 0.86793 0.52967 1.7258 0.78125 2.5938h-3c0.26415-0.86792 0.54834-1.7384 0.8125-2.5938 0.26415-0.86792 0.46757-1.7506 0.65625-2.6562z"/>
    <path id="path3740" style="opacity:.08;stroke:#fff;stroke-width:4;fill:none" clip-path="url(#clipPath3353)" transform="translate(0,-30)" d="m18 80v14h1.8125v-6.1562h1.2188c0.30188 0.000005 0.54264 0.04344 0.71875 0.09375 0.18867 0.03774 0.37991 0.1364 0.59375 0.3125 0.13836 0.11321 0.32999 0.32312 0.53125 0.625 0.20125 0.28931 0.39858 0.61007 0.625 1 0.22641 0.37736 0.46108 0.80975 0.6875 1.25 0.23899 0.42768 0.45498 0.82881 0.65625 1.2188 0.21383 0.37736 0.41155 0.69811 0.5625 1 0.15093 0.30188 0.2496 0.53046 0.3125 0.65625h2.2188l-2.0312-4.0312c-0.22642-0.44025-0.47328-0.86006-0.75-1.25-0.26416-0.40251-0.59749-0.7667-1-1.0938 0.88049-0.23899 1.5346-0.68356 2-1.3125 0.47798-0.6415 0.71874-1.4564 0.71875-2.4375-0.000009-0.76728-0.15429-1.4522-0.46875-2.0938-0.189-0.39-0.405-0.711-0.657-0.937-0.252-0.239-0.511-0.406-0.812-0.532-0.29-0.125-0.63-0.212-0.969-0.25-0.34-0.037-0.685-0.062-1.063-0.062h-4.906zm15.781 0-4.25 14h1.9688l1.1875-4.125h4.125l1.25 4.125h2.0625l-4.5312-14h-1.8125zm8.219 0v14h1.8125v-6.1562h1.2188c0.30188 0.000005 0.54264 0.04344 0.71875 0.09375 0.18867 0.03774 0.41116 0.1364 0.625 0.3125 0.13836 0.11321 0.29874 0.32312 0.5 0.625 0.20125 0.28931 0.39858 0.61007 0.625 1 0.22641 0.37736 0.46108 0.80975 0.6875 1.25 0.23899 0.42768 0.45498 0.82881 0.65625 1.2188 0.21383 0.37736 0.41155 0.69811 0.5625 1 0.15094 0.30188 0.2496 0.53046 0.3125 0.65625h2.2188l-2.0312-4.0312c-0.22642-0.44025-0.47328-0.86006-0.75-1.25-0.26416-0.40251-0.59749-0.7667-1-1.0938 0.88049-0.23899 1.5658-0.68356 2.0312-1.3125 0.47798-0.6415 0.71874-1.4564 0.71875-2.4375-0.000009-0.76728-0.18554-1.4522-0.5-2.0938-0.189-0.39-0.405-0.711-0.657-0.937-0.252-0.239-0.511-0.406-0.812-0.532-0.29-0.125-0.598-0.212-0.938-0.25-0.34-0.037-0.716-0.062-1.094-0.062h-4.906zm-22.156 1.6875h3.1562c0.69182 0.000012 1.2103 0.18515 1.5625 0.5625 0.35219 0.37737 0.53124 0.93319 0.53125 1.625-0.000008 0.79246-0.22858 1.3666-0.65625 1.7188-0.4151 0.33963-1.0014 0.50001-1.7812 0.5h-2.8125v-4.4062zm24 0h3.1562c0.69182 0.000012 1.2103 0.18515 1.5625 0.5625 0.3522 0.37737 0.53124 0.93319 0.53125 1.625-0.000006 0.79246-0.19734 1.3666-0.625 1.7188-0.4151 0.33963-1.0326 0.50001-1.8125 0.5h-2.8125v-4.4062zm-9.1562 1.1562c0.22641 0.89309 0.48584 1.7883 0.75 2.6562 0.27672 0.86793 0.52967 1.7258 0.78125 2.5938h-3c0.26415-0.86792 0.54834-1.7384 0.8125-2.5938 0.26415-0.86792 0.46757-1.7506 0.65625-2.6562z"/>
    <path id="path3346" style="opacity:.15;stroke:#fff;stroke-width:2;fill:none" clip-path="url(#clipPath3353)" transform="translate(0,-30)" d="m18 80v14h1.8125v-6.1562h1.2188c0.30188 0.000005 0.54264 0.04344 0.71875 0.09375 0.18867 0.03774 0.37991 0.1364 0.59375 0.3125 0.13836 0.11321 0.32999 0.32312 0.53125 0.625 0.20125 0.28931 0.39858 0.61007 0.625 1 0.22641 0.37736 0.46108 0.80975 0.6875 1.25 0.23899 0.42768 0.45498 0.82881 0.65625 1.2188 0.21383 0.37736 0.41155 0.69811 0.5625 1 0.15093 0.30188 0.2496 0.53046 0.3125 0.65625h2.2188l-2.0312-4.0312c-0.22642-0.44025-0.47328-0.86006-0.75-1.25-0.26416-0.40251-0.59749-0.7667-1-1.0938 0.88049-0.23899 1.5346-0.68356 2-1.3125 0.47798-0.6415 0.71874-1.4564 0.71875-2.4375-0.000009-0.76728-0.15429-1.4522-0.46875-2.0938-0.189-0.39-0.405-0.711-0.657-0.937-0.252-0.239-0.511-0.406-0.812-0.532-0.29-0.125-0.63-0.212-0.969-0.25-0.34-0.037-0.685-0.062-1.063-0.062h-4.906zm15.781 0-4.25 14h1.9688l1.1875-4.125h4.125l1.25 4.125h2.0625l-4.5312-14h-1.8125zm8.219 0v14h1.8125v-6.1562h1.2188c0.30188 0.000005 0.54264 0.04344 0.71875 0.09375 0.18867 0.03774 0.41116 0.1364 0.625 0.3125 0.13836 0.11321 0.29874 0.32312 0.5 0.625 0.20125 0.28931 0.39858 0.61007 0.625 1 0.22641 0.37736 0.46108 0.80975 0.6875 1.25 0.23899 0.42768 0.45498 0.82881 0.65625 1.2188 0.21383 0.37736 0.41155 0.69811 0.5625 1 0.15094 0.30188 0.2496 0.53046 0.3125 0.65625h2.2188l-2.0312-4.0312c-0.22642-0.44025-0.47328-0.86006-0.75-1.25-0.26416-0.40251-0.59749-0.7667-1-1.0938 0.88049-0.23899 1.5658-0.68356 2.0312-1.3125 0.47798-0.6415 0.71874-1.4564 0.71875-2.4375-0.000009-0.76728-0.18554-1.4522-0.5-2.0938-0.189-0.39-0.405-0.711-0.657-0.937-0.252-0.239-0.511-0.406-0.812-0.532-0.29-0.125-0.598-0.212-0.938-0.25-0.34-0.037-0.716-0.062-1.094-0.062h-4.906zm-22.156 1.6875h3.1562c0.69182 0.000012 1.2103 0.18515 1.5625 0.5625 0.35219 0.37737 0.53124 0.93319 0.53125 1.625-0.000008 0.79246-0.22858 1.3666-0.65625 1.7188-0.4151 0.33963-1.0014 0.50001-1.7812 0.5h-2.8125v-4.4062zm24 0h3.1562c0.69182 0.000012 1.2103 0.18515 1.5625 0.5625 0.3522 0.37737 0.53124 0.93319 0.53125 1.625-0.000006 0.79246-0.19734 1.3666-0.625 1.7188-0.4151 0.33963-1.0326 0.50001-1.8125 0.5h-2.8125v-4.4062zm-9.1562 1.1562c0.22641 0.89309 0.48584 1.7883 0.75 2.6562 0.27672 0.86793 0.52967 1.7258 0.78125 2.5938h-3c0.26415-0.86792 0.54834-1.7384 0.8125-2.5938 0.26415-0.86792 0.46757-1.7506 0.65625-2.6562z"/>
    <path id="rect3201" style="fill:#252525" d="m66 6v55c0 1.662 1.338 3 3 3h6c1.662 0 3-1.338 3-3v-55h-4v2h-4v-2h-4z"/>
    <rect id="rect3247" style="fill:#4d4d4d" height="49" width="4" y="8" x="70"/>
    <rect id="rect3211" style="stroke:#000;stroke-width:.5;stroke-linecap:square;stroke-opacity:.56364;fill:url(#linearGradient3360)" rx="1" ry="1" height="4" width="6" y="56" x="69"/>
    <path id="path3231" style="filter:url(#filter3243);stroke:#000;stroke-linecap:square;stroke-width:2;fill:none" clip-path="url(#clipPath3235)" d="m66 6v55c0 1.662 1.338 3 3 3h6c1.662 0 3-1.338 3-3v-55h-4v2h-4v-2h-4z"/>
    <path id="rect3249" style="stroke:#000;stroke-width:.5;stroke-linecap:square;stroke-opacity:.56364;fill:url(#linearGradient3496)" d="m69.5 51c-0.27 0-0.5 0.218-0.5 0.5v3c0 0.28204 0.23023 0.5 0.5 0.5h1c0.26977 0 0.5-0.21796 0.5-0.5v-0.5h1.5c0.277 0 0.5-0.223 0.5-0.5v-1c0-0.277-0.223-0.5-0.5-0.5h-1.5v-0.5c0-0.282-0.23-0.5-0.5-0.5h-1z"/>
    <use id="use3308" xlink:href="#rect3249" transform="translate(0,-6)" height="96" width="96" y="0" x="0"/>
    <use id="use3310" xlink:href="#use3308" transform="translate(0,-6)" height="96" width="96" y="0" x="0"/>
    <use id="use3312" xlink:href="#use3310" transform="translate(0,-6)" height="96" width="96" y="0" x="0"/>
    <use id="use3314" xlink:href="#use3312" transform="translate(0,-6)" height="96" width="96" y="0" x="0"/>
    <use id="use3316" xlink:href="#use3314" transform="translate(0,-6)" height="96" width="96" y="0" x="0"/>
    <use id="use3318" xlink:href="#use3316" transform="translate(0,-6)" height="96" width="96" y="0" x="0"/>
    <use id="use3320" xlink:href="#use3318" transform="translate(0,-6)" height="96" width="96" y="0" x="0"/>
    <path id="path3322" style="stroke:#000;stroke-width:.5;stroke-linecap:square;stroke-opacity:.56364;fill:url(#linearGradient3498)" d="m74.5 48c0.26977 0 0.5 0.21796 0.5 0.5v3c0 0.28204-0.23023 0.5-0.5 0.5h-1c-0.27 0-0.5-0.218-0.5-0.5v-0.5h-1.5c-0.277 0-0.5-0.223-0.5-0.5v-1c0-0.277 0.223-0.5 0.5-0.5h1.5v-0.5c0-0.282 0.23-0.5 0.5-0.5h1z"/>
    <use id="use3340" xlink:href="#path3322" transform="translate(0,-6)" height="96" width="96" y="0" x="0"/>
    <use id="use3342" xlink:href="#use3340" transform="translate(0,-6)" height="96" width="96" y="0" x="0"/>
    <use id="use3344" xlink:href="#use3342" transform="translate(0,-6)" height="96" width="96" y="0" x="0"/>
    <use id="use3346" xlink:href="#use3344" transform="translate(0,-6)" height="96" width="96" y="0" x="0"/>
    <use id="use3348" xlink:href="#use3346" transform="translate(0,-6)" height="96" width="96" y="0" x="0"/>
    <use id="use3350" xlink:href="#use3348" transform="translate(0,-6)" height="96" width="96" y="0" x="0"/>
    <path id="path3376" style="fill:url(#linearGradient3393)" d="m65 6v55c0 2.2023 1.7977 4 4 4h6c2.2023 0 4-1.7977 4-4v-55h-1v55c0 1.662-1.338 3-3 3h-6c-1.662 0-3-1.338-3-3v-55h-1z"/>
    <path id="path3433" style="filter:url(#filter3429);stroke:#000;stroke-linecap:square;stroke-opacity:.56364;stroke-width:.5" transform="translate(0,-2)" d="m69.5 10.531c-1.0277 0-1.9688 0.7652-1.9688 1.8125v10.812c0 1.048 0.918 1.844 1.969 1.844h5c1.0507 0 1.9688-0.79645 1.9688-1.8438v-10.812c-0.000003-1.0473-0.94105-1.8125-1.9688-1.8125h-5zm1.0625 9.0625h2.875v1.75h-2.875v-1.75z"/>
    <path id="rect3403" style="fill:url(#linearGradient3516)" d="m69.229 9.0214c-0.687 0-1.229 0.4824-1.229 1.0816l-0.005 10.815c0 0.6 0.542 1.082 1.229 1.082h5.5832c0.68714 0 1.2292-0.48237 1.2292-1.0815l0.0051-10.815c0-0.59918-0.54211-1.0815-1.2292-1.0815h-5.5832zm0.7043 7.9496h4.1013v3.1184h-4.1013v-3.1184z"/>
    <path id="rect3470" style="fill:url(#linearGradient3489)" d="m74.562 9.9688c0.277 0 0.5 0.223 0.5 0.5v10.062c0 0.277-0.223 0.5-0.5 0.5h-5.0938c-0.277 0-0.5-0.223-0.5-0.5v-10.062c0-0.277 0.223-0.5 0.5-0.5h5.0938zm-0.4375 6.9688h-4.125v3.125h4.125v-3.125z"/>
    <rect id="rect3399" style="stroke:#000;stroke-linecap:square;stroke-opacity:.56364;fill:url(#linearGradient3530)" rx=".56313" ry=".5" height="5" width="3.3788" y="7.5" x="70.311"/>
    <rect id="rect3518" style="opacity:.3" height="1" width="4" y="16" x="69.985"/>
    <path id="path3335" style="fill:#43134e" d="m18 50v14h1.8125v-6.1562h1.2188c0.30188 0.000005 0.54264 0.04344 0.71875 0.09375 0.18867 0.03774 0.37991 0.1364 0.59375 0.3125 0.13836 0.11321 0.32999 0.32312 0.53125 0.625 0.20125 0.28931 0.39858 0.61007 0.625 1 0.22641 0.37736 0.46108 0.80975 0.6875 1.25 0.23899 0.42768 0.45498 0.82881 0.65625 1.2188 0.21383 0.37736 0.41155 0.69811 0.5625 1 0.15093 0.30188 0.2496 0.53046 0.3125 0.65625h2.2188l-2.0312-4.0312c-0.22642-0.44025-0.47328-0.86006-0.75-1.25-0.26416-0.40251-0.59749-0.7667-1-1.0938 0.88049-0.23899 1.5346-0.68356 2-1.3125 0.47798-0.6415 0.71874-1.4564 0.71875-2.4375-0.000009-0.76728-0.15429-1.4522-0.46875-2.0938-0.189-0.39-0.405-0.711-0.657-0.937-0.252-0.239-0.511-0.406-0.812-0.532-0.29-0.125-0.63-0.212-0.969-0.25-0.34-0.037-0.685-0.062-1.063-0.062h-4.906zm15.781 0-4.25 14h1.9688l1.1875-4.125h4.125l1.25 4.125h2.0625l-4.5312-14h-1.8125zm8.219 0v14h1.8125v-6.1562h1.2188c0.30188 0.000005 0.54264 0.04344 0.71875 0.09375 0.18867 0.03774 0.41116 0.1364 0.625 0.3125 0.13836 0.11321 0.29874 0.32312 0.5 0.625 0.20125 0.28931 0.39858 0.61007 0.625 1 0.22641 0.37736 0.46108 0.80975 0.6875 1.25 0.23899 0.42768 0.45498 0.82881 0.65625 1.2188 0.21383 0.37736 0.41155 0.69811 0.5625 1 0.15094 0.30188 0.2496 0.53046 0.3125 0.65625h2.2188l-2.0312-4.0312c-0.22642-0.44025-0.47328-0.86006-0.75-1.25-0.26416-0.40251-0.59749-0.7667-1-1.0938 0.88049-0.23899 1.5658-0.68356 2.0312-1.3125 0.47798-0.6415 0.71874-1.4564 0.71875-2.4375-0.000009-0.76728-0.18554-1.4522-0.5-2.0938-0.189-0.39-0.405-0.711-0.657-0.937-0.252-0.239-0.511-0.406-0.812-0.532-0.29-0.125-0.598-0.212-0.938-0.25-0.34-0.037-0.716-0.062-1.094-0.062h-4.906zm-22.156 1.6875h3.1562c0.69182 0.000012 1.2103 0.18515 1.5625 0.5625 0.35219 0.37737 0.53124 0.93319 0.53125 1.625-0.000008 0.79246-0.22858 1.3666-0.65625 1.7188-0.4151 0.33963-1.0014 0.50001-1.7812 0.5h-2.8125v-4.4062zm24 0h3.1562c0.69182 0.000012 1.2103 0.18515 1.5625 0.5625 0.3522 0.37737 0.53124 0.93319 0.53125 1.625-0.000006 0.79246-0.19734 1.3666-0.625 1.7188-0.4151 0.33963-1.0326 0.50001-1.8125 0.5h-2.8125v-4.4062zm-9.1562 1.1562c0.22641 0.89309 0.48584 1.7883 0.75 2.6562 0.27672 0.86793 0.52967 1.7258 0.78125 2.5938h-3c0.26415-0.86792 0.54834-1.7384 0.8125-2.5938 0.26415-0.86792 0.46757-1.7506 0.65625-2.6562z"/>
    <path id="path3341" style="opacity:.4" d="m18 50v1h4.9062c0.37735 0.000014 0.72287 0.02478 1.0625 0.0625 0.33962 0.03775 0.67943 0.12423 0.96875 0.25 0.30188 0.1258 0.56092 0.29227 0.8125 0.53125 0.25156 0.22643 0.46756 0.54758 0.65625 0.9375 0.23584 0.48114 0.37936 0.98484 0.4375 1.5312 0.01117-0.14174 0.03125-0.28802 0.03125-0.4375-0.000009-0.76728-0.15429-1.4522-0.46875-2.0938-0.188-0.39-0.404-0.711-0.656-0.937-0.252-0.239-0.511-0.406-0.812-0.532-0.29-0.125-0.63-0.212-0.969-0.25-0.34-0.037-0.685-0.062-1.063-0.062h-4.906zm15.781 0-4.25 14h0.3125l3.9375-13h1.8125l4.2188 13h0.3125l-4.5312-14h-1.8125zm8.219 0v1h4.9062c0.37735 0.000014 0.75412 0.02478 1.0938 0.0625 0.33962 0.03775 0.64819 0.12423 0.9375 0.25 0.30188 0.1258 0.56092 0.29227 0.8125 0.53125 0.25156 0.22643 0.46756 0.54758 0.65625 0.9375 0.23584 0.48114 0.40182 0.98484 0.46875 1.5312 0.01117-0.14174 0.03125-0.28802 0.03125-0.4375-0.000009-0.76728-0.18554-1.4522-0.5-2.0938-0.188-0.39-0.404-0.711-0.656-0.937-0.252-0.239-0.511-0.406-0.812-0.532-0.29-0.125-0.598-0.212-0.938-0.25-0.34-0.037-0.716-0.062-1.094-0.062h-4.906zm-16.938 4.4375c-0.08434 0.51229-0.30425 0.8921-0.625 1.1562-0.4151 0.33963-1.0014 0.50001-1.7812 0.5h-2.8125v1h2.8125c0.77987 0.000007 1.3662-0.16037 1.7812-0.5 0.42766-0.35219 0.65624-0.92629 0.65625-1.7188-0.000002-0.15142-0.01416-0.29956-0.03125-0.4375zm24 0c-0.07555 0.51229-0.273 0.8921-0.59375 1.1562-0.4151 0.33963-1.0326 0.50001-1.8125 0.5h-2.8125v1h2.8125c0.77987 0.000007 1.3974-0.16037 1.8125-0.5 0.42766-0.35219 0.62499-0.92629 0.625-1.7188-0.000002-0.15142-0.01416-0.29956-0.03125-0.4375zm-15.531 3.6562c-0.10548 0.3343-0.21068 0.66545-0.3125 1h3c-0.0973-0.33566-0.2135-0.66618-0.3125-1h-2.375zm-8.6562 0.25c-0.22232 0.10651-0.45758 0.21036-0.71875 0.28125 0.40251 0.32705 0.73584 0.69124 1 1.0938 0.27672 0.38994 0.52358 0.80975 0.75 1.25l1.532 3.031h0.5l-2.0312-4.0312c-0.22642-0.44025-0.47328-0.86006-0.75-1.25-0.08687-0.13236-0.17942-0.25088-0.28125-0.375zm24 0c-0.22619 0.10651-0.45758 0.21036-0.71875 0.28125 0.40251 0.32705 0.73584 0.69124 1 1.0938 0.27672 0.38994 0.52358 0.80975 0.75 1.25l1.532 3.031h0.5l-2.0312-4.0312c-0.22642-0.44025-0.47328-0.86006-0.75-1.25-0.08687-0.13236-0.17942-0.25088-0.28125-0.375z"/>
   </g>
  </g>
  <rect id="rect3003" style="opacity:.15;fill:#fff" clip-path="url(#clipPath3009)" rx="25" ry="25" transform="translate(98 3.8281e-7)" width="92" y="958.36" x="-96" height="92"/>
 </g>
</svg>
