<?xml version="1.0" encoding="UTF-8" standalone="no"?>
<!-- Created with Inkscape (http://www.inkscape.org/) -->
<svg id="svg11037" xmlns:rdf="http://www.w3.org/1999/02/22-rdf-syntax-ns#" xmlns="http://www.w3.org/2000/svg" height="96" width="96" version="1.1" xmlns:cc="http://creativecommons.org/ns#" xmlns:xlink="http://www.w3.org/1999/xlink" xmlns:dc="http://purl.org/dc/elements/1.1/">
 <defs id="defs11039">
  <linearGradient id="linearGradient3706" y2="5.9877" gradientUnits="userSpaceOnUse" y1="90" x2="48" x1="48">
   <stop id="stop3702" style="stop-color:#e6e6e6" offset="0"/>
   <stop id="stop3704" style="stop-color:#f5f5f5" offset="1"/>
  </linearGradient>
  <linearGradient id="linearGradient3822" y2="138.66" gradientUnits="userSpaceOnUse" y1="20.221" x2="48" x1="48">
   <stop id="stop3739-2" style="stop-color:#fff" offset="0"/>
   <stop id="stop3741-1" style="stop-color:#fff;stop-opacity:0" offset="1"/>
  </linearGradient>
  <clipPath id="clipPath3613">
   <rect id="rect3615" style="fill:#fff" rx="6" ry="6" height="84" width="84" y="6" x="6"/>
  </clipPath>
  <filter id="filter3794" width="1.384" y="-.192" x="-.192" height="1.384" color-interpolation-filters="sRGB">
   <feGaussianBlur id="feGaussianBlur3796" stdDeviation="5.28"/>
  </filter>
  <linearGradient id="linearGradient3203" y2="6.3984" gradientUnits="userSpaceOnUse" y1="89.164" x2="56.634" x1="56.634">
   <stop id="stop3176" style="stop-color:#c30000" offset="0"/>
   <stop id="stop3178" style="stop-color:#f12300" offset="1"/>
  </linearGradient>
  <clipPath id="clipPath3060" clipPathUnits="userSpaceOnUse">
   <rect id="rect3062" style="fill:url(#linearGradient3064)" rx="22.826" ry="22.826" height="84" width="84" y="6" x="6"/>
  </clipPath>
  <linearGradient id="linearGradient3064" x1="48" gradientUnits="userSpaceOnUse" y1="962.62" gradientTransform="matrix(1.05 0 0 1.05 -2.4 -1006.6)" x2="48" y2="1046.1">
   <stop id="stop3797" style="stop-color:#13a6fd" offset="0"/>
   <stop id="stop3799" style="stop-color:#2975b6" offset="1"/>
  </linearGradient>
  <clipPath id="clipPath3009" clipPathUnits="userSpaceOnUse">
   <path id="path3011" style="opacity:.15;fill:#fff" d="m-2 956.36h-96v33.562l96 25.687v-59.25z"/>
  </clipPath>
 </defs>
 <metadata id="metadata11042">
  <rdf:RDF>
   <cc:Work rdf:about="">
    <dc:format>image/svg+xml</dc:format>
    <dc:type rdf:resource="http://purl.org/dc/dcmitype/StillImage"/>
    <dc:title/>
   </cc:Work>
  </rdf:RDF>
 </metadata>
 <g id="layer1" transform="translate(0 -956.36)">
  <g id="g3061" transform="matrix(1.0952 0 0 1.0952 -4.5714 951.79)" clip-path="url(#clipPath3060)">
   <g id="layer1-8">
    <g id="g3040">
     <rect id="rect2419" style="fill:url(#linearGradient3706)" rx="6" ry="6" height="84" width="84" y="6" x="6"/>
    </g>
   </g>
   <g id="layer5">
    <rect id="rect3171" style="opacity:.5;filter:url(#filter3794);stroke:#fff;stroke-linecap:round;stroke-width:.5;fill:url(#linearGradient3822)" clip-path="url(#clipPath3613)" rx="12" ry="12" height="66" width="66" y="15" x="15"/>
   </g>
   <g id="layer3">
    <path id="rect3362" style="opacity:.5;fill:#999" d="m12 12v17.938l8.094-17.938h-8.094zm9.906 0 8.094 17.938v-17.938h-8.094zm-0.906 7.031l-3.0312 7h2.9286l1.7188 3.9688h3.2277l-2.375-5.2812-0.0625-0.125-2.406-5.563z"/>
    <path id="path3192" style="opacity:.1;fill-rule:evenodd" d="m90 28.688c-23.517 30.33-59.751 34.471-84 30.093v4.9062c22.768 4.1099 50.946 3.418 71.312-5.0938-4.3872 6.3521-6.2238 13.464-6.6562 19.938-0.27813 4.164 0.003 8.0883 0.46875 11.469h4.0312c-0.47865-3.2618-0.77223-7.1118-0.5-11.188 0.631-9.439 4.067-19.828 15.344-26.968v-23.156z"/>
    <path id="path4144" style="fill:url(#linearGradient3203);fill-rule:evenodd" d="m58.762 6.0006c-3.948 8.6914-6.94 17.633-8.925 26.643-1.03 0.82-2.077 1.586-3.15 2.363-12.238 8.858-26.919 14.646-40.687 14.306v6.5625c12.183 1.149 20.289 3.211 25.806 10.549 5.457 7.258 8.513 14.434 8.513 23.575h4.2c0-9.1138-3.9545-19.94-9.3-26.069-5.283-6.056-11.955-8.861-20.95-10.943 12.029-1.611 23.973-6.959 34.256-14.306-2.966 17.22-2.482 34.708 1.181 51.318h29.006c-14.494-13.141-20.763-36.697-20.737-58.931 8.172-7.608 14.524-16.331 17.85-25.068h-4.4625c-2.765 6.4-7.4 12.968-13.256 19.031 0.356-6.699 1.425-13.111 2.887-19.031h-2.2312z"/>
    <path id="path3683" style="opacity:.6;fill:#500;fill-rule:evenodd" d="m58.75 6c-3.948 8.692-6.921 17.646-8.906 26.656-1.031 0.82-2.084 1.568-3.156 2.344-12.239 8.859-26.92 14.653-40.688 14.312v1c13.768 0.341 28.449-5.453 40.688-14.312 1.072-0.776 2.125-1.524 3.156-2.344 1.985-9.01 4.958-17.964 8.906-26.656h2c0.079-0.3329 0.169-0.6701 0.25-1h-2.25zm12.625 0c-2.7506 6.3666-7.375 12.901-13.188 18.938-0.02373 0.36488-0.07423 0.72712-0.09375 1.0938 5.857-6.064 10.517-12.632 13.282-19.032h4.0312c0.137-0.3362 0.278-0.6637 0.406-1h-4.437zm-13.344 29.25c0.53558 20.716 6.5589 42.087 19.625 54.75h1.0625c-13.587-12.32-19.966-33.794-20.687-54.75zm-9.5 4.4375c-0.06075 0.04341-0.12663 0.08173-0.1875 0.125-1.0482 6.4167-1.6115 12.857-1.7188 19.281 0.15624-6.4724 0.79422-12.949 1.9062-19.406zm-31.781 13.937c-0.82293 0.14489-1.6445 0.26465-2.4688 0.375 8.9955 2.082 15.655 4.8809 20.938 10.938 5.151 5.905 9.007 16.168 9.281 25.062h0.03125c0-9.1138-3.967-19.934-9.3125-26.062-4.78-5.482-10.719-8.284-18.468-10.313z"/>
    <path id="path3671" style="opacity:.8;fill:#fff;fill-rule:evenodd" d="m60.75 7c-1.3384 5.6415-2.3196 11.706-2.6562 18.031 0.03091-0.032 0.06291-0.06173 0.09375-0.09375 0.409-6.301 1.43-12.341 2.812-17.937h-0.25zm14.656 0c-3.42 8.3986-9.5793 16.747-17.438 24.062-0.000389 0.33177-0.0024 0.66768 0 1 8.174-7.608 14.519-16.324 17.844-25.062h-0.40625zm-26.875 31.688c-10.282 7.346-22.22 12.701-34.25 14.312 0.85478 0.19783 1.6551 0.41194 2.4688 0.625 11.117-1.9573 22.059-7.0343 31.594-13.812 0.0615-0.37652 0.1227-0.74873 0.1875-1.125zm-42.531 17.187v1c12.183 1.1502 20.295 3.2246 25.812 10.562 5.2549 6.9886 8.2525 13.898 8.4688 22.562h0.03125c0-9.1411-3.043-16.305-8.5-23.562-5.517-7.337-13.629-9.412-25.812-10.562zm40.625 8.6875c0.144 8.597 1.109 17.125 2.875 25.438h0.21875c-1.832-8.305-2.886-16.837-3.094-25.438z"/>
   </g>
  </g>
  <rect id="rect3003" style="opacity:.15;fill:#fff" clip-path="url(#clipPath3009)" rx="25" ry="25" transform="translate(98 3.8281e-7)" width="92" y="958.36" x="-96" height="92"/>
 </g>
</svg>
