<?xml version="1.0" encoding="UTF-8" standalone="no"?>
<!-- Created with Inkscape (http://www.inkscape.org/) -->
<svg id="svg11037" xmlns:rdf="http://www.w3.org/1999/02/22-rdf-syntax-ns#" xmlns="http://www.w3.org/2000/svg" height="96" width="96" version="1.1" xmlns:cc="http://creativecommons.org/ns#" xmlns:xlink="http://www.w3.org/1999/xlink" xmlns:dc="http://purl.org/dc/elements/1.1/">
 <defs id="defs11039">
  <linearGradient id="linearGradient11642" x1="48" gradientUnits="userSpaceOnUse" x2="48" gradientTransform="matrix(1.15 0 0 1.15 -7.1999 -150.65)" y1="962.62" y2="1046.1">
   <stop id="stop3702" style="stop-color:#e6e6e6" offset="0"/>
   <stop id="stop3704" style="stop-color:#f5f5f5" offset="1"/>
  </linearGradient>
  <clipPath id="clipPath3763">
   <path id="path3765" style="fill:#f0f" d="m-88 6c-3.324 0-6 2.676-6 6v72c0 3.324 2.676 6 6 6h72c3.324 0 6-2.676 6-6v-72c0-3.324-2.676-6-6-6h-72zm4 38a36 36 0 0 1 36 36h-7.1875a28.8 28.8 0 0 0 -28.812 -28.812v-7.188zm0 12.125a23.863 23.863 0 0 1 23.875 23.875h-7a16.869 16.869 0 0 0 -16.875 -16.875v-7zm4.9375 14c2.7267 0 4.9375 2.2108 4.9375 4.9375s-2.2108 4.9375-4.9375 4.9375c-2.727 0-4.938-2.211-4.938-4.938 0-2.7267 2.2108-4.9375 4.9375-4.9375z"/>
  </clipPath>
  <filter id="filter3767" color-interpolation-filters="sRGB">
   <feGaussianBlur id="feGaussianBlur3769" stdDeviation="1.08"/>
  </filter>
  <linearGradient id="linearGradient3707" x1="8" gradientUnits="userSpaceOnUse" y1="40" gradientTransform="matrix(.5625 0 0 .5625 34 57.5)" x2="8" y2="-57.782">
   <stop id="stop2843" style="stop-color:#d4530d" offset="0"/>
   <stop id="stop2845" style="stop-color:#f7ad25" offset="1"/>
  </linearGradient>
  <clipPath id="clipPath3009" clipPathUnits="userSpaceOnUse">
   <path id="path3011" style="opacity:.15;fill:#fff" d="m-2 956.36h-96v33.562l96 25.687v-59.25z"/>
  </clipPath>
 </defs>
 <metadata id="metadata11042">
  <rdf:RDF>
   <cc:Work rdf:about="">
    <dc:format>image/svg+xml</dc:format>
    <dc:type rdf:resource="http://purl.org/dc/dcmitype/StillImage"/>
    <dc:title/>
   </cc:Work>
  </rdf:RDF>
 </metadata>
 <g id="layer1" transform="translate(0 -956.36)">
  <rect id="rect3867" style="fill:url(#linearGradient11642)" rx="25" ry="25" height="92" width="92" y="958.36" x="2"/>
  <g id="layer3" transform="translate(1.03e-7 956.36)">
   <path id="path3754" style="opacity:.12;filter:url(#filter3767);stroke:#fff;stroke-width:2;fill:none" clip-path="url(#clipPath3763)" transform="translate(100)" d="m-84 44v7.2a28.8 28.8 0 0 1 28.8 28.8h7.2a36 36 0 0 0 -36 -36zm0 12.137v6.9943a16.869 16.869 0 0 1 16.869 16.869h6.9943a23.863 23.863 0 0 0 -23.863 -23.863zm4.9371 13.989c-2.727 0-4.937 2.21-4.937 4.937s2.21 4.937 4.937 4.937c2.7267 0 4.9371-2.2104 4.9371-4.9371s-2.2104-4.9371-4.9371-4.9371z"/>
   <path id="circle3643" style="fill:url(#linearGradient3707)" d="m16 44v7.2a28.8 28.8 0 0 1 28.8 28.8h7.2a36 36 0 0 0 -36 -36zm0 12.137v6.9943a16.869 16.869 0 0 1 16.869 16.869h6.9943a23.863 23.863 0 0 0 -23.863 -23.863zm4.9371 13.989c-2.727 0-4.937 2.21-4.937 4.937s2.21 4.937 4.937 4.937c2.7267 0 4.9371-2.2104 4.9371-4.9371s-2.2104-4.9371-4.9371-4.9371z"/>
   <path id="path3735" style="opacity:.3;fill:#803300" d="m16 44v7.1875c0.32324 0.01539 0.64622 0.03623 0.96875 0.0625 0.000668-0.02083 0.000668-0.04167 0-0.0625v-6.1562c0.81294 0.02133 1.6041 0.03984 2.4688 0.125 1.2042 0.1186 2.2195 0.26394 3.4062 0.5s2.1546 0.46126 3.3125 0.8125 2.1321 0.69321 3.25 1.1562c1.1179 0.46304 2.0266 0.92962 3.0938 1.5 1.0671 0.57038 1.9627 1.0778 2.9688 1.75 1.0061 0.67223 1.8147 1.2949 2.75 2.0625 0.93532 0.7676 1.7069 1.4257 2.5625 2.2812 0.85558 0.85558 1.5136 1.6272 2.2812 2.5625 0.7676 0.93532 1.3903 1.7439 2.0625 2.75 0.67223 1.0061 1.1796 1.9016 1.75 2.9688 0.57038 1.0671 1.037 1.9759 1.5 3.0938 0.46304 1.1179 0.80501 2.0921 1.1562 3.25 0.35124 1.1579 0.57644 2.1258 0.8125 3.3125s0.3814 2.2021 0.5 3.4062c0.08516 0.86462 0.10367 1.6558 0.125 2.4688h-6.1562c-0.01042-0.000167-0.02083-0.000167-0.03125 0 0.014 0.321 0.025 0.644 0.029 0.967h7.188c0-9.425-3.88-18.792-10.544-25.456s-16.031-10.544-25.456-10.544zm0 12.125v7c0.32343 0.01154 0.64652 0.03238 0.96875 0.0625 0.000668-0.02083 0.000668-0.04167 0-0.0625v-5.9688c0.40921 0.01676 0.8205 0.01733 1.2812 0.0625 0.80944 0.07936 1.421 0.15413 2.2188 0.3125 0.79775 0.15837 1.4091 0.32665 2.1875 0.5625 0.77837 0.23585 1.3735 0.43895 2.125 0.75 0.75148 0.31105 1.3139 0.58549 2.0312 0.96875 0.71735 0.38326 1.2299 0.70448 1.9062 1.1562 0.6763 0.45177 1.1838 0.79658 1.8125 1.3125 0.62874 0.51592 1.0811 0.95615 1.6562 1.5312 0.5751 0.5751 1.0153 1.0275 1.5312 1.6562 0.51592 0.62874 0.86073 1.1362 1.3125 1.8125s0.77299 1.1889 1.1562 1.9062c0.38326 0.71735 0.6577 1.2798 0.96875 2.0312 0.31105 0.75148 0.51415 1.3466 0.75 2.125 0.23585 0.77837 0.40413 1.3898 0.5625 2.1875 0.15837 0.79775 0.23314 1.4093 0.3125 2.2188 0.04517 0.46076 0.04574 0.87204 0.0625 1.2812h-5.9688c-0.02083-0.000668-0.04167-0.000668-0.0625 0 0.03012 0.32223 0.05096 0.64532 0.0625 0.96875h7c0.004-6.25-2.568-12.464-6.988-16.885-4.421-4.42-10.635-6.992-16.886-6.989zm4.9375 14c-2.727 0-4.938 2.211-4.938 4.937 0 2.727 2.211 4.938 4.938 4.938 2.7267 0 4.9375-2.2108 4.9375-4.9375s-2.2108-4.9375-4.9375-4.9375zm0 0.96875c2.2002 0 3.9688 1.7686 3.9688 3.9688s-1.7686 3.9688-3.9688 3.9688-3.9688-1.7686-3.9688-3.9688 1.7686-3.9688 3.9688-3.9688z"/>
   <path id="path3709" style="opacity:.5;fill:#803300" d="m16 44v1a36 36 0 0 1 35.938 35h0.062a36 36 0 0 0 -36 -36zm0 12.125v1a23.863 23.863 0 0 1 23.812 22.875h0.0625a23.863 23.863 0 0 0 -23.874 -23.875zm4.9375 14c-2.727 0-4.938 2.211-4.938 4.937 0 0.17042 0.0144 0.33403 0.03125 0.5 0.25283-2.4896 2.35-4.4375 4.9062-4.4375 2.5563 0 4.6534 1.9479 4.9062 4.4375 0.01685-0.16597 0.03125-0.32958 0.03125-0.5 0-2.7267-2.2108-4.9375-4.9375-4.9375z"/>
   <path id="path3745" style="fill:#fff" d="m16 51.188v1a28.8 28.8 0 0 1 28.812 28.812h7.188a36 36 0 0 0 -0.0625 -1h-7.125a28.8 28.8 0 0 0 -28.813 -28.812zm0 11.938v1a16.869 16.869 0 0 1 16.875 16.874h7a23.863 23.863 0 0 0 -0.063 -1h-6.937a16.869 16.869 0 0 0 -16.875 -16.875zm0.03125 12.438c-0.017 0.164-0.031 0.328-0.031 0.498 0 2.727 2.211 4.938 4.938 4.938 2.7267 0 4.9375-2.2108 4.9375-4.9375 0-0.17042-0.0144-0.33403-0.03125-0.5-0.253 2.49-2.35 4.438-4.906 4.438-2.557 0-4.654-1.948-4.907-4.438z"/>
  </g>
  <rect id="rect3003" style="opacity:.15;fill:#fff" clip-path="url(#clipPath3009)" rx="25" ry="25" transform="translate(98 3.8281e-7)" width="92" y="958.36" x="-96" height="92"/>
 </g>
</svg>
