<?xml version="1.0" encoding="UTF-8" standalone="no"?>
<!-- Created with Inkscape (http://www.inkscape.org/) -->
<svg id="svg11037" xmlns:rdf="http://www.w3.org/1999/02/22-rdf-syntax-ns#" xmlns="http://www.w3.org/2000/svg" height="96" width="96" version="1.1" xmlns:cc="http://creativecommons.org/ns#" xmlns:xlink="http://www.w3.org/1999/xlink" xmlns:dc="http://purl.org/dc/elements/1.1/">
 <defs id="defs11039">
  <linearGradient id="linearGradient11642" x1="48" gradientUnits="userSpaceOnUse" x2="48" gradientTransform="matrix(1.15 0 0 1.15 -7.1999 -150.65)" y1="962.62" y2="1046.1">
   <stop id="stop3702" style="stop-color:#e6e6e6" offset="0"/>
   <stop id="stop3704" style="stop-color:#f5f5f5" offset="1"/>
  </linearGradient>
  <radialGradient id="radialGradient4110-3" gradientUnits="userSpaceOnUse" cy="24.634" cx="61" gradientTransform="matrix(1.2626 -.21044 .095207 .57124 -18.366 22.765)" r="19.008">
   <stop id="stop3800-3" style="stop-color:#0a85ff" offset="0"/>
   <stop id="stop3802-0" style="stop-color:#006ad3;stop-opacity:0" offset="1"/>
  </radialGradient>
  <filter id="filter3810-9" color-interpolation-filters="sRGB">
   <feGaussianBlur id="feGaussianBlur3812-0" stdDeviation="0.42"/>
  </filter>
  <radialGradient id="radialGradient4112-0" xlink:href="#linearGradient3816-7" gradientUnits="userSpaceOnUse" cy="36.957" cx="41.753" gradientTransform="matrix(3.3631 -.59089 .30096 1.713 -109.79 2.6806)" r="19"/>
  <linearGradient id="linearGradient3816-7">
   <stop id="stop3818-5" style="stop-color:#51acff" offset="0"/>
   <stop id="stop3824-1" style="stop-color:#6abaee;stop-opacity:.67451" offset=".5"/>
   <stop id="stop3820-9" style="stop-color:#318fe4;stop-opacity:0" offset="1"/>
  </linearGradient>
  <linearGradient id="linearGradient4114-8" x1="80" gradientUnits="userSpaceOnUse" y1="37" gradientTransform="translate(4.405e-7 3)" x2="77" y2="37">
   <stop id="stop3862-2" style="stop-color:#002767" offset="0"/>
   <stop id="stop3868-2" style="stop-color:#003180;stop-opacity:.36434" offset=".5"/>
   <stop id="stop3864-9" style="stop-color:#002767;stop-opacity:0" offset="1"/>
  </linearGradient>
  <linearGradient id="linearGradient4116-8" x1="52" gradientUnits="userSpaceOnUse" y1="10" gradientTransform="translate(4.405e-7 3)" x2="51.631" y2="8.0841">
   <stop id="stop3830-5" style="stop-color:#a2d7fb" offset="0"/>
   <stop id="stop3832-2" style="stop-color:#a2d7fb;stop-opacity:0" offset="1"/>
  </linearGradient>
  <radialGradient id="radialGradient4118-3" xlink:href="#linearGradient3816-7" gradientUnits="userSpaceOnUse" cy="39.106" cx="40.285" gradientTransform="matrix(3.373 -.53175 .18746 1.1891 -71.605 16.442)" r="19"/>
  <radialGradient id="radialGradient4120-3" gradientUnits="userSpaceOnUse" cy="50.609" cx="46" gradientTransform="matrix(2.6667 -6.9565e-8 8e-7 30.667 -76.667 -1477)" r="1.5">
   <stop id="stop3881-4" style="stop-color:#002767" offset="0"/>
   <stop id="stop3883-4" style="stop-color:#003180;stop-opacity:.36434" offset=".5"/>
   <stop id="stop3885-7" style="stop-color:#002767;stop-opacity:0" offset="1"/>
  </radialGradient>
  <radialGradient id="radialGradient4122-3" gradientUnits="userSpaceOnUse" cy="69.844" cx="39.769" gradientTransform="matrix(1.1598 -.14009 .072442 .58349 -11.414 33.341)" r="11">
   <stop id="stop3960-0" style="stop-color:#01a3f1" offset="0"/>
   <stop id="stop3962-5" style="stop-color:#01a3f1;stop-opacity:0" offset="1"/>
  </radialGradient>
  <linearGradient id="linearGradient4124-1" x1="40" xlink:href="#linearGradient3934-5" gradientUnits="userSpaceOnUse" x2="41.884" y1="70" y2="62.968"/>
  <linearGradient id="linearGradient3934-5">
   <stop id="stop3936-7" style="stop-color:#003d9e" offset="0"/>
   <stop id="stop3938-7" style="stop-color:#003d9e;stop-opacity:0" offset="1"/>
  </linearGradient>
  <linearGradient id="linearGradient4126-6" x1="40" xlink:href="#linearGradient3934-5" gradientUnits="userSpaceOnUse" x2="42" y1="69" y2="64"/>
  <linearGradient id="linearGradient4128-7" x1="31" xlink:href="#linearGradient3894-7" gradientUnits="userSpaceOnUse" y1="61" gradientTransform="translate(4.405e-7 3)" x2="36" y2="70"/>
  <linearGradient id="linearGradient3894-7">
   <stop id="stop3896-6" style="stop-color:#93ddf7" offset="0"/>
   <stop id="stop3898-4" style="stop-color:#93ddf7;stop-opacity:0" offset="1"/>
  </linearGradient>
  <linearGradient id="linearGradient4132-9" x1="40" xlink:href="#linearGradient3934-5" gradientUnits="userSpaceOnUse" y1="70" gradientTransform="translate(34 -5)" x2="41.884" y2="62.968"/>
  <linearGradient id="linearGradient4134-5" x1="40" xlink:href="#linearGradient3934-5" gradientUnits="userSpaceOnUse" y1="69" gradientTransform="translate(34 -5)" x2="42" y2="64"/>
  <linearGradient id="linearGradient4136-2" x1="31" xlink:href="#linearGradient3894-7" gradientUnits="userSpaceOnUse" y1="61" gradientTransform="translate(34 -2)" x2="36" y2="70"/>
  <clipPath id="clipPath3009" clipPathUnits="userSpaceOnUse">
   <path id="path3011-9" style="opacity:.15;fill:#fff" d="m-2 956.36h-96v33.562l96 25.687v-59.25z"/>
  </clipPath>
 </defs>
 <metadata id="metadata11042">
  <rdf:RDF>
   <cc:Work rdf:about="">
    <dc:format>image/svg+xml</dc:format>
    <dc:type rdf:resource="http://purl.org/dc/dcmitype/StillImage"/>
    <dc:title/>
   </cc:Work>
  </rdf:RDF>
 </metadata>
 <g id="layer1" transform="translate(0 -956.36)">
  <rect id="rect3867" style="fill:url(#linearGradient11642)" rx="25" ry="25" height="92" width="92" y="958.36" x="2"/>
  <g id="layer3" transform="translate(-8.2954e-8 956.36)">
   <g id="text3731" style="fill:#666">
    <path id="path3736" style="fill:#666" d="m42.514 78.023c-0.000009-0.42763-0.03652-0.87092-0.10952-1.3299-0.06259-0.46935-0.16689-0.92307-0.31291-1.3611-0.1356-0.44849-0.31813-0.87613-0.54759-1.2829-0.22947-0.40677-0.50588-0.7614-0.8292-1.0639-0.32334-0.30247-0.70405-0.54236-1.1421-0.71969-0.42765-0.1773-0.91265-0.26596-1.455-0.26597-0.84485 0.000012-1.5541 0.19819-2.1278 0.59452-0.56324 0.39636-1.0117 0.89701-1.3455 1.502-0.33377 0.60496-0.57366 1.2673-0.71969 1.987-0.13559 0.71969-0.20339 1.4081-0.20339 2.0652 0 0.63625 0.07823 1.2986 0.23468 1.987 0.16688 0.6884 0.42242 1.3194 0.76662 1.8931 0.35463 0.57366 0.80834 1.0482 1.3611 1.4237 0.56323 0.36506 1.236 0.54759 2.0183 0.54759 0.81355 0 1.5019-0.18774 2.0652-0.56323 0.56323-0.38592 1.0169-0.87092 1.3611-1.455 0.34419-0.59452 0.59452-1.2412 0.75098-1.94 0.15644-0.69882 0.23467-1.3716 0.23468-2.0183m-1.5332 0.01565c-0.000007 0.49023-0.04694 1.0013-0.14081 1.5332-0.09388 0.53195-0.25033 1.0222-0.46936 1.4707-0.21904 0.43807-0.5163 0.80313-0.89179 1.0952-0.36506 0.28162-0.824 0.42243-1.3768 0.42242-0.53195 0.000001-0.98045-0.13559-1.3455-0.40678-0.36506-0.28162-0.66232-0.63624-0.89179-1.0639-0.21904-0.42764-0.38071-0.897-0.48501-1.4081-0.09387-0.51108-0.14081-1.0065-0.14081-1.4863-0.000002-0.29204 0.01043-0.60495 0.03129-0.93872 0.02086-0.34419 0.06258-0.67796 0.12516-1.0013 0.06258-0.33376 0.15124-0.64667 0.26597-0.93872 0.11473-0.30247 0.26075-0.56322 0.43807-0.78227 0.27118-0.33376 0.56844-0.59451 0.89179-0.78227 0.33376-0.18774 0.71447-0.28161 1.1421-0.28162 0.54237 0.00001 0.99608 0.14603 1.3611 0.43807 0.36505 0.29206 0.6571 0.66754 0.87614 1.1265 0.21903 0.44851 0.37548 0.94394 0.46936 1.4863 0.09387 0.53195 0.1408 1.0378 0.14081 1.5176"/>
    <path id="path3738" style="fill:#666" d="m52.287 83.812v-5.9765l-4.1147 0.01564v1.4394h2.6128v2.1121c-0.14603 0.15646-0.31292 0.29726-0.50065 0.42242-0.18775 0.12516-0.39114 0.23468-0.61017 0.32855-0.20861 0.09387-0.42765 0.16689-0.65711 0.21904-0.21904 0.05215-0.43286 0.07823-0.64146 0.07823-0.59453 0.000002-1.09-0.13038-1.4863-0.39113-0.39635-0.27118-0.71447-0.6206-0.95437-1.0482-0.22947-0.42764-0.39635-0.90743-0.50065-1.4394-0.09387-0.53194-0.14081-1.0639-0.14081-1.5958-0.000002-0.53194 0.04693-1.0639 0.14081-1.5958 0.1043-0.53194 0.27118-1.0117 0.50065-1.4394 0.23989-0.43806 0.5528-0.78747 0.93872-1.0482 0.39635-0.27118 0.89178-0.40677 1.4863-0.40678 0.37548 0.00001 0.69361 0.06259 0.95437 0.18774 0.27118 0.11474 0.50064 0.28684 0.6884 0.5163 0.19817 0.22948 0.35984 0.50588 0.48501 0.8292 0.13559 0.32335 0.25032 0.6884 0.3442 1.0952l1.3299-0.45372c-0.11474-0.54236-0.2712-1.0378-0.46936-1.4863-0.18775-0.44849-0.43808-0.83441-0.75098-1.1578-0.30248-0.32333-0.66754-0.56844-1.0952-0.73533-0.42765-0.1773-0.9283-0.26596-1.502-0.26597-0.85528 0.000011-1.575 0.18776-2.1591 0.56323-0.5841 0.36507-1.0535 0.83964-1.4081 1.4237-0.35463 0.57367-0.61017 1.2203-0.76662 1.94-0.15645 0.71969-0.23468 1.429-0.23468 2.1278-0.000001 0.70926 0.08344 1.4185 0.25033 2.1278 0.16688 0.69883 0.43807 1.3299 0.81356 1.8931 0.37549 0.56323 0.86049 1.0222 1.455 1.3768 0.59452 0.35463 1.3142 0.53194 2.1591 0.53194 0.42763 0 0.83441-0.09909 1.2203-0.29726 0.39634-0.18774 0.77183-0.38592 1.1265-0.59452v0.70404h1.4863"/>
    <path id="path3740" style="fill:#666" d="m62.279 83.812v-5.9765l-4.1147 0.01564v1.4394h2.6128v2.1121c-0.14603 0.15646-0.31292 0.29726-0.50065 0.42242-0.18775 0.12516-0.39114 0.23468-0.61017 0.32855-0.20861 0.09387-0.42765 0.16689-0.65711 0.21904-0.21904 0.05215-0.43286 0.07823-0.64146 0.07823-0.59453 0.000002-1.09-0.13038-1.4863-0.39113-0.39635-0.27118-0.71448-0.6206-0.95437-1.0482-0.22947-0.42764-0.39635-0.90743-0.50065-1.4394-0.09387-0.53194-0.14081-1.0639-0.14081-1.5958-0.000002-0.53194 0.04693-1.0639 0.14081-1.5958 0.1043-0.53194 0.27118-1.0117 0.50065-1.4394 0.23989-0.43806 0.5528-0.78747 0.93872-1.0482 0.39635-0.27118 0.89178-0.40677 1.4863-0.40678 0.37548 0.00001 0.69361 0.06259 0.95437 0.18774 0.27118 0.11474 0.50064 0.28684 0.6884 0.5163 0.19817 0.22948 0.35984 0.50588 0.48501 0.8292 0.13559 0.32335 0.25032 0.6884 0.3442 1.0952l1.3299-0.45372c-0.11474-0.54236-0.2712-1.0378-0.46936-1.4863-0.18775-0.44849-0.43808-0.83441-0.75098-1.1578-0.30248-0.32333-0.66754-0.56844-1.0952-0.73533-0.42765-0.1773-0.9283-0.26596-1.502-0.26597-0.85528 0.000011-1.575 0.18776-2.1591 0.56323-0.5841 0.36507-1.0535 0.83964-1.4081 1.4237-0.35463 0.57367-0.61017 1.2203-0.76662 1.94-0.15645 0.71969-0.23468 1.429-0.23468 2.1278-0.000001 0.70926 0.08344 1.4185 0.25033 2.1278 0.16688 0.69883 0.43807 1.3299 0.81356 1.8931 0.37549 0.56323 0.86049 1.0222 1.455 1.3768 0.59452 0.35463 1.3142 0.53194 2.1591 0.53194 0.42763 0 0.83441-0.09909 1.2203-0.29726 0.39634-0.18774 0.77183-0.38592 1.1265-0.59452v0.70404h1.4863"/>
   </g>
   <path id="path4241" style="opacity:.05;fill:#005ef5" d="m65.594 11.094c-10.024 1.779-20.084 3.468-30.094 5.312-1.9764 0.76331-1.0321 3.248-1.25 4.8623v31.45c-5.7436-0.70556-12.716 3.9658-11.706 10.278 1.4494 5.9059 9.1113 7.1502 13.923 4.7268 4.0827-1.6483 6.4123-6.0676 5.9702-10.33v-25.768c5.6562-1.0208 11.312-2.0417 16.969-3.0625v20.469c-5.7611-0.77515-12.674 4.0029-11.706 10.279 1.4509 5.9047 9.1114 7.1485 13.923 4.7253 4.0827-1.6483 6.4123-6.0676 5.9702-10.33-0.02094-13.703 0.04182-27.416-0.03125-41.112-0.18604-0.90952-1.0574-1.5506-1.9688-1.5z"/>
   <path id="path4237" d="m66.562 14.062-29.593 5.188a0.93647 0.93647 0 0 0 -0.78125 0.9375v35.531c-1.6156-0.23382-3.3445-0.21598-5.0938 0.34375-2.3501 0.752-4.25 2.1289-5.4375 3.8125s-1.6508 3.745-0.96875 5.6562c0.68174 1.9104 2.3423 3.2484 4.3438 3.9062 2.0015 0.65786 4.3668 0.6901 6.7188-0.0625 3.8165-1.2212 6.4373-4.1522 6.625-7.3125a0.93647 0.93647 0 0 0 0.124 -0.468v-28.781l18.844-3.375v22.594c-1.611-0.24159-3.3378-0.24939-5.0938 0.3125-2.352 0.75262-4.2509 2.1525-5.4375 3.8438s-1.6511 3.7441-0.96875 5.6562c0.68174 1.9104 2.3423 3.2484 4.3438 3.9062 2.0015 0.65786 4.3668 0.6901 6.7188-0.0625 3.8165-1.2212 6.4373-4.1522 6.625-7.3125a0.93647 0.93647 0 0 0 0.125 -0.46875l-0.001-42.907a0.93647 0.93647 0 0 0 -1.094 -0.938z" style="opacity:.12;fill:#005ef5" transform="translate(-1,-2)"/>
   <path id="path4140" style="opacity:.3;fill:#005ef5" d="m65.712 13-29.589 5.1781v36.57c-1.7156-0.46318-3.7445-0.43562-5.756 0.20805-4.3471 1.391-6.9373 5.0948-5.8022 8.2757 1.1351 3.1808 5.5699 4.6273 9.917 3.2363 3.7133-1.1882 6.131-4.0692 6.0565-6.8656h0.02312v-29.589l20.712-3.6986v24.735c-1.7156-0.46319-3.7445-0.43562-5.756 0.20805-4.3471 1.391-6.9373 5.0948-5.8022 8.2757 1.1351 3.1808 5.5699 4.6273 9.9169 3.2363 3.7132-1.1882 6.131-4.0692 6.0565-6.8656h0.0231v-42.904z"/>
   <g id="g4093" transform="matrix(.73973 0 0 .73973 6.5342 7.5616)">
    <path id="path3011" style="fill:#0046b5" d="m80 6-40 7v49.438c-2.3193-0.62616-5.062-0.58889-7.7812 0.28125-5.8766 1.8805-9.3783 6.8875-7.8437 11.188 1.5345 4.3 7.5296 6.2555 13.406 4.375 5.02-1.607 8.288-5.502 8.188-9.282h0.031v-40l28-5v33.438c-2.3193-0.62616-5.062-0.58889-7.7812 0.28125-5.8766 1.8805-9.3783 6.8875-7.8438 11.188 1.5345 4.3 7.5296 6.2555 13.406 4.375 5.02-1.607 8.288-5.502 8.188-9.282h0.031v-58z"/>
    <path id="path3796" style="filter:url(#filter3810-9);fill:url(#radialGradient4110-3)" d="m42 16v13l36-7v-13l-36 7z"/>
    <path id="path3814" style="fill:url(#radialGradient4112-0)" d="m79 8-38 7v47.75c0.72261 0.27229 1.4026 0.59025 2 1v-33.75c0-4 0.41719-5.5006 4-7 10.867-4.5478 27-2 32-15z"/>
    <path id="path3850" style="fill:url(#linearGradient4114-8)" d="m80 6-3 0.5312v63.719c1.917-1.807 3.028-4.043 2.969-6.25h0.031v-58z"/>
    <path id="path3826" style="fill:url(#linearGradient4116-8)" d="m40 13 1 2 38-7 1-2l-40 7z"/>
    <path id="path3841" style="fill:url(#radialGradient4118-3)" d="m77.062 23.438-2.062 0.343v33.969c0.72261 0.27229 1.4026 0.59025 2 1v-33.75c0-0.57949 0.03663-1.0803 0.0625-1.5625z"/>
    <path id="path3870" style="fill:url(#radialGradient4120-3)" d="m46 29-3 0.531v45.719c1.917-1.807 3.028-4.043 2.969-6.25h0.031v-40z"/>
    <path id="path3906" d="m51 65a11 8 0 1 1 -22 0 11 8 0 1 1 22 0z" style="color:#000000;fill:url(#radialGradient4122-3)" transform="matrix(.96732 -.30953 .34731 .97324 -26.268 19.621)"/>
    <path id="path3927" style="opacity:.2;color:#000000;fill:url(#linearGradient4124-1)" d="m36.594 62c-1.4136 0.01337-2.9058 0.24864-4.375 0.71875-5.8766 1.8805-9.3783 6.8875-7.8437 11.188 1.5345 4.3 7.5296 6.2555 13.406 4.375 5.8766-1.8805 9.3783-6.8875 7.8438-11.188-1.151-3.225-4.79-5.134-9.031-5.094zm0.09375 1.8438c1.2256-0.01097 2.3477 0.17481 3.3438 0.5 1.9921 0.65038 3.3123 1.8234 3.8438 3.3125 0.5314 1.4891 0.26089 3.1825-0.90625 4.8438s-3.2216 3.2022-5.8125 4.0312c-2.5909 0.82905-5.1954 0.77538-7.1875 0.125s-3.3123-1.8234-3.8438-3.3125c-0.5314-1.4891-0.26089-3.1825 0.90625-4.8438s3.2216-3.2022 5.8125-4.0312c1.2954-0.41452 2.6182-0.61403 3.8438-0.625z"/>
    <path id="path3920" style="opacity:.5;color:#000000;fill:url(#linearGradient4126-6)" d="m36.594 62c-1.4136 0.01337-2.9058 0.24864-4.375 0.71875-5.8766 1.8805-9.3783 6.8875-7.8437 11.188 1.5345 4.3 7.5296 6.2555 13.406 4.375 5.8766-1.8805 9.3783-6.8875 7.8438-11.188-1.151-3.225-4.79-5.134-9.031-5.094zm0.03125 1.0312c1.3081-0.01099 2.5614 0.17381 3.6562 0.53125 2.1896 0.71488 3.768 2.0554 4.4062 3.8438 0.63821 1.7884 0.22039 3.7677-1.0625 5.5938s-3.4393 3.4331-6.1875 4.3125-5.5291 0.83988-7.7187 0.125-3.768-2.0554-4.4062-3.8438c-0.63821-1.7884-0.22039-3.7677 1.0625-5.5938s3.4393-3.4331 6.1875-4.3125c1.3741-0.4397 2.7544-0.64526 4.0625-0.65625z"/>
    <path id="path3891" style="color:#000000;fill:url(#linearGradient4128-7)" d="m40 65c1.2209 2.4769-1.4442 5.1714-5.4072 7.1248s-7.7233 2.426-8.9441-0.05091c-1.2209-2.4769 1.0021-6.0683 4.9651-8.0217s8.1654-1.529 9.3862 0.94786z"/>
    <path id="path3966" d="m51 65a11 8 0 1 1 -22 0 11 8 0 1 1 22 0z" style="color:#000000;fill:url(#radialGradient4122-3)" transform="matrix(.96732 -.30953 .34731 .97324 7.732 14.621)"/>
    <path id="path3968" style="opacity:.2;color:#000000;fill:url(#linearGradient4132-9)" d="m70.594 57c-1.4136 0.01337-2.9058 0.24864-4.375 0.71875-5.8766 1.8805-9.3783 6.8875-7.8438 11.188 1.5345 4.3 7.5296 6.2555 13.406 4.375 5.8766-1.8805 9.3783-6.8875 7.8438-11.188-1.151-3.225-4.79-5.134-9.031-5.094zm0.09375 1.8438c1.2256-0.01097 2.3477 0.17481 3.3438 0.5 1.9921 0.65038 3.3123 1.8234 3.8438 3.3125 0.5314 1.4891 0.26089 3.1825-0.90625 4.8438s-3.2216 3.2022-5.8125 4.0312c-2.5909 0.82905-5.1954 0.77538-7.1875 0.125s-3.3123-1.8234-3.8438-3.3125c-0.5314-1.4891-0.26089-3.1825 0.90625-4.8438s3.2216-3.2022 5.8125-4.0312c1.2954-0.41452 2.6182-0.61403 3.8438-0.625z"/>
    <path id="path3970" style="opacity:.5;color:#000000;fill:url(#linearGradient4134-5)" d="m70.594 57c-1.4136 0.01337-2.9058 0.24864-4.375 0.71875-5.8766 1.8805-9.3783 6.8875-7.8438 11.188 1.5345 4.3 7.5296 6.2555 13.406 4.375 5.8766-1.8805 9.3783-6.8875 7.8438-11.188-1.151-3.225-4.79-5.134-9.031-5.094zm0.03125 1.0312c1.3081-0.01099 2.5614 0.17381 3.6562 0.53125 2.1896 0.71488 3.768 2.0554 4.4062 3.8438 0.63821 1.7884 0.22039 3.7677-1.0625 5.5938s-3.4393 3.4331-6.1875 4.3125-5.5291 0.83988-7.7188 0.125c-2.19-0.714-3.768-2.055-4.407-3.843-0.638-1.789-0.22-3.768 1.063-5.594 1.2829-1.8261 3.4393-3.4331 6.1875-4.3125 1.3741-0.4397 2.7544-0.64526 4.0625-0.65625z"/>
    <path id="path3972" style="color:#000000;fill:url(#linearGradient4136-2)" d="m74 60c1.2209 2.4769-1.4442 5.1714-5.4072 7.1248s-7.7233 2.426-8.9441-0.05091c-1.2209-2.4769 1.0021-6.0683 4.9651-8.0217s8.1654-1.529 9.3862 0.94786z"/>
   </g>
  </g>
  <rect id="rect3003" style="opacity:.15;fill:#fff" clip-path="url(#clipPath3009)" rx="25" ry="25" transform="translate(98 3.8281e-7)" width="92" y="958.36" x="-96" height="92"/>
 </g>
</svg>
