<?xml version="1.0" encoding="UTF-8" standalone="no"?>
<!-- Created with Inkscape (http://www.inkscape.org/) -->
<svg id="svg11037" xmlns:rdf="http://www.w3.org/1999/02/22-rdf-syntax-ns#" xmlns="http://www.w3.org/2000/svg" height="96" width="96" version="1.1" xmlns:cc="http://creativecommons.org/ns#" xmlns:xlink="http://www.w3.org/1999/xlink" xmlns:dc="http://purl.org/dc/elements/1.1/">
 <defs id="defs11039">
  <linearGradient id="linearGradient11642" x1="48" gradientUnits="userSpaceOnUse" x2="48" gradientTransform="matrix(1.15 0 0 1.15 -7.1999 -150.65)" y1="962.62" y2="1046.1">
   <stop id="stop3702" style="stop-color:#e6e6e6" offset="0"/>
   <stop id="stop3704" style="stop-color:#f5f5f5" offset="1"/>
  </linearGradient>
  <linearGradient id="linearGradient3871" y2="24" gradientUnits="userSpaceOnUse" y1="72" x2="48" x1="48">
   <stop id="stop3699" style="stop-color:#bababa" offset="0"/>
   <stop id="stop3701" style="stop-color:#d2d2d2" offset="1"/>
  </linearGradient>
  <clipPath id="clipPath3900">
   <path id="path3902" style="fill:#f0f" d="m12 6c-3.324 0-6 2.676-6 6v72c0 3.324 2.676 6 6 6h72c3.324 0 6-2.676 6-6v-72c0-3.324-2.676-6-6-6h-72zm36 18c7.1156 0 12.812 5.3588 12.812 12-0.02737 0.80462-0.06285 1.7872-0.125 2.7188 1.0542 0.66289 1.1062 2.8756 0.125 5.1875-0.34904 0.82239-0.74494 1.4886-1.2188 2.0625-0.14887 0.69438-0.21547 1.2248-0.40625 2.0312-0.53084 1.5925-2.6375 4.7786-4.2188 7.2188-0.10157 1.6192-0.07483 3.2623 0.125 4.9062 4.9388 4.2946 17.855 6.5744 17.875 10.25l0.25 1.625h-50.438l0.25-1.625c-0.01917-4.2946 12.875-6.1016 17.875-10.25 0.34667-2.0212 0.17016-3.8171 0-5.5938-1.734-2.312-3.616-5.1-4.093-6.53-0.17079-0.78174-0.14306-1.0973-0.28125-1.7812-0.56875-0.61214-1.0904-1.3475-1.5-2.3125-1.0329-2.4336-0.93555-4.7961 0.28125-5.3125-0.067-0.862-0.108-1.887-0.124-2.594 0-6.641 5.696-12 12.812-12z"/>
  </clipPath>
  <filter id="filter3904" width="1.281" y="-.14768" x="-.1405" height="1.2954" color-interpolation-filters="sRGB">
   <feGaussianBlur id="feGaussianBlur3906" stdDeviation="2.9536363"/>
  </filter>
  <clipPath id="clipPath3009" clipPathUnits="userSpaceOnUse">
   <path id="path3011" style="opacity:.15;fill:#fff" d="m-2 956.36h-96v33.562l96 25.687v-59.25z"/>
  </clipPath>
 </defs>
 <metadata id="metadata11042">
  <rdf:RDF>
   <cc:Work rdf:about="">
    <dc:format>image/svg+xml</dc:format>
    <dc:type rdf:resource="http://purl.org/dc/dcmitype/StillImage"/>
    <dc:title/>
   </cc:Work>
  </rdf:RDF>
 </metadata>
 <g id="layer1" transform="translate(0 -956.36)">
  <rect id="rect3867" style="fill:url(#linearGradient11642)" rx="25" ry="25" height="92" width="92" y="958.36" x="2"/>
  <g id="g3102" transform="translate(3.7885e-7 956.36)">
   <g id="g3064">
    <path id="path3159" style="fill:url(#linearGradient3871)" d="m48 24c-7.1156 0-12.818 5.3588-12.818 12 0.01605 0.7072 0.06889 1.7294 0.13637 2.5909-1.2168 0.51643-1.3056 2.8846-0.27273 5.3182 0.40958 0.96505 0.93125 1.706 1.5 2.3182 0.13819 0.68394 0.10193 0.99099 0.27273 1.7727 0.4766 1.4298 2.3556 4.232 4.0909 6.5455 0.17016 1.7767 0.34667 3.5697 0 5.5909-5.0001 4.1484-17.883 5.9327-17.864 10.227l-0.272 1.636h50.454l-0.272-1.636c-0.021-3.676-12.925-5.933-17.864-10.228-0.2-1.644-0.238-3.289-0.136-4.909 1.581-2.44 3.696-5.634 4.227-7.227 0.19078-0.80644 0.26022-1.3511 0.40909-2.0455 0.47382-0.57394 0.87824-1.2231 1.2273-2.0455 0.98122-2.3119 0.9178-4.5189-0.13635-5.1818 0.06215-0.9315 0.10898-1.9227 0.13635-2.7273 0-6.641-5.702-12-12.818-12z"/>
    <path id="path3873" style="fill:#fff" d="m35.219 36.5c-0.0074 0.16863-0.03125 0.32962-0.03125 0.5 0.01006 0.44327 0.06024 1.0514 0.09375 1.625 0.01311-0.0061 0.01787-0.02557 0.03125-0.03125-0.055-0.696-0.071-1.439-0.094-2.094zm25.562 0.03125c-0.02801 0.69841-0.04375 1.4381-0.09375 2.1875 0.01252 0.0079 0.01901 0.02294 0.03125 0.03125 0.03266-0.60705 0.07613-1.2319 0.09375-1.75 0-0.15977-0.02471-0.31052-0.03125-0.46875zm-26.406 4.875c-0.07443 0.98149 0.11599 2.2271 0.65625 3.5 0.40958 0.96505 0.93125 1.7004 1.5 2.3125 0.13819 0.68394 0.11046 0.99951 0.28125 1.7812 0.4766 1.4298 2.3585 4.2178 4.0938 6.5312 0.08508 0.88835 0.16544 1.7958 0.1875 2.7188 0.04371-1.2852-0.07217-2.5145-0.1875-3.7188-1.735-2.313-3.617-5.101-4.094-6.531-0.17079-0.78174-0.14306-1.0973-0.28125-1.7812-0.56875-0.61214-1.0904-1.3475-1.5-2.3125-0.36791-0.86687-0.57326-1.7305-0.65625-2.5zm27.094 0.03125c-0.07699 0.76157-0.28829 1.6018-0.65625 2.4688-0.34904 0.82239-0.74494 1.4886-1.2188 2.0625-0.14887 0.69438-0.21547 1.2248-0.40625 2.0312-0.53084 1.5925-2.6375 4.7786-4.2188 7.2188-0.04571 0.72865-0.07537 1.4819-0.0625 2.2188 0.0076-0.40769 0.03711-0.81394 0.0625-1.2188 1.5812-2.4402 3.6879-5.6262 4.2188-7.2188 0.19078-0.80644 0.25738-1.3369 0.40625-2.0312 0.47382-0.57394 0.86971-1.2401 1.2188-2.0625 0.53979-1.2718 0.73978-2.5 0.65625-3.4688zm-38.531 30.563l-0.15625 1h50.438l-0.15625-1h-50.125z"/>
    <path id="path3882" style="opacity:.2" d="m48 24c-7.1156 0-12.812 5.3588-12.812 12 0.0031 0.13642 0.02558 0.34355 0.03125 0.5 0.282-6.404 5.848-11.5 12.781-11.5 6.944 0 12.516 5.112 12.781 11.531 0.007-0.169 0.026-0.374 0.031-0.531 0-6.641-5.696-12-12.812-12zm-12.719 14.625c-0.75428 0.35244-1.0537 1.4142-0.90625 2.7812 0.06786-0.8949 0.35718-1.5662 0.9375-1.8125-0.02518-0.32152-0.0113-0.62719-0.03125-0.96875zm25.438 0.125c-0.01806 0.33572-0.0091 0.63704-0.03125 0.96875 0.46771 0.29412 0.70831 0.91114 0.78125 1.6875 0.11834-1.2305-0.12347-2.2311-0.75-2.6562zm-5.8125 18.938c-0.01105 1.1429 0.04762 2.2867 0.1875 3.4375 4.9388 4.2946 17.855 6.5744 17.875 10.25l0.094 0.624h0.15625l-0.25-1.625c-0.02049-3.6756-12.936-5.9554-17.875-10.25-0.09992-0.82199-0.16569-1.6181-0.1875-2.4375zm-13.812 0.96875c-0.02954 0.48009-0.10083 0.96344-0.1875 1.4688-5.0001 4.1484-17.894 5.9554-17.875 10.25l-0.25 1.625h0.15625l0.09375-0.625c-0.01917-4.2946 12.875-6.1016 17.875-10.25 0.1483-0.86464 0.18923-1.6711 0.1875-2.4688z"/>
   </g>
   <path id="path3898" style="opacity:.6;filter:url(#filter3904);stroke:#fff;stroke-width:2;fill:none" clip-path="url(#clipPath3900)" d="m48 24c-7.1156 0-12.818 5.3588-12.818 12 0.01605 0.7072 0.06889 1.7294 0.13637 2.5909-1.2168 0.51643-1.3056 2.8846-0.27273 5.3182 0.40958 0.96505 0.93125 1.706 1.5 2.3182 0.13819 0.68394 0.10193 0.99099 0.27273 1.7727 0.4766 1.4298 2.3556 4.232 4.0909 6.5455 0.17016 1.7767 0.34667 3.5697 0 5.5909-5.0001 4.1484-17.883 5.9327-17.864 10.227l-0.272 1.636h50.454l-0.272-1.636c-0.021-3.676-12.925-5.933-17.864-10.228-0.2-1.644-0.238-3.289-0.136-4.909 1.581-2.44 3.696-5.634 4.227-7.227 0.19078-0.80644 0.26022-1.3511 0.40909-2.0455 0.47382-0.57394 0.87824-1.2231 1.2273-2.0455 0.98122-2.3119 0.9178-4.5189-0.13635-5.1818 0.06215-0.9315 0.10898-1.9227 0.13635-2.7273 0-6.641-5.702-12-12.818-12z"/>
  </g>
  <rect id="rect3003" style="opacity:.15;fill:#fff" clip-path="url(#clipPath3009)" rx="25" ry="25" transform="translate(98 3.8281e-7)" width="92" y="958.36" x="-96" height="92"/>
 </g>
</svg>
