<?xml version="1.0" encoding="UTF-8" standalone="no"?>
<!-- Created with Inkscape (http://www.inkscape.org/) -->
<svg id="svg11037" xmlns:rdf="http://www.w3.org/1999/02/22-rdf-syntax-ns#" xmlns="http://www.w3.org/2000/svg" height="96" width="96" version="1.1" xmlns:cc="http://creativecommons.org/ns#" xmlns:xlink="http://www.w3.org/1999/xlink" xmlns:dc="http://purl.org/dc/elements/1.1/">
 <defs id="defs11039">
  <linearGradient id="linearGradient11642" x1="48" gradientUnits="userSpaceOnUse" x2="48" gradientTransform="matrix(1.15 0 0 1.15 -7.1999 -150.65)" y1="962.62" y2="1046.1">
   <stop id="stop3702" style="stop-color:#e6e6e6" offset="0"/>
   <stop id="stop3704" style="stop-color:#f5f5f5" offset="1"/>
  </linearGradient>
  <linearGradient id="linearGradient3872" x1="49" xlink:href="#linearGradient3866" gradientUnits="userSpaceOnUse" x2="49" y1="20" y2="59"/>
  <linearGradient id="linearGradient3866">
   <stop id="stop3868" style="stop-color:#9c9c9c;stop-opacity:.29008" offset="0"/>
   <stop id="stop3870" style="stop-color:#fff" offset="1"/>
  </linearGradient>
  <radialGradient id="radialGradient3932" gradientUnits="userSpaceOnUse" cy="54.164" cx="48" gradientTransform="matrix(1.5989 7.831e-8 -1.5662e-7 3.1978 -28.748 -109.21)" r="10.007">
   <stop id="stop3867" style="stop-color:#3c3c3c" offset="0"/>
   <stop id="stop3869" style="stop-color:#131313" offset="1"/>
  </radialGradient>
  <linearGradient id="linearGradient3131" x1="43" xlink:href="#linearGradient3866" gradientUnits="userSpaceOnUse" x2="43" y1="192" y2="33"/>
  <clipPath id="clipPath3009" clipPathUnits="userSpaceOnUse">
   <path id="path3011" style="opacity:.15;fill:#fff" d="m-2 956.36h-96v33.562l96 25.687v-59.25z"/>
  </clipPath>
 </defs>
 <metadata id="metadata11042">
  <rdf:RDF>
   <cc:Work rdf:about="">
    <dc:format>image/svg+xml</dc:format>
    <dc:type rdf:resource="http://purl.org/dc/dcmitype/StillImage"/>
    <dc:title/>
   </cc:Work>
  </rdf:RDF>
 </metadata>
 <g id="layer1" transform="translate(0 -956.36)">
  <rect id="rect3867" style="fill:url(#linearGradient11642)" rx="25" ry="25" height="92" width="92" y="958.36" x="2"/>
  <g id="g3091" transform="translate(-1.0222e-7 956.36)">
   <path id="path3862" style="color:#000000;fill:url(#linearGradient3872)" d="m48 19.938c-6.6401 0-12.062 5.4224-12.062 12.062 0 4.2161 2.2294 7.8728 5.5312 10.031l-5.469 29.188v0.031c-0.0073 0.05282-0.06265 0.40796-0.0625 0.40625 0.000156-0.0018 0.000047 0.4706 0 0.46875-0.000047-0.0019 0.0315 0.43933 0.03125 0.4375-0.00025-0.0018 0.0942 0.4393 0.09375 0.4375s0.12564 0.43924 0.125 0.4375c-0.000645-0.0017 0.18833 0.4079 0.1875 0.40625-0.000831-0.0017 0.21976 0.4078 0.21875 0.40625-0.001-0.0016 0.25117 0.34518 0.25 0.34375-0.0012-0.0014 0.31382 0.34504 0.3125 0.34375-0.0013-0.0013 0.34521 0.28239 0.34375 0.28125-0.0015-0.0011 0.34532 0.28222 0.34375 0.28125-0.0016-0.000975 0.40792 0.1883 0.40625 0.1875-0.0017-0.000797 0.408 0.18811 0.40625 0.1875-0.0017-0.000609 0.4393 0.12541 0.4375 0.125-0.0018-0.000413 0.43934 0.06271 0.4375 0.0625-0.0018-0.000212 0.4706 0.03126 0.46875 0.03125h16c-0.0019 0.000009 0.47059-0.03146 0.46875-0.03125-0.0018 0.000212 0.4393-0.06291 0.4375-0.0625-0.0018 0.000413 0.43925-0.12561 0.4375-0.125-0.0017 0.000609 0.40792-0.1883 0.40625-0.1875-0.0017 0.000797 0.40782-0.18848 0.40625-0.1875-0.0016 0.000975 0.34521-0.28239 0.34375-0.28125-0.0015 0.0011 0.34507-0.28254 0.34375-0.28125-0.0013 0.0013 0.31367-0.34518 0.3125-0.34375-0.0012 0.0014 0.25101-0.3453 0.25-0.34375-0.001 0.0016 0.21958-0.4079 0.21875-0.40625-0.000831 0.0017 0.18814-0.40798 0.1875-0.40625-0.000645 0.0017 0.12545-0.4393 0.125-0.4375s0.094-0.43933 0.09375-0.4375c-0.00025 0.0018 0.0313-0.43935 0.03125-0.4375-0.000047 0.0019-0.000156-0.47059 0-0.46875 0.001 0.001-0.055-0.354-0.062-0.407v-0.03125l-5.4688-29.188c3.302-2.158 5.531-5.815 5.531-10.031 0-6.64-5.422-12.062-12.062-12.062z"/>
   <path id="path3919" style="color:#000000;fill:url(#radialGradient3932)" d="m48 22c-5.5228 0-10 4.4772-10 10 0 4.009 2.3443 7.468 5.75 9.0625l-5.719 30.563a2.0167 2.0167 0 0 0 1.969 2.406h16a2.0167 2.0167 0 0 0 1.969 -2.406l-5.719-30.563c3.406-1.594 5.75-5.053 5.75-9.062 0-5.523-4.477-10-10-10z"/>
   <path id="path3947" style="opacity:.3;color:#000000" d="m48 22c-5.5228 0-10 4.4772-10 10 0 4.009 2.3443 7.468 5.75 9.0625l-5.719 30.563a2.0167 2.0167 0 0 0 1.969 2.406h16a2.0167 2.0167 0 0 0 1.969 -2.406l-5.719-30.563c3.406-1.594 5.75-5.053 5.75-9.062 0-5.523-4.477-10-10-10zm0 2.0312c4.424 0 7.9688 3.5448 7.9688 7.9688 0 3.2163-1.8862 5.9511-4.5938 7.2188a2.0335 2.0335 0 0 0 -1.125 2.219l5.719 30.562h-15.938l5.719-30.562a2.0335 2.0335 0 0 0 -1.125 -2.219c-2.708-1.268-4.594-4.003-4.594-7.219 0-4.424 3.5448-7.9688 7.9688-7.9688z"/>
   <path id="path3934" style="opacity:.6;color:#000000" d="m48 22c-5.5228 0-10 4.4772-10 10 0 4.009 2.3443 7.468 5.75 9.0625l-5.719 30.563a2.0167 2.0167 0 0 0 1.969 2.406h16a2.0167 2.0167 0 0 0 1.969 -2.406l-5.719-30.563c3.406-1.594 5.75-5.053 5.75-9.062 0-5.523-4.477-10-10-10zm0 1c4.9826 0 9 4.0174 9 9 0 3.6193-2.1251 6.7225-5.1875 8.1562a0.99982 0.99982 0 0 0 -0.531 1.094l5.719 30.562c0.01068 0.05427-0.0077 0.0077 0 0.0625 0.0077 0.05477-0.0047 0.0074 0 0.0625 0.0047 0.05511-0.0016 0.0072 0 0.0625 0.0016 0.05528 0.0014-0.02404 0 0.03125s0.0045 0.0074 0 0.0625c-0.0045 0.05513 0.0075 0.0077 0 0.0625s0.01048 0.0082 0 0.0625c-0.01048 0.05431-0.0178-0.0224-0.03125 0.03125s0.01638 0.0097 0 0.0625c-0.01638 0.05283-0.01199 0.01065-0.03125 0.0625s0.02208-0.01946 0 0.03125-0.0064 0.01308-0.03125 0.0625c-0.02484 0.04942-0.0037 0.01452-0.03125 0.0625-0.02752 0.04798-0.0011-0.01514-0.03125 0.03125-0.03011 0.04639 0.0014 0.01783-0.03125 0.0625-0.03262 0.04467 0.0038-0.01156-0.03125 0.03125-0.03502 0.04281 0.0061-0.0096-0.03125 0.03125-0.03732 0.04082-0.02299 0.0238-0.0625 0.0625s0.01033-0.0052-0.03125 0.03125c-0.04158 0.03647 0.01227-0.0029-0.03125 0.03125-0.04352 0.03413-0.01717-0.000436-0.0625 0.03125-0.04533 0.03169 0.01575 0.0021-0.03125 0.03125s-0.01396 0.0047-0.0625 0.03125c-0.04854 0.02652 0.01867 0.0074-0.03125 0.03125-0.04992 0.02381-0.01134 0.01022-0.0625 0.03125s-0.01027-0.01818-0.0625 0 0.0219 0.01596-0.03125 0.03125-0.0086-0.01234-0.0625 0c-0.05391 0.01234-0.008 0.02189-0.0625 0.03125-0.05451 0.0094-0.0076-0.0063-0.0625 0-0.05494 0.0063 0.02396-0.0033-0.03125 0s-0.0072-0.000275-0.0625 0h-16c-0.05531-0.000275-0.0073 0.0033-0.0625 0-0.05521-0.0033 0.02369 0.0063-0.03125 0s-0.008 0.0094-0.0625 0c-0.05451-0.0094-0.0086-0.01891-0.0625-0.03125-0.05391-0.01234-0.0093 0.01529-0.0625 0-0.05315-0.01529 0.02098-0.01307-0.03125-0.03125s-0.01134 0.02103-0.0625 0-0.01258-0.0074-0.0625-0.03125c-0.04992-0.02381 0.01729-0.0047-0.03125-0.03125-0.04854-0.02652-0.0155-0.0021-0.0625-0.03125s0.01408 0.000436-0.03125-0.03125c-0.04533-0.03169-0.01898 0.0029-0.0625-0.03125-0.04352-0.03413 0.01033 0.0052-0.03125-0.03125-0.04158-0.03647 0.0083 0.0075-0.03125-0.03125-0.03951-0.0387-0.02518-0.02168-0.0625-0.0625s0.0038 0.01156-0.03125-0.03125c-0.03502-0.04281 0.0014 0.01342-0.03125-0.03125-0.03262-0.04467-0.0011-0.01611-0.03125-0.0625-0.03011-0.04639-0.0037 0.01673-0.03125-0.03125-0.02752-0.04798-0.0064-0.01308-0.03125-0.0625-0.02484-0.04942-0.0092-0.01179-0.03125-0.0625-0.02208-0.05071 0.01926 0.0206 0-0.03125s-0.01487-0.0097-0.03125-0.0625c-0.01638-0.05283 0.01345-0.0089 0-0.0625-0.013-0.053-0.021 0.024-0.031-0.03-0.01048-0.05431 0.0075-0.0077 0-0.0625s0.0045-0.0074 0-0.0625c-0.0045-0.05513 0.0014-0.0072 0-0.0625-0.0014-0.05529-0.0016 0.02403 0-0.03125s-0.0047-0.0074 0-0.0625c0.0047-0.05511-0.0077-0.0077 0-0.0625 0.0077-0.05477-0.01068-0.0082 0-0.0625l5.719-30.563a0.99982 0.99982 0 0 0 -0.531 -1.094c-3.063-1.434-5.188-4.537-5.188-8.156 0-4.9826 4.0174-9 9-9z"/>
   <path id="path3969" style="opacity:.5;color:#000000;fill:#fff" d="m38.031 32.75c-0.002 0.084-0.031 0.166-0.031 0.25 0 3.9438 2.2778 7.3408 5.5938 8.9688l0.156-0.907c-3.193-1.494-5.449-4.623-5.719-8.312zm19.938 0c-0.27002 3.6892-2.5259 6.8176-5.7188 8.3125l0.15625 0.90625c3.316-1.627 5.594-5.024 5.594-8.968 0-0.084-0.029-0.166-0.031-0.25zm-19.907 39.75-0.031 0.125a2.0167 2.0167 0 0 0 1.969 2.406h16a2.0167 2.0167 0 0 0 1.969 -2.406l-0.031-0.094a2.0167 2.0167 0 0 1 -1.9375 1.5h-16a2.0167 2.0167 0 0 1 -1.938 -1.531z"/>
   <path id="path3982" style="opacity:.5;color:#000000;fill:url(#linearGradient3131)" d="m48 19.062c-6.4271-0.13228-12.337 5.2201-12.87 11.62-0.52847 4.5275 1.6861 9.1604 5.4016 11.755-1.821 9.7189-3.6576 19.436-5.4688 29.156-0.30013 2.9373 2.3746 5.649 5.318 5.375 5.3937-0.0205 10.79 0.04122 16.182-0.03125 2.9979-0.25737 5.0767-3.5392 4.1876-6.3737-1.761-9.375-3.522-18.75-5.282-28.125 4.762-3.239 6.803-9.84 4.567-15.168-1.866-4.844-6.831-8.272-12.036-8.208zm0 0.96875c6.0545-0.13102 11.593 5.0092 11.934 11.052 0.39155 4.2894-1.8741 8.6055-5.4962 10.886 1.8229 9.7604 3.6458 19.521 5.4688 29.281 0.57894 2.6399-1.9236 5.1221-4.5405 4.75-5.268-0.021-10.538 0.041-15.804-0.031-2.529-0.204-4.118-3.008-3.352-5.342 1.784-9.553 3.568-19.106 5.352-28.658-4.718-2.88-6.849-9.235-4.697-14.346 1.725-4.483 6.32-7.652 11.135-7.592z"/>
  </g>
  <rect id="rect3003" style="opacity:.15;fill:#fff" clip-path="url(#clipPath3009)" rx="25" ry="25" transform="translate(98 3.8281e-7)" width="92" y="958.36" x="-96" height="92"/>
 </g>
</svg>
