<?xml version="1.0" encoding="UTF-8" standalone="no"?>
<!-- Created with Inkscape (http://www.inkscape.org/) -->
<svg id="svg11037" xmlns:rdf="http://www.w3.org/1999/02/22-rdf-syntax-ns#" xmlns="http://www.w3.org/2000/svg" height="96" width="96" version="1.1" xmlns:cc="http://creativecommons.org/ns#" xmlns:xlink="http://www.w3.org/1999/xlink" xmlns:dc="http://purl.org/dc/elements/1.1/">
 <defs id="defs11039">
  <linearGradient id="linearGradient11642" x1="48" gradientUnits="userSpaceOnUse" x2="48" gradientTransform="matrix(1.15 0 0 1.15 -7.1999 -150.65)" y1="962.62" y2="1046.1">
   <stop id="stop3702" style="stop-color:#e6e6e6" offset="0"/>
   <stop id="stop3704" style="stop-color:#f5f5f5" offset="1"/>
  </linearGradient>
  <linearGradient id="linearGradient3827" x1="46.882" gradientUnits="userSpaceOnUse" y1="75.753" gradientTransform="translate(-4)" x2="46.882" y2="35.372">
   <stop id="stop3823" style="stop-color:#de6a07" offset="0"/>
   <stop id="stop3825" style="stop-color:#f8a425" offset="1"/>
  </linearGradient>
  <clipPath id="clipPath3009" clipPathUnits="userSpaceOnUse">
   <path id="path3011" style="opacity:.15;fill:#fff" d="m-2 956.36h-96v33.562l96 25.687v-59.25z"/>
  </clipPath>
 </defs>
 <metadata id="metadata11042">
  <rdf:RDF>
   <cc:Work rdf:about="">
    <dc:format>image/svg+xml</dc:format>
    <dc:type rdf:resource="http://purl.org/dc/dcmitype/StillImage"/>
    <dc:title/>
   </cc:Work>
  </rdf:RDF>
 </metadata>
 <g id="layer1" transform="translate(0 -956.36)">
  <rect id="rect3867" style="fill:url(#linearGradient11642)" rx="25" ry="25" height="92" width="92" y="958.36" x="2"/>
  <g id="layer4" transform="translate(0 956.36)">
   <path id="rect3362" style="opacity:.5;fill:#999" d="m12 12v17.938l8.094-17.938h-8.094zm9.906 0 8.094 17.938v-17.938h-8.094zm-0.906 7.031l-3.0312 7h2.9286l1.7188 3.9688h3.2277l-2.375-5.2812-0.0625-0.125-2.406-5.563z"/>
   <path id="path3799" style="fill:url(#linearGradient3827)" d="m34.875 36-12.875 40h8.4688l2.75-9.4688h13.656l2.6875 9.4688h8.5l-12.937-40h-10.25zm31.125 0.031c-0.59444 0.000042-1.1768 0.06115-1.7188 0.1875-0.52451 0.12644-0.97289 0.36253-1.375 0.6875-0.38464 0.307-0.71022 0.72641-0.9375 1.25-0.22729 0.50562-0.3125 1.1611-0.3125 1.9375-0.000004 0.7584 0.08521 1.3827 0.3125 1.9062 0.22728 0.52367 0.55286 0.95627 0.9375 1.2812 0.40211 0.30699 0.85049 0.51184 1.375 0.65625 0.54198 0.12643 1.1243 0.21878 1.7188 0.21875 0.59442 0.000034 1.1317-0.09232 1.6562-0.21875 0.52449-0.14442 0.99036-0.34926 1.375-0.65625 0.402-0.325 0.742-0.757 0.969-1.281 0.24475-0.5236 0.34374-1.1478 0.34375-1.9062-0.000013-0.77638-0.099-1.4319-0.34375-1.9375-0.2273-0.52359-0.56665-0.943-0.96875-1.25-0.38464-0.32497-0.85051-0.56106-1.375-0.6875-0.524-0.127-1.062-0.188-1.656-0.188zm-25.969 5.5938 4.875 17.812h-9.6562c1.5579-5.9397 3.6143-11.772 4.7812-17.812zm21.938 6.4062v27.969h8.0312v-27.969h-8.0312z"/>
   <path id="path3816" style="opacity:.8;fill:#fff" d="m61.688 40.594c-0.01018 0.16895-0.03125 0.31728-0.03125 0.5-0.000004 0.7584 0.08521 1.3827 0.3125 1.9062 0.22728 0.52367 0.55286 0.95627 0.9375 1.2812 0.40211 0.30699 0.85049 0.51184 1.375 0.65625 0.54198 0.12643 1.1243 0.21878 1.7188 0.21875 0.59442 0.000034 1.1317-0.09232 1.6562-0.21875 0.52449-0.14442 0.99036-0.34926 1.375-0.65625 0.401-0.325 0.741-0.757 0.968-1.281 0.24475-0.5236 0.34374-1.1478 0.34375-1.9062-0.000003-0.18227-0.01973-0.33143-0.03125-0.5-0.038 0.527-0.126 1.009-0.312 1.406-0.2273 0.52367-0.56665 0.95627-0.96875 1.2812-0.38464 0.30699-0.85051 0.51184-1.375 0.65625-0.52451 0.12643-1.0618 0.21878-1.6562 0.21875-0.59444 0.000034-1.1768-0.09232-1.7188-0.21875-0.52451-0.14442-0.97289-0.34926-1.375-0.65625-0.384-0.325-0.71-0.757-0.937-1.281-0.172-0.397-0.248-0.88-0.281-1.406zm-21.657 1.031c-0.07224 0.39967-0.15488 0.86132-0.28125 1.4062-0.10836 0.54499-0.24376 1.1324-0.40625 1.75-0.14447 0.59949-0.30626 1.1949-0.46875 1.8125-0.16252 0.61765-0.32432 1.2051-0.46875 1.75-0.14446 0.54499-0.27987 1.0197-0.40625 1.4375-0.10835 0.41783-0.19585 0.73771-0.25 0.9375l-2.5 8.7188h0.28125l2.2188-7.7188c0.05415-0.19979 0.14165-0.51967 0.25-0.9375 0.12638-0.41778 0.26178-0.89251 0.40625-1.4375 0.14443-0.54493 0.30623-1.1324 0.46875-1.75 0.16249-0.61759 0.32428-1.213 0.46875-1.8125 0.16249-0.61759 0.29789-1.205 0.40625-1.75 0.12637-0.54493 0.20901-1.0066 0.28125-1.4062 0.09026 0.63582 0.25206 1.4043 0.46875 2.3125 0.21665 0.9083 0.45275 1.8105 0.6875 2.7188 0.25277 0.89013 0.47081 1.6928 0.6875 2.4375 0.21665 0.7448 0.39164 1.298 0.5 1.625l2.25 7.7188h0.28125l-2.5312-8.7188c-0.10836-0.32695-0.28335-0.8802-0.5-1.625-0.21669-0.74475-0.43473-1.5474-0.6875-2.4375-0.235-0.908-0.471-1.81-0.688-2.718-0.217-0.909-0.378-1.677-0.469-2.313zm-6.812 24.906-2.75 9.469h-8.157l-0.312 1h8.4688l2.75-9.4688h13.656l2.6875 9.4688h8.5l-0.3125-1h-8.1875l-2.6875-9.4688h-13.656zm28.75 9.4688v1h8.0312v-1h-8.0312z"/>
   <path id="path3829" style="opacity:.4;fill:#803300" d="m34.875 36-12.875 40h0.312l12.563-39h10.25l12.625 39h0.312l-12.937-40h-10.25zm31.125 0.031c-0.59444 0.000042-1.1768 0.06115-1.7188 0.1875-0.52451 0.12644-0.97289 0.36253-1.375 0.6875-0.38464 0.307-0.71022 0.72641-0.9375 1.25-0.22729 0.50562-0.3125 1.1611-0.3125 1.9375-0.000001 0.18388 0.02042 0.33142 0.03125 0.5 0.03308-0.54893 0.10746-1.0509 0.28125-1.4375 0.22728-0.52359 0.55286-0.943 0.9375-1.25 0.40211-0.32497 0.85049-0.56106 1.375-0.6875 0.54198-0.12635 1.1243-0.18746 1.7188-0.1875 0.59442 0.000042 1.1317 0.06115 1.6562 0.1875 0.52449 0.12644 0.99036 0.36253 1.375 0.6875 0.4021 0.307 0.74146 0.72641 0.96875 1.25 0.18729 0.38692 0.27496 0.88804 0.3125 1.4375 0.01224-0.16817 0.03125-0.31662 0.03125-0.5-0.000013-0.77638-0.099-1.4319-0.34375-1.9375-0.2273-0.52359-0.56665-0.943-0.96875-1.25-0.38464-0.32497-0.85051-0.56106-1.375-0.6875-0.524-0.126-1.062-0.187-1.656-0.187zm-4.0312 12v1h8.0312v-1h-8.0312zm-26.438 11.407c-0.09067 0.33397-0.19349 0.66541-0.28125 1h9.6562l-0.28125-1h-9.0938z"/>
   <path id="path3838" style="opacity:.3;fill:#803300" d="m34.875 36-12.875 40h8.4688l2.75-9.4688h13.656l2.6875 9.4688h8.5l-12.937-40h-10.25zm31.125 0.031c-0.59444 0.000042-1.1768 0.06115-1.7188 0.1875-0.52451 0.12644-0.97289 0.36253-1.375 0.6875-0.38464 0.307-0.71022 0.72641-0.9375 1.25-0.22729 0.50562-0.3125 1.1611-0.3125 1.9375-0.000004 0.7584 0.08521 1.3827 0.3125 1.9062 0.22728 0.52367 0.55286 0.95627 0.9375 1.2812 0.40211 0.30699 0.85049 0.51184 1.375 0.65625 0.54198 0.12643 1.1243 0.21878 1.7188 0.21875 0.59442 0.000034 1.1317-0.09232 1.6562-0.21875 0.52449-0.14442 0.99036-0.34926 1.375-0.65625 0.402-0.325 0.742-0.757 0.969-1.281 0.24475-0.5236 0.34374-1.1478 0.34375-1.9062-0.000013-0.77638-0.099-1.4319-0.34375-1.9375-0.2273-0.52359-0.56665-0.943-0.96875-1.25-0.38464-0.32497-0.85051-0.56106-1.375-0.6875-0.524-0.127-1.062-0.188-1.656-0.188zm-30.375 0.969h8.75l12.281 38h-6.3438l-2.4688-8.75a1.0068 1.0068 0 0 0 -0.968 -0.719h-13.656a1.0068 1.0068 0 0 0 -0.969 0.719l-2.531 8.75h-6.313l12.219-38zm30.375 0.031c0.52548 0.000037 0.96208 0.04925 1.4062 0.15625 0.37896 0.09136 0.70659 0.27851 0.96875 0.5a1.0068 1.0068 0 0 0 0.03125 0.03125c0.26774 0.20441 0.4965 0.47576 0.65625 0.84375a1.0068 1.0068 0 0 0 0.03125 0.03125c0.14246 0.2943 0.24999 0.80918 0.25 1.5-0.000011 0.67082-0.09114 1.1289-0.25 1.4688a1.0068 1.0068 0 0 0 -0.03125 0.03125c-0.16221 0.37372-0.37848 0.68176-0.65625 0.90625-0.23938 0.19105-0.5794 0.34976-1 0.46875-0.0105 0.0025-0.02078-0.0025-0.03125 0-0.46901 0.1116-0.89558 0.18753-1.375 0.1875-0.47003 0.000027-0.9643-0.08038-1.4375-0.1875-0.41547-0.11439-0.72159-0.26263-1-0.46875-0.01022-0.0086-0.02111-0.02236-0.03125-0.03125-0.24972-0.21905-0.46345-0.50279-0.625-0.875-0.14751-0.33981-0.25-0.81701-0.25-1.5-0.000004-0.70271 0.08629-1.2366 0.21875-1.5312a1.0068 1.0068 0 0 0 0.03125 0c0.16564-0.38159 0.37327-0.67408 0.625-0.875 0.29538-0.23872 0.60758-0.40883 0.96875-0.5 0.0094-0.0022 0.0218 0.0022 0.03125 0 0.449-0.102 0.954-0.156 1.469-0.156zm-25.969 3.5625a1.0068 1.0068 0 0 0 -0.1875 0.03125 1.0068 1.0068 0 0 0 -0.8125 0.8125c-1.148 5.9424-3.178 11.756-4.75 17.75a1.0068 1.0068 0 0 0 0.96875 1.25h9.6562a1.0068 1.0068 0 0 0 0.969 -1.282l-4.875-17.812a1.0068 1.0068 0 0 0 -0.96875 -0.75zm0 1.0312 4.875 17.812h-9.6562c1.5579-5.9397 3.6143-11.772 4.7812-17.812zm21.938 6.4062v27.969h8.0312v-27.969h-8.0312zm1 1h6.0312v25.969h-6.0312v-25.969z"/>
  </g>
  <rect id="rect3003" style="opacity:.15;fill:#fff" clip-path="url(#clipPath3009)" rx="25" ry="25" transform="translate(98 3.8281e-7)" width="92" y="958.36" x="-96" height="92"/>
 </g>
</svg>
