<?xml version="1.0" encoding="UTF-8" standalone="no"?>
<!-- Created with Inkscape (http://www.inkscape.org/) -->
<svg id="svg11037" xmlns:rdf="http://www.w3.org/1999/02/22-rdf-syntax-ns#" xmlns="http://www.w3.org/2000/svg" height="96" width="96" version="1.1" xmlns:cc="http://creativecommons.org/ns#" xmlns:xlink="http://www.w3.org/1999/xlink" xmlns:dc="http://purl.org/dc/elements/1.1/">
 <defs id="defs11039">
  <linearGradient id="linearGradient11642" x1="48" gradientUnits="userSpaceOnUse" x2="48" gradientTransform="matrix(1.15 0 0 1.15 -7.1999 -150.65)" y1="962.62" y2="1046.1">
   <stop id="stop3702" style="stop-color:#e6e6e6" offset="0"/>
   <stop id="stop3704" style="stop-color:#f5f5f5" offset="1"/>
  </linearGradient>
  <clipPath id="clipPath2941">
   <rect id="rect2943" style="opacity:.65164;color:#000000;fill:#f00" rx="3" ry="3" height="56" width="72" y="20" x="12"/>
  </clipPath>
  <linearGradient id="linearGradient3938" x1="48" spreadMethod="reflect" gradientUnits="userSpaceOnUse" y1="48" x2="48" y2="72">
   <stop id="stop3942" style="stop-color:#96c924" offset="0"/>
   <stop id="stop3944" style="stop-color:#20691d" offset="1"/>
  </linearGradient>
  <radialGradient id="radialGradient3934" gradientUnits="userSpaceOnUse" cy="24" cx="56" r="16">
   <stop id="stop3743" style="stop-color:#3391aa" offset="0"/>
   <stop id="stop3746" style="stop-color:#2c606a;stop-opacity:0" offset="1"/>
  </radialGradient>
  <radialGradient id="radialGradient3867" cx="60.563" xlink:href="#linearGradient3739" gradientUnits="userSpaceOnUse" cy="49.721" r="19.437"/>
  <linearGradient id="linearGradient3739">
   <stop id="stop3742" style="stop-color:#e1d683" offset="0"/>
   <stop id="stop3745" style="stop-color:#c6d76d;stop-opacity:0" offset="1"/>
  </linearGradient>
  <radialGradient id="radialGradient3747" cx="47.977" xlink:href="#linearGradient3739" gradientUnits="userSpaceOnUse" cy="64.058" r="24.023"/>
  <radialGradient id="radialGradient3758" gradientUnits="userSpaceOnUse" cy="49.721" cx="60.563" r="19.437">
   <stop id="stop3930" style="stop-color:#e9842b" offset="0"/>
   <stop id="stop3932" style="stop-color:#efae16;stop-opacity:0" offset="1"/>
  </radialGradient>
  <radialGradient id="radialGradient3833" cx="58.5" gradientUnits="userSpaceOnUse" cy="37.5" r="2.5">
   <stop id="stop3829" style="stop-color:#fff" offset="0"/>
   <stop id="stop3831" style="stop-color:#fff;stop-opacity:0" offset="1"/>
  </radialGradient>
  <clipPath id="clipPath3009" clipPathUnits="userSpaceOnUse">
   <path id="path3011" style="opacity:.15;fill:#fff" d="m-2 956.36h-96v33.562l96 25.687v-59.25z"/>
  </clipPath>
 </defs>
 <metadata id="metadata11042">
  <rdf:RDF>
   <cc:Work rdf:about="">
    <dc:format>image/svg+xml</dc:format>
    <dc:type rdf:resource="http://purl.org/dc/dcmitype/StillImage"/>
    <dc:title/>
   </cc:Work>
  </rdf:RDF>
 </metadata>
 <g id="layer1" transform="translate(0 -956.36)">
  <rect id="rect3867" style="fill:url(#linearGradient11642)" rx="25" ry="25" height="92" width="92" y="958.36" x="2"/>
  <g id="g3126" transform="translate(0 956.36)">
   <g id="layer3">
    <g id="g3871" clip-path="url(#clipPath2941)">
     <rect id="rect3966" style="color:#000000;fill:url(#linearGradient3938)" height="56" width="72" y="20" x="12"/>
     <path id="path3918" style="opacity:.5;color:#000000;fill:url(#radialGradient3934)" transform="matrix(2.4668 0 0 2.4668 -110.14 -33.204)" d="m72 24a16 16 0 1 1 -32 0 16 16 0 1 1 32 0z"/>
     <path id="path3865" style="opacity:.69672;color:#000000;fill:url(#radialGradient3867)" transform="matrix(.92606 0 0 .92606 20.478 -.044489)" d="m80 49.721a19.437 19.437 0 1 1 -38.874 0 19.437 19.437 0 1 1 38.874 0z"/>
     <path id="path3737" style="color:#000000;fill:url(#radialGradient3747)" transform="translate(-24 -16.058)" d="m72 64.058a24.023 24.023 0 1 1 -48.045 0 24.023 24.023 0 1 1 48.045 0z"/>
     <path id="path3749" style="opacity:.43443;color:#000000;fill:url(#radialGradient3758)" transform="translate(-12.563 -5.1578)" d="m80 49.721a19.437 19.437 0 1 1 -38.874 0 19.437 19.437 0 1 1 38.874 0z"/>
     <path id="path3779" style="opacity:.4;color:#000000;fill:#fff" d="m61 37.5a2.5 2.5 0 1 1 -5 0 2.5 2.5 0 1 1 5 0z"/>
     <path id="path3781" style="opacity:.5041;color:#000000;fill:#fff" transform="translate(-33.5,10)" d="m61 37.5a2.5 2.5 0 1 1 -5 0 2.5 2.5 0 1 1 5 0z"/>
     <path id="path3783" style="opacity:.3;color:#000000;fill:#fff" transform="translate(4,13.5)" d="m61 37.5a2.5 2.5 0 1 1 -5 0 2.5 2.5 0 1 1 5 0z"/>
     <path id="path3785" style="opacity:.5041;color:#000000;fill:#fff" transform="translate(17,8.5)" d="m61 37.5a2.5 2.5 0 1 1 -5 0 2.5 2.5 0 1 1 5 0z"/>
     <path id="path3787" style="opacity:.5041;color:#000000;fill:#fff" transform="translate(-17,7.5)" d="m61 37.5a2.5 2.5 0 1 1 -5 0 2.5 2.5 0 1 1 5 0z"/>
     <path id="path3789" style="opacity:.5041;color:#000000;fill:#fff" transform="translate(-42,3.5)" d="m61 37.5a2.5 2.5 0 1 1 -5 0 2.5 2.5 0 1 1 5 0z"/>
     <path id="path3791" style="opacity:.3;color:#000000;fill:#fff" transform="translate(-42,3.5)" d="m61 37.5a2.5 2.5 0 1 1 -5 0 2.5 2.5 0 1 1 5 0z"/>
     <path id="path3793" style="opacity:.5041;color:#000000;fill:#fff" transform="matrix(.4 0 0 .4 -6.4 35)" d="m61 37.5a2.5 2.5 0 1 1 -5 0 2.5 2.5 0 1 1 5 0z"/>
     <path id="path3795" style="opacity:.5041;color:#000000;fill:#fff" transform="matrix(.4 0 0 .4 7.6 38)" d="m61 37.5a2.5 2.5 0 1 1 -5 0 2.5 2.5 0 1 1 5 0z"/>
     <path id="path3797" style="opacity:.5041;color:#000000;fill:#fff" transform="matrix(.4 0 0 .4 9.6 34)" d="m61 37.5a2.5 2.5 0 1 1 -5 0 2.5 2.5 0 1 1 5 0z"/>
     <path id="path3799" style="opacity:.3;color:#000000;fill:#fff" transform="matrix(.4 0 0 .4 16.6 36)" d="m61 37.5a2.5 2.5 0 1 1 -5 0 2.5 2.5 0 1 1 5 0z"/>
     <path id="path3801" style="opacity:.5041;color:#000000;fill:#fff" transform="matrix(.4 0 0 .4 28.6 28)" d="m61 37.5a2.5 2.5 0 1 1 -5 0 2.5 2.5 0 1 1 5 0z"/>
     <path id="path3803" style="opacity:.5041;color:#000000;fill:#fff" transform="matrix(.4 0 0 .4 45.6 33)" d="m61 37.5a2.5 2.5 0 1 1 -5 0 2.5 2.5 0 1 1 5 0z"/>
     <path id="path3805" style="opacity:.5041;color:#000000;fill:#fff" transform="matrix(.4 0 0 .4 47.6 29)" d="m61 37.5a2.5 2.5 0 1 1 -5 0 2.5 2.5 0 1 1 5 0z"/>
     <path id="path3807" style="opacity:.5041;color:#000000;fill:#fff" transform="matrix(.4 0 0 .4 55.6 23)" d="m61 37.5a2.5 2.5 0 1 1 -5 0 2.5 2.5 0 1 1 5 0z"/>
     <path id="path3809" style="opacity:.5041;color:#000000;fill:#fff" transform="matrix(.4 0 0 .4 38.6 30)" d="m61 37.5a2.5 2.5 0 1 1 -5 0 2.5 2.5 0 1 1 5 0z"/>
     <path id="path3811" style="opacity:.5041;color:#000000;fill:#fff" transform="matrix(.4 0 0 .4 38.6 30)" d="m61 37.5a2.5 2.5 0 1 1 -5 0 2.5 2.5 0 1 1 5 0z"/>
     <path id="path3813" style="opacity:.5041;color:#000000;fill:#fff" transform="matrix(.6 0 0 .6 -1.1 21)" d="m61 37.5a2.5 2.5 0 1 1 -5 0 2.5 2.5 0 1 1 5 0z"/>
     <path id="path3815" style="opacity:.5041;color:#000000;fill:#fff" transform="matrix(.6 0 0 .6 -6.6 18.5)" d="m61 37.5a2.5 2.5 0 1 1 -5 0 2.5 2.5 0 1 1 5 0z"/>
     <path id="path3817" style="opacity:.5041;color:#000000;fill:#fff" transform="matrix(.6 0 0 .6 15.9 31)" d="m61 37.5a2.5 2.5 0 1 1 -5 0 2.5 2.5 0 1 1 5 0z"/>
     <path id="path3819" style="opacity:.5041;color:#000000;fill:#fff" transform="matrix(.6 0 0 .6 19.4 26.5)" d="m61 37.5a2.5 2.5 0 1 1 -5 0 2.5 2.5 0 1 1 5 0z"/>
     <path id="path3821" style="opacity:.5041;color:#000000;fill:#fff" transform="matrix(.6 0 0 .6 19.4 26.5)" d="m61 37.5a2.5 2.5 0 1 1 -5 0 2.5 2.5 0 1 1 5 0z"/>
     <path id="path3823" style="opacity:.5041;color:#000000;fill:#fff" transform="matrix(.6 0 0 .6 37.9 29)" d="m61 37.5a2.5 2.5 0 1 1 -5 0 2.5 2.5 0 1 1 5 0z"/>
     <path id="path3825" style="opacity:.3;color:#000000;fill:url(#radialGradient3833)" transform="matrix(1.6,0,0,1.6,-43.6,-16)" d="m61 37.5a2.5 2.5 0 1 1 -5 0 2.5 2.5 0 1 1 5 0z"/>
     <path id="path3835" style="opacity:.3;color:#000000;fill:url(#radialGradient3833)" transform="matrix(1.6,0,0,1.6,-23.6,-10)" d="m61 37.5a2.5 2.5 0 1 1 -5 0 2.5 2.5 0 1 1 5 0z"/>
     <path id="path3839" style="opacity:.3;color:#000000;fill:url(#radialGradient3833)" transform="matrix(1.6,0,0,1.6,-72.6,-15)" d="m61 37.5a2.5 2.5 0 1 1 -5 0 2.5 2.5 0 1 1 5 0z"/>
     <path id="path3843" style="opacity:.3;color:#000000;fill:url(#radialGradient3833)" transform="matrix(1.6,0,0,1.6,-59.6,-9)" d="m61 37.5a2.5 2.5 0 1 1 -5 0 2.5 2.5 0 1 1 5 0z"/>
     <path id="path3847" style="opacity:.3;color:#000000;fill:url(#radialGradient3833)" transform="translate(-27,2.5)" d="m61 37.5a2.5 2.5 0 1 1 -5 0 2.5 2.5 0 1 1 5 0z"/>
     <path id="path3851" style="opacity:.3;color:#000000;fill:url(#radialGradient3833)" transform="translate(9,4.5)" d="m61 37.5a2.5 2.5 0 1 1 -5 0 2.5 2.5 0 1 1 5 0z"/>
     <path id="path3855" style="opacity:.3;color:#000000;fill:url(#radialGradient3833)" transform="translate(21,6.5)" d="m61 37.5a2.5 2.5 0 1 1 -5 0 2.5 2.5 0 1 1 5 0z"/>
     <path id="path3859" style="opacity:.3;color:#000000;fill:url(#radialGradient3833)" transform="translate(-35,12.5)" d="m61 37.5a2.5 2.5 0 1 1 -5 0 2.5 2.5 0 1 1 5 0z"/>
     <path id="path3863" style="opacity:.5041;color:#000000;fill:#fff" transform="matrix(.4 0 0 .4 39.6 24)" d="m61 37.5a2.5 2.5 0 1 1 -5 0 2.5 2.5 0 1 1 5 0z"/>
    </g>
   </g>
   <g id="layer5">
    <path id="path3796" style="opacity:.7;fill:#fff" d="m74.938 56c-1.1063 0.000015-2.057 0.24871-2.8125 0.75-0.75554 0.4874-1.3538 1.1265-1.8125 1.9062-0.45872 0.7659-0.79763 1.6329-1 2.5938-0.20238 0.96084-0.28125 1.9108-0.28125 2.8438-0.000001 0.94692 0.09663 1.8968 0.3125 2.8438 0.21587 0.93299 0.5768 1.748 1.0625 2.5 0.4857 0.75196 1.106 1.3703 1.875 1.8438 0.768 0.473 1.688 0.718 2.78 0.718 0.55315 0 1.0946-0.14167 1.5938-0.40625 0.51267-0.25065 0.97878-0.50275 1.4375-0.78125v0.9375h1.9375v-7.9688h-5.3125v1.9375h3.375v2.8125c-0.18889 0.20888-0.41341 0.3954-0.65625 0.5625-0.24286 0.1671-0.49793 0.31218-0.78125 0.4375-0.26984 0.12533-0.54694 0.21163-0.84375 0.28125-0.28333 0.06963-0.57392 0.125-0.84375 0.125-0.76903 0.000002-1.3936-0.18312-1.9062-0.53125-0.512-0.362-0.939-0.835-1.25-1.406-0.296-0.571-0.521-1.196-0.656-1.906-0.121-0.71-0.156-1.415-0.156-2.125-0.000002-0.71017 0.03482-1.4461 0.15625-2.1562 0.13491-0.71017 0.35943-1.3353 0.65625-1.9062 0.3103-0.58484 0.71956-1.0581 1.2188-1.4062 0.51268-0.36204 1.1372-0.53124 1.9062-0.53125 0.48569 0.000014 0.9127 0.08292 1.25 0.25 0.35078 0.15319 0.63214 0.38116 0.875 0.6875 0.25633 0.30637 0.49434 0.66208 0.65625 1.0938 0.17538 0.43169 0.31606 0.92568 0.4375 1.4688l1.719-0.594c-0.14842-0.7241-0.36867-1.4012-0.625-2-0.24286-0.59877-0.56401-1.0996-0.96875-1.5312-0.39127-0.43166-0.8531-0.77718-1.4062-1-0.553-0.237-1.195-0.344-1.937-0.344zm-34.906 0.25v10.844c-0.000006 0.27851-0.01736 0.58938-0.03125 0.9375-0.01393 0.33421-0.05878 0.64507-0.15625 0.9375-0.08356 0.29243-0.24595 0.54112-0.46875 0.75-0.20888 0.19495-0.4851 0.3125-0.875 0.3125-0.32028 0.000002-0.5863-0.09682-0.78125-0.25-0.19496-0.15318-0.35735-0.36042-0.46875-0.625-0.1114-0.2785-0.17698-0.60669-0.21875-0.96875-0.04178-0.36205-0.07983-0.72117-0.09375-1.125l-1.8438 0.3125v0.375c0 0.52916 0.05878 1.0473 0.15625 1.5625 0.1114 0.51523 0.2806 0.97117 0.53125 1.375 0.26458 0.3899 0.63082 0.70077 1.0625 0.9375 0.431 0.251 0.988 0.375 1.656 0.375 0.79373 0 1.4155-0.18312 1.875-0.53125 0.47345-0.34813 0.84309-0.76602 1.0938-1.2812 0.25065-0.52915 0.39912-1.106 0.46875-1.7188 0.06962-0.62663 0.09374-1.2069 0.09375-1.75v-10.469h-2zm5.875 0v15.5h2.0312v-6.2188h2.2188c0.30635 0.000006 0.67259-0.0034 1.0625-0.03125 0.40382-0.04177 0.79759-0.12127 1.1875-0.21875 0.3899-0.1114 0.74561-0.25647 1.0938-0.4375 0.34812-0.18102 0.63486-0.39506 0.84375-0.6875 0.36204-0.48737 0.62806-1.0228 0.78125-1.5938 0.16709-0.58485 0.24999-1.1651 0.25-1.75-0.001-0.362-0.039-0.714-0.095-1.062-0.055-0.362-0.142-0.714-0.281-1.062-0.209-0.544-0.475-0.993-0.781-1.313-0.29244-0.32026-0.62403-0.55163-1-0.71875-0.37599-0.16709-0.8044-0.27071-1.25-0.3125-0.446-0.056-0.919-0.094-1.407-0.094h-4.6562zm12.156 0v15.5h9.25v-1.9688h-7.25v-5.0625h6.0625v-1.9375h-6.0625v-4.5625h7v-1.9688h-9zm-10.125 2h2.8125c0.19495 0.000013 0.42292-0.01389 0.6875 0 0.2785 0.000014 0.50647 0.05539 0.6875 0.125 0.2228 0.08356 0.40932 0.19399 0.5625 0.375 0.15317 0.16711 0.27752 0.37096 0.375 0.59375 0.09747 0.22282 0.17697 0.45418 0.21875 0.71875 0.04177 0.25066 0.06249 0.49936 0.0625 0.75-0.000009 0.87729-0.28675 1.5717-0.84375 2.0312-0.54309 0.44561-1.3031 0.65626-2.25 0.65625h-2.3125v-5.25z"/>
   </g>
  </g>
  <rect id="rect3003" style="opacity:.15;fill:#fff" clip-path="url(#clipPath3009)" rx="25" ry="25" transform="translate(98 3.8281e-7)" width="92" y="958.36" x="-96" height="92"/>
 </g>
</svg>
