<?xml version="1.0" encoding="UTF-8" standalone="no"?>
<!-- Created with Inkscape (http://www.inkscape.org/) -->
<svg id="svg11037" xmlns:rdf="http://www.w3.org/1999/02/22-rdf-syntax-ns#" xmlns="http://www.w3.org/2000/svg" height="96" width="96" version="1.1" xmlns:cc="http://creativecommons.org/ns#" xmlns:xlink="http://www.w3.org/1999/xlink" xmlns:dc="http://purl.org/dc/elements/1.1/">
 <defs id="defs11039">
  <linearGradient id="linearGradient11642" x1="48" gradientUnits="userSpaceOnUse" x2="48" gradientTransform="matrix(1.15 0 0 1.15 -7.1999 -150.65)" y1="962.62" y2="1046.1">
   <stop id="stop3702" style="stop-color:#e6e6e6" offset="0"/>
   <stop id="stop3704" style="stop-color:#f5f5f5" offset="1"/>
  </linearGradient>
  <clipPath id="clipPath2951">
   <rect id="rect2953" style="opacity:.65164;color:#000000;fill:#f00" rx="3" ry="3" height="56" width="72" y="20" x="12"/>
  </clipPath>
  <linearGradient id="linearGradient3938" x1="48" spreadMethod="reflect" gradientUnits="userSpaceOnUse" y1="48" x2="48" y2="72">
   <stop id="stop3942" style="stop-color:#e36dbf" offset="0"/>
   <stop id="stop3944" style="stop-color:#901649" offset="1"/>
  </linearGradient>
  <radialGradient id="radialGradient3934" gradientUnits="userSpaceOnUse" cy="24" cx="56" r="16">
   <stop id="stop3930" style="stop-color:#7a28a6" offset="0"/>
   <stop id="stop3932" style="stop-color:#650080;stop-opacity:0" offset="1"/>
  </radialGradient>
  <radialGradient id="radialGradient3867" cx="60.563" xlink:href="#linearGradient3739" gradientUnits="userSpaceOnUse" cy="49.721" r="19.437"/>
  <linearGradient id="linearGradient3739">
   <stop id="stop3742" style="stop-color:#e296c4" offset="0"/>
   <stop id="stop3745" style="stop-color:#c03589;stop-opacity:0" offset="1"/>
  </linearGradient>
  <radialGradient id="radialGradient3747" cx="47.977" xlink:href="#linearGradient3739" gradientUnits="userSpaceOnUse" cy="64.058" r="24.023"/>
  <radialGradient id="radialGradient3758" gradientUnits="userSpaceOnUse" cy="49.721" cx="60.563" r="19.437">
   <stop id="stop3754" style="stop-color:#ffb441" offset="0"/>
   <stop id="stop3756" style="stop-color:#ff7945;stop-opacity:0" offset="1"/>
  </radialGradient>
  <radialGradient id="radialGradient3833" cx="58.5" gradientUnits="userSpaceOnUse" cy="37.5" r="2.5">
   <stop id="stop3829" style="stop-color:#fff" offset="0"/>
   <stop id="stop3831" style="stop-color:#fff;stop-opacity:0" offset="1"/>
  </radialGradient>
  <clipPath id="clipPath3009" clipPathUnits="userSpaceOnUse">
   <path id="path3011" style="opacity:.15;fill:#fff" d="m-2 956.36h-96v33.562l96 25.687v-59.25z"/>
  </clipPath>
 </defs>
 <metadata id="metadata11042">
  <rdf:RDF>
   <cc:Work rdf:about="">
    <dc:format>image/svg+xml</dc:format>
    <dc:type rdf:resource="http://purl.org/dc/dcmitype/StillImage"/>
    <dc:title/>
   </cc:Work>
  </rdf:RDF>
 </metadata>
 <g id="layer1" transform="translate(0 -956.36)">
  <rect id="rect3867" style="fill:url(#linearGradient11642)" rx="25" ry="25" height="92" width="92" y="958.36" x="2"/>
  <g id="g3129" transform="translate(0 956.36)">
   <g id="layer3">
    <g id="g3871" clip-path="url(#clipPath2951)">
     <rect id="rect3966" style="color:#000000;fill:url(#linearGradient3938)" height="56" width="72" y="20" x="12"/>
     <path id="path3918" style="opacity:.62066;color:#000000;fill:url(#radialGradient3934)" transform="matrix(2.75,0,0,2.75,-126,-40)" d="m72 24a16 16 0 1 1 -32 0 16 16 0 1 1 32 0z"/>
     <path id="path3865" style="opacity:.69672;color:#000000;fill:url(#radialGradient3867)" transform="matrix(.92606 0 0 .92606 20.478 -.044489)" d="m80 49.721a19.437 19.437 0 1 1 -38.874 0 19.437 19.437 0 1 1 38.874 0z"/>
     <path id="path3737" style="color:#000000;fill:url(#radialGradient3747)" transform="translate(-24 -16.058)" d="m72 64.058a24.023 24.023 0 1 1 -48.045 0 24.023 24.023 0 1 1 48.045 0z"/>
     <path id="path3749" style="opacity:.43443;color:#000000;fill:url(#radialGradient3758)" transform="translate(-12.563 -5.1578)" d="m80 49.721a19.437 19.437 0 1 1 -38.874 0 19.437 19.437 0 1 1 38.874 0z"/>
     <path id="path3779" style="opacity:.4;color:#000000;fill:#fff" d="m61 37.5a2.5 2.5 0 1 1 -5 0 2.5 2.5 0 1 1 5 0z"/>
     <path id="path3781" style="opacity:.5041;color:#000000;fill:#fff" transform="translate(-33.5,10)" d="m61 37.5a2.5 2.5 0 1 1 -5 0 2.5 2.5 0 1 1 5 0z"/>
     <path id="path3783" style="opacity:.3;color:#000000;fill:#fff" transform="translate(4,13.5)" d="m61 37.5a2.5 2.5 0 1 1 -5 0 2.5 2.5 0 1 1 5 0z"/>
     <path id="path3785" style="opacity:.5041;color:#000000;fill:#fff" transform="translate(17,8.5)" d="m61 37.5a2.5 2.5 0 1 1 -5 0 2.5 2.5 0 1 1 5 0z"/>
     <path id="path3787" style="opacity:.5041;color:#000000;fill:#fff" transform="translate(-17,7.5)" d="m61 37.5a2.5 2.5 0 1 1 -5 0 2.5 2.5 0 1 1 5 0z"/>
     <path id="path3789" style="opacity:.5041;color:#000000;fill:#fff" transform="translate(-42,3.5)" d="m61 37.5a2.5 2.5 0 1 1 -5 0 2.5 2.5 0 1 1 5 0z"/>
     <path id="path3791" style="opacity:.3;color:#000000;fill:#fff" transform="translate(-42,3.5)" d="m61 37.5a2.5 2.5 0 1 1 -5 0 2.5 2.5 0 1 1 5 0z"/>
     <path id="path3793" style="opacity:.5041;color:#000000;fill:#fff" transform="matrix(.4 0 0 .4 -6.4 35)" d="m61 37.5a2.5 2.5 0 1 1 -5 0 2.5 2.5 0 1 1 5 0z"/>
     <path id="path3795" style="opacity:.5041;color:#000000;fill:#fff" transform="matrix(.4 0 0 .4 7.6 38)" d="m61 37.5a2.5 2.5 0 1 1 -5 0 2.5 2.5 0 1 1 5 0z"/>
     <path id="path3797" style="opacity:.5041;color:#000000;fill:#fff" transform="matrix(.4 0 0 .4 9.6 34)" d="m61 37.5a2.5 2.5 0 1 1 -5 0 2.5 2.5 0 1 1 5 0z"/>
     <path id="path3799" style="opacity:.3;color:#000000;fill:#fff" transform="matrix(.4 0 0 .4 16.6 36)" d="m61 37.5a2.5 2.5 0 1 1 -5 0 2.5 2.5 0 1 1 5 0z"/>
     <path id="path3801" style="opacity:.5041;color:#000000;fill:#fff" transform="matrix(.4 0 0 .4 28.6 28)" d="m61 37.5a2.5 2.5 0 1 1 -5 0 2.5 2.5 0 1 1 5 0z"/>
     <path id="path3803" style="opacity:.5041;color:#000000;fill:#fff" transform="matrix(.4 0 0 .4 45.6 33)" d="m61 37.5a2.5 2.5 0 1 1 -5 0 2.5 2.5 0 1 1 5 0z"/>
     <path id="path3805" style="opacity:.5041;color:#000000;fill:#fff" transform="matrix(.4 0 0 .4 47.6 29)" d="m61 37.5a2.5 2.5 0 1 1 -5 0 2.5 2.5 0 1 1 5 0z"/>
     <path id="path3807" style="opacity:.5041;color:#000000;fill:#fff" transform="matrix(.4 0 0 .4 55.6 23)" d="m61 37.5a2.5 2.5 0 1 1 -5 0 2.5 2.5 0 1 1 5 0z"/>
     <path id="path3809" style="opacity:.5041;color:#000000;fill:#fff" transform="matrix(.4 0 0 .4 38.6 30)" d="m61 37.5a2.5 2.5 0 1 1 -5 0 2.5 2.5 0 1 1 5 0z"/>
     <path id="path3811" style="opacity:.5041;color:#000000;fill:#fff" transform="matrix(.4 0 0 .4 38.6 30)" d="m61 37.5a2.5 2.5 0 1 1 -5 0 2.5 2.5 0 1 1 5 0z"/>
     <path id="path3813" style="opacity:.5041;color:#000000;fill:#fff" transform="matrix(.6 0 0 .6 -1.1 21)" d="m61 37.5a2.5 2.5 0 1 1 -5 0 2.5 2.5 0 1 1 5 0z"/>
     <path id="path3815" style="opacity:.5041;color:#000000;fill:#fff" transform="matrix(.6 0 0 .6 -6.6 18.5)" d="m61 37.5a2.5 2.5 0 1 1 -5 0 2.5 2.5 0 1 1 5 0z"/>
     <path id="path3817" style="opacity:.5041;color:#000000;fill:#fff" transform="matrix(.6 0 0 .6 15.9 31)" d="m61 37.5a2.5 2.5 0 1 1 -5 0 2.5 2.5 0 1 1 5 0z"/>
     <path id="path3819" style="opacity:.5041;color:#000000;fill:#fff" transform="matrix(.6 0 0 .6 19.4 26.5)" d="m61 37.5a2.5 2.5 0 1 1 -5 0 2.5 2.5 0 1 1 5 0z"/>
     <path id="path3821" style="opacity:.5041;color:#000000;fill:#fff" transform="matrix(.6 0 0 .6 19.4 26.5)" d="m61 37.5a2.5 2.5 0 1 1 -5 0 2.5 2.5 0 1 1 5 0z"/>
     <path id="path3823" style="opacity:.5041;color:#000000;fill:#fff" transform="matrix(.6 0 0 .6 37.9 29)" d="m61 37.5a2.5 2.5 0 1 1 -5 0 2.5 2.5 0 1 1 5 0z"/>
     <path id="path3825" style="opacity:.3;color:#000000;fill:url(#radialGradient3833)" transform="matrix(1.6,0,0,1.6,-43.6,-16)" d="m61 37.5a2.5 2.5 0 1 1 -5 0 2.5 2.5 0 1 1 5 0z"/>
     <path id="path3835" style="opacity:.3;color:#000000;fill:url(#radialGradient3833)" transform="matrix(1.6,0,0,1.6,-23.6,-10)" d="m61 37.5a2.5 2.5 0 1 1 -5 0 2.5 2.5 0 1 1 5 0z"/>
     <path id="path3839" style="opacity:.3;color:#000000;fill:url(#radialGradient3833)" transform="matrix(1.6,0,0,1.6,-72.6,-15)" d="m61 37.5a2.5 2.5 0 1 1 -5 0 2.5 2.5 0 1 1 5 0z"/>
     <path id="path3843" style="opacity:.3;color:#000000;fill:url(#radialGradient3833)" transform="matrix(1.6,0,0,1.6,-59.6,-9)" d="m61 37.5a2.5 2.5 0 1 1 -5 0 2.5 2.5 0 1 1 5 0z"/>
     <path id="path3847" style="opacity:.3;color:#000000;fill:url(#radialGradient3833)" transform="translate(-27,2.5)" d="m61 37.5a2.5 2.5 0 1 1 -5 0 2.5 2.5 0 1 1 5 0z"/>
     <path id="path3851" style="opacity:.3;color:#000000;fill:url(#radialGradient3833)" transform="translate(9,4.5)" d="m61 37.5a2.5 2.5 0 1 1 -5 0 2.5 2.5 0 1 1 5 0z"/>
     <path id="path3855" style="opacity:.3;color:#000000;fill:url(#radialGradient3833)" transform="translate(21,6.5)" d="m61 37.5a2.5 2.5 0 1 1 -5 0 2.5 2.5 0 1 1 5 0z"/>
     <path id="path3859" style="opacity:.3;color:#000000;fill:url(#radialGradient3833)" transform="translate(-35,12.5)" d="m61 37.5a2.5 2.5 0 1 1 -5 0 2.5 2.5 0 1 1 5 0z"/>
     <path id="path3863" style="opacity:.5041;color:#000000;fill:#fff" transform="matrix(.4 0 0 .4 39.6 24)" d="m61 37.5a2.5 2.5 0 1 1 -5 0 2.5 2.5 0 1 1 5 0z"/>
    </g>
   </g>
   <g id="layer5">
    <path id="path3747" style="opacity:.7;fill:#fff" d="m52.102 58.027v-2.027h-10.113v2.027h4.0108v13.973h2.0701v-13.973h4.0323"/>
    <path id="path3750" style="opacity:.7;fill:#fff" d="m56.07 72v-16h-2.0701v16h2.0701"/>
    <path id="path3752" style="opacity:.7;fill:#fff" d="m68.563 58.027v-2.027h-8.69v16h2.0701v-8h5.7143v-2.027h-5.7143v-3.9461h6.6199"/>
    <path id="path3754" style="opacity:.7;fill:#fff" d="m80.67 58.027v-2.027h-8.69v16h2.0701v-8h5.7143v-2.027h-5.7143v-3.9461h6.6199"/>
   </g>
  </g>
  <rect id="rect3003" style="opacity:.15;fill:#fff" clip-path="url(#clipPath3009)" rx="25" ry="25" transform="translate(98 3.8281e-7)" width="92" y="958.36" x="-96" height="92"/>
 </g>
</svg>
