<?xml version="1.0" encoding="UTF-8" standalone="no"?>
<!-- Created with Inkscape (http://www.inkscape.org/) -->
<svg id="svg11037" xmlns:rdf="http://www.w3.org/1999/02/22-rdf-syntax-ns#" xmlns="http://www.w3.org/2000/svg" height="96" width="96" version="1.1" xmlns:cc="http://creativecommons.org/ns#" xmlns:xlink="http://www.w3.org/1999/xlink" xmlns:dc="http://purl.org/dc/elements/1.1/">
 <defs id="defs11039">
  <linearGradient id="linearGradient11642" x1="48" gradientUnits="userSpaceOnUse" x2="48" gradientTransform="matrix(1.15 0 0 1.15 -7.1999 -150.65)" y1="962.62" y2="1046.1">
   <stop id="stop3702" style="stop-color:#e6e6e6" offset="0"/>
   <stop id="stop3704" style="stop-color:#f5f5f5" offset="1"/>
  </linearGradient>
  <clipPath id="clipPath2950">
   <rect id="rect2952" style="opacity:.65164;color:#000000;fill:#f00" rx="3" ry="3" height="56" width="72" y="20" x="12"/>
  </clipPath>
  <linearGradient id="linearGradient3739">
   <stop id="stop3742" style="stop-color:#4ce6a9" offset="0"/>
   <stop id="stop3745" style="stop-color:#2a9b84;stop-opacity:0" offset="1"/>
  </linearGradient>
  <linearGradient id="linearGradient4230" x1="48" spreadMethod="reflect" gradientUnits="userSpaceOnUse" y1="48" x2="48" y2="72">
   <stop id="stop3942" style="stop-color:#51cfcc" offset="0"/>
   <stop id="stop3944" style="stop-color:#126176" offset="1"/>
  </linearGradient>
  <radialGradient id="radialGradient4232" gradientUnits="userSpaceOnUse" cy="24" cx="56" r="16">
   <stop id="stop3930" style="stop-color:#13ce00" offset="0"/>
   <stop id="stop3932" style="stop-color:#008065;stop-opacity:0" offset="1"/>
  </radialGradient>
  <radialGradient id="radialGradient4234" cx="60.563" xlink:href="#linearGradient3739" gradientUnits="userSpaceOnUse" cy="49.721" r="19.437"/>
  <radialGradient id="radialGradient4236" cx="47.977" xlink:href="#linearGradient3739" gradientUnits="userSpaceOnUse" cy="64.058" r="24.023"/>
  <radialGradient id="radialGradient4238" gradientUnits="userSpaceOnUse" cy="49.721" cx="60.563" r="19.437">
   <stop id="stop3754" style="stop-color:#fcff7d" offset="0"/>
   <stop id="stop3756" style="stop-color:#009a0e;stop-opacity:0" offset="1"/>
  </radialGradient>
  <radialGradient id="radialGradient4240" cx="58.5" gradientUnits="userSpaceOnUse" cy="37.5" r="2.5">
   <stop id="stop3829" style="stop-color:#fff" offset="0"/>
   <stop id="stop3831" style="stop-color:#fff;stop-opacity:0" offset="1"/>
  </radialGradient>
  <linearGradient id="linearGradient4256" x1="64" gradientUnits="userSpaceOnUse" y1="80" gradientTransform="translate(-20)" x2="64" y2="-40.067">
   <stop id="stop3720-8" offset="0"/>
   <stop id="stop3722-1" style="stop-opacity:0" offset="1"/>
  </linearGradient>
  <clipPath id="clipPath3009" clipPathUnits="userSpaceOnUse">
   <path id="path3011" style="opacity:.15;fill:#fff" d="m-2 956.36h-96v33.562l96 25.687v-59.25z"/>
  </clipPath>
 </defs>
 <metadata id="metadata11042">
  <rdf:RDF>
   <cc:Work rdf:about="">
    <dc:format>image/svg+xml</dc:format>
    <dc:type rdf:resource="http://purl.org/dc/dcmitype/StillImage"/>
    <dc:title/>
   </cc:Work>
  </rdf:RDF>
 </metadata>
 <g id="layer1" transform="translate(0 -956.36)">
  <rect id="rect3867" style="fill:url(#linearGradient11642)" rx="25" ry="25" height="92" width="92" y="958.36" x="2"/>
  <g id="g3764" transform="translate(0 956.36)">
   <g id="g3518">
    <g id="g3347">
     <g id="g3178">
      <g id="layer3">
       <g id="g3871" clip-path="url(#clipPath2950)">
        <rect id="rect3966" style="color:#000000;fill:url(#linearGradient4230)" height="56" width="72" y="20" x="12"/>
        <path id="path3918" d="m72 24a16 16 0 1 1 -32 0 16 16 0 1 1 32 0z" style="opacity:.5;color:#000000;fill:url(#radialGradient4232)" transform="matrix(2.75,0,0,2.75,-126,-40)"/>
        <path id="path3865" d="m80 49.721a19.437 19.437 0 1 1 -38.874 0 19.437 19.437 0 1 1 38.874 0z" style="opacity:.75672;color:#000000;fill:url(#radialGradient4234)" transform="matrix(.92606 0 0 .92606 20.478 -.044489)"/>
        <path id="path3737" d="m72 64.058a24.023 24.023 0 1 1 -48.045 0 24.023 24.023 0 1 1 48.045 0z" style="color:#000000;fill:url(#radialGradient4236)" transform="translate(-24 -16.058)"/>
        <path id="path3749" d="m80 49.721a19.437 19.437 0 1 1 -38.874 0 19.437 19.437 0 1 1 38.874 0z" style="opacity:.43443;color:#000000;fill:url(#radialGradient4238)" transform="translate(-12.563 -5.1578)"/>
        <path id="path3779" style="opacity:.4;color:#000000;fill:#fff" d="m61 37.5a2.5 2.5 0 1 1 -5 0 2.5 2.5 0 1 1 5 0z"/>
        <path id="path3781" d="m61 37.5a2.5 2.5 0 1 1 -5 0 2.5 2.5 0 1 1 5 0z" style="opacity:.5041;color:#000000;fill:#fff" transform="translate(-33.5,10)"/>
        <path id="path3783" d="m61 37.5a2.5 2.5 0 1 1 -5 0 2.5 2.5 0 1 1 5 0z" style="opacity:.3;color:#000000;fill:#fff" transform="translate(4,13.5)"/>
        <path id="path3785" d="m61 37.5a2.5 2.5 0 1 1 -5 0 2.5 2.5 0 1 1 5 0z" style="opacity:.5041;color:#000000;fill:#fff" transform="translate(17,8.5)"/>
        <path id="path3787" d="m61 37.5a2.5 2.5 0 1 1 -5 0 2.5 2.5 0 1 1 5 0z" style="opacity:.5041;color:#000000;fill:#fff" transform="translate(-17,7.5)"/>
        <path id="path3789" d="m61 37.5a2.5 2.5 0 1 1 -5 0 2.5 2.5 0 1 1 5 0z" style="opacity:.5041;color:#000000;fill:#fff" transform="translate(-42,3.5)"/>
        <path id="path3791" d="m61 37.5a2.5 2.5 0 1 1 -5 0 2.5 2.5 0 1 1 5 0z" style="opacity:.3;color:#000000;fill:#fff" transform="translate(-42,3.5)"/>
        <path id="path3793" d="m61 37.5a2.5 2.5 0 1 1 -5 0 2.5 2.5 0 1 1 5 0z" style="opacity:.5041;color:#000000;fill:#fff" transform="matrix(.4 0 0 .4 -6.4 35)"/>
        <path id="path3795" d="m61 37.5a2.5 2.5 0 1 1 -5 0 2.5 2.5 0 1 1 5 0z" style="opacity:.5041;color:#000000;fill:#fff" transform="matrix(.4 0 0 .4 7.6 38)"/>
        <path id="path3797" d="m61 37.5a2.5 2.5 0 1 1 -5 0 2.5 2.5 0 1 1 5 0z" style="opacity:.5041;color:#000000;fill:#fff" transform="matrix(.4 0 0 .4 9.6 34)"/>
        <path id="path3799" d="m61 37.5a2.5 2.5 0 1 1 -5 0 2.5 2.5 0 1 1 5 0z" style="opacity:.3;color:#000000;fill:#fff" transform="matrix(.4 0 0 .4 16.6 36)"/>
        <path id="path3801" d="m61 37.5a2.5 2.5 0 1 1 -5 0 2.5 2.5 0 1 1 5 0z" style="opacity:.5041;color:#000000;fill:#fff" transform="matrix(.4 0 0 .4 28.6 28)"/>
        <path id="path3803" d="m61 37.5a2.5 2.5 0 1 1 -5 0 2.5 2.5 0 1 1 5 0z" style="opacity:.5041;color:#000000;fill:#fff" transform="matrix(.4 0 0 .4 45.6 33)"/>
        <path id="path3805" d="m61 37.5a2.5 2.5 0 1 1 -5 0 2.5 2.5 0 1 1 5 0z" style="opacity:.5041;color:#000000;fill:#fff" transform="matrix(.4 0 0 .4 47.6 29)"/>
        <path id="path3807" d="m61 37.5a2.5 2.5 0 1 1 -5 0 2.5 2.5 0 1 1 5 0z" style="opacity:.5041;color:#000000;fill:#fff" transform="matrix(.4 0 0 .4 55.6 23)"/>
        <path id="path3809" d="m61 37.5a2.5 2.5 0 1 1 -5 0 2.5 2.5 0 1 1 5 0z" style="opacity:.5041;color:#000000;fill:#fff" transform="matrix(.4 0 0 .4 38.6 30)"/>
        <path id="path3811" d="m61 37.5a2.5 2.5 0 1 1 -5 0 2.5 2.5 0 1 1 5 0z" style="opacity:.5041;color:#000000;fill:#fff" transform="matrix(.4 0 0 .4 38.6 30)"/>
        <path id="path3813" d="m61 37.5a2.5 2.5 0 1 1 -5 0 2.5 2.5 0 1 1 5 0z" style="opacity:.5041;color:#000000;fill:#fff" transform="matrix(.6 0 0 .6 -1.1 21)"/>
        <path id="path3815" d="m61 37.5a2.5 2.5 0 1 1 -5 0 2.5 2.5 0 1 1 5 0z" style="opacity:.5041;color:#000000;fill:#fff" transform="matrix(.6 0 0 .6 -6.6 18.5)"/>
        <path id="path3817" d="m61 37.5a2.5 2.5 0 1 1 -5 0 2.5 2.5 0 1 1 5 0z" style="opacity:.5041;color:#000000;fill:#fff" transform="matrix(.6 0 0 .6 15.9 31)"/>
        <path id="path3819" d="m61 37.5a2.5 2.5 0 1 1 -5 0 2.5 2.5 0 1 1 5 0z" style="opacity:.5041;color:#000000;fill:#fff" transform="matrix(.6 0 0 .6 19.4 26.5)"/>
        <path id="path3821" d="m61 37.5a2.5 2.5 0 1 1 -5 0 2.5 2.5 0 1 1 5 0z" style="opacity:.5041;color:#000000;fill:#fff" transform="matrix(.6 0 0 .6 19.4 26.5)"/>
        <path id="path3823" d="m61 37.5a2.5 2.5 0 1 1 -5 0 2.5 2.5 0 1 1 5 0z" style="opacity:.5041;color:#000000;fill:#fff" transform="matrix(.6 0 0 .6 37.9 29)"/>
        <path id="path3825" d="m61 37.5a2.5 2.5 0 1 1 -5 0 2.5 2.5 0 1 1 5 0z" style="opacity:.3;color:#000000;fill:url(#radialGradient4240)" transform="matrix(1.6,0,0,1.6,-43.6,-16)"/>
        <path id="path3835" d="m61 37.5a2.5 2.5 0 1 1 -5 0 2.5 2.5 0 1 1 5 0z" style="opacity:.3;color:#000000;fill:url(#radialGradient4240)" transform="matrix(1.6,0,0,1.6,-23.6,-10)"/>
        <path id="path3839" d="m61 37.5a2.5 2.5 0 1 1 -5 0 2.5 2.5 0 1 1 5 0z" style="opacity:.3;color:#000000;fill:url(#radialGradient4240)" transform="matrix(1.6,0,0,1.6,-72.6,-15)"/>
        <path id="path3843" d="m61 37.5a2.5 2.5 0 1 1 -5 0 2.5 2.5 0 1 1 5 0z" style="opacity:.3;color:#000000;fill:url(#radialGradient4240)" transform="matrix(1.6,0,0,1.6,-59.6,-9)"/>
        <path id="path3847" d="m61 37.5a2.5 2.5 0 1 1 -5 0 2.5 2.5 0 1 1 5 0z" style="opacity:.3;color:#000000;fill:url(#radialGradient4240)" transform="translate(-27,2.5)"/>
        <path id="path3851" d="m61 37.5a2.5 2.5 0 1 1 -5 0 2.5 2.5 0 1 1 5 0z" style="opacity:.3;color:#000000;fill:url(#radialGradient4240)" transform="translate(9,4.5)"/>
        <path id="path3855" d="m61 37.5a2.5 2.5 0 1 1 -5 0 2.5 2.5 0 1 1 5 0z" style="opacity:.3;color:#000000;fill:url(#radialGradient4240)" transform="translate(21,6.5)"/>
        <path id="path3859" d="m61 37.5a2.5 2.5 0 1 1 -5 0 2.5 2.5 0 1 1 5 0z" style="opacity:.3;color:#000000;fill:url(#radialGradient4240)" transform="translate(-35,12.5)"/>
        <path id="path3863" d="m61 37.5a2.5 2.5 0 1 1 -5 0 2.5 2.5 0 1 1 5 0z" style="opacity:.5041;color:#000000;fill:#fff" transform="matrix(.4 0 0 .4 39.6 24)"/>
       </g>
      </g>
     </g>
    </g>
   </g>
   <g id="g3691">
    <g id="g3149">
     <g id="layer5">
      <path id="path3747" style="opacity:.7;fill:#fff" d="m50.63 67.256c-0.000011-0.77628-0.18331-1.5094-0.5499-2.1995-0.35134-0.69002-0.90888-1.2219-1.6726-1.5957 0.48879-0.40251 0.85539-0.88409 1.0998-1.4447 0.25966-0.57501 0.3895-1.1644 0.38951-1.7682-0.000012-1.3369-0.41244-2.3791-1.2373-3.1267-0.80959-0.74751-1.9094-1.1213-3.2994-1.1213h-5.1095v16h5.1782c1.6191-0.000001 2.887-0.39533 3.8035-1.186 0.93177-0.79065 1.3977-1.9766 1.3977-3.558m-2.887-6.8571c-0.000008 0.8913-0.2215 1.4879-0.66446 1.7898-0.44298 0.3019-1.1304 0.45284-2.0621 0.45283h-2.5662v-4.593h2.36c0.50407 0.000013 0.93941 0.02876 1.306 0.08625 0.36659 0.05752 0.66446 0.17252 0.89359 0.34501 0.24439 0.17252 0.42769 0.4169 0.5499 0.73315 0.12219 0.3019 0.18329 0.69723 0.1833 1.186m0.64155 6.9434c-0.00001 0.94879-0.24441 1.6244-0.7332 2.027-0.48881 0.40252-1.222 0.60378-2.1996 0.60377h-3.0015v-5.2615h2.7495c1.0234 0.000007 1.8101 0.19408 2.36 0.58221 0.54989 0.38815 0.82484 1.071 0.82485 2.0485"/>
      <path id="path3750" style="opacity:.7;fill:#fff" d="m66.375 72v-16h-2.6808c-0.26809 0.93443-0.57341 1.9838-0.91595 3.1482l-0.98297 3.4501c-0.32766 1.1357-0.64043 2.1995-0.93829 3.1914-0.28298 0.97754-0.51383 1.761-0.69255 2.3504-0.11915-0.38814-0.26064-0.86972-0.42446-1.4447-0.16384-0.58939-0.34256-1.2291-0.53616-1.9191-0.19362-0.69002-0.40213-1.416-0.62552-2.1779-0.20851-0.77627-0.42447-1.5454-0.64787-2.3073-0.20851-0.77627-0.41702-1.531-0.62552-2.2642-0.19362-0.73314-0.37234-1.4088-0.53616-2.027h-2.9489v16h2.1447v-11.321l3.15 11.321h1.9883l3.0829-10.911v10.911h2.1893"/>
      <path id="path3752" style="opacity:.7;fill:#fff" d="m79.791 60.701c-0.000011-0.37375-0.02876-0.74033-0.08625-1.0997-0.05751-0.37375-0.15814-0.74033-0.30189-1.0997-0.21564-0.56063-0.48159-1.0063-0.79784-1.3369-0.3019-0.33062-0.64691-0.5822-1.035-0.75472-0.38815-0.17249-0.81223-0.28031-1.2722-0.32345-0.46002-0.05749-0.94161-0.08624-1.4447-0.08625h-4.8086v16h2.0701v-6.4043h2.3073c0.31626 0.000006 0.67564-0.01437 1.0782-0.04313 0.41688-0.04312 0.82659-0.115 1.2291-0.21563 0.40251-0.115 0.78346-0.26594 1.1429-0.45283 0.35938-0.18688 0.64689-0.43126 0.86253-0.73315 0.37375-0.50314 0.6397-1.0494 0.79784-1.6388 0.1725-0.60376 0.25875-1.2075 0.25876-1.8113m-2.0916 0.02156c-0.000008 0.90567-0.28752 1.5957-0.86253 2.0701-0.56066 0.46003-1.3297 0.69004-2.3073 0.69003h-2.3935v-5.434h2.8895c0.20125 0.000013 0.43845 0.0072 0.71159 0.02156 0.2875 0.000014 0.5247 0.03595 0.71159 0.10782 0.23 0.08627 0.42407 0.22283 0.58221 0.4097 0.15812 0.17252 0.2875 0.37378 0.38814 0.60377 0.10062 0.23002 0.1725 0.48159 0.21563 0.75472 0.04312 0.25877 0.06468 0.51753 0.06469 0.77628"/>
     </g>
     <path id="rect2960" style="opacity:.3;color:#000000;fill:url(#linearGradient4256)" d="m15 20c-1.662 0-3 1.338-3 3v50c0 1.662 1.338 3 3 3h66c1.662 0 3-1.338 3-3v-50c0-1.662-1.338-3-3-3h-66zm0 0.96875h66c1.1465 0 2.0312 0.88473 2.0312 2.0312v50c0 1.1465-0.88473 2.0312-2.0312 2.0312h-66c-1.1465 0-2.0312-0.88473-2.0312-2.0312v-50c0-1.1465 0.88473-2.0312 2.0312-2.0312z"/>
     <path id="rect3750" style="opacity:.7;color:#000000;fill:#fff" d="m12 73v1c0 1.662 1.338 3 3 3h66c1.662 0 3-1.338 3-3v-1c0 1.662-1.338 3-3 3h-66c-1.662 0-3-1.338-3-3z"/>
    </g>
   </g>
  </g>
  <rect id="rect3003" style="opacity:.15;fill:#fff" clip-path="url(#clipPath3009)" rx="25" ry="25" transform="translate(98 3.8281e-7)" width="92" y="958.36" x="-96" height="92"/>
 </g>
</svg>
