<?xml version="1.0" encoding="UTF-8" standalone="no"?>
<!-- Created with Inkscape (http://www.inkscape.org/) -->
<svg id="svg11037" xmlns:rdf="http://www.w3.org/1999/02/22-rdf-syntax-ns#" xmlns="http://www.w3.org/2000/svg" height="96" width="96" version="1.1" xmlns:cc="http://creativecommons.org/ns#" xmlns:xlink="http://www.w3.org/1999/xlink" xmlns:dc="http://purl.org/dc/elements/1.1/">
 <defs id="defs11039">
  <linearGradient id="linearGradient11642" x1="48" gradientUnits="userSpaceOnUse" x2="48" gradientTransform="matrix(1.15 0 0 1.15 -7.1999 -150.65)" y1="962.62" y2="1046.1">
   <stop id="stop3702" style="stop-color:#e6e6e6" offset="0"/>
   <stop id="stop3704" style="stop-color:#f5f5f5" offset="1"/>
  </linearGradient>
  <clipPath id="clipPath2950">
   <rect id="rect2952" style="opacity:.65164;color:#000000;fill:#f00" rx="3" ry="3" height="56" width="72" y="20" x="12"/>
  </clipPath>
  <linearGradient id="linearGradient3938" x1="48" spreadMethod="reflect" gradientUnits="userSpaceOnUse" y1="48" x2="48" y2="72">
   <stop id="stop3942" style="stop-color:#6c85b4" offset="0"/>
   <stop id="stop3944" style="stop-color:#2e3d5a" offset="1"/>
  </linearGradient>
  <radialGradient id="radialGradient3934" gradientUnits="userSpaceOnUse" cy="24" cx="56" r="16">
   <stop id="stop3930" style="stop-color:#4f657f" offset="0"/>
   <stop id="stop3932" style="stop-color:#343d4c;stop-opacity:0" offset="1"/>
  </radialGradient>
  <radialGradient id="radialGradient3867" cx="60.563" xlink:href="#linearGradient3739" gradientUnits="userSpaceOnUse" cy="49.721" r="19.437"/>
  <linearGradient id="linearGradient3739">
   <stop id="stop3742" style="stop-color:#78adba" offset="0"/>
   <stop id="stop3745" style="stop-color:#467e8c;stop-opacity:0" offset="1"/>
  </linearGradient>
  <radialGradient id="radialGradient3747" cx="47.977" xlink:href="#linearGradient3739" gradientUnits="userSpaceOnUse" cy="64.058" r="24.023"/>
  <radialGradient id="radialGradient3758" gradientUnits="userSpaceOnUse" cy="49.721" cx="60.563" r="19.437">
   <stop id="stop3754" style="stop-color:#aaccd5" offset="0"/>
   <stop id="stop3756" style="stop-color:#abcbd4;stop-opacity:0" offset="1"/>
  </radialGradient>
  <radialGradient id="radialGradient3833" cx="58.5" gradientUnits="userSpaceOnUse" cy="37.5" r="2.5">
   <stop id="stop3829" style="stop-color:#fff" offset="0"/>
   <stop id="stop3831" style="stop-color:#fff;stop-opacity:0" offset="1"/>
  </radialGradient>
  <linearGradient id="linearGradient4004" x1="64" gradientUnits="userSpaceOnUse" y1="80" gradientTransform="translate(-20)" x2="64" y2="-40.067">
   <stop id="stop3720-0" offset="0"/>
   <stop id="stop3722-7" style="stop-opacity:0" offset="1"/>
  </linearGradient>
  <clipPath id="clipPath3009" clipPathUnits="userSpaceOnUse">
   <path id="path3011" style="opacity:.15;fill:#fff" d="m-2 956.36h-96v33.562l96 25.687v-59.25z"/>
  </clipPath>
 </defs>
 <metadata id="metadata11042">
  <rdf:RDF>
   <cc:Work rdf:about="">
    <dc:format>image/svg+xml</dc:format>
    <dc:type rdf:resource="http://purl.org/dc/dcmitype/StillImage"/>
    <dc:title/>
   </cc:Work>
  </rdf:RDF>
 </metadata>
 <g id="layer1" transform="translate(0 -956.36)">
  <rect id="rect3867" style="fill:url(#linearGradient11642)" rx="25" ry="25" height="92" width="92" y="958.36" x="2"/>
  <g id="g3128" transform="translate(0 956.36)">
   <g id="layer3">
    <g id="g3871" clip-path="url(#clipPath2950)">
     <rect id="rect3966" style="color:#000000;fill:url(#linearGradient3938)" height="56" width="72" y="20" x="12"/>
     <path id="path3918" style="opacity:.5;color:#000000;fill:url(#radialGradient3934)" transform="matrix(2.75,0,0,2.75,-126,-40)" d="m72 24a16 16 0 1 1 -32 0 16 16 0 1 1 32 0z"/>
     <path id="path3865" style="opacity:.69672;color:#000000;fill:url(#radialGradient3867)" transform="matrix(.92606 0 0 .92606 20.478 -.044489)" d="m80 49.721a19.437 19.437 0 1 1 -38.874 0 19.437 19.437 0 1 1 38.874 0z"/>
     <path id="path3737" style="color:#000000;fill:url(#radialGradient3747)" transform="translate(-24 -16.058)" d="m72 64.058a24.023 24.023 0 1 1 -48.045 0 24.023 24.023 0 1 1 48.045 0z"/>
     <path id="path3749" style="opacity:.43443;color:#000000;fill:url(#radialGradient3758)" transform="translate(-12.563 -5.1578)" d="m80 49.721a19.437 19.437 0 1 1 -38.874 0 19.437 19.437 0 1 1 38.874 0z"/>
     <path id="path3779" style="opacity:.4;color:#000000;fill:#fff" d="m61 37.5a2.5 2.5 0 1 1 -5 0 2.5 2.5 0 1 1 5 0z"/>
     <path id="path3781" style="opacity:.5041;color:#000000;fill:#fff" transform="translate(-33.5,10)" d="m61 37.5a2.5 2.5 0 1 1 -5 0 2.5 2.5 0 1 1 5 0z"/>
     <path id="path3783" style="opacity:.3;color:#000000;fill:#fff" transform="translate(4,13.5)" d="m61 37.5a2.5 2.5 0 1 1 -5 0 2.5 2.5 0 1 1 5 0z"/>
     <path id="path3785" style="opacity:.5041;color:#000000;fill:#fff" transform="translate(17,8.5)" d="m61 37.5a2.5 2.5 0 1 1 -5 0 2.5 2.5 0 1 1 5 0z"/>
     <path id="path3787" style="opacity:.5041;color:#000000;fill:#fff" transform="translate(-17,7.5)" d="m61 37.5a2.5 2.5 0 1 1 -5 0 2.5 2.5 0 1 1 5 0z"/>
     <path id="path3789" style="opacity:.5041;color:#000000;fill:#fff" transform="translate(-42,3.5)" d="m61 37.5a2.5 2.5 0 1 1 -5 0 2.5 2.5 0 1 1 5 0z"/>
     <path id="path3791" style="opacity:.3;color:#000000;fill:#fff" transform="translate(-42,3.5)" d="m61 37.5a2.5 2.5 0 1 1 -5 0 2.5 2.5 0 1 1 5 0z"/>
     <path id="path3793" style="opacity:.5041;color:#000000;fill:#fff" transform="matrix(.4 0 0 .4 -6.4 35)" d="m61 37.5a2.5 2.5 0 1 1 -5 0 2.5 2.5 0 1 1 5 0z"/>
     <path id="path3795" style="opacity:.5041;color:#000000;fill:#fff" transform="matrix(.4 0 0 .4 7.6 38)" d="m61 37.5a2.5 2.5 0 1 1 -5 0 2.5 2.5 0 1 1 5 0z"/>
     <path id="path3797" style="opacity:.5041;color:#000000;fill:#fff" transform="matrix(.4 0 0 .4 9.6 34)" d="m61 37.5a2.5 2.5 0 1 1 -5 0 2.5 2.5 0 1 1 5 0z"/>
     <path id="path3799" style="opacity:.3;color:#000000;fill:#fff" transform="matrix(.4 0 0 .4 16.6 36)" d="m61 37.5a2.5 2.5 0 1 1 -5 0 2.5 2.5 0 1 1 5 0z"/>
     <path id="path3801" style="opacity:.5041;color:#000000;fill:#fff" transform="matrix(.4 0 0 .4 28.6 28)" d="m61 37.5a2.5 2.5 0 1 1 -5 0 2.5 2.5 0 1 1 5 0z"/>
     <path id="path3803" style="opacity:.5041;color:#000000;fill:#fff" transform="matrix(.4 0 0 .4 45.6 33)" d="m61 37.5a2.5 2.5 0 1 1 -5 0 2.5 2.5 0 1 1 5 0z"/>
     <path id="path3805" style="opacity:.5041;color:#000000;fill:#fff" transform="matrix(.4 0 0 .4 47.6 29)" d="m61 37.5a2.5 2.5 0 1 1 -5 0 2.5 2.5 0 1 1 5 0z"/>
     <path id="path3807" style="opacity:.5041;color:#000000;fill:#fff" transform="matrix(.4 0 0 .4 55.6 23)" d="m61 37.5a2.5 2.5 0 1 1 -5 0 2.5 2.5 0 1 1 5 0z"/>
     <path id="path3809" style="opacity:.5041;color:#000000;fill:#fff" transform="matrix(.4 0 0 .4 38.6 30)" d="m61 37.5a2.5 2.5 0 1 1 -5 0 2.5 2.5 0 1 1 5 0z"/>
     <path id="path3811" style="opacity:.5041;color:#000000;fill:#fff" transform="matrix(.4 0 0 .4 38.6 30)" d="m61 37.5a2.5 2.5 0 1 1 -5 0 2.5 2.5 0 1 1 5 0z"/>
     <path id="path3813" style="opacity:.5041;color:#000000;fill:#fff" transform="matrix(.6 0 0 .6 -1.1 21)" d="m61 37.5a2.5 2.5 0 1 1 -5 0 2.5 2.5 0 1 1 5 0z"/>
     <path id="path3815" style="opacity:.5041;color:#000000;fill:#fff" transform="matrix(.6 0 0 .6 -6.6 18.5)" d="m61 37.5a2.5 2.5 0 1 1 -5 0 2.5 2.5 0 1 1 5 0z"/>
     <path id="path3817" style="opacity:.5041;color:#000000;fill:#fff" transform="matrix(.6 0 0 .6 15.9 31)" d="m61 37.5a2.5 2.5 0 1 1 -5 0 2.5 2.5 0 1 1 5 0z"/>
     <path id="path3819" style="opacity:.5041;color:#000000;fill:#fff" transform="matrix(.6 0 0 .6 19.4 26.5)" d="m61 37.5a2.5 2.5 0 1 1 -5 0 2.5 2.5 0 1 1 5 0z"/>
     <path id="path3821" style="opacity:.5041;color:#000000;fill:#fff" transform="matrix(.6 0 0 .6 19.4 26.5)" d="m61 37.5a2.5 2.5 0 1 1 -5 0 2.5 2.5 0 1 1 5 0z"/>
     <path id="path3823" style="opacity:.5041;color:#000000;fill:#fff" transform="matrix(.6 0 0 .6 37.9 29)" d="m61 37.5a2.5 2.5 0 1 1 -5 0 2.5 2.5 0 1 1 5 0z"/>
     <path id="path3825" style="opacity:.3;color:#000000;fill:url(#radialGradient3833)" transform="matrix(1.6,0,0,1.6,-43.6,-16)" d="m61 37.5a2.5 2.5 0 1 1 -5 0 2.5 2.5 0 1 1 5 0z"/>
     <path id="path3835" style="opacity:.3;color:#000000;fill:url(#radialGradient3833)" transform="matrix(1.6,0,0,1.6,-23.6,-10)" d="m61 37.5a2.5 2.5 0 1 1 -5 0 2.5 2.5 0 1 1 5 0z"/>
     <path id="path3839" style="opacity:.3;color:#000000;fill:url(#radialGradient3833)" transform="matrix(1.6,0,0,1.6,-72.6,-15)" d="m61 37.5a2.5 2.5 0 1 1 -5 0 2.5 2.5 0 1 1 5 0z"/>
     <path id="path3843" style="opacity:.3;color:#000000;fill:url(#radialGradient3833)" transform="matrix(1.6,0,0,1.6,-59.6,-9)" d="m61 37.5a2.5 2.5 0 1 1 -5 0 2.5 2.5 0 1 1 5 0z"/>
     <path id="path3847" style="opacity:.3;color:#000000;fill:url(#radialGradient3833)" transform="translate(-27,2.5)" d="m61 37.5a2.5 2.5 0 1 1 -5 0 2.5 2.5 0 1 1 5 0z"/>
     <path id="path3851" style="opacity:.3;color:#000000;fill:url(#radialGradient3833)" transform="translate(9,4.5)" d="m61 37.5a2.5 2.5 0 1 1 -5 0 2.5 2.5 0 1 1 5 0z"/>
     <path id="path3855" style="opacity:.3;color:#000000;fill:url(#radialGradient3833)" transform="translate(21,6.5)" d="m61 37.5a2.5 2.5 0 1 1 -5 0 2.5 2.5 0 1 1 5 0z"/>
     <path id="path3859" style="opacity:.3;color:#000000;fill:url(#radialGradient3833)" transform="translate(-35,12.5)" d="m61 37.5a2.5 2.5 0 1 1 -5 0 2.5 2.5 0 1 1 5 0z"/>
     <path id="path3863" style="opacity:.5041;color:#000000;fill:#fff" transform="matrix(.4 0 0 .4 39.6 24)" d="m61 37.5a2.5 2.5 0 1 1 -5 0 2.5 2.5 0 1 1 5 0z"/>
    </g>
   </g>
   <g id="layer5">
    <path id="path3747" style="opacity:.7;fill:#fff" d="m56.828 71.749-4.6162-8.1671 4.3029-7.3316h-2.2141c-0.57094 0.933-1.1349 1.8381-1.6919 2.7154-0.54309 0.8773-1.0514 1.7685-1.5248 2.6736-0.43168-0.90512-0.9121-1.7963-1.4413-2.6736-0.51523-0.87727-1.0305-1.7824-1.5457-2.7154h-2.3812l4.1775 7.436-4.7415 8.0627h2.4856c0.585-1.044 1.163-2.054 1.734-3.028 0.585-0.989 1.128-1.985 1.629-2.987 0.5013 1.0026 1.0305 1.9983 1.5875 2.9869 0.57092 0.97476 1.1488 1.9843 1.7337 3.0287h2.5065"/>
    <path id="path3750" style="opacity:.7;fill:#fff" d="m68.943 66.653-1.943-0.627c-0.09748 0.55701-0.23674 1.0792-0.41776 1.5666-0.16711 0.48738-0.38295 0.9121-0.64752 1.2742-0.26459 0.36206-0.58486 0.64752-0.96084 0.8564-0.36206 0.20888-0.79374 0.31332-1.295 0.31332-0.75196 0.000001-1.3647-0.19495-1.8381-0.58486-0.45953-0.40383-0.82159-0.9121-1.0862-1.5248-0.26458-0.6127-0.44561-1.2741-0.54308-1.9843-0.09748-0.7241-0.14622-1.4134-0.14621-2.0679-0.000002-0.65447 0.04874-1.3298 0.14621-2.0261 0.1114-0.69625 0.29939-1.3298 0.56397-1.9008 0.2785-0.58484 0.65448-1.0653 1.1279-1.4413 0.47345-0.37597 1.0792-0.56396 1.8172-0.56397 0.43167 0.000013 0.80069 0.0766 1.107 0.22976 0.32027 0.13926 0.59877 0.34814 0.83551 0.62663 0.23672 0.26459 0.43167 0.58487 0.58486 0.96084 0.16709 0.37599 0.31331 0.80071 0.43864 1.2742l1.963-0.543c-0.167-0.669-0.39-1.274-0.668-1.817-0.279-0.557-0.627-1.031-1.045-1.421-0.404-0.404-0.87-0.71-1.399-0.919-0.529-0.223-1.128-0.334-1.796-0.334-0.72411 0.000015-1.3716 0.11838-1.9426 0.35509-0.55701 0.22282-1.0514 0.53613-1.483 0.93995-0.41776 0.40384-0.77285 0.87034-1.0653 1.3995-0.29243 0.51524-0.52916 1.0653-0.71018 1.6501-0.18103 0.58487-0.31332 1.1836-0.39687 1.7963-0.06963 0.61272-0.10444 1.1976-0.10444 1.7546-0.000001 0.58486 0.03481 1.1976 0.10444 1.8381 0.06963 0.62664 0.18799 1.2393 0.35509 1.8381 0.18103 0.59878 0.41079 1.1697 0.6893 1.7128 0.29243 0.52916 0.64752 0.99565 1.0653 1.3995 0.43168 0.40383 0.93994 0.72411 1.5248 0.96084 0.58485 0.23673 1.2533 0.35509 2.0052 0.35509 0.7798 0 1.4552-0.14621 2.0261-0.43864 0.58485-0.29243 1.0862-0.68233 1.5039-1.1697 0.41774-0.5013 0.75195-1.0722 1.0026-1.7128 0.26457-0.64055 0.47344-1.3159 0.62663-2.0261"/>
    <path id="path3752" style="opacity:.7;fill:#fff" d="m80.391 58.214v-1.9634h-8.4178v15.499h2.0052v-6.9556h5.5352v-1.9634h-5.5352v-4.6162h6.4125"/>
   </g>
   <g id="layer4">
    <path id="rect2960" style="opacity:.3;color:#000000;fill:url(#linearGradient4004)" d="m15 20c-1.662 0-3 1.338-3 3v50c0 1.662 1.338 3 3 3h66c1.662 0 3-1.338 3-3v-50c0-1.662-1.338-3-3-3h-66zm0 0.96875h66c1.1465 0 2.0312 0.88473 2.0312 2.0312v50c0 1.1465-0.88473 2.0312-2.0312 2.0312h-66c-1.1465 0-2.0312-0.88473-2.0312-2.0312v-50c0-1.1465 0.88473-2.0312 2.0312-2.0312z"/>
    <path id="rect3750" style="opacity:.7;color:#000000;fill:#fff" d="m12 73v1c0 1.662 1.338 3 3 3h66c1.662 0 3-1.338 3-3v-1c0 1.662-1.338 3-3 3h-66c-1.662 0-3-1.338-3-3z"/>
   </g>
  </g>
  <rect id="rect3003" style="opacity:.15;fill:#fff" clip-path="url(#clipPath3009)" rx="25" ry="25" transform="translate(98 3.8281e-7)" width="92" y="958.36" x="-96" height="92"/>
 </g>
</svg>
