<?xml version="1.0" encoding="UTF-8" standalone="no"?>
<!-- Created with Inkscape (http://www.inkscape.org/) -->
<svg id="svg11037" xmlns:rdf="http://www.w3.org/1999/02/22-rdf-syntax-ns#" xmlns="http://www.w3.org/2000/svg" height="96" width="96" version="1.1" xmlns:cc="http://creativecommons.org/ns#" xmlns:xlink="http://www.w3.org/1999/xlink" xmlns:dc="http://purl.org/dc/elements/1.1/">
 <defs id="defs11039">
  <linearGradient id="linearGradient11642" x1="48" gradientUnits="userSpaceOnUse" x2="48" gradientTransform="matrix(1.15 0 0 1.15 -7.1999 -150.65)" y1="962.62" y2="1046.1">
   <stop id="stop3702" style="stop-color:#e6e6e6" offset="0"/>
   <stop id="stop3704" style="stop-color:#f5f5f5" offset="1"/>
  </linearGradient>
  <linearGradient id="linearGradient3795-1" x1="42" gradientUnits="userSpaceOnUse" x2="42" y1="72" y2="24">
   <stop id="stop3791" style="stop-color:#949494" offset="0"/>
   <stop id="stop3793" style="stop-color:#b3b3b3" offset="1"/>
  </linearGradient>
  <clipPath id="clipPath3776">
   <path id="path3779" style="fill:#f0f" d="m-88 6c-3.324 0-6 2.676-6 6v72c0 3.324 2.676 6 6 6h72c3.324 0 6-2.676 6-6v-72c0-3.324-2.676-6-6-6h-72zm14.781 18h4.4062c0.94413 0.000013 1.6467 0.34287 2.1562 1.0938 0.40462 0.60557 0.65624 1.3308 0.65625 2.0938v5.6875c-0.000012 0.763-0.25163 1.4499-0.65625 2.0312-0.509 0.738-1.211 1.093-2.155 1.093h-4.4062c-0.92916 0-1.678-0.35497-2.1875-1.0938-0.405-0.581-0.594-1.268-0.594-2.031v-5.6875c0.000001-0.76299 0.18912-1.4882 0.59375-2.0938 0.50953-0.75088 1.2583-1.0937 2.1875-1.0938zm11.25 0h4.0938v11h3.875v1h-10v-1h3.875v-10h-1.8438v-1zm12.75 0h4.4062c0.94413 0.000013 1.6467 0.34287 2.1562 1.0938 0.40462 0.60557 0.65624 1.3308 0.65625 2.0938v5.6875c-0.000012 0.763-0.25163 1.4499-0.65625 2.0312-0.509 0.738-1.211 1.093-2.155 1.093h-4.4062c-0.92916 0-1.678-0.35497-2.1875-1.0938-0.405-0.581-0.594-1.268-0.594-2.031v-5.6875c0.000001-0.76299 0.18912-1.4882 0.59375-2.0938 0.50953-0.75088 1.2583-1.0937 2.1875-1.0938zm12 0h4.4062c0.94413 0.000013 1.6467 0.34287 2.1562 1.0938 0.40462 0.60557 0.65624 1.3308 0.65625 2.0938v5.6875c-0.000012 0.763-0.25163 1.4499-0.65625 2.0312-0.509 0.738-1.211 1.093-2.155 1.093h-4.4062c-0.92916 0-1.678-0.35497-2.1875-1.0938-0.405-0.581-0.594-1.268-0.594-2.031v-5.6875c0.000001-0.76299 0.18912-1.4882 0.59375-2.0938 0.50953-0.75088 1.2583-1.0937 2.1875-1.0938zm-34.875 1c-0.61444 0.000012-1.1078 0.26048-1.4375 0.78125-0.25477 0.41179-0.40625 0.89759-0.40625 1.4062v5.6875c-0.000002 0.36334 0.10013 0.70425 0.25 1.0312l4.5312-8.7812c-0.20982-0.08476-0.43274-0.12499-0.6875-0.125h-2.25zm24 0c-0.61444 0.000012-1.1078 0.26048-1.4375 0.78125-0.25477 0.41179-0.40625 0.89759-0.40625 1.4062v5.6875c-0.000002 0.36334 0.10013 0.70425 0.25 1.0312l4.5312-8.7812c-0.20982-0.08476-0.43274-0.12499-0.6875-0.125h-2.25zm12 0c-0.61444 0.000012-1.1078 0.26048-1.4375 0.78125-0.25477 0.41179-0.40625 0.89759-0.40625 1.4062v5.6875c-0.000002 0.36334 0.10013 0.70425 0.25 1.0312l4.5312-8.7812c-0.20982-0.08476-0.43274-0.12499-0.6875-0.125h-2.25zm-32.156 1.1562-4.5 8.75c0.19482 0.07266 0.43145 0.125 0.65625 0.125h2.25c0.61443 0.000002 1.0603-0.26047 1.375-0.78125 0.25476-0.39966 0.40624-0.87844 0.40625-1.375v-5.6875c-0.000007-0.35121-0.05263-0.69213-0.1875-1.0312zm24 0-4.5 8.75c0.19482 0.07266 0.43145 0.125 0.65625 0.125h2.25c0.61443 0.000002 1.0603-0.26047 1.375-0.78125 0.25476-0.39966 0.40624-0.87844 0.40625-1.375v-5.6875c-0.000007-0.35121-0.05263-0.69213-0.1875-1.0312zm12 0-4.5 8.75c0.19482 0.07266 0.43145 0.125 0.65625 0.125h2.25c0.61443 0.000002 1.0603-0.26047 1.375-0.78125 0.25476-0.39966 0.40624-0.87844 0.40625-1.375v-5.6875c-0.000007-0.35121-0.05263-0.69213-0.1875-1.0312zm-41.719 15.844h4.0938v11h3.875v1h-10v-1h3.875v-10h-1.8438v-1zm12 0h4.0938v11h3.875v1h-10v-1h3.875v-10h-1.8438v-1zm12.75 0h4.4062c0.94413 0.000013 1.6467 0.34287 2.1562 1.0938 0.40462 0.60557 0.65624 1.3308 0.65625 2.0938v5.6875c-0.000012 0.763-0.25163 1.4499-0.65625 2.0312-0.509 0.738-1.211 1.093-2.155 1.093h-4.4062c-0.92916 0-1.678-0.35497-2.1875-1.0938-0.405-0.581-0.594-1.268-0.594-2.031v-5.6875c0.000001-0.76299 0.18912-1.4882 0.59375-2.0938 0.50953-0.75088 1.2583-1.0937 2.1875-1.0938zm11.25 0h4.0938v11h3.875v1h-10v-1h3.875v-10h-1.8438v-1zm-10.125 1c-0.61444 0.000012-1.1078 0.26048-1.4375 0.78125-0.25477 0.41179-0.40625 0.89759-0.40625 1.4062v5.6875c-0.000002 0.36334 0.10013 0.70425 0.25 1.0312l4.5312-8.7812c-0.20982-0.08476-0.43274-0.12499-0.6875-0.125h-2.25zm3.8438 1.1562-4.5 8.75c0.19482 0.07266 0.43145 0.125 0.65625 0.125h2.25c0.61443 0.000002 1.0603-0.26047 1.375-0.78125 0.25476-0.39966 0.40624-0.87844 0.40625-1.375v-5.6875c-0.000007-0.35121-0.05263-0.69213-0.1875-1.0312zm-29.719 15.844h4.0938v11h3.875v1h-10v-1h3.875v-10h-1.8438v-1zm12.75 0h4.4062c0.94413 0.000013 1.6467 0.34287 2.1562 1.0938 0.40462 0.60557 0.65624 1.3308 0.65625 2.0938v5.6875c-0.000012 0.763-0.25163 1.4499-0.65625 2.0312-0.509 0.738-1.211 1.093-2.155 1.093h-4.4062c-0.92916 0-1.678-0.35497-2.1875-1.0938-0.405-0.581-0.594-1.268-0.594-2.031v-5.6875c0.000001-0.76299 0.18912-1.4882 0.59375-2.0938 0.50953-0.75088 1.2583-1.0937 2.1875-1.0938zm12 0h4.4062c0.94413 0.000013 1.6467 0.34287 2.1562 1.0938 0.40462 0.60557 0.65624 1.3308 0.65625 2.0938v5.6875c-0.000012 0.763-0.25163 1.4499-0.65625 2.0312-0.509 0.738-1.211 1.093-2.155 1.093h-4.4062c-0.92916 0-1.678-0.35497-2.1875-1.0938-0.405-0.581-0.594-1.268-0.594-2.031v-5.6875c0.000001-0.76299 0.18912-1.4882 0.59375-2.0938 0.50953-0.75088 1.2583-1.0937 2.1875-1.0938zm11.25 0h4.0938v11h3.875v1h-10v-1h3.875v-10h-1.8438v-1zm-22.125 1c-0.61444 0.000012-1.1078 0.26048-1.4375 0.78125-0.25477 0.41179-0.40625 0.89759-0.40625 1.4062v5.6875c-0.000002 0.36334 0.10013 0.70425 0.25 1.0312l4.5312-8.7812c-0.20982-0.08476-0.43274-0.12499-0.6875-0.125h-2.25zm12 0c-0.61444 0.000012-1.1078 0.26048-1.4375 0.78125-0.25477 0.41179-0.40625 0.89759-0.40625 1.4062v5.6875c-0.000002 0.36334 0.10013 0.70425 0.25 1.0312l4.5312-8.7812c-0.20982-0.08476-0.43274-0.12499-0.6875-0.125h-2.25zm-8.1562 1.1562-4.5 8.75c0.19482 0.07266 0.43145 0.125 0.65625 0.125h2.25c0.61443 0.000002 1.0603-0.26047 1.375-0.78125 0.25476-0.39966 0.40624-0.87844 0.40625-1.375v-5.6875c-0.000007-0.35121-0.05263-0.69213-0.1875-1.0312zm12 0-4.5 8.75c0.19482 0.07266 0.43145 0.125 0.65625 0.125h2.25c0.61443 0.000002 1.0603-0.26047 1.375-0.78125 0.25476-0.39966 0.40624-0.87844 0.40625-1.375v-5.6875c-0.000007-0.35121-0.05263-0.69213-0.1875-1.0312z"/>
  </clipPath>
  <filter id="filter3785" width="1.2943" y="-.141" x="-.14713" height="1.282" color-interpolation-filters="sRGB">
   <feGaussianBlur id="feGaussianBlur3787" stdDeviation="2.82"/>
  </filter>
  <clipPath id="clipPath3009" clipPathUnits="userSpaceOnUse">
   <path id="path3011" style="opacity:.15;fill:#fff" d="m-2 956.36h-96v33.562l96 25.687v-59.25z"/>
  </clipPath>
 </defs>
 <metadata id="metadata11042">
  <rdf:RDF>
   <cc:Work rdf:about="">
    <dc:format>image/svg+xml</dc:format>
    <dc:type rdf:resource="http://purl.org/dc/dcmitype/StillImage"/>
    <dc:title/>
   </cc:Work>
  </rdf:RDF>
 </metadata>
 <g id="layer1" transform="translate(0 -956.36)">
  <rect id="rect3867" style="fill:url(#linearGradient11642)" rx="25" ry="25" height="92" width="92" y="958.36" x="2"/>
  <path id="path3699" style="opacity:.6;filter:url(#filter3785);stroke:#fff;stroke-width:2;fill:none" clip-path="url(#clipPath3776)" transform="translate(100 956.36)" d="m-73.219 24c-0.92916 0.000012-1.678 0.34287-2.1875 1.0938-0.40463 0.60557-0.59375 1.3308-0.59375 2.0938v5.6875c0 0.763 0.18912 1.4499 0.59375 2.0312 0.50953 0.73878 1.2583 1.0938 2.1875 1.0938h4.4062c0.94413 0 1.6467-0.35497 2.1562-1.0938 0.40462-0.58133 0.65624-1.2682 0.65625-2.0312v-5.6875c-0.000012-0.76299-0.25163-1.4882-0.65625-2.0938-0.509-0.751-1.211-1.094-2.155-1.094h-4.4062zm11.25 0v1h1.8438v10h-3.875v1h10v-1h-3.875v-11h-4.0938zm12.75 0c-0.92916 0.000012-1.678 0.34287-2.1875 1.0938-0.40463 0.60557-0.59375 1.3308-0.59375 2.0938v5.6875c0 0.763 0.18912 1.4499 0.59375 2.0312 0.50953 0.73878 1.2583 1.0938 2.1875 1.0938h4.4062c0.94413 0 1.6467-0.35497 2.1562-1.0938 0.40462-0.58133 0.65624-1.2682 0.65625-2.0312v-5.6875c-0.000012-0.76299-0.25163-1.4882-0.65625-2.0938-0.509-0.751-1.211-1.094-2.155-1.094h-4.4062zm12 0c-0.92916 0.000012-1.678 0.34287-2.1875 1.0938-0.40463 0.60557-0.59375 1.3308-0.59375 2.0938v5.6875c0 0.763 0.18912 1.4499 0.59375 2.0312 0.50953 0.73878 1.2583 1.0938 2.1875 1.0938h4.4062c0.94413 0 1.6467-0.35497 2.1562-1.0938 0.40462-0.58133 0.65624-1.2682 0.65625-2.0312v-5.6875c-0.000012-0.76299-0.25163-1.4882-0.65625-2.0938-0.509-0.751-1.211-1.094-2.155-1.094h-4.4062zm-34.875 1h2.25c0.25476 0.000011 0.47768 0.04024 0.6875 0.125l-4.5312 8.7812c-0.14987-0.327-0.25-0.66792-0.25-1.0312v-5.6875c-0.000002-0.50866 0.15148-0.99446 0.40625-1.4062 0.3297-0.52077 0.82306-0.78124 1.4375-0.78125zm24 0h2.25c0.25476 0.000011 0.47768 0.04024 0.6875 0.125l-4.5312 8.7812c-0.14987-0.327-0.25-0.66792-0.25-1.0312v-5.6875c-0.000002-0.50866 0.15148-0.99446 0.40625-1.4062 0.3297-0.52077 0.82306-0.78124 1.4375-0.78125zm12 0h2.25c0.25476 0.000011 0.47768 0.04024 0.6875 0.125l-4.5312 8.7812c-0.14987-0.327-0.25-0.66792-0.25-1.0312v-5.6875c-0.000002-0.50866 0.15148-0.99446 0.40625-1.4062 0.3297-0.52077 0.82306-0.78124 1.4375-0.78125zm-32.156 1.156c0.13487 0.33912 0.18749 0.68004 0.1875 1.0312v5.6875c-0.000007 0.49656-0.15149 0.97534-0.40625 1.375-0.31472 0.52078-0.76057 0.78125-1.375 0.78125h-2.25c-0.2248 0.000001-0.46143-0.05234-0.65625-0.125l4.5-8.75zm24 0c0.13487 0.33912 0.18749 0.68004 0.1875 1.0312v5.6875c-0.000007 0.49656-0.15149 0.97534-0.40625 1.375-0.31472 0.52078-0.76057 0.78125-1.375 0.78125h-2.25c-0.2248 0.000001-0.46143-0.05234-0.65625-0.125l4.5-8.75zm12 0c0.13487 0.33912 0.18749 0.68004 0.1875 1.0312v5.6875c-0.000007 0.49656-0.15149 0.97534-0.40625 1.375-0.31472 0.52078-0.76057 0.78125-1.375 0.78125h-2.25c-0.2248 0.000001-0.46143-0.05234-0.65625-0.125l4.5-8.75zm-41.719 15.844v1h1.8438v10h-3.875v1h10v-1h-3.875v-11h-4.0938zm12 0v1h1.8438v10h-3.875v1h10v-1h-3.875v-11h-4.0938zm12.75 0c-0.92916 0.000012-1.678 0.34287-2.1875 1.0938-0.40463 0.60557-0.59375 1.3308-0.59375 2.0938v5.6875c0 0.763 0.18912 1.4499 0.59375 2.0312 0.50953 0.73878 1.2583 1.0938 2.1875 1.0938h4.4062c0.94413 0 1.6467-0.35497 2.1562-1.0938 0.40462-0.58133 0.65624-1.2682 0.65625-2.0312v-5.6875c-0.000012-0.76299-0.25163-1.4882-0.65625-2.0938-0.509-0.751-1.211-1.094-2.155-1.094h-4.4062zm11.25 0v1h1.8438v10h-3.875v1h10v-1h-3.875v-11h-4.0938zm-10.125 1h2.25c0.25476 0.000011 0.47768 0.04024 0.6875 0.125l-4.5312 8.7812c-0.14987-0.327-0.25-0.66792-0.25-1.0312v-5.6875c-0.000002-0.50866 0.15148-0.99446 0.40625-1.4062 0.3297-0.52077 0.82306-0.78124 1.4375-0.78125zm3.8438 1.1562c0.13487 0.33912 0.18749 0.68004 0.1875 1.0312v5.6875c-0.000007 0.49656-0.15149 0.97534-0.40625 1.375-0.31472 0.52078-0.76057 0.78125-1.375 0.78125h-2.25c-0.2248 0.000001-0.46143-0.05234-0.65625-0.125l4.5-8.75zm-29.719 15.844v1h1.8438v10h-3.875v1h10v-1h-3.875v-11h-4.0938zm12.75 0c-0.92916 0.000012-1.678 0.34287-2.1875 1.0938-0.40463 0.60557-0.59375 1.3308-0.59375 2.0938v5.6875c0 0.763 0.18912 1.4499 0.59375 2.0312 0.50953 0.73878 1.2583 1.0938 2.1875 1.0938h4.4062c0.94413 0 1.6467-0.35497 2.1562-1.0938 0.40462-0.58133 0.65624-1.2682 0.65625-2.0312v-5.6875c-0.000012-0.76299-0.25163-1.4882-0.65625-2.0938-0.509-0.751-1.211-1.094-2.155-1.094h-4.4062zm12 0c-0.92916 0.000012-1.678 0.34287-2.1875 1.0938-0.40463 0.60557-0.59375 1.3308-0.59375 2.0938v5.6875c0 0.763 0.18912 1.4499 0.59375 2.0312 0.50953 0.73878 1.2583 1.0938 2.1875 1.0938h4.4062c0.94413 0 1.6467-0.35497 2.1562-1.0938 0.40462-0.58133 0.65624-1.2682 0.65625-2.0312v-5.6875c-0.000012-0.76299-0.25163-1.4882-0.65625-2.0938-0.509-0.751-1.211-1.094-2.155-1.094h-4.4062zm11.25 0v1h1.8438v10h-3.875v1h10v-1h-3.875v-11h-4.0938zm-22.125 1h2.25c0.25476 0.000011 0.47768 0.04024 0.6875 0.125l-4.5312 8.7812c-0.14987-0.327-0.25-0.66792-0.25-1.0312v-5.6875c-0.000002-0.50866 0.15148-0.99446 0.40625-1.4062 0.3297-0.52077 0.82306-0.78124 1.4375-0.78125zm12 0h2.25c0.25476 0.000011 0.47768 0.04024 0.6875 0.125l-4.5312 8.7812c-0.14987-0.327-0.25-0.66792-0.25-1.0312v-5.6875c-0.000002-0.50866 0.15148-0.99446 0.40625-1.4062 0.3297-0.52077 0.82306-0.78124 1.4375-0.78125zm-8.156 1.156c0.13487 0.33912 0.18749 0.68004 0.1875 1.0312v5.6875c-0.000007 0.49656-0.15149 0.97534-0.40625 1.375-0.31472 0.52078-0.76057 0.78125-1.375 0.78125h-2.25c-0.2248 0.000001-0.46143-0.05234-0.65625-0.125l4.5-8.75zm12 0c0.13487 0.33912 0.18749 0.68004 0.1875 1.0312v5.6875c-0.000007 0.49656-0.15149 0.97534-0.40625 1.375-0.31472 0.52078-0.76057 0.78125-1.375 0.78125h-2.25c-0.2248 0.000001-0.46143-0.05234-0.65625-0.125l4.5-8.75z"/>
  <g id="g2467" style="fill:url(#linearGradient3795-1)" transform="translate(6 956.36)">
   <path id="path2439" style="fill:url(#linearGradient3795-1)" d="m20.782 24c-0.92916 0.000012-1.6679 0.35148-2.1774 1.1024-0.405 0.606-0.605 1.316-0.605 2.079v5.7008c0 0.763 0.20021 1.4344 0.60484 2.0157 0.509 0.738 1.248 1.102 2.177 1.102h4.3952c0.94413 0 1.6679-0.36358 2.1774-1.1024 0.405-0.582 0.646-1.253 0.646-2.016v-5.7008c-0.000012-0.76299-0.24054-1.4732-0.64516-2.0787-0.51-0.751-1.233-1.102-2.178-1.102h-4.3952zm1.1097 1.0079h2.2793c0.25476 0.000011 0.47567 0.04122 0.68548 0.12598l-4.5373 8.7874c-0.14987-0.327-0.24194-0.67604-0.24194-1.0394v-5.7008c-0.000002-0.50866 0.14846-0.97404 0.40323-1.3858 0.3297-0.52077 0.79685-0.78739 1.4113-0.7874zm3.8518 1.1339c0.13487 0.33912 0.20161 0.68816 0.20161 1.0394v5.7008c-0.000007 0.49656-0.14846 0.95467-0.40322 1.3543-0.31472 0.52078-0.75654 0.7874-1.371 0.7874h-2.2793c-0.2248 0.000001-0.45034-0.05332-0.64516-0.12598l4.497-8.7559z"/>
   <path id="flowRoot2412" style="fill:url(#linearGradient3795-1)" d="m40 36h-10v-0.99698h3.8605v-9.9879h-1.8255v-1.0151h4.0762v11.003h3.8888l0.001 0.997"/>
   <path id="path2447" style="fill:url(#linearGradient3795-1)" d="m44.782 24c-0.92916 0.000012-1.6679 0.35148-2.1774 1.1024-0.405 0.606-0.605 1.316-0.605 2.079v5.7008c0 0.763 0.20021 1.4344 0.60484 2.0157 0.509 0.738 1.248 1.102 2.177 1.102h4.3952c0.94413 0 1.6679-0.36358 2.1774-1.1024 0.405-0.582 0.646-1.253 0.646-2.016v-5.7008c-0.000012-0.76299-0.24054-1.4732-0.64516-2.0787-0.51-0.751-1.233-1.102-2.178-1.102h-4.3952zm1.1097 1.0079h2.2793c0.25476 0.000011 0.47567 0.04122 0.68548 0.12598l-4.5373 8.7874c-0.14987-0.327-0.24194-0.67604-0.24194-1.0394v-5.7008c-0.000002-0.50866 0.14846-0.97404 0.40323-1.3858 0.3297-0.52077 0.79685-0.78739 1.4113-0.7874zm3.8518 1.1339c0.13487 0.33912 0.20161 0.68816 0.20161 1.0394v5.7008c-0.000007 0.49656-0.14846 0.95467-0.40322 1.3543-0.31472 0.52078-0.75654 0.7874-1.371 0.7874h-2.2793c-0.2248 0.000001-0.45034-0.05332-0.64516-0.12598l4.497-8.7559z"/>
   <path id="path2449" style="fill:url(#linearGradient3795-1)" d="m56.782 24c-0.92916 0.000012-1.6679 0.35148-2.1774 1.1024-0.405 0.606-0.605 1.316-0.605 2.079v5.7008c0 0.763 0.20021 1.4344 0.60484 2.0157 0.509 0.738 1.248 1.102 2.177 1.102h4.3952c0.94413 0 1.6679-0.36358 2.1774-1.1024 0.405-0.582 0.646-1.253 0.646-2.016v-5.7008c-0.000012-0.76299-0.24054-1.4732-0.64516-2.0787-0.51-0.751-1.233-1.102-2.178-1.102h-4.3952zm1.1097 1.0079h2.2793c0.25476 0.000011 0.47567 0.04122 0.68548 0.12598l-4.5373 8.7874c-0.14987-0.327-0.24194-0.67604-0.24194-1.0394v-5.7008c-0.000002-0.50866 0.14846-0.97404 0.40323-1.3858 0.3297-0.52077 0.79685-0.78739 1.4113-0.7874zm3.8518 1.1339c0.13487 0.33912 0.20161 0.68816 0.20161 1.0394v5.7008c-0.000007 0.49656-0.14846 0.95467-0.40322 1.3543-0.31472 0.52078-0.75654 0.7874-1.371 0.7874h-2.2793c-0.2248 0.000001-0.45034-0.05332-0.64516-0.12598l4.497-8.7559z"/>
   <path id="path2451" style="fill:url(#linearGradient3795-1)" d="m28 54h-10v-0.99698h3.8605v-9.9879h-1.8255v-1.0151h4.0762v11.003h3.8888l0.001 0.997"/>
   <path id="path2453" style="fill:url(#linearGradient3795-1)" d="m40 54h-10v-0.99698h3.8605v-9.9879h-1.8255v-1.0151h4.0762v11.003h3.8888l0.001 0.997"/>
   <path id="path2455" style="fill:url(#linearGradient3795-1)" d="m44.782 42c-0.92916 0.000012-1.6679 0.35148-2.1774 1.1024-0.405 0.606-0.605 1.316-0.605 2.079v5.7008c0 0.763 0.20021 1.4344 0.60484 2.0157 0.509 0.738 1.248 1.102 2.177 1.102h4.3952c0.94413 0 1.6679-0.36358 2.1774-1.1024 0.405-0.582 0.646-1.253 0.646-2.016v-5.7008c-0.000012-0.76299-0.24054-1.4732-0.64516-2.0787-0.51-0.751-1.233-1.102-2.178-1.102h-4.3952zm1.1097 1.0079h2.2793c0.25476 0.000011 0.47567 0.04122 0.68548 0.12598l-4.5373 8.7874c-0.14987-0.327-0.24194-0.67604-0.24194-1.0394v-5.7008c-0.000002-0.50866 0.14846-0.97404 0.40323-1.3858 0.3297-0.52077 0.79685-0.78739 1.4113-0.7874zm3.8518 1.1339c0.13487 0.33912 0.20161 0.68816 0.20161 1.0394v5.7008c-0.000007 0.49656-0.14846 0.95467-0.40322 1.3543-0.31472 0.52078-0.75654 0.7874-1.371 0.7874h-2.2793c-0.2248 0.000001-0.45034-0.05332-0.64516-0.12598l4.497-8.7559z"/>
   <path id="path2457" style="fill:url(#linearGradient3795-1)" d="m64 54h-10v-0.99698h3.8605v-9.9879h-1.8255v-1.0151h4.0762v11.003h3.8888l0.001 0.997"/>
   <path id="path2459" style="fill:url(#linearGradient3795-1)" d="m28 72h-10v-0.99698h3.8605v-9.9879h-1.8255v-1.0151h4.0762v11.003h3.8888l0.001 0.997"/>
   <path id="path2461" style="fill:url(#linearGradient3795-1)" d="m32.782 60c-0.92916 0.000012-1.6679 0.35148-2.1774 1.1024-0.405 0.606-0.605 1.316-0.605 2.079v5.7008c0 0.763 0.20021 1.4344 0.60484 2.0157 0.509 0.738 1.248 1.102 2.177 1.102h4.3952c0.94413 0 1.6679-0.36358 2.1774-1.1024 0.405-0.582 0.646-1.253 0.646-2.016v-5.7008c-0.000012-0.76299-0.24054-1.4732-0.64516-2.0787-0.51-0.751-1.233-1.102-2.178-1.102h-4.3952zm1.1097 1.0079h2.2793c0.25476 0.000011 0.47567 0.04122 0.68548 0.12598l-4.5373 8.7874c-0.14987-0.327-0.24194-0.67604-0.24194-1.0394v-5.7008c-0.000002-0.50866 0.14846-0.97404 0.40323-1.3858 0.3297-0.52077 0.79685-0.78739 1.4113-0.7874zm3.8518 1.1339c0.13487 0.33912 0.20161 0.68816 0.20161 1.0394v5.7008c-0.000007 0.49656-0.14846 0.95467-0.40322 1.3543-0.31472 0.52078-0.75654 0.7874-1.371 0.7874h-2.2793c-0.2248 0.000001-0.45034-0.05332-0.64516-0.12598l4.497-8.7559z"/>
   <path id="path2463" style="fill:url(#linearGradient3795-1)" d="m44.782 60c-0.92916 0.000012-1.6679 0.35148-2.1774 1.1024-0.405 0.606-0.605 1.316-0.605 2.079v5.7008c0 0.763 0.20021 1.4344 0.60484 2.0157 0.509 0.738 1.248 1.102 2.177 1.102h4.3952c0.94413 0 1.6679-0.36358 2.1774-1.1024 0.405-0.582 0.646-1.253 0.646-2.016v-5.7008c-0.000012-0.76299-0.24054-1.4732-0.64516-2.0787-0.51-0.751-1.233-1.102-2.178-1.102h-4.3952zm1.1097 1.0079h2.2793c0.25476 0.000011 0.47567 0.04122 0.68548 0.12598l-4.5373 8.7874c-0.14987-0.327-0.24194-0.67604-0.24194-1.0394v-5.7008c-0.000002-0.50866 0.14846-0.97404 0.40323-1.3858 0.3297-0.52077 0.79685-0.78739 1.4113-0.7874zm3.8518 1.1339c0.13487 0.33912 0.20161 0.68816 0.20161 1.0394v5.7008c-0.000007 0.49656-0.14846 0.95467-0.40322 1.3543-0.31472 0.52078-0.75654 0.7874-1.371 0.7874h-2.2793c-0.2248 0.000001-0.45034-0.05332-0.64516-0.12598l4.497-8.7559z"/>
   <path id="path2465" style="fill:url(#linearGradient3795-1)" d="m64 72h-10v-0.99698h3.8605v-9.9879h-1.8255v-1.0151h4.0762v11.003h3.8888l0.001 0.997"/>
  </g>
  <rect id="rect3003" style="opacity:.15;fill:#fff" clip-path="url(#clipPath3009)" rx="25" ry="25" transform="translate(98 3.8281e-7)" width="92" y="958.36" x="-96" height="92"/>
 </g>
</svg>
