<?xml version="1.0" encoding="UTF-8" standalone="no"?>
<!-- Created with Inkscape (http://www.inkscape.org/) -->
<svg id="svg11037" xmlns:rdf="http://www.w3.org/1999/02/22-rdf-syntax-ns#" xmlns="http://www.w3.org/2000/svg" height="96" width="96" version="1.1" xmlns:cc="http://creativecommons.org/ns#" xmlns:xlink="http://www.w3.org/1999/xlink" xmlns:dc="http://purl.org/dc/elements/1.1/">
 <defs id="defs11039">
  <linearGradient id="linearGradient11642" x1="48" gradientUnits="userSpaceOnUse" x2="48" gradientTransform="matrix(1.15 0 0 1.15 -7.1999 -150.65)" y1="962.62" y2="1046.1">
   <stop id="stop3702" style="stop-color:#e6e6e6" offset="0"/>
   <stop id="stop3704" style="stop-color:#f5f5f5" offset="1"/>
  </linearGradient>
  <linearGradient id="linearGradient3891" x1="-253.92" gradientUnits="userSpaceOnUse" y1="-47.862" gradientTransform="matrix(0 .68402 -.68402 0 15.261 165.68)" x2="-132.57" y2="-47.862">
   <stop id="stop32" style="stop-color:#e1a075" offset="0"/>
   <stop id="stop34" style="stop-color:#81422a" offset=".7634"/>
  </linearGradient>
  <clipPath id="clipPath3009" clipPathUnits="userSpaceOnUse">
   <path id="path3011" style="opacity:.15;fill:#fff" d="m-2 956.36h-96v33.562l96 25.687v-59.25z"/>
  </clipPath>
 </defs>
 <metadata id="metadata11042">
  <rdf:RDF>
   <cc:Work rdf:about="">
    <dc:format>image/svg+xml</dc:format>
    <dc:type rdf:resource="http://purl.org/dc/dcmitype/StillImage"/>
    <dc:title/>
   </cc:Work>
  </rdf:RDF>
 </metadata>
 <g id="layer1" transform="translate(0 -956.36)">
  <rect id="rect3867" style="fill:url(#linearGradient11642)" rx="25" ry="25" height="92" width="92" y="958.36" x="2"/>
  <g id="g3064" transform="translate(-1.997e-7 956.36)">
   <path id="path3884" style="fill:url(#linearGradient3891)" d="m77.999 63.059c0.08467-6.1616-3.5233-13.483-12.27-18.511-10.117-5.8709-17.763-0.81227-17.763-0.81227s8.51-1.8585 11.821 4.1041c3.31 5.964 0.6045 9.4677-0.70539 11.735-4.3859 7.5974-0.1893 12.039 3.356 14.087 3.5453 2.0473 10.05 2.4796 13.851-4.1041 1.0691-1.852 1.6769-4.0871 1.71-6.4982zm-12.505-36.851c0-4.0938-2.8925-9.9396-10.495-9.9396-7.6035 0-16.4 7.596-16.374 21.632-0.02599 11.697 8.1868 15.797 8.1868 15.797s-5.8603-6.4212-2.3513-12.27c3.509-5.8484 7.8977-5.2798 10.517-5.2798 8.7725 0 10.517-5.8458 10.517-9.9396zm-9.3625 23.663s-2.6504 8.2997-9.4694 8.1868c-6.8203-0.11491-8.5022-4.21-9.8114-6.4768-4.3859-7.5981-10.327-6.1934-13.873-4.1469-3.5453 2.0466-7.1577 7.4801-3.356 14.065 3.7997 6.5837 14.791 10.397 26.933 3.356 10.143-5.8244 9.5763-14.984 9.5763-14.984z"/>
   <path id="path3915" style="opacity:.1" d="m55 16.281c-7.6035 0-16.401 7.5889-16.375 21.625-0.02599 11.697 8.1875 15.781 8.1875 15.781s-5.8528-6.4016-2.3438-12.25 7.8809-5.2812 10.5-5.2812c8.7725 0 10.531-5.8436 10.531-9.9375 0-4.0938-2.8971-9.9375-10.5-9.9375zm0 2c3.2926 0 5.2687 1.1579 6.5938 2.7188 1.325 1.5608 1.9062 3.6403 1.9062 5.2188 0 1.7625-0.37883 3.8015-1.5312 5.2812-1.1524 1.4798-3.0547 2.6562-7 2.6562-1.1662 0-3.243-0.16284-5.5312 0.5625-2.2883 0.72534-4.6999 2.427-6.6562 5.6875-0.70658 1.1776-1.0438 2.3829-1.2188 3.5625-0.56265-1.688-0.94283-3.6629-0.9375-6.0625-0.02445-13.205 8.093-19.625 14.375-19.625zm0.65625 23.438c-4.7101 0.0487-7.6875 2.0312-7.6875 2.0312s8.5019-1.8688 11.812 4.0938c3.31 5.964 0.6224 9.4512-0.6875 11.719-4.3859 7.5974-0.20152 12.046 3.3438 14.094 3.5453 2.0473 10.042 2.4899 13.844-4.0938 1.0691-1.852 1.6856-4.0889 1.7188-6.5 0.08467-6.1616-3.535-13.472-12.281-18.5-3.7937-2.2016-7.2365-2.873-10.062-2.8438zm3.5 2.4062c1.7072 0.36463 3.5367 0.98066 5.5625 2.1562 8.2304 4.7314 11.355 11.388 11.281 16.75-0.02871 2.0894-0.54931 3.9925-1.4375 5.5312-1.6462 2.8509-3.6466 3.983-5.6562 4.3438-2.0097 0.36073-4.0974-0.17685-5.4688-0.96875-1.5261-0.88128-3.1063-2.2606-3.8125-4-0.70616-1.7394-0.7848-3.9585 1.1875-7.375 0.58124-1.0062 1.7615-2.6897 2.2812-5.0312 0.51971-2.3415 0.28287-5.3312-1.5625-8.6562-0.64301-1.1581-1.4794-2.0211-2.375-2.75zm-30.468 1.687c-2.138-0.05-4.168 0.73-5.719 1.626-3.546 2.046-7.146 7.477-3.344 14.062 3.8 6.584 14.795 10.384 26.937 3.344 10.143-5.825 9.563-14.969 9.563-14.969s-2.6498 8.3004-9.4688 8.1875c-6.8203-0.11491-8.5033-4.2019-9.8125-6.4688-2.4671-4.2739-5.4081-5.7163-8.1562-5.7812zm-0.0625 1.9688c0.23344 0.0041 0.45654 0.03054 0.6875 0.0625 1.843 0.25506 3.8378 1.3291 5.8125 4.75 0.5804 1.0049 1.4498 2.8757 3.2188 4.5 1.7689 1.6243 4.4773 2.9047 8.2812 2.9688 1.3484 0.02232 2.5305-0.29376 3.625-0.71875-1.1708 1.3023-2.6494 2.6109-4.6875 3.7812-11.424 6.6241-21.083 2.8086-24.219-2.625-1.6469-2.8527-1.6242-5.1348-0.9375-7.0625 0.68669-1.9277 2.1965-3.4927 3.5625-4.2812 1.3433-0.77544 3.0221-1.4037 4.6562-1.375z"/>
   <path id="path3893" style="opacity:.3" d="m55 16.281c-7.6035 0-16.401 7.5889-16.375 21.625-0.000266 0.11978-0.0014 0.22556 0 0.34375 0.243-13.619 8.89-20.969 16.375-20.969 7.2554 0 10.213 5.2993 10.469 9.3438 0.003-0.134 0.031-0.276 0.031-0.406 0-4.094-2.897-9.938-10.5-9.938zm0.65625 25.438c-4.7101 0.0487-7.6875 2.0312-7.6875 2.0312s1.1914-0.26568 2.8438-0.28125c0.01154-0.000109 0.01967 0.000085 0.03125 0 3.1187-0.97895 8.5033-1.6039 14.875 2.0938 8.48 4.875 12.144 11.897 12.281 17.937 0.0061-0.144-0.002-0.29218 0-0.4375 0.08467-6.1616-3.535-13.472-12.281-18.5-3.7937-2.2016-7.2365-2.873-10.062-2.8438zm-26.968 4.093c-2.1374-0.0505-4.1677 0.72962-5.7188 1.625-2.5894 1.4948-5.1913 4.7939-4.9375 9.0312 0.17083-3.7584 2.554-6.6553 4.9375-8.0312 3.5453-2.0466 9.4891-3.4418 13.875 4.1562 1.3092 2.2668 2.9922 6.3538 9.8125 6.4688 6.5888 0.10905 9.2629-7.5707 9.4375-8.0938 0.046-0.64 0.031-1.093 0.031-1.093s-2.6498 8.3004-9.4688 8.1875c-6.8203-0.11491-8.5033-4.2019-9.8125-6.4688-2.4671-4.2739-5.4081-5.7163-8.1562-5.7812zm14.688 0.25c-0.1305 2.6858 1.038 5.1414 2.0625 6.75 0.8148 0.60964 1.375 0.875 1.375 0.875s-3.1547-3.4624-3.4375-7.625zm17.969 7.8125c-0.1901 2.5147-1.4641 4.3271-2.25 5.6875-1.4753 2.5556-1.9904 4.7546-1.875 6.625 0.08934-1.6432 0.65317-3.5085 1.875-5.625 0.88798-1.5372 2.3881-3.6328 2.25-6.6875z"/>
   <path id="path3911" style="opacity:.15" d="m55 16.281c-7.6035 0-16.401 7.5889-16.375 21.625-0.02599 11.697 8.1875 15.781 8.1875 15.781s-5.8528-6.4016-2.3438-12.25 7.8809-5.2812 10.5-5.2812c8.7725 0 10.531-5.8436 10.531-9.9375 0-4.0938-2.8971-9.9375-10.5-9.9375zm0 1c3.549 0 5.8425 1.2941 7.3438 3.0625 1.5012 1.7684 2.1562 4.0605 2.1562 5.875 0 1.9059-0.40413 4.1781-1.75 5.9062-1.3459 1.7282-3.6137 3.0312-7.7812 3.0312-1.2385 0-3.1468-0.15676-5.2188 0.5-2.0719 0.65676-4.2704 2.1903-6.125 5.2812-1.7329 2.8882-1.2918 5.8289-0.4375 8.2188-1.8291-2.3499-3.5744-5.9134-3.5625-11.25-0.02523-13.624 8.4269-20.625 15.375-20.625zm0.65625 24.438c-4.7101 0.0487-7.6875 2.0312-7.6875 2.0312s8.5019-1.8688 11.812 4.0938c3.31 5.964 0.6224 9.4512-0.6875 11.719-4.3859 7.5974-0.20152 12.046 3.3438 14.094 3.5453 2.0473 10.042 2.4899 13.844-4.0938 1.0691-1.852 1.6856-4.0889 1.7188-6.5 0.08467-6.1616-3.535-13.472-12.281-18.5-3.7937-2.2016-7.2365-2.873-10.062-2.8438zm0 1c2.6618-0.02752 5.9173 0.57212 9.5625 2.6875 8.491 4.881 11.861 11.891 11.782 17.656-0.03094 2.2515-0.58315 4.3034-1.5625 6-1.7746 3.0731-4.0655 4.4036-6.3438 4.8125-2.2783 0.40894-4.5827-0.1538-6.1562-1.0625-1.6504-0.95303-3.3942-2.4691-4.2188-4.5-0.82453-2.0309-0.86477-4.6409 1.2188-8.25 0.61839-1.0705 1.7171-2.6306 2.1875-4.75 0.47041-2.1194 0.28066-4.7854-1.4688-7.9375-1.6267-2.9298-4.3819-4.0082-6.875-4.4688 0.61112-0.08164 1.1739-0.18025 1.875-0.1875zm-26.968 3.093c-2.138-0.05-4.168 0.73-5.719 1.626-3.546 2.046-7.146 7.477-3.344 14.062 3.8 6.584 14.795 10.384 26.937 3.344 10.143-5.825 9.563-14.969 9.563-14.969s-2.6498 8.3004-9.4688 8.1875c-6.8203-0.11491-8.5033-4.2019-9.8125-6.4688-2.4671-4.2739-5.4081-5.7163-8.1562-5.7812zm-0.03125 0.96875c0.27003 0.0054 0.54191 0.02505 0.8125 0.0625 2.1624 0.29927 4.4465 1.6385 6.5312 5.25 0.6178 1.0697 1.4297 2.8106 3.0312 4.2812 1.6016 1.4707 3.9883 2.6268 7.5938 2.6875 3.377 0.05589 5.7262-1.8346 7.375-3.7812-1.1179 2.7559-3.3096 6.0612-7.9375 8.7188-11.786 6.834-22.123 3.0133-25.594-3-1.7749-3.0744-1.7781-5.722-1-7.9062 0.77807-2.1842 2.4291-3.9056 4-4.8125 1.448-0.83589 3.2973-1.538 5.1875-1.5z"/>
   <path id="path3902" style="opacity:.8;fill:#fff" d="m65.469 26.625c-0.11293 4.064-2.0073 9.5312-10.5 9.5312-2.6191 0-6.991-0.56711-10.5 5.2812-0.92902 1.5484-1.1956 3.1261-1.0938 4.625 0.05823-1.1984 0.36694-2.4136 1.0938-3.625 3.509-5.8484 7.8809-5.2812 10.5-5.2812 8.7725 0 10.531-5.8436 10.531-9.9375 0-0.18708-0.019-0.40008-0.03125-0.59375zm-26.844 11.625c-0.0039 0.21604-0.000406 0.43706 0 0.65625-0.02599 11.697 8.1875 15.781 8.1875 15.781s-0.64966-0.73614-1.375-1.875c-2.302-1.722-6.71-6.125-6.813-14.562zm12.188 5.2188c-1.815 0.573-2.844 1.281-2.844 1.281s8.5019-1.8688 11.812 4.0938c1.0344 1.8637 1.4769 3.4857 1.5625 4.9062 0.09967-1.6504-0.27127-3.5797-1.5625-5.9062-2.0692-3.7266-6.1533-4.3954-8.9375-4.375-0.01158 0.000085-0.01971-0.000109-0.03125 0zm5.312 7.406s-0.02515 0.07547-0.03125 0.09375c-0.18292 2.5414-1.4308 9.2233-9.5312 13.875-12.143 7.04-23.138 3.24-26.938-3.344-1.025-1.776-1.5-3.467-1.594-5.031-0.083 1.832 0.348 3.873 1.594 6.031 3.8 6.584 14.795 10.384 26.937 3.344 10.143-5.825 9.563-14.969 9.563-14.969zm21.875 12.625c-0.09585 2.2451-0.71413 4.3221-1.7188 6.0625-3.8018 6.5837-10.298 6.141-13.844 4.0938-2.3527-1.3586-4.991-3.7786-5.2188-7.4688-0.23135 4.2552 2.6611 6.9918 5.2188 8.4688 3.5453 2.0473 10.042 2.4899 13.844-4.0938 1.0691-1.852 1.6856-4.0889 1.7188-6.5 0.0026-0.18721 0.0043-0.37324 0-0.5625z"/>
  </g>
  <rect id="rect3003" style="opacity:.15;fill:#fff" clip-path="url(#clipPath3009)" rx="25" ry="25" transform="translate(98 3.8281e-7)" width="92" y="958.36" x="-96" height="92"/>
 </g>
</svg>
