<?xml version="1.0" encoding="UTF-8" standalone="no"?>
<!-- Created with Inkscape (http://www.inkscape.org/) -->
<svg id="svg11037" xmlns:rdf="http://www.w3.org/1999/02/22-rdf-syntax-ns#" xmlns="http://www.w3.org/2000/svg" height="96" width="96" version="1.1" xmlns:cc="http://creativecommons.org/ns#" xmlns:xlink="http://www.w3.org/1999/xlink" xmlns:dc="http://purl.org/dc/elements/1.1/">
 <defs id="defs11039">
  <linearGradient id="linearGradient11642" x1="48" gradientUnits="userSpaceOnUse" x2="48" gradientTransform="matrix(1.15 0 0 1.15 -7.1999 -150.65)" y1="962.62" y2="1046.1">
   <stop id="stop3702-2" style="stop-color:#e6e6e6" offset="0"/>
   <stop id="stop3704-9" style="stop-color:#f5f5f5" offset="1"/>
  </linearGradient>
  <linearGradient id="linearGradient3150" x1="40" gradientUnits="userSpaceOnUse" y1="24" gradientTransform="translate(70)" x2="40" y2="64">
   <stop id="stop3962" style="stop-color:#d174f0" offset="0"/>
   <stop id="stop3964" style="stop-color:#8a1cc2" offset="1"/>
  </linearGradient>
  <clipPath id="clipPath3144">
   <path id="path3146" style="color:#000000;fill:url(#linearGradient3148)" d="m118.5 17c-3.5898 0-6.5 2.0147-6.5 4.5 0.10443 0.9272 0.69059 2.098 1 2.5 1.5 2 1.5 3.25 1.125 4h-12.12c-2.216 0-4 1.784-4 4v10.125c0.75 0.375 2 0.375 4-1.125 0.40197-0.30941 1.5728-0.89557 2.5-1 2.4853 0 4.5 2.9101 4.5 6.5s-2.0147 6.5-4.5 6.5c-0.76276-0.01292-1.9224-0.6951-2.5-1-2-1.5-3.25-1.5-4-1.125v13.125c0 2.216 1.784 4 4 4h16.125c0.38-0.75 0.38-2-1.12-4-0.30941-0.40197-0.89557-1.5728-1-2.5 0-2.4853 2.9102-4.5 6.5-4.5s6.5 2.0147 6.5 4.5c-0.0129 0.76276-0.6951 1.9224-1 2.5-1.5 2-1.5 3.25-1.125 4h7.12c2.216 0 4-1.784 4-4v-11.125c0.75-0.375 2-0.375 4 1.125 0.57763 0.3049 1.7372 0.98708 2.5 1 2.4853 0 4.5-2.9101 4.5-6.5s-2.0147-6.5-4.5-6.5c-0.9272 0.10443-2.098 0.69059-2.5 1-2 1.5-3.25 1.5-4 1.125v-12.125c0-2.216-1.784-4-4-4h-11.125c-0.38-0.75-0.38-2 1.12-4 0.3049-0.57763 0.98708-1.7372 1-2.5 0-2.4853-2.9102-4.5-6.5-4.5z"/>
  </clipPath>
  <clipPath id="clipPath3009" clipPathUnits="userSpaceOnUse">
   <path id="path3011" style="opacity:.15;fill:#fff" d="m-2 956.36h-96v33.562l96 25.687v-59.25z"/>
  </clipPath>
 </defs>
 <metadata id="metadata11042">
  <rdf:RDF>
   <cc:Work rdf:about="">
    <dc:format>image/svg+xml</dc:format>
    <dc:type rdf:resource="http://purl.org/dc/dcmitype/StillImage"/>
    <dc:title/>
   </cc:Work>
  </rdf:RDF>
 </metadata>
 <g id="layer1" transform="translate(0 -956.36)">
  <rect id="rect3867" style="fill:url(#linearGradient11642)" rx="25" ry="25" height="92" width="92" y="958.36" x="2"/>
  <g id="layer4" transform="translate(0 956.36)">
   <path id="rect4096" style="color:#000000;fill:url(#linearGradient3150)" clip-path="url(#clipPath3144)" transform="translate(-70)" d="m118.5 17c-3.5898 0-6.5 2.0147-6.5 4.5 0.10443 0.9272 0.69059 2.098 1 2.5 1.5 2 1.5 3.25 1.125 4h-12.12c-2.216 0-4 1.784-4 4v10.125c0.75 0.375 2 0.375 4-1.125 0.40197-0.30941 1.5728-0.89557 2.5-1 2.4853 0 4.5 2.9101 4.5 6.5s-2.0147 6.5-4.5 6.5c-0.76276-0.01292-1.9224-0.6951-2.5-1-2-1.5-3.25-1.5-4-1.125v13.125c0 2.216 1.784 4 4 4h16.125c0.38-0.75 0.38-2-1.12-4-0.30941-0.40197-0.89557-1.5728-1-2.5 0-2.4853 2.9102-4.5 6.5-4.5s6.5 2.0147 6.5 4.5c-0.0129 0.76276-0.6951 1.9224-1 2.5-1.5 2-1.5 3.25-1.125 4h7.12c2.216 0 4-1.784 4-4v-11.125c0.75-0.375 2-0.375 4 1.125 0.57763 0.3049 1.7372 0.98708 2.5 1 2.4853 0 4.5-2.9101 4.5-6.5s-2.0147-6.5-4.5-6.5c-0.9272 0.10443-2.098 0.69059-2.5 1-2 1.5-3.25 1.5-4 1.125v-12.125c0-2.216-1.784-4-4-4h-11.125c-0.38-0.75-0.38-2 1.12-4 0.3049-0.57763 0.98708-1.7372 1-2.5 0-2.4853-2.9102-4.5-6.5-4.5z"/>
   <path id="path4157" style="opacity:.08;color:#000000" d="m48.5 17c-3.5899 0-6.5 2.0147-6.5 4.5 0.10443 0.9272 0.69059 2.098 1 2.5 1.5 2 1.5 3.25 1.125 4h-12.125c-2.216 0-4 1.784-4 4v10.125c0.75 0.375 2 0.375 4-1.125 0.40197-0.30941 1.5728-0.89557 2.5-1 2.4853 0 4.5 2.9101 4.5 6.5 0 3.59-2.015 6.5-4.5 6.5-0.763-0.013-1.922-0.695-2.5-1-2-1.5-3.25-1.5-4-1.125v13.125c0 2.216 1.784 4 4 4h16.125c0.375-0.75 0.375-2-1.125-4-0.309-0.402-0.896-1.573-1-2.5 0-2.485 2.91-4.5 6.5-4.5 3.5899 0 6.5 2.0147 6.5 4.5-0.01292 0.76276-0.6951 1.9224-1 2.5-1.5 2-1.5 3.25-1.125 4h7.125c2.216 0 4-1.784 4-4v-11.125c0.75-0.375 2-0.375 4 1.125 0.57763 0.3049 1.7372 0.98708 2.5 1 2.4853 0 4.5-2.9101 4.5-6.5s-2.0147-6.5-4.5-6.5c-0.9272 0.10443-2.098 0.69059-2.5 1-2 1.5-3.25 1.5-4 1.125v-12.125c0-2.216-1.784-4-4-4h-11.125c-0.375-0.75-0.375-2 1.125-4 0.305-0.578 0.987-1.737 1-2.5 0-2.485-2.91-4.5-6.5-4.5zm0 1.9375c1.4299 0 2.7056 0.45004 3.5 1 0.77948 0.53964 1.0525 1.0568 1.0625 1.5312 0.0084-0.01462-0.000602 0.000463 0 0.03125-0.02887 0.06517-0.11088 0.26533-0.21875 0.5-0.16406 0.35691-0.38124 0.75034-0.5625 1.0938h0.03125c-1.5665 2.2157-1.9213 4.3136-1.1875 5.7812a1.9514 1.9514 0 0 0 1.75 1.0625h11.125c1.1688 0 2.0625 0.89371 2.0625 2.0625v12.125a1.9514 1.9514 0 0 0 1.0625 1.75c1.5256 0.76282 3.7191 0.42164 6.0312-1.3125a1.9514 1.9514 0 0 0 0.03125 -0.03125c-0.09907 0.07626 1.0458-0.46506 1.4375-0.5625 0.45139 0.0417 0.93223 0.30141 1.4375 1.0312 0.54996 0.79438 1 2.0701 1 3.5s-0.45004 2.7056-1 3.5c-0.53964 0.77948-1.0568 1.0525-1.5312 1.0625 0.0092 0.000156-0.03777 0.000128-0.03125 0-0.06517-0.02887-0.26533-0.11088-0.5-0.21875-0.35691-0.16406-0.75034-0.38124-1.0938-0.5625v0.03125c-2.214-1.566-4.312-1.921-5.78-1.187a1.9514 1.9514 0 0 0 -1.0625 1.75v11.125c0 1.1688-0.89371 2.0625-2.0625 2.0625h-4.9688c0.14588-0.27766 0.17685-0.43372 0.53125-0.90625a1.9514 1.9514 0 0 0 0.15625 -0.25c0.12363-0.23422 0.39976-0.72326 0.65625-1.2812 0.25649-0.55799 0.54648-1.1477 0.5625-2.0938a1.9514 1.9514 0 0 0 0 -0.03125c0-2.0042-1.1606-3.7025-2.7188-4.7812-1.557-1.079-3.558-1.657-5.718-1.657-2.1599 0-4.1606 0.57752-5.7188 1.6562-1.558 1.079-2.719 2.778-2.719 4.782a1.9514 1.9514 0 0 0 0 0.21875c0.17273 1.5336 0.68804 2.5368 1.375 3.4375 0.0085 0.01116 0.02268 0.02012 0.03125 0.03125 0.33026 0.44485 0.36005 0.60862 0.5 0.875l-13.968-0.001c-1.1688 0-2.0625-0.89371-2.0625-2.0625v-10.969c0.27766 0.14588 0.43372 0.17685 0.90625 0.53125a1.9514 1.9514 0 0 0 0.25 0.15625c0.23422 0.12363 0.72326 0.39976 1.2812 0.65625 0.55799 0.25649 1.1477 0.54648 2.0938 0.5625a1.9514 1.9514 0 0 0 0.03125 0c2.0042 0 3.7025-1.1606 4.7812-2.7188s1.6562-3.5588 1.6562-5.7188c0-2.1599-0.57752-4.1606-1.6562-5.7188-1.078-1.558-2.777-2.719-4.781-2.719a1.9514 1.9514 0 0 0 -0.21875 0c-1.5336 0.17273-2.5368 0.68804-3.4375 1.375-0.01116 0.0085-0.02012 0.02268-0.03125 0.03125-0.44485 0.33026-0.60862 0.36005-0.875 0.5v-7.9688c0-1.1688 0.89371-2.0625 2.0625-2.0625h12.125a1.9514 1.9514 0 0 0 1.75 -1.0625c0.76282-1.5256 0.42164-3.7191-1.3125-6.0312a1.9514 1.9514 0 0 0 -0.031 -0.031c0.07626 0.09907-0.46506-1.0458-0.5625-1.4375 0.0417-0.45139 0.30141-0.93223 1.0312-1.4375 0.79438-0.54996 2.0701-1 3.5-1z"/>
   <path id="path4144" style="opacity:.3;color:#000000" d="m48.5 17c-3.5899 0-6.5 2.0147-6.5 4.5 0.01239 0.11004 0.0378 0.22854 0.0625 0.34375 0.456-2.177 3.168-3.844 6.438-3.844 3.2703 0 5.9816 1.6672 6.4375 3.8438 0.024-0.117 0.06-0.239 0.062-0.344 0-2.485-2.91-4.5-6.5-4.5zm-4.219 10.562c-0.036 0.159-0.092 0.31-0.156 0.438h-12.125c-2.216 0-4 1.784-4 4v1c0-2.216 1.784-4 4-4h12.125c0.17788-0.35577 0.26721-0.83003 0.15625-1.4375zm8.4375 0c-0.11 0.608-0.021 1.082 0.157 1.438h11.125c2.216 0 4 1.784 4 4v-1c0-2.216-1.784-4-4-4h-11.125c-0.064-0.128-0.12-0.279-0.156-0.438zm21.782 14.438c-0.9272 0.10443-2.098 0.69059-2.5 1-2 1.5-3.25 1.5-4 1.125v1c0.75 0.375 2 0.375 4-1.125 0.40197-0.30941 1.5728-0.89557 2.5-1 2.367 0 4.2894 2.6474 4.4688 6 0.009-0.168 0.031-0.329 0.031-0.5 0-3.59-2.015-6.5-4.5-6.5zm-35.531 5c-0.18 3.353-2.102 6-4.469 6-0.763-0.013-1.922-0.695-2.5-1-2-1.5-3.25-1.5-4-1.125v1c0.75-0.375 2-0.375 4 1.125 0.57763 0.3049 1.7372 0.98708 2.5 1 2.4853 0 4.5-2.9101 4.5-6.5 0-0.17084-0.02229-0.33248-0.03125-0.5zm7.093 14.844c-0.044 0.212-0.062 0.435-0.062 0.656 0.10443 0.9272 0.69059 2.098 1 2.5 0.78846 1.0513 1.1583 1.8894 1.2812 2.5625 0.178-0.769-0.037-1.904-1.281-3.562-0.273-0.354-0.754-1.301-0.938-2.156zm12.875 0c-0.152 0.736-0.674 1.658-0.937 2.156-1.244 1.658-1.459 2.793-1.281 3.562 0.123-0.673 0.493-1.511 1.281-2.562 0.3049-0.57763 0.98708-1.7372 1-2.5 0-0.22125-0.01795-0.44355-0.0625-0.65625z"/>
   <path id="path4153" style="opacity:.15;color:#000000" d="m48.5 17c-3.5899 0-6.5 2.0147-6.5 4.5 0.10443 0.9272 0.69059 2.098 1 2.5 1.5 2 1.5 3.25 1.125 4h-12.125c-2.216 0-4 1.784-4 4v10.125c0.75 0.375 2 0.375 4-1.125 0.40197-0.30941 1.5728-0.89557 2.5-1 2.4853 0 4.5 2.9101 4.5 6.5 0 3.59-2.015 6.5-4.5 6.5-0.763-0.013-1.922-0.695-2.5-1-2-1.5-3.25-1.5-4-1.125v13.125c0 2.216 1.784 4 4 4h16.125c0.375-0.75 0.375-2-1.125-4-0.309-0.402-0.896-1.573-1-2.5 0-2.485 2.91-4.5 6.5-4.5 3.5899 0 6.5 2.0147 6.5 4.5-0.01292 0.76276-0.6951 1.9224-1 2.5-1.5 2-1.5 3.25-1.125 4h7.125c2.216 0 4-1.784 4-4v-11.125c0.75-0.375 2-0.375 4 1.125 0.57763 0.3049 1.7372 0.98708 2.5 1 2.4853 0 4.5-2.9101 4.5-6.5s-2.0147-6.5-4.5-6.5c-0.9272 0.10443-2.098 0.69059-2.5 1-2 1.5-3.25 1.5-4 1.125v-12.125c0-2.216-1.784-4-4-4h-11.125c-0.375-0.75-0.375-2 1.125-4 0.305-0.578 0.987-1.737 1-2.5 0-2.485-2.91-4.5-6.5-4.5zm0 1c1.6093 0 3.0492 0.4451 4.0312 1.125 0.97081 0.6721 1.4575 1.4988 1.4688 2.3438 0.00013 0.0098 0 0.02144 0 0.03125-0.008 0.11043-0.10019 0.51235-0.28125 0.90625-0.18677 0.40633-0.42665 0.80842-0.59375 1.125h0.03125c-1.523 2.095-1.716 3.787-1.156 4.907a0.9923 0.9923 0 0 0 0.875 0.562h11.125c1.6835 0 3 1.3165 3 3v12.125a0.9923 0.9923 0 0 0 0.562 0.875c1.1444 0.57221 2.8725 0.40031 5.0312-1.2188 0.13936-0.10728 1.341-0.65046 1.9688-0.75 0.83147 0.02538 1.6505 0.48133 2.3125 1.4375 0.681 0.982 1.126 2.422 1.126 4.031 0 1.6093-0.4451 3.0492-1.125 4.0312-0.6721 0.97081-1.4988 1.4575-2.3438 1.4688-0.0029-0.000049-0.02777 0.000254-0.03125 0-0.11043-0.008-0.51235-0.10019-0.90625-0.28125-0.40633-0.18677-0.80842-0.42665-1.125-0.59375v0.03125c-2.095-1.523-3.787-1.716-4.907-1.156a0.9923 0.9923 0 0 0 -0.562 0.875v11.125c0 1.6835-1.3165 3-3 3h-6.2812c-0.02466-0.46257 0.09554-1.117 1.0625-2.4062a0.9923 0.9923 0 0 0 0.09375 -0.125c0.13779-0.26105 0.39123-0.74142 0.625-1.25s0.48868-1.019 0.5-1.6875a0.9923 0.9923 0 0 0 -0.001 -0.032c0-1.6299-0.97329-3.0512-2.3438-4-1.37-0.949-3.175-1.5-5.156-1.5s-3.786 0.551-5.156 1.5c-1.371 0.949-2.344 2.37-2.344 4a0.9923 0.9923 0 0 0 0 0.125c0.14025 1.2452 0.71074 2.3088 1.2188 2.9688 0.96696 1.2893 1.0872 1.9437 1.0625 2.4062h-15.281c-1.6835 0-3-1.3165-3-3v-12.281c0.46257-0.02466 1.117 0.09554 2.4062 1.0625a0.9923 0.9923 0 0 0 0.125 0.09375c0.26105 0.13779 0.74142 0.39123 1.25 0.625s1.019 0.48868 1.6875 0.5a0.9923 0.9923 0 0 0 0.032 -0.001c1.6299 0 3.0512-0.97329 4-2.3438 0.949-1.37 1.5-3.175 1.5-5.156s-0.551-3.786-1.5-5.156c-0.949-1.371-2.37-2.344-4-2.344a0.9923 0.9923 0 0 0 -0.125 0c-1.2452 0.14025-2.3088 0.71074-2.9688 1.2188-1.289 0.967-1.943 1.087-2.406 1.062v-9.281c0-1.6835 1.3165-3 3-3h12.125a0.9923 0.9923 0 0 0 0.875 -0.562c0.57221-1.1444 0.40031-2.8725-1.2188-5.0312-0.10728-0.13936-0.65046-1.341-0.75-1.9688 0.02538-0.83147 0.48133-1.6505 1.4375-2.3125 0.982-0.681 2.422-1.126 4.031-1.126z"/>
   <path id="path4167" style="opacity:.75;color:#000000;fill:#fff" d="m42.062 21.844c-0.044 0.212-0.062 0.435-0.062 0.656 0.10443 0.9272 0.69059 2.098 1 2.5 0.78846 1.0513 1.1583 1.8894 1.2812 2.5625 0.178-0.769-0.037-1.904-1.281-3.562-0.273-0.354-0.754-1.301-0.938-2.156zm12.875 0c-0.152 0.736-0.674 1.658-0.937 2.156-1.244 1.658-1.459 2.793-1.281 3.562 0.123-0.673 0.493-1.511 1.281-2.562 0.3049-0.57763 0.98708-1.7372 1-2.5 0-0.22125-0.01795-0.44355-0.0625-0.65625zm-20.437 18.156c-0.9272 0.10443-2.098 0.69059-2.5 1-2 1.5-3.25 1.5-4 1.125v1c0.75 0.375 2 0.375 4-1.125 0.40197-0.30941 1.5728-0.89557 2.5-1 2.367 0 4.2894 2.6474 4.4688 6 0.009-0.168 0.031-0.329 0.031-0.5 0-3.59-2.015-6.5-4.5-6.5zm44.469 9c-0.18 3.353-2.102 6-4.469 6-0.763-0.013-1.922-0.695-2.5-1-2-1.5-3.25-1.5-4-1.125v1c0.75-0.375 2-0.375 4 1.125 0.57763 0.3049 1.7372 0.98708 2.5 1 2.4853 0 4.5-2.9101 4.5-6.5 0-0.17084-0.02229-0.33248-0.03125-0.5zm-26.469 8c-3.5899 0-6.5 2.0147-6.5 4.5 0.01239 0.11004 0.0378 0.22854 0.0625 0.34375 0.456-2.177 3.168-3.844 6.438-3.844 3.2703 0 5.9816 1.6672 6.4375 3.8438 0.024-0.117 0.06-0.239 0.062-0.344 0-2.485-2.91-4.5-6.5-4.5zm-24.5 7v1c0 2.216 1.784 4 4 4h16.125c0.17788-0.35577 0.26721-0.83003 0.15625-1.4375-0.036 0.159-0.092 0.31-0.156 0.438h-16.125c-2.216 0-4-1.784-4-4zm40 0c0 2.216-1.784 4-4 4h-7.125c-0.064-0.128-0.12-0.279-0.156-0.438-0.111 0.608-0.022 1.082 0.156 1.438h7.125c2.216 0 4-1.784 4-4v-1z"/>
  </g>
  <rect id="rect3003" style="opacity:.15;fill:#fff" clip-path="url(#clipPath3009)" rx="25" ry="25" transform="translate(98 3.8281e-7)" width="92" y="958.36" x="-96" height="92"/>
 </g>
</svg>
