<?xml version="1.0" encoding="UTF-8" standalone="no"?>
<!-- Created with Inkscape (http://www.inkscape.org/) -->
<svg id="svg11037" xmlns:rdf="http://www.w3.org/1999/02/22-rdf-syntax-ns#" xmlns="http://www.w3.org/2000/svg" height="96" width="96" version="1.1" xmlns:cc="http://creativecommons.org/ns#" xmlns:xlink="http://www.w3.org/1999/xlink" xmlns:dc="http://purl.org/dc/elements/1.1/">
 <defs id="defs11039">
  <linearGradient id="linearGradient4376" x1="8" xlink:href="#linearGradient4370" gradientUnits="userSpaceOnUse" x2="8" y1="38.127" y2="71.877"/>
  <linearGradient id="linearGradient4370">
   <stop id="stop4372" style="stop-color:#8a5b30" offset="0"/>
   <stop id="stop4374" style="stop-color:#8a5b30;stop-opacity:0" offset="1"/>
  </linearGradient>
  <linearGradient id="linearGradient3706" y2="39.853" gradientUnits="userSpaceOnUse" y1="90" x2="54.187" x1="54.187">
   <stop id="stop4291" style="stop-color:#996c3b" offset="0"/>
   <stop id="stop4293" style="stop-color:#c19e6d" offset="1"/>
  </linearGradient>
  <radialGradient id="radialGradient4432" gradientUnits="userSpaceOnUse" cy="73.146" cx="48" gradientTransform="matrix(.86776 0 0 .095238 6.3473 36.19)" r="42">
   <stop id="stop4428" style="stop-color:#71461e" offset="0"/>
   <stop id="stop4430" style="stop-color:#71461e;stop-opacity:0" offset="1"/>
  </radialGradient>
  <linearGradient id="linearGradient4400" x1="8" xlink:href="#linearGradient4370" gradientUnits="userSpaceOnUse" y1="38.127" gradientTransform="matrix(-1,0,0,1,96,0)" x2="8" y2="87.03"/>
  <linearGradient id="linearGradient4402" x1="10" xlink:href="#linearGradient3737" gradientUnits="userSpaceOnUse" y1="40.263" gradientTransform="matrix(-1,0,0,1,96,0)" x2="10" y2="89.666"/>
  <linearGradient id="linearGradient3737">
   <stop id="stop3739" style="stop-color:#fff" offset="0"/>
   <stop id="stop3741" style="stop-color:#fff;stop-opacity:0" offset="1"/>
  </linearGradient>
  <linearGradient id="linearGradient4394" x1="10" xlink:href="#linearGradient3737" gradientUnits="userSpaceOnUse" x2="10" y1="40.263" y2="89.666"/>
  <linearGradient id="linearGradient5100" y2="9.4099" gradientUnits="userSpaceOnUse" y1="32.783" x2="6.5963" x1="47.079">
   <stop id="stop5094" style="stop-color:#be9f6a" offset="0"/>
   <stop id="stop5096" style="stop-color:#e5d2b2" offset="1"/>
  </linearGradient>
  <linearGradient id="linearGradient2489" x1="48" xlink:href="#linearGradient4295" gradientUnits="userSpaceOnUse" x2="6.7813" y1="42" y2="18.202"/>
  <linearGradient id="linearGradient4295">
   <stop id="stop4297" style="stop-color:#b88f56" offset="0"/>
   <stop id="stop4299" style="stop-color:#d9bd98" offset="1"/>
  </linearGradient>
  <linearGradient id="linearGradient3264" x1="47.227" xlink:href="#linearGradient4295" gradientUnits="userSpaceOnUse" y1="29.04" gradientTransform="matrix(-1,0,0,1,96,0)" x2="6.3304" y2="18.082"/>
  <linearGradient id="linearGradient3285" x1="23.143" xlink:href="#linearGradient3737" gradientUnits="userSpaceOnUse" x2="66.964" y1="42" y2="6"/>
  <linearGradient id="linearGradient4420" x1="8.9651" xlink:href="#linearGradient4414" gradientUnits="userSpaceOnUse" x2="8.9651" y1="44.04" y2="52.263"/>
  <linearGradient id="linearGradient4414">
   <stop id="stop4416" style="stop-color:#dac3a2" offset="0"/>
   <stop id="stop4418" style="stop-color:#dac3a2;stop-opacity:0" offset="1"/>
  </linearGradient>
  <linearGradient id="linearGradient4424" x1="8.9651" xlink:href="#linearGradient4414" gradientUnits="userSpaceOnUse" y1="44.04" gradientTransform="matrix(-1 0 0 1 96.087 0)" x2="8.9651" y2="52.263"/>
  <linearGradient id="linearGradient3934" x1="48.401" xlink:href="#linearGradient3928" gradientUnits="userSpaceOnUse" x2="48.401" y1="61.991" y2="4.6666"/>
  <linearGradient id="linearGradient3928">
   <stop id="stop3930" style="stop-color:#3a240f" offset="0"/>
   <stop id="stop3932" style="stop-color:#3a240f;stop-opacity:0" offset="1"/>
  </linearGradient>
  <linearGradient id="linearGradient3942" x1="46.796" xlink:href="#linearGradient3928" gradientUnits="userSpaceOnUse" x2="46.796" y1="60.307" y2="6.0179"/>
  <linearGradient id="linearGradient3277-8" x1="50.499" gradientUnits="userSpaceOnUse" y1="19.882" gradientTransform="matrix(1.0201 0 0 1.0201 -5.2982 5.7562)" x2="50.499" y2="47.295">
   <stop id="stop4311-7" style="stop-color:#d8cab2" offset="0"/>
   <stop id="stop4321-4" style="stop-color:#d2b98c" offset=".45711"/>
   <stop id="stop4323-9" style="stop-color:#f9f7ef" offset=".4859"/>
   <stop id="stop4325-6" style="stop-color:#fff" offset=".4911"/>
   <stop id="stop4327-3" style="stop-color:#fbf9f4" offset=".4918"/>
   <stop id="stop4329-5" style="stop-color:#efe7d0" offset=".4946"/>
   <stop id="stop4331-4" style="stop-color:#e4d6b0" offset=".4977"/>
   <stop id="stop4333-7" style="stop-color:#dac894" offset=".5011"/>
   <stop id="stop4335-5" style="stop-color:#c7a572" offset=".5049"/>
   <stop id="stop4347-7" style="stop-color:#d7c198" offset="1"/>
  </linearGradient>
  <clipPath id="clipPath3188" clipPathUnits="userSpaceOnUse">
   <rect id="rect3190" style="fill:url(#linearGradient3192)" rx="22.826" ry="22.826" height="84" width="84" y="6" x="6"/>
  </clipPath>
  <linearGradient id="linearGradient3192" x1="48" gradientUnits="userSpaceOnUse" y1="962.62" gradientTransform="matrix(1.05 0 0 1.05 -2.4 -1006.6)" x2="48" y2="1046.1">
   <stop id="stop3797" style="stop-color:#13a6fd" offset="0"/>
   <stop id="stop3799" style="stop-color:#2975b6" offset="1"/>
  </linearGradient>
  <clipPath id="clipPath3009" clipPathUnits="userSpaceOnUse">
   <path id="path3011" style="opacity:.15;fill:#fff" d="m-2 956.36h-96v33.562l96 25.687v-59.25z"/>
  </clipPath>
 </defs>
 <metadata id="metadata11042">
  <rdf:RDF>
   <cc:Work rdf:about="">
    <dc:format>image/svg+xml</dc:format>
    <dc:type rdf:resource="http://purl.org/dc/dcmitype/StillImage"/>
    <dc:title/>
   </cc:Work>
  </rdf:RDF>
 </metadata>
 <g id="layer1" transform="translate(0 -956.36)">
  <g id="g3099" transform="matrix(1.0952 0 0 1.0952 -4.5714 951.79)" clip-path="url(#clipPath3188)">
   <path id="rect5138" style="fill:url(#linearGradient4376)" d="m6 36v48c0 1.7818 0.77457 3.3717 2 4.4688v-52.469h-2z"/>
   <rect id="rect2419" style="fill:url(#linearGradient3706)" rx="6" ry="6" height="84" width="84" y="6" x="6"/>
   <path id="path3287" style="fill:url(#radialGradient4432)" d="m6 36v2c0 3.324 2.676 6 6 6h72c3.324 0 6-2.676 6-6v-2c0 3.324-2.676 6-6 6h-72c-3.324 0-6-2.676-6-6z"/>
   <path id="path4396" style="fill:url(#linearGradient4400)" d="m90 36v48c0 1.7818-0.77457 3.3717-2 4.4688v-52.469h2z"/>
   <rect id="rect2483" style="fill:#3c2510" rx="6" ry="6" height="24" width="84" y="18" x="6"/>
   <path id="path4398" style="opacity:.3;fill:url(#linearGradient4402)" d="m88 36v52.469c-0.57686 0.51642-1.2549 0.92309-2 1.1875v-53.656h2z"/>
   <path id="path4378" style="opacity:.3;fill:url(#linearGradient4394)" d="m8 36v52.469c0.57686 0.51642 1.2549 0.92309 2 1.1875v-53.656h-2z"/>
   <path id="path5055" style="fill:url(#linearGradient5100)" d="m12 6c-3.2266 0-6 2.2593-6 7v22.656l42 0.035v-29.691h-36z"/>
   <path id="rect2481" style="fill:url(#linearGradient2489)" d="m12 6c-3.324 0-6 2.676-6 6v24c0 3.324 2.676 6 6 6l36-2v-36l-36 2z"/>
   <path id="path3262" style="fill:url(#linearGradient3264)" d="m84 6c3.324 0 6 2.676 6 6v24c0 3.324-2.676 6-6 6l-36-2v-36l36 2z"/>
   <path id="rect3266" style="opacity:.3;fill:url(#linearGradient3285)" d="m12 6c-3.324 0-6 2.676-6 6v24c0 3.324 2.676 6 6 6l36-2 36 2c3.324 0 6-2.676 6-6v-24c0-3.324-2.676-6-6-6l-36-2-36 2zm0 2 36-2 36 2c2.2458 0 4 1.7542 4 4v24c0 2.2458-1.7542 4-4 4l-36-2-36 2c-2.2458 0-4-1.754-4-4v-24c0-2.2458 1.7542-4 4-4z"/>
   <path id="path4404" style="fill:url(#linearGradient4420);fill-rule:evenodd" d="m6.1872 37.285c2.3991 5.5558 1.894 16.036 1.894 16.036l1.8309-0.252c-0.2525-8.208 0.4419-11.238 4.9879-11.365-7.1692-1.195-8.7128-4.419-8.7128-4.419z"/>
   <path id="path4422" style="fill:url(#linearGradient4424);fill-rule:evenodd" d="m89.9 37.285c-2.3991 5.5558-1.894 16.036-1.894 16.036l-1.831-0.252c0.252-8.208-0.442-11.238-4.988-11.365 7.169-1.195 8.713-4.419 8.713-4.419z"/>
   <path id="path5008" style="opacity:.5;fill:#3a240f" d="m54.12 7h-12.12l0.06 24.062 0.135 28.938 5.687-0.495 6.044-0.525 0.032-5.551 0.102-22.367 0.06-24.062z"/>
   <path id="path3926" style="opacity:.1;fill:url(#linearGradient3934)" d="m41.688 5.125c0.0042-0.0007112-0.19165 0.032337-0.1875 0.03125 0.0042-0.00109-0.16029 0.063954-0.15625 0.0625 0.004-0.00145-0.16014 0.064309-0.15625 0.0625 0.0039-0.00181-0.12871 0.06465-0.125 0.0625 0.0037-0.00215-0.15976 0.096223-0.15625 0.09375 0.0035-0.00247-0.12827 0.12778-0.125 0.125 0.0033-0.00278-0.12801 0.096809-0.125 0.09375 0.003-0.00306-0.12772 0.12832-0.125 0.125 0.0027-0.00332-0.09617 0.1598-0.09375 0.15625 0.0024-0.00355-0.09584 0.12875-0.09375 0.125 0.0021-0.00375-0.06424 0.16017-0.0625 0.15625 0.0017-0.00392-0.06389 0.16031-0.0625 0.15625 0.0014-0.00406-0.03227 0.16042-0.03125 0.15625 0.001-0.00417-0.06314 0.16049-0.0625 0.15625 0.000642-0.00424-0.00026 0.19178 0 0.1875 0.000208-0.00343 0.000769 0.08233 0 0.125v0.03125l0.062 24.031 0.124 28.938a1.0058 1.0058 0 0 0 0 0.03125c-0.000042-0.0025 0.000168 0.0962 0 0.09375-0.000168-0.0025 0.000294 0.09619 0 0.09375-0.000294-0.0024 0.03167 0.09617 0.03125 0.09375-0.000419-0.0024 0.000542 0.09615 0 0.09375s0.03191 0.09611 0.03125 0.09375c-0.000664-0.0024 0.03204 0.09608 0.03125 0.09375-0.000785-0.0023 0.03215 0.06479 0.03125 0.0625-0.000903-0.0023 0.03227 0.09599 0.03125 0.09375-0.001-0.0022 0.06363 0.09593 0.0625 0.09375-0.0011-0.0022 0.03249 0.09587 0.03125 0.09375-0.0012-0.0021 0.06385 0.06455 0.0625 0.0625-0.0014-0.0021 0.0327 0.09573 0.03125 0.09375-0.0015-0.002 0.06405 0.0644 0.0625 0.0625-0.0016-0.0019 0.06415 0.09557 0.0625 0.09375-0.0016-0.0018 0.06424 0.06423 0.0625 0.0625-0.0017-0.0017 0.09558 0.06414 0.09375 0.0625-0.0018-0.0016 0.06441 0.06405 0.0625 0.0625-0.0019-0.0015 0.06448 0.06395 0.0625 0.0625-0.002-0.0014 0.09581 0.06384 0.09375 0.0625-0.0021-0.0013 0.06462 0.03249 0.0625 0.03125-0.0021-0.0012 0.09593 0.06363 0.09375 0.0625-0.0022-0.0011 0.09599 0.03226 0.09375 0.03125-0.0022-0.001 0.09604 0.03215 0.09375 0.03125-0.0023-0.000897 0.09608 0.03203 0.09375 0.03125-0.0023-0.000779 0.09612 0.03191 0.09375 0.03125-0.0024-0.000658 0.09615 0.03179 0.09375 0.03125-0.0024-0.000536 0.09617 0.000412 0.09375 0-0.0024-0.000412 0.09619 0.03154 0.09375 0.03125-0.0024-0.000288 0.0962 0.000162 0.09375 0-0.0025-0.000162 0.09621 0.000036 0.09375 0-0.0025-0.000036 0.0962-0.00009 0.09375 0-0.0025 0.00009 0.0962-0.000216 0.09375 0l5.6875-0.5 6.0312-0.53125c-0.000893 0.000051 0.02019 0.0012 0.03125 0 0.04424-0.0047 0.12854-0.000537 0.125 0-0.0044 0.000671 0.19184-0.06358 0.1875-0.0625-0.0043 0.0011 0.16047-0.03273 0.15625-0.03125-0.0042 0.0015 0.16031-0.06437 0.15625-0.0625-0.0041 0.0019 0.16012-0.09599 0.15625-0.09375-0.0039 0.0022 0.1599-0.09634 0.15625-0.09375-0.0036 0.0026 0.12839-0.09667 0.125-0.09375-0.0034 0.0029 0.1281-0.12822 0.125-0.125-0.0031 0.0032 0.12779-0.1285 0.125-0.125-0.0028 0.0035 0.0962-0.15999 0.09375-0.15625-0.0025 0.0037 0.09584-0.1602 0.09375-0.15625-0.0021 0.004 0.09546-0.16038 0.09375-0.15625-0.0017 0.0041 0.06382-0.16052 0.0625-0.15625-0.0013 0.0043 0.03217-0.16063 0.03125-0.15625-0.000916 0.0044 0.03175-0.19194 0.03125-0.1875-0.000504 0.0044 0.000087-0.16072 0-0.15625a1.0058 1.0058 0 0 0 0 -0.03125l0.031-5.531 0.094-22.376 0.062-24.062c-0.000073 0.00479-0.000406-0.16103 0-0.15625s-0.03213-0.19221-0.03125-0.1875c0.000881 0.00471-0.0326-0.1921-0.03125-0.1875 0.0013 0.0046-0.0643-0.19194-0.0625-0.1875s-0.09599-0.16049-0.09375-0.15625c0.0022 0.00424-0.0964-0.16025-0.09375-0.15625 0.0026 0.004-0.09678-0.15996-0.09375-0.15625 0.003 0.00371-0.12839-0.15964-0.125-0.15625 0.0034 0.00339-0.15996-0.12803-0.15625-0.125 0.004 0.0029-0.16-0.0965-0.156-0.0939 0.004 0.0027-0.16-0.096-0.156-0.0937 0.004 0.0022-0.161-0.0956-0.156-0.0938 0.0044 0.0018-0.1921-0.063848-0.1875-0.0625 0.0046 0.00135-0.19221-0.032132-0.1875-0.03125 0.0047 0.0008815-0.19228-0.031656-0.1875-0.03125 0.0048 0.0004063-0.16104 0.000073-0.15625 0h-12.031c0.0026 0.0002364-0.04386 0.00229-0.09375 0-0.03326-0.00153-0.06424 0-0.0625 0 0.0043 0-0.19183 0.000394-0.1875 0a1.0058 1.0058 0 0 0 -0.0625 0z"/>
   <path id="path3922" style="opacity:.2;fill:url(#linearGradient3942)" d="m42 6.125a0.86198 0.86198 0 0 0 -0.875 0.875l0.063 24.062 0.124 28.938a0.86198 0.86198 0 0 0 0.9375 0.84375l5.6875-0.5 6.062-0.532a0.86198 0.86198 0 0 0 0.8125 -0.84375l0.032-5.53 0.094-22.376 0.062-24.062a0.86198 0.86198 0 0 0 -0.875 -0.875h-12.125z"/>
   <path id="polygon120" style="fill:url(#linearGradient3277-8)" d="m54.06 4.3687-6.06-0.442-6.06 0.442 0.06 25.693 0.135 28.938l5.6868-0.49473 6.0439-0.52533 0.03264-5.5512 0.10201-22.367 0.06018-25.694z"/>
   <rect id="rect4363" style="opacity:.2;fill:#8d6137" height="35.714" width="1" y="4.125" x="47"/>
   <rect id="rect4365" style="opacity:.2;fill:#fff" height="35.714" width="1" y="4.125" x="48"/>
   <g id="layer3">
    <text id="text4274" y="49.91539" x="69.415169" style="font-size:4px;font-weight:bold;line-height:120.00000477%;font-family:BabelSans;fill:#825023" xml:space="preserve"><tspan id="tspan4276" y="49.91539" x="69.415169">INSTALL</tspan></text>
    <path id="path4278" style="fill:#825023" d="m72 52v6h-4l8 10 8-10h-4v-6h-8z"/>
   </g>
  </g>
  <rect id="rect3003" style="opacity:.15;fill:#fff" clip-path="url(#clipPath3009)" rx="25" ry="25" transform="translate(98 3.8281e-7)" width="92" y="958.36" x="-96" height="92"/>
 </g>
</svg>
