<?xml version="1.0" encoding="UTF-8" standalone="no"?>
<!-- Created with Inkscape (http://www.inkscape.org/) -->
<svg id="svg11037" xmlns:rdf="http://www.w3.org/1999/02/22-rdf-syntax-ns#" xmlns="http://www.w3.org/2000/svg" height="96" width="96" version="1.1" xmlns:cc="http://creativecommons.org/ns#" xmlns:xlink="http://www.w3.org/1999/xlink" xmlns:dc="http://purl.org/dc/elements/1.1/">
 <defs id="defs11039">
  <linearGradient id="linearGradient11642" x1="48" gradientUnits="userSpaceOnUse" x2="48" gradientTransform="matrix(1.15 0 0 1.15 -7.1999 -150.65)" y1="962.62" y2="1046.1">
   <stop id="stop3702" style="stop-color:#ebebeb" offset="0"/>
   <stop id="stop3704" style="stop-color:#fafafa" offset="1"/>
  </linearGradient>
  <clipPath id="clipPath3875">
   <path id="path3877" style="fill:#f0f" d="m-88 6c-3.324 0-6 2.676-6 6v72c0 3.324 2.676 6 6 6h72c3.324 0 6-2.676 6-6v-72c0-3.324-2.676-6-6-6h-72zm36 18c13.255 0 24 10.745 24 24s-10.745 24-24 24-24-10.745-24-24 10.745-24 24-24zm0 6c-9.9411 0-18 8.0589-18 18s8.0589 18 18 18 18-8.0589 18-18-8.0589-18-18-18zm0.46875 4c1.7765 0.000028 3.3303 0.18919 4.6562 0.5625 1.3388 0.37336 2.5032 0.91148 3.4688 1.5938 0.97837 0.66945 1.7754 1.4481 2.4062 2.375 0.64365 0.91404 1.1395 1.9241 1.5 3.0312l-5 1.375c-0.18025-0.57929-0.47044-1.1284-0.84375-1.6562-0.37335-0.54067-0.85821-1.0255-1.4375-1.4375-0.56646-0.41193-1.2276-0.72413-2-0.96875-0.77243-0.25745-1.6466-0.40623-2.625-0.40625-1.3775 0.000023-2.5712 0.23695-3.5625 0.6875-0.99128 0.43772-1.7938 1.0824-2.4375 1.9062-0.63081 0.82393-1.0973 1.8101-1.4062 2.9688-0.2961 1.1458-0.43751 2.4148-0.4375 3.8438-0.000007 1.4161 0.1414 2.7219 0.4375 3.9062 0.30896 1.1715 0.76256 2.1816 1.4062 3.0312 0.64367 0.84966 1.4959 1.5237 2.5 2 1.017 0.47633 2.2089 0.71875 3.625 0.71875 1.0685 0.000004 2.0088-0.17265 2.7812-0.46875 0.78527-0.30896 1.4648-0.6983 2.0312-1.1875 0.57929-0.48919 1.0329-1.0383 1.4062-1.6562 0.38618-0.61792 0.72413-1.2442 0.96875-1.875l4.9375 1.875c-0.39911 0.9784-0.91885 1.9352-1.5625 2.875-0.6437 0.93977-1.4408 1.7791-2.4062 2.5-0.96554 0.72092-2.0987 1.2994-3.4375 1.75-1.326 0.437-2.917 0.656-4.719 0.656-2.3559 0-4.4-0.33608-6.125-1.0312-1.7251-0.70804-3.1484-1.6888-4.2812-2.9375-1.12-1.2616-1.9464-2.7749-2.5-4.5-0.54069-1.725-0.8125-3.6093-0.8125-5.6562-0.000002-2.1241 0.27181-4.0378 0.8125-5.75 0.55356-1.7122 1.3929-3.1777 2.5-4.375 1.1071-1.2101 2.5011-2.1063 4.1875-2.75 1.6993-0.65652 3.6772-0.99997 5.9688-1z"/>
  </clipPath>
  <filter id="filter3879" width="1.288" y="-.144" x="-.144" height="1.288" color-interpolation-filters="sRGB">
   <feGaussianBlur id="feGaussianBlur3881" stdDeviation="2.88"/>
  </filter>
  <linearGradient id="linearGradient3845" y2="23.99" gradientUnits="userSpaceOnUse" y1="72" x2="48" x1="48">
   <stop id="stop3699" style="stop-color:#bababa" offset="0"/>
   <stop id="stop3701" style="stop-color:#d2d2d2" offset="1"/>
  </linearGradient>
  <clipPath id="clipPath3009" clipPathUnits="userSpaceOnUse">
   <path id="path3011" style="opacity:.15;fill:#fff" d="m-2 956.36h-96v33.562l96 25.687v-59.25z"/>
  </clipPath>
 </defs>
 <metadata id="metadata11042">
  <rdf:RDF>
   <cc:Work rdf:about="">
    <dc:format>image/svg+xml</dc:format>
    <dc:type rdf:resource="http://purl.org/dc/dcmitype/StillImage"/>
    <dc:title/>
   </cc:Work>
  </rdf:RDF>
 </metadata>
 <g id="layer1" transform="translate(0 -956.36)">
  <rect id="rect3867" style="fill:url(#linearGradient11642)" rx="25" ry="25" height="92" width="92" y="958.36" x="2"/>
  <g id="g3064" transform="translate(2.7466e-7 956.36)">
   <path id="path3866" style="opacity:.6;color:#000000;filter:url(#filter3879);stroke:#fff;stroke-width:2;fill:none" clip-path="url(#clipPath3875)" transform="translate(100)" d="m-52 24c-13.255 0-24 10.745-24 24s10.745 24 24 24 24-10.745 24-24-10.745-24-24-24zm0 6c9.9411 0 18 8.0589 18 18s-8.0589 18-18 18-18-8.0589-18-18 8.0589-18 18-18zm0.46875 4c-2.2915 0.000028-4.2695 0.34348-5.9688 1-1.6864 0.6437-3.0804 1.5399-4.1875 2.75-1.1071 1.1973-1.9464 2.6628-2.5 4.375-0.54069 1.7122-0.8125 3.6259-0.8125 5.75-0.000002 2.0469 0.27181 3.9312 0.8125 5.6562 0.55356 1.7251 1.38 3.2384 2.5 4.5 1.1329 1.2487 2.5562 2.2295 4.2812 2.9375 1.725 0.69517 3.7691 1.0312 6.125 1.0312 1.8023 0 3.3928-0.21855 4.7188-0.65625 1.3388-0.45057 2.472-1.0291 3.4375-1.75 0.96549-0.72092 1.7625-1.5602 2.4062-2.5 0.64365-0.93976 1.1634-1.8966 1.5625-2.875l-4.9375-1.875c-0.24462 0.63081-0.58256 1.2571-0.96875 1.875-0.37336 0.61794-0.82696 1.1671-1.4062 1.6562-0.56646 0.4892-1.246 0.87854-2.0312 1.1875-0.77243 0.2961-1.7128 0.46875-2.7812 0.46875-1.4161 0.000004-2.608-0.24242-3.625-0.71875-1.0041-0.47632-1.8563-1.1503-2.5-2-0.64369-0.84965-1.0973-1.8597-1.4062-3.0312-0.2961-1.1844-0.43751-2.4901-0.4375-3.9062-0.000007-1.429 0.1414-2.698 0.4375-3.8438 0.30896-1.1586 0.77544-2.1448 1.4062-2.9688 0.64367-0.82389 1.4462-1.4685 2.4375-1.9062 0.99125-0.45055 2.185-0.68748 3.5625-0.6875 0.97838 0.000023 1.8526 0.1488 2.625 0.40625 0.7724 0.24462 1.4335 0.55682 2 0.96875 0.57929 0.41198 1.0641 0.89683 1.4375 1.4375 0.37331 0.52784 0.6635 1.077 0.84375 1.6562l5-1.375c-0.36049-1.1071-0.85635-2.1172-1.5-3.0312-0.63083-0.92687-1.4279-1.7056-2.4062-2.375-0.96554-0.68227-2.1299-1.2204-3.4688-1.5938-1.326-0.37331-2.8797-0.56247-4.6562-0.5625z"/>
   <path id="path3836" style="color:#000000;fill:url(#linearGradient3845)" d="m48 24c-13.255 0-24 10.745-24 24s10.745 24 24 24 24-10.745 24-24-10.745-24-24-24zm0 6c9.9411 0 18 8.0589 18 18s-8.0589 18-18 18-18-8.0589-18-18 8.0589-18 18-18zm0.46875 4c-2.2915 0.000028-4.2695 0.34348-5.9688 1-1.6864 0.6437-3.0804 1.5399-4.1875 2.75-1.1071 1.1973-1.9464 2.6628-2.5 4.375-0.54069 1.7122-0.8125 3.6259-0.8125 5.75-0.000002 2.0469 0.27181 3.9312 0.8125 5.6562 0.55356 1.7251 1.38 3.2384 2.5 4.5 1.1329 1.2487 2.5562 2.2295 4.2812 2.9375 1.725 0.69517 3.7691 1.0312 6.125 1.0312 1.8023 0 3.3928-0.21855 4.7188-0.65625 1.3388-0.45057 2.472-1.0291 3.4375-1.75 0.96549-0.72092 1.7625-1.5602 2.4062-2.5 0.64365-0.93976 1.1634-1.8966 1.5625-2.875l-4.9375-1.875c-0.24462 0.63081-0.58256 1.2571-0.96875 1.875-0.37336 0.61794-0.82696 1.1671-1.4062 1.6562-0.56646 0.4892-1.246 0.87854-2.0312 1.1875-0.77243 0.2961-1.7128 0.46875-2.7812 0.46875-1.4161 0.000004-2.608-0.24242-3.625-0.71875-1.0041-0.47632-1.8563-1.1503-2.5-2-0.646-0.849-1.1-1.859-1.408-3.031-0.297-1.184-0.438-2.49-0.438-3.906-0.000007-1.429 0.1414-2.698 0.4375-3.8438 0.30896-1.1586 0.77544-2.1448 1.4062-2.9688 0.64367-0.82389 1.4462-1.4685 2.4375-1.9062 0.99125-0.45055 2.185-0.68748 3.5625-0.6875 0.97838 0.000023 1.8526 0.1488 2.625 0.40625 0.7724 0.24462 1.4335 0.55682 2 0.96875 0.57929 0.41198 1.0641 0.89683 1.4375 1.4375 0.37331 0.52784 0.6635 1.077 0.84375 1.6562l5-1.375c-0.36-1.108-0.856-2.118-1.5-3.032-0.631-0.927-1.428-1.705-2.406-2.375-0.966-0.682-2.13-1.22-3.469-1.594-1.326-0.373-2.88-0.562-4.656-0.562z"/>
   <path id="path3848" style="opacity:.2;color:#000000" d="m48 24c-13.255 0-24 10.745-24 24 0 0.16558-0.0033 0.33522 0 0.5 0.264-13.026 10.911-23.5 24-23.5s23.736 10.474 24 23.5c0.003-0.165 0-0.334 0-0.5 0-13.255-10.745-24-24-24zm0.46875 10c-2.2915 0.000028-4.2695 0.34348-5.9688 1-1.6864 0.6437-3.0804 1.5399-4.1875 2.75-1.1071 1.1973-1.9464 2.6628-2.5 4.375-0.54069 1.7122-0.8125 3.6259-0.8125 5.75 0 0.17072 0.02747 0.33154 0.03125 0.5 0.04002-1.9231 0.28385-3.6749 0.78125-5.25 0.55356-1.7122 1.3929-3.1777 2.5-4.375 1.1071-1.2101 2.5011-2.1063 4.1875-2.75 1.6993-0.65652 3.6772-0.99997 5.9688-1 1.7765 0.000028 3.3303 0.18919 4.6562 0.5625 1.3388 0.37336 2.5032 0.91148 3.4688 1.5938 0.97837 0.66945 1.7754 1.4481 2.4062 2.375 0.46453 0.65968 0.87226 1.3649 1.1875 2.125l0.311-0.094c-0.36-1.107-0.856-2.117-1.5-3.031-0.631-0.927-1.428-1.705-2.406-2.375-0.966-0.682-2.13-1.22-3.469-1.594-1.326-0.373-2.88-0.562-4.656-0.562zm-7.719 14.375c-0.0042 0.16842-0.000001 0.32695 0 0.5-0.000007 1.4161 0.1414 2.7219 0.4375 3.9062 0.30896 1.1715 0.76256 2.1816 1.4062 3.0312 0.64367 0.84966 1.4959 1.5237 2.5 2 1.017 0.47633 2.2089 0.71875 3.625 0.71875 1.0685 0.000004 2.0088-0.17265 2.7812-0.46875 0.78527-0.30896 1.4648-0.6983 2.0312-1.1875 0.57929-0.48919 1.0329-1.0383 1.4062-1.6562 0.38618-0.61792 0.72413-1.2442 0.96875-1.875l4.5312 1.7188c0.13819-0.28389 0.28897-0.55625 0.40625-0.84375l-4.9375-1.875c-0.24462 0.63081-0.58256 1.2571-0.96875 1.875-0.37336 0.61794-0.82696 1.1671-1.4062 1.6562-0.56646 0.4892-1.246 0.87854-2.0312 1.1875-0.77243 0.2961-1.7128 0.46875-2.7812 0.46875-1.4161 0.000004-2.608-0.24242-3.625-0.71875-1.0041-0.47632-1.8563-1.1503-2.5-2-0.644-0.85-1.098-1.86-1.406-3.032-0.261-1.041-0.408-2.185-0.438-3.406zm-10.719 0.125c-0.004 0.167-0.031 0.331-0.031 0.5 0 9.9411 8.0589 18 18 18s18-8.0589 18-18c0-0.16859-0.02664-0.33252-0.03125-0.5-0.267 9.708-8.196 17.5-17.969 17.5s-17.702-7.792-17.969-17.5z"/>
   <path id="path3857" style="color:#000000;fill:#fff" d="m48 30c-9.9411 0-18 8.0589-18 18 0 0.16859 0.02664 0.33252 0.03125 0.5 0.267-9.708 8.196-17.5 17.969-17.5s17.702 7.792 17.969 17.5c0.004-0.167 0.031-0.331 0.031-0.5 0-9.941-8.059-18-18-18zm0.59375 8.4688c-1.3775 0.000023-2.5712 0.23695-3.5625 0.6875-0.99128 0.43772-1.7938 1.0824-2.4375 1.9062-0.63081 0.82393-1.0973 1.8101-1.4062 2.9688-0.2961 1.1458-0.43751 2.4148-0.4375 3.8438-0.000001 0.17149-0.0042 0.33176 0 0.5 0.03027-1.2223 0.17726-2.3367 0.4375-3.3438 0.30896-1.1586 0.77544-2.1448 1.4062-2.9688 0.64367-0.82389 1.4462-1.4685 2.4375-1.9062 0.99125-0.45055 2.185-0.68748 3.5625-0.6875 0.97838 0.000023 1.8526 0.1488 2.625 0.40625 0.7724 0.24462 1.4335 0.55682 2 0.96875 0.57929 0.41198 1.0641 0.89683 1.4375 1.4375 0.37331 0.52784 0.6635 1.077 0.84375 1.6562l5-1.375c-0.1-0.309-0.191-0.614-0.312-0.907l-4.688 1.282c-0.18025-0.57929-0.47044-1.1284-0.84375-1.6562-0.37335-0.54067-0.85821-1.0255-1.4375-1.4375-0.56646-0.41193-1.2276-0.72413-2-0.96875-0.77243-0.25745-1.6466-0.40623-2.625-0.40625zm-13.563 9.906c-0.003 0.167-0.031 0.33-0.031 0.5-0.000002 2.0469 0.27181 3.9312 0.8125 5.6562 0.55356 1.7251 1.38 3.2384 2.5 4.5 1.1329 1.2487 2.5562 2.2295 4.2812 2.9375 1.725 0.69517 3.7691 1.0312 6.125 1.0312 1.8023 0 3.3928-0.21855 4.7188-0.65625 1.3388-0.45057 2.472-1.0291 3.4375-1.75 0.96549-0.72092 1.7625-1.5602 2.4062-2.5 0.64365-0.93976 1.1634-1.8966 1.5625-2.875l-0.406-0.157c-0.33209 0.68222-0.70173 1.3676-1.1562 2.0312-0.6437 0.93977-1.4408 1.7791-2.4062 2.5-0.96554 0.72092-2.0987 1.2994-3.4375 1.75-1.326 0.438-2.917 0.657-4.719 0.657-2.3559 0-4.4-0.33608-6.125-1.0312-1.7251-0.70804-3.1484-1.6888-4.2812-2.9375-1.12-1.2616-1.9464-2.7749-2.5-4.5-0.496-1.581-0.74-3.305-0.782-5.156zm-11.031 0.125c-0.0033 0.16478 0 0.33442 0 0.5 0 13.255 10.745 24 24 24s24-10.745 24-24c0-0.16558 0.0033-0.33522 0-0.5-0.264 13.026-10.911 23.5-24 23.5s-23.736-10.474-24-23.5z"/>
  </g>
  <rect id="rect3003" style="opacity:.15;fill:#fff" clip-path="url(#clipPath3009)" rx="25" ry="25" transform="translate(98 3.8281e-7)" width="92" y="958.36" x="-96" height="92"/>
 </g>
</svg>
