<?xml version="1.0" encoding="UTF-8" standalone="no"?>
<!-- Created with Inkscape (http://www.inkscape.org/) -->
<svg id="svg11037" xmlns:rdf="http://www.w3.org/1999/02/22-rdf-syntax-ns#" xmlns="http://www.w3.org/2000/svg" height="96" width="96" version="1.1" xmlns:cc="http://creativecommons.org/ns#" xmlns:xlink="http://www.w3.org/1999/xlink" xmlns:dc="http://purl.org/dc/elements/1.1/">
 <defs id="defs11039">
  <linearGradient id="linearGradient11642" x1="48" gradientUnits="userSpaceOnUse" x2="48" gradientTransform="matrix(1.15 0 0 1.15 -7.1999 -150.65)" y1="962.62" y2="1046.1">
   <stop id="stop3702" style="stop-color:#ebebeb" offset="0"/>
   <stop id="stop3704" style="stop-color:#fafafa" offset="1"/>
  </linearGradient>
  <clipPath id="clipPath3009" clipPathUnits="userSpaceOnUse">
   <path id="path3011" style="opacity:.15;fill:#fff" d="m-2 956.36h-96v33.562l96 25.687v-59.25z"/>
  </clipPath>
 </defs>
 <metadata id="metadata11042">
  <rdf:RDF>
   <cc:Work rdf:about="">
    <dc:format>image/svg+xml</dc:format>
    <dc:type rdf:resource="http://purl.org/dc/dcmitype/StillImage"/>
    <dc:title/>
   </cc:Work>
  </rdf:RDF>
 </metadata>
 <g id="layer1" transform="translate(0 -956.36)">
  <rect id="rect3867" style="fill:url(#linearGradient11642)" rx="25" ry="25" height="92" width="92" y="958.36" x="2"/>
  <g id="g3511" transform="translate(-1.9219e-7 956.36)">
   <g id="g5615" style="opacity:.12" transform="matrix(1.683 0 0 1.683 13 29.507)">
    <path id="path5617" d="m14.718 0.035034h-14.3l-0.418 5.477h0.445c0.32-4.102 0.672-4.82 4.512-4.82h1.367c0.473 0.074035 0.473 0.375 0.473 0.945v13.48c0 0.895-0.075 1.168-2.161 1.168h-0.703v0.5981c1.188-0.023 2.426-0.047 3.641-0.047 1.211 0 2.453 0.024 3.64 0.0471v-0.5981h-0.691c-2.055 0-2.129-0.273-2.129-1.168v-13.48c0-0.54699 0-0.84399 0.446-0.945h1.359c3.789 0 4.16 0.71399 4.48 4.82h0.446"/>
    <path id="path5619" d="m27.144 16.02h-0.445c-0.543 3.672-0.863 5.668-5.219 5.668h-3.437c-0.989 0-1.036-0.125-1.036-0.977v-6.922h2.336c2.336 0 2.559 0.856 2.559 2.946h0.398v-6.442h-0.398c0 2.055-0.223 2.895-2.559 2.895h-2.336v-6.137c0-0.836 0.047-0.961 1.036-0.961h3.386c3.832 0 4.278 1.523 4.625 4.797h0.446l-0.594-5.477h-12.539v0.68c1.754 0 2.035 0 2.035 1.113v13.364c0 1.1131-0.277 1.1131-2.035 1.1131v0.5979h12.887"/>
    <path id="path5621" d="m33.82 7.512 3.664-5.297c0.367-0.52 1.113-1.59 3.145-1.617v-0.598c-0.567 0.046997-1.508 0.046997-2.102 0.046997-0.816 0-1.832 0-2.449-0.046997v0.59802c0.793 0.073975 0.988 0.57001 0.988 0.969 0 0.29602-0.121 0.49603-0.297 0.742l-3.269 4.742-3.664-5.363c-0.172-0.27-0.196-0.348-0.196-0.422 0-0.22302 0.27-0.64502 1.09-0.66803v-0.59797c-0.793 0.046997-2.004 0.046997-2.82 0.046997-0.641 0-1.879 0-2.477-0.046997v0.59802c1.36 0 1.805 0.051026 2.352 0.82001l4.777 7.016-4.308 6.2931c-1.063 1.539-2.672 1.5659-3.145 1.5659v0.5981c0.566-0.047 1.508-0.047 2.102-0.047 0.668 0 1.832 0 2.449 0.047v-0.5981c-0.766-0.0739-0.988-0.57-0.988-0.969 0-0.32 0.121-0.496 0.246-0.672l3.961-5.781 4.308 6.332c0.195 0.2741 0.195 0.348 0.195 0.422 0 0.195-0.222 0.621-1.089 0.672v0.598c0.793-0.047 2.004-0.047 2.82-0.047 0.641 0 1.879 0 2.48 0.047v-0.598c-1.586 0-1.836-0.121-2.328-0.8199"/>
   </g>
   <g id="g12" style="fill:#333" transform="matrix(1.683 0 0 1.683 13 28.507)">
    <path id="path14" style="fill:#333" d="m14.718 0.035034h-14.3l-0.418 5.477h0.445c0.32-4.102 0.672-4.82 4.512-4.82h1.367c0.473 0.074035 0.473 0.375 0.473 0.945v13.48c0 0.895-0.075 1.168-2.161 1.168h-0.703v0.5981c1.188-0.023 2.426-0.047 3.641-0.047 1.211 0 2.453 0.024 3.64 0.0471v-0.5981h-0.691c-2.055 0-2.129-0.273-2.129-1.168v-13.48c0-0.54699 0-0.84399 0.446-0.945h1.359c3.789 0 4.16 0.71399 4.48 4.82h0.446"/>
    <path id="path16" style="fill:#333" d="m27.144 16.02h-0.445c-0.543 3.672-0.863 5.668-5.219 5.668h-3.437c-0.989 0-1.036-0.125-1.036-0.977v-6.922h2.336c2.336 0 2.559 0.856 2.559 2.946h0.398v-6.442h-0.398c0 2.055-0.223 2.895-2.559 2.895h-2.336v-6.137c0-0.836 0.047-0.961 1.036-0.961h3.386c3.832 0 4.278 1.523 4.625 4.797h0.446l-0.594-5.477h-12.539v0.68c1.754 0 2.035 0 2.035 1.113v13.364c0 1.1131-0.277 1.1131-2.035 1.1131v0.5979h12.887"/>
    <path id="path18" style="fill:#333" d="m33.82 7.512 3.664-5.297c0.367-0.52 1.113-1.59 3.145-1.617v-0.598c-0.567 0.046997-1.508 0.046997-2.102 0.046997-0.816 0-1.832 0-2.449-0.046997v0.59802c0.793 0.073975 0.988 0.57001 0.988 0.969 0 0.29602-0.121 0.49603-0.297 0.742l-3.269 4.742-3.664-5.363c-0.172-0.27-0.196-0.348-0.196-0.422 0-0.22302 0.27-0.64502 1.09-0.66803v-0.59797c-0.793 0.046997-2.004 0.046997-2.82 0.046997-0.641 0-1.879 0-2.477-0.046997v0.59802c1.36 0 1.805 0.051026 2.352 0.82001l4.777 7.016-4.308 6.2931c-1.063 1.539-2.672 1.5659-3.145 1.5659v0.5981c0.566-0.047 1.508-0.047 2.102-0.047 0.668 0 1.832 0 2.449 0.047v-0.5981c-0.766-0.0739-0.988-0.57-0.988-0.969 0-0.32 0.121-0.496 0.246-0.672l3.961-5.781 4.308 6.332c0.195 0.2741 0.195 0.348 0.195 0.422 0 0.195-0.222 0.621-1.089 0.672v0.598c0.793-0.047 2.004-0.047 2.82-0.047 0.641 0 1.879 0 2.48 0.047v-0.598c-1.586 0-1.836-0.121-2.328-0.8199"/>
   </g>
  </g>
  <rect id="rect3003" style="opacity:.15;fill:#fff" clip-path="url(#clipPath3009)" rx="25" ry="25" transform="translate(98 3.8281e-7)" width="92" y="958.36" x="-96" height="92"/>
 </g>
</svg>
