<?xml version="1.0" encoding="UTF-8" standalone="no"?>
<!-- Created with Inkscape (http://www.inkscape.org/) -->
<svg id="svg11037" xmlns:rdf="http://www.w3.org/1999/02/22-rdf-syntax-ns#" xmlns="http://www.w3.org/2000/svg" height="96" width="96" version="1.1" xmlns:cc="http://creativecommons.org/ns#" xmlns:xlink="http://www.w3.org/1999/xlink" xmlns:dc="http://purl.org/dc/elements/1.1/">
 <defs id="defs11039">
  <linearGradient id="linearGradient11642" x1="48" gradientUnits="userSpaceOnUse" x2="48" gradientTransform="matrix(1.15 0 0 1.15 -7.1999 -150.65)" y1="962.62" y2="1046.1">
   <stop id="stop3702" style="stop-color:#e6e6e6" offset="0"/>
   <stop id="stop3704" style="stop-color:#f5f5f5" offset="1"/>
  </linearGradient>
  <linearGradient id="linearGradient3705" x1="14" gradientUnits="userSpaceOnUse" y1="72" gradientTransform="translate(-96,-48)" x2="34" y2="72">
   <stop id="stop3701" style="stop-color:#45c13d" offset="0"/>
   <stop id="stop3703" style="stop-color:#76d56f" offset="1"/>
  </linearGradient>
  <linearGradient id="linearGradient3713" x1="38" gradientUnits="userSpaceOnUse" y1="72" gradientTransform="translate(-120,-24)" x2="58" y2="72">
   <stop id="stop3709" style="stop-color:#1bb3c6" offset="0"/>
   <stop id="stop3711" style="stop-color:#32cfe3" offset="1"/>
  </linearGradient>
  <linearGradient id="linearGradient3722" x1="62" gradientUnits="userSpaceOnUse" y1="72" gradientTransform="translate(-144)" x2="82" y2="72">
   <stop id="stop3717" style="stop-color:#3c64dc" offset="0"/>
   <stop id="stop3719" style="stop-color:#6b89e5" offset="1"/>
  </linearGradient>
  <linearGradient id="linearGradient3800" x1="14" gradientUnits="userSpaceOnUse" y1="48" gradientTransform="translate(-72,-24)" x2="34" y2="48">
   <stop id="stop3796" style="stop-color:#dfa716" offset="0"/>
   <stop id="stop3798" style="stop-color:#ecbb3d" offset="1"/>
  </linearGradient>
  <linearGradient id="linearGradient3792" x1="38" gradientUnits="userSpaceOnUse" y1="48" gradientTransform="translate(-96)" x2="58" y2="48">
   <stop id="stop3788" style="stop-color:#d652aa" offset="0"/>
   <stop id="stop3790" style="stop-color:#e17fc0" offset="1"/>
  </linearGradient>
  <linearGradient id="linearGradient3808" x1="14" gradientUnits="userSpaceOnUse" y1="24" gradientTransform="translate(-48)" x2="34" y2="24">
   <stop id="stop3804" style="stop-color:#ed702d" offset="0"/>
   <stop id="stop3806" style="stop-color:#f4915c" offset="1"/>
  </linearGradient>
  <clipPath id="clipPath3009" clipPathUnits="userSpaceOnUse">
   <path id="path3011" style="opacity:.15;fill:#fff" d="m-2 956.36h-96v33.562l96 25.687v-59.25z"/>
  </clipPath>
 </defs>
 <metadata id="metadata11042">
  <rdf:RDF>
   <cc:Work rdf:about="">
    <dc:format>image/svg+xml</dc:format>
    <dc:type rdf:resource="http://purl.org/dc/dcmitype/StillImage"/>
    <dc:title/>
   </cc:Work>
  </rdf:RDF>
 </metadata>
 <g id="layer1" transform="translate(0 -956.36)">
  <rect id="rect3867" style="fill:url(#linearGradient11642)" rx="25" ry="25" height="92" width="92" y="958.36" x="2"/>
  <g id="layer4" transform="translate(0 956.36)">
   <rect id="rect3888" style="color:#000000;fill:url(#linearGradient3705)" transform="rotate(-90)" rx="3" ry="3" height="20" width="20" y="14" x="-82"/>
   <rect id="rect3890" style="color:#000000;fill:url(#linearGradient3713)" transform="rotate(-90)" rx="3" ry="3" height="20" width="20" y="38" x="-82"/>
   <rect id="rect3892" style="color:#000000;fill:url(#linearGradient3722)" transform="rotate(-90)" rx="3" ry="3" height="20" width="20" y="62" x="-82"/>
   <rect id="rect3894" style="color:#000000;fill:url(#linearGradient3800)" transform="rotate(-90)" rx="3" ry="3" height="20" width="20" y="14" x="-58"/>
   <rect id="rect3896" style="color:#000000;fill:url(#linearGradient3792)" transform="rotate(-90)" rx="3" ry="3" height="20" width="20" y="38" x="-58"/>
   <rect id="rect3898" style="color:#000000;fill:url(#linearGradient3808)" transform="rotate(-90)" rx="3" ry="3" height="20" width="20" y="14" x="-34"/>
   <path id="path3900" style="opacity:.15;color:#000000" d="m17 62c-1.662 0-3 1.338-3 3v1c0-1.662 1.338-3 3-3h14c1.662 0 3 1.338 3 3v-1c0-1.662-1.338-3-3-3h-14z"/>
   <path id="path3902" style="opacity:.15;color:#000000" d="m41 62c-1.662 0-3 1.338-3 3v1c0-1.662 1.338-3 3-3h14c1.662 0 3 1.338 3 3v-1c0-1.662-1.338-3-3-3h-14z"/>
   <path id="path3904" style="opacity:.15;color:#000000" d="m65 62c-1.662 0-3 1.338-3 3v1c0-1.662 1.338-3 3-3h14c1.662 0 3 1.338 3 3v-1c0-1.662-1.338-3-3-3h-14z"/>
   <path id="path3906" style="opacity:.15;color:#000000" d="m17 38c-1.662 0-3 1.338-3 3v1c0-1.662 1.338-3 3-3h14c1.662 0 3 1.338 3 3v-1c0-1.662-1.338-3-3-3h-14z"/>
   <path id="path3908" style="opacity:.15;color:#000000" d="m41 38c-1.662 0-3 1.338-3 3v1c0-1.662 1.338-3 3-3h14c1.662 0 3 1.338 3 3v-1c0-1.662-1.338-3-3-3h-14z"/>
   <path id="path3910" style="opacity:.15;color:#000000" d="m17 14c-1.662 0-3 1.338-3 3v1c0-1.662 1.338-3 3-3h14c1.662 0 3 1.338 3 3v-1c0-1.662-1.338-3-3-3h-14z"/>
   <path id="path3912" style="opacity:.6;color:#000000;fill:#fff" d="m14 79v1c0 1.662 1.338 3 3 3h14c1.662 0 3-1.338 3-3v-1c0 1.662-1.338 3-3 3h-14c-1.662 0-3-1.338-3-3z"/>
   <path id="path3914" style="opacity:.6;color:#000000;fill:#fff" d="m38 79v1c0 1.662 1.338 3 3 3h14c1.662 0 3-1.338 3-3v-1c0 1.662-1.338 3-3 3h-14c-1.662 0-3-1.338-3-3z"/>
   <path id="path3916" style="opacity:.6;color:#000000;fill:#fff" d="m62 79v1c0 1.662 1.338 3 3 3h14c1.662 0 3-1.338 3-3v-1c0 1.662-1.338 3-3 3h-14c-1.662 0-3-1.338-3-3z"/>
   <path id="path3918" style="opacity:.6;color:#000000;fill:#fff" d="m14 55v1c0 1.662 1.338 3 3 3h14c1.662 0 3-1.338 3-3v-1c0 1.662-1.338 3-3 3h-14c-1.662 0-3-1.338-3-3z"/>
   <path id="path3920" style="opacity:.6;color:#000000;fill:#fff" d="m38 55v1c0 1.662 1.338 3 3 3h14c1.662 0 3-1.338 3-3v-1c0 1.662-1.338 3-3 3h-14c-1.662 0-3-1.338-3-3z"/>
   <path id="path3922" style="opacity:.6;color:#000000;fill:#fff" d="m14 31v1c0 1.662 1.338 3 3 3h14c1.662 0 3-1.338 3-3v-1c0 1.662-1.338 3-3 3h-14c-1.662 0-3-1.338-3-3z"/>
   <path id="rect3944" style="opacity:.1;color:#000000" d="m17 14c-1.662 0-3 1.338-3 3v14c0 1.662 1.338 3 3 3h14c1.662 0 3-1.338 3-3v-14c0-1.662-1.338-3-3-3h-14zm0 1.0312h14c1.1055 0 1.9688 0.8632 1.9688 1.9688v14c0 1.1055-0.8632 1.9688-1.9688 1.9688h-14c-1.1055 0-1.9688-0.8632-1.9688-1.9688v-14c0-1.1055 0.8632-1.9688 1.9688-1.9688zm0 22.969c-1.662 0-3 1.338-3 3v14c0 1.662 1.338 3 3 3h14c1.662 0 3-1.338 3-3v-14c0-1.662-1.338-3-3-3h-14zm24 0c-1.662 0-3 1.338-3 3v14c0 1.662 1.338 3 3 3h14c1.662 0 3-1.338 3-3v-14c0-1.662-1.338-3-3-3h-14zm-24 1.0312h14c1.1055 0 1.9688 0.8632 1.9688 1.9688v14c0 1.1055-0.8632 1.9688-1.9688 1.9688h-14c-1.1055 0-1.9688-0.8632-1.9688-1.9688v-14c0-1.1055 0.8632-1.9688 1.9688-1.9688zm24 0h14c1.1055 0 1.9688 0.8632 1.9688 1.9688v14c0 1.1055-0.8632 1.9688-1.9688 1.9688h-14c-1.1055 0-1.9688-0.8632-1.9688-1.9688v-14c0-1.1055 0.8632-1.9688 1.9688-1.9688zm-24 22.969c-1.662 0-3 1.338-3 3v14c0 1.662 1.338 3 3 3h14c1.662 0 3-1.338 3-3v-14c0-1.662-1.338-3-3-3h-14zm24 0c-1.662 0-3 1.338-3 3v14c0 1.662 1.338 3 3 3h14c1.662 0 3-1.338 3-3v-14c0-1.662-1.338-3-3-3h-14zm24 0c-1.662 0-3 1.338-3 3v14c0 1.662 1.338 3 3 3h14c1.662 0 3-1.338 3-3v-14c0-1.662-1.338-3-3-3h-14zm-48 1.0312h14c1.1055 0 1.9688 0.8632 1.9688 1.9688v14c0 1.1055-0.8632 1.9688-1.9688 1.9688h-14c-1.1055 0-1.9688-0.8632-1.9688-1.9688v-14c0-1.1055 0.8632-1.9688 1.9688-1.9688zm24 0h14c1.1055 0 1.9688 0.8632 1.9688 1.9688v14c0 1.1055-0.8632 1.9688-1.9688 1.9688h-14c-1.1055 0-1.9688-0.8632-1.9688-1.9688v-14c0-1.1055 0.8632-1.9688 1.9688-1.9688zm24 0h14c1.1055 0 1.9688 0.8632 1.9688 1.9688v14c0 1.1055-0.8632 1.9688-1.9688 1.9688h-14c-1.1055 0-1.9688-0.8632-1.9688-1.9688v-14c0-1.1055 0.8632-1.9688 1.9688-1.9688z"/>
  </g>
  <rect id="rect3003" style="opacity:.15;fill:#fff" clip-path="url(#clipPath3009)" rx="25" ry="25" transform="translate(98 3.8281e-7)" width="92" y="958.36" x="-96" height="92"/>
 </g>
</svg>
