<?xml version="1.0" encoding="UTF-8" standalone="no"?>
<!-- Created with Inkscape (http://www.inkscape.org/) -->
<svg id="svg11037" xmlns:rdf="http://www.w3.org/1999/02/22-rdf-syntax-ns#" xmlns="http://www.w3.org/2000/svg" height="96" width="96" version="1.1" xmlns:cc="http://creativecommons.org/ns#" xmlns:xlink="http://www.w3.org/1999/xlink" xmlns:dc="http://purl.org/dc/elements/1.1/">
 <defs id="defs11039">
  <linearGradient id="linearGradient11642" x1="48" gradientUnits="userSpaceOnUse" x2="48" gradientTransform="matrix(1.15 0 0 1.15 -7.1999 -150.65)" y1="962.62" y2="1046.1">
   <stop id="stop3702" style="stop-color:#ebebeb" offset="0"/>
   <stop id="stop3704" style="stop-color:#fafafa" offset="1"/>
  </linearGradient>
  <clipPath id="clipPath4049">
   <path id="path4051" style="fill:#f0f" d="m-88 6c-3.324 0-6 2.676-6 6v72c0 3.324 2.676 6 6 6h72c3.324 0 6-2.676 6-6v-72c0-3.324-2.676-6-6-6h-72zm55.938 22 8 8l-31.938 31.938-19.938-20.063 7.938-7.937 12 12 23.938-23.938z"/>
  </clipPath>
  <filter id="filter4053" width="1.2549" y="-.16552" x="-.12743" height="1.331" color-interpolation-filters="sRGB">
   <feGaussianBlur id="feGaussianBlur4055" stdDeviation="2.7540384"/>
  </filter>
  <linearGradient id="linearGradient3985" y2="28" gradientUnits="userSpaceOnUse" y1="68" x2="49" x1="49">
   <stop id="stop3699" style="stop-color:#bababa" offset="0"/>
   <stop id="stop3701" style="stop-color:#d2d2d2" offset="1"/>
  </linearGradient>
  <clipPath id="clipPath3009" clipPathUnits="userSpaceOnUse">
   <path id="path3011" style="opacity:.15;fill:#fff" d="m-2 956.36h-96v33.562l96 25.687v-59.25z"/>
  </clipPath>
 </defs>
 <metadata id="metadata11042">
  <rdf:RDF>
   <cc:Work rdf:about="">
    <dc:format>image/svg+xml</dc:format>
    <dc:type rdf:resource="http://purl.org/dc/dcmitype/StillImage"/>
    <dc:title/>
   </cc:Work>
  </rdf:RDF>
 </metadata>
 <g id="layer1" transform="translate(0 -956.36)">
  <rect id="rect3867" style="fill:url(#linearGradient11642)" rx="25" ry="25" height="92" width="92" y="958.36" x="2"/>
  <g id="g3081" transform="translate(0 956.36)">
   <path id="path4040" style="opacity:.6;filter:url(#filter4053);stroke:#fff;stroke-width:2;fill:none" clip-path="url(#clipPath4049)" transform="translate(100)" d="m-75.934 47.868 7.934-7.934l12 12 23.934-23.934 8 8-31.934 31.934-19.934-20.066z"/>
   <path id="path3977" style="fill:url(#linearGradient3985)" d="m24.066 47.868 7.934-7.934l12 12 23.934-23.934 8 8-31.934 31.934-19.934-20.066z"/>
   <path id="path4022" style="opacity:.2" d="m67.938 28-23.938 23.938l-12-12-7.9375 7.9375 0.5 0.5 7.4375-7.4375 12 12 23.938-23.938 7.5 7.5 0.5-0.5-8-8z"/>
   <path id="path4031" style="fill:#fff" d="m75.438 36.5-31.438 31.438-19.438-19.563l-0.5 0.5 19.938 20.063 31.938-31.938-0.5-0.5z"/>
  </g>
  <rect id="rect3003" style="opacity:.15;fill:#fff" clip-path="url(#clipPath3009)" rx="25" ry="25" transform="translate(98 3.8281e-7)" width="92" y="958.36" x="-96" height="92"/>
 </g>
</svg>
