<?xml version="1.0" encoding="UTF-8" standalone="no"?>
<!-- Created with Inkscape (http://www.inkscape.org/) -->
<svg id="svg11037" xmlns:rdf="http://www.w3.org/1999/02/22-rdf-syntax-ns#" xmlns="http://www.w3.org/2000/svg" height="96" width="96" version="1.1" xmlns:cc="http://creativecommons.org/ns#" xmlns:xlink="http://www.w3.org/1999/xlink" xmlns:dc="http://purl.org/dc/elements/1.1/">
 <defs id="defs11039">
  <linearGradient id="linearGradient11642" x1="48" gradientUnits="userSpaceOnUse" x2="48" gradientTransform="matrix(1.15 0 0 1.15 -7.1999 -150.65)" y1="962.62" y2="1046.1">
   <stop id="stop3670" style="stop-color:#e5e6b5" offset="0"/>
   <stop id="stop3672" style="stop-color:#f6f6dc" offset="1"/>
  </linearGradient>
  <clipPath id="clipPath3794">
   <path id="path3796" style="fill:#f0f" d="m-98 6c-3.324 0-6 2.676-6 6v72c0 3.324 2.676 6 6 6h72c3.324 0 6-2.676 6-6v-72c0-3.324-2.676-6-6-6h-72zm46.031 12.5c2.8049 0.26798 4.1687 1.9943 5.6562 4.375l2.2188 4.2188 3.5-2.3438-6.5625 12.375-14.062 0.03125 4.4062-2.5625c-1.242-3.116-2.8936-6.6821-4.9688-9.7812-1.8579-2.7746-4.1119-5.1997-5.8125-6.2812l15.625-0.031zm-20.343 1.5c4.134 0.08768 6.7522 3.9378 8.5312 6.5625l-5.4375 11.156-12-8.0312 5.8125-9.0938c1.124-0.444 2.141-0.613 3.095-0.593zm33.968 16.156 5.469 11.844c0.1771 2.9846-4.3458 7.1261-7.1562 7.0938l-4.8125-0.03125-5.5938-11.125 12.094-7.7812zm-40.094 3.032 7.469 11.624-3.781-1.968-6.031 12.906c-0.85055 2.4291-0.90889 4.9375 0.0625 7.2812-6.7978-9.441-12.538-14.172-8-23.875l1.406-2.968-4.188-2.282 13.062-0.718zm25.656 13.906 0.03125 4.4688 13.562-0.03125c2.4224-0.27324 4.5558-1.3107 6.0938-3.2812-4.9086 10.685-6.3156 18.245-16.5 18.25h-3.1562l-0.03125 5-6.4375-12.125 6.4375-12.281zm-10.156 4-0.09375 15h-12.344c-2.5892-1.1624-4.0619-7.3374-2.7812-10l2.1875-4.5312 13.031-0.46875z"/>
  </clipPath>
  <filter id="filter3798" color-interpolation-filters="sRGB">
   <feGaussianBlur id="feGaussianBlur3800" stdDeviation="1.7644507"/>
  </filter>
  <linearGradient id="linearGradient3759" x1="62.136" gradientUnits="userSpaceOnUse" y1="103.96" gradientTransform="matrix(.75256 0 0 .80087 1.239 -3.2557)" x2="62.136" y2="24.043">
   <stop id="stop4362" style="stop-color:#4f821e" offset="0"/>
   <stop id="stop4364" style="stop-color:#639632" offset="1"/>
  </linearGradient>
  <clipPath id="clipPath3009" clipPathUnits="userSpaceOnUse">
   <path id="path3011" style="opacity:.15;fill:#fff" d="m-2 956.36h-96v33.562l96 25.687v-59.25z"/>
  </clipPath>
 </defs>
 <metadata id="metadata11042">
  <rdf:RDF>
   <cc:Work rdf:about="">
    <dc:format>image/svg+xml</dc:format>
    <dc:type rdf:resource="http://purl.org/dc/dcmitype/StillImage"/>
    <dc:title/>
   </cc:Work>
  </rdf:RDF>
 </metadata>
 <g id="layer1" transform="translate(0 -956.36)">
  <rect id="rect3867" style="fill:url(#linearGradient11642)" rx="25" ry="25" height="92" width="92" y="958.36" x="2"/>
  <g id="g3066" transform="translate(-3.9371e-7 956.36)">
   <path id="path3787" style="opacity:.6;filter:url(#filter3798);stroke:#fff;stroke-width:2;fill:none" clip-path="url(#clipPath3794)" transform="translate(110)" d="m-51.969 18.5-15.625 0.03125c1.7006 1.0815 3.9546 3.5067 5.8125 6.2812 2.0752 3.0991 3.7267 6.6652 4.9688 9.7812l-4.4062 2.5625 14.062-0.03125 6.5625-12.375-3.5 2.3438-2.2188-4.2188c-1.4876-2.3807-2.8513-4.107-5.6562-4.375zm-20.343 1.5c-0.954-0.02023-1.9707 0.14865-3.0938 0.59375l-5.8125 9.0938 12 8.0312 5.4375-11.156c-1.779-2.625-4.398-6.475-8.531-6.563zm33.969 16.156-12.094 7.7812 5.5938 11.125 4.8125 0.03125c2.809 0.033 7.332-4.108 7.155-7.093l-5.469-11.844zm-40.095 3.032-13.062 0.718l4.1875 2.2812-1.4062 2.9688c-4.5383 9.7026 1.2022 14.434 8 23.875-0.97139-2.3438-0.91305-4.8521-0.0625-7.2812l6.0312-12.906 3.7812 1.9688-7.4688-11.625zm25.656 13.906-6.4375 12.281 6.4375 12.125 0.03125-5h3.1562c10.184-0.0046 11.591-7.5645 16.5-18.25-1.538 1.9706-3.6714 3.008-6.0938 3.2812l-13.561 0.031-0.031-4.468zm-10.156 4-13.031 0.46875-2.1875 4.5312c-1.2806 2.6626 0.19208 8.8376 2.7812 10h12.344l0.09375-15z"/>
   <path id="path4068" style="fill:url(#linearGradient3759)" d="m58.031 18.5-15.625 0.03125c1.7006 1.0815 3.9546 3.5067 5.8125 6.2812 2.0752 3.0991 3.7267 6.6652 4.9688 9.7812l-4.4062 2.5625 14.062-0.03125 6.5625-12.375-3.5 2.3438-2.217-4.218c-1.488-2.381-2.852-4.107-5.657-4.375zm-19.343 0.5c-0.954-0.02023-1.9707 0.14865-3.0938 0.59375l-6.8125 10.094 12 8.0312 6.4375-12.156c-1.779-2.625-4.398-6.475-8.531-6.563zm32.969 17.156-12.094 7.7812 5.5938 12.125 4.8125 0.03125c2.809 0.033 7.332-4.108 7.155-7.093l-5.469-12.844zm-40.095 3.032-13.062 0.718l4.1875 2.2812-1.4062 2.9688c-4.5383 9.7026 1.2022 14.434 8 23.875-0.971-2.344-0.913-4.852-0.062-7.281l6.031-12.906 3.781 1.968-7.469-11.624zm25.656 13.906-6.4375 12.281 6.4375 12.125 0.03125-5h3.1562c10.184-0.0046 11.591-7.5645 16.5-18.25-1.538 1.9706-3.6714 3.008-6.0938 3.2812l-13.561 0.031-0.031-4.468zm-10.156 4-14.031 0.46875-2.1875 4.5312c-1.2806 2.6626 0.19208 8.8376 2.7812 10h13.344l0.09375-15z"/>
   <path id="path3802" style="opacity:.3" d="m58.031 18.5-15.625 0.03125c0.39959 0.25413 0.83287 0.6104 1.2812 1l14.344-0.031c2.8049 0.26798 4.1687 1.9943 5.6562 4.375l2.2188 4.2188 2.6875-1.7812 0.8125-1.5625-3.5 2.3438-2.218-4.219c-1.488-2.381-2.852-4.107-5.657-4.375zm-19.343 0.5c-0.954-0.02023-1.9707 0.14865-3.0938 0.59375l-6.813 10.094 0.469 0.312 6.344-9.406c1.123-0.445 2.14-0.614 3.094-0.594 3.913 0.08299 6.448 3.5301 8.2188 6.125l0.3125-0.5625c-1.78-2.624-4.399-6.474-8.532-6.562zm14.156 15.781-4.0625 2.375h1.7188l2.6875-1.5625c-0.10512-0.26374-0.23275-0.54287-0.34375-0.8125zm18.812 1.375-12.094 7.7812 0.34375 0.78125 11.75-7.5625 5.375 12.656c0.054-0.28 0.11-0.546 0.094-0.812l-5.469-12.844zm-40.094 3.032-13.062 0.718l1.6562 0.90625 11.406-0.625 6.5 10.125 0.96875 0.5-7.4688-11.625zm-9.25 3.7812-1.0312 2.1875c-1.2332 2.6365-1.6935 4.9034-1.5938 7 0.07138-1.8179 0.55372-3.7765 1.5938-6l1.4062-2.9688-0.375-0.21875zm34.906 10.125-6.4375 12.281 0.25 0.5 6.1875-11.781v-1zm19.688 1.156c-1.538 1.9706-3.6714 3.008-6.0938 3.2812l-13.562 0.031v1l13.562-0.03125c2.0015-0.22576 3.8159-0.97928 5.25-2.3438 0.28421-0.64654 0.53487-1.2651 0.84375-1.9375zm-29.844 2.8438-14.031 0.46875-2.1875 4.5312c-0.37588 0.7815-0.49463 1.8601-0.4375 3.0312 0.04406-0.77425 0.17307-1.4815 0.4375-2.0312l2.1875-4.5312 14.031-0.46875v-1zm-18.468 8.656c-0.05822 0.87064 0.0111 1.7391 0.1875 2.5938 0.17225 0.23537 0.32621 0.44614 0.5 0.6875-0.44374-1.0707-0.65087-2.1652-0.6875-3.2812z"/>
   <path id="path3811" style="opacity:.6;fill:#fff" d="m42.406 19.531c1.7006 1.0815 3.9546 3.5067 5.8125 6.2812 1.8995 2.8368 3.4246 6.0527 4.625 8.9688l0.34375-0.1875c-1.243-3.116-2.894-6.682-4.969-9.782-1.422-2.122-3.072-4.012-4.531-5.281h-1.2812zm27 6.2188-0.8125 0.5625-5.75 10.812-12.344 0.03125-1.7188 1 14.062-0.03125 6.5625-12.375zm-22.5 0.375-6.125 11.594l-11.531-7.719-0.46875 0.6875 12 8.0312 6.4375-12.156c-0.09511-0.14032-0.21249-0.29094-0.3125-0.4375zm-26.75 14.688-1.6562 0.09375 3.8125 2.0625 0.375-0.78125-2.5312-1.375zm39.75 3.9062-0.34375 0.21875 5.5938 12.125 4.8125 0.03125c2.811 0.032 7.334-4.109 7.157-7.094l-0.09375-0.1875c-0.5547 2.868-4.5022 6.3107-7.0625 6.2812l-4.8125-0.03125-5.25-11.344zm-24.656 4.125-6.031 12.906c-0.46201 1.3195-0.66855 2.6728-0.625 4 0.06698-1.0016 0.27772-2.0082 0.625-3l6.031-12.906 3.781 1.968-0.969-1.5-2.812-1.468zm-15.562 3.3125c-0.24009 6.1147 4.3538 10.598 9.5938 17.875-0.23002-0.555-0.3823-1.1173-0.5-1.6875-4.735-6.47-8.837-10.766-9.094-16.188zm57.218 3.094c-0.267 0.342-0.542 0.651-0.844 0.938-4.232 9.628-6.112 16.308-15.656 16.312h-3.1562v1h3.1562c10.184-0.0046 11.591-7.5645 16.5-18.25zm-46.5 9.875c-0.16931 2.9754 1.1642 7.0464 3.2188 7.9688h13.344v-1h-13.344c-1.829-0.821-3.081-4.15-3.219-6.969zm20.625 0.75-0.25 0.5 6.4375 12.125v-1l-6.1875-11.625z"/>
  </g>
  <rect id="rect3003" style="opacity:.15;fill:#fff" clip-path="url(#clipPath3009)" rx="25" ry="25" transform="translate(98 3.8281e-7)" width="92" y="958.36" x="-96" height="92"/>
 </g>
</svg>
