<?xml version="1.0" encoding="UTF-8" standalone="no"?>
<!-- Created with Inkscape (http://www.inkscape.org/) -->
<svg id="svg11037" xmlns:rdf="http://www.w3.org/1999/02/22-rdf-syntax-ns#" xmlns="http://www.w3.org/2000/svg" height="96" width="96" version="1.1" xmlns:cc="http://creativecommons.org/ns#" xmlns:xlink="http://www.w3.org/1999/xlink" xmlns:dc="http://purl.org/dc/elements/1.1/">
 <defs id="defs11039">
  <linearGradient id="linearGradient11642" x1="48" gradientUnits="userSpaceOnUse" x2="48" gradientTransform="matrix(1.15 0 0 1.15 -7.1999 -150.65)" y1="962.62" y2="1046.1">
   <stop id="stop3702" style="stop-color:#ebebeb" offset="0"/>
   <stop id="stop3704" style="stop-color:#fafafa" offset="1"/>
  </linearGradient>
  <linearGradient id="linearGradient2937" x1="71.672" gradientUnits="userSpaceOnUse" y1="62.025" gradientTransform="matrix(1.3333 0 0 1.3333 -50.402 -11.13)" x2="71.672" y2="26.414">
   <stop id="stop3699" style="stop-color:#bababa" offset="0"/>
   <stop id="stop3701" style="stop-color:#d2d2d2" offset="1"/>
  </linearGradient>
  <clipPath id="clipPath3730">
   <path id="path3732" style="fill:#f0f" d="m-88 6c-3.324 0-6 2.676-6 6v72c0 3.324 2.676 6 6 6h72c3.324 0 6-2.676 6-6v-72c0-3.324-2.676-6-6-6h-72zm38.656 18c1.6457 0.000047 3.0294 0.55915 4.1875 1.6562 1.1784 1.0972 1.75 2.4247 1.75 3.9688-0.00002 1.5442-0.57161 2.8716-1.75 3.9688-1.1581 1.0769-2.5418 1.625-4.1875 1.625-1.6457 0.000035-3.0716-0.54814-4.25-1.625-1.1784-1.0971-1.75-2.4246-1.75-3.9688-0.000011-1.5441 0.57158-2.8716 1.75-3.9688 1.1784-1.0971 2.6043-1.6562 4.25-1.6562zm-5.5938 16.25c2.4178 0.000031 4.2934 0.60287 5.5938 1.7812 1.3206 1.1581 1.9375 2.6933 1.9375 4.5625-0.000026 0.38606-0.02343 1.056-0.125 2.0312-0.08128 0.97526-0.25621 1.8436-0.5 2.6562l-2.5 8.875c-0.20319 0.71112-0.36872 1.5232-0.53125 2.4375-0.16256 0.91429-0.25002 1.5952-0.25 2.0625-0.000015 1.1784 0.25298 2.0108 0.78125 2.4375 0.52824 0.42667 1.4497 0.625 2.75 0.625 0.60951 0 1.3217-0.1093 2.0938-0.3125 0.77204-0.2235 1.3108-0.39995 1.6562-0.5625l-0.65625 2.75c-2.0114 0.79238-3.645 1.3749-4.8438 1.7812-1.1987 0.42667-2.5715 0.625-4.1562 0.625-2.4381 0-4.3575-0.57159-5.7188-1.75-1.341-1.1987-2-2.7027-2-4.5312-0.000005-0.7111 0.0859-1.4561 0.1875-2.1875 0.10159-0.75173 0.214-1.5966 0.4375-2.5312l2.5-8.875c0.22348-0.85331 0.42027-1.6545 0.5625-2.4062 0.16253-0.77204 0.24999-1.4639 0.25-2.0938-0.000008-1.1378-0.25146-1.928-0.71875-2.375-0.46731-0.44696-1.3356-0.71872-2.6562-0.71875-0.65016 0.000026-1.3092 0.14062-2 0.34375-0.67048 0.2032-1.2624 0.41092-1.75 0.59375l0.65625-2.75c1.6457-0.67045 3.2465-1.2514 4.75-1.7188 1.5035-0.48759 2.909-0.74997 4.25-0.75z"/>
  </clipPath>
  <filter id="filter3738" width="1.4699" y="-.10381" x="-.23495" height="1.2076" color-interpolation-filters="sRGB">
   <feGaussianBlur id="feGaussianBlur3740" stdDeviation="2.07625"/>
  </filter>
  <clipPath id="clipPath3009" clipPathUnits="userSpaceOnUse">
   <path id="path3011" style="opacity:.15;fill:#fff" d="m-2 956.36h-96v33.562l96 25.687v-59.25z"/>
  </clipPath>
 </defs>
 <metadata id="metadata11042">
  <rdf:RDF>
   <cc:Work rdf:about="">
    <dc:format>image/svg+xml</dc:format>
    <dc:type rdf:resource="http://purl.org/dc/dcmitype/StillImage"/>
    <dc:title/>
   </cc:Work>
  </rdf:RDF>
 </metadata>
 <g id="layer1" transform="translate(0 -956.36)">
  <rect id="rect3867" style="fill:url(#linearGradient11642)" rx="25" ry="25" height="92" width="92" y="958.36" x="2"/>
  <g id="g3079" transform="translate(1.8311e-7 956.36)">
   <path id="path3659" style="fill:url(#linearGradient2937)" d="m50.646 24c-1.6457 0.000047-3.0716 0.56957-4.25 1.6667-1.1784 1.0972-1.75 2.4142-1.75 3.9583-0.000011 1.5442 0.57158 2.8612 1.75 3.9583 1.1784 1.0769 2.6043 1.625 4.25 1.625 1.6457 0.000035 3.0502-0.54814 4.2083-1.625 1.1784-1.0971 1.75-2.4142 1.75-3.9583-0.00002-1.5441-0.57161-2.8611-1.75-3.9583-1.158-1.096-2.562-1.666-4.208-1.666zm-5.584 16.25c-1.341 0.000031-2.7465 0.26241-4.25 0.75-1.5035 0.46733-3.1043 1.0379-4.75 1.7083l-0.66667 2.75c0.48762-0.18283 1.0795-0.38013 1.75-0.58333 0.69079-0.20314 1.3498-0.33331 2-0.33333 1.3206 0.000026 2.1994 0.26137 2.6667 0.70833 0.46729 0.44701 0.70833 1.2372 0.70833 2.375-0.000007 0.62986-0.08747 1.3113-0.25 2.0833-0.14223 0.75177-0.31818 1.5634-0.54167 2.4167l-2.5 8.875c-0.2235 0.93462-0.35675 1.7899-0.45833 2.5417-0.1016 0.73144-0.16667 1.4556-0.16667 2.1667-0.000004 1.8286 0.65904 3.3429 2 4.5417 1.3613 1.1784 3.2702 1.75 5.7083 1.75 1.5847 0 2.9679-0.19833 4.1667-0.625 1.1987-0.40635 2.8219-0.99929 4.8333-1.7917l0.66667-2.75c-0.34542 0.16255-0.89462 0.35984-1.6667 0.58333-0.77208 0.2032-1.4738 0.29167-2.0833 0.29167-1.3003 0-2.2218-0.19833-2.75-0.625-0.52827-0.42666-0.79168-1.2382-0.79167-2.4167-0.000015-0.4673 0.08744-1.169 0.25-2.0833 0.16252-0.91428 0.33848-1.7055 0.54167-2.4167l2.5-8.875c0.24379-0.81268 0.41872-1.6914 0.5-2.6667 0.10157-0.97522 0.12497-1.6556 0.125-2.0417-0.00002-1.8692-0.63772-3.3835-1.9583-4.5417-1.299-1.178-3.165-1.791-5.583-1.791z"/>
   <path id="path3702" style="opacity:.2" d="m50.656 24c-1.6457 0.000047-3.0716 0.55915-4.25 1.6562-1.1784 1.0972-1.75 2.4247-1.75 3.9688-0.000001 0.15026 0.02039 0.29154 0.03125 0.4375 0.12551-1.3015 0.68763-2.4462 1.7188-3.4062 1.1784-1.0971 2.6043-1.6562 4.25-1.6562 1.6457 0.000047 3.0294 0.55915 4.1875 1.6562 1.0311 0.96004 1.5932 2.1047 1.7188 3.4062 0.01086-0.14596 0.03125-0.28724 0.03125-0.4375-0.00002-1.5441-0.57161-2.8716-1.75-3.9688-1.158-1.097-2.542-1.656-4.188-1.656zm-5.594 16.25c-1.341 0.000031-2.7465 0.26241-4.25 0.75-1.5035 0.46733-3.1043 1.0483-4.75 1.7188l-0.65625 2.75c0.07042-0.0264 0.17531-0.06677 0.25-0.09375l0.40625-1.6562c1.6457-0.67045 3.2465-1.2514 4.75-1.7188 1.5035-0.48759 2.909-0.74997 4.25-0.75 2.4178 0.000031 4.2934 0.60287 5.5938 1.7812 1.2682 1.1122 1.8888 2.5758 1.9375 4.3438 0.01855-0.34026-0.000013-0.58822 0-0.78125-0.00002-1.8692-0.61688-3.4044-1.9375-4.5625-1.3-1.179-3.176-1.782-5.594-1.782zm-2.562 7.938c-0.03465 0.47585-0.10191 0.97625-0.21875 1.5312-0.14223 0.75177-0.33902 1.5529-0.5625 2.4062l-2.5 8.875c-0.2235 0.93462-0.33591 1.7795-0.4375 2.5312-0.1016 0.73144-0.1875 1.4764-0.1875 2.1875 0 0.18513 0.01772 0.35256 0.03125 0.53125 0.02089-0.56282 0.07643-1.1441 0.15625-1.7188 0.10159-0.75173 0.214-1.5966 0.4375-2.5312l2.5-8.875c0.22348-0.85331 0.42027-1.6545 0.5625-2.4062 0.16253-0.77204 0.24999-1.4639 0.25-2.0938-0.000001-0.15918-0.02185-0.29192-0.03125-0.4375zm6.2188 16.938c-0.01574 0.18425-0.03126 0.38952-0.03125 0.53125-0.000015 1.1784 0.25298 2.0108 0.78125 2.4375 0.52824 0.42667 1.4497 0.625 2.75 0.625 0.60951 0 1.3217-0.1093 2.0938-0.3125 0.62528-0.18101 1.0632-0.32665 1.4062-0.46875l0.25-1.0938c-0.34542 0.16255-0.88421 0.339-1.6562 0.5625-0.77208 0.2032-1.4842 0.3125-2.0938 0.3125-1.3003 0-2.2218-0.19833-2.75-0.625-0.45214-0.36517-0.685-1.051-0.75-1.9688z"/>
   <path id="path3712" style="fill:#fff" d="m44.688 30.188c-0.01086 0.14596-0.03125 0.28725-0.03125 0.4375-0.000011 1.5442 0.57158 2.8716 1.75 3.9688 1.1784 1.0769 2.6043 1.625 4.25 1.625 1.6457 0.000035 3.0294-0.54814 4.1875-1.625 1.1784-1.0971 1.75-2.4246 1.75-3.9688-0.000002-0.15025-0.02039-0.29154-0.03125-0.4375-0.12553 1.3016-0.68766 2.4463-1.7188 3.4062-1.1581 1.0769-2.5418 1.625-4.1875 1.625-1.6457 0.000035-3.0716-0.54814-4.25-1.625-1.0311-0.95997-1.5932-2.1047-1.7188-3.4062zm-5.5312 14.344c-0.65016 0.000026-1.3092 0.14062-2 0.34375-0.57365 0.17386-1.0575 0.34015-1.5 0.5l-0.25 1.0938c0.48762-0.18283 1.0795-0.39055 1.75-0.59375 0.69079-0.20314 1.3498-0.34372 2-0.34375 1.3206 0.000026 2.1889 0.27179 2.6562 0.71875 0.40192 0.38447 0.62974 1.0425 0.6875 1.9375 0.01355-0.18609 0.03125-0.38543 0.03125-0.5625-0.000008-1.1378-0.25146-1.928-0.71875-2.375-0.46731-0.44696-1.3356-0.71872-2.6562-0.71875zm13.438 2.9062c-0.01884 0.33034-0.07673 0.72403-0.125 1.1875-0.08128 0.97526-0.25621 1.8436-0.5 2.6562l-2.5 8.875c-0.20319 0.71112-0.36872 1.5232-0.53125 2.4375-0.16256 0.91429-0.25002 1.5952-0.25 2.0625-0.000002 0.16983 0.02031 0.31421 0.03125 0.46875 0.03616-0.42324 0.10549-0.89426 0.21875-1.5312 0.16252-0.91428 0.32806-1.7264 0.53125-2.4375l2.5-8.875c0.24379-0.81268 0.41872-1.681 0.5-2.6562 0.10157-0.97522 0.12497-1.6452 0.125-2.0312-0.000001-0.05299 0.001-0.10383 0-0.15625zm-13.97 18.937c-0.0031 0.11258-0.03125 0.23179-0.03125 0.34375-0.000004 1.8286 0.65904 3.3325 2 4.5312 1.3613 1.1784 3.2806 1.75 5.7188 1.75 1.5847 0 2.9575-0.19833 4.1562-0.625 1.1987-0.40635 2.8323-0.98888 4.8438-1.7812l0.65625-2.75c-0.06566 0.0309-0.16948 0.0604-0.25 0.09375l-0.407 1.656c-2.011 0.792-3.645 1.375-4.843 1.781-1.199 0.427-2.572 0.625-4.157 0.625-2.438 0-4.357-0.572-5.718-1.75-1.174-1.049-1.825-2.344-1.969-3.875z"/>
   <path id="path3721" style="opacity:.6;filter:url(#filter3738);stroke:#fff;stroke-width:2;fill:none" clip-path="url(#clipPath3730)" transform="translate(100)" d="m-49.354 24c-1.6457 0.000047-3.0716 0.56957-4.25 1.6667-1.1784 1.0972-1.75 2.4142-1.75 3.9583-0.000011 1.5442 0.57158 2.8612 1.75 3.9583 1.1784 1.0769 2.6043 1.625 4.25 1.625 1.6457 0.000035 3.0502-0.54814 4.2083-1.625 1.1784-1.0971 1.75-2.4142 1.75-3.9583-0.00002-1.5441-0.57161-2.8611-1.75-3.9583-1.158-1.096-2.562-1.666-4.208-1.666zm-5.584 16.25c-1.341 0.000031-2.7465 0.26241-4.25 0.75-1.5035 0.46733-3.1043 1.0379-4.75 1.7083l-0.66667 2.75c0.48762-0.18283 1.0795-0.38013 1.75-0.58333 0.69079-0.20314 1.3498-0.33331 2-0.33333 1.3206 0.000026 2.1994 0.26137 2.6667 0.70833 0.46729 0.44701 0.70833 1.2372 0.70833 2.375-0.000007 0.62986-0.08747 1.3113-0.25 2.0833-0.14223 0.75177-0.31818 1.5634-0.54167 2.4167l-2.5 8.875c-0.2235 0.93462-0.35675 1.7899-0.45833 2.5417-0.1016 0.73144-0.16667 1.4556-0.16667 2.1667-0.000004 1.8286 0.65904 3.3429 2 4.5417 1.3613 1.1784 3.2702 1.75 5.7083 1.75 1.5847 0 2.9679-0.19833 4.1667-0.625 1.1987-0.40635 2.8219-0.99929 4.8333-1.7917l0.66667-2.75c-0.34542 0.16255-0.89462 0.35984-1.6667 0.58333-0.77208 0.2032-1.4738 0.29167-2.0833 0.29167-1.3003 0-2.2218-0.19833-2.75-0.625-0.52827-0.42666-0.79168-1.2382-0.79167-2.4167-0.000015-0.4673 0.08744-1.169 0.25-2.0833 0.16252-0.91428 0.33848-1.7055 0.54167-2.4167l2.5-8.875c0.24379-0.81268 0.41872-1.6914 0.5-2.6667 0.10157-0.97522 0.12497-1.6556 0.125-2.0417-0.00002-1.8692-0.63772-3.3835-1.9583-4.5417-1.299-1.178-3.165-1.791-5.583-1.791z"/>
  </g>
  <rect id="rect3003" style="opacity:.15;fill:#fff" clip-path="url(#clipPath3009)" rx="25" ry="25" transform="translate(98 3.8281e-7)" width="92" y="958.36" x="-96" height="92"/>
 </g>
</svg>
