<?xml version="1.0" encoding="UTF-8" standalone="no"?>
<!-- Created with Inkscape (http://www.inkscape.org/) -->
<svg id="svg11037" xmlns:rdf="http://www.w3.org/1999/02/22-rdf-syntax-ns#" xmlns="http://www.w3.org/2000/svg" height="96" width="96" version="1.1" xmlns:cc="http://creativecommons.org/ns#" xmlns:xlink="http://www.w3.org/1999/xlink" xmlns:dc="http://purl.org/dc/elements/1.1/">
 <defs id="defs11039">
  <linearGradient id="linearGradient11642" x1="48" gradientUnits="userSpaceOnUse" x2="48" gradientTransform="matrix(1.15 0 0 1.15 -7.1999 -150.65)" y1="962.62" y2="1046.1">
   <stop id="stop3702" style="stop-color:#ebebeb" offset="0"/>
   <stop id="stop3704" style="stop-color:#fafafa" offset="1"/>
  </linearGradient>
  <clipPath id="clipPath3948">
   <path id="path3950" style="fill:#f0f" d="m-88 6c-3.324 0-6 2.676-6 6v72c0 3.324 2.676 6 6 6h72c3.324 0 6-2.676 6-6v-72c0-3.324-2.676-6-6-6h-72zm31.844 12h8.3125c1.1806 0 2.125 0.98668 2.125 2.1875v4.2188c2.1111 0.56248 4.1231 1.4266 5.9688 2.5l3-3.0312c0.84911-0.84902 2.1964-0.86608 3.0312-0.03125l5.875 5.875c0.83485 0.83485 0.81786 2.1821-0.03125 3.0312l-3.0312 3c1.0734 1.8456 1.9375 3.8577 2.5 5.9688h4.2188c1.2008 0 2.1875 0.94436 2.1875 2.125v8.3125c0 1.1807-0.98667 2.125-2.1875 2.125h-4.2188c-0.56247 2.1111-1.4266 4.1231-2.5 5.9688l3.0312 3c0.84911 0.84911 0.86609 2.1964 0.03125 3.0312l-5.875 5.875c-0.83484 0.83492-2.1821 0.81786-3.0312-0.03125l-3-3.0312c-1.8456 1.0734-3.8577 1.9375-5.9688 2.5v4.2188c0 1.2008-0.94435 2.1875-2.125 2.1875h-8.3125c-1.1806 0-2.125-0.98667-2.125-2.1875v-4.2188c-2.1111-0.56248-4.1231-1.4266-5.9688-2.5l-3 3.0312c-0.84911 0.84902-2.1964 0.86608-3.0312 0.03125l-5.875-5.875c-0.41742-0.41742-0.6298-0.98183-0.625-1.5312 0.0047-0.54942 0.23169-1.0754 0.65625-1.5l3.0312-3c-1.0734-1.8456-1.9375-3.8577-2.5-5.9688h-4.2188c-1.2008 0-2.1875-0.94435-2.1875-2.125v-8.3125c0-1.1806 0.98667-2.125 2.1875-2.125h4.2188c0.56247-2.1111 1.4266-4.1231 2.5-5.9688l-3.0312-3c-0.84911-0.84911-0.86609-2.1964-0.03125-3.0312l5.875-5.875c0.83484-0.83493 2.1821-0.81786 3.0312 0.03125l3 3.0312c1.8456-1.0734 3.8577-1.9375 5.9688-2.5v-4.2188c0-1.2008 0.94436-2.1875 2.125-2.1875zm4.156 20.938c-5.0065 0-9.0625 4.056-9.0625 9.0625s4.056 9.0625 9.0625 9.0625 9.0625-4.056 9.0625-9.0625-4.056-9.0625-9.0625-9.0625z"/>
  </clipPath>
  <filter id="filter3952" width="1.288" y="-.144" x="-.144" height="1.288" color-interpolation-filters="sRGB">
   <feGaussianBlur id="feGaussianBlur3954" stdDeviation="3.6000051"/>
  </filter>
  <linearGradient id="linearGradient3919" x1="18" gradientUnits="userSpaceOnUse" y1="48" gradientTransform="matrix(0 -1 1 0 .0001905 96)" x2="78" y2="48">
   <stop id="stop3699" style="stop-color:#bababa" offset="0"/>
   <stop id="stop3701" style="stop-color:#d2d2d2" offset="1"/>
  </linearGradient>
  <clipPath id="clipPath3009" clipPathUnits="userSpaceOnUse">
   <path id="path3011" style="opacity:.15;fill:#fff" d="m-2 956.36h-96v33.562l96 25.687v-59.25z"/>
  </clipPath>
 </defs>
 <metadata id="metadata11042">
  <rdf:RDF>
   <cc:Work rdf:about="">
    <dc:format>image/svg+xml</dc:format>
    <dc:type rdf:resource="http://purl.org/dc/dcmitype/StillImage"/>
    <dc:title/>
   </cc:Work>
  </rdf:RDF>
 </metadata>
 <g id="layer1" transform="translate(0 -956.36)">
  <rect id="rect3867" style="fill:url(#linearGradient11642)" rx="25" ry="25" height="92" width="92" y="958.36" x="2"/>
  <g id="g3106" transform="translate(-4.0381e-8 956.36)">
   <path id="path3939" style="opacity:.6;filter:url(#filter3952);stroke:#fff;stroke-width:2;display:block;fill:none" clip-path="url(#clipPath3948)" transform="translate(100)" d="m-82 52.142c0 1.1807 0.9794 2.1366 2.1802 2.1366h4.2296c0.56247 2.1111 1.4121 4.1282 2.4855 5.9738l-3.0087 3.0087c-0.42456 0.42456-0.64941 0.93313-0.65407 1.4826-0.0048 0.54942 0.19304 1.1087 0.61047 1.5262l5.8866 5.8866c0.83484 0.83483 2.1596 0.8055 3.0087-0.04352l3.0087-3.0087c1.8456 1.0734 3.8628 1.923 5.9738 2.4855v4.2296c0 1.2008 0.95598 2.1802 2.1366 2.1802h8.2849c1.1806 0 2.1366-0.97941 2.1366-2.1802v-4.2296c2.1111-0.56248 4.1282-1.4121 5.9738-2.4855l3.0087 3.0087c0.84911 0.84911 2.1739 0.87844 3.0087 0.04352l5.8866-5.8866c0.83484-0.83483 0.80551-2.1596-0.0436-3.0087l-3.0087-3.0087c1.0734-1.8456 1.923-3.8628 2.4855-5.9738h4.2297c1.2008 0 2.1802-0.95598 2.1802-2.1366v-8.2849c0-1.1806-0.9794-2.1366-2.1802-2.1366h-4.2297c-0.56247-2.1111-1.4121-4.1282-2.4855-5.9738l3.0087-3.0087c0.84911-0.84911 0.87845-2.1739 0.0436-3.0087l-5.8866-5.8866c-0.83484-0.83484-2.1596-0.8055-3.0087 0.04352l-3.0087 3.0087c-1.8456-1.0734-3.8628-1.923-5.9738-2.4855v-4.2297c0-1.2008-0.95598-2.1802-2.1366-2.1802h-8.2849c-1.1806 0-2.1366 0.97942-2.1366 2.1802v4.2297c-2.1111 0.56247-4.1282 1.4121-5.9738 2.4855l-3.0087-3.0087c-0.84911-0.84911-2.1739-0.87845-3.0087-0.04352l-5.8866 5.8866c-0.83484 0.83485-0.80551 2.1596 0.0436 3.0087l3.0087 3.0087c-1.0734 1.8456-1.923 3.8628-2.4855 5.9738h-4.2296c-1.2008 0-2.1802 0.95598-2.1802 2.1366v8.2849zm20.93-4.1424c0-5.0065 4.0633-9.0698 9.0698-9.0698s9.0698 4.0632 9.0698 9.0698c0 5.0065-4.0633 9.0698-9.0698 9.0698s-9.0698-4.0633-9.0698-9.0698z"/>
   <g id="g3081">
    <path id="rect3267" style="display:block;fill:url(#linearGradient3919)" d="m18 52.142c0 1.1807 0.9794 2.1366 2.1802 2.1366h4.2296c0.56247 2.1111 1.4121 4.1282 2.4855 5.9738l-3.0087 3.0087c-0.42456 0.42456-0.64941 0.93313-0.65407 1.4826-0.0048 0.54942 0.19304 1.1087 0.61047 1.5262l5.8866 5.8866c0.83484 0.83483 2.1596 0.8055 3.0087-0.04352l3.0087-3.0087c1.8456 1.0734 3.8628 1.923 5.9738 2.4855v4.2296c0 1.2008 0.95598 2.1802 2.1366 2.1802h8.2849c1.1806 0 2.1366-0.97941 2.1366-2.1802v-4.2296c2.1111-0.56248 4.1282-1.4121 5.9738-2.4855l3.0087 3.0087c0.84911 0.84911 2.1739 0.87844 3.0087 0.04352l5.8866-5.8866c0.83484-0.83483 0.80551-2.1596-0.0436-3.0087l-3.0087-3.0087c1.0734-1.8456 1.923-3.8628 2.4855-5.9738h4.2297c1.2008 0 2.1802-0.95598 2.1802-2.1366v-8.2849c0-1.1806-0.9794-2.1366-2.1802-2.1366h-4.2297c-0.564-2.109-1.414-4.126-2.487-5.972l3.0087-3.0087c0.84911-0.84911 0.87845-2.1739 0.0436-3.0087l-5.8866-5.8866c-0.83484-0.83484-2.1596-0.8055-3.0087 0.04352l-3.0087 3.0087c-1.846-1.073-3.863-1.923-5.974-2.485v-4.2297c0-1.2008-0.95598-2.1802-2.1366-2.1802h-8.2849c-1.1806 0-2.1366 0.97942-2.1366 2.1802v4.2297c-2.1111 0.56247-4.1282 1.4121-5.9738 2.4855l-3.0087-3.0087c-0.84911-0.84911-2.1739-0.87845-3.0087-0.04352l-5.8866 5.8866c-0.83484 0.83485-0.80551 2.1596 0.0436 3.0087l3.0087 3.0087c-1.0734 1.8456-1.923 3.8628-2.4855 5.9738h-4.2296c-1.2008 0-2.1802 0.95598-2.1802 2.1366v8.2849zm20.93-4.1424c0-5.0065 4.0633-9.0698 9.0698-9.0698s9.0698 4.0632 9.0698 9.0698c0 5.0065-4.0633 9.0698-9.0698 9.0698s-9.0698-4.0633-9.0698-9.0698z"/>
    <path id="path3921" style="opacity:.2;display:block" d="m43.844 18c-1.1806 0-2.125 0.98668-2.125 2.1875v1c0-1.2008 0.94436-2.1875 2.125-2.1875h8.3125c1.1806 0 2.125 0.98668 2.125 2.1875v-1c0-1.201-0.944-2.188-2.125-2.188h-8.3125zm-12.625 5.2188c-0.54168-0.0091-1.0826 0.20753-1.5 0.625l-5.875 5.875c-0.54603 0.54604-0.71216 1.305-0.53125 2 0.08476-0.36282 0.24478-0.71353 0.53125-1l5.875-5.875c0.835-0.835 2.182-0.818 3.031 0.031l3 3.0312c1.8456-1.0734 3.8577-1.9375 5.9688-2.5v-1c-2.1111 0.56247-4.1231 1.4266-5.9688 2.5l-3-3.0312c-0.42456-0.42455-0.98956-0.64714-1.5312-0.65625zm33.562 0c-0.541 0.009-1.106 0.231-1.531 0.656l-3 3.0312c-1.8456-1.0734-3.8577-1.9375-5.9688-2.5v1c2.1111 0.56248 4.1231 1.4266 5.9688 2.5l3-3.0312c0.84911-0.84902 2.1964-0.86608 3.0312-0.03125l5.875 5.875c0.28647 0.28647 0.44649 0.63718 0.53125 1 0.18091-0.69503 0.01479-1.454-0.53125-2l-5.875-5.875c-0.41742-0.41742-0.95831-0.63411-1.5-0.625zm-38.219 13.187c-0.90352 1.6672-1.6585 3.4444-2.1562 5.3125h-4.2188c-1.2008 0-2.1875 0.94436-2.1875 2.125v1c0-1.1806 0.98667-2.125 2.1875-2.125h4.2188c0.56247-2.1111 1.4266-4.1231 2.5-5.9688l-0.345-0.343zm42.875 0-0.34375 0.34375c1.0734 1.8456 1.9375 3.8577 2.5 5.9688h4.2188c1.2008 0 2.1875 0.94436 2.1875 2.125v-1c0-1.1806-0.98667-2.125-2.1875-2.125h-4.2188c-0.497-1.868-1.252-3.646-2.155-5.313zm-30.468 12.094c-0.0089 0.16483-0.03125 0.33295-0.03125 0.5 0 5.0065 4.056 9.0625 9.0625 9.0625s9.0625-4.056 9.0625-9.0625c0-0.16705-0.02232-0.33517-0.03125-0.5-0.25874 4.7753-4.1918 8.5625-9.0312 8.5625-4.8395 0-8.7725-3.7872-9.0312-8.5625zm-12.407 12.094-2.687 2.656c-0.42456 0.42456-0.65159 0.95058-0.65625 1.5-0.0016 0.1798 0.05132 0.35465 0.09375 0.53125 0.09341-0.36845 0.26266-0.7314 0.5625-1.0312l3.0312-3c-0.123-0.212-0.226-0.439-0.344-0.656zm42.875 0c-0.11752 0.21685-0.22021 0.44383-0.34375 0.65625l3.0312 3c0.29374 0.29375 0.46681 0.66363 0.5625 1.0312 0.164-0.694-0.003-1.473-0.561-2.031l-2.6875-2.6562z"/>
    <path id="path3930" style="display:block;fill:#fff" d="m23.312 31.719c-0.16225 0.69455 0.0048 1.4735 0.5625 2.0312l2.6875 2.6562c0.11752-0.21685 0.22021-0.44383 0.34375-0.65625l-3.0312-3c-0.29374-0.29375-0.46681-0.66363-0.5625-1.0312zm49.375 0c-0.095 0.367-0.268 0.737-0.562 1.031l-3.0312 3c0.12354 0.21242 0.22623 0.4394 0.34375 0.65625l2.687-2.656c0.55775-0.55775 0.72475-1.3367 0.5625-2.0312zm-24.687 7.219c-5.0065 0-9.0625 4.056-9.0625 9.0625 0 0.16705 0.02232 0.33517 0.03125 0.5 0.25874-4.7753 4.1918-8.5625 9.0312-8.5625 4.8395 0 8.7725 3.7872 9.0312 8.5625 0.0089-0.16483 0.03125-0.33295 0.03125-0.5 0-5.0065-4.056-9.0625-9.0625-9.0625zm-30 13.219v1c0 1.1807 0.98667 2.125 2.1875 2.125h4.2188c0.49774 1.8681 1.2527 3.6453 2.1562 5.3125l0.343-0.344c-1.0734-1.8456-1.9375-3.8577-2.5-5.9688h-4.2188c-1.2 0-2.187-0.944-2.187-2.125zm60 0c0 1.1807-0.98667 2.125-2.1875 2.125h-4.2188c-0.56247 2.1111-1.4266 4.1231-2.5 5.9688l0.34375 0.34375c0.90352-1.6672 1.6585-3.4444 2.1562-5.3125h4.2188c1.2008 0 2.1875-0.94435 2.1875-2.125v-1zm-54.688 13.125c-0.03885 0.15325-0.09238 0.30736-0.09375 0.46875-0.0048 0.54942 0.20758 1.1138 0.625 1.5312l5.875 5.875c0.83484 0.83483 2.1821 0.81777 3.0312-0.03125l3-3.0312c1.8456 1.0734 3.8577 1.9375 5.9688 2.5v-1c-2.1111-0.56248-4.1231-1.4266-5.9688-2.5l-3 3.0312c-0.84911 0.84902-2.1964 0.86608-3.0312 0.03125l-5.875-5.875c-0.28082-0.28082-0.44403-0.63695-0.53125-1zm49.375 0c-0.08476 0.36282-0.24478 0.71354-0.53125 1l-5.875 5.875c-0.835 0.834-2.182 0.817-3.031-0.032l-3-3.0312c-1.8456 1.0734-3.8577 1.9375-5.9688 2.5v1c2.1111-0.56248 4.1231-1.4266 5.9688-2.5l3 3.0312c0.84911 0.84911 2.1964 0.86617 3.0312 0.03125l5.875-5.875c0.54603-0.54603 0.71216-1.305 0.53125-2zm-30.969 10.531v1c0 1.2008 0.94435 2.1875 2.125 2.1875h8.3125c1.1806 0 2.125-0.98667 2.125-2.1875v-1c0 1.2008-0.94435 2.1875-2.125 2.1875h-8.3125c-1.1806 0-2.125-0.98667-2.125-2.1875z"/>
   </g>
  </g>
  <rect id="rect3003" style="opacity:.15;fill:#fff" clip-path="url(#clipPath3009)" rx="25" ry="25" transform="translate(98 3.8281e-7)" width="92" y="958.36" x="-96" height="92"/>
 </g>
</svg>
