<?xml version="1.0" encoding="UTF-8" standalone="no"?>
<!-- Created with Inkscape (http://www.inkscape.org/) -->
<svg id="svg11037" xmlns:rdf="http://www.w3.org/1999/02/22-rdf-syntax-ns#" xmlns="http://www.w3.org/2000/svg" height="96" width="96" version="1.1" xmlns:cc="http://creativecommons.org/ns#" xmlns:xlink="http://www.w3.org/1999/xlink" xmlns:dc="http://purl.org/dc/elements/1.1/">
 <defs id="defs11039">
  <linearGradient id="linearGradient11642" x1="48" gradientUnits="userSpaceOnUse" x2="48" gradientTransform="matrix(1.15 0 0 1.15 -7.1999 -150.65)" y1="962.62" y2="1046.1">
   <stop id="stop3702" style="stop-color:#e6e6e6" offset="0"/>
   <stop id="stop3704" style="stop-color:#f5f5f5" offset="1"/>
  </linearGradient>
  <linearGradient id="linearGradient3724" x1="64" xlink:href="#linearGradient3763" gradientUnits="userSpaceOnUse" y1="60" gradientTransform="matrix(1.2318 0 0 1.2318 -157.82 7.1708)" x2="62" y2="7"/>
  <linearGradient id="linearGradient3763">
   <stop id="stop3765" style="stop-color:#f70" offset="0"/>
   <stop id="stop3767" style="stop-color:#ffb15d" offset="1"/>
  </linearGradient>
  <clipPath id="clipPath3716">
   <path id="path3718" style="fill:#f0f" d="m-118 6c-3.324 0-6 2.676-6 6v72c0 3.324 2.676 6 6 6h72c3.324 0 6-2.676 6-6v-72c0-3.324-2.676-6-6-6h-72zm42.531 9.4375s6.7428 6.7843-6.4375 17.188c-10.57 8.3484-2.4063 13.092 0 18.531-6.1703-5.5666-10.692-10.439-7.6562-15 4.4579-6.6937 16.822-9.9706 14.094-20.719zm8.125 13.344c-14.198 8.2338-11.546 10.6-8.125 15.406 3.6612 5.1562-4.3125 9.25-4.3125 9.25s3.9546-3.2268 0.8125-6.8438c-10.644-12.265 11.625-17.812 11.625-17.812zm3.5938 21.875c6.5984-0.33848 10.188 8.958-4.5938 12.844-0.000144 0 0.16215-0.19253 0.21875-0.34375 12.215-6.3458 6.5673-12.446 2.625-11.625-0.96404 0.20119-1.4062 0.375-1.4062 0.375s0.37857-0.57041 1.0625-0.8125c0.73117-0.25693 1.4112-0.40248 2.0938-0.4375zm-26.406 0.625c0.51912-0.01358 0.8125 0 0.8125 0s-11.829 2.8221-4.1875 3.8438c3.2277 0.4319 9.6308 0.3154 15.625-0.1875 4.8974-0.41102 9.8125-1.25 9.8125-1.25s-1.7194 0.70993-2.9688 1.5625c-12.017 3.1607-35.246 1.7002-28.562-1.5312 4.237-2.0497 7.9114-2.3968 9.4688-2.4375zm-1.9375 7.4062s-2.8236 2.0596 1.4375 2.5c5.5116 0.569 9.873 0.6373 17.406-0.8125 0 0 1.0505 1.0479 2.6875 1.625-15.408 4.5068-32.555 0.34636-21.531-3.3125zm1.5312 7.125s-2.4767 1.4491 1.7812 1.9375c5.1592 0.58902 7.8163 0.51185 13.5-0.5625 0 0 1.475 0.90751 3.5625 1.7188-12.746 5.4606-28.854-0.29683-18.844-3.0938zm-6.4688 4.7188c0.61452 0.02364 1.1458 0.14762 1.4688 0.375 0 0-0.85262-0.05906-2.2812 0.25-1.3702 0.29595-5.6961 1.6765-3.375 2.6875 6.4614 2.8106 29.707 2.1653 37.062-0.0625 3.868-1.1734 2.0312-2.7188 2.0312-2.7188 6.7392 3.0409-14.609 9.1494-40.594 4.9375-8.3374-1.353 1.3859-5.6342 5.6875-5.4688zm39.032 3.843c-0.42614 5.5473-18.434 6.7182-30.156 5.9688-7.7042-0.49584-9.1875-1.7188-9.1875-1.7188 7.3187 1.2084 19.65 1.4151 29.656-0.46875 8.87-1.668 9.688-3.781 9.688-3.781z"/>
  </clipPath>
  <filter id="filter3720" width="1.3393" y="-.12508" x="-.16966" height="1.2502" color-interpolation-filters="sRGB">
   <feGaussianBlur id="feGaussianBlur3722" stdDeviation="3.3931715"/>
  </filter>
  <linearGradient id="linearGradient3769" x1="64" xlink:href="#linearGradient3763" gradientUnits="userSpaceOnUse" y1="60" gradientTransform="matrix(1.2318 0 0 1.2318 -27.816 7.1708)" x2="62" y2="7"/>
  <clipPath id="clipPath3009" clipPathUnits="userSpaceOnUse">
   <path id="path3011" style="opacity:.15;fill:#fff" d="m-2 956.36h-96v33.562l96 25.687v-59.25z"/>
  </clipPath>
 </defs>
 <metadata id="metadata11042">
  <rdf:RDF>
   <cc:Work rdf:about="">
    <dc:format>image/svg+xml</dc:format>
    <dc:type rdf:resource="http://purl.org/dc/dcmitype/StillImage"/>
    <dc:title/>
   </cc:Work>
  </rdf:RDF>
 </metadata>
 <g id="layer1" transform="translate(0 -956.36)">
  <rect id="rect3867" style="fill:url(#linearGradient11642)" rx="25" ry="25" height="92" width="92" y="958.36" x="2"/>
  <g id="layer4" transform="translate(-2.4571e-7 956.36)">
   <path id="path3707" style="opacity:.6;fill-rule:evenodd;filter:url(#filter3720);stroke:#fff;stroke-width:2;fill:url(#linearGradient3724)" clip-path="url(#clipPath3716)" transform="translate(130)" d="m-75.476 15.447c2.7282 10.748-9.6311 14.016-14.089 20.71-3.0357 4.5607 1.4901 9.4462 7.6604 15.013-2.4063-5.4393-10.57-10.206 0-18.554 13.18-10.403 6.4286-17.169 6.4286-17.169zm8.1223 13.319c0.000144 0-22.269 5.5577-11.625 17.823 3.1421 3.6169-0.80838 6.852-0.80838 6.852s7.9725-4.0825 4.3114-9.2387c-3.4207-4.8062-6.0754-7.2025 8.1223-15.436zm3.6185 21.903c-0.68259 0.03502-1.386 0.16651-2.1172 0.42344-0.68393 0.24209-1.0394 0.80838-1.0394 0.80838s0.42176-0.18376 1.3858-0.38494c3.9423-0.82146 9.5975 5.2796-2.6176 11.625-0.0566 0.15122-0.23111 0.34645-0.23097 0.34645 14.782-3.8858 11.218-13.157 4.6193-12.819zm-26.407 0.61591c-1.5573 0.04074-5.2327 0.37542-9.4696 2.4252-6.683 3.2314 16.546 4.7005 28.563 1.5398 1.2493-0.85257 2.9641-1.5783 2.9641-1.5783s-4.9187 0.8593-9.8161 1.2703c-5.9942 0.5029-12.401 0.62437-15.629 0.19247-7.6419-1.0216 4.1959-3.8494 4.1959-3.8494s-0.28927-0.01358-0.80838 0zm-1.9632 7.3909c-11.024 3.6589 6.1493 7.8173 21.557 3.3105-1.637-0.57707-2.6946-1.6168-2.6946-1.6168-7.5333 1.4498-11.888 1.3774-17.399 0.80838-4.2611-0.4404-1.4628-2.5021-1.4628-2.5021zm1.5398 7.1215c-10.01 2.7969 6.1168 8.5787 18.862 3.1181-2.0875-0.81124-3.58-1.7323-3.58-1.7323-5.6837 1.0744-8.3524 1.1664-13.512 0.57742-4.258-0.48836-1.7707-1.9632-1.7707-1.9632zm-6.4671 4.7348c-4.3016-0.16549-14.035 4.1132-5.6972 5.4662 25.985 4.2119 47.351-1.8864 40.612-4.9273 0 0 1.8278 1.5212-2.0402 2.6946-7.355 2.2278-30.609 2.8876-37.07 0.07699-2.3211-1.011 2.0174-2.3987 3.3875-2.6946 1.4286-0.30906 2.2712-0.23097 2.2712-0.23097-0.3229-0.22738-0.84827-0.3613-1.4628-0.38494zm39.033 3.849s-0.83098 2.1039-9.7006 3.7725c-10.006 1.8839-22.322 1.6704-29.641 0.46193 0 0 1.4959 1.2364 9.2002 1.7323 11.723 0.749 29.716-0.42 30.142-5.967z"/>
   <path id="path2907" style="fill-rule:evenodd;fill:url(#linearGradient3769)" d="m54.524 15.447c2.7282 10.748-9.6311 14.016-14.089 20.71-3.0357 4.5607 1.4901 9.4462 7.6604 15.013-2.4063-5.4393-10.57-10.206 0-18.554 13.18-10.403 6.4286-17.169 6.4286-17.169zm8.1223 13.319c0.000144 0-22.269 5.5577-11.625 17.823 3.1421 3.6169-0.80838 6.852-0.80838 6.852s7.9725-4.0825 4.3114-9.2387c-3.4207-4.8062-6.0754-7.2025 8.1223-15.436zm3.6185 21.903c-0.68259 0.03502-1.386 0.16651-2.1172 0.42344-0.68393 0.24209-1.0394 0.80838-1.0394 0.80838s0.42176-0.18376 1.3858-0.38494c3.9423-0.82146 9.5975 5.2796-2.6176 11.625-0.0566 0.15122-0.23111 0.34645-0.23097 0.34645 14.782-3.8858 11.218-13.157 4.6193-12.819zm-26.407 0.616c-1.5573 0.04074-5.2327 0.37542-9.4696 2.4252-6.683 3.2314 16.546 4.7005 28.563 1.5398 1.2493-0.85257 2.9641-1.5783 2.9641-1.5783s-4.9187 0.8593-9.8161 1.2703c-5.9942 0.5029-12.401 0.62437-15.629 0.19247-7.6419-1.0216 4.1959-3.8494 4.1959-3.8494s-0.28927-0.01358-0.80838 0zm-1.9632 7.3909c-11.024 3.6589 6.1493 7.8173 21.557 3.3105-1.637-0.57707-2.6946-1.6168-2.6946-1.6168-7.5333 1.4498-11.888 1.3774-17.399 0.80838-4.2611-0.4404-1.4628-2.5021-1.4628-2.5021zm1.5398 7.1215c-10.01 2.7969 6.1168 8.5787 18.862 3.1181-2.0875-0.81124-3.58-1.7323-3.58-1.7323-5.6837 1.0744-8.3524 1.1664-13.512 0.57742-4.258-0.48836-1.7707-1.9632-1.7707-1.9632zm-6.4671 4.7348c-4.3016-0.16549-14.035 4.1132-5.6972 5.4662 25.985 4.2119 47.351-1.8864 40.612-4.9273 0 0 1.8278 1.5212-2.0402 2.6946-7.355 2.2278-30.609 2.8876-37.07 0.07699-2.3211-1.011 2.0174-2.3987 3.3875-2.6946 1.4286-0.30906 2.2712-0.23097 2.2712-0.23097-0.3229-0.22738-0.84827-0.3613-1.4628-0.38494zm39.033 3.849s-0.83098 2.1039-9.7006 3.7725c-10.006 1.8839-22.322 1.6704-29.641 0.46193 0 0 1.4959 1.2364 9.2002 1.7323 11.723 0.749 29.716-0.42 30.142-5.967z"/>
   <path id="path3783" style="opacity:.8;fill:#fff;fill-rule:evenodd" d="m54.531 16.438c0.20869 0.82215 0.30133 1.6043 0.34375 2.3438 0.02439-0.63559 0.0086-1.3012-0.09375-2-0.0043-0.0056 0.0042-0.02577 0-0.03125-0.15887-0.20531-0.25-0.3125-0.25-0.3125zm1.6875 4.3125c-0.17824 2.9532-1.9684 7.0155-8.125 11.875-4.1899 3.3094-5.422 6.0513-5.25 8.5 0.20094-2.1961 1.6167-4.6302 5.25-7.5 6.8808-5.431 8.3121-9.8719 8.125-12.875zm6.4375 9.0312c0.000036 0-1.3911 0.31857-3.3125 1.0312-0.02733 0.01749-0.0666 0.01382-0.09375 0.03125-6.0321 3.8739-7.7185 6.308-7.4062 8.5312 0.32382-2.3571 3.063-5.0995 10.812-9.5938zm-23.156 10.031c-0.28507 3.7972 3.6069 7.8448 8.5938 12.344-0.30078-0.67992-0.69214-1.3328-1.125-2-0.02-0.031-0.042-0.063-0.063-0.094-3.978-3.678-7.063-7.056-7.406-10.25zm8.6875 0.90625c-0.16591 2.0012 0.59848 4.2877 2.8438 6.875 0.72647 0.83625 1.0516 1.6461 1.1562 2.4062 0.12917-1.0227-0.0977-2.1877-1.1562-3.4062-1.8735-2.159-2.7088-4.1254-2.8438-5.875zm7.25 6.7188c-0.26784 2.237-2.2638 4.0376-3.7188 5.0625-0.59896 1.1847-1.5 1.9375-1.5 1.9375s5.7485-2.9441 5.2188-7zm10.812 4.219c-0.68259 0.03502-1.3626 0.18057-2.0938 0.4375-0.68393 0.24209-1.0625 0.8125-1.0625 0.8125s0.44221-0.17381 1.4062-0.375c1.9711-0.41073 4.3703 0.9092 4.75 3.125 0.21593-2.0248-1.1722-3.49-2.8125-4-0.06131 0.0015-0.12564-0.0032-0.1875 0zm-26.406 0.625c-0.87376 0.02286-2.4114 0.16609-4.3438 0.625-1.3062 0.56901-2.1104 1.1984-1.2188 1.6875 1.3969-1.1178 6.375-2.3125 6.375-2.3125s-0.29338-0.01358-0.8125 0zm22.062 2.4062s-1.214 0.18218-2.7188 0.40625c-0.08234 0.05285-0.17084 0.10223-0.25 0.15625-9.8176 2.5822-27.108 2.0657-29.469 0.03125-2.9107 2.8124 18.203 3.9319 29.469 0.96875 1.2493-0.85257 2.9688-1.5625 2.9688-1.5625zm10.032 1.063c-0.24042 2.3064-2.3265 4.9183-7.375 6.8125-0.7839 0.52417-1.6644 1.0622-2.6875 1.5938-0.058 0.151-0.22 0.344-0.22 0.344 8.069-2.121 10.655-5.858 10.282-8.75zm-34.032 3.938c-0.321 0.106-0.632 0.205-0.906 0.312 0.0025 0.14514 0.04446 0.30103 0.15625 0.4375 0.26278-0.43336 0.75-0.75 0.75-0.75zm-3.344 1.906c-1.721 2.933 12.16 5.125 24.876 1.406-0.531-0.187-0.952-0.423-1.344-0.656-10.827 2.802-22.076 1.525-23.532-0.75zm4.875 5.2188c-0.22428 0.06267-0.42663 0.122-0.625 0.1875 0.04321 0.05914 0.1099 0.09891 0.1875 0.15625 0.20403-0.21294 0.4375-0.34375 0.4375-0.34375zm-2.9688 1.5938c-1.687 2.8256 11.218 6.0392 21.812 1.5-0.43233-0.16801-0.81418-0.33173-1.1875-0.5-9.0679 3.3471-19.324 1.368-20.625-1zm-3.5 3.125c-0.952-0.037-2.176 0.149-3.406 0.468-1.1065 0.49168-1.9396 1.1162-1.1562 1.6562 0.0055-0.0049 0.0256 0.0049 0.03125 0 0.80156-0.69098 2.8502-1.3124 3.7188-1.5 1.4286-0.30906 2.2812-0.25 2.2812-0.25-0.3229-0.22738-0.85423-0.35136-1.4688-0.375zm34.907 0.53s0.15539 0.15165 0.28125 0.375c0.03336-0.05512 0.07253-0.10279 0.09375-0.15625-0.1173-0.06669-0.23294-0.15465-0.375-0.21875zm1.0938 0.8125c-0.20555 0.32664-0.62374 0.6399-1.1875 0.96875-0.0159 0.01313-0.04572 0.0181-0.0625 0.03125-0.37637 0.29505-0.94928 0.62541-1.875 0.90625-0.193 0.06-0.442 0.101-0.656 0.158-6.738 2.227-21.363 3.744-37.907 1.062-1.78-0.289-2.732-0.704-3.093-1.188-0.526 0.883 0.151 1.711 3.093 2.188 23.866 3.868 43.81-0.956 41.688-4.125zm3.031 2.501s-0.17437 0.34835-0.9375 0.875c-0.02503 0.02529-0.0678 0.03747-0.09375 0.0625-3.4307 3.309-14.853 4.391-24.469 4.2188-0.01062-0.00019-0.02064 0.000193-0.03125 0-5.2446 0.03105-10.153-0.30203-13.812-0.90625 0 0 1.4833 1.2229 9.1875 1.7188 11.722 0.749 29.73-0.422 30.156-5.969z"/>
   <path id="path3672" style="fill:url(#linearGradient3769);fill-rule:evenodd" d="m54.524 15.447c2.7282 10.748-9.6311 14.016-14.089 20.71-3.0357 4.5607 1.4901 9.4462 7.6604 15.013-2.4063-5.4393-10.57-10.206 0-18.554 13.18-10.403 6.4286-17.169 6.4286-17.169zm8.1223 13.319c0.000144 0-22.269 5.5577-11.625 17.823 3.1421 3.6169-0.80838 6.852-0.80838 6.852s7.9725-4.0825 4.3114-9.2387c-3.4207-4.8062-6.0754-7.2025 8.1223-15.436zm3.6185 21.903c-0.68259 0.03502-1.386 0.16651-2.1172 0.42344-0.68393 0.24209-1.0394 0.80838-1.0394 0.80838s0.42176-0.18376 1.3858-0.38494c3.9423-0.82146 9.5975 5.2796-2.6176 11.625-0.0566 0.15122-0.23111 0.34645-0.23097 0.34645 14.782-3.8858 11.218-13.157 4.6193-12.819zm-26.407 0.616c-1.5573 0.04074-5.2327 0.37542-9.4696 2.4252-6.683 3.2314 16.546 4.7005 28.563 1.5398 1.2493-0.85257 2.9641-1.5783 2.9641-1.5783s-4.9187 0.8593-9.8161 1.2703c-5.9942 0.5029-12.401 0.62437-15.629 0.19247-7.6419-1.0216 4.1959-3.8494 4.1959-3.8494s-0.28927-0.01358-0.80838 0zm-1.9632 7.3909c-11.024 3.6589 6.1493 7.8173 21.557 3.3105-1.637-0.57707-2.6946-1.6168-2.6946-1.6168-7.5333 1.4498-11.888 1.3774-17.399 0.80838-4.2611-0.4404-1.4628-2.5021-1.4628-2.5021zm1.5398 7.1215c-10.01 2.7969 6.1168 8.5787 18.862 3.1181-2.0875-0.81124-3.58-1.7323-3.58-1.7323-5.6837 1.0744-8.3524 1.1664-13.512 0.57742-4.258-0.48836-1.7707-1.9632-1.7707-1.9632zm-6.4671 4.7348c-4.3016-0.16549-14.035 4.1132-5.6972 5.4662 25.985 4.2119 47.351-1.8864 40.612-4.9273 0 0 1.8278 1.5212-2.0402 2.6946-7.355 2.2278-30.609 2.8876-37.07 0.07699-2.3211-1.011 2.0174-2.3987 3.3875-2.6946 1.4286-0.30906 2.2712-0.23097 2.2712-0.23097-0.3229-0.22738-0.84827-0.3613-1.4628-0.38494zm39.033 3.849s-0.83098 2.1039-9.7006 3.7725c-10.006 1.8839-22.322 1.6704-29.641 0.46193 0 0 1.4959 1.2364 9.2002 1.7323 11.723 0.749 29.716-0.42 30.142-5.967z"/>
   <path id="path2931" style="fill:#d45500;fill-rule:evenodd" d="m54.531 15.438c0.11355 0.44735 0.18706 0.89028 0.25 1.3125 0.0042 0.0055-0.0043 0.02563 0 0.03125 0.45222 0.58908 1.3122 1.9576 1.4375 3.9688 0.20334-3.3691-1.6875-5.3125-1.6875-5.3125zm0.34375 3.3438c-0.31414 8.1856-10.477 11.428-14.438 17.375-0.7798 1.1715-1.0553 2.3733-0.9375 3.5938 0.07653-0.88032 0.36831-1.7386 0.9375-2.5938 4.1169-6.1817 14.95-9.4468 14.438-18.375zm7.7812 10c0.000119 0-15.1 3.7476-14.469 11.938 0.42104-5.0784 6.9148-8.3256 11.062-9.875 0.02715-0.01743 0.06642-0.01376 0.09375-0.03125 0.99911-0.6396 2.0635-1.3069 3.3125-2.0312zm-10.812 10.625c-0.2512 1.9485 1.1419 3.6095 2.6875 5.7812 0.54694 0.77028 0.81321 1.5377 0.90625 2.25 0.12058-1.0071-0.09235-2.1037-0.90625-3.25-1.2747-1.791-2.4579-3.2328-2.6875-4.7812zm-9 1.9062c-0.19794 3.2727 2.2613 5.9987 4.0625 8.75 0.02027 0.03096 0.04241 0.06278 0.0625 0.09375 0.37158 0.3429 0.7391 0.65186 1.125 1-1.4287-3.2296-4.8883-6.1979-5.25-9.8438zm9.344 8.687c-0.25424 2.0131-1.9688 3.4375-1.9688 3.4375s0.66352-0.3483 1.5-0.9375c0.35593-0.70397 0.59849-1.5578 0.46875-2.5zm14.062 0.656c-0.68259 0.03502-1.3626 0.18057-2.0938 0.4375-0.68393 0.24209-1.0625 0.8125-1.0625 0.8125s0.44221-0.17381 1.4062-0.375c0.63628-0.13258 1.2943-0.075 1.9375 0.125 2.9089-0.07099 5.1956 1.7377 5.5 4.0938 0.29948-2.8729-2.2912-5.268-5.6875-5.0938zm-26.406 0.625c-1.5573 0.04074-5.2318 0.38776-9.4688 2.4375-1.2232 0.59146-1.4351 1.1067-0.90625 1.5625 0.19404-0.1875 0.48856-0.36054 0.90625-0.5625 1.8598-0.89971 3.6133-1.4535 5.125-1.8125 2.0005-0.87142 5.1562-1.625 5.1562-1.625s-0.29338-0.01358-0.8125 0zm22.062 2.4062s-4.9151 0.83898-9.8125 1.25c-5.9942 0.5029-12.397 0.6194-15.625 0.1875-1.1107-0.14849-1.8036-0.32068-2.1875-0.53125-0.75013 0.60027-0.48246 1.1743 2.1875 1.5312 3.2277 0.4319 9.6308 0.3154 15.625-0.1875 2.7247-0.22868 5.2066-0.56274 7.0938-0.84375 1.2172-0.78125 2.7188-1.4062 2.7188-1.4062zm7.344 2.032c-0.25492 2.091-2.2093 4.7539-7.375 7.4375-0.057 0.151-0.219 0.344-0.219 0.344 1.0651-0.28 2.0259-0.60719 2.9062-0.9375 3.8508-2.5749 4.968-5.0063 4.6875-6.8438zm-31.344 2.969c-2.994 0.993-3.909 2.022-3.344 2.906 0.304-0.518 1.069-1.058 2.438-1.594-0.011-0.659 0.906-1.312 0.906-1.312zm18.844 1.687c-7.5333 1.4498-11.895 1.3815-17.406 0.8125-1.2909-0.13342-1.9183-0.42139-2.1875-0.75-0.38431 0.63378-0.34319 1.4884 2.1875 1.75 5.5116 0.569 9.873 0.6373 17.406-0.8125 0 0 0.5247 0.48255 1.3438 0.96875 0.453-0.117 0.893-0.212 1.344-0.344-1.638-0.577-2.688-1.625-2.688-1.625zm-17.312 5.4375c-2.6761 0.74772-3.4647 1.6912-2.9688 2.5938 0.297-0.49745 1.0481-0.97841 2.3438-1.4062-0.41477-0.56767 0.625-1.1875 0.625-1.1875zm-0.438 1.344c-0.44887 0.46848-0.7086 1.258 2.2188 1.5938 5.1592 0.58902 7.8163 0.51185 13.5-0.5625 0 0 0.94577 0.57453 2.375 1.2188 0.404-0.14912 0.7892-0.32936 1.1875-0.5-2.0875-0.81124-3.5625-1.7188-3.5625-1.7188-5.6837 1.0744-8.3408 1.1515-13.5 0.5625-1.22-0.14-1.89-0.35-2.22-0.594zm-6.0312 3.375c-3.3831-0.13015-10.112 2.4988-8.7812 4.2812 0.63401-1.0643 3.0105-2.1989 5.375-2.8125 0.91464-0.40644 2.0124-0.71819 2.5938-0.84375 1.4286-0.30906 2.2812-0.25 2.2812-0.25-0.3229-0.22738-0.85423-0.35136-1.4688-0.375zm34.906 0.531s0.6419 0.54623 0.375 1.2188c0.33653 0.19134 0.57898 0.38507 0.71875 0.59375 0.40505-0.64366 0.07859-1.2835-1.0938-1.8125zm0.28125 1.375c-0.26022 0.42995-0.90122 0.9156-2.3125 1.3438-7.355 2.2278-30.601 2.8731-37.062 0.0625-0.1354-0.05897-0.25176-0.12625-0.34375-0.1875-0.0056 0.0049-0.02573-0.0049-0.03125 0-0.44704 0.39466-0.46432 0.82192 0.375 1.1875 6.2919 2.7369 28.454 2.1817 36.406 0.09375 1.0374-0.34289 1.8921-0.69763 2.5312-1.0625 0.01678-0.01315 0.0466-0.01812 0.0625-0.03125 0.67064-0.55372 0.56379-1.0712 0.375-1.4062zm3.844 1.938s-0.81788 2.1127-9.6875 3.7812c-10.006 1.8839-22.338 1.6772-29.656 0.46875 0 0 1.4833 1.2229 9.1875 1.7188 1.4557 0.09307 3.0216 0.1583 4.625 0.1875 0.01061 0.000193 0.02063-0.00019 0.03125 0 5.2356-0.0325 10.819-0.43491 15.812-1.375 5.1276-0.96461 7.5092-2.0788 8.6562-2.8438 0.027-0.025 0.069-0.037 0.094-0.062 0.556-0.561 0.885-1.182 0.938-1.875z"/>
  </g>
  <rect id="rect3003" style="opacity:.15;fill:#fff" clip-path="url(#clipPath3009)" rx="25" ry="25" transform="translate(98 3.8281e-7)" width="92" y="958.36" x="-96" height="92"/>
 </g>
</svg>
