<?xml version="1.0" encoding="UTF-8" standalone="no"?>
<!-- Created with Inkscape (http://www.inkscape.org/) -->
<svg id="svg11037" xmlns:rdf="http://www.w3.org/1999/02/22-rdf-syntax-ns#" xmlns="http://www.w3.org/2000/svg" height="96" width="96" version="1.1" xmlns:cc="http://creativecommons.org/ns#" xmlns:xlink="http://www.w3.org/1999/xlink" xmlns:dc="http://purl.org/dc/elements/1.1/">
 <defs id="defs11039">
  <linearGradient id="linearGradient11642" x1="48" gradientUnits="userSpaceOnUse" x2="48" gradientTransform="matrix(1.15 0 0 1.15 -7.1999 -150.65)" y1="962.62" y2="1046.1">
   <stop id="stop3702" style="stop-color:#ebebeb" offset="0"/>
   <stop id="stop3704" style="stop-color:#fafafa" offset="1"/>
  </linearGradient>
  <linearGradient id="linearGradient3744" x1="-50.299" gradientUnits="userSpaceOnUse" y1="53.904" gradientTransform="matrix(1.3298 0 0 1.3298 113.73 .70768)" x2="-50.299" y2="17.808">
   <stop id="stop3699" style="stop-color:#bababa" offset="0"/>
   <stop id="stop3701" style="stop-color:#d2d2d2" offset="1"/>
  </linearGradient>
  <clipPath id="clipPath3774">
   <path id="path3776" style="fill:#f0f" d="m-88 6c-3.324 0-6 2.676-6 6v72c0 3.324 2.676 6 6 6h72c3.324 0 6-2.676 6-6v-72c0-3.324-2.676-6-6-6h-72zm35.906 18c8.9362 0 14.562 4.4176 14.562 11.375 0 3.0638-1.2972 5.9914-3.5312 7.9062-0.44681 0.38298-1.0226 0.8278-5.9375 4.5938-3.9574 3.0638-4.5273 4.1569-4.7188 8.625h-3.4375c-0.12766-1.0213-0.1875-2.0492-0.1875-2.6875 0-2.8723 0.48936-4.1509 4-10.406 1.5957-2.8723 2.5625-6.133 2.5625-8.75 0-4.4681-2.1702-7.0312-6-7.0312-1.9787 0-3.375 0.70013-3.375 1.5938 0 0.44681 0.06981 0.51263 1.2188 1.4062 1.3404 1.0213 2.0312 2.4328 2.0312 4.1562 0 3-2.2447 5.125-5.5 5.125-3.5106 0-6.0625-2.4907-6.0625-5.9375 0-5.8723 5.9495-9.9688 14.375-9.9688zm-1.2188 36c3.3191 0 6 2.6809 6 6s-2.6795 6-6.0625 6c-3.2553 0-5.9375-2.7447-5.9375-6 0-3.3191 2.6809-6 6-6z"/>
  </clipPath>
  <filter id="filter3778" width="1.3829" y="-.11541" x="-.19143" height="1.2308" color-interpolation-filters="sRGB">
   <feGaussianBlur id="feGaussianBlur3780" stdDeviation="2.308125"/>
  </filter>
  <clipPath id="clipPath3009" clipPathUnits="userSpaceOnUse">
   <path id="path3011" style="opacity:.15;fill:#fff" d="m-2 956.36h-96v33.562l96 25.687v-59.25z"/>
  </clipPath>
 </defs>
 <metadata id="metadata11042">
  <rdf:RDF>
   <cc:Work rdf:about="">
    <dc:format>image/svg+xml</dc:format>
    <dc:type rdf:resource="http://purl.org/dc/dcmitype/StillImage"/>
    <dc:title/>
   </cc:Work>
  </rdf:RDF>
 </metadata>
 <g id="layer1" transform="translate(0 -956.36)">
  <rect id="rect3867" style="fill:url(#linearGradient11642)" rx="25" ry="25" height="92" width="92" y="958.36" x="2"/>
  <g id="g3064" transform="translate(4.5776e-8 956.36)">
   <path id="path3738" style="fill:url(#linearGradient3744)" d="m47.906 24c-8.4255 0-14.375 4.0964-14.375 9.9688 0 3.4468 2.5519 5.9375 6.0625 5.9375 3.2553 0 5.5-2.125 5.5-5.125 0-1.7234-0.69083-3.135-2.0312-4.1562-1.1489-0.89362-1.2188-0.95944-1.2188-1.4062 0-0.89362 1.3963-1.5938 3.375-1.5938 3.8298 0 6 2.5632 6 7.0312 0 2.617-0.96676 5.8777-2.5625 8.75-3.5106 6.2553-4 7.5339-4 10.406 0 0.6383 0.05984 1.6662 0.1875 2.6875h3.4375c0.191-4.468 0.761-5.561 4.718-8.625 4.915-3.766 5.491-4.211 5.938-4.594 2.234-1.915 3.531-4.842 3.531-7.906 0-6.957-5.627-11.375-14.563-11.375zm-1.218 36c-3.3191 0-6 2.6809-6 6 0 3.2553 2.6822 6 5.9375 6 3.383 0 6.0625-2.6809 6.0625-6s-2.6809-6-6-6z"/>
   <path id="path3747" style="opacity:.2" d="m47.906 24c-8.4255 0-14.375 4.0964-14.375 9.9688 0 0.18319 0.01707 0.35369 0.03125 0.53125 0.30792-5.6207 6.144-9.5 14.344-9.5 8.7045 0 14.249 4.1962 14.531 10.844 0.0066-0.15455 0.03125-0.31338 0.03125-0.46875 0.001-6.957-5.626-11.375-14.562-11.375zm-5.906 5.719c-0.10184 0.15694-0.15625 0.32423-0.15625 0.5 0 0.44681 0.06981 0.51263 1.2188 1.4062 1.1729 0.89362 1.8494 2.0926 2 3.5312 0.0077-0.12205 0.03125-0.24981 0.03125-0.375 0-1.7234-0.69083-3.135-2.0312-4.1562-0.617-0.479-0.912-0.717-1.063-0.906zm9.1875 5.5c-0.12492 2.5123-1.0478 5.5173-2.5312 8.1875-3.5106 6.2553-4 7.5339-4 10.406 0 0.14268-0.0061 0.35406 0 0.53125 0.06211-2.5497 0.69487-4.0484 4-9.9375 1.5957-2.8723 2.5625-6.133 2.5625-8.75 0-0.15056-0.02634-0.29129-0.03125-0.4375zm-4.5 24.781c-3.3191 0-6 2.6809-6 6 0 0.12871 0.023 0.24803 0.03125 0.375 0.306-3.029 2.857-5.375 5.969-5.375 3.1117 0 5.6621 2.3456 5.9688 5.375 0.0075-0.12276 0.03125-0.25032 0.03125-0.375 0-3.3191-2.6809-6-6-6z"/>
   <path id="path3756" style="fill:#fff" d="m45.219 27.625c-1.9787 0-3.375 0.70013-3.375 1.5938 0 0.20709 0.02576 0.33624 0.15625 0.5 0.41594-0.64096 1.6292-1.0938 3.2188-1.0938 3.7007 0 5.828 2.401 5.9688 6.5938 0.0095-0.19016 0.03125-0.37835 0.03125-0.5625 0-4.4681-2.1702-7.0312-6-7.0312zm-11.657 6.969c-0.0054 0.12436-0.03125 0.24898-0.03125 0.375 0 3.4468 2.5519 5.9375 6.0625 5.9375 3.2553 0 5.5-2.125 5.5-5.125 0-0.15096-0.02068-0.29138-0.03125-0.4375-0.25853 2.7054-2.4169 4.5625-5.4688 4.5625-3.2912 0-5.738-2.1988-6.0312-5.3125zm28.875 1.25c-0.12401 2.8932-1.3792 5.6197-3.5 7.4375-0.446 0.382-1.022 0.827-5.937 4.593-3.957 3.064-4.527 4.157-4.719 8.625h-3.4375c-0.09912-0.79299-0.16642-1.5408-0.1875-2.1562-0.0039 0.15853 0 0.30061 0 0.46875 0 0.6383 0.05984 1.6662 0.1875 2.6875h3.4375c0.191-4.468 0.761-5.561 4.718-8.625 4.9149-3.766 5.4907-4.2108 5.9375-4.5938 2.234-1.9149 3.5312-4.8424 3.5312-7.9062 0-0.18039-0.02373-0.35431-0.03125-0.53125zm-21.719 30.75c-0.008 0.133-0.03 0.271-0.03 0.406 0 3.2553 2.6822 6 5.9375 6 3.383 0 6.0625-2.6809 6.0625-6 0-0.12468-0.02379-0.25223-0.03125-0.375-0.308 3.029-2.86 5.375-6.032 5.375-3.052 0-5.6-2.422-5.906-5.406z"/>
   <path id="path3765" style="opacity:.6;filter:url(#filter3778);stroke:#fff;stroke-width:2;fill:none" clip-path="url(#clipPath3774)" transform="translate(100)" d="m-52.094 24c-8.4255 0-14.375 4.0964-14.375 9.9688 0 3.4468 2.5519 5.9375 6.0625 5.9375 3.2553 0 5.5-2.125 5.5-5.125 0-1.7234-0.69083-3.135-2.0312-4.1562-1.1489-0.89362-1.2188-0.95944-1.2188-1.4062 0-0.89362 1.3963-1.5938 3.375-1.5938 3.8298 0 6 2.5632 6 7.0312 0 2.617-0.96676 5.8777-2.5625 8.75-3.5106 6.2553-4 7.5339-4 10.406 0 0.6383 0.05984 1.6662 0.1875 2.6875h3.4375c0.19149-4.4681 0.76131-5.5612 4.7188-8.625 4.9149-3.766 5.4907-4.2108 5.9375-4.5938 2.234-1.9149 3.5312-4.8424 3.5312-7.9062 0-6.9574-5.6263-11.375-14.562-11.375zm-1.2188 36c-3.3191 0-6 2.6809-6 6 0 3.2553 2.6822 6 5.9375 6 3.383 0 6.0625-2.6809 6.0625-6s-2.6809-6-6-6z"/>
  </g>
  <rect id="rect3003" style="opacity:.15;fill:#fff" clip-path="url(#clipPath3009)" rx="25" ry="25" transform="translate(98 3.8281e-7)" width="92" y="958.36" x="-96" height="92"/>
 </g>
</svg>
