<?xml version="1.0" encoding="UTF-8" standalone="no"?>
<!-- Created with Inkscape (http://www.inkscape.org/) -->
<svg id="svg11037" xmlns:rdf="http://www.w3.org/1999/02/22-rdf-syntax-ns#" xmlns="http://www.w3.org/2000/svg" height="96" width="96" version="1.1" xmlns:cc="http://creativecommons.org/ns#" xmlns:xlink="http://www.w3.org/1999/xlink" xmlns:dc="http://purl.org/dc/elements/1.1/">
 <defs id="defs11039">
  <linearGradient id="linearGradient3737">
   <stop id="stop3739" style="stop-color:#fff" offset="0"/>
   <stop id="stop3741" style="stop-color:#fff;stop-opacity:0" offset="1"/>
  </linearGradient>
  <clipPath id="clipPath3800">
   <path id="path3802" style="fill:url(#linearGradient3804)" d="m62 6c-3.324 0-6 2.676-6 6v0.53125c0-3.6103 2.921-6.531 6.531-6.531h-0.531zm71.469 0c3.61 0 6.53 2.9207 6.53 6.531v-0.531c0-3.324-2.676-6-6-6h-0.53125zm6.53 6.531c0 36.735-3.5426 60.105-7.8438 69.938-10.82 5.031-35.68 7.531-69.629 7.531h71.469c3.324 0 6-2.676 6-6v-71.469zm-77.469 77.469c-3.61-0.006-6.531-2.921-6.531-6.531v0.531c0 3.324 2.676 6 6 6h0.53125z"/>
  </clipPath>
  <filter id="filter3810" color-interpolation-filters="sRGB">
   <feGaussianBlur id="feGaussianBlur3812" stdDeviation="1.2600071"/>
  </filter>
  <linearGradient id="linearGradient3197" x1="48" gradientUnits="userSpaceOnUse" y1="90" gradientTransform="matrix(1.0882 0 0 1.0882 -66.065 858.42)" x2="48" y2="5.9877">
   <stop id="stop3189-4" style="stop-color:#f0f0f0" offset="0"/>
   <stop id="stop3191-8" style="stop-color:#fff" offset="1"/>
  </linearGradient>
  <linearGradient id="linearGradient3199" x1="38.41" gradientUnits="userSpaceOnUse" y1="39.834" gradientTransform="matrix(.77467 0 0 .77467 -63.409 861.08)" x2="110.99" y2="112.41">
   <stop id="stop3779" style="stop-color:#fff;stop-opacity:0" offset="0"/>
   <stop id="stop3785" style="stop-color:#d7d7d7" offset=".5029"/>
   <stop id="stop3781" style="stop-color:#ccc" offset=".76461"/>
   <stop id="stop3787" style="stop-color:#d7d7d7" offset=".9123"/>
   <stop id="stop3783" style="stop-color:#fff" offset="1"/>
  </linearGradient>
  <linearGradient id="linearGradient3201" x1="46.785" xlink:href="#linearGradient3737" gradientUnits="userSpaceOnUse" y1="32.027" gradientTransform="matrix(1.0882 0 0 1.0882 -66.065 858.42)" x2="46.785" y2="68.029"/>
  <linearGradient id="linearGradient3203" x1="49.058" gradientUnits="userSpaceOnUse" y1="36.026" gradientTransform="matrix(1.0882 0 0 1.0882 -66.065 858.42)" x2="49.058" y2="6.0723">
   <stop id="stop3759" style="stop-color:#c53636" offset="0"/>
   <stop id="stop3761" style="stop-color:#d42b2b" offset="1"/>
  </linearGradient>
  <linearGradient id="linearGradient3205" x1="82.08" xlink:href="#linearGradient3737" gradientUnits="userSpaceOnUse" y1="82.29" gradientTransform="matrix(1.0882 0 0 1.0882 -66.065 858.42)" x2="59.612" y2="59.821"/>
  <clipPath id="clipPath3207" clipPathUnits="userSpaceOnUse">
   <rect id="rect3209" style="fill:#fff" rx="24.84" ry="24.84" height="91.411" width="91.411" y="864.95" x="-59.535"/>
  </clipPath>
  <clipPath id="clipPath3009" clipPathUnits="userSpaceOnUse">
   <path id="path3011" style="opacity:.15;fill:#fff" d="m-2 956.36h-96v33.562l96 25.687v-59.25z"/>
  </clipPath>
 </defs>
 <metadata id="metadata11042">
  <rdf:RDF>
   <cc:Work rdf:about="">
    <dc:format>image/svg+xml</dc:format>
    <dc:type rdf:resource="http://purl.org/dc/dcmitype/StillImage"/>
    <dc:title/>
   </cc:Work>
  </rdf:RDF>
 </metadata>
 <g id="layer1" transform="translate(0 -956.36)">
  <g id="g3167" transform="matrix(1.0064 0 0 1.0064 61.919 87.837)" clip-path="url(#clipPath3207)">
   <path id="rect2419" style="fill:url(#linearGradient3197)" d="m-53.006 864.95c-3.6173 0-6.5294 2.9121-6.5294 6.5294v78.352c0 3.6173 2.9121 6.5294 6.5294 6.5294h78.352c3.6173 0 6.5294-2.9121 6.5294-6.5294v-78.352c0-3.6173-2.9121-6.5294-6.5294-6.5294h-15.235v2.7886c1.2991 0.75314 2.1764 2.1311 2.1764 3.7408 0 2.404-1.9489 4.3529-4.3529 4.3529s-4.3529-1.9489-4.3529-4.3529c0-1.6097 0.87734-2.9876 2.1764-3.7408v-2.7886h-39.176v2.7886c1.2991 0.75314 2.1764 2.1311 2.1764 3.7408 0 2.404-1.9489 4.3529-4.3529 4.3529s-4.3529-1.9489-4.3529-4.3529c0-1.6097 0.87734-2.9876 2.1764-3.7408v-2.7886h-15.235z"/>
   <path id="path3785" style="opacity:.5;filter:url(#filter3810);fill:#4d4d4d" clip-path="url(#clipPath3800)" transform="matrix(1.0882 0 0 1.0882 -120.48 858.42)" d="m62.517 6c-3.61 0-6.517 2.9067-6.517 6.517v70.966c0 3.6105 2.9067 6.5117 6.5172 6.5172 33.948 0 61.157 0.16315 73.402-3.7963 3.23-10.012 4.08-36.952 4.08-73.687 0-3.6103-2.91-6.517-6.52-6.517h-70.963z"/>
   <path id="path3177" style="opacity:.8;fill:url(#linearGradient3199)" d="m-52.428 864.95c-3.9291 0-7.1075 3.1784-7.1075 7.1075v77.196c0 3.9291 3.1784 7.1015 7.1075 7.1075 36.943 0 63.997-2.721 75.768-8.1957 4.6806-10.7 8.5358-36.132 8.5358-76.108 0-3.9291-3.1784-7.1075-7.1075-7.1075h-14.657v2.7886c1.2991 0.75314 2.1764 2.1311 2.1764 3.7408 0 2.404-1.9489 4.3529-4.3529 4.3529s-4.3529-1.9489-4.3529-4.3529c0-1.6097 0.87734-2.9876 2.1764-3.7408v-2.7886h-39.176v2.7886c1.2991 0.75314 2.1764 2.1311 2.1764 3.7408 0 2.404-1.9489 4.3529-4.3529 4.3529s-4.3529-1.9489-4.3529-4.3529c0-1.6097 0.87734-2.9876 2.1764-3.7408v-2.7886h-14.657z"/>
   <path id="rect2918" style="opacity:.8;fill:url(#linearGradient3201)" d="m-59.535 888.89h91.411s-0.54964 20.719-4.3971 43.666l-87.014-0.13741v-43.529z"/>
   <path id="rect3839" style="fill:url(#linearGradient3203)" d="m-53.006 864.95c-3.6173 0-6.5294 2.9121-6.5294 6.5294v26.117h91.411v-26.117c0-3.6173-2.9121-6.5294-6.5294-6.5294h-15.235v2.7886c1.2991 0.75314 2.1764 2.1311 2.1764 3.7408 0 2.404-1.9489 4.3529-4.3529 4.3529s-4.3529-1.9489-4.3529-4.3529c0-1.6097 0.87734-2.9876 2.1764-3.7408v-2.7886h-39.176v2.7886c1.2991 0.75314 2.1764 2.1311 2.1764 3.7408 0 2.404-1.9489 4.3529-4.3529 4.3529s-4.3529-1.9489-4.3529-4.3529c0-1.6097 0.87734-2.9876 2.1764-3.7408v-2.7886h-15.235z"/>
   <path id="path3814" style="opacity:.5;fill:url(#linearGradient3205)" d="m29.223 866.52c0.974 1.2141 1.5643 2.7703 1.5643 4.4549 0 39.976-3.8552 65.407-8.5358 76.108-11.771 5.4747-38.824 8.1957-75.768 8.1957-1.6846-0.003-3.2409-0.59074-4.4549-1.5643 1.2977 1.6165 3.2987 2.6491 5.5431 2.6526 36.943 0 63.997-2.721 75.768-8.1957 4.6806-10.7 8.5358-36.132 8.5358-76.108 0-2.2445-1.035-4.2454-2.6525-5.5432z"/>
   <path id="path3831" style="opacity:.1" d="m31.842 879.4c-0.44105 35.752-4.1151 58.734-8.5018 68.762-11.035 5.1325-35.507 7.8409-68.966 8.1617 33.588-0.10873 59.505-1.0951 70.531-6.2233 4.388-10.032 6.6691-34.715 6.9374-70.701z"/>
   <g id="g2751" transform="matrix(.38142 0 0 .38505 -19.556 875.64)">
    <path id="text2434" style="fill:#fff" d="m64.128 24.098c0.1888 0.04037 0.33594 0.12435 0.44141 0.25195 0.10677 0.1276 0.16015 0.28516 0.16016 0.47266-0.000002 0.28776-0.09896 0.51042-0.29688 0.66797s-0.47917 0.23633-0.84375 0.23633c-0.1224 0-0.2487-0.01237-0.37891-0.03711-0.12891-0.02344-0.26237-0.05924-0.40039-0.10742v-0.38086c0.10937 0.0638 0.22917 0.11198 0.35938 0.14453s0.26628 0.04883 0.4082 0.04883c0.24739 0.000001 0.43554-0.04883 0.56445-0.14648 0.13021-0.09766 0.19531-0.23958 0.19531-0.42578-0.000002-0.17187-0.06055-0.30599-0.18164-0.40234-0.11979-0.09765-0.28711-0.14648-0.50195-0.14648h-0.33984v-0.32422h0.35547c0.19401 0.000002 0.34245-0.03841 0.44531-0.11523 0.10286-0.07812 0.1543-0.1901 0.1543-0.33594-0.000002-0.14974-0.05339-0.26432-0.16016-0.34375-0.10547-0.08073-0.25716-0.12109-0.45508-0.12109-0.10807 0.000003-0.22396 0.01172-0.34766 0.03516s-0.25977 0.0599-0.4082 0.10938v-0.35156c0.14974-0.04166 0.28971-0.07291 0.41992-0.09375 0.13151-0.02083 0.25521-0.03125 0.37109-0.03125 0.29948 0.000003 0.53646 0.06836 0.71094 0.20508 0.17448 0.13542 0.26172 0.31901 0.26172 0.55078-0.000002 0.16146-0.04623 0.29818-0.13867 0.41016-0.09245 0.11068-0.22396 0.1875-0.39453 0.23047m-2.4004 6.0402h0.64453v-2.2246l-0.70117 0.14062v-0.35938l0.69726-0.14062h0.39453v2.584h0.64453v0.33203h-1.6797v-0.33203m3.3223-2.3242c-0.20313 0.000003-0.35612 0.10026-0.45898 0.30078-0.10156 0.19922-0.15234 0.49935-0.15234 0.90039-0.000001 0.39974 0.05078 0.69987 0.15234 0.90039 0.10286 0.19922 0.25586 0.29883 0.45898 0.29883 0.20442 0 0.35742-0.09961 0.45898-0.29883 0.10286-0.20052 0.1543-0.50065 0.1543-0.90039-0.000002-0.40104-0.05143-0.70117-0.1543-0.90039-0.10156-0.20052-0.25456-0.30078-0.45898-0.30078m0-0.3125c0.32682 0.000003 0.57617 0.12956 0.74805 0.38867 0.17318 0.25782 0.25976 0.63282 0.25976 1.125-0.000002 0.49089-0.08659 0.86589-0.25976 1.125-0.17188 0.25781-0.42123 0.38672-0.74805 0.38672s-0.57682-0.12891-0.75-0.38672c-0.17188-0.25911-0.25781-0.63411-0.25781-1.125 0-0.49218 0.08594-0.86718 0.25781-1.125 0.17318-0.25911 0.42318-0.38867 0.75-0.38867m-3.3223 7.4367h0.64453v-2.2246l-0.70117 0.14062v-0.35938l0.69726-0.14062h0.39453v2.584h0.64453v0.33203h-1.6797v-0.33203m2.3789-2.584h1.875v0.16797l-1.0586 2.748h-0.41211l0.99609-2.584h-1.4004v-0.33203m-2.1074 7.384h1.377v0.33203h-1.8516v-0.33203c0.14974-0.15495 0.35352-0.36263 0.61133-0.62305 0.25911-0.26172 0.42187-0.43034 0.48828-0.50586 0.1263-0.14192 0.21419-0.26172 0.26367-0.35938 0.05078-0.09896 0.07617-0.19596 0.07617-0.29102-0.000001-0.15495-0.05469-0.28125-0.16406-0.37891-0.10807-0.09765-0.24935-0.14648-0.42383-0.14648-0.1237 0.000003-0.25456 0.02149-0.39258 0.06445-0.13672 0.04297-0.2832 0.10808-0.43945 0.19531v-0.39844c0.15885-0.0638 0.30729-0.11198 0.44531-0.14453s0.26432-0.04883 0.37891-0.04883c0.30208 0.000003 0.54297 0.07552 0.72266 0.22656 0.17968 0.15104 0.26953 0.35287 0.26953 0.60547-0.000002 0.11979-0.02279 0.23373-0.06836 0.3418-0.04427 0.10677-0.12565 0.23307-0.24414 0.37891-0.03255 0.03776-0.13607 0.14714-0.31055 0.32812-0.17448 0.17969-0.42057 0.43164-0.73828 0.75586m3.291-2.2402-0.99609 1.5566h0.99609v-1.5566m-0.10352-0.34375h0.49609v1.9004h0.41602v0.32812h-0.41602v0.6875h-0.39258v-0.6875h-1.3164v-0.38086l1.2129-1.8477"/>
    <path id="text2446" style="fill:#fff" d="m71.694 23.041-0.99609 1.5566h0.99609v-1.5566m-0.10352-0.34375h0.49609v1.9004h0.41602v0.32812h-0.41602v0.6875h-0.39258v-0.6875h-1.3164v-0.38086l1.2129-1.8477m-2.1855 7.384h0.64453v-2.2246l-0.70117 0.14062v-0.35938l0.69727-0.14062h0.39453v2.584h0.64453v0.33203h-1.6797v-0.33203m2.5469 0h0.64453v-2.2246l-0.70117 0.14062v-0.35938l0.69727-0.14062h0.39453v2.584h0.64453v0.33203h-1.6797v-0.33203m-2.5469 4.8h0.64453v-2.2246l-0.70117 0.14062v-0.35938l0.69727-0.14062h0.39453v2.584h0.64453v0.33203h-1.6797v-0.33203m3.3223-1.0527c-0.1875 0.000002-0.33529 0.05013-0.44336 0.15039-0.10677 0.10026-0.16016 0.23828-0.16016 0.41406-0.000001 0.17578 0.05339 0.3138 0.16016 0.41406 0.10807 0.10026 0.25586 0.15039 0.44336 0.15039 0.1875 0.000001 0.33528-0.05013 0.44336-0.15039 0.10807-0.10156 0.16211-0.23958 0.16211-0.41406-0.000002-0.17578-0.05404-0.3138-0.16211-0.41406-0.10677-0.10026-0.25456-0.15039-0.44336-0.15039m-0.39453-0.16797c-0.16927-0.04167-0.30143-0.12044-0.39648-0.23633-0.09375-0.11588-0.14062-0.25716-0.14062-0.42383 0-0.23307 0.08268-0.41732 0.24805-0.55273 0.16667-0.13541 0.39453-0.20312 0.68359-0.20312 0.29036 0.000003 0.51823 0.06771 0.68359 0.20312 0.16536 0.13542 0.24804 0.31966 0.24805 0.55273-0.000002 0.16667-0.04753 0.30794-0.14258 0.42383-0.09375 0.11589-0.22461 0.19466-0.39258 0.23633 0.1901 0.04427 0.33789 0.13086 0.44336 0.25977 0.10677 0.12891 0.16015 0.28646 0.16016 0.47266-0.000002 0.28255-0.08659 0.49935-0.25976 0.65039-0.173 0.153-0.42 0.229-0.741 0.229-0.32162 0-0.56901-0.07552-0.74219-0.22656-0.17188-0.15104-0.25781-0.36784-0.25781-0.65039 0-0.1862 0.05339-0.34375 0.16016-0.47266 0.10677-0.1289 0.25521-0.21549 0.44531-0.25977m-0.144-0.623c-0.000001 0.15104 0.04687 0.26888 0.14062 0.35352 0.09505 0.08464 0.22786 0.12696 0.39844 0.12695 0.16927 0.000002 0.30143-0.04232 0.39648-0.12695 0.09635-0.08463 0.14453-0.20247 0.14453-0.35352-0.000002-0.15104-0.04818-0.26888-0.14453-0.35352-0.09505-0.08463-0.22722-0.12695-0.39648-0.12695-0.17057 0.000002-0.30339 0.04232-0.39844 0.12695-0.09375 0.08464-0.14063 0.20248-0.14062 0.35352m-2.5117 6.6438h1.377v0.33203h-1.8516v-0.33203c0.14974-0.15495 0.35352-0.36263 0.61133-0.62305 0.25911-0.26172 0.42187-0.43034 0.48828-0.50586 0.1263-0.14193 0.21419-0.26172 0.26367-0.35938 0.05078-0.09896 0.07617-0.19596 0.07617-0.29102-0.000002-0.15495-0.05469-0.28125-0.16406-0.37891-0.10807-0.09765-0.24935-0.14648-0.42383-0.14648-0.1237 0.000003-0.25456 0.02149-0.39258 0.06445-0.13672 0.04297-0.2832 0.10808-0.43945 0.19531v-0.39844c0.15885-0.0638 0.30729-0.11198 0.44531-0.14453s0.26432-0.04883 0.37891-0.04883c0.30208 0.000003 0.54297 0.07552 0.72266 0.22656s0.26953 0.35287 0.26953 0.60547c-0.000002 0.11979-0.02279 0.23373-0.06836 0.3418-0.04427 0.10677-0.12565 0.23308-0.24414 0.37891-0.03255 0.03776-0.13607 0.14714-0.31055 0.32812-0.17448 0.17969-0.42057 0.43164-0.73828 0.75586m2.2109-2.584h1.5488v0.33203h-1.1875v0.71484c0.05729-0.01953 0.11458-0.03385 0.17188-0.04297 0.05729-0.01041 0.11458-0.01562 0.17188-0.01563 0.32552 0.000002 0.58333 0.08919 0.77344 0.26758 0.1901 0.17839 0.28515 0.41992 0.28516 0.72461-0.000003 0.3138-0.09766 0.55794-0.29297 0.73242-0.19531 0.17318-0.4707 0.25977-0.82617 0.25977-0.1224 0-0.2474-0.01042-0.375-0.03125-0.1263-0.02083-0.25716-0.05208-0.39258-0.09375v-0.39648c0.11719 0.0638 0.23828 0.11133 0.36328 0.14258s0.25716 0.04688 0.39648 0.04687c0.22526 0.000001 0.40364-0.05924 0.53516-0.17773 0.13151-0.11849 0.19726-0.2793 0.19726-0.48242-0.000001-0.20312-0.06576-0.36393-0.19726-0.48242-0.13151-0.11849-0.3099-0.17773-0.53516-0.17773-0.10547 0.000001-0.21094 0.01172-0.31641 0.03516-0.10417 0.02344-0.21094 0.0599-0.32031 0.10938v-1.4648"/>
    <path id="text2456" style="fill:#fff" d="m78.257 22.697h1.5488v0.33203h-1.1875v0.71484c0.05729-0.01953 0.11458-0.03385 0.17188-0.04297 0.05729-0.01042 0.11458-0.01562 0.17188-0.01563 0.32552 0.000002 0.58333 0.08919 0.77344 0.26758 0.1901 0.17839 0.28515 0.41992 0.28516 0.72461-0.000002 0.3138-0.09766 0.55794-0.29297 0.73242-0.194 0.173-0.47 0.26-0.825 0.26-0.1224 0-0.2474-0.01042-0.375-0.03125-0.1263-0.02083-0.25716-0.05208-0.39258-0.09375v-0.39648c0.11719 0.0638 0.23828 0.11133 0.36328 0.14258s0.25716 0.04687 0.39648 0.04687c0.22526 0 0.40364-0.05925 0.53516-0.17774 0.13151-0.11849 0.19726-0.2793 0.19727-0.48242-0.000002-0.20312-0.06576-0.36393-0.19727-0.48242s-0.3099-0.17773-0.53516-0.17774c-0.10547 0.000002-0.21094 0.01172-0.31641 0.03516-0.10417 0.02344-0.21094 0.0599-0.32031 0.10938v-1.4648m-1.209 7.384h0.64453v-2.2246l-0.70117 0.14062v-0.35938l0.69727-0.14062h0.39453v2.584h0.64453v0.33203h-1.6797v-0.33203m2.8184 0h1.377v0.33203h-1.8516v-0.33203c0.14974-0.15495 0.35352-0.36263 0.61133-0.62305 0.25911-0.26172 0.42187-0.43034 0.48828-0.50586 0.1263-0.14192 0.21419-0.26172 0.26367-0.35938 0.05078-0.09896 0.07617-0.19596 0.07617-0.29102-0.000002-0.15495-0.05469-0.28125-0.16406-0.37891-0.10808-0.09765-0.24935-0.14648-0.42383-0.14648-0.1237 0.000003-0.25456 0.02149-0.39258 0.06445-0.13672 0.04297-0.2832 0.10808-0.43945 0.19531v-0.39844c0.15885-0.0638 0.30729-0.11198 0.44531-0.14453s0.26432-0.04883 0.37891-0.04883c0.30208 0.000003 0.54297 0.07552 0.72266 0.22656s0.26953 0.35287 0.26953 0.60547c-0.000002 0.11979-0.02279 0.23373-0.06836 0.3418-0.04427 0.10677-0.12565 0.23307-0.24414 0.37891-0.03255 0.03776-0.13607 0.14714-0.31055 0.32812-0.17448 0.17969-0.42057 0.43164-0.73828 0.75586m-2.8184 4.8h0.64453v-2.2246l-0.70117 0.14062v-0.35938l0.69727-0.14062h0.39453v2.584h0.64453v0.33203h-1.6797v-0.33203m2.4902 0.27148v-0.35938c0.09896 0.04687 0.19922 0.08268 0.30078 0.10742s0.20117 0.03711 0.29883 0.03711c0.26042 0 0.45898-0.08724 0.5957-0.26172 0.13802-0.17578 0.2168-0.44206 0.23633-0.79883-0.07552 0.11198-0.17123 0.19792-0.28711 0.25781-0.11589 0.0599-0.24414 0.08984-0.38477 0.08984-0.29167 0.000001-0.52279-0.08789-0.69336-0.26367-0.16927-0.17708-0.25391-0.41862-0.25391-0.72461 0-0.29948 0.08854-0.53971 0.26562-0.7207s0.41276-0.27148 0.70703-0.27148c0.33724 0.000003 0.5944 0.12956 0.77148 0.38867 0.17838 0.25782 0.26758 0.63281 0.26758 1.125-0.000002 0.45964-0.10938 0.82682-0.32812 1.1016-0.219 0.273-0.512 0.41-0.88 0.41-0.09896 0-0.19922-0.0098-0.30078-0.0293-0.10156-0.01953-0.20703-0.04883-0.31641-0.08789m0.78516-1.2363c0.17708 0.000001 0.31706-0.06055 0.41992-0.18164 0.10416-0.12109 0.15625-0.28711 0.15625-0.49805-0.000001-0.20963-0.05209-0.375-0.15625-0.49609-0.10287-0.12239-0.24284-0.18359-0.41992-0.18359-0.17708 0.000002-0.31771 0.0612-0.42188 0.18359-0.10287 0.1211-0.1543 0.28646-0.1543 0.49609-0.000001 0.21094 0.05143 0.37696 0.1543 0.49805 0.10416 0.1211 0.24479 0.18164 0.42188 0.18164m-3.0039 5.7648h1.377v0.33203h-1.8516v-0.33203c0.14974-0.15495 0.35352-0.36263 0.61133-0.62305 0.25911-0.26172 0.42187-0.43034 0.48828-0.50586 0.1263-0.14193 0.21419-0.26172 0.26367-0.35938 0.05078-0.09896 0.07617-0.19596 0.07617-0.29102-0.000002-0.15495-0.05469-0.28125-0.16406-0.37891-0.10808-0.09765-0.24935-0.14648-0.42383-0.14648-0.1237 0.000003-0.25456 0.02149-0.39258 0.06445-0.13672 0.04297-0.2832 0.10808-0.43945 0.19531v-0.39844c0.15885-0.0638 0.30729-0.11198 0.44531-0.14453s0.26432-0.04883 0.37891-0.04883c0.30208 0.000003 0.54297 0.07552 0.72266 0.22656s0.26953 0.35287 0.26953 0.60547c-0.000002 0.11979-0.02279 0.23373-0.06836 0.3418-0.04427 0.10677-0.12565 0.23308-0.24414 0.37891-0.03255 0.03776-0.13607 0.14714-0.31055 0.32812-0.17448 0.17969-0.42057 0.43164-0.73828 0.75586m3.0996-1.2832c-0.17708 0.000001-0.31771 0.06055-0.42188 0.18164-0.10287 0.1211-0.1543 0.28711-0.1543 0.49805-0.000001 0.20964 0.05143 0.37565 0.1543 0.49805 0.10416 0.12109 0.24479 0.18164 0.42188 0.18164 0.17708 0 0.31706-0.06055 0.41992-0.18164 0.10416-0.1224 0.15625-0.28841 0.15625-0.49805-0.000002-0.21094-0.05209-0.37695-0.15625-0.49805-0.10287-0.12109-0.24284-0.18164-0.41992-0.18164m0.7832-1.2363v0.35938c-0.09896-0.04687-0.19922-0.08268-0.30078-0.10742-0.10026-0.02474-0.19987-0.03711-0.29883-0.03711-0.26042 0.000003-0.45964 0.08789-0.59766 0.26367-0.13672 0.17578-0.21484 0.44141-0.23438 0.79688 0.07682-0.11328 0.17318-0.19987 0.28906-0.25976 0.11588-0.0612 0.24349-0.09179 0.38281-0.0918 0.29297 0.000002 0.52409 0.08919 0.69336 0.26758 0.17057 0.17708 0.25586 0.41862 0.25586 0.72461-0.000002 0.29948-0.08854 0.53971-0.26562 0.7207s-0.41276 0.27148-0.70703 0.27148c-0.33724 0-0.59505-0.12891-0.77344-0.38672-0.17839-0.25911-0.26758-0.63411-0.26758-1.125 0-0.46094 0.10938-0.82812 0.32812-1.1016 0.21875-0.27474 0.51237-0.41211 0.88086-0.41211 0.09896 0.000003 0.19857 0.0098 0.29883 0.0293 0.10156 0.01953 0.20703 0.04883 0.31641 0.08789"/>
    <path id="text2466" style="fill:#fff" d="m86.807 24.055c-0.17708 0.000001-0.31771 0.06055-0.42188 0.18164-0.10286 0.1211-0.1543 0.28711-0.1543 0.49805-0.000001 0.20964 0.05143 0.37565 0.1543 0.49805 0.10417 0.12109 0.24479 0.18164 0.42188 0.18164 0.17708 0 0.31706-0.06055 0.41992-0.18164 0.10416-0.1224 0.15625-0.28841 0.15625-0.49805-0.000002-0.21094-0.05209-0.37695-0.15625-0.49805-0.10287-0.12109-0.24284-0.18164-0.41992-0.18164m0.7832-1.2363v0.35938c-0.09896-0.04687-0.19922-0.08268-0.30078-0.10742-0.10026-0.02474-0.19987-0.03711-0.29883-0.03711-0.26042 0.000003-0.45964 0.08789-0.59766 0.26367-0.13672 0.17578-0.21484 0.44141-0.23438 0.79688 0.07682-0.11328 0.17318-0.19987 0.28906-0.25976 0.11588-0.0612 0.24349-0.0918 0.38281-0.0918 0.29297 0.000002 0.52409 0.08919 0.69336 0.26758 0.17057 0.17708 0.25586 0.41862 0.25586 0.72461-0.000002 0.29948-0.08854 0.53971-0.26562 0.7207s-0.41276 0.27148-0.70703 0.27148c-0.33724 0-0.59505-0.12891-0.77344-0.38672-0.17838-0.25911-0.26758-0.63411-0.26758-1.125 0-0.46094 0.10938-0.82812 0.32812-1.1016 0.21875-0.27474 0.51237-0.41211 0.88086-0.41211 0.09896 0.000003 0.19857 0.0098 0.29883 0.0293 0.10156 0.01953 0.20703 0.04883 0.31641 0.08789m-2.8809 7.3195h0.64453v-2.2246l-0.70117 0.14062v-0.35938l0.69727-0.14062h0.39453v2.584h0.64453v0.33203h-1.6797v-0.33203m3.6738-1.2402c0.1888 0.04037 0.33594 0.12435 0.44141 0.25195 0.10677 0.1276 0.16015 0.28516 0.16016 0.47266-0.000002 0.28776-0.09896 0.51042-0.29688 0.66797s-0.47917 0.23633-0.84375 0.23633c-0.1224 0-0.2487-0.01237-0.37891-0.03711-0.12891-0.02344-0.26237-0.05925-0.40039-0.10742v-0.38086c0.10938 0.0638 0.22917 0.11198 0.35938 0.14453s0.26628 0.04883 0.4082 0.04883c0.24739 0 0.43554-0.04883 0.56445-0.14648 0.13021-0.09765 0.19531-0.23958 0.19531-0.42578-0.000002-0.17187-0.06055-0.30599-0.18164-0.40234-0.11979-0.09765-0.28711-0.14648-0.50195-0.14648h-0.33984v-0.32422h0.35547c0.19401 0.000002 0.34245-0.03841 0.44531-0.11523 0.10286-0.07812 0.1543-0.1901 0.1543-0.33594-0.000002-0.14974-0.05339-0.26432-0.16016-0.34375-0.10547-0.08073-0.25716-0.12109-0.45508-0.12109-0.10807 0.000002-0.22396 0.01172-0.34766 0.03516s-0.25977 0.0599-0.4082 0.10938v-0.35156c0.14974-0.04166 0.28971-0.07291 0.41992-0.09375 0.13151-0.02083 0.25521-0.03125 0.37109-0.03125 0.29948 0.000003 0.53646 0.06836 0.71094 0.20508 0.17448 0.13542 0.26172 0.31901 0.26172 0.55078-0.000002 0.16146-0.04623 0.29818-0.13867 0.41016-0.09245 0.11068-0.22396 0.1875-0.39453 0.23047m-3.4023 6.0402h1.377v0.33203h-1.8516v-0.33203c0.14974-0.15495 0.35352-0.36263 0.61133-0.62305 0.25911-0.26172 0.42187-0.43034 0.48828-0.50586 0.1263-0.14193 0.21419-0.26172 0.26367-0.35938 0.05078-0.09896 0.07617-0.19596 0.07617-0.29102-0.000002-0.15494-0.05469-0.28125-0.16406-0.37891-0.10807-0.09765-0.24935-0.14648-0.42383-0.14648-0.1237 0.000002-0.25456 0.02149-0.39258 0.06445-0.13672 0.04297-0.2832 0.10808-0.43945 0.19531v-0.39844c0.15885-0.0638 0.30729-0.11198 0.44531-0.14453s0.26432-0.04883 0.37891-0.04883c0.30208 0.000003 0.54297 0.07552 0.72266 0.22656 0.17968 0.15104 0.26953 0.35287 0.26953 0.60547-0.000002 0.11979-0.02279 0.23373-0.06836 0.3418-0.04427 0.10677-0.12565 0.23307-0.24414 0.37891-0.03255 0.03776-0.13607 0.14714-0.31055 0.32812-0.17448 0.17969-0.42057 0.43164-0.73828 0.75586m3.0508-2.3242c-0.20313 0.000003-0.35612 0.10026-0.45898 0.30078-0.10156 0.19922-0.15234 0.49935-0.15234 0.90039-0.000001 0.39974 0.05078 0.69987 0.15234 0.90039 0.10286 0.19922 0.25586 0.29883 0.45898 0.29883 0.20443 0 0.35742-0.09961 0.45898-0.29883 0.10286-0.20052 0.1543-0.50065 0.1543-0.90039-0.000002-0.40104-0.05143-0.70117-0.1543-0.90039-0.10156-0.20052-0.25456-0.30078-0.45898-0.30078m0-0.3125c0.32682 0.000003 0.57617 0.12956 0.74805 0.38867 0.17318 0.25782 0.25976 0.63282 0.25977 1.125-0.000003 0.49089-0.08659 0.86589-0.25977 1.125-0.17188 0.25781-0.42122 0.38672-0.74805 0.38672-0.32682 0-0.57682-0.12891-0.75-0.38672-0.17188-0.25911-0.25781-0.63411-0.25781-1.125-0.000001-0.49218 0.08594-0.86718 0.25781-1.125 0.17318-0.25911 0.42318-0.38867 0.75-0.38867m-3.0508 7.4367h1.377v0.33203h-1.8516v-0.33203c0.14974-0.15495 0.35352-0.36263 0.61133-0.62305 0.25911-0.26172 0.42187-0.43034 0.48828-0.50586 0.1263-0.14192 0.21419-0.26172 0.26367-0.35938 0.05078-0.09896 0.07617-0.19596 0.07617-0.29102-0.000002-0.15495-0.05469-0.28125-0.16406-0.37891-0.10807-0.09765-0.24935-0.14648-0.42383-0.14648-0.1237 0.000003-0.25456 0.02149-0.39258 0.06445-0.13672 0.04297-0.2832 0.10808-0.43945 0.19531v-0.39844c0.15885-0.0638 0.30729-0.11198 0.44531-0.14453s0.26432-0.04883 0.37891-0.04883c0.30208 0.000003 0.54297 0.07552 0.72266 0.22656 0.17968 0.15104 0.26953 0.35287 0.26953 0.60547-0.000002 0.11979-0.02279 0.23373-0.06836 0.3418-0.04427 0.10677-0.12565 0.23307-0.24414 0.37891-0.03255 0.03776-0.13607 0.14714-0.31055 0.32812-0.17448 0.17969-0.42057 0.43164-0.73828 0.75586m2.1074-2.584h1.875v0.16797l-1.0586 2.748h-0.41211l0.99609-2.584h-1.4004v-0.33203"/>
    <path id="text2476" style="fill:#fff" d="m93.448 22.697h1.875v0.16797l-1.0586 2.748h-0.41211l0.99609-2.584h-1.4004v-0.33203m-1.1055 7.384h0.64453v-2.2246l-0.70117 0.14062v-0.35938l0.69727-0.14062h0.39453v2.584h0.64453v0.33203h-1.6797v-0.33203m3.5625-2.2402-0.99609 1.5566h0.99609v-1.5566m-0.10352-0.34375h0.49609v1.9004h0.41602v0.32812h-0.41602v0.6875h-0.39258v-0.6875h-1.3164v-0.38086l1.2129-1.8477m-3.1875 7.384h1.377v0.33203h-1.8516v-0.33203c0.14974-0.15495 0.35352-0.36263 0.61133-0.62305 0.25911-0.26172 0.42187-0.43034 0.48828-0.50586 0.1263-0.14192 0.21419-0.26172 0.26367-0.35938 0.05078-0.09896 0.07617-0.19596 0.07617-0.29102-0.000002-0.15495-0.05469-0.28125-0.16406-0.37891-0.10807-0.09765-0.24935-0.14648-0.42383-0.14648-0.1237 0.000003-0.25456 0.02149-0.39258 0.06445-0.13672 0.04297-0.2832 0.10808-0.43945 0.19531v-0.39844c0.15885-0.0638 0.30729-0.11198 0.44531-0.14453s0.26432-0.04883 0.37891-0.04883c0.30208 0.000003 0.54297 0.07552 0.72266 0.22656 0.17968 0.15104 0.26953 0.35287 0.26953 0.60547-0.000002 0.11979-0.02279 0.23373-0.06836 0.3418-0.04427 0.10677-0.12565 0.23307-0.24414 0.37891-0.03255 0.03776-0.13607 0.14714-0.31055 0.32812-0.17448 0.17969-0.42057 0.43164-0.73828 0.75586m2.2754 0h0.64453v-2.2246l-0.70117 0.14062v-0.35938l0.69727-0.14062h0.39453v2.584h0.64453v0.33203h-1.6797v-0.33203m-2.2754 4.8h1.377v0.33203h-1.8516v-0.33203c0.14974-0.15495 0.35352-0.36263 0.61133-0.62305 0.25911-0.26172 0.42187-0.43034 0.48828-0.50586 0.1263-0.14193 0.21419-0.26172 0.26367-0.35938 0.05078-0.09896 0.07617-0.19596 0.07617-0.29102-0.000002-0.15495-0.05469-0.28125-0.16406-0.37891-0.10807-0.09765-0.24935-0.14648-0.42383-0.14648-0.1237 0.000003-0.25456 0.02149-0.39258 0.06445-0.13672 0.04297-0.2832 0.10808-0.43945 0.19531v-0.39844c0.15885-0.0638 0.30729-0.11198 0.44531-0.14453s0.26432-0.04883 0.37891-0.04883c0.30208 0.000003 0.54297 0.07552 0.72266 0.22656 0.17968 0.15104 0.26953 0.35287 0.26953 0.60547-0.000002 0.11979-0.02279 0.23373-0.06836 0.3418-0.04427 0.10677-0.12565 0.23308-0.24414 0.37891-0.03255 0.03776-0.13607 0.14714-0.31055 0.32812-0.17448 0.17969-0.42057 0.43164-0.73828 0.75586m3.0508-1.0527c-0.1875 0.000002-0.33529 0.05013-0.44336 0.15039-0.10677 0.10026-0.16016 0.23828-0.16016 0.41406-0.000001 0.17578 0.05338 0.3138 0.16016 0.41406 0.10807 0.10026 0.25586 0.15039 0.44336 0.15039s0.33528-0.05013 0.44336-0.15039c0.10807-0.10156 0.16211-0.23958 0.16211-0.41406-0.000002-0.17578-0.05404-0.3138-0.16211-0.41406-0.10677-0.10026-0.25456-0.15039-0.44336-0.15039m-0.39453-0.16797c-0.16927-0.04166-0.30143-0.12044-0.39648-0.23633-0.09375-0.11588-0.14063-0.25716-0.14062-0.42383-0.000001-0.23307 0.08268-0.41732 0.24805-0.55273 0.16667-0.13541 0.39453-0.20312 0.68359-0.20312 0.29036 0.000003 0.51823 0.06771 0.68359 0.20312 0.16536 0.13542 0.24804 0.31966 0.24805 0.55273-0.000002 0.16667-0.04753 0.30794-0.14258 0.42383-0.09375 0.11589-0.22461 0.19466-0.39258 0.23633 0.1901 0.04427 0.33789 0.13086 0.44336 0.25976 0.10677 0.12891 0.16015 0.28646 0.16016 0.47266-0.000002 0.28255-0.08659 0.49935-0.25976 0.65039-0.17188 0.15104-0.41862 0.22656-0.74024 0.22656s-0.56901-0.07552-0.74219-0.22656c-0.17188-0.15104-0.25781-0.36784-0.25781-0.65039 0-0.1862 0.05339-0.34375 0.16016-0.47266 0.10677-0.1289 0.25521-0.21549 0.44531-0.25976m-0.14453-0.62305c-0.000001 0.15104 0.04687 0.26888 0.14062 0.35352 0.09505 0.08464 0.22786 0.12696 0.39844 0.12695 0.16927 0.000001 0.30143-0.04232 0.39648-0.12695 0.09635-0.08463 0.14453-0.20247 0.14453-0.35352-0.000002-0.15104-0.04818-0.26888-0.14453-0.35352-0.09505-0.08463-0.22722-0.12695-0.39648-0.12695-0.17057 0.000003-0.30339 0.04232-0.39844 0.12695-0.09375 0.08464-0.14063 0.20248-0.14062 0.35352"/>
    <path id="text2486" style="fill:#fff" d="m101.3 20.481h0.64453v-2.2246l-0.70117 0.14062v-0.35938l0.69727-0.14062h0.39453v2.584h0.64453v0.33203h-1.6797v-0.33203m0.77539 3.7473c-0.1875 0.000001-0.33528 0.05013-0.44336 0.15039-0.10677 0.10026-0.16015 0.23828-0.16015 0.41406s0.0534 0.3138 0.16015 0.41406c0.10808 0.10026 0.25586 0.15039 0.44336 0.15039s0.33529-0.05013 0.44336-0.15039c0.10807-0.10156 0.16211-0.23958 0.16211-0.41406 0-0.17578-0.054-0.3138-0.16211-0.41406-0.10677-0.10026-0.25456-0.15039-0.44336-0.15039m-0.39453-0.16797c-0.16927-0.04167-0.30143-0.12044-0.39648-0.23633-0.0937-0.11588-0.14063-0.25716-0.14063-0.42383 0-0.23307 0.0827-0.41732 0.24805-0.55274 0.16667-0.13541 0.39453-0.20312 0.68359-0.20312 0.29037 0.000003 0.51823 0.06771 0.6836 0.20312 0.16536 0.13542 0.24804 0.31966 0.24804 0.55274 0 0.16667-0.0475 0.30794-0.14257 0.42383-0.0938 0.11589-0.22461 0.19466-0.39258 0.23633 0.1901 0.04427 0.33789 0.13086 0.44336 0.25977 0.10677 0.12891 0.16015 0.28646 0.16015 0.47266 0 0.28255-0.0866 0.49935-0.25976 0.65039-0.17188 0.15104-0.41862 0.22656-0.74024 0.22656-0.32161 0-0.56901-0.07552-0.74218-0.22656-0.17188-0.15104-0.25782-0.36784-0.25782-0.65039 0-0.1862 0.0534-0.34375 0.16016-0.47266 0.10677-0.1289 0.25521-0.21549 0.44531-0.25977m-0.14453-0.62305c0 0.15104 0.0469 0.26888 0.14063 0.35352 0.0951 0.08464 0.22786 0.12696 0.39843 0.12695 0.16927 0.000002 0.30143-0.04232 0.39649-0.12695 0.0964-0.08463 0.14453-0.20247 0.14453-0.35352 0-0.15104-0.0482-0.26888-0.14453-0.35352-0.0951-0.08463-0.22722-0.12695-0.39649-0.12695-0.17057 0.000003-0.30338 0.04232-0.39843 0.12695-0.0937 0.08464-0.14063 0.20248-0.14063 0.35352m-1.5098 6.6438h0.64453v-2.2246l-0.70118 0.14062v-0.35938l0.69726-0.14062h0.39453v2.584h0.64453v0.33203h-1.6797v-0.33203m2.4824-2.584h1.5488v0.33203h-1.1875v0.71484c0.0573-0.01953 0.11458-0.03385 0.17187-0.04297 0.0573-0.01041 0.11458-0.01562 0.17188-0.01563 0.32552 0.000002 0.58333 0.0892 0.77343 0.26758 0.19011 0.17839 0.28516 0.41992 0.28516 0.72461 0 0.3138-0.0977 0.55794-0.29297 0.73242-0.19531 0.17318-0.4707 0.25976-0.82617 0.25976-0.1224 0-0.2474-0.01042-0.375-0.03125-0.1263-0.02083-0.25716-0.05208-0.39258-0.09375v-0.39648c0.11719 0.0638 0.23828 0.11133 0.36328 0.14258s0.25716 0.04687 0.39649 0.04687c0.22526 0 0.40364-0.05924 0.53515-0.17773s0.19727-0.2793 0.19727-0.48242-0.0658-0.36393-0.19727-0.48242c-0.13151-0.11849-0.30989-0.17773-0.53515-0.17773-0.10547 0.000001-0.21094 0.01172-0.31641 0.03516-0.10417 0.02344-0.21094 0.0599-0.32031 0.10938v-1.4648m-2.2109 7.384h1.377v0.33203h-1.8516v-0.33203c0.14974-0.15495 0.35352-0.36263 0.61133-0.62305 0.25911-0.26172 0.42187-0.43034 0.48828-0.50586 0.1263-0.14192 0.21419-0.26172 0.26367-0.35938 0.0508-0.09896 0.0762-0.19596 0.0762-0.29102 0-0.15495-0.0547-0.28125-0.16406-0.37891-0.10807-0.09765-0.24935-0.14648-0.42383-0.14648-0.1237 0.000003-0.25455 0.02149-0.39257 0.06445-0.13672 0.04297-0.28321 0.10808-0.43946 0.19531v-0.39844c0.15885-0.0638 0.30729-0.11198 0.44531-0.14453s0.26433-0.04883 0.37891-0.04883c0.30208 0.000003 0.54297 0.07552 0.72266 0.22656 0.17968 0.15104 0.26953 0.35287 0.26953 0.60547 0 0.11979-0.0228 0.23373-0.0684 0.3418-0.0443 0.10677-0.12565 0.23307-0.24414 0.37891-0.0326 0.03776-0.13607 0.14714-0.31055 0.32812-0.17448 0.17969-0.42057 0.43164-0.73828 0.75586m2.5469 0h1.377v0.33203h-1.8516v-0.33203c0.14974-0.15495 0.35351-0.36263 0.61132-0.62305 0.25912-0.26172 0.42188-0.43034 0.48829-0.50586 0.1263-0.14192 0.21419-0.26172 0.26367-0.35938 0.0508-0.09896 0.0762-0.19596 0.0762-0.29102 0-0.15495-0.0547-0.28125-0.16406-0.37891-0.10808-0.09765-0.24935-0.14648-0.42383-0.14648-0.1237 0.000003-0.25456 0.02149-0.39258 0.06445-0.13672 0.04297-0.2832 0.10808-0.43945 0.19531v-0.39844c0.15885-0.0638 0.30729-0.11198 0.44531-0.14453s0.26432-0.04883 0.37891-0.04883c0.30208 0.000003 0.54296 0.07552 0.72265 0.22656s0.26953 0.35287 0.26953 0.60547c0 0.11979-0.0228 0.23373-0.0684 0.3418-0.0443 0.10677-0.12565 0.23307-0.24414 0.37891-0.0326 0.03776-0.13607 0.14714-0.31054 0.32812-0.17448 0.17969-0.42058 0.43164-0.73828 0.75586m-2.5469 4.8h1.377v0.33203h-1.8516v-0.33203c0.14974-0.15495 0.35352-0.36263 0.61133-0.62305 0.25911-0.26172 0.42187-0.43034 0.48828-0.50586 0.1263-0.14193 0.21419-0.26172 0.26367-0.35938 0.0508-0.09896 0.0762-0.19596 0.0762-0.29102 0-0.15495-0.0547-0.28125-0.16406-0.37891-0.10807-0.09765-0.24935-0.14648-0.42383-0.14648-0.1237 0.000003-0.25455 0.02149-0.39257 0.06445-0.13672 0.04297-0.28321 0.10808-0.43946 0.19531v-0.39844c0.15885-0.0638 0.30729-0.11198 0.44531-0.14453s0.26433-0.04883 0.37891-0.04883c0.30208 0.000003 0.54297 0.07552 0.72266 0.22656 0.17968 0.15104 0.26953 0.35287 0.26953 0.60547 0 0.11979-0.0228 0.23373-0.0684 0.3418-0.0443 0.10677-0.12565 0.23308-0.24414 0.37891-0.0326 0.03776-0.13607 0.14714-0.31055 0.32812-0.17448 0.17969-0.42057 0.43164-0.73828 0.75586m2.2188 0.27148v-0.35938c0.099 0.04688 0.19922 0.08268 0.30078 0.10742s0.20117 0.03711 0.29883 0.03711c0.26042 0.000001 0.45898-0.08724 0.5957-0.26172 0.13802-0.17578 0.2168-0.44206 0.23633-0.79883-0.0755 0.11198-0.17122 0.19792-0.28711 0.25781-0.11589 0.0599-0.24414 0.08984-0.38476 0.08984-0.29167 0.000001-0.52279-0.08789-0.69336-0.26367-0.16927-0.17708-0.25391-0.41862-0.25391-0.72461 0-0.29948 0.0885-0.53971 0.26563-0.7207 0.17708-0.18099 0.41275-0.27148 0.70703-0.27148 0.33723 0.000003 0.5944 0.12956 0.77148 0.38867 0.17838 0.25782 0.26758 0.63281 0.26758 1.125 0 0.45964-0.10938 0.82682-0.32813 1.1016-0.21745 0.27344-0.51041 0.41016-0.8789 0.41016-0.099 0-0.19922-0.0098-0.30078-0.0293-0.10157-0.01953-0.20704-0.04883-0.31641-0.08789m0.78516-1.2363c0.17708 0.000001 0.31705-0.06055 0.41992-0.18164 0.10416-0.12109 0.15625-0.28711 0.15625-0.49805 0-0.20963-0.0521-0.375-0.15625-0.49609-0.10287-0.12239-0.24284-0.18359-0.41992-0.18359-0.17709 0.000003-0.31771 0.0612-0.42188 0.18359-0.10286 0.1211-0.1543 0.28646-0.1543 0.49609 0 0.21094 0.0514 0.37695 0.1543 0.49805 0.10417 0.1211 0.24479 0.18164 0.42188 0.18164"/>
    <path id="text2498" style="fill:#fff" d="m109.21 20.481h1.377v0.33203h-1.8516v-0.33203c0.14974-0.15495 0.35352-0.36263 0.61133-0.62305 0.25911-0.26172 0.42187-0.43034 0.48828-0.50586 0.1263-0.14193 0.21419-0.26172 0.26367-0.35938 0.0508-0.09896 0.0762-0.19596 0.0762-0.29102 0-0.15494-0.0547-0.28125-0.16406-0.37891-0.10807-0.09765-0.24935-0.14648-0.42383-0.14648-0.1237 0.000002-0.25455 0.02149-0.39257 0.06445-0.13672 0.04297-0.28321 0.10808-0.43946 0.19531v-0.39844c0.15886-0.0638 0.30729-0.11198 0.44531-0.14453s0.26433-0.04883 0.37891-0.04883c0.30208 0.000003 0.54297 0.07552 0.72266 0.22656 0.17968 0.15104 0.26953 0.35287 0.26953 0.60547 0 0.11979-0.0228 0.23372-0.0684 0.3418-0.0443 0.10677-0.12565 0.23308-0.24414 0.37891-0.0326 0.03776-0.13607 0.14714-0.31055 0.32812-0.17448 0.17969-0.42057 0.43164-0.73828 0.75586m-0.32812 5.0715v-0.35938c0.099 0.04687 0.19921 0.08268 0.30078 0.10742 0.10156 0.02474 0.20117 0.03711 0.29882 0.03711 0.26042 0 0.45899-0.08724 0.59571-0.26172 0.13802-0.17578 0.21679-0.44206 0.23633-0.79883-0.0755 0.11198-0.17123 0.19792-0.28711 0.25781-0.11589 0.0599-0.24415 0.08984-0.38477 0.08984-0.29167 0.000001-0.52279-0.08789-0.69336-0.26367-0.16927-0.17708-0.2539-0.41862-0.2539-0.72461 0-0.29948 0.0885-0.53971 0.26562-0.7207 0.17708-0.18099 0.41276-0.27148 0.70703-0.27148 0.33724 0.000003 0.5944 0.12956 0.77149 0.38867 0.17838 0.25782 0.26757 0.63282 0.26757 1.125 0 0.45964-0.10937 0.82682-0.32812 1.1016-0.21745 0.27344-0.51042 0.41016-0.87891 0.41016-0.099 0-0.19922-0.0098-0.30078-0.0293-0.10156-0.01953-0.20703-0.04883-0.3164-0.08789m0.78515-1.2363c0.17708 0.000002 0.31706-0.06055 0.41992-0.18164 0.10417-0.12109 0.15625-0.28711 0.15625-0.49805 0-0.20963-0.0521-0.375-0.15625-0.49609-0.10286-0.12239-0.24284-0.18359-0.41992-0.18359-0.17708 0.000003-0.31771 0.0612-0.42187 0.18359-0.10287 0.1211-0.1543 0.28646-0.1543 0.49609 0 0.21094 0.0514 0.37696 0.1543 0.49805 0.10416 0.1211 0.24479 0.18164 0.42187 0.18164m-2.002 5.7648h0.64453v-2.2246l-0.70117 0.14062v-0.35938l0.69726-0.14062h0.39453v2.584h0.64454v0.33203h-1.6797v-0.33203m3.3711-1.2832c-0.17708 0.000002-0.31771 0.06055-0.42187 0.18164-0.10287 0.1211-0.1543 0.28711-0.1543 0.49805 0 0.20964 0.0514 0.37565 0.1543 0.49805 0.10416 0.12109 0.24479 0.18164 0.42187 0.18164 0.17708 0.000001 0.31706-0.06055 0.41992-0.18164 0.10417-0.1224 0.15625-0.28841 0.15625-0.49805 0-0.21094-0.0521-0.37695-0.15625-0.49805-0.10286-0.12109-0.24284-0.18164-0.41992-0.18164m0.78321-1.2363v0.35938c-0.099-0.04687-0.19923-0.08268-0.30079-0.10742-0.10026-0.02474-0.19987-0.03711-0.29882-0.03711-0.26042 0.000003-0.45964 0.08789-0.59766 0.26367-0.13672 0.17578-0.21484 0.44141-0.23438 0.79688 0.0768-0.11328 0.17318-0.19987 0.28907-0.25977 0.11588-0.0612 0.24349-0.0918 0.38281-0.0918 0.29297 0.000002 0.52409 0.0892 0.69336 0.26758 0.17057 0.17708 0.25586 0.41862 0.25586 0.72461 0 0.29948-0.0885 0.53971-0.26563 0.7207-0.17708 0.18099-0.41276 0.27148-0.70703 0.27148-0.33724 0-0.59505-0.12891-0.77344-0.38672-0.17838-0.25911-0.26757-0.63411-0.26757-1.125 0-0.46094 0.10937-0.82812 0.32812-1.1016 0.21875-0.27474 0.51237-0.41211 0.88086-0.41211 0.099 0.000003 0.19857 0.0098 0.29883 0.0293 0.10156 0.01953 0.20703 0.04883 0.31641 0.08789m-3.8828 7.3195h1.377v0.33203h-1.8516v-0.33203c0.14974-0.15495 0.35352-0.36263 0.61133-0.62305 0.25911-0.26172 0.42188-0.43034 0.48828-0.50586 0.1263-0.14192 0.21419-0.26172 0.26367-0.35938 0.0508-0.09896 0.0762-0.19596 0.0762-0.29102-0.00001-0.15495-0.0547-0.28125-0.16407-0.37891-0.10807-0.09765-0.24935-0.14648-0.42382-0.14648-0.1237 0.000003-0.25456 0.02149-0.39258 0.06445-0.13672 0.04297-0.28321 0.10808-0.43946 0.19531v-0.39844c0.15886-0.0638 0.3073-0.11198 0.44532-0.14453s0.26432-0.04883 0.3789-0.04883c0.30209 0.000003 0.54297 0.07552 0.72266 0.22656s0.26953 0.35287 0.26953 0.60547c0 0.11979-0.0228 0.23373-0.0684 0.3418-0.0443 0.10677-0.12565 0.23307-0.24414 0.37891-0.0326 0.03776-0.13607 0.14714-0.31055 0.32812-0.17448 0.17969-0.42057 0.43164-0.73828 0.75586m3.4024-1.2402c0.1888 0.04037 0.33593 0.12435 0.4414 0.25195 0.10677 0.12761 0.16016 0.28516 0.16016 0.47266 0 0.28776-0.099 0.51042-0.29688 0.66797-0.19791 0.15755-0.47916 0.23633-0.84375 0.23633-0.12239-0.000001-0.24869-0.01237-0.3789-0.03711-0.12891-0.02344-0.26237-0.05924-0.40039-0.10742v-0.38086c0.10937 0.0638 0.22916 0.11198 0.35937 0.14453s0.26628 0.04883 0.40821 0.04883c0.24739 0.000001 0.43554-0.04883 0.56445-0.14648 0.13021-0.09766 0.19531-0.23958 0.19531-0.42578 0-0.17187-0.0606-0.30599-0.18164-0.40234-0.11979-0.09765-0.28711-0.14648-0.50195-0.14648h-0.33985v-0.32422h0.35547c0.19401 0.000001 0.34245-0.03841 0.44531-0.11524 0.10287-0.07812 0.1543-0.1901 0.1543-0.33594 0-0.14974-0.0534-0.26432-0.16015-0.34375-0.10547-0.08073-0.25717-0.12109-0.45508-0.12109-0.10808 0.000003-0.22396 0.01172-0.34766 0.03516s-0.25977 0.0599-0.4082 0.10938v-0.35156c0.14974-0.04166 0.28971-0.07291 0.41992-0.09375 0.13151-0.02083 0.25521-0.03125 0.37109-0.03125 0.29948 0.000003 0.53646 0.06836 0.71094 0.20508 0.17448 0.13542 0.26172 0.31901 0.26172 0.55078 0 0.16146-0.0462 0.29818-0.13867 0.41016-0.0925 0.11068-0.22396 0.1875-0.39453 0.23047m-2.5469 4.8c0.1888 0.04037 0.33594 0.12435 0.44141 0.25195 0.10677 0.1276 0.16015 0.28516 0.16015 0.47266 0 0.28776-0.099 0.51042-0.29687 0.66797-0.19792 0.15755-0.47917 0.23633-0.84375 0.23633-0.1224 0-0.2487-0.01237-0.37891-0.03711-0.1289-0.02344-0.26237-0.05924-0.40039-0.10742v-0.38086c0.10938 0.0638 0.22917 0.11198 0.35938 0.14453 0.1302 0.03255 0.26627 0.04883 0.4082 0.04883 0.24739 0.000001 0.43555-0.04883 0.56445-0.14648 0.13021-0.09766 0.19531-0.23958 0.19532-0.42578-0.00001-0.17187-0.0606-0.30599-0.18164-0.40234-0.1198-0.09766-0.28712-0.14648-0.50196-0.14648h-0.33984v-0.32422h0.35547c0.19401 0.000002 0.34244-0.03841 0.44531-0.11523 0.10286-0.07812 0.15429-0.1901 0.1543-0.33594-0.00001-0.14974-0.0534-0.26432-0.16016-0.34375-0.10547-0.08073-0.25716-0.12109-0.45508-0.12109-0.10807 0.000003-0.22396 0.01172-0.34765 0.03516-0.1237 0.02344-0.25977 0.0599-0.40821 0.10938v-0.35156c0.14974-0.04166 0.28972-0.07291 0.41992-0.09375 0.13151-0.02083 0.25521-0.03125 0.3711-0.03125 0.29948 0.000003 0.53646 0.06836 0.71094 0.20508 0.17447 0.13542 0.26171 0.31901 0.26171 0.55078 0 0.16146-0.0462 0.29818-0.13867 0.41016-0.0924 0.11068-0.22396 0.1875-0.39453 0.23047m2.1953-1.084c-0.20312 0.000003-0.35612 0.10026-0.45898 0.30078-0.10156 0.19922-0.15234 0.49935-0.15234 0.90039 0 0.39974 0.0508 0.69987 0.15234 0.90039 0.10286 0.19922 0.25586 0.29883 0.45898 0.29883 0.20443 0 0.35742-0.09961 0.45899-0.29883 0.10286-0.20052 0.15429-0.50065 0.1543-0.90039-0.00001-0.40104-0.0514-0.70117-0.1543-0.90039-0.10157-0.20052-0.25456-0.30078-0.45899-0.30078m0-0.3125c0.32683 0.000003 0.57617 0.12956 0.74805 0.38867 0.17318 0.25782 0.25976 0.63281 0.25977 1.125-0.00001 0.49089-0.0866 0.86589-0.25977 1.125-0.17188 0.25781-0.42122 0.38672-0.74805 0.38672-0.32682 0-0.57682-0.12891-0.75-0.38672-0.17187-0.25911-0.25781-0.63411-0.25781-1.125 0-0.49219 0.0859-0.86718 0.25781-1.125 0.17318-0.25911 0.42318-0.38867 0.75-0.38867"/>
   </g>
   <g id="g3683" transform="matrix(1.0882 0 0 1.0882 -66.065 862.77)">
    <path id="path3933" style="fill:#fff" d="m15.79 26.17c-0.39985 0-0.75632-0.04149-1.0694-0.12448-0.31309-0.08299-0.58469-0.21501-0.81479-0.39608-0.2301-0.18106-0.4206-0.41494-0.57148-0.70162-0.147-0.29-0.259-0.641-0.334-1.052l1.6579-0.24331c0.03773 0.22256 0.09053 0.41117 0.15843 0.56583 0.0679 0.15089 0.149 0.27537 0.2433 0.37344 0.09807 0.09431 0.20935 0.16409 0.33384 0.20936 0.12448 0.04151 0.26028 0.06224 0.4074 0.06224 0.33195 0.000001 0.5828-0.11128 0.75255-0.33384 0.17352-0.22256 0.26028-0.5413 0.26028-0.95625v-4.1815h-1.59v-1.3071h3.2535v5.4489c-0.000005 0.40362-0.05847 0.76952-0.1754 1.0977-0.11694 0.32441-0.29046 0.60166-0.52056 0.83176-0.22633 0.22633-0.50736 0.40174-0.84308 0.52622-0.33195 0.12071-0.71483 0.18106-1.1486 0.18106"/>
    <path id="path3935" style="fill:#fff" d="m25.685 26.06-0.69205-1.9931h-2.973l-0.69205 1.9931h-1.6332l2.8457-7.8008h1.9267l2.8346 7.8008h-1.6166m-1.827-5.4644c-0.04429-0.12918-0.08859-0.25836-0.13287-0.38755-0.0406-0.13287-0.07751-0.25282-0.11073-0.35987-0.02953-0.11072-0.05537-0.20115-0.07751-0.27128-0.01846-0.07012-0.02953-0.10888-0.03322-0.11626-0.0037 0.01108-0.01477 0.05168-0.03322 0.1218-0.01845 0.07013-0.04429 0.15872-0.07751 0.26575-0.02953 0.10704-0.06644 0.227-0.11073 0.35987-0.0406 0.12919-0.08305 0.25837-0.12734 0.38755l-0.76956 2.2422h2.2422l-0.76956-2.2422"/>
    <path id="path3937" style="fill:#fff" d="m33.419 26.06-3.7243-6.007c0.02021 0.16241 0.03841 0.32481 0.0546 0.4872 0.01618 0.14026 0.02831 0.29159 0.03639 0.45398 0.01213 0.16241 0.0182 0.31743 0.0182 0.46506v4.6007h-1.5892v-7.8008h2.0441l3.7788 6.0568c-0.021-0.155-0.039-0.318-0.055-0.488-0.016-0.144-0.031-0.306-0.043-0.487-0.008-0.181-0.012-0.363-0.012-0.548v-4.5343h1.5892v7.8008h-2.0987"/>
   </g>
   <path id="path3947" style="opacity:.8" d="m-15.841 926.98c-0.000027 3.032-0.27772 5.5912-0.83305 7.6776-0.55539 2.0714-1.3284 3.7525-2.319 5.0434-0.97568 1.2758-2.1389 2.199-3.4898 2.7694-1.3359 0.55537-2.7994 0.83305-4.3904 0.83305-1.5911 0-3.0545-0.27768-4.3904-0.83305s-2.4842-1.471-3.4448-2.7468c-0.96064-1.2909-1.7111-2.972-2.2515-5.0434-0.54036-2.0864-0.81054-4.6531-0.81054-7.7001 0-3.1971 0.26267-5.8389 0.78803-7.9253 0.54035-2.1014 1.2984-3.775 2.274-5.0208 0.97565-1.2458 2.1389-2.1164 3.4898-2.6117 1.3659-0.51031 2.8744-0.76548 4.5255-0.76551 1.546 0.00003 2.9795 0.2552 4.3004 0.76551 1.3359 0.49536 2.4841 1.3659 3.4448 2.6117 0.97563 1.2459 1.7336 2.9195 2.274 5.0208 0.55534 2.0864 0.83303 4.7282 0.83305 7.9253m-6.3492 0c-0.000018-2.2365-0.08262-4.0827-0.24766-5.5387-0.16513-1.471-0.42781-2.6342-0.78803-3.4898-0.36026-0.87055-0.83307-1.4785-1.4184-1.8237-0.57039-0.34521-1.2684-0.51782-2.0939-0.51785-0.88561 0.00003-1.6286 0.18015-2.229 0.54036-0.60041 0.34526-1.0882 0.95316-1.4635 1.8237-0.36025 0.8706-0.62292 2.0414-0.78802 3.5123-0.15011 1.456-0.22516 3.2872-0.22515 5.4936-0.00001 2.1765 0.08252 3.9927 0.24766 5.4486 0.1651 1.456 0.42778 2.6268 0.78803 3.5124 0.36023 0.87058 0.83305 1.486 1.4184 1.8462 0.58537 0.36025 1.3059 0.54037 2.1614 0.54036 0.82554 0.00001 1.531-0.18011 2.1164-0.54036 0.58537-0.36023 1.0657-0.97564 1.441-1.8462 0.37524-0.88559 0.64542-2.0564 0.81055-3.5124 0.1801-1.456 0.27016-3.2722 0.27018-5.4486"/>
   <path id="path3949" style="opacity:.8" d="m-8.0776 943.3v-4.8426h6.2199v-21.333l-5.965 4.8889v-6.0538l6.3126-5.306h6.1633v27.804h5.6175v4.8426h-18.348"/>
   <g id="text3690" style="fill:#4d4d4d" transform="matrix(1.0882 0 0 1.0882 -66.065 858.42)">
    <path id="path3695" d="m14 41.959v-2.8958h0.39255v2.5752h1.4633v0.32062h-1.8559"/>
    <path id="path3697" d="m17.5 42c-0.15894 0-0.30966-0.02124-0.45215-0.06371-0.1425-0.04248-0.26787-0.10824-0.37611-0.1973-0.10687-0.09043-0.19182-0.20415-0.25485-0.34117-0.06303-0.13838-0.09454-0.30212-0.09454-0.4912v-1.8435h0.39255v1.8107c-0.000001 0.14661 0.01918 0.27129 0.05755 0.37405 0.03973 0.10139 0.09454 0.18429 0.16442 0.24868 0.06988 0.0644 0.15209 0.11167 0.24663 0.14181 0.09591 0.02877 0.20073 0.04316 0.31445 0.04316 0.11235 0 0.21854-0.01507 0.31856-0.04521s0.18771-0.0781 0.26307-0.14387 0.13427-0.1514 0.17675-0.2569c0.04384-0.10687 0.06576-0.23635 0.06577-0.38844v-1.7839h0.39049v1.8066c-0.000003 0.19319-0.0322 0.36104-0.0966 0.50353-0.06303 0.14113-0.14935 0.25828-0.25896 0.35144-0.10962 0.09317-0.23841 0.16236-0.38638 0.20758-0.14661 0.04521-0.30349 0.06782-0.47065 0.06782"/>
    <path id="path3699" d="m21.263 41.959-1.5496-2.4663c0.0027 0.06714 0.0062 0.13359 0.01028 0.19936 0.0027 0.05618 0.0048 0.11578 0.0062 0.1788 0.0027 0.06166 0.0041 0.11647 0.0041 0.16442v1.9237h-0.34939v-2.8958h0.45626l1.5661 2.4827c-0.0041-0.06714-0.0082-0.13428-0.01233-0.20141-0.0027-0.05755-0.0055-0.11989-0.0082-0.18703-0.0027-0.06851-0.0041-0.13359-0.0041-0.19525v-1.899h0.3535v2.8958h-0.4727"/>
    <path id="path3701" d="m24.919 40.481c-0.000003 0.24115-0.03631 0.45421-0.10893 0.63918-0.07262 0.1836-0.17196 0.33774-0.29801 0.46243-0.12606 0.12331-0.2754 0.21717-0.44804 0.28157-0.17127 0.06303-0.35624 0.09454-0.55491 0.09454h-1.0831v-2.8958h0.95774c0.22333 0.000002 0.42886 0.02809 0.61657 0.08426 0.18908 0.05481 0.35144 0.14044 0.48709 0.2569 0.13564 0.1151 0.24114 0.2617 0.31651 0.43982 0.07673 0.17812 0.11509 0.3905 0.11509 0.63712m-0.3946 0c-0.000002-0.19593-0.02809-0.36309-0.08426-0.50148-0.05618-0.13975-0.13496-0.25416-0.23635-0.34322s-0.22265-0.15414-0.36378-0.19525c-0.14113-0.04247-0.29596-0.06371-0.46448-0.06371h-0.55697v2.2669h0.64534c0.15209 0 0.29253-0.02466 0.42132-0.07399 0.13016-0.04932 0.24252-0.12263 0.33706-0.21991s0.16853-0.21854 0.22196-0.36378 0.08015-0.31376 0.08015-0.50559"/>
    <path id="path3703" d="m25.511 41.959v-2.8958h0.39255v2.8958h-0.39255"/>
   </g>
   <path id="path3739" style="opacity:.3;fill:#fff" d="m-39.913 871.92c-0.03265 0.21364-0.03401 0.42249-0.03401 0.64613 0 2.404 1.9489 4.3529 4.3529 4.3529s4.3529-1.9488 4.3529-4.3529c0-0.22364-0.0013-0.43249-0.03401-0.64613-0.22202 2.1959-2.0644 3.9108-4.3189 3.9108-2.2544 0-4.0969-1.7149-4.3189-3.9108zm43.529 0c-0.032648 0.21364-0.034007 0.42249-0.034007 0.64613 0 2.404 1.9489 4.3529 4.3529 4.3529s4.3529-1.9488 4.3529-4.3529c0-0.22364-0.0013-0.43249-0.03401-0.64613-0.22202 2.1959-2.0644 3.9108-4.3189 3.9108-2.2544 0-4.0969-1.7149-4.3189-3.9108z"/>
  </g>
  <rect id="rect3003" style="opacity:.15;fill:#fff" clip-path="url(#clipPath3009)" rx="25" ry="25" transform="translate(98 3.8281e-7)" width="92" y="958.36" x="-96" height="92"/>
 </g>
</svg>
