<?xml version="1.0" encoding="UTF-8" standalone="no"?>
<!-- Created with Inkscape (http://www.inkscape.org/) -->
<svg id="svg11037" xmlns:rdf="http://www.w3.org/1999/02/22-rdf-syntax-ns#" xmlns="http://www.w3.org/2000/svg" height="96" width="96" version="1.1" xmlns:cc="http://creativecommons.org/ns#" xmlns:xlink="http://www.w3.org/1999/xlink" xmlns:dc="http://purl.org/dc/elements/1.1/">
 <defs id="defs11039">
  <clipPath id="clipPath3009" clipPathUnits="userSpaceOnUse">
   <path id="path3011" style="opacity:.15;fill:#fff" d="m-2 956.36h-96v33.562l96 25.687v-59.25z"/>
  </clipPath>
  <linearGradient id="linearGradient3885" x1="48" xlink:href="#ButtonColor" gradientUnits="userSpaceOnUse" x2="48" y1="90" y2="5.9877"/>
  <linearGradient id="ButtonColor" x1="58.65" gradientUnits="userSpaceOnUse" y1="122" gradientTransform="matrix(1.0172 0 0 1.0172 -1.1034 -1.1034)" x2="58.65" y2="5.4252">
   <stop id="stop3189" offset="0"/>
   <stop id="stop3191" style="stop-color:#515151" offset="1"/>
  </linearGradient>
  <radialGradient id="radialGradient3804" xlink:href="#linearGradient3720" gradientUnits="userSpaceOnUse" cy="48" cx="48" gradientTransform="matrix(1.1429 0 0 .85714 -6.8571 3.8571)" r="28"/>
  <linearGradient id="linearGradient3720">
   <stop id="stop3722" style="stop-color:#efad51" offset="0"/>
   <stop id="stop3724" style="stop-color:#d56616" offset="1"/>
  </linearGradient>
  <radialGradient id="radialGradient3834" xlink:href="#linearGradient3720" gradientUnits="userSpaceOnUse" cy="48" cx="48" gradientTransform="matrix(1.1429 0 0 .85714 -6.8571 57.857)" r="28"/>
  <radialGradient id="radialGradient3832" xlink:href="#linearGradient3720" gradientUnits="userSpaceOnUse" cy="48" cx="48" gradientTransform="matrix(1.1429 0 0 -.85714 -6.8571 38.143)" r="28"/>
  <linearGradient id="linearGradient2943" y2="52.388" gradientUnits="userSpaceOnUse" y1="90.435" x2="48.495" x1="48.495">
   <stop id="stop3923" style="stop-color:#a94508" offset="0"/>
   <stop id="stop3925" style="stop-color:#d58100;stop-opacity:0" offset="1"/>
  </linearGradient>
  <linearGradient id="linearGradient3613" y2="138.66" gradientUnits="userSpaceOnUse" y1="20.221" x2="48" x1="48">
   <stop id="stop3739" style="stop-color:#fff" offset="0"/>
   <stop id="stop3741" style="stop-color:#fff;stop-opacity:0" offset="1"/>
  </linearGradient>
  <clipPath id="clipPath3613">
   <rect id="rect3615" style="fill:#fff" rx="6" ry="6" height="84" width="84" y="6" x="6"/>
  </clipPath>
  <filter id="filter3794" width="1.384" y="-.192" x="-.192" height="1.384" color-interpolation-filters="sRGB">
   <feGaussianBlur id="feGaussianBlur3796" stdDeviation="5.28"/>
  </filter>
  <radialGradient id="radialGradient3138" gradientUnits="userSpaceOnUse" cy="44.717" cx="48" gradientTransform="matrix(1.1429 0 0 .76190 -6.8571 5.9297)" r="42">
   <stop id="stop3751" style="stop-color:#fff" offset="0"/>
   <stop id="stop3753" style="stop-color:#fff;stop-opacity:0" offset="1"/>
  </radialGradient>
  <clipPath id="clipPath3879" clipPathUnits="userSpaceOnUse">
   <rect id="rect3881" style="fill:url(#linearGradient3883)" rx="22.826" ry="22.826" height="84" width="84" y="6" x="6"/>
  </clipPath>
  <linearGradient id="linearGradient3883" x1="48" xlink:href="#ButtonColor" gradientUnits="userSpaceOnUse" y1="962.62" gradientTransform="matrix(1.05 0 0 1.05 -2.4 -1006.6)" x2="48" y2="1046.1"/>
 </defs>
 <metadata id="metadata11042">
  <rdf:RDF>
   <cc:Work rdf:about="">
    <dc:format>image/svg+xml</dc:format>
    <dc:type rdf:resource="http://purl.org/dc/dcmitype/StillImage"/>
    <dc:title/>
   </cc:Work>
  </rdf:RDF>
 </metadata>
 <g id="layer1" transform="translate(0 -956.36)">
  <g id="g3063" transform="matrix(1.0952 0 0 1.0952 -4.5714 951.79)" clip-path="url(#clipPath3879)">
   <g id="layer1-5">
    <path id="rect2419" style="fill:url(#linearGradient3885)" d="m12 6c-3.324 0-6 2.676-6 6v72c0 3.324 2.676 6 6 6h72c3.324 0 6-2.676 6-6v-72c0-3.324-2.676-6-6-6h-72zm-2 4h6v4h-6v-4zm70 0h6v4h-6v-4zm-70 8h6v4h-6v-4zm70 0h6v4h-6v-4zm-70 8h6v4h-6v-4zm70 0h6v4h-6v-4zm-70 8h6v4h-6v-4zm70 0h6v4h-6v-4zm-70 8h6v4h-6v-4zm70 0h6v4h-6v-4zm-70 8h6v4h-6v-4zm70 0h6v4h-6v-4zm-70 8h6v4h-6v-4zm70 0h6v4h-6v-4zm-70 8h6v4h-6v-4zm70 0h6v4h-6v-4zm-70 8h6v4h-6v-4zm70 0h6v4h-6v-4zm-70 8h6v4h-6v-4zm70 0h6v4h-6v-4z"/>
   </g>
   <g id="layer4">
    <rect id="rect3796" style="fill:url(#radialGradient3804)" rx="2" ry="2.1" height="48" width="56" y="24" x="20"/>
    <path id="rect3822" style="fill:url(#radialGradient3834)" d="m22 78c-1.108 0-2 0.93035-2 2.0938v9.906h56v-9.906c0-1.164-0.892-2.094-2-2.094h-52z"/>
    <path id="path3830" style="fill:url(#radialGradient3832)" d="m22 18c-1.108 0-2-0.93035-2-2.0938v-9.906h56v9.906c0 1.164-0.892 2.094-2 2.094h-52z"/>
    <path id="rect3912" style="opacity:.7;fill:url(#linearGradient2943)" d="m20 48v21.906c0 1.164 0.892 2.094 2 2.094h52c1.108 0 2-0.93035 2-2.0938v-21.906h-56zm2 30c-1.108 0-2 0.93035-2 2.0938v9.906h56v-9.906c0-1.164-0.892-2.094-2-2.094h-52z"/>
    <path id="path3828" style="fill:#fff" d="m40 36v24l20.021-12-20.021-12z"/>
    <path id="path3833" style="opacity:.2;fill:#fff" d="m39.844 35.062a0.95155 0.95155 0 0 0 -0.782 0.938v24a0.95155 0.95155 0 0 0 1.438 0.812l20.031-12a0.95155 0.95155 0 0 0 0 -1.625l-20.031-11.999a0.95155 0.95155 0 0 0 -0.65625 -0.125z"/>
    <path id="path3837" style="opacity:.05;fill:#fff" d="m40.031 33.938c-1.2619-0.03384-2.2412 1.2134-2.0625 2.4328v23.911c0.1693 1.3956 1.9012 2.2444 3.0938 1.4688 6.7205-4.0177 13.427-8.0603 20.156-12.062 0.94496-0.67081 1.1908-2.1346 0.375-3-0.734-0.719-1.739-1.121-2.596-1.695-6.03-3.613-12.061-7.225-18.091-10.838-0.274-0.136-0.578-0.164-0.875-0.218z"/>
   </g>
   <rect id="rect3171" style="opacity:.1;filter:url(#filter3794);stroke:#fff;stroke-linecap:round;stroke-width:.5;fill:url(#linearGradient3613)" clip-path="url(#clipPath3613)" rx="12" ry="12" height="66" width="66" y="15" x="15"/>
   <path id="path3757" style="opacity:.4;fill:url(#radialGradient3138)" d="m12 6c-3.324 0-6 2.676-6 6v46.375c2.898-1.538 5.906-3.004 9.062-4.375h-5.062v-4h6v3.5938c20.055-8.535 44.989-13.594 72-13.594 0.66944 0 1.3332 0.02506 2 0.03125v-28.031c0-3.324-2.676-6-6-6h-72zm-2 4h6v4h-6v-4zm70 0h6v4h-6v-4zm-70 8h6v4h-6v-4zm70 0h6v4h-6v-4zm-70 8h6v4h-6v-4zm70 0h6v4h-6v-4zm-70 8h6v4h-6v-4zm70 0h6v4h-6v-4zm-70 8h6v4h-6v-4z"/>
  </g>
  <rect id="rect3003" style="opacity:.15;fill:#fff" clip-path="url(#clipPath3009)" rx="25" ry="25" transform="translate(98)" width="92" y="958.36" x="-96" height="92"/>
 </g>
</svg>
