<?xml version="1.0" encoding="UTF-8" standalone="no"?>
<!-- Created with Inkscape (http://www.inkscape.org/) -->
<svg id="svg11037" xmlns:rdf="http://www.w3.org/1999/02/22-rdf-syntax-ns#" xmlns="http://www.w3.org/2000/svg" height="96" width="96" version="1.1" xmlns:cc="http://creativecommons.org/ns#" xmlns:xlink="http://www.w3.org/1999/xlink" xmlns:dc="http://purl.org/dc/elements/1.1/">
 <defs id="defs11039">
  <linearGradient id="linearGradient3706" y2="5.9877" gradientUnits="userSpaceOnUse" y1="90" x2="48" x1="48">
   <stop id="stop3702" style="stop-color:#e6e6e6" offset="0"/>
   <stop id="stop3704" style="stop-color:#f5f5f5" offset="1"/>
  </linearGradient>
  <linearGradient id="linearGradient6017" y2="6.5074" gradientUnits="userSpaceOnUse" y1="89.637" x2="17.385" x1="17.385">
   <stop id="stop6013" style="stop-color:#7dbb33" offset="0"/>
   <stop id="stop6015" style="stop-color:#9ed35f" offset="1"/>
  </linearGradient>
  <linearGradient id="linearGradient3989" x1="48" gradientUnits="userSpaceOnUse" x2="48" y1="20.221" y2="138.66">
   <stop id="stop3739-2" style="stop-color:#fff" offset="0"/>
   <stop id="stop3741-1" style="stop-color:#fff;stop-opacity:0" offset="1"/>
  </linearGradient>
  <clipPath id="clipPath3876">
   <path id="path3878" style="fill:#f00" d="m12 6c-3.324 0-6 2.676-6 6v72c0 3.324 2.676 6 6 6h12v-84h-12z"/>
  </clipPath>
  <filter id="filter3794" width="1.384" y="-.192" x="-.192" height="1.384" color-interpolation-filters="sRGB">
   <feGaussianBlur id="feGaussianBlur3796" stdDeviation="5.28"/>
  </filter>
  <clipPath id="clipPath3870">
   <path id="path3872" style="fill:#f0f" d="m24 6v84h60c3.324 0 6-2.676 6-6v-72c0-3.324-2.676-6-6-6h-60z"/>
  </clipPath>
  <linearGradient id="linearGradient6089" y2="16" gradientUnits="userSpaceOnUse" y1="80" x2="56" x1="56">
   <stop id="stop6085" style="stop-color:#d5d5d5" offset="0"/>
   <stop id="stop6087" style="stop-color:#e3e3e3" offset="1"/>
  </linearGradient>
  <clipPath id="clipPath3134" clipPathUnits="userSpaceOnUse">
   <rect id="rect3136" style="fill:url(#linearGradient3138)" rx="22.826" ry="22.826" height="84" width="84" y="6" x="6"/>
  </clipPath>
  <linearGradient id="linearGradient3138" x1="48" gradientUnits="userSpaceOnUse" y1="962.62" gradientTransform="matrix(1.05 0 0 1.05 -2.4 -1006.6)" x2="48" y2="1046.1">
   <stop id="stop3797" style="stop-color:#13a6fd" offset="0"/>
   <stop id="stop3799" style="stop-color:#2975b6" offset="1"/>
  </linearGradient>
  <clipPath id="clipPath3009" clipPathUnits="userSpaceOnUse">
   <path id="path3011" style="opacity:.15;fill:#fff" d="m-2 956.36h-96v33.562l96 25.687v-59.25z"/>
  </clipPath>
 </defs>
 <metadata id="metadata11042">
  <rdf:RDF>
   <cc:Work rdf:about="">
    <dc:format>image/svg+xml</dc:format>
    <dc:type rdf:resource="http://purl.org/dc/dcmitype/StillImage"/>
    <dc:title/>
   </cc:Work>
  </rdf:RDF>
 </metadata>
 <g id="layer1" transform="translate(0 -956.36)">
  <g id="g3085" transform="matrix(1.0952 0 0 1.0952 -4.5714 951.79)" clip-path="url(#clipPath3134)">
   <g id="layer1-9">
    <path id="rect2419" style="fill:url(#linearGradient3706)" d="m24 6v84h60c3.324 0 6-2.676 6-6v-72c0-3.324-2.676-6-6-6h-60z"/>
    <path id="path6019" style="color:#000000;fill:url(#linearGradient6017)" d="m12 6c-3.324 0-6 2.676-6 6v72c0 3.324 2.676 6 6 6h12v-84h-12z"/>
   </g>
   <g id="layer6">
    <rect id="rect3171" style="opacity:.2;filter:url(#filter3794);stroke:#fff;stroke-linecap:round;stroke-width:.5;fill:url(#linearGradient3989)" clip-path="url(#clipPath3876)" rx="12" ry="12" height="66" width="66" y="15" x="15"/>
    <rect id="rect3868" style="opacity:.5;filter:url(#filter3794);stroke:#fff;stroke-linecap:round;stroke-width:.5;fill:url(#linearGradient3989)" clip-path="url(#clipPath3870)" rx="12" ry="12" height="66" width="66" y="15" x="15"/>
   </g>
   <g id="layer3">
    <path id="rect6070" style="color:#000000;fill:url(#linearGradient6089)" d="m33 16v64h8v-56h40v-8h-48z"/>
    <rect id="rect6091" style="opacity:.5;color:#000000;fill:#fff" height="84" width="1" y="6" x="24"/>
    <rect id="rect6093" style="opacity:.05;color:#000000" height="84" width="1" y="6" x="23"/>
    <rect id="rect6095" style="opacity:.5;color:#000000;fill:#80d818" height="9" width="21" y="39" x="60"/>
    <rect id="rect6097" style="opacity:.2;color:#000000;fill:#80d818" height="15" width="21" y="24" x="60"/>
    <rect id="rect6099" style="opacity:.2;color:#000000;fill:#80d818" height="9" width="19" y="39" x="41"/>
    <path id="rect6029" style="opacity:.2;color:#000000" d="m40 15v8h-8v1h8v7h-8v1h8v7h-8v1h8v7h-8v1h8v7h-8v1h8v7h-8v1h8v7h-8v1h8v9h1v-9h19v9h1v-9h21v-1h-21v-7h21v-1h-21v-7h21v-1h-21v-7h21v-1h-21v-7h21v-1h-21v-7h21v-1h-21v-7h21v-1h-21v-8h-1v8h-19v-8h-1zm1 9h19v7h-19v-7zm0 8h19v7h-19v-7zm0 8h19v7h-19v-7zm0 8h19v7h-19v-7zm0 8h19v7h-19v-7zm0 8h19v7h-19v-7z"/>
    <path id="rect6027" style="block-progression:tb;color:#000000;text-indent:0;text-transform:none;fill:#808080" d="m32 15v66h50v-66h-50zm1 1h48v64h-48v-64z"/>
    <rect id="rect6101" style="opacity:.2;color:#000000;fill:#6e6e6e" height="9" width="8" y="39" x="33"/>
    <rect id="rect6103" style="opacity:.2;color:#000000;fill:#6e6e6e" height="9" width="21" y="15" x="60"/>
    <g id="text6105" style="fill:#4d4d4d">
     <path id="path6166" d="m51.213 21-0.24414-0.70312h-1.0488l-0.244 0.703h-0.57617l1.0039-2.752h0.67969l1 2.752h-0.57031m-0.64453-1.9277c-0.01563-0.04557-0.03125-0.09114-0.04687-0.13672-0.01432-0.04687-0.02735-0.08919-0.03906-0.12695-0.01042-0.03906-0.01953-0.07096-0.02734-0.0957-0.0065-0.02474-0.01042-0.03841-0.01172-0.04102-0.0013 0.0039-0.0052 0.01823-0.01172 0.04297-0.0065 0.02474-0.01563 0.05599-0.02734 0.09375-0.01042 0.03776-0.02344 0.08008-0.03906 0.12695-0.01432 0.04557-0.0293 0.09115-0.04492 0.13672l-0.27148 0.79102h0.79102l-0.27148-0.79102"/>
    </g>
    <g id="text6109" style="fill:#4d4d4d">
     <path id="path6163" d="m71.707 20.215c-0.000002 0.13932-0.028 0.25912-0.08398 0.35938-0.05599 0.09896-0.13282 0.18034-0.23047 0.24414-0.09636 0.0625-0.20899 0.10872-0.33789 0.13867-0.129 0.029-0.266 0.043-0.41 0.043h-1.377v-2.752h1.2598c0.16276 0.000003 0.30729 0.01433 0.43359 0.04297 0.1276 0.02735 0.23502 0.06966 0.32227 0.12695 0.08724 0.05729 0.15299 0.12956 0.19727 0.2168 0.04557 0.08594 0.06836 0.1875 0.06836 0.30469-0.000002 0.15625-0.04362 0.28841-0.13086 0.39648-0.08594 0.10677-0.21745 0.17904-0.39453 0.2168 0.22266 0.02604 0.39192 0.09636 0.50781 0.21094 0.11718 0.11328 0.17578 0.26367 0.17578 0.45117m-0.739-1.197c-0.000002-0.1237-0.03972-0.21159-0.11914-0.26367-0.07813-0.05208-0.19466-0.07812-0.34961-0.07813h-0.65625v0.68164h0.66016c0.16276 0.000002 0.2806-0.02799 0.35352-0.08398 0.07422-0.05729 0.11133-0.14258 0.11133-0.25586m0.16016 1.1523c-0.000002-0.07292-0.01432-0.13411-0.04297-0.18359s-0.06836-0.08919-0.11914-0.11914c-0.04948-0.02995-0.10808-0.05143-0.17578-0.06445-0.06641-0.01302-0.13867-0.01953-0.2168-0.01953h-0.73047v0.78906h0.75195c0.07552 0 0.14583-0.0059 0.21094-0.01758 0.0651-0.01302 0.12109-0.0345 0.16797-0.06445 0.04818-0.03125 0.08594-0.07292 0.11328-0.125s0.04101-0.11719 0.04102-0.19531"/>
    </g>
    <g id="text6113" style="fill:#4d4d4d">
     <path id="path6142" d="m35.584 29v-0.4082h0.68164v-1.877l-0.66016 0.41211v-0.43164l0.68945-0.44726h0.51953v2.3438h0.63086v0.4082h-1.8613"/>
    </g>
    <g id="text6117" style="fill:#4d4d4d">
     <path id="path6145" d="m35.471 37v-0.38086c0.0625-0.13672 0.13867-0.25976 0.22852-0.36914 0.08984-0.11068 0.18359-0.21159 0.28125-0.30273 0.09896-0.09245 0.19661-0.17773 0.29297-0.25586 0.09766-0.07943 0.1849-0.1556 0.26172-0.22852 0.07812-0.07422 0.14128-0.14844 0.18945-0.22266 0.04818-0.07422 0.07227-0.15299 0.07227-0.23633-0.000001-0.12239-0.0306-0.21289-0.0918-0.27148s-0.15104-0.08789-0.26953-0.08789c-0.11719 0.000003-0.20703 0.0319-0.26953 0.0957-0.0612 0.0625-0.10091 0.1569-0.11914 0.2832l-0.55273-0.03125c0.01302-0.10807 0.03971-0.20963 0.08008-0.30469 0.04036-0.09505 0.09766-0.17838 0.17188-0.25 0.07552-0.07161 0.16927-0.1276 0.28125-0.16797 0.11328-0.04166 0.24805-0.0625 0.4043-0.0625 0.14844 0.000003 0.27995 0.01758 0.39453 0.05273 0.11458 0.03386 0.21094 0.08399 0.28906 0.15039 0.07812 0.06641 0.13737 0.14779 0.17774 0.24414 0.04036 0.09505 0.06054 0.20378 0.06055 0.32617-0.000002 0.12891-0.02539 0.24544-0.07617 0.34961s-0.11589 0.20052-0.19531 0.28906c-0.07943 0.08724-0.16797 0.16927-0.26562 0.24609-0.09636 0.07682-0.1901 0.15169-0.28125 0.22461s-0.17448 0.14648-0.25 0.2207c-0.07422 0.07422-0.12956 0.15365-0.16602 0.23828h1.2773v0.45117h-1.9258"/>
    </g>
    <g id="text6121" style="fill:#4d4d4d">
     <path id="path6148" d="m37.412 44.236c-0.000002 0.125-0.02083 0.23763-0.0625 0.33789-0.04037 0.09896-0.10156 0.18359-0.18359 0.25391-0.08203 0.07031-0.18425 0.12435-0.30664 0.16211-0.1211 0.03646-0.26237 0.05469-0.42383 0.05469-0.17969 0-0.33138-0.02279-0.45508-0.06836-0.1224-0.04557-0.22331-0.10547-0.30274-0.17969-0.07813-0.07552-0.13737-0.16081-0.17773-0.25586-0.03906-0.09505-0.06445-0.19141-0.07617-0.28906l0.55859-0.04883c0.0078 0.05859 0.02213 0.11263 0.04297 0.16211 0.02213 0.04818 0.05143 0.08984 0.08789 0.125s0.08073 0.0625 0.13281 0.08203c0.05338 0.01823 0.11588 0.02734 0.1875 0.02734 0.13151 0.000001 0.23372-0.03255 0.30664-0.09766 0.07292-0.0651 0.10937-0.16471 0.10938-0.29883-0.000001-0.08203-0.01758-0.14779-0.05273-0.19727-0.03386-0.04948-0.07747-0.08724-0.13086-0.11328-0.05208-0.02734-0.10873-0.04557-0.16992-0.05469-0.0612-0.0091-0.11914-0.01367-0.17383-0.01367h-0.19141v-0.44336h0.17969c0.05469 0.000002 0.11002-0.0052 0.16602-0.01563 0.05729-0.01042 0.10872-0.02929 0.1543-0.05664 0.04557-0.02734 0.08268-0.0651 0.11133-0.11328 0.02864-0.04948 0.04297-0.11198 0.04297-0.1875-0.000001-0.11328-0.0319-0.20182-0.0957-0.26562-0.0625-0.0651-0.1543-0.09765-0.27539-0.09766-0.11328 0.000003-0.20508 0.03125-0.27539 0.09375-0.06901 0.0625-0.10872 0.15104-0.11914 0.26562l-0.54883-0.03906c0.01563-0.1289 0.05078-0.24088 0.10547-0.33594 0.05599-0.09505 0.12565-0.17382 0.20898-0.23633 0.08463-0.0625 0.18164-0.10872 0.29102-0.13867 0.10937-0.03125 0.22526-0.04687 0.34766-0.04687 0.16146 0.000003 0.30013 0.01953 0.41602 0.05859 0.11588 0.03907 0.21094 0.0918 0.28516 0.1582 0.07422 0.06641 0.1289 0.14388 0.16406 0.23242 0.03515 0.08854 0.05273 0.18294 0.05273 0.2832-0.000002 0.08073-0.01172 0.15625-0.03516 0.22656-0.02344 0.06901-0.05925 0.13151-0.10742 0.1875-0.04688 0.05469-0.10742 0.10222-0.18164 0.14258-0.07422 0.03906-0.16211 0.06836-0.26367 0.08789v0.0078c0.11328 0.01302 0.21159 0.03906 0.29492 0.07813 0.08333 0.03776 0.15169 0.08529 0.20508 0.14258 0.05338 0.05729 0.0931 0.1224 0.11914 0.19531 0.02604 0.07162 0.03906 0.14779 0.03906 0.22852"/>
    </g>
    <g id="text6125" style="fill:#4d4d4d">
     <path id="path6151" d="m37.168 52.439v0.56055h-0.52344v-0.56055h-1.252v-0.41211l1.1621-1.7793h0.61328v1.7832h0.36719v0.4082h-0.36719m-0.52344-1.3086c-0.000001-0.02213-0.000001-0.05078 0-0.08594 0.0013-0.03646 0.0026-0.07357 0.0039-0.11133 0.0026-0.03776 0.0046-0.07357 0.0059-0.10742 0.0026-0.03515 0.0052-0.0625 0.0078-0.08203-0.0065 0.01432-0.01693 0.03516-0.03125 0.0625-0.01432 0.02604-0.0306 0.05469-0.04883 0.08594-0.01693 0.02995-0.03516 0.0599-0.05469 0.08984-0.01823 0.02995-0.03451 0.05599-0.04883 0.07813l-0.63867 0.9707h0.80469v-0.90039"/>
    </g>
    <g id="text6129" style="fill:#4d4d4d">
     <path id="path6154" d="m37.445 60.084c-0.000002 0.13802-0.02214 0.26563-0.06641 0.38281-0.04297 0.11589-0.10742 0.2168-0.19336 0.30273-0.08594 0.08464-0.19271 0.15104-0.32031 0.19922-0.1263 0.04687-0.27279 0.07031-0.43945 0.07031-0.15365 0-0.28776-0.01823-0.40234-0.05469-0.11458-0.03776-0.21159-0.08919-0.29102-0.1543-0.07813-0.06641-0.13997-0.14388-0.18555-0.23242-0.04427-0.08854-0.07487-0.18359-0.0918-0.28516l0.54883-0.04492c0.01042 0.04297 0.02474 0.08464 0.04297 0.125 0.01953 0.04037 0.04622 0.07617 0.08008 0.10742 0.03385 0.03125 0.07552 0.05664 0.125 0.07617 0.04948 0.01823 0.10937 0.02734 0.17969 0.02734 0.13672 0 0.24544-0.04362 0.32617-0.13086 0.08203-0.08724 0.12305-0.21289 0.12305-0.37695-0.000001-0.07292-0.01042-0.13867-0.03125-0.19727-0.01953-0.05859-0.04818-0.10872-0.08594-0.15039-0.03646-0.04167-0.08203-0.07357-0.13672-0.0957-0.05339-0.02213-0.11458-0.0332-0.18359-0.0332-0.09115 0.000001-0.16602 0.01758-0.22461 0.05273-0.05859 0.03386-0.10807 0.07552-0.14844 0.125h-0.53516l0.0957-1.5488h1.6543v0.4082h-1.1562l-0.04492 0.69531c0.05469-0.04818 0.1237-0.08919 0.20703-0.12305 0.08333-0.03515 0.18034-0.05273 0.29102-0.05273 0.13542 0.000002 0.25651 0.02214 0.36328 0.06641s0.19726 0.10612 0.27148 0.18555 0.13086 0.17513 0.16992 0.28711c0.03906 0.11068 0.05859 0.23372 0.05859 0.36914"/>
    </g>
    <g id="text6133" style="fill:#4d4d4d">
     <path id="path6157" d="m37.412 68.1c-0.000002 0.13802-0.01953 0.26498-0.05859 0.38086-0.03907 0.11458-0.09766 0.21354-0.17578 0.29688-0.07682 0.08203-0.17318 0.14648-0.28906 0.19336-0.11589 0.04557-0.25 0.06836-0.40234 0.06836-0.32422 0-0.57357-0.11328-0.74805-0.33984-0.17318-0.22786-0.25977-0.5651-0.25976-1.0117-0.000001-0.49088 0.08789-0.86002 0.26367-1.1074 0.17708-0.2487 0.42969-0.37304 0.75781-0.37305 0.10937 0.000003 0.20898 0.01172 0.29883 0.03516 0.08984 0.02214 0.16992 0.0586 0.24023 0.10938s0.13021 0.11654 0.17969 0.19727c0.04948 0.07943 0.08919 0.17644 0.11914 0.29102l-0.51758 0.07227c-0.02604-0.09635-0.06836-0.16536-0.12695-0.20703-0.0586-0.04297-0.12695-0.06445-0.20508-0.06445-0.14714 0.000002-0.26302 0.07357-0.34766 0.2207-0.08333 0.14714-0.125 0.37044-0.125 0.66992 0.05859-0.09766 0.13997-0.17252 0.24414-0.22461 0.10416-0.05208 0.222-0.07812 0.35352-0.07813 0.12109 0.000001 0.23047 0.02018 0.32812 0.06055 0.09896 0.03906 0.18294 0.09636 0.25195 0.17188 0.07031 0.07422 0.12435 0.16537 0.16211 0.27344s0.05664 0.22982 0.05664 0.36523m-0.55078 0.01563c-0.000001-0.07422-0.0085-0.14062-0.02539-0.19922-0.01693-0.05989-0.04297-0.11068-0.07813-0.15234-0.03386-0.04167-0.07617-0.07357-0.12695-0.0957-0.05078-0.02344-0.10938-0.03516-0.17578-0.03516-0.04818 0.000002-0.09636 0.0078-0.14453 0.02344-0.04818 0.01563-0.09115 0.04102-0.12891 0.07617-0.03776 0.03386-0.06836 0.07748-0.0918 0.13086-0.02344 0.05339-0.03516 0.11784-0.03516 0.19336 0 0.07813 0.0098 0.15104 0.0293 0.21875 0.01953 0.06771 0.04687 0.12695 0.08203 0.17773 0.03646 0.04948 0.08008 0.08854 0.13086 0.11719 0.05078 0.02734 0.10807 0.04102 0.17188 0.04102 0.1237 0.000001 0.22005-0.04362 0.28906-0.13086 0.06901-0.08854 0.10352-0.21029 0.10352-0.36524"/>
    </g>
    <g id="text6137" style="fill:#4d4d4d">
     <path id="path6160" d="m37.381 74.684c-0.1237 0.19531-0.24089 0.38477-0.35156 0.56836-0.10938 0.1836-0.20508 0.36849-0.28711 0.55469-0.08203 0.1849-0.14714 0.37565-0.19531 0.57226-0.047 0.195-0.07 0.402-0.07 0.621h-0.573c-0.000001-0.21745 0.02539-0.42383 0.07617-0.61914 0.05208-0.19661 0.1224-0.38802 0.21094-0.57422s0.1914-0.36979 0.30859-0.55078c0.11719-0.18229 0.24088-0.36784 0.37109-0.55664h-1.3672v-0.45117h1.877v0.43555"/>
    </g>
    <path id="rect6168" style="opacity:.5;color:#000000;fill:#569110" d="m60 39v9h22v-9h-22zm1 1h20v7h-20v-7z"/>
   </g>
  </g>
  <rect id="rect3003" style="opacity:.15;fill:#fff" clip-path="url(#clipPath3009)" rx="25" ry="25" transform="translate(98 3.8281e-7)" width="92" y="958.36" x="-96" height="92"/>
 </g>
</svg>
