<?xml version="1.0" encoding="UTF-8" standalone="no"?>
<!-- Created with Inkscape (http://www.inkscape.org/) -->

<svg
   xmlns:dc="http://purl.org/dc/elements/1.1/"
   xmlns:cc="http://creativecommons.org/ns#"
   xmlns:rdf="http://www.w3.org/1999/02/22-rdf-syntax-ns#"
   xmlns:svg="http://www.w3.org/2000/svg"
   xmlns="http://www.w3.org/2000/svg"
   xmlns:xlink="http://www.w3.org/1999/xlink"
   xmlns:sodipodi="http://sodipodi.sourceforge.net/DTD/sodipodi-0.dtd"
   xmlns:inkscape="http://www.inkscape.org/namespaces/inkscape"
   width="96"
   height="96"
   id="svg11037"
   version="1.1"
   inkscape:version="0.48.3.1 r9886"
   sodipodi:docname="alchemy.svg">
  <defs
     id="defs11039">
    <linearGradient
       y2="1046.1001"
       x2="47.999954"
       y1="962.62189"
       x1="47.999954"
       gradientTransform="matrix(1.15,0,0,1.15,-7.1999462,-150.65291)"
       gradientUnits="userSpaceOnUse"
       id="linearGradient3886"
       xlink:href="#linearGradient3795"
       inkscape:collect="always" />
    <linearGradient
       id="linearGradient3795">
      <stop
         style="stop-color:#13a6fd;stop-opacity:1;"
         offset="0"
         id="stop3797" />
      <stop
         style="stop-color:#2975b6;stop-opacity:1;"
         offset="1"
         id="stop3799" />
    </linearGradient>
    <linearGradient
       y2="1046.1001"
       x2="47.999954"
       y1="962.62189"
       x1="47.999954"
       gradientTransform="matrix(1.15,0,0,1.15,-7.1999462,-150.65292)"
       gradientUnits="userSpaceOnUse"
       id="linearGradient11642"
       xlink:href="#linearGradient3795"
       inkscape:collect="always" />
    <clipPath
       clipPathUnits="userSpaceOnUse"
       id="clipPath3009">
      <path
         id="path3011"
         d="m -2,956.36218 -96,0 0,33.5624 96,25.68742 0,-59.24982 z"
         style="opacity:0.15;fill:#ffffff;fill-opacity:1;stroke:none"
         inkscape:connector-curvature="0" />
    </clipPath>
    <linearGradient
       inkscape:collect="always"
       xlink:href="#linearGradient3898"
       id="linearGradient15305"
       gradientUnits="userSpaceOnUse"
       x1="17.75"
       y1="22.5"
       x2="89.75"
       y2="90.487717"
       gradientTransform="translate(-87.25,1.25)" />
    <linearGradient
       id="linearGradient3898">
      <stop
         id="stop3900"
         offset="0"
         style="stop-color:#22dd22;stop-opacity:1;" />
      <stop
         id="stop3902"
         offset="1"
         style="stop-color:#389738;stop-opacity:1;" />
    </linearGradient>
    <linearGradient
       y2="90.487717"
       x2="89.75"
       y1="22.5"
       x1="17.75"
       gradientTransform="matrix(1.1428571,0,0,1.1428571,-6.857143,949.50504)"
       gradientUnits="userSpaceOnUse"
       id="linearGradient15201"
       xlink:href="#linearGradient3898"
       inkscape:collect="always" />
    <clipPath
       clipPathUnits="userSpaceOnUse"
       id="clipPath3018">
      <rect
         x="2"
         y="958.36218"
         width="92"
         height="92"
         style="opacity:0.6;fill:#000000;fill-opacity:1"
         id="rect3020"
         rx="25"
         ry="25" />
    </clipPath>
    <radialGradient
       inkscape:collect="always"
       xlink:href="#linearGradient3737-9"
       id="radialGradient15299"
       gradientUnits="userSpaceOnUse"
       gradientTransform="matrix(1.1573129,0,0,0.99590774,-7.55102,0.197132)"
       cx="48"
       cy="90.171875"
       fx="48"
       fy="90.171875"
       r="42" />
    <linearGradient
       id="linearGradient3737-9">
      <stop
         id="stop3739-77"
         style="stop-color:#ffffff;stop-opacity:1"
         offset="0" />
      <stop
         id="stop3741-64"
         style="stop-color:#ffffff;stop-opacity:0"
         offset="1" />
    </linearGradient>
  </defs>
  <sodipodi:namedview
     id="base"
     pagecolor="#ffffff"
     bordercolor="#666666"
     borderopacity="1.0"
     inkscape:pageopacity="0.0"
     inkscape:pageshadow="2"
     inkscape:zoom="3.959798"
     inkscape:cx="29.118614"
     inkscape:cy="49.863109"
     inkscape:document-units="px"
     inkscape:current-layer="layer1"
     showgrid="false"
     inkscape:window-width="1366"
     inkscape:window-height="684"
     inkscape:window-x="0"
     inkscape:window-y="26"
     inkscape:window-maximized="1"
     showguides="true"
     inkscape:guide-bbox="true">
    <sodipodi:guide
       orientation="0,1"
       position="-24.748737,0"
       id="guide11064" />
    <sodipodi:guide
       orientation="0,1"
       position="-23.233509,96"
       id="guide11066" />
    <sodipodi:guide
       orientation="1,0"
       position="0,54.800776"
       id="guide11068" />
    <sodipodi:guide
       orientation="1,0"
       position="96,51.012704"
       id="guide11070" />
    <sodipodi:guide
       orientation="0,1"
       position="-18.94036,48"
       id="guide11072" />
    <sodipodi:guide
       orientation="1,0"
       position="48,79.296975"
       id="guide11074" />
    <sodipodi:guide
       orientation="1,0"
       position="2,75.508903"
       id="guide11076" />
    <sodipodi:guide
       orientation="0,1"
       position="-77.27667,2"
       id="guide11078" />
    <sodipodi:guide
       orientation="1,0"
       position="94,77.781746"
       id="guide11080" />
    <sodipodi:guide
       orientation="0,1"
       position="-65.912454,94"
       id="guide11082" />
  </sodipodi:namedview>
  <metadata
     id="metadata11042">
    <rdf:RDF>
      <cc:Work
         rdf:about="">
        <dc:format>image/svg+xml</dc:format>
        <dc:type
           rdf:resource="http://purl.org/dc/dcmitype/StillImage" />
        <dc:title />
      </cc:Work>
    </rdf:RDF>
  </metadata>
  <g
     inkscape:label="Layer 1"
     inkscape:groupmode="layer"
     id="layer1"
     transform="translate(0,-956.36218)">
    <rect
       width="96"
       height="96"
       rx="6.8571429"
       ry="6.8571429"
       x="0"
       y="956.36218"
       id="rect15216"
       style="fill:url(#linearGradient15201);fill-opacity:1;fill-rule:nonzero;stroke:none;display:inline"
       clip-path="url(#clipPath3018)" />
    <g
       transform="matrix(0.89277722,0,0,0.89277722,5.1433367,961.51223)"
       style="display:inline"
       id="g15203">
      <path
         inkscape:connector-curvature="0"
         style="opacity:0.2;fill:url(#radialGradient15299);fill-opacity:1;fill-rule:nonzero;stroke:none;display:inline"
         id="path15220"
         d="M 12,90 C 8.676,90 6,87.324 6,84 L 6,82 6,14 6,12 c 0,-0.334721 0.0413,-0.6507 0.0937,-0.96875 0.0487,-0.295596 0.097,-0.596915 0.1875,-0.875 0.01,-0.03038 0.0209,-0.0636 0.0312,-0.09375 C 6.4113,9.774729 6.54728,9.515048 6.6874,9.25 6.83199,8.976493 7.00302,8.714385 7.1874,8.46875 7.37178,8.223115 7.56118,7.995278 7.78115,7.78125 8.2211,7.353194 8.72406,6.966724 9.28115,6.6875 9.55969,6.547888 9.85462,6.440553 10.15615,6.34375 9.89995,6.443972 9.66944,6.580022 9.4374,6.71875 c -0.007,0.0044 -0.0239,-0.0045 -0.0312,0 -0.0319,0.0193 -0.0623,0.04251 -0.0937,0.0625 -0.12039,0.0767 -0.23102,0.163513 -0.34375,0.25 -0.10617,0.0808 -0.21328,0.161112 -0.3125,0.25 C 8.47832,7.442683 8.30879,7.626638 8.15625,7.8125 8.04867,7.942755 7.93786,8.077785 7.84375,8.21875 7.81865,8.25713 7.80535,8.30462 7.78125,8.34375 7.71645,8.446782 7.65102,8.548267 7.59375,8.65625 7.49274,8.850956 7.38808,9.071951 7.3125,9.28125 7.3045,9.30306 7.2889,9.3218 7.2813,9.34375 7.2495,9.4357 7.2455,9.530581 7.2188,9.625 7.1885,9.731618 7.1484,9.828031 7.1251,9.9375 7.0522,10.279012 7.0001,10.635705 7.0001,11 l 0,2 0,68 0,2 c 0,2.781848 2.21815,5 5,5 l 2,0 68,0 2,0 c 2.78185,0 5,-2.218152 5,-5 l 0,-2 0,-68 0,-2 c 0,-0.364295 -0.0521,-0.720988 -0.125,-1.0625 C 88.8309,9.730607 88.7867,9.539842 88.71885,9.34375 88.71085,9.3218 88.69555,9.30306 88.68765,9.28125 88.62495,9.107511 88.54927,8.913801 88.4689,8.75 88.4273,8.6672 88.3899,8.580046 88.3439,8.5 88.2893,8.40279 88.21713,8.31165 88.1564,8.21875 88.0623,8.077785 87.95148,7.942755 87.8439,7.8125 87.70073,7.63805 87.54076,7.465502 87.37515,7.3125 87.36395,7.3023 87.35515,7.29135 87.34395,7.28125 87.20556,7.155694 87.05886,7.046814 86.90645,6.9375 86.80388,6.86435 86.70213,6.784136 86.59395,6.71875 c -0.007,-0.0045 -0.0238,0.0044 -0.0312,0 -0.23204,-0.138728 -0.46255,-0.274778 -0.71875,-0.375 0.30153,0.0968 0.59645,0.204138 0.875,0.34375 0.55709,0.279224 1.06005,0.665694 1.5,1.09375 0.21997,0.214028 0.40937,0.441865 0.59375,0.6875 0.18438,0.245635 0.35541,0.507743 0.5,0.78125 0.14012,0.265048 0.27613,0.524729 0.375,0.8125 0.0104,0.03078 0.0213,0.06274 0.0312,0.09375 0.0905,0.278085 0.1388,0.579404 0.1875,0.875 0.0524,0.31805 0.0937,0.634029 0.0937,0.96875 l 0,2 0,68 0,2 c 0,3.324 -2.676,6 -6,6 l -72,0 z" />
      <path
         id="path15361"
         d="m 32.32002,45.28125 0,0.75 0,3.625 c 0,0 -0.10957,3.328328 -1.59375,4.8125 C 29.64781,55.5472 17.71434,67.571061 6.00752,79.375 l 0,4.625 c 0,3.324 2.676,6 6,6 l 72,0 c 3.324,0 6,-2.676 6,-6 l 0,-4.28125 L 64.97627,54.5625 64.91377,54.5 64.88257,54.46875 c 0,0 -0.0152,0.01153 -0.125,-0.125 -0.10984,-0.136533 -0.26305,-0.362861 -0.4375,-0.75 -0.34895,-0.774278 -0.71875,-2.151141 -0.71875,-4.40625 l 0,-3.15625 0,-0.75 -0.75,0 -29.78125,0 -0.75,0 z m 6.53125,3.96875 18.25,0 0,4.65625 c 0,1.321218 0.35735,2.314943 0.71875,2.96875 0.3419,0.618519 0.70779,0.900066 0.75,0.9375 l -0.0312,0.03125 0.0625,0.03125 14.375,14.40625 -50,0 c 0.32029,-0.32552 0.58181,-0.603823 1,-1.03125 1.37673,-1.407142 3.21075,-3.31428 5.09375,-5.25 3.766,-3.87144 7.71798,-7.936729 8.34375,-8.5625 1.49895,-1.498942 1.41145,-3.307897 1.40625,-3.40625 l 0.0312,0 0,-4.78125 z"
         style="fill:#ffffff;fill-opacity:1;stroke:none;display:inline"
         inkscape:connector-curvature="0" />
      <path
         transform="matrix(0.82693902,0,0,0.82693902,-31.035603,-4.7967786)"
         d="m 103.25,51.375 c 0,3.45178 -2.79822,6.25 -6.25,6.25 -3.45178,0 -6.25,-2.79822 -6.25,-6.25 0,-3.45178 2.79822,-6.25 6.25,-6.25 3.45178,0 6.25,2.79822 6.25,6.25 z"
         sodipodi:ry="6.25"
         sodipodi:rx="6.25"
         sodipodi:cy="51.375"
         sodipodi:cx="97"
         id="path15228"
         style="color:#000000;fill:#ffffff;fill-opacity:1;fill-rule:nonzero;stroke:none;stroke-width:11;marker:none;visibility:visible;display:inline;overflow:visible;enable-background:accumulate"
         sodipodi:type="arc" />
      <path
         sodipodi:type="arc"
         style="color:#000000;fill:#ffffff;fill-opacity:1;fill-rule:nonzero;stroke:none;stroke-width:11;marker:none;visibility:visible;display:inline;overflow:visible;enable-background:accumulate"
         id="path15230"
         sodipodi:cx="97"
         sodipodi:cy="51.375"
         sodipodi:rx="6.25"
         sodipodi:ry="6.25"
         d="m 103.25,51.375 c 0,3.45178 -2.79822,6.25 -6.25,6.25 -3.45178,0 -6.25,-2.79822 -6.25,-6.25 0,-3.45178 2.79822,-6.25 6.25,-6.25 3.45178,0 6.25,2.79822 6.25,6.25 z"
         transform="matrix(0.59658509,0,0,0.59658509,-0.75963558,-6.433463)" />
      <path
         transform="matrix(0.50015056,0,0,0.50015056,-10.124774,-12.575231)"
         d="m 103.25,51.375 c 0,3.45178 -2.79822,6.25 -6.25,6.25 -3.45178,0 -6.25,-2.79822 -6.25,-6.25 0,-3.45178 2.79822,-6.25 6.25,-6.25 3.45178,0 6.25,2.79822 6.25,6.25 z"
         sodipodi:ry="6.25"
         sodipodi:rx="6.25"
         sodipodi:cy="51.375"
         sodipodi:cx="97"
         id="path15232"
         style="color:#000000;fill:#ffffff;fill-opacity:1;fill-rule:nonzero;stroke:none;stroke-width:11;marker:none;visibility:visible;display:inline;overflow:visible;enable-background:accumulate"
         sodipodi:type="arc" />
    </g>
    <rect
       ry="25"
       rx="25"
       id="rect3003"
       style="opacity:0.15;fill:#ffffff;fill-opacity:1"
       height="92"
       width="92"
       y="958.36218"
       x="-96"
       clip-path="url(#clipPath3009)"
       transform="translate(98,0)" />
  </g>
</svg>
