<?xml version="1.0" encoding="UTF-8" standalone="no"?>
<!-- Created with Inkscape (http://www.inkscape.org/) -->

<svg
   xmlns:dc="http://purl.org/dc/elements/1.1/"
   xmlns:cc="http://creativecommons.org/ns#"
   xmlns:rdf="http://www.w3.org/1999/02/22-rdf-syntax-ns#"
   xmlns:svg="http://www.w3.org/2000/svg"
   xmlns="http://www.w3.org/2000/svg"
   xmlns:xlink="http://www.w3.org/1999/xlink"
   xmlns:sodipodi="http://sodipodi.sourceforge.net/DTD/sodipodi-0.dtd"
   xmlns:inkscape="http://www.inkscape.org/namespaces/inkscape"
   width="96"
   height="96"
   id="svg11037"
   version="1.1"
   inkscape:version="0.48.3.1 r9886"
   sodipodi:docname="alien-arena.svg">
  <defs
     id="defs11039">
    <linearGradient
       y2="1046.1001"
       x2="47.999954"
       y1="962.62189"
       x1="47.999954"
       gradientTransform="matrix(1.15,0,0,1.15,-7.1999462,-150.65291)"
       gradientUnits="userSpaceOnUse"
       id="linearGradient3886"
       xlink:href="#linearGradient3795"
       inkscape:collect="always" />
    <linearGradient
       id="linearGradient3795">
      <stop
         style="stop-color:#13a6fd;stop-opacity:1;"
         offset="0"
         id="stop3797" />
      <stop
         style="stop-color:#2975b6;stop-opacity:1;"
         offset="1"
         id="stop3799" />
    </linearGradient>
    <linearGradient
       y2="1046.1001"
       x2="47.999954"
       y1="962.62189"
       x1="47.999954"
       gradientTransform="matrix(1.15,0,0,1.15,-7.1999462,-150.65292)"
       gradientUnits="userSpaceOnUse"
       id="linearGradient11642"
       xlink:href="#linearGradient3795"
       inkscape:collect="always" />
    <clipPath
       clipPathUnits="userSpaceOnUse"
       id="clipPath3009">
      <path
         id="path3011"
         d="m -2,956.36218 -96,0 0,33.5624 96,25.68742 0,-59.24982 z"
         style="opacity:0.15;fill:#ffffff;fill-opacity:1;stroke:none"
         inkscape:connector-curvature="0" />
    </clipPath>
    <radialGradient
       inkscape:collect="always"
       xlink:href="#linearGradient4347"
       id="radialGradient4353"
       cx="48"
       cy="81.300842"
       fx="48"
       fy="81.300842"
       r="42"
       gradientUnits="userSpaceOnUse"
       gradientTransform="matrix(1.2083812,0,0,1.2083812,-132.33176,-18.754303)" />
    <linearGradient
       id="linearGradient4347">
      <stop
         offset="0"
         style="stop-color:#43ff2a;stop-opacity:1;"
         id="stop4349" />
      <stop
         offset="1"
         style="stop-color:#062f04;stop-opacity:1;"
         id="stop4351" />
    </linearGradient>
    <radialGradient
       r="42"
       fy="81.300842"
       fx="48"
       cy="81.300842"
       cx="48"
       gradientTransform="matrix(1.3810071,0,0,1.3810071,-18.288332,928.07155)"
       gradientUnits="userSpaceOnUse"
       id="radialGradient3115"
       xlink:href="#linearGradient4347"
       inkscape:collect="always" />
    <clipPath
       clipPathUnits="userSpaceOnUse"
       id="clipPath3018">
      <rect
         x="2"
         y="958.36218"
         width="92"
         height="92"
         style="opacity:0.6;fill:#000000;fill-opacity:1"
         id="rect3020"
         rx="25"
         ry="25" />
    </clipPath>
    <linearGradient
       inkscape:collect="always"
       xlink:href="#linearGradient4038"
       id="linearGradient4315"
       gradientUnits="userSpaceOnUse"
       gradientTransform="translate(114.19774,100.76272)"
       x1="-144.29637"
       y1="350.53781"
       x2="-87.185059"
       y2="340.29581" />
    <linearGradient
       id="linearGradient4038">
      <stop
         style="stop-color:#1bc513;stop-opacity:1;"
         offset="0"
         id="stop4040" />
      <stop
         style="stop-color:#000000;stop-opacity:1;"
         offset="1"
         id="stop4042" />
    </linearGradient>
    <linearGradient
       inkscape:collect="always"
       xlink:href="#linearGradient4046"
       id="linearGradient4317"
       gradientUnits="userSpaceOnUse"
       gradientTransform="translate(114.19774,100.76272)"
       x1="-117.15768"
       y1="340.65875"
       x2="-91.03756"
       y2="340.65875" />
    <linearGradient
       id="linearGradient4046">
      <stop
         style="stop-color:#2eff25;stop-opacity:1;"
         offset="0"
         id="stop4048" />
      <stop
         style="stop-color:#000000;stop-opacity:1;"
         offset="1"
         id="stop4050" />
    </linearGradient>
    <radialGradient
       inkscape:collect="always"
       xlink:href="#linearGradient4092"
       id="radialGradient4389"
       gradientUnits="userSpaceOnUse"
       gradientTransform="matrix(0.39070743,0,0,0.47691807,36.126955,279.19433)"
       cx="-115.96109"
       cy="337.41925"
       fx="-115.96109"
       fy="337.41925"
       r="39.234375" />
    <linearGradient
       id="linearGradient4092">
      <stop
         id="stop4094"
         offset="0"
         style="stop-color:#97f593;stop-opacity:1;" />
      <stop
         id="stop4096"
         offset="1"
         style="stop-color:#33a41d;stop-opacity:0.0083682;" />
    </linearGradient>
    <linearGradient
       inkscape:collect="always"
       xlink:href="#linearGradient4060"
       id="linearGradient4321"
       gradientUnits="userSpaceOnUse"
       x1="-95.713783"
       y1="358.6333"
       x2="-72.07724"
       y2="340.20566" />
    <linearGradient
       id="linearGradient4060">
      <stop
         style="stop-color:#eeeeec;stop-opacity:1;"
         offset="0"
         id="stop4062" />
      <stop
         style="stop-color:#eeeeec;stop-opacity:0.33891213;"
         offset="1"
         id="stop4064" />
    </linearGradient>
    <linearGradient
       inkscape:collect="always"
       xlink:href="#linearGradient4060"
       id="linearGradient4323"
       gradientUnits="userSpaceOnUse"
       gradientTransform="matrix(-1,0,0,1,-195.75466,0)"
       x1="-95.713783"
       y1="358.6333"
       x2="-72.07724"
       y2="340.20566" />
    <linearGradient
       id="linearGradient3166">
      <stop
         style="stop-color:#eeeeec;stop-opacity:1;"
         offset="0"
         id="stop3168" />
      <stop
         style="stop-color:#eeeeec;stop-opacity:0.33891213;"
         offset="1"
         id="stop3170" />
    </linearGradient>
  </defs>
  <sodipodi:namedview
     id="base"
     pagecolor="#ffffff"
     bordercolor="#666666"
     borderopacity="1.0"
     inkscape:pageopacity="0.0"
     inkscape:pageshadow="2"
     inkscape:zoom="3.959798"
     inkscape:cx="29.118614"
     inkscape:cy="49.863109"
     inkscape:document-units="px"
     inkscape:current-layer="layer1"
     showgrid="false"
     inkscape:window-width="1366"
     inkscape:window-height="684"
     inkscape:window-x="0"
     inkscape:window-y="26"
     inkscape:window-maximized="1"
     showguides="true"
     inkscape:guide-bbox="true">
    <sodipodi:guide
       orientation="0,1"
       position="-24.748737,0"
       id="guide11064" />
    <sodipodi:guide
       orientation="0,1"
       position="-23.233509,96"
       id="guide11066" />
    <sodipodi:guide
       orientation="1,0"
       position="0,54.800776"
       id="guide11068" />
    <sodipodi:guide
       orientation="1,0"
       position="96,51.012704"
       id="guide11070" />
    <sodipodi:guide
       orientation="0,1"
       position="-18.94036,48"
       id="guide11072" />
    <sodipodi:guide
       orientation="1,0"
       position="48,79.296975"
       id="guide11074" />
    <sodipodi:guide
       orientation="1,0"
       position="2,75.508903"
       id="guide11076" />
    <sodipodi:guide
       orientation="0,1"
       position="-77.27667,2"
       id="guide11078" />
    <sodipodi:guide
       orientation="1,0"
       position="94,77.781746"
       id="guide11080" />
    <sodipodi:guide
       orientation="0,1"
       position="-65.912454,94"
       id="guide11082" />
  </sodipodi:namedview>
  <metadata
     id="metadata11042">
    <rdf:RDF>
      <cc:Work
         rdf:about="">
        <dc:format>image/svg+xml</dc:format>
        <dc:type
           rdf:resource="http://purl.org/dc/dcmitype/StillImage" />
        <dc:title />
      </cc:Work>
    </rdf:RDF>
  </metadata>
  <g
     inkscape:label="Layer 1"
     inkscape:groupmode="layer"
     id="layer1"
     transform="translate(0,-956.36218)">
    <rect
       style="fill:url(#radialGradient3115);fill-opacity:1;fill-rule:nonzero;stroke:none"
       id="rect2419"
       y="956.36218"
       x="0"
       ry="6.8571429"
       rx="6.8571429"
       height="96"
       width="96"
       clip-path="url(#clipPath3018)" />
    <g
       transform="translate(2.2222222e-8,956.36218)"
       id="g3117">
      <path
         inkscape:connector-curvature="0"
         id="path4397"
         d="m 48,7.53125 c -21.67126,0 -39.25,14.75357 -39.25,32.9375 -1.13e-5,0.01032 0,0.02093 0,0.03125 7.618e-4,0.682443 0.0441,1.359269 0.09375,2.03125 7.509e-4,0.01032 -7.623e-4,0.02093 0,0.03125 0.050389,0.67175 0.1209416,1.339905 0.21875,2 0.0015,0.0102 -0.00151,0.02106 0,0.03125 0.1985809,1.330083 0.4926835,2.630792 0.875,3.90625 0.00286,0.0096 -0.00287,0.02167 0,0.03125 0.190441,0.632943 0.422725,1.257312 0.65625,1.875 0.0035,0.0092 -0.0035,0.02206 0,0.03125 0.471862,1.244389 1.049556,2.44985 1.6875,3.625 0.0044,0.0082 -0.0044,0.02309 0,0.03125 0.317468,0.583561 0.64374,1.154075 1,1.71875 0.0049,0.0077 -0.0049,0.02354 0,0.03125 0.357056,0.564918 0.761802,1.111451 1.15625,1.65625 0.005,0.007 -0.005,0.0243 0,0.03125 0.395104,0.544832 0.818935,1.07026 1.25,1.59375 0.0053,0.0064 -0.0053,0.02485 0,0.03125 2.178794,2.642224 4.829174,4.99392 7.8125,7 0.598013,0.402123 1.186671,0.814626 1.8125,1.1875 0.76678,-0.0842 1.58093,-0.125 2.375,-0.125 0.35808,0 0.709726,0.0138 1.0625,0.03125 0.190405,0.01431 0.373804,0.01668 0.5625,0.03125 0.61936,6.97257 5.25953,12.00995 11.1875,14.40625 -3.148368,-2.794908 -4.159906,-7.004399 -4.375,-12.65625 0.418952,0.190245 0.851969,0.376924 1.25,0.59375 0.11421,0.06155 0.231323,0.123948 0.34375,0.1875 0.138624,0.07938 0.270447,0.167461 0.40625,0.25 1.372323,0.822846 2.582812,1.788285 3.625,2.90625 0.0051,0.0055 -0.0051,0.02576 0,0.03125 0.507262,0.0679 1.047092,0.105432 1.5625,0.15625 1.030816,0.101635 2.071394,0.185017 3.125,0.21875 0.526803,0.01687 1.032448,0.03125 1.5625,0.03125 0.529704,0 1.069843,-0.01436 1.59375,-0.03125 1.047813,-0.03379 2.099944,-0.117148 3.125,-0.21875 C 53.231278,73.10545 53.743054,73.06781 54.25,73 c 0.0051,-0.0055 -0.0051,-0.02577 0,-0.03125 0.131735,-0.141313 0.268566,-0.269681 0.40625,-0.40625 0.255796,-0.254796 0.506297,-0.510051 0.78125,-0.75 1.284396,-1.104401 2.800938,-2.037715 4.4375,-2.78125 -0.384377,5.66367 -2.031778,9.89561 -5.1875,12.6875 5.938033,-2.39075 11.282049,-7.45457 12,-14.4375 0.188695,-0.01457 0.372095,-0.01694 0.5625,-0.03125 0.352774,-0.01745 0.70442,-0.03125 1.0625,-0.03125 0.804885,0 1.598195,0.0385 2.375,0.125 0.625433,-0.372914 1.246267,-0.785318 1.84375,-1.1875 C 81.493494,60.123515 87.25,50.860984 87.25,40.46875 87.240056,31.389049 82.837727,23.142118 75.75,17.1875 74.863028,16.442327 73.937099,15.733878 72.96875,15.0625 72.484576,14.726811 72.003289,14.409953 71.5,14.09375 70.493421,13.461344 69.421873,12.862818 68.34375,12.3125 67.804689,12.037341 67.274469,11.78485 66.71875,11.53125 64.495876,10.51685 62.144115,9.6730634 59.6875,9.03125 56.616731,8.2289833 53.375065,7.7361 50.03125,7.59375 49.362487,7.56528 48.677227,7.53125 48,7.53125 z m 9.25,76.75 c -2.831865,1.32432 -6.068283,2.09375 -9.5,2.09375 -3.29318,0 -6.37675,-0.71138 -9.125,-1.9375 l -2.25,2.8125 c 2.1783,1.340312 4.570216,2.247383 7.0625,2.75 l 9.125,0 c 2.492283,-0.502617 4.8842,-1.409688 7.0625,-2.75 L 57.25,84.28125 z"
         style="fill:#000000;fill-opacity:1;stroke:none" />
      <g
         transform="translate(32.06788,-401.39378)"
         id="g4325">
        <path
           style="fill:url(#linearGradient4315);fill-opacity:1;stroke:none"
           d="m 15.947745,407.9375 c -21.6712602,0 -39.25,14.75357 -39.25,32.9375 0,11.08919 6.54923,20.87776 16.5624998,26.84375 0.76678,-0.0842 1.54968,-0.125 2.34375,-0.125 0.55848,0 1.11106,0.0516 1.65625,0.0937 0.61936,6.97257 5.25953,12.00995 11.1875,14.40625 -3.15433,-2.8002 -4.19388,-7.01947 -4.40625,-12.6875 2.19791,0.99281 4.12715,2.32847 5.65625,3.96875 2.0290502,0.27161 4.1297902,0.40625 6.2500002,0.40625 2.118815,0 4.190966,-0.13499 6.21875,-0.40625 1.520288,-1.63082 3.442917,-2.94612 5.625,-3.9375 -0.384377,5.66367 -2.031778,9.89561 -5.1875,12.6875 5.938033,-2.39075 11.282049,-7.45457 12,-14.4375 0.545187,-0.0421 1.097769,-0.0937 1.65625,-0.0937 0.804885,0 1.598195,0.0385 2.375,0.125 10.006936,-5.96663 16.53125,-15.7587 16.53125,-26.84375 0,-18.18393 -17.547486,-32.9375 -39.21875,-32.9375 z"
           id="path4279"
           inkscape:connector-curvature="0" />
        <path
           style="opacity:0.5;fill:url(#linearGradient4317);fill-opacity:1;stroke:none"
           d="m 11.727445,470.62579 -1.8224202,0 c -7.66255,-5.35915 -18.06048,-3.66656 -18.67984,-9.20323 -0.61936,-5.53666 0.27336,-7.42637 -0.72897,-9.79551 -1.3750398,-5.67624 -8.1094198,-7.52444 -7.6541698,-11.61794 2.45154,-20.06241 17.01648977,-26.31069 38.999839,-27.97418 l 0,58.7731 z"
           id="path4281"
           inkscape:connector-curvature="0"
           sodipodi:nodetypes="cczccccc" />
        <path
           inkscape:connector-curvature="0"
           id="path4283"
           d="m 15.947745,407.94582 c -21.6712602,0 -39.25,14.75357 -39.25,32.9375 0,11.08919 6.54923,20.87776 16.5624998,26.84375 0.76678,-0.0842 1.54968,-0.125 2.34375,-0.125 5.72928,0 10.81584,2.26502 14.09375,5.78125 2.0290502,0.27161 4.1297902,0.40625 6.2500002,0.40625 2.118815,0 4.190966,-0.13499 6.21875,-0.40625 3.277907,-3.51623 8.364474,-5.78125 14.09375,-5.78125 0.804885,0 1.598195,0.0385 2.375,0.125 10.006936,-5.96663 16.53125,-15.7587 16.53125,-26.84375 0,-18.18393 -17.547486,-32.9375 -39.21875,-32.9375 z"
           style="fill:url(#radialGradient4389);fill-opacity:1;stroke:none" />
        <path
           style="fill:#0e640a;fill-opacity:1;stroke:none"
           d="m 25.197745,484.66457 c -2.831865,1.32432 -6.068283,2.09375 -9.5,2.09375 -3.29318,0 -6.3767502,-0.71138 -9.1250002,-1.9375 l -2.25,2.8125 c 6.9705602,4.289 16.2481912,4.289 23.2187502,0 l -2.34375,-2.96875 z"
           id="path4285"
           inkscape:connector-curvature="0" />
        <path
           sodipodi:nodetypes="cccccc"
           inkscape:connector-curvature="0"
           id="path4287"
           d="m 13.583415,467.69881 c 0,0 0.0805,1.44973 0.644324,1.94908 0.670469,0.75293 0.66538,1.84395 0.370486,2.86724 -0.112757,0.48324 -1.46584,0.32216 -1.46584,-0.0967 -0.4097,-2.01473 -0.0176,-3.07116 0.0644,-4.7841 z"
           style="fill:#ffffff;fill-opacity:1;stroke:none" />
        <path
           style="fill:#ffffff;fill-opacity:1;stroke:none"
           d="m 18.293436,467.69881 c 0,0 -0.0805,1.44973 -0.644319,1.94908 -0.670469,0.75293 -0.66538,1.84395 -0.370486,2.86724 0.112757,0.48324 1.465835,0.32216 1.465835,-0.0967 0.4097,-2.01473 0.0176,-3.07116 -0.0644,-4.7841 z"
           id="path4289"
           inkscape:connector-curvature="0"
           sodipodi:nodetypes="cccccc" />
        <g
           transform="translate(113.80945,100.76272)"
           id="g4291">
          <path
             sodipodi:nodetypes="ccccc"
             inkscape:connector-curvature="0"
             id="path4293"
             d="m -96.744696,362.71142 0,1.45794 c 8.089113,-0.81619 17.437533,-3.6257 25.149423,-16.81184 0.18268,-5.20372 -0.27829,-7.67812 -4.00933,-12.30135 -0.83166,18.73551 -12.03906,27.00233 -21.140093,27.65525 z"
             style="opacity:0.5;fill:url(#linearGradient4321);fill-opacity:1;stroke:none" />
          <path
             style="opacity:0.5;fill:url(#linearGradient4323);fill-opacity:1;stroke:none"
             d="m -99.009956,362.71142 0,1.45794 c -8.089114,-0.81619 -17.437534,-3.6257 -25.149424,-16.81184 -0.18268,-5.20372 0.27829,-7.67812 4.00933,-12.30135 0.83166,18.73551 12.03906,27.00233 21.140094,27.65525 z"
             id="path4295"
             inkscape:connector-curvature="0"
             sodipodi:nodetypes="ccccc" />
        </g>
        <g
           id="g4297"
           transform="translate(114.19774,0)">
          <path
             sodipodi:nodetypes="cccccc"
             inkscape:connector-curvature="0"
             id="path4299"
             d="m -116.46688,457.32831 -0.18314,4.91751 c 3.2568,3.2541 5.63774,3.86334 11.49427,3.85295 l 0.082,-0.83186 c -6.5779,-2.50112 -10.08326,-6.43356 -11.39325,-7.9386 z"
             style="fill:#000000;fill-opacity:1;stroke:none" />
          <path
             style="fill:#ffffff;fill-opacity:1;stroke:none"
             d="m -116.18759,458.27558 0,4.65524 c 3.19341,2.96162 5.46568,3.45374 11.00182,3.23772 l 0.0483,-0.78929 c -6.3065,-2.13287 -9.75876,-5.72701 -11.05015,-7.10367 z"
             id="path4301"
             inkscape:connector-curvature="0"
             sodipodi:nodetypes="cccccc" />
          <path
             style="fill:#000000;fill-opacity:1;stroke:none"
             d="m -80.02174,457.39808 0.18314,4.91751 c -3.2568,3.2541 -5.63774,3.86334 -11.49427,3.85295 l -0.082,-0.83186 c 6.5779,-2.50112 10.08326,-6.43356 11.39325,-7.9386 z"
             id="path4303"
             inkscape:connector-curvature="0"
             sodipodi:nodetypes="cccccc" />
          <path
             sodipodi:nodetypes="cccccc"
             inkscape:connector-curvature="0"
             id="path4305"
             d="m -80.30103,458.34535 0,4.65524 c -3.19341,2.96162 -5.46568,3.45374 -11.00182,3.23772 l -0.0483,-0.78929 c 6.3065,-2.13287 9.75876,-5.72701 11.05015,-7.10367 z"
             style="opacity:0.12000002;fill:#ffffff;fill-opacity:1;stroke:#ffffff;stroke-width:4;stroke-opacity:1" />
          <path
             sodipodi:nodetypes="cccccc"
             inkscape:connector-curvature="0"
             id="path4307"
             d="m -80.30103,458.34535 0,4.65524 c -3.19341,2.96162 -5.46568,3.45374 -11.00182,3.23772 l -0.0483,-0.78929 c 6.3065,-2.13287 9.75876,-5.72701 11.05015,-7.10367 z"
             style="fill:#ffffff;fill-opacity:1;stroke:none" />
          <path
             style="opacity:0.2;fill:#ffffff;fill-opacity:1;stroke:#ffffff;stroke-width:2;stroke-linecap:round;stroke-linejoin:round;stroke-opacity:1"
             d="m -80.30103,458.34535 0,4.65524 c -3.19341,2.96162 -5.46568,3.45374 -11.00182,3.23772 l -0.0483,-0.78929 c 6.3065,-2.13287 9.75876,-5.72701 11.05015,-7.10367 z"
             id="path4309"
             inkscape:connector-curvature="0"
             sodipodi:nodetypes="cccccc" />
          <path
             style="opacity:0.12000002;fill:#ffffff;fill-opacity:1;stroke:#ffffff;stroke-width:4;stroke-linecap:round;stroke-linejoin:round;stroke-opacity:1"
             d="m -116.18759,458.27558 0,4.65524 c 3.19341,2.96162 5.46568,3.45374 11.00182,3.23772 l 0.0483,-0.78929 c -6.3065,-2.13287 -9.75876,-5.72701 -11.05015,-7.10367 z"
             id="path4311"
             inkscape:connector-curvature="0"
             sodipodi:nodetypes="cccccc" />
          <path
             sodipodi:nodetypes="cccccc"
             inkscape:connector-curvature="0"
             id="path4313"
             d="m -116.18759,458.27558 0,4.65524 c 3.19341,2.96162 5.46568,3.45374 11.00182,3.23772 l 0.0483,-0.78929 c -6.3065,-2.13287 -9.75876,-5.72701 -11.05015,-7.10367 z"
             style="opacity:0.2;fill:#ffffff;fill-opacity:1;stroke:#ffffff;stroke-width:2;stroke-linecap:round;stroke-linejoin:round;stroke-opacity:1" />
        </g>
      </g>
    </g>
    <rect
       ry="25"
       rx="25"
       id="rect3003"
       style="opacity:0.15;fill:#ffffff;fill-opacity:1"
       height="92"
       width="92"
       y="958.36218"
       x="-96"
       clip-path="url(#clipPath3009)"
       transform="translate(98,0)" />
  </g>
</svg>
