<?xml version="1.0" encoding="UTF-8" standalone="no"?>
<!-- Created with Inkscape (http://www.inkscape.org/) -->

<svg
   xmlns:dc="http://purl.org/dc/elements/1.1/"
   xmlns:cc="http://creativecommons.org/ns#"
   xmlns:rdf="http://www.w3.org/1999/02/22-rdf-syntax-ns#"
   xmlns:svg="http://www.w3.org/2000/svg"
   xmlns="http://www.w3.org/2000/svg"
   xmlns:xlink="http://www.w3.org/1999/xlink"
   xmlns:sodipodi="http://sodipodi.sourceforge.net/DTD/sodipodi-0.dtd"
   xmlns:inkscape="http://www.inkscape.org/namespaces/inkscape"
   width="96"
   height="96"
   id="svg11037"
   version="1.1"
   inkscape:version="0.48.3.1 r9886"
   sodipodi:docname="aptana-studio-3.svg">
  <defs
     id="defs11039">
    <linearGradient
       y2="1046.1001"
       x2="47.999954"
       y1="962.62189"
       x1="47.999954"
       gradientTransform="matrix(1.15,0,0,1.15,-7.1999462,-150.65291)"
       gradientUnits="userSpaceOnUse"
       id="linearGradient3886"
       xlink:href="#linearGradient3795"
       inkscape:collect="always" />
    <linearGradient
       id="linearGradient3795">
      <stop
         style="stop-color:#13a6fd;stop-opacity:1;"
         offset="0"
         id="stop3797" />
      <stop
         style="stop-color:#2975b6;stop-opacity:1;"
         offset="1"
         id="stop3799" />
    </linearGradient>
    <linearGradient
       y2="1046.1001"
       x2="47.999954"
       y1="962.62189"
       x1="47.999954"
       gradientTransform="matrix(1.15,0,0,1.15,-7.1999462,-150.65292)"
       gradientUnits="userSpaceOnUse"
       id="linearGradient11642"
       xlink:href="#linearGradient3795"
       inkscape:collect="always" />
    <clipPath
       clipPathUnits="userSpaceOnUse"
       id="clipPath3009">
      <path
         id="path3011"
         d="m -2,956.36218 -96,0 0,33.5624 96,25.68742 0,-59.24982 z"
         style="opacity:0.15;fill:#ffffff;fill-opacity:1;stroke:none"
         inkscape:connector-curvature="0" />
    </clipPath>
    <linearGradient
       inkscape:collect="always"
       xlink:href="#linearGradient3700"
       id="linearGradient3850"
       gradientUnits="userSpaceOnUse"
       gradientTransform="translate(131.24611,0.2483496)"
       x1="48"
       y1="90"
       x2="48"
       y2="5.9877172" />
    <linearGradient
       id="linearGradient3700">
      <stop
         id="stop3702"
         style="stop-color:#9e0000;stop-opacity:1;"
         offset="0" />
      <stop
         id="stop3704"
         style="stop-color:#f04444;stop-opacity:1;"
         offset="1" />
    </linearGradient>
    <linearGradient
       y2="5.9877172"
       x2="48"
       y1="90"
       x1="48"
       gradientTransform="matrix(1.1428571,0,0,1.1428571,-6.85714,949.50504)"
       gradientUnits="userSpaceOnUse"
       id="linearGradient3085"
       xlink:href="#linearGradient3700"
       inkscape:collect="always" />
    <clipPath
       clipPathUnits="userSpaceOnUse"
       id="clipPath3018">
      <rect
         x="2"
         y="958.36218"
         width="92"
         height="92"
         style="opacity:0.6;fill:#000000;fill-opacity:1"
         id="rect3020"
         rx="25"
         ry="25" />
    </clipPath>
  </defs>
  <sodipodi:namedview
     id="base"
     pagecolor="#ffffff"
     bordercolor="#666666"
     borderopacity="1.0"
     inkscape:pageopacity="0.0"
     inkscape:pageshadow="2"
     inkscape:zoom="3.959798"
     inkscape:cx="29.118614"
     inkscape:cy="59.964634"
     inkscape:document-units="px"
     inkscape:current-layer="layer1"
     showgrid="false"
     inkscape:window-width="1366"
     inkscape:window-height="684"
     inkscape:window-x="0"
     inkscape:window-y="26"
     inkscape:window-maximized="1"
     showguides="true"
     inkscape:guide-bbox="true">
    <sodipodi:guide
       orientation="0,1"
       position="-24.748737,0"
       id="guide11064" />
    <sodipodi:guide
       orientation="0,1"
       position="-23.233509,96"
       id="guide11066" />
    <sodipodi:guide
       orientation="1,0"
       position="0,54.800776"
       id="guide11068" />
    <sodipodi:guide
       orientation="1,0"
       position="96,51.012704"
       id="guide11070" />
    <sodipodi:guide
       orientation="0,1"
       position="-18.94036,48"
       id="guide11072" />
    <sodipodi:guide
       orientation="1,0"
       position="48,79.296975"
       id="guide11074" />
    <sodipodi:guide
       orientation="1,0"
       position="2,75.508903"
       id="guide11076" />
    <sodipodi:guide
       orientation="0,1"
       position="-77.27667,2"
       id="guide11078" />
    <sodipodi:guide
       orientation="1,0"
       position="94,77.781746"
       id="guide11080" />
    <sodipodi:guide
       orientation="0,1"
       position="-65.912454,94"
       id="guide11082" />
  </sodipodi:namedview>
  <metadata
     id="metadata11042">
    <rdf:RDF>
      <cc:Work
         rdf:about="">
        <dc:format>image/svg+xml</dc:format>
        <dc:type
           rdf:resource="http://purl.org/dc/dcmitype/StillImage" />
        <dc:title />
      </cc:Work>
    </rdf:RDF>
  </metadata>
  <g
     inkscape:label="Layer 1"
     inkscape:groupmode="layer"
     id="layer1"
     transform="translate(0,-956.36218)">
    <rect
       style="fill:url(#linearGradient3085);fill-opacity:1;fill-rule:nonzero;stroke:none"
       id="rect2419"
       y="956.36218"
       x="0"
       ry="6.8571429"
       rx="6.8571429"
       height="96"
       width="96"
       clip-path="url(#clipPath3018)" />
    <g
       transform="translate(0,956.36218)"
       id="g3895">
      <path
         sodipodi:nodetypes="ssssscssssccccccccccccssssssccscccccccssssssccccccccccssssssccccsccccc"
         d="m 60.575988,49.331189 c 0,7.027404 -5.859313,13.231648 -13.199647,13.231648 -6.872011,0 -13.231647,-5.672994 -13.231647,-13.231648 0,-7.653262 6.015886,-13.262897 13.231647,-13.262897 7.371584,0 13.199647,5.922135 13.199647,13.262897 z M 24.092187,40.680714 c -0.883684,2.031603 -2.908949,3.472865 -5.267407,3.472865 l -2.101313,0 c -2.151603,0 -3.895802,1.744167 -3.895802,3.895748 l 0,2.768452 c 0,2.151154 1.744199,3.894567 3.894943,3.894567 l 2.089068,7.53e-4 c 2.358135,0 4.396398,1.440511 5.280511,3.473294 l 0.702801,1.491639 c 0.811825,2.062215 0.398501,4.513908 -1.268436,6.180414 l -1.486161,1.486161 c -1.521392,1.522251 -1.521392,3.988123 0,5.510375 l 1.95738,1.95738 c 1.521823,1.520963 3.987694,1.520963 5.509086,0 l 1.476924,-1.476924 c 1.667365,-1.667903 4.127329,-2.091645 6.189651,-1.27982 l 1.552434,0.559404 c 2.032033,0.884006 3.472865,2.908518 3.472865,5.266548 l 0,2.102065 c 0,2.151193 1.744166,3.895813 3.896178,3.895813 l 2.767164,0 c 2.152012,0 3.895856,-1.74462 3.895856,-3.895813 l 0,-2.088212 c 0,-2.358026 1.440403,-4.396395 3.473294,-5.280401 l 1.491961,-0.702801 c 2.062216,-0.812361 4.513909,-0.398608 6.180415,1.267899 l 1.486161,1.486161 c 1.521822,1.522253 3.988552,1.522253 5.509946,0 l 1.957379,-1.957273 c 1.521392,-1.521069 1.520962,-3.986941 0,-5.509193 L 71.380161,65.722892 C 69.712688,64.056384 69.289375,61.595562 70.1012,59.53324 l 0.558975,-1.552435 c 0.883576,-2.032032 2.90927,-3.472006 5.266978,-3.472006 l 2.101634,0 c 2.151154,0 3.895857,-1.744166 3.895857,-3.896177 l 0,-2.768023 c 0,-2.151153 -1.744703,-3.895319 -3.895857,-3.895319 l -2.088206,0 c -2.358031,0 -4.39683,-1.44051 -5.280406,-3.472972 l -0.702801,-1.492391 c -0.811932,-2.062215 -0.398608,-4.5138 1.268328,-6.180414 l 1.485731,-1.486591 c 1.521823,-1.521392 1.521823,-3.988122 0,-5.509515 l -1.957272,-1.956951 c -1.5215,-1.521391 -3.987694,-1.521391 -5.509193,0 l -1.477247,1.476495 c -1.666613,1.667473 -4.127007,2.090357 -6.188899,1.278961 l -1.552434,-0.558868 c -2.032462,-0.883683 -3.472865,-2.908949 -3.472865,-5.267407 l 0,-2.101313 c 0,-2.151583 -1.744596,-3.895855 -3.895748,-3.895855 l -2.768453,0 c -2.151153,0 -3.89489,1.744272 -3.89489,3.895855 l 0,2.088209 c 0,2.358137 -1.440939,4.396828 -3.472971,5.280511 l -1.492391,0.702801 c -2.062216,0.811824 -4.5138,0.398501 -6.180414,-1.268436 l -1.486592,-1.486161 c -1.521391,-1.521391 -3.988122,-1.521391 -5.509514,0 l -1.957381,1.95738 c -1.520963,1.521823 -1.520963,3.987693 4.3e-4,5.509087 l 1.476494,1.476922 c 1.667473,1.667367 2.090357,4.127331 1.278962,6.189653 l -0.558868,1.552434"
         style="opacity:0.07999998;fill:#000000;fill-opacity:1;fill-rule:nonzero;stroke:none"
         id="path46"
         inkscape:connector-curvature="0" />
      <path
         sodipodi:nodetypes="ssssscssssccccccccccccssssssccscccccccssssssccccccccccssssssccccsccccc"
         inkscape:connector-curvature="0"
         id="path3866"
         style="opacity:0.15;fill:#000000;fill-opacity:1;fill-rule:nonzero;stroke:none"
         d="m 61.065454,49.331179 c 0,7.662443 -6.088766,13.689841 -13.689121,13.689841 -7.632014,0 -13.72109,-6.246148 -13.72109,-13.689841 0,-7.444515 5.964076,-13.65859 13.72109,-13.65859 7.287855,0 13.689121,5.839075 13.689121,13.65859 z M 25.045297,41.034804 c -0.847511,1.948441 -2.789874,3.949425 -5.05179,3.949425 l -2.015298,0 c -2.063529,0 -4.26666,1.054052 -4.26666,3.11756 l 0,2.655128 c 0,2.063098 2.203131,3.293204 4.265836,3.293204 l 2.003554,7.22e-4 c 2.261607,0 4.216435,1.823487 5.064358,3.77306 l 0.674032,1.43058 c 0.778594,1.9778 0.779937,4.638494 -0.818765,6.236783 l -1.425327,1.425326 c -1.459115,1.459939 -2.166222,3.869067 -0.707107,5.329007 l 1.877257,1.877256 c 1.459528,1.458703 3.691878,0.795791 5.150993,-0.662912 l 1.416467,-1.416468 c 1.599113,-1.599628 4.400322,-1.696666 6.378225,-0.918072 l 1.488886,0.536505 c 1.948854,0.84782 3.920845,2.217963 4.037814,4.476442 l 0.08839,1.70666 c 0.10671,2.060375 0.833081,5.194748 2.897002,5.194748 l 2.653892,0 c 2.063921,0 2.985082,-2.601283 2.985082,-4.664419 l 0,-2.002733 c 0,-2.261502 2.176936,-3.862878 4.126612,-4.710698 l 1.430889,-0.674032 c 1.977801,-0.779108 5.21302,-0.780039 6.811308,0.81825 l 1.425326,1.425327 c 1.459528,1.45994 3.294954,2.167047 4.754071,0.707107 l 1.877255,-1.877154 c 1.459115,-1.458805 0.353849,-3.602768 -1.104854,-5.062708 l -1.416469,-1.416466 c -1.599216,-1.598291 -1.2539,-4.488712 -0.475307,-6.466614 l 0.536094,-1.488887 c 0.847408,-1.948853 2.790182,-3.992796 5.051379,-3.992796 l 2.015605,0 c 2.063098,0 4.134131,-1.009857 4.134131,-3.073777 l 0,-2.654716 c 0,-2.063098 -2.115227,-3.072955 -4.178325,-3.072955 l -2.002727,0 c -2.261507,0 -4.172655,-2.044457 -5.020063,-3.993721 l -0.674032,-1.431302 c -0.778697,-1.9778 -0.912622,-4.726779 0.68608,-6.325172 l 1.424914,-1.425738 c 1.459528,-1.459115 2.210829,-4.045842 0.751301,-5.504958 l -1.877153,-1.876845 c -1.459219,-1.459114 -3.515102,-0.531037 -4.97432,0.928077 l -1.416777,1.416056 c -1.598392,1.599217 -4.488402,1.695431 -6.465892,0.917249 l -1.488886,-0.535991 c -1.949265,-0.84751 -3.90523,-2.789874 -3.90523,-5.05179 l 0,-2.015298 c 0,-2.06351 -1.098659,-4.266711 -3.161755,-4.266711 l -2.655129,0 c -2.063097,0 -3.072543,2.070618 -3.072543,4.134128 l 0,2.00273 c 0,2.261609 -1.823897,4.216848 -3.77275,5.064358 l -1.652272,0.806615 c -1.977801,0.778593 -4.903555,0.735742 -6.501948,-0.86296 L 29.524932,25.385887 C 28.065818,23.926773 25.92103,23.131278 24.461916,24.590392 l -1.877257,1.877257 c -1.458704,1.459528 -0.707403,4.001237 0.751713,5.460354 l 1.416055,1.416465 c 1.599217,1.599115 1.607042,4.223547 0.828861,6.20145 l -0.535991,1.488886" />
      <path
         d="m 61.495419,49.331911 c 0,7.775644 -6.25152,14.137633 -14.121312,14.137633 -7.807686,0 -14.145444,-6.330739 -14.145444,-14.137633 0,-7.620187 6.181508,-14.168881 14.176694,-14.168881 7.869792,0 14.090062,6.329944 14.090062,14.168881 z M 25.7908,41.313331 c -0.819133,1.883199 -2.696459,4.281222 -4.882637,4.281222 l -1.947818,0 c -1.994434,0 -4.123796,0.554719 -4.123796,2.549133 l 0,2.566224 c 0,1.994018 2.129362,2.652605 4.123,2.652605 l 1.936467,6.98e-4 c 2.18588,0 4.075253,2.29276 4.894784,4.177053 l 0.651463,1.382679 c 0.752523,1.911576 1.173666,4.969316 -0.371505,6.514088 l -1.377602,1.3776 c -1.410258,1.411055 -2.513533,3.25338 -1.103275,4.664436 l 1.814399,1.814398 c 1.410658,1.40986 3.126318,0.327203 4.536576,-1.082657 l 1.369039,-1.369039 c 1.545568,-1.546066 4.694924,-1.197913 6.606599,-0.44539 l 1.439033,0.518541 c 1.883599,0.819432 4.496666,2.143697 4.609719,4.326554 l 0.08543,1.649514 c 0.103136,1.991386 0.09808,5.020808 2.092892,5.020808 l 2.565029,0 c 1.994813,0 2.13383,-2.525231 2.13383,-4.519285 l 0,-1.935674 c 0,-2.185778 2.855344,-3.722485 4.739738,-4.541917 l 1.382977,-0.651463 c 1.911577,-0.75302 5.524604,-1.217959 7.069375,0.326813 l 1.377601,1.377602 c 1.410658,1.411055 2.69849,2.558525 4.108751,1.147469 l 1.814397,-1.8143 c 1.410258,-1.409958 -0.276717,-3.216968 -1.686577,-4.628024 l -1.36904,-1.369037 c -1.545668,-1.544774 -0.593196,-4.603578 0.159327,-6.515252 l 0.518143,-1.439033 c 0.819034,-1.883598 2.696756,-4.411529 4.88224,-4.411529 l 1.948114,0 c 1.994018,0 3.995705,-0.423617 3.995705,-2.418429 l 0,-2.565826 c 0,-1.994017 -2.044401,-2.307147 -4.038419,-2.307147 l -1.935668,0 c -2.185783,0 -4.032938,-2.638914 -4.851972,-4.522909 L 68.305656,39.74048 c -0.752623,-1.911575 -1.279812,-4.922061 0.26536,-6.466934 l 1.377202,-1.377999 c 1.410658,-1.410258 2.53455,-3.556818 1.123893,-4.967078 l -1.814299,-1.814001 c -1.410359,-1.410257 -2.822879,-0.09341 -4.233237,1.316847 l -1.369338,1.368641 c -1.544871,1.545669 -4.912637,1.218816 -6.823913,0.466691 l -1.439032,-0.518044 c -1.883996,-0.819132 -4.547866,-2.696459 -4.547866,-4.882637 l 0,-1.947818 c 0,-1.994416 -0.288474,-4.123845 -2.28249,-4.123845 l -2.566225,0 c -1.994016,0 -2.240458,2.001286 -2.240458,3.995701 l 0,1.935671 c 0,2.185882 -2.49203,4.075652 -4.375628,4.894784 l -1.596948,0.779607 c -1.911576,0.752522 -5.247598,1.197242 -6.792471,-0.347929 l -1.378,-1.377602 C 28.201949,25.264278 26.63721,24.009283 25.226953,25.41954 l -1.8144,1.8144 c -1.409861,1.410657 -0.241774,3.469512 1.168485,4.879772 l 1.36864,1.369037 c 1.545669,1.54557 1.11129,4.479874 0.359166,6.391549 L 25.7908,41.313331"
         style="opacity:0.3;fill:#000000;fill-opacity:1;fill-rule:nonzero;stroke:none"
         id="path3868"
         inkscape:connector-curvature="0"
         sodipodi:nodetypes="ssssscssssccccccccccccssssssccscccccccssssssccccccccccssssssccccsccccc" />
      <path
         sodipodi:nodetypes="ssssscssssccccccccccccssssssccscccccccssssssccccccccccssssssccccsccccc"
         inkscape:connector-curvature="0"
         id="path3870"
         style="fill:#000000;fill-opacity:1;fill-rule:nonzero;stroke:none"
         d="m 61.991686,49.332601 c -0.02962,7.966262 -6.121726,14.643788 -14.619677,14.643788 -8.154583,0 -14.737536,-5.771221 -14.737536,-14.643788 0,-8.217083 6.520453,-14.69066 14.737536,-14.69066 7.997951,0 14.650927,6.286077 14.619677,14.69066 z M 26.493667,41.575928 c -0.792378,1.821689 -2.608386,4.641387 -4.723158,4.641387 l -1.884197,0 c -1.929291,0 -3.989103,0.0366 -3.989103,1.965872 l 0,2.482405 c 0,1.928888 2.059812,2.065964 3.988333,2.065964 l 1.873217,6.75e-4 c 2.114483,0 3.942145,2.717873 4.734908,4.54062 l 0.630184,1.337517 c 0.727944,1.849139 1.635331,5.057006 0.14063,6.551322 l -1.332606,1.332604 c -1.364196,1.364966 -2.931435,2.897116 -1.56724,4.262084 l 1.755136,1.755135 c 1.364583,1.36381 2.430455,0.06652 3.794651,-1.297295 l 1.324322,-1.324323 c 1.495086,-1.495567 5.135326,-0.908786 6.984561,-0.180842 l 1.392031,0.501604 c 1.822076,0.792667 5.023755,2.106824 5.133115,4.218384 l 0.08264,1.595637 c 0.09729,1.878447 -0.170285,4.823669 1.759368,4.823669 l 1.950919,0 c 1.929657,0 1.485279,-2.354722 1.485279,-4.283645 l 0,-1.87245 c 0,-2.114385 3.46247,-3.688928 5.285315,-4.481595 l 1.337805,-0.630185 c 1.84914,-0.728424 5.906657,-1.615677 7.400972,-0.121361 l 1.332605,1.332606 c 1.364582,1.364966 2.04785,2.912457 3.412049,1.54749 l 1.755134,-1.755041 c 1.364195,-1.363905 -0.798929,-2.643143 -2.162739,-4.008111 l -1.324324,-1.324321 c -1.495183,-1.494317 -0.04257,-4.921963 0.685373,-6.771197 l 0.501219,-1.392031 c 0.792282,-1.822075 2.608673,-4.736187 4.722774,-4.736187 l 1.884484,0 c 1.928888,0 3.865195,0.05897 3.865195,-1.870687 l 0,-2.48202 c 0,-1.928887 -1.977626,-1.731789 -3.906514,-1.731789 l -1.872444,0 c -2.11439,0 -3.901213,-3.052721 -4.693495,-4.87518 L 67.619881,40.054451 C 66.89184,38.205313 66.00687,34.824407 67.501573,33.329993 l 1.332219,-1.33299 c 1.364583,-1.364195 2.826766,-2.971893 1.462184,-4.336091 l -1.755039,-1.754751 c -1.364293,-1.364194 -2.168177,0.28464 -3.532469,1.648836 l -1.324612,1.323937 c -1.494412,1.495184 -5.314678,0.804007 -7.163527,0.07645 L 55.1283,28.454259 c -1.82246,-0.792377 -4.930572,-2.608386 -4.930572,-4.723158 l 0,-1.884198 c 0,-1.929273 0.252199,-3.989149 -1.676688,-3.989149 l -2.482405,0 c -1.928887,0 -1.604779,1.904669 -1.604779,3.833941 l 0,1.872447 c 0,2.114486 -2.410635,3.942531 -4.232709,4.734908 l -2.107288,0.785393 c -1.849139,0.727943 -5.669948,1.376887 -7.164362,-0.117815 l -1.332991,-1.332606 c -1.364194,-1.364194 -2.284075,-2.796948 -3.64827,-1.432753 l -1.755137,1.755137 c -1.363811,1.364581 0.234873,3.043689 1.59907,4.407886 l 1.323936,1.324321 c 1.495184,1.495088 0.606243,4.64605 -0.121315,6.495285 l -0.501123,1.39203" />
      <path
         d="m 61.991686,48.707601 c -0.02962,7.966262 -6.121726,14.643788 -14.619677,14.643788 -8.154583,0 -14.737536,-5.771221 -14.737536,-14.643788 0,-8.217083 6.520453,-14.69066 14.737536,-14.69066 7.997951,0 14.650927,6.286077 14.619677,14.69066 z M 26.493667,40.950928 c -0.792378,1.821689 -2.608386,4.641387 -4.723158,4.641387 l -1.884197,0 c -1.929291,0 -3.989103,0.0366 -3.989103,1.965872 l 0,2.482405 c 0,1.928888 2.059812,2.065964 3.988333,2.065964 l 1.873217,6.75e-4 c 2.114483,0 3.942145,2.717873 4.734908,4.54062 l 0.630184,1.337517 c 0.727944,1.849139 1.635331,5.057006 0.14063,6.551322 l -1.332606,1.332604 c -1.364196,1.364966 -2.931435,2.897116 -1.56724,4.262084 l 1.755136,1.755135 c 1.364583,1.36381 2.430455,0.06652 3.794651,-1.297295 l 1.324322,-1.324323 c 1.495086,-1.495567 5.135326,-0.908786 6.984561,-0.180842 l 1.392031,0.501604 c 1.822076,0.792667 5.023755,2.106824 5.133115,4.218384 l 0.08264,1.595637 c 0.09729,1.878447 -0.170285,4.823669 1.759368,4.823669 l 1.950919,0 c 1.929657,0 1.485279,-2.354722 1.485279,-4.283645 l 0,-1.87245 c 0,-2.114385 3.46247,-3.688928 5.285315,-4.481595 l 1.337805,-0.630185 c 1.84914,-0.728424 5.906657,-1.615677 7.400972,-0.121361 l 1.332605,1.332606 c 1.364582,1.364966 2.04785,2.912457 3.412049,1.54749 l 1.755134,-1.755041 c 1.364195,-1.363905 -0.798929,-2.643143 -2.162739,-4.008111 l -1.324324,-1.324321 c -1.495183,-1.494317 -0.04257,-4.921963 0.685373,-6.771197 l 0.501219,-1.392031 c 0.792282,-1.822075 2.608673,-4.736187 4.722774,-4.736187 l 1.884484,0 c 1.928888,0 3.865195,0.05897 3.865195,-1.870687 l 0,-2.48202 c 0,-1.928887 -1.977626,-1.731789 -3.906514,-1.731789 l -1.872444,0 c -2.11439,0 -3.901213,-3.052721 -4.693495,-4.87518 L 67.619881,39.429451 C 66.89184,37.580313 66.00687,34.199407 67.501573,32.704993 l 1.332219,-1.33299 c 1.364583,-1.364195 2.826766,-2.971893 1.462184,-4.336091 l -1.755039,-1.754751 c -1.364293,-1.364194 -2.168177,0.28464 -3.532469,1.648836 l -1.324612,1.323937 c -1.494412,1.495184 -5.314678,0.804007 -7.163527,0.07645 L 55.1283,27.829259 c -1.82246,-0.792377 -4.930572,-2.608386 -4.930572,-4.723158 l 0,-1.884198 c 0,-1.929273 0.252199,-3.989149 -1.676688,-3.989149 l -2.482405,0 c -1.928887,0 -1.604779,1.904669 -1.604779,3.833941 l 0,1.872447 c 0,2.114486 -2.410635,3.942531 -4.232709,4.734908 l -2.107288,0.785393 c -1.849139,0.727943 -5.669948,1.376887 -7.164362,-0.117815 l -1.332991,-1.332606 c -1.364194,-1.364194 -2.284075,-2.796948 -3.64827,-1.432753 l -1.755137,1.755137 c -1.363811,1.364581 0.234873,3.043689 1.59907,4.407886 l 1.323936,1.324321 c 1.495184,1.495088 0.606243,4.64605 -0.121315,6.495285 l -0.501123,1.39203"
         style="fill:#ffffff;fill-opacity:1;fill-rule:nonzero;stroke:none"
         id="path3893"
         inkscape:connector-curvature="0"
         sodipodi:nodetypes="ssssscssssccccccccccccssssssccscccccccssssssccccccccccssssssccccsccccc" />
    </g>
    <rect
       ry="25"
       rx="25"
       id="rect3003"
       style="opacity:0.15;fill:#ffffff;fill-opacity:1"
       height="92"
       width="92"
       y="958.36218"
       x="-96"
       clip-path="url(#clipPath3009)"
       transform="translate(98,0)" />
  </g>
</svg>
