<?xml version="1.0" encoding="UTF-8" standalone="no"?>
<!-- Created with Inkscape (http://www.inkscape.org/) -->

<svg
   xmlns:dc="http://purl.org/dc/elements/1.1/"
   xmlns:cc="http://creativecommons.org/ns#"
   xmlns:rdf="http://www.w3.org/1999/02/22-rdf-syntax-ns#"
   xmlns:svg="http://www.w3.org/2000/svg"
   xmlns="http://www.w3.org/2000/svg"
   xmlns:xlink="http://www.w3.org/1999/xlink"
   xmlns:sodipodi="http://sodipodi.sourceforge.net/DTD/sodipodi-0.dtd"
   xmlns:inkscape="http://www.inkscape.org/namespaces/inkscape"
   width="96"
   height="96"
   id="svg11037"
   version="1.1"
   inkscape:version="0.48.3.1 r9886"
   sodipodi:docname="boxee.svg">
  <defs
     id="defs11039">
    <linearGradient
       y2="1046.1001"
       x2="47.999954"
       y1="962.62189"
       x1="47.999954"
       gradientTransform="matrix(1.15,0,0,1.15,-7.1999462,-150.65291)"
       gradientUnits="userSpaceOnUse"
       id="linearGradient3886"
       xlink:href="#linearGradient3795"
       inkscape:collect="always" />
    <linearGradient
       id="linearGradient3795">
      <stop
         style="stop-color:#13a6fd;stop-opacity:1;"
         offset="0"
         id="stop3797" />
      <stop
         style="stop-color:#2975b6;stop-opacity:1;"
         offset="1"
         id="stop3799" />
    </linearGradient>
    <linearGradient
       y2="1046.1001"
       x2="47.999954"
       y1="962.62189"
       x1="47.999954"
       gradientTransform="matrix(1.15,0,0,1.15,-7.1999462,-150.65292)"
       gradientUnits="userSpaceOnUse"
       id="linearGradient11642"
       xlink:href="#linearGradient3795"
       inkscape:collect="always" />
    <clipPath
       clipPathUnits="userSpaceOnUse"
       id="clipPath3009">
      <path
         id="path3011"
         d="m -2,956.36218 -96,0 0,33.5624 96,25.68742 0,-59.24982 z"
         style="opacity:0.15;fill:#ffffff;fill-opacity:1;stroke:none"
         inkscape:connector-curvature="0" />
    </clipPath>
    <linearGradient
       x1="48"
       y1="90"
       x2="48"
       y2="5.9877172"
       id="linearGradient3706"
       xlink:href="#linearGradient3700"
       gradientUnits="userSpaceOnUse"
       gradientTransform="translate(-119.14749,3.5355338)" />
    <linearGradient
       id="linearGradient3700">
      <stop
         id="stop3702"
         style="stop-color:#b4b4b4;stop-opacity:1;"
         offset="0" />
      <stop
         id="stop3704"
         style="stop-color:#f0f0f0;stop-opacity:1;"
         offset="1" />
    </linearGradient>
    <linearGradient
       y2="5.9877172"
       x2="48"
       y1="90"
       x1="48"
       gradientTransform="matrix(1.1428571,0,0,1.1428571,-6.8571385,949.50504)"
       gradientUnits="userSpaceOnUse"
       id="linearGradient3039"
       xlink:href="#linearGradient3700"
       inkscape:collect="always" />
    <clipPath
       clipPathUnits="userSpaceOnUse"
       id="clipPath3018">
      <rect
         x="2"
         y="958.36218"
         width="92"
         height="92"
         style="opacity:0.6;fill:#000000;fill-opacity:1"
         id="rect3020"
         rx="25"
         ry="25" />
    </clipPath>
    <linearGradient
       inkscape:collect="always"
       xlink:href="#linearGradient3828"
       id="linearGradient3907"
       gradientUnits="userSpaceOnUse"
       x1="48.409195"
       y1="75.942207"
       x2="48.409195"
       y2="15.040183" />
    <linearGradient
       inkscape:collect="always"
       id="linearGradient3828">
      <stop
         style="stop-color:#64a924;stop-opacity:1;"
         offset="0"
         id="stop3830" />
      <stop
         style="stop-color:#9ccd53;stop-opacity:1"
         offset="1"
         id="stop3832" />
    </linearGradient>
    <linearGradient
       y2="15.040183"
       x2="48.409195"
       y1="75.942207"
       x1="48.409195"
       gradientUnits="userSpaceOnUse"
       id="linearGradient3079"
       xlink:href="#linearGradient3828"
       inkscape:collect="always" />
  </defs>
  <sodipodi:namedview
     id="base"
     pagecolor="#ffffff"
     bordercolor="#666666"
     borderopacity="1.0"
     inkscape:pageopacity="0.0"
     inkscape:pageshadow="2"
     inkscape:zoom="3.959798"
     inkscape:cx="29.118614"
     inkscape:cy="59.964634"
     inkscape:document-units="px"
     inkscape:current-layer="layer1"
     showgrid="false"
     inkscape:window-width="1366"
     inkscape:window-height="684"
     inkscape:window-x="0"
     inkscape:window-y="26"
     inkscape:window-maximized="1"
     showguides="true"
     inkscape:guide-bbox="true">
    <sodipodi:guide
       orientation="0,1"
       position="-24.748737,0"
       id="guide11064" />
    <sodipodi:guide
       orientation="0,1"
       position="-23.233509,96"
       id="guide11066" />
    <sodipodi:guide
       orientation="1,0"
       position="0,54.800776"
       id="guide11068" />
    <sodipodi:guide
       orientation="1,0"
       position="96,51.012704"
       id="guide11070" />
    <sodipodi:guide
       orientation="0,1"
       position="-18.94036,48"
       id="guide11072" />
    <sodipodi:guide
       orientation="1,0"
       position="48,79.296975"
       id="guide11074" />
    <sodipodi:guide
       orientation="1,0"
       position="2,75.508903"
       id="guide11076" />
    <sodipodi:guide
       orientation="0,1"
       position="-77.27667,2"
       id="guide11078" />
    <sodipodi:guide
       orientation="1,0"
       position="94,77.781746"
       id="guide11080" />
    <sodipodi:guide
       orientation="0,1"
       position="-65.912454,94"
       id="guide11082" />
  </sodipodi:namedview>
  <metadata
     id="metadata11042">
    <rdf:RDF>
      <cc:Work
         rdf:about="">
        <dc:format>image/svg+xml</dc:format>
        <dc:type
           rdf:resource="http://purl.org/dc/dcmitype/StillImage" />
        <dc:title />
      </cc:Work>
    </rdf:RDF>
  </metadata>
  <g
     inkscape:label="Layer 1"
     inkscape:groupmode="layer"
     id="layer1"
     transform="translate(0,-956.36218)">
    <rect
       width="96"
       height="96"
       rx="6.8571429"
       ry="6.8571429"
       x="0"
       y="956.36218"
       id="rect2419"
       style="fill:url(#linearGradient3039);fill-opacity:1;fill-rule:nonzero;stroke:none;display:inline"
       clip-path="url(#clipPath3018)" />
    <g
       transform="translate(-4.5545374e-7,956.36218)"
       style="display:inline"
       id="g3058">
      <path
         id="path3058-2"
         d="m 47.78125,13.8746 c -5.991208,0.08518 -11.907821,3.040418 -15.5625,8.5625 -0.645249,0.97495 -1.58579,2.992081 -2.09375,4.5 l -0.9375,2.75 -2.78125,0.9375 c -7.682761,2.588013 -12.516684,8.893607 -12.9375,16.875 -0.191528,3.632618 0.303263,6.154436 1.90625,9.5 2.134208,4.454263 7.334444,8.636399 12.03125,9.6875 1.825625,0.408555 1.980794,0.589996 2.53125,2.84375 1.545323,6.327074 8.041019,12.19226 14.84375,13.40625 2.140292,0.38195 6.335285,0.141624 8.40625,-0.46875 0.9126,-0.268968 2.619759,-0.96773 3.78125,-1.5625 1.844777,-0.944663 3.330227,-2.29852 11.84375,-10.75 5.360205,-5.321142 10.240517,-10.407228 10.84375,-11.3125 0.603236,-0.905272 1.529393,-2.83229 2.03125,-4.25 0.82589,-2.33307 0.88574,-2.910781 0.875,-6.1875 -0.01022,-3.114005 -0.105337,-3.940335 -0.78125,-5.84375 -1.124703,-3.167238 -2.477624,-5.22201 -4.96875,-7.59375 -2.249742,-2.141928 -5.17457,-3.857491 -7.65625,-4.5 -0.741387,-0.191945 -1.53996,-0.42139 -1.8125,-0.5 -0.313295,-0.09036 -0.789846,-1.057727 -1.28125,-2.625 -1.05956,-3.379344 -2.644977,-5.930167 -5.21875,-8.375 -3.693941,-3.508882 -8.402671,-5.159998 -13.0625,-5.09375 z m 0.28125,8.75 c 4.78475,0 8.586877,3.028425 9.8125,7.8125 1.214613,4.74109 -1.58556,9.993117 -6.28125,11.75 -3.858367,1.4436 -8.710685,0.252484 -11.25,-2.75 -1.639204,-1.938193 -2.374738,-4.057084 -2.375,-6.71875 -2.11e-4,-2.126222 0.0975,-2.667732 0.96875,-4.4375 1.814788,-3.686358 5.006293,-5.65625 9.125,-5.65625 z m -0.21875,6.625 c -1.350792,0 -2.307936,0.595058 -2.9375,1.8125 -0.873423,1.689015 -0.296495,3.800174 1.28125,4.65625 3.099841,1.681954 6.518136,-1.397871 5.03125,-4.53125 -0.6018,-1.2682 -1.787893,-1.9375 -3.375,-1.9375 z m 15.5,13.9375 c 3.746945,-0.346922 6.9174,3.406187 5.4375,7.28125 -0.380079,0.995223 -2.423072,3.189916 -9.03125,9.78125 -5.619788,5.605465 -8.916811,8.660756 -9.65625,8.96875 -1.471008,0.612712 -2.797302,0.587683 -4.28125,-0.09375 -1.435367,-0.659123 -2.093675,-1.347732 -2.71875,-2.84375 -0.624127,-1.493744 -0.589772,-2.806989 0.125,-4.28125 0.82325,-1.697997 16.985585,-17.775353 18.5,-18.40625 0.546999,-0.227877 1.089722,-0.35669 1.625,-0.40625 z m -31,0.625 c 2.583569,0 4.6875,2.103931 4.6875,4.6875 0,2.583569 -2.103931,4.6875 -4.6875,4.6875 -2.583569,0 -4.6875,-2.103931 -4.6875,-4.6875 0,-2.583569 2.103931,-4.6875 4.6875,-4.6875 z"
         style="fill:#4e841c;fill-opacity:1;display:inline"
         inkscape:connector-curvature="0" />
      <path
         inkscape:connector-curvature="0"
         id="path3058"
         d="m 47.78125,13.375 c -5.991208,0.08518 -11.907821,3.040418 -15.5625,8.5625 -0.645249,0.97495 -1.58579,2.992081 -2.09375,4.5 l -0.9375,2.75 -2.78125,0.9375 C 18.723489,32.713013 13.889566,39.018607 13.46875,47 c -0.191528,3.632618 0.303263,6.154436 1.90625,9.5 2.134208,4.454263 7.334444,8.636399 12.03125,9.6875 1.825625,0.408555 1.980794,0.589996 2.53125,2.84375 1.545323,6.327074 8.041019,12.19226 14.84375,13.40625 2.140292,0.38195 6.335285,0.141624 8.40625,-0.46875 0.9126,-0.268968 2.619759,-0.96773 3.78125,-1.5625 1.844777,-0.944663 3.330227,-2.29852 11.84375,-10.75 5.360205,-5.321142 10.240517,-10.407228 10.84375,-11.3125 0.603236,-0.905272 1.529393,-2.83229 2.03125,-4.25 0.82589,-2.33307 0.88574,-2.910781 0.875,-6.1875 -0.01022,-3.114005 -0.105337,-3.940335 -0.78125,-5.84375 -1.124703,-3.167238 -2.477624,-5.22201 -4.96875,-7.59375 -2.249742,-2.141928 -5.17457,-3.857491 -7.65625,-4.5 -0.741387,-0.191945 -1.53996,-0.42139 -1.8125,-0.5 -0.313295,-0.09036 -0.789846,-1.057727 -1.28125,-2.625 -1.05956,-3.379344 -2.644977,-5.930167 -5.21875,-8.375 -3.693941,-3.508882 -8.402671,-5.159998 -13.0625,-5.09375 z m 0.28125,8.75 c 4.78475,0 8.586877,3.028425 9.8125,7.8125 1.214613,4.74109 -1.58556,9.993117 -6.28125,11.75 -3.858367,1.4436 -8.710685,0.252484 -11.25,-2.75 -1.639204,-1.938193 -2.374738,-4.057084 -2.375,-6.71875 -2.11e-4,-2.126222 0.0975,-2.667732 0.96875,-4.4375 1.814788,-3.686358 5.006293,-5.65625 9.125,-5.65625 z m -0.21875,6.625 c -1.350792,0 -2.307936,0.595058 -2.9375,1.8125 -0.873423,1.689015 -0.296495,3.800174 1.28125,4.65625 3.099841,1.681954 6.518136,-1.397871 5.03125,-4.53125 -0.6018,-1.2682 -1.787893,-1.9375 -3.375,-1.9375 z m 15.5,13.9375 c 3.746945,-0.346922 6.9174,3.406187 5.4375,7.28125 -0.380079,0.995223 -2.423072,3.189916 -9.03125,9.78125 -5.619788,5.605465 -8.916811,8.660756 -9.65625,8.96875 -1.471008,0.612712 -2.797302,0.587683 -4.28125,-0.09375 -1.435367,-0.659123 -2.093675,-1.347732 -2.71875,-2.84375 -0.624127,-1.493744 -0.589772,-2.806989 0.125,-4.28125 0.82325,-1.697997 16.985585,-17.775353 18.5,-18.40625 0.546999,-0.227877 1.089722,-0.35669 1.625,-0.40625 z m -31,0.625 c 2.583569,0 4.6875,2.103931 4.6875,4.6875 0,2.583569 -2.103931,4.6875 -4.6875,4.6875 -2.583569,0 -4.6875,-2.103931 -4.6875,-4.6875 0,-2.583569 2.103931,-4.6875 4.6875,-4.6875 z"
         style="fill:url(#linearGradient3079);fill-opacity:1" />
    </g>
    <rect
       ry="25"
       rx="25"
       id="rect3003"
       style="opacity:0.15;fill:#ffffff;fill-opacity:1"
       height="92"
       width="92"
       y="958.36218"
       x="-96"
       clip-path="url(#clipPath3009)"
       transform="translate(98,0)" />
  </g>
</svg>
