<?xml version="1.0" encoding="UTF-8" standalone="no"?>
<!-- Created with Inkscape (http://www.inkscape.org/) -->

<svg
   xmlns:dc="http://purl.org/dc/elements/1.1/"
   xmlns:cc="http://creativecommons.org/ns#"
   xmlns:rdf="http://www.w3.org/1999/02/22-rdf-syntax-ns#"
   xmlns:svg="http://www.w3.org/2000/svg"
   xmlns="http://www.w3.org/2000/svg"
   xmlns:xlink="http://www.w3.org/1999/xlink"
   xmlns:sodipodi="http://sodipodi.sourceforge.net/DTD/sodipodi-0.dtd"
   xmlns:inkscape="http://www.inkscape.org/namespaces/inkscape"
   width="96"
   height="96"
   id="svg11037"
   version="1.1"
   inkscape:version="0.48.3.1 r9886"
   sodipodi:docname="codeblocks.svg">
  <defs
     id="defs11039">
    <linearGradient
       y2="1046.1001"
       x2="47.999954"
       y1="962.62189"
       x1="47.999954"
       gradientTransform="matrix(1.15,0,0,1.15,-7.1999462,-150.65291)"
       gradientUnits="userSpaceOnUse"
       id="linearGradient3886"
       xlink:href="#linearGradient3795"
       inkscape:collect="always" />
    <linearGradient
       id="linearGradient3795">
      <stop
         style="stop-color:#13a6fd;stop-opacity:1;"
         offset="0"
         id="stop3797" />
      <stop
         style="stop-color:#2975b6;stop-opacity:1;"
         offset="1"
         id="stop3799" />
    </linearGradient>
    <linearGradient
       y2="1046.1001"
       x2="47.999954"
       y1="962.62189"
       x1="47.999954"
       gradientTransform="matrix(1.15,0,0,1.15,-7.1999462,-150.65292)"
       gradientUnits="userSpaceOnUse"
       id="linearGradient11642"
       xlink:href="#linearGradient3795"
       inkscape:collect="always" />
    <clipPath
       clipPathUnits="userSpaceOnUse"
       id="clipPath3009">
      <path
         id="path3011"
         d="m -2,956.36218 -96,0 0,33.5624 96,25.68742 0,-59.24982 z"
         style="opacity:0.15;fill:#ffffff;fill-opacity:1;stroke:none"
         inkscape:connector-curvature="0" />
    </clipPath>
    <linearGradient
       inkscape:collect="always"
       xlink:href="#linearGradient4530"
       id="linearGradient4526"
       gradientUnits="userSpaceOnUse"
       gradientTransform="translate(96.359404,-68.399385)"
       x1="48"
       y1="90"
       x2="48"
       y2="48" />
    <linearGradient
       id="linearGradient4530">
      <stop
         offset="0"
         style="stop-color:#ea0b0b;stop-opacity:1;"
         id="stop4532" />
      <stop
         offset="1"
         style="stop-color:#fa8c8c;stop-opacity:1;"
         id="stop4534" />
    </linearGradient>
    <linearGradient
       inkscape:collect="always"
       xlink:href="#linearGradient3777"
       id="linearGradient4528"
       gradientUnits="userSpaceOnUse"
       gradientTransform="translate(-26.399385,-192.35941)"
       x1="16"
       y1="69"
       x2="38"
       y2="69" />
    <linearGradient
       id="linearGradient3777">
      <stop
         offset="0"
         style="stop-color:#ffffff;stop-opacity:1"
         id="stop3779" />
      <stop
         offset="1"
         style="stop-color:#ffffff;stop-opacity:0"
         id="stop3781" />
    </linearGradient>
    <linearGradient
       inkscape:collect="always"
       xlink:href="#linearGradient4508"
       id="linearGradient3725"
       gradientUnits="userSpaceOnUse"
       gradientTransform="translate(96.359404,-68.399385)"
       x1="48"
       y1="90"
       x2="48"
       y2="48" />
    <linearGradient
       id="linearGradient4508">
      <stop
         id="stop4510"
         style="stop-color:#0dea0b;stop-opacity:1;"
         offset="0" />
      <stop
         id="stop4512"
         style="stop-color:#bffcb8;stop-opacity:1;"
         offset="1" />
    </linearGradient>
    <linearGradient
       inkscape:collect="always"
       xlink:href="#linearGradient3777"
       id="linearGradient3727"
       gradientUnits="userSpaceOnUse"
       gradientTransform="translate(-26.399385,-192.35941)"
       x1="16"
       y1="69"
       x2="38"
       y2="69" />
    <linearGradient
       id="linearGradient3222">
      <stop
         offset="0"
         style="stop-color:#ffffff;stop-opacity:1"
         id="stop3224" />
      <stop
         offset="1"
         style="stop-color:#ffffff;stop-opacity:0"
         id="stop3226" />
    </linearGradient>
    <linearGradient
       inkscape:collect="always"
       xlink:href="#linearGradient4552"
       id="linearGradient4548"
       gradientUnits="userSpaceOnUse"
       gradientTransform="translate(96.359404,-68.399385)"
       x1="48"
       y1="90"
       x2="48"
       y2="48" />
    <linearGradient
       id="linearGradient4552">
      <stop
         id="stop4554"
         style="stop-color:#e8ea0b;stop-opacity:1;"
         offset="0" />
      <stop
         id="stop4556"
         style="stop-color:#f9fa92;stop-opacity:1;"
         offset="1" />
    </linearGradient>
    <linearGradient
       inkscape:collect="always"
       xlink:href="#linearGradient3777"
       id="linearGradient4550"
       gradientUnits="userSpaceOnUse"
       gradientTransform="translate(-26.399385,-192.35941)"
       x1="16"
       y1="69"
       x2="38"
       y2="69" />
    <linearGradient
       id="linearGradient3233">
      <stop
         offset="0"
         style="stop-color:#ffffff;stop-opacity:1"
         id="stop3235" />
      <stop
         offset="1"
         style="stop-color:#ffffff;stop-opacity:0"
         id="stop3237" />
    </linearGradient>
    <linearGradient
       inkscape:collect="always"
       xlink:href="#linearGradient4574"
       id="linearGradient4570"
       gradientUnits="userSpaceOnUse"
       gradientTransform="translate(96.359404,-68.399385)"
       x1="48"
       y1="90"
       x2="48"
       y2="48" />
    <linearGradient
       id="linearGradient4574">
      <stop
         offset="0"
         style="stop-color:#520bea;stop-opacity:1;"
         id="stop4576" />
      <stop
         offset="1"
         style="stop-color:#8e7af9;stop-opacity:1;"
         id="stop4578" />
    </linearGradient>
    <linearGradient
       inkscape:collect="always"
       xlink:href="#linearGradient3777"
       id="linearGradient4572"
       gradientUnits="userSpaceOnUse"
       gradientTransform="translate(-26.399385,-192.35941)"
       x1="16"
       y1="69"
       x2="38"
       y2="69" />
    <linearGradient
       id="linearGradient3244">
      <stop
         offset="0"
         style="stop-color:#ffffff;stop-opacity:1"
         id="stop3246" />
      <stop
         offset="1"
         style="stop-color:#ffffff;stop-opacity:0"
         id="stop3248" />
    </linearGradient>
    <clipPath
       clipPathUnits="userSpaceOnUse"
       id="clipPath3120">
      <rect
         x="7.7499962"
         y="7.75"
         width="80.5"
         height="80.5"
         style="opacity:0.6;fill:#000000;fill-opacity:1"
         id="rect3122"
         rx="21.875"
         ry="21.875" />
    </clipPath>
  </defs>
  <sodipodi:namedview
     id="base"
     pagecolor="#ffffff"
     bordercolor="#666666"
     borderopacity="1.0"
     inkscape:pageopacity="0.0"
     inkscape:pageshadow="2"
     inkscape:zoom="3.959798"
     inkscape:cx="29.118614"
     inkscape:cy="59.964634"
     inkscape:document-units="px"
     inkscape:current-layer="layer1"
     showgrid="false"
     inkscape:window-width="1366"
     inkscape:window-height="684"
     inkscape:window-x="0"
     inkscape:window-y="26"
     inkscape:window-maximized="1"
     showguides="true"
     inkscape:guide-bbox="true">
    <sodipodi:guide
       orientation="0,1"
       position="-24.748737,0"
       id="guide11064" />
    <sodipodi:guide
       orientation="0,1"
       position="-23.233509,96"
       id="guide11066" />
    <sodipodi:guide
       orientation="1,0"
       position="0,54.800776"
       id="guide11068" />
    <sodipodi:guide
       orientation="1,0"
       position="96,51.012704"
       id="guide11070" />
    <sodipodi:guide
       orientation="0,1"
       position="-18.94036,48"
       id="guide11072" />
    <sodipodi:guide
       orientation="1,0"
       position="48,79.296975"
       id="guide11074" />
    <sodipodi:guide
       orientation="1,0"
       position="2,75.508903"
       id="guide11076" />
    <sodipodi:guide
       orientation="0,1"
       position="-77.27667,2"
       id="guide11078" />
    <sodipodi:guide
       orientation="1,0"
       position="94,77.781746"
       id="guide11080" />
    <sodipodi:guide
       orientation="0,1"
       position="-65.912454,94"
       id="guide11082" />
  </sodipodi:namedview>
  <metadata
     id="metadata11042">
    <rdf:RDF>
      <cc:Work
         rdf:about="">
        <dc:format>image/svg+xml</dc:format>
        <dc:type
           rdf:resource="http://purl.org/dc/dcmitype/StillImage" />
        <dc:title />
      </cc:Work>
    </rdf:RDF>
  </metadata>
  <g
     inkscape:label="Layer 1"
     inkscape:groupmode="layer"
     id="layer1"
     transform="translate(0,-956.36218)">
    <g
       transform="matrix(1.1428571,0,0,1.1428571,-6.8571382,949.50504)"
       style="display:inline"
       id="g3173"
       clip-path="url(#clipPath3120)">
      <g
         id="g4514"
         transform="translate(-96.359413,26.399388)">
        <rect
           style="fill:url(#linearGradient4526);fill-opacity:1;fill-rule:nonzero;stroke:none"
           id="rect4516"
           y="-20.399384"
           x="102.35941"
           ry="6"
           rx="6"
           height="42"
           width="42" />
        <rect
           style="opacity:0.4;color:#000000;fill:url(#linearGradient4528);fill-opacity:1;fill-rule:nonzero;stroke:none;stroke-width:0.5;marker:none;visibility:visible;display:inline;overflow:visible;enable-background:accumulate"
           id="rect4518"
           transform="matrix(0,1,-1,0,0,0)"
           y="-134.35941"
           x="-10.399383"
           height="22"
           width="22" />
        <path
           style="opacity:0.15;fill:#ffffff;fill-opacity:1;stroke:none"
           id="path4520"
           inkscape:connector-curvature="0"
           d="m 108.3594,-20.399384 c -1.662,0 -3.1655,0.6655 -4.25,1.75 l 8.25,8.25 22,0 8.25,-8.25 c -1.0845,-1.0845 -2.588,-1.75 -4.25,-1.75 l -30,0 z" />
        <path
           style="opacity:0.2;fill:#800000;fill-opacity:1;stroke:none"
           id="path4522"
           inkscape:connector-curvature="0"
           d="m 108.3594,21.600615 c -1.662,0 -3.1655,-0.6655 -4.25,-1.75 l 8.25,-8.25 22,0 8.25,8.25 c -1.0845,1.0845 -2.588,1.75 -4.25,1.75 l -30,0 z" />
        <path
           style="opacity:0.1;fill:#803300;fill-opacity:1;stroke:none"
           id="path4524"
           inkscape:connector-curvature="0"
           d="m 144.3594,15.600615 c 0,1.662 -0.6655,3.1655 -1.75,4.25 l -8.25,-8.25 0,-21.999999 8.25,-8.25 c 1.0845,1.0845 1.75,2.588 1.75,4.25 l 0,29.999999 z" />
      </g>
      <g
         transform="translate(-54.359413,26.399388)"
         id="g3718">
        <rect
           width="42"
           height="42"
           rx="6"
           ry="6"
           x="102.35941"
           y="-20.399384"
           id="rect3704"
           style="fill:url(#linearGradient3725);fill-opacity:1;fill-rule:nonzero;stroke:none" />
        <rect
           width="22"
           height="22"
           x="-10.399383"
           y="-134.35941"
           transform="matrix(0,1,-1,0,0,0)"
           id="rect3706"
           style="opacity:0.4;color:#000000;fill:url(#linearGradient3727);fill-opacity:1;fill-rule:nonzero;stroke:none;stroke-width:0.5;marker:none;visibility:visible;display:inline;overflow:visible;enable-background:accumulate" />
        <path
           d="m 108.3594,-20.399384 c -1.662,0 -3.1655,0.6655 -4.25,1.75 l 8.25,8.25 22,0 8.25,-8.25 c -1.0845,-1.0845 -2.588,-1.75 -4.25,-1.75 l -30,0 z"
           inkscape:connector-curvature="0"
           id="path3708"
           style="opacity:0.15;fill:#ffffff;fill-opacity:1;stroke:none" />
        <path
           d="m 108.3594,21.600615 c -1.662,0 -3.1655,-0.6655 -4.25,-1.75 l 8.25,-8.25 22,0 8.25,8.25 c -1.0845,1.0845 -2.588,1.75 -4.25,1.75 l -30,0 z"
           inkscape:connector-curvature="0"
           id="path3710"
           style="opacity:0.2;fill:#0f8000;fill-opacity:1;stroke:none" />
        <path
           d="m 144.3594,15.600615 c 0,1.662 -0.6655,3.1655 -1.75,4.25 l -8.25,-8.25 0,-21.999999 8.25,-8.25 c 1.0845,1.0845 1.75,2.588 1.75,4.25 l 0,29.999999 z"
           inkscape:connector-curvature="0"
           id="path3712"
           style="opacity:0.1;fill:#803300;fill-opacity:1;stroke:none" />
      </g>
      <g
         transform="translate(-96.359417,68.399388)"
         id="g4536">
        <rect
           width="42"
           height="42"
           rx="6"
           ry="6"
           x="102.35941"
           y="-20.399384"
           id="rect4538"
           style="fill:url(#linearGradient4548);fill-opacity:1;fill-rule:nonzero;stroke:none" />
        <rect
           width="22"
           height="22"
           x="-10.399383"
           y="-134.35941"
           transform="matrix(0,1,-1,0,0,0)"
           id="rect4540"
           style="opacity:0.4;color:#000000;fill:url(#linearGradient4550);fill-opacity:1;fill-rule:nonzero;stroke:none;stroke-width:0.5;marker:none;visibility:visible;display:inline;overflow:visible;enable-background:accumulate" />
        <path
           d="m 108.3594,-20.399384 c -1.662,0 -3.1655,0.6655 -4.25,1.75 l 8.25,8.25 22,0 8.25,-8.25 c -1.0845,-1.0845 -2.588,-1.75 -4.25,-1.75 l -30,0 z"
           inkscape:connector-curvature="0"
           id="path4542"
           style="opacity:0.15;fill:#ffffff;fill-opacity:1;stroke:none" />
        <path
           d="m 108.3594,21.600615 c -1.662,0 -3.1655,-0.6655 -4.25,-1.75 l 8.25,-8.25 22,0 8.25,8.25 c -1.0845,1.0845 -2.588,1.75 -4.25,1.75 l -30,0 z"
           inkscape:connector-curvature="0"
           id="path4544"
           style="opacity:0.2;fill:#807b00;fill-opacity:1;stroke:none" />
        <path
           d="m 144.3594,15.600615 c 0,1.662 -0.6655,3.1655 -1.75,4.25 l -8.25,-8.25 0,-21.999999 8.25,-8.25 c 1.0845,1.0845 1.75,2.588 1.75,4.25 l 0,29.999999 z"
           inkscape:connector-curvature="0"
           id="path4546"
           style="opacity:0.1;fill:#803300;fill-opacity:1;stroke:none" />
      </g>
      <g
         id="g4558"
         transform="translate(-54.359413,68.399388)">
        <rect
           style="fill:url(#linearGradient4570);fill-opacity:1;fill-rule:nonzero;stroke:none"
           id="rect4560"
           y="-20.399384"
           x="102.35941"
           ry="6"
           rx="6"
           height="42"
           width="42" />
        <rect
           style="opacity:0.4;color:#000000;fill:url(#linearGradient4572);fill-opacity:1;fill-rule:nonzero;stroke:none;stroke-width:0.5;marker:none;visibility:visible;display:inline;overflow:visible;enable-background:accumulate"
           id="rect4562"
           transform="matrix(0,1,-1,0,0,0)"
           y="-134.35941"
           x="-10.399383"
           height="22"
           width="22" />
        <path
           style="opacity:0.15;fill:#ffffff;fill-opacity:1;stroke:none"
           id="path4564"
           inkscape:connector-curvature="0"
           d="m 108.3594,-20.399384 c -1.662,0 -3.1655,0.6655 -4.25,1.75 l 8.25,8.25 22,0 8.25,-8.25 c -1.0845,-1.0845 -2.588,-1.75 -4.25,-1.75 l -30,0 z" />
        <path
           style="opacity:0.2;fill:#2e0080;fill-opacity:1;stroke:none"
           id="path4566"
           inkscape:connector-curvature="0"
           d="m 108.3594,21.600615 c -1.662,0 -3.1655,-0.6655 -4.25,-1.75 l 8.25,-8.25 22,0 8.25,8.25 c -1.0845,1.0845 -2.588,1.75 -4.25,1.75 l -30,0 z" />
        <path
           style="opacity:0.1;fill:#803300;fill-opacity:1;stroke:none"
           id="path4568"
           inkscape:connector-curvature="0"
           d="m 144.3594,15.600615 c 0,1.662 -0.6655,3.1655 -1.75,4.25 l -8.25,-8.25 0,-21.999999 8.25,-8.25 c 1.0845,1.0845 1.75,2.588 1.75,4.25 l 0,29.999999 z" />
      </g>
    </g>
    <rect
       ry="25"
       rx="25"
       id="rect3003"
       style="opacity:0.15;fill:#ffffff;fill-opacity:1"
       height="92"
       width="92"
       y="958.36218"
       x="-96"
       clip-path="url(#clipPath3009)"
       transform="translate(98,0)" />
  </g>
</svg>
