<?xml version="1.0" encoding="UTF-8" standalone="no"?>
<!-- Created with Inkscape (http://www.inkscape.org/) -->

<svg
   xmlns:dc="http://purl.org/dc/elements/1.1/"
   xmlns:cc="http://creativecommons.org/ns#"
   xmlns:rdf="http://www.w3.org/1999/02/22-rdf-syntax-ns#"
   xmlns:svg="http://www.w3.org/2000/svg"
   xmlns="http://www.w3.org/2000/svg"
   xmlns:xlink="http://www.w3.org/1999/xlink"
   xmlns:sodipodi="http://sodipodi.sourceforge.net/DTD/sodipodi-0.dtd"
   xmlns:inkscape="http://www.inkscape.org/namespaces/inkscape"
   width="96"
   height="96"
   id="svg11037"
   version="1.1"
   inkscape:version="0.48.3.1 r9886"
   sodipodi:docname="desktopnova.svg">
  <defs
     id="defs11039">
    <linearGradient
       y2="1046.1001"
       x2="47.999954"
       y1="962.62189"
       x1="47.999954"
       gradientTransform="matrix(1.15,0,0,1.15,-7.1999462,-150.65291)"
       gradientUnits="userSpaceOnUse"
       id="linearGradient3886"
       xlink:href="#linearGradient3795"
       inkscape:collect="always" />
    <linearGradient
       id="linearGradient3795">
      <stop
         style="stop-color:#13a6fd;stop-opacity:1;"
         offset="0"
         id="stop3797" />
      <stop
         style="stop-color:#2975b6;stop-opacity:1;"
         offset="1"
         id="stop3799" />
    </linearGradient>
    <linearGradient
       y2="1046.1001"
       x2="47.999954"
       y1="962.62189"
       x1="47.999954"
       gradientTransform="matrix(1.15,0,0,1.15,-7.1999462,-150.65292)"
       gradientUnits="userSpaceOnUse"
       id="linearGradient11642"
       xlink:href="#linearGradient3795"
       inkscape:collect="always" />
    <clipPath
       clipPathUnits="userSpaceOnUse"
       id="clipPath3009">
      <path
         id="path3011"
         d="m -2,956.36218 -96,0 0,33.5624 96,25.68742 0,-59.24982 z"
         style="opacity:0.15;fill:#ffffff;fill-opacity:1;stroke:none"
         inkscape:connector-curvature="0" />
    </clipPath>
    <linearGradient
       x1="6"
       y1="48"
       x2="90"
       y2="48"
       id="linearGradient4163"
       xlink:href="#linearGradient3696"
       gradientUnits="userSpaceOnUse"
       gradientTransform="translate(-116.07843,10.666667)" />
    <linearGradient
       id="linearGradient3696">
      <stop
         id="stop3698"
         style="stop-color:#2458a6;stop-opacity:1"
         offset="0" />
      <stop
         id="stop3700"
         style="stop-color:#598ad4;stop-opacity:1"
         offset="1" />
    </linearGradient>
    <linearGradient
       y2="48"
       x2="90"
       y1="48"
       x1="6"
       gradientTransform="matrix(1.1428571,0,0,1.1428571,-1059.2193,-6.8571429)"
       gradientUnits="userSpaceOnUse"
       id="linearGradient3098"
       xlink:href="#linearGradient3696"
       inkscape:collect="always" />
    <clipPath
       clipPathUnits="userSpaceOnUse"
       id="clipPath3018">
      <rect
         x="2"
         y="958.36218"
         width="92"
         height="92"
         style="opacity:0.6;fill:#000000;fill-opacity:1"
         id="rect3020"
         rx="25"
         ry="25"
         transform="matrix(0,1,-1,0,0,0)" />
    </clipPath>
    <linearGradient
       inkscape:collect="always"
       xlink:href="#linearGradient3169"
       id="linearGradient2874"
       gradientUnits="userSpaceOnUse"
       x1="-1.92"
       y1="14.274782"
       x2="64.695656"
       y2="27.798262" />
    <linearGradient
       id="linearGradient3169">
      <stop
         style="stop-color:#0000ff;stop-opacity:1;"
         offset="0"
         id="stop3171" />
      <stop
         style="stop-color:#ffffff;stop-opacity:1;"
         offset="1"
         id="stop3173" />
    </linearGradient>
  </defs>
  <sodipodi:namedview
     id="base"
     pagecolor="#ffffff"
     bordercolor="#666666"
     borderopacity="1.0"
     inkscape:pageopacity="0.0"
     inkscape:pageshadow="2"
     inkscape:zoom="3.959798"
     inkscape:cx="29.118614"
     inkscape:cy="59.964634"
     inkscape:document-units="px"
     inkscape:current-layer="layer1"
     showgrid="false"
     inkscape:window-width="1366"
     inkscape:window-height="684"
     inkscape:window-x="0"
     inkscape:window-y="26"
     inkscape:window-maximized="1"
     showguides="true"
     inkscape:guide-bbox="true">
    <sodipodi:guide
       orientation="0,1"
       position="-24.748737,0"
       id="guide11064" />
    <sodipodi:guide
       orientation="0,1"
       position="-23.233509,96"
       id="guide11066" />
    <sodipodi:guide
       orientation="1,0"
       position="0,54.800776"
       id="guide11068" />
    <sodipodi:guide
       orientation="1,0"
       position="96,51.012704"
       id="guide11070" />
    <sodipodi:guide
       orientation="0,1"
       position="-18.94036,48"
       id="guide11072" />
    <sodipodi:guide
       orientation="1,0"
       position="48,79.296975"
       id="guide11074" />
    <sodipodi:guide
       orientation="1,0"
       position="2,75.508903"
       id="guide11076" />
    <sodipodi:guide
       orientation="0,1"
       position="-77.27667,2"
       id="guide11078" />
    <sodipodi:guide
       orientation="1,0"
       position="94,77.781746"
       id="guide11080" />
    <sodipodi:guide
       orientation="0,1"
       position="-65.912454,94"
       id="guide11082" />
  </sodipodi:namedview>
  <metadata
     id="metadata11042">
    <rdf:RDF>
      <cc:Work
         rdf:about="">
        <dc:format>image/svg+xml</dc:format>
        <dc:type
           rdf:resource="http://purl.org/dc/dcmitype/StillImage" />
        <dc:title />
      </cc:Work>
    </rdf:RDF>
  </metadata>
  <g
     inkscape:label="Layer 1"
     inkscape:groupmode="layer"
     id="layer1"
     transform="translate(0,-956.36218)">
    <rect
       width="96"
       height="96"
       rx="6.8571429"
       ry="6.8571429"
       x="-1052.3622"
       y="0"
       transform="matrix(0,-1,1,0,0,0)"
       id="rect2419"
       style="fill:url(#linearGradient3098);fill-opacity:1;fill-rule:nonzero;stroke:none"
       clip-path="url(#clipPath3018)" />
    <g
       transform="translate(-1.8286742e-7,956.36218)"
       id="g3100">
      <g
         id="picturebottom"
         transform="matrix(1.4364494,0,0,1.4338155,19.499914,35.581911)">
        <path
           sodipodi:nodetypes="cccsssssssscccccc"
           id="path3165"
           d="m 1.1603479,22.884556 0.083478,-4.204137 2.9008696,0.111084 c 6.0121145,-0.145009 9.8476275,-0.435179 12.3339125,-0.893699 1.027157,-0.189427 3.585627,-0.860211 4.071472,-1.054268 0.378444,-0.151158 0.993844,-0.401595 1.138325,-0.834495 0.05785,-0.173319 0.220817,-0.907824 0.260129,-1.734258 0.07996,-1.680885 0.482463,-2.009237 0.8383,-2.414513 0.337153,-0.383994 0.707846,-0.879666 1.610049,-0.937083 2.197225,-0.13983 5.115947,0.870026 7.673602,2.143457 2.074093,1.032672 3.87558,1.829363 6.645993,4.286065 1.417997,1.257426 2.568827,1.805551 3.006052,1.805551 l 0.0083,3.840001 -0.166957,4.090435 -20.118261,-0.08348 -20.2852173,0 0,-4.120662 z"
           style="fill:#3d5630;fill-opacity:1;stroke:none"
           inkscape:connector-curvature="0" />
        <path
           sodipodi:nodetypes="csssssssssccccccccc"
           id="path3167"
           d="M 40.128966,18.451626 C 39.839181,18.210788 39.086608,17.544571 38.558608,17.073171 34.68385,13.613782 31.686629,11.390084 27.895645,10.585882 26.94632,10.384497 26.647548,10.359337 25.160348,10.355553 c -1.570933,-0.004 -1.615274,0.508383 -2.080141,0.695704 -0.634729,0.255767 -1.231632,0.276503 -1.471663,0.909426 -0.149297,0.393677 0.140829,0.751675 0.08468,2.037792 -0.07641,1.750067 -0.166254,2.584602 -0.615561,2.786898 -0.320621,0.144357 -3.36061,0.905369 -4.265874,1.076559 -2.245024,0.424545 -5.864209,0.635803 -10.7262217,0.75258 -1.0330435,0.02481 -2.7370435,0.06445 -3.2765218,0.08808 l -1.4817391,-0.04051 0,-8.016262 L 1.5777412,2.3791234 21.445567,2.1286886 41.48035,2.4626017 41.647307,10.800691 c 0,8.944282 0.755626,9.098578 -0.182687,8.318753 l -1.335652,-0.667825 z"
           style="fill:#d5c985;fill-opacity:1;stroke:none"
           inkscape:connector-curvature="0" />
        <rect
           y="2.3373916"
           x="1.2521737"
           height="24.626087"
           width="40.403477"
           id="rect2383"
           style="fill:none;stroke:#000000;stroke-width:1;stroke-miterlimit:4;stroke-opacity:1;stroke-dasharray:none;stroke-dashoffset:0" />
        <path
           sodipodi:nodetypes="csss"
           id="path3155"
           d="m 1.6695652,18.782609 c 15.4434778,-0.250435 15.5269568,-1.168696 18.9495658,-1.92 2.733616,-0.600062 -0.780071,-5.934093 3.756521,-6.093913 9.339805,-0.329033 16.194783,8.681738 17.113044,8.514782"
           style="fill:none;stroke:#000000;stroke-width:1px;stroke-linecap:butt;stroke-linejoin:miter;stroke-opacity:1"
           inkscape:connector-curvature="0" />
      </g>
      <g
         id="picturetop"
         transform="matrix(1.4364494,0,0,1.4338155,13.923992,18.406049)">
        <path
           sodipodi:nodetypes="cssssccccccccs"
           id="path3235"
           d="m 27.895645,10.585882 c -1.142674,-0.29806 -5.963473,0.533242 -5.953188,1.291323 0.0057,0.420997 -0.694082,0.91323 -0.249235,2.12127 1.259242,3.419632 -4.262526,3.474937 -5.13187,3.779978 -2.161546,0.758458 -5.947687,0.635804 -10.8096998,0.752581 -1.0330435,0.02481 -2.4866087,-0.01903 -3.026087,0.0046 l -1.5652173,0.126449 0.1669565,-8.09974 0.083478,-8.0997403 19.9513046,0.083478 20.201739,0 -0.08348,8.0876543 c 0,8.944282 0.0043,8.681187 -0.933991,7.901362 0,0 -8.900838,-6.971089 -12.650712,-7.949221 z"
           style="fill:#8baeff;fill-opacity:1;stroke:none"
           inkscape:connector-curvature="0" />
        <path
           sodipodi:nodetypes="cccssssssssccccccc"
           id="path3233"
           d="m 1.2438261,22.884556 0,-3.953702 2.8173913,-0.139351 c 6.0121146,-0.145009 9.8476276,-0.351701 12.3339126,-0.810221 1.027157,-0.189427 3.91954,-1.027167 4.405385,-1.221224 0.378444,-0.151158 1.1608,-0.234639 1.305281,-0.667539 0.05785,-0.173319 -0.363531,-0.907824 -0.324219,-1.734258 0.07996,-1.680885 0.315507,-2.426628 0.671344,-2.831904 0.337153,-0.383994 1.041759,-0.796188 1.943962,-0.853605 2.197225,-0.13983 5.533338,0.870026 8.090993,2.143457 2.074093,1.032672 4.042537,2.49719 6.81295,4.953892 1.417997,1.257426 1.567087,1.388159 2.004312,1.388159 l 0.342167,0.417392 -0.08348,3.673044 -0.166956,3.673043 -19.951305,0 -20.2017389,0 0,-4.037183 z"
           style="fill:url(#linearGradient2874);fill-opacity:1;stroke:none"
           inkscape:connector-curvature="0" />
        <path
           sodipodi:nodetypes="csss"
           id="path3231"
           d="m 1.6695652,18.782609 c 15.4434778,-0.250435 15.5269568,-1.168696 18.9495658,-1.92 2.733616,-0.600062 -0.780071,-5.934093 3.756521,-6.093913 9.339805,-0.329033 16.194783,8.514782 17.113044,8.347826"
           style="fill:none;stroke:#000000;stroke-width:1px;stroke-linecap:butt;stroke-linejoin:miter;stroke-opacity:1"
           inkscape:connector-curvature="0" />
        <rect
           y="2.3373916"
           x="1.2521737"
           height="24.626087"
           width="40.403477"
           id="rect3229"
           style="fill:none;stroke:#000000;stroke-width:1;stroke-miterlimit:4;stroke-opacity:1;stroke-dasharray:none;stroke-dashoffset:0" />
      </g>
      <g
         id="arrows"
         transform="matrix(1.4364494,0,0,1.4338155,13.504299,13.797891)">
        <path
           style="fill:#d7ff35;fill-opacity:1;fill-rule:evenodd;stroke:none"
           d="M 27.3125,24.71875 C 12.512742,28.331319 17.001122,31.987683 23.0625,34 l -0.53125,0.46875 4.4375,0.59375 -2.6875,-2.09375 -0.5625,0.46875 c -3.976784,-2.449017 -7.486515,-4.693121 3.59375,-4.71875 l 0,-4 z"
           id="arrowleft"
           inkscape:connector-curvature="0" />
        <path
           id="arrowright"
           d="m 31.080465,35.469075 c 14.799758,-3.612569 10.311378,-7.268933 4.25,-9.28125 l 0.53125,-0.46875 -4.4375,-0.59375 2.6875,2.09375 0.5625,-0.46875 c 3.976784,2.449017 7.486515,4.693121 -3.59375,4.71875 l 0,4 z"
           style="fill:#d7ff35;fill-opacity:1;fill-rule:evenodd;stroke:none"
           inkscape:connector-curvature="0" />
      </g>
    </g>
    <rect
       ry="25"
       rx="25"
       id="rect3003"
       style="opacity:0.15;fill:#ffffff;fill-opacity:1"
       height="92"
       width="92"
       y="958.36218"
       x="-96"
       clip-path="url(#clipPath3009)"
       transform="translate(98,0)" />
  </g>
</svg>
