<?xml version="1.0" encoding="UTF-8" standalone="no"?>
<!-- Created with Inkscape (http://www.inkscape.org/) -->

<svg
   xmlns:dc="http://purl.org/dc/elements/1.1/"
   xmlns:cc="http://creativecommons.org/ns#"
   xmlns:rdf="http://www.w3.org/1999/02/22-rdf-syntax-ns#"
   xmlns:svg="http://www.w3.org/2000/svg"
   xmlns="http://www.w3.org/2000/svg"
   xmlns:xlink="http://www.w3.org/1999/xlink"
   xmlns:sodipodi="http://sodipodi.sourceforge.net/DTD/sodipodi-0.dtd"
   xmlns:inkscape="http://www.inkscape.org/namespaces/inkscape"
   width="96"
   height="96"
   id="svg11037"
   version="1.1"
   inkscape:version="0.48.3.1 r9886"
   sodipodi:docname="fluxgui.svg">
  <defs
     id="defs11039">
    <linearGradient
       y2="1046.1001"
       x2="47.999954"
       y1="962.62189"
       x1="47.999954"
       gradientTransform="matrix(1.15,0,0,1.15,-7.1999462,-150.65291)"
       gradientUnits="userSpaceOnUse"
       id="linearGradient3886"
       xlink:href="#linearGradient3795"
       inkscape:collect="always" />
    <linearGradient
       id="linearGradient3795">
      <stop
         style="stop-color:#13a6fd;stop-opacity:1;"
         offset="0"
         id="stop3797" />
      <stop
         style="stop-color:#2975b6;stop-opacity:1;"
         offset="1"
         id="stop3799" />
    </linearGradient>
    <linearGradient
       y2="1046.1001"
       x2="47.999954"
       y1="962.62189"
       x1="47.999954"
       gradientTransform="matrix(1.15,0,0,1.15,-7.1999462,-150.65292)"
       gradientUnits="userSpaceOnUse"
       id="linearGradient11642"
       xlink:href="#linearGradient3795"
       inkscape:collect="always" />
    <clipPath
       clipPathUnits="userSpaceOnUse"
       id="clipPath3009">
      <path
         id="path3011"
         d="m -2,956.36218 -96,0 0,33.5624 96,25.68742 0,-59.24982 z"
         style="opacity:0.15;fill:#ffffff;fill-opacity:1;stroke:none"
         inkscape:connector-curvature="0" />
    </clipPath>
    <linearGradient
       x1="48"
       y1="90"
       x2="48"
       y2="5.9877172"
       id="linearGradient3617"
       xlink:href="#radialGradient3809"
       gradientUnits="userSpaceOnUse"
       gradientTransform="translate(-119.20786,-100.49395)" />
    <radialGradient
       cx="622.72803"
       cy="621.17328"
       r="510.71881"
       fx="622.72803"
       fy="621.17328"
       id="radialGradient3809"
       gradientUnits="userSpaceOnUse">
      <stop
         id="stop3811"
         style="stop-color:#f0f0f0;stop-opacity:1"
         offset="0" />
      <stop
         id="stop3813"
         style="stop-color:#e1e1e1;stop-opacity:1"
         offset="0.2814" />
      <stop
         id="stop3815"
         style="stop-color:#c0c0c0;stop-opacity:1"
         offset="0.75150001" />
      <stop
         id="stop3817"
         style="stop-color:#b2b2b2;stop-opacity:1"
         offset="1" />
    </radialGradient>
    <linearGradient
       y2="5.9877172"
       x2="48"
       y1="90"
       x1="48"
       gradientTransform="matrix(1.1428571,0,0,1.1428571,-6.8571371,-1059.2193)"
       gradientUnits="userSpaceOnUse"
       id="linearGradient3135"
       xlink:href="#radialGradient3809"
       inkscape:collect="always" />
    <clipPath
       clipPathUnits="userSpaceOnUse"
       id="clipPath3022">
      <rect
         x="2"
         y="958.36218"
         width="92"
         height="92"
         style="opacity:0.6;fill:#000000;fill-opacity:1"
         id="rect3024"
         rx="25"
         ry="25"
         transform="scale(1,-1)" />
    </clipPath>
  </defs>
  <sodipodi:namedview
     id="base"
     pagecolor="#ffffff"
     bordercolor="#666666"
     borderopacity="1.0"
     inkscape:pageopacity="0.0"
     inkscape:pageshadow="2"
     inkscape:zoom="3.959798"
     inkscape:cx="29.118614"
     inkscape:cy="59.964634"
     inkscape:document-units="px"
     inkscape:current-layer="layer1"
     showgrid="false"
     inkscape:window-width="1366"
     inkscape:window-height="684"
     inkscape:window-x="0"
     inkscape:window-y="26"
     inkscape:window-maximized="1"
     showguides="true"
     inkscape:guide-bbox="true">
    <sodipodi:guide
       orientation="0,1"
       position="-24.748737,0"
       id="guide11064" />
    <sodipodi:guide
       orientation="0,1"
       position="-23.233509,96"
       id="guide11066" />
    <sodipodi:guide
       orientation="1,0"
       position="0,54.800776"
       id="guide11068" />
    <sodipodi:guide
       orientation="1,0"
       position="96,51.012704"
       id="guide11070" />
    <sodipodi:guide
       orientation="0,1"
       position="-18.94036,48"
       id="guide11072" />
    <sodipodi:guide
       orientation="1,0"
       position="48,79.296975"
       id="guide11074" />
    <sodipodi:guide
       orientation="1,0"
       position="2,75.508903"
       id="guide11076" />
    <sodipodi:guide
       orientation="0,1"
       position="-77.27667,2"
       id="guide11078" />
    <sodipodi:guide
       orientation="1,0"
       position="94,77.781746"
       id="guide11080" />
    <sodipodi:guide
       orientation="0,1"
       position="-65.912454,94"
       id="guide11082" />
  </sodipodi:namedview>
  <metadata
     id="metadata11042">
    <rdf:RDF>
      <cc:Work
         rdf:about="">
        <dc:format>image/svg+xml</dc:format>
        <dc:type
           rdf:resource="http://purl.org/dc/dcmitype/StillImage" />
        <dc:title />
      </cc:Work>
    </rdf:RDF>
  </metadata>
  <g
     inkscape:label="Layer 1"
     inkscape:groupmode="layer"
     id="layer1"
     transform="translate(0,-956.36218)">
    <rect
       width="96"
       height="96"
       rx="6.8571429"
       ry="6.8571429"
       x="0"
       y="-1052.3622"
       transform="scale(1,-1)"
       id="rect2419"
       style="fill:url(#linearGradient3135);fill-opacity:1;fill-rule:nonzero;stroke:none"
       clip-path="url(#clipPath3022)" />
    <g
       transform="translate(-3.7211469e-7,956.36218)"
       id="g3137">
      <g
         transform="matrix(1.4914175,0,0,1.4400665,1.1108739,2.08512)"
         id="layer1-3"
         inkscape:label="Layer 1">
        <g
           id="g2820"
           transform="matrix(0.76512314,0,0,0.76512314,7.5160599,7.5160593)">
          <path
             transform="matrix(1.0189009,0,0,1.0189009,105.99768,23.084617)"
             d="m -43.875,8.75 c 0,15.878187 -12.871813,28.75 -28.75,28.75 -15.878187,0 -28.75,-12.871813 -28.75,-28.75 0,-15.8781866 12.871813,-28.75 28.75,-28.75 15.878187,0 28.75,12.8718134 28.75,28.75 z"
             sodipodi:ry="28.75"
             sodipodi:rx="28.75"
             sodipodi:cy="8.75"
             sodipodi:cx="-72.625"
             id="path2496"
             style="fill:#ffce7b;fill-opacity:1;fill-rule:nonzero;stroke:#666666;stroke-width:1;stroke-linecap:butt;stroke-linejoin:miter;stroke-miterlimit:4;stroke-opacity:1;stroke-dasharray:none;stroke-dashoffset:0"
             sodipodi:type="arc" />
          <path
             inkscape:connector-curvature="0"
             id="path3912"
             d="m 37.4375,28.9375 2,-2 3.3125,-1.5625 4.125,0.4375 2.5625,1.125 2.6875,2.6875 0.9375,2.9375 0.125,3.3125 -0.5,1.5625 -1.8125,3.125 -4.125,-4.375 -3.8125,-3.25 -5.5,-4 z"
             style="fill:#ff9f30;fill-opacity:1;fill-rule:evenodd;stroke:none" />
          <path
             inkscape:connector-curvature="0"
             id="path3916"
             d="M 3.3125,38 5.5,34.5 l 4.1875,-4.375 4.1875,-3 6.0625,-2 4.8125,0 4.5,0.6875 L 33.9375,27.5 40,30.75 46.3125,36 l 4.25,4.125 3.875,4.125 2.625,3.1875 -3.3125,4.375 -3.9375,3.4375 -7.1875,4.3125 -6.625,1.5 -5.4375,0.25 -7.625,-1.25 -6.8125,-3.25 -4.9375,-4 -3.75,-4.875 L 4.8125,43 l -1.5,-5 z"
             style="fill:#869fcb;fill-opacity:1;fill-rule:evenodd;stroke:none" />
          <path
             inkscape:connector-curvature="0"
             sodipodi:nodetypes="cs"
             id="path3272"
             d="M 3.5416325,38.386326 C 6.3676959,29.727552 26.559787,9.1422814 56.761013,47.125508"
             style="fill:none;stroke:#eae3d0;stroke-width:0.89632642px;stroke-linecap:butt;stroke-linejoin:miter;stroke-opacity:1" />
          <path
             inkscape:connector-curvature="0"
             sodipodi:nodetypes="ccssssssssssscssssccsssscsssssssssssc"
             id="path3291"
             d="m 50.429157,40.345481 0.627867,0.627872 c 0.423936,-0.423935 0.80751,-0.888233 1.144403,-1.38658 0.336902,-0.498346 0.627115,-1.03074 0.864345,-1.590868 0.237222,-0.560127 0.421462,-1.147988 0.546383,-1.757268 0.12493,-0.609279 0.19055,-1.239978 0.19055,-1.88578 0,-0.645802 -0.06562,-1.276501 -0.19055,-1.88578 -0.124921,-0.60928 -0.309161,-1.197141 -0.546383,-1.757268 -0.23723,-0.560128 -0.527443,-1.092522 -0.864345,-1.590868 -0.336893,-0.498347 -0.720467,-0.962645 -1.144403,-1.38658 -0.423935,-0.423936 -0.888232,-0.807509 -1.386581,-1.144405 -0.498339,-0.336895 -1.030739,-0.627114 -1.590863,-0.86434 -0.560132,-0.237226 -1.147988,-0.421461 -1.757274,-0.546389 -0.609278,-0.124928 -1.239978,-0.190549 -1.885773,-0.190549 -0.645803,0 -1.276503,0.06562 -1.885781,0.190549 -0.609286,0.124928 -1.197142,0.309163 -1.757274,0.546389 -0.560124,0.237226 -1.092515,0.527445 -1.590863,0.86434 -0.498349,0.336896 -0.962646,0.720469 -1.386581,1.144405 -0.423936,0.423935 -0.80751,0.888233 -1.144403,1.38658 l 0.73765,0.49536 c 0.304518,-0.450815 0.651288,-0.870729 1.03462,-1.254069 0.383341,-0.38334 0.803261,-0.730105 1.254077,-1.034626 0.450808,-0.304521 0.93253,-0.566795 1.439474,-0.781152 0.506953,-0.214357 1.039129,-0.380797 1.590863,-0.493647 0.551742,-0.112851 1.123034,-0.172112 1.708218,-0.172112 0.585176,0 1.156477,0.05926 1.70821,0.172112 0.551734,0.11285 1.08391,0.27929 1.590863,0.493647 0.506944,0.214357 0.988666,0.476631 1.439482,0.781152 0.450817,0.304521 0.870728,0.651286 1.254069,1.034626 0.383341,0.38334 0.730102,0.803254 1.03462,1.254069 0.304527,0.450815 0.566801,0.932534 0.781158,1.439481 0.214356,0.506948 0.380795,1.039126 0.493642,1.590862 0.112857,0.551737 0.172113,1.123032 0.172113,1.708213 0,0.585181 -0.05926,1.156476 -0.172113,1.708212 -0.112847,0.551736 -0.279286,1.083915 -0.493642,1.590862 -0.214357,0.506947 -0.476631,0.988666 -0.781158,1.439481 -0.304518,0.450815 -0.651279,0.870729 -1.03462,1.254069 z"
             style="fill:#eae3d0;fill-opacity:1;fill-rule:nonzero;stroke:none" />
          <path
             sodipodi:type="arc"
             style="fill:none;stroke:#666666;stroke-width:1;stroke-linecap:butt;stroke-linejoin:miter;stroke-miterlimit:4;stroke-opacity:1;stroke-dasharray:none;stroke-dashoffset:0"
             id="path3914"
             sodipodi:cx="-72.625"
             sodipodi:cy="8.75"
             sodipodi:rx="28.75"
             sodipodi:ry="28.75"
             d="m -43.875,8.75 c 0,15.878187 -12.871813,28.75 -28.75,28.75 -15.878187,0 -28.75,-12.871813 -28.75,-28.75 0,-15.8781866 12.871813,-28.75 28.75,-28.75 15.878187,0 28.75,12.8718134 28.75,28.75 z"
             transform="matrix(1.0189009,0,0,1.0189009,105.99768,23.084617)" />
        </g>
      </g>
    </g>
    <rect
       ry="25"
       rx="25"
       id="rect3003"
       style="opacity:0.15;fill:#ffffff;fill-opacity:1"
       height="92"
       width="92"
       y="958.36218"
       x="-96"
       clip-path="url(#clipPath3009)"
       transform="translate(98,0)" />
  </g>
</svg>
