<?xml version="1.0" encoding="UTF-8" standalone="no"?>
<!-- Created with Inkscape (http://www.inkscape.org/) -->

<svg
   xmlns:dc="http://purl.org/dc/elements/1.1/"
   xmlns:cc="http://creativecommons.org/ns#"
   xmlns:rdf="http://www.w3.org/1999/02/22-rdf-syntax-ns#"
   xmlns:svg="http://www.w3.org/2000/svg"
   xmlns="http://www.w3.org/2000/svg"
   xmlns:xlink="http://www.w3.org/1999/xlink"
   xmlns:sodipodi="http://sodipodi.sourceforge.net/DTD/sodipodi-0.dtd"
   xmlns:inkscape="http://www.inkscape.org/namespaces/inkscape"
   width="96"
   height="96"
   id="svg11037"
   version="1.1"
   inkscape:version="0.48.3.1 r9886"
   sodipodi:docname="geogebra.svg">
  <defs
     id="defs11039">
    <linearGradient
       y2="1046.1001"
       x2="47.999954"
       y1="962.62189"
       x1="47.999954"
       gradientTransform="matrix(1.15,0,0,1.15,-7.1999462,-150.65291)"
       gradientUnits="userSpaceOnUse"
       id="linearGradient3886"
       xlink:href="#linearGradient3795"
       inkscape:collect="always" />
    <linearGradient
       id="linearGradient3795">
      <stop
         style="stop-color:#13a6fd;stop-opacity:1;"
         offset="0"
         id="stop3797" />
      <stop
         style="stop-color:#2975b6;stop-opacity:1;"
         offset="1"
         id="stop3799" />
    </linearGradient>
    <linearGradient
       y2="1046.1001"
       x2="47.999954"
       y1="962.62189"
       x1="47.999954"
       gradientTransform="matrix(1.15,0,0,1.15,-7.1999462,-150.65292)"
       gradientUnits="userSpaceOnUse"
       id="linearGradient11642"
       xlink:href="#linearGradient3795"
       inkscape:collect="always" />
    <clipPath
       clipPathUnits="userSpaceOnUse"
       id="clipPath3009">
      <path
         id="path3011"
         d="m -2,956.36218 -96,0 0,33.5624 96,25.68742 0,-59.24982 z"
         style="opacity:0.15;fill:#ffffff;fill-opacity:1;stroke:none"
         inkscape:connector-curvature="0" />
    </clipPath>
    <linearGradient
       x1="48"
       y1="90"
       x2="48"
       y2="5.9877172"
       id="linearGradient3708"
       xlink:href="#linearGradient2867-449-88-871-390-598-476-591-434-148"
       gradientUnits="userSpaceOnUse"
       gradientTransform="translate(0,-96)" />
    <linearGradient
       id="linearGradient2867-449-88-871-390-598-476-591-434-148">
      <stop
         id="stop4631"
         style="stop-color:#ebebeb;stop-opacity:1;"
         offset="0" />
      <stop
         id="stop4633"
         style="stop-color:#959595;stop-opacity:1;"
         offset="1" />
    </linearGradient>
    <linearGradient
       y2="5.9877172"
       x2="48"
       y1="90"
       x1="48"
       gradientTransform="matrix(1.1428571,0,0,1.1428571,-6.8571429,-1059.2193)"
       gradientUnits="userSpaceOnUse"
       id="linearGradient3096"
       xlink:href="#linearGradient2867-449-88-871-390-598-476-591-434-148"
       inkscape:collect="always" />
    <clipPath
       clipPathUnits="userSpaceOnUse"
       id="clipPath3018">
      <rect
         x="2"
         y="958.36218"
         width="92"
         height="92"
         style="opacity:0.6;fill:#000000;fill-opacity:1"
         id="rect3020"
         rx="25"
         ry="25"
         transform="scale(1,-1)" />
    </clipPath>
    <linearGradient
       inkscape:collect="always"
       xlink:href="#linearGradient3881"
       id="linearGradient4181"
       gradientUnits="userSpaceOnUse"
       x1="20.96678"
       y1="33"
       x2="45.033222"
       y2="33" />
    <linearGradient
       id="linearGradient3881">
      <stop
         style="stop-color:#666666;stop-opacity:1;"
         offset="0"
         id="stop3883" />
      <stop
         style="stop-color:#464646;stop-opacity:1;"
         offset="1"
         id="stop3885" />
    </linearGradient>
    <filter
       inkscape:collect="always"
       id="filter3923"
       color-interpolation-filters="sRGB">
      <feGaussianBlur
         inkscape:collect="always"
         stdDeviation="0.52601593"
         id="feGaussianBlur3925" />
    </filter>
    <linearGradient
       inkscape:collect="always"
       xlink:href="#linearGradient3864"
       id="linearGradient4183"
       gradientUnits="userSpaceOnUse"
       x1="16.5"
       y1="30.5"
       x2="30.5"
       y2="30.5" />
    <linearGradient
       id="linearGradient3864">
      <stop
         style="stop-color:#9999ff;stop-opacity:1;"
         offset="0"
         id="stop3866" />
      <stop
         style="stop-color:#454573;stop-opacity:1;"
         offset="1"
         id="stop3868" />
    </linearGradient>
    <linearGradient
       inkscape:collect="always"
       xlink:href="#linearGradient3864"
       id="linearGradient4185"
       gradientUnits="userSpaceOnUse"
       x1="16.5"
       y1="30.5"
       x2="30.5"
       y2="30.5" />
    <linearGradient
       id="linearGradient3132">
      <stop
         style="stop-color:#9999ff;stop-opacity:1;"
         offset="0"
         id="stop3134" />
      <stop
         style="stop-color:#454573;stop-opacity:1;"
         offset="1"
         id="stop3136" />
    </linearGradient>
    <linearGradient
       inkscape:collect="always"
       xlink:href="#linearGradient3864"
       id="linearGradient4187"
       gradientUnits="userSpaceOnUse"
       x1="16.5"
       y1="30.5"
       x2="30.5"
       y2="30.5" />
    <linearGradient
       id="linearGradient3139">
      <stop
         style="stop-color:#9999ff;stop-opacity:1;"
         offset="0"
         id="stop3141" />
      <stop
         style="stop-color:#454573;stop-opacity:1;"
         offset="1"
         id="stop3143" />
    </linearGradient>
    <linearGradient
       inkscape:collect="always"
       xlink:href="#linearGradient3864"
       id="linearGradient4189"
       gradientUnits="userSpaceOnUse"
       x1="16.5"
       y1="30.5"
       x2="30.5"
       y2="30.5" />
    <linearGradient
       id="linearGradient3146">
      <stop
         style="stop-color:#9999ff;stop-opacity:1;"
         offset="0"
         id="stop3148" />
      <stop
         style="stop-color:#454573;stop-opacity:1;"
         offset="1"
         id="stop3150" />
    </linearGradient>
    <linearGradient
       inkscape:collect="always"
       xlink:href="#linearGradient3864"
       id="linearGradient4191"
       gradientUnits="userSpaceOnUse"
       x1="16.5"
       y1="30.5"
       x2="30.5"
       y2="30.5" />
    <linearGradient
       id="linearGradient3153">
      <stop
         style="stop-color:#9999ff;stop-opacity:1;"
         offset="0"
         id="stop3155" />
      <stop
         style="stop-color:#454573;stop-opacity:1;"
         offset="1"
         id="stop3157" />
    </linearGradient>
  </defs>
  <sodipodi:namedview
     id="base"
     pagecolor="#ffffff"
     bordercolor="#666666"
     borderopacity="1.0"
     inkscape:pageopacity="0.0"
     inkscape:pageshadow="2"
     inkscape:zoom="3.959798"
     inkscape:cx="29.118614"
     inkscape:cy="59.964634"
     inkscape:document-units="px"
     inkscape:current-layer="layer1"
     showgrid="false"
     inkscape:window-width="1366"
     inkscape:window-height="684"
     inkscape:window-x="0"
     inkscape:window-y="26"
     inkscape:window-maximized="1"
     showguides="true"
     inkscape:guide-bbox="true">
    <sodipodi:guide
       orientation="0,1"
       position="-24.748737,0"
       id="guide11064" />
    <sodipodi:guide
       orientation="0,1"
       position="-23.233509,96"
       id="guide11066" />
    <sodipodi:guide
       orientation="1,0"
       position="0,54.800776"
       id="guide11068" />
    <sodipodi:guide
       orientation="1,0"
       position="96,51.012704"
       id="guide11070" />
    <sodipodi:guide
       orientation="0,1"
       position="-18.94036,48"
       id="guide11072" />
    <sodipodi:guide
       orientation="1,0"
       position="48,79.296975"
       id="guide11074" />
    <sodipodi:guide
       orientation="1,0"
       position="2,75.508903"
       id="guide11076" />
    <sodipodi:guide
       orientation="0,1"
       position="-77.27667,2"
       id="guide11078" />
    <sodipodi:guide
       orientation="1,0"
       position="94,77.781746"
       id="guide11080" />
    <sodipodi:guide
       orientation="0,1"
       position="-65.912454,94"
       id="guide11082" />
  </sodipodi:namedview>
  <metadata
     id="metadata11042">
    <rdf:RDF>
      <cc:Work
         rdf:about="">
        <dc:format>image/svg+xml</dc:format>
        <dc:type
           rdf:resource="http://purl.org/dc/dcmitype/StillImage" />
        <dc:title />
      </cc:Work>
    </rdf:RDF>
  </metadata>
  <g
     inkscape:label="Layer 1"
     inkscape:groupmode="layer"
     id="layer1"
     transform="translate(0,-956.36218)">
    <rect
       width="96"
       height="96"
       rx="6.8571429"
       ry="6.8571429"
       x="0"
       y="-1052.3622"
       transform="scale(1,-1)"
       id="rect2419"
       style="fill:url(#linearGradient3096);fill-opacity:1;fill-rule:nonzero;stroke:none;display:inline"
       clip-path="url(#clipPath3018)" />
    <g
       transform="translate(0,956.36218)"
       style="display:inline"
       id="g3098">
      <path
         inkscape:connector-curvature="0"
         id="path4199"
         d="m 46.171875,17.359375 c -3.51755,0 -6.42863,2.521909 -7.09375,5.84375 -9.37623,2.640325 -17.06266,8.462434 -21.59375,15.8125 -0.05183,-0.0011 -0.10415,0 -0.15625,0 -4.00798,0 -7.25,3.24202 -7.25,7.25 0,2.448587 1.20497,4.591954 3.0625,5.90625 -0.15319,2.092934 -0.06469,4.229896 0.28125,6.375 1.06895,6.628376 4.4404,12.351557 9.3125,16.6875 -0.21204,0.681723 -0.34375,1.404754 -0.34375,2.15625 0,4.00798 3.24202,7.25 7.25,7.25 2.15762,0 4.10822,-0.94281 5.4375,-2.4375 5.67532,1.840778 12.03124,2.418207 18.5,1.375 3.38854,-0.546465 6.57506,-1.522902 9.5625,-2.8125 1.10128,0.673692 2.39571,1.0625 3.78125,1.0625 4.00798,0 7.25,-3.24202 7.25,-7.25 0,-0.326859 -0.02063,-0.653336 -0.0625,-0.96875 7.35732,-6.926892 11.31532,-16.50617 9.71875,-26.40625 -0.0591,-0.366455 -0.14562,-0.73293 -0.21875,-1.09375 1.39841,-1.322847 2.3125,-3.1731 2.3125,-5.25 0,-4.00798 -3.27327,-7.25 -7.28125,-7.25 -0.36483,0 -0.71212,0.01054 -1.0625,0.0625 -5.76537,-6.85537 -14.7676,-11.234511 -24.75,-11.90625 -1.1109,-2.583797 -3.66537,-4.40625 -6.65625,-4.40625 z m 6.625,10.21875 c 8.01225,0.636816 15.07509,4.132752 19.6875,9.4375 -0.69331,1.112357 -1.09375,2.436493 -1.09375,3.84375 0,3.705012 2.7892,6.746576 6.375,7.1875 0.007,0.04198 0.02447,0.08293 0.03125,0.125 1.19802,7.428709 -1.54872,14.766739 -6.90625,20.34375 -1.13957,-0.744539 -2.50594,-1.1875 -3.96875,-1.1875 -4.00798,0 -7.25,3.24202 -7.25,7.25 0,0.446301 0.04786,0.888456 0.125,1.3125 -2.24107,0.882651 -4.63466,1.530847 -7.15625,1.9375 -5.60064,0.903207 -10.99973,0.408024 -15.78125,-1.1875 -0.37164,-3.659431 -3.46127,-6.5 -7.21875,-6.5 -1.05209,0 -2.03503,0.222275 -2.9375,0.625 -3.8188,-3.49476 -6.41701,-8.022273 -7.25,-13.1875 -0.23335,-1.446979 -0.30483,-2.884331 -0.25,-4.3125 3.09811,-0.827253 5.375,-3.641151 5.375,-7 0,-1.769636 -0.63504,-3.39684 -1.6875,-4.65625 3.66414,-5.822464 9.80287,-10.484417 17.4375,-12.71875 1.32011,1.805484 3.43581,3 5.84375,3 2.95495,0 5.493,-1.778281 6.625,-4.3125 z"
         style="font-size:medium;font-style:normal;font-variant:normal;font-weight:normal;font-stretch:normal;text-indent:0;text-align:start;text-decoration:none;line-height:normal;letter-spacing:normal;word-spacing:normal;text-transform:none;direction:ltr;block-progression:tb;writing-mode:lr-tb;text-anchor:start;baseline-shift:baseline;opacity:0.2;color:#000000;fill:#000000;fill-opacity:1;stroke:none;stroke-width:2.06644297;marker:none;visibility:visible;display:inline;overflow:visible;enable-background:accumulate;font-family:Sans;-inkscape-font-specification:Sans" />
      <path
         style="font-size:medium;font-style:normal;font-variant:normal;font-weight:normal;font-stretch:normal;text-indent:0;text-align:start;text-decoration:none;line-height:normal;letter-spacing:normal;word-spacing:normal;text-transform:none;direction:ltr;block-progression:tb;writing-mode:lr-tb;text-anchor:start;baseline-shift:baseline;opacity:0.2;color:#000000;fill:#000000;fill-opacity:1;stroke:none;stroke-width:2.06644297;marker:none;visibility:visible;display:inline;overflow:visible;enable-background:accumulate;font-family:Sans;-inkscape-font-specification:Sans"
         d="m 46.171875,16.359375 c -3.51755,0 -6.42863,2.521909 -7.09375,5.84375 -9.37623,2.640325 -17.06266,8.462434 -21.59375,15.8125 -0.05183,-0.0011 -0.10415,0 -0.15625,0 -4.00798,0 -7.25,3.24202 -7.25,7.25 0,2.448587 1.20497,4.591954 3.0625,5.90625 -0.15319,2.092934 -0.06469,4.229896 0.28125,6.375 1.06895,6.628376 4.4404,12.351557 9.3125,16.6875 -0.21204,0.681723 -0.34375,1.404754 -0.34375,2.15625 0,4.00798 3.24202,7.25 7.25,7.25 2.15762,0 4.10822,-0.94281 5.4375,-2.4375 5.67532,1.840778 12.03124,2.418207 18.5,1.375 3.38854,-0.546465 6.57506,-1.522902 9.5625,-2.8125 1.10128,0.673692 2.39571,1.0625 3.78125,1.0625 4.00798,0 7.25,-3.24202 7.25,-7.25 0,-0.326859 -0.02063,-0.653336 -0.0625,-0.96875 7.35732,-6.926892 11.31532,-16.50617 9.71875,-26.40625 -0.0591,-0.366455 -0.14562,-0.73293 -0.21875,-1.09375 1.39841,-1.322847 2.3125,-3.1731 2.3125,-5.25 0,-4.00798 -3.27327,-7.25 -7.28125,-7.25 -0.36483,0 -0.71212,0.01054 -1.0625,0.0625 -5.76537,-6.85537 -14.7676,-11.234511 -24.75,-11.90625 -1.1109,-2.583797 -3.66537,-4.40625 -6.65625,-4.40625 z m 6.625,10.21875 c 8.01225,0.636816 15.07509,4.132752 19.6875,9.4375 -0.69331,1.112357 -1.09375,2.436493 -1.09375,3.84375 0,3.705012 2.7892,6.746576 6.375,7.1875 0.007,0.04198 0.02447,0.08293 0.03125,0.125 1.19802,7.428709 -1.54872,14.766739 -6.90625,20.34375 -1.13957,-0.744539 -2.50594,-1.1875 -3.96875,-1.1875 -4.00798,0 -7.25,3.24202 -7.25,7.25 0,0.446301 0.04786,0.888456 0.125,1.3125 -2.24107,0.882651 -4.63466,1.530847 -7.15625,1.9375 -5.60064,0.903207 -10.99973,0.408024 -15.78125,-1.1875 -0.37164,-3.659431 -3.46127,-6.5 -7.21875,-6.5 -1.05209,0 -2.03503,0.222275 -2.9375,0.625 -3.8188,-3.49476 -6.41701,-8.022273 -7.25,-13.1875 -0.23335,-1.446979 -0.30483,-2.884331 -0.25,-4.3125 3.09811,-0.827253 5.375,-3.641151 5.375,-7 0,-1.769636 -0.63504,-3.39684 -1.6875,-4.65625 3.66414,-5.822464 9.80287,-10.484417 17.4375,-12.71875 1.32011,1.805484 3.43581,3 5.84375,3 2.95495,0 5.493,-1.778281 6.625,-4.3125 z"
         id="path4197"
         inkscape:connector-curvature="0" />
      <path
         inkscape:connector-curvature="0"
         id="path4141"
         d="m 46.171875,15.359375 c -3.51755,0 -6.42863,2.521909 -7.09375,5.84375 -9.37623,2.640325 -17.06266,8.462434 -21.59375,15.8125 -0.05183,-0.0011 -0.10415,0 -0.15625,0 -4.00798,0 -7.25,3.24202 -7.25,7.25 0,2.448587 1.20497,4.591954 3.0625,5.90625 -0.15319,2.092934 -0.06469,4.229896 0.28125,6.375 1.06895,6.628376 4.4404,12.351557 9.3125,16.6875 -0.21204,0.681723 -0.34375,1.404754 -0.34375,2.15625 0,4.00798 3.24202,7.25 7.25,7.25 2.15762,0 4.10822,-0.94281 5.4375,-2.4375 5.67532,1.840778 12.03124,2.418207 18.5,1.375 3.38854,-0.546465 6.57506,-1.522902 9.5625,-2.8125 1.10128,0.673692 2.39571,1.0625 3.78125,1.0625 4.00798,0 7.25,-3.24202 7.25,-7.25 0,-0.326859 -0.02063,-0.653336 -0.0625,-0.96875 7.35732,-6.926892 11.31532,-16.50617 9.71875,-26.40625 -0.0591,-0.366455 -0.14562,-0.73293 -0.21875,-1.09375 1.39841,-1.322847 2.3125,-3.1731 2.3125,-5.25 0,-4.00798 -3.27327,-7.25 -7.28125,-7.25 -0.36483,0 -0.71212,0.01054 -1.0625,0.0625 -5.76537,-6.85537 -14.7676,-11.234511 -24.75,-11.90625 -1.1109,-2.583797 -3.66537,-4.40625 -6.65625,-4.40625 z m 6.625,10.21875 c 8.01225,0.636816 15.07509,4.132752 19.6875,9.4375 -0.69331,1.112357 -1.09375,2.436493 -1.09375,3.84375 0,3.705012 2.7892,6.746576 6.375,7.1875 0.007,0.04198 0.02447,0.08293 0.03125,0.125 1.19802,7.428709 -1.54872,14.766739 -6.90625,20.34375 -1.13957,-0.744539 -2.50594,-1.1875 -3.96875,-1.1875 -4.00798,0 -7.25,3.24202 -7.25,7.25 0,0.446301 0.04786,0.888456 0.125,1.3125 -2.24107,0.882651 -4.63466,1.530847 -7.15625,1.9375 -5.60064,0.903207 -10.99973,0.408024 -15.78125,-1.1875 -0.37164,-3.659431 -3.46127,-6.5 -7.21875,-6.5 -1.05209,0 -2.03503,0.222275 -2.9375,0.625 -3.8188,-3.49476 -6.41701,-8.022273 -7.25,-13.1875 -0.23335,-1.446979 -0.30483,-2.884331 -0.25,-4.3125 3.09811,-0.827253 5.375,-3.641151 5.375,-7 0,-1.769636 -0.63504,-3.39684 -1.6875,-4.65625 3.66414,-5.822464 9.80287,-10.484417 17.4375,-12.71875 1.32011,1.805484 3.43581,3 5.84375,3 2.95495,0 5.493,-1.778281 6.625,-4.3125 z"
         style="font-size:medium;font-style:normal;font-variant:normal;font-weight:normal;font-stretch:normal;text-indent:0;text-align:start;text-decoration:none;line-height:normal;letter-spacing:normal;word-spacing:normal;text-transform:none;direction:ltr;block-progression:tb;writing-mode:lr-tb;text-anchor:start;baseline-shift:baseline;opacity:0.2;color:#000000;fill:#000000;fill-opacity:1;stroke:none;stroke-width:2.06644297;marker:none;visibility:visible;display:inline;overflow:visible;enable-background:accumulate;font-family:Sans;-inkscape-font-specification:Sans" />
      <g
         transform="translate(-2.85e-6,-1.5601613e-6)"
         id="g4035">
        <path
           transform="matrix(2.9264063,-0.4719372,0.44868188,2.7822039,-62.749956,-26.865942)"
           d="m 44,33 c 0,5.522847 -4.924868,10 -11,10 -6.075132,0 -11,-4.477153 -11,-10 0,-5.522847 4.924868,-10 11,-10 6.075132,0 11,4.477153 11,10 z"
           sodipodi:ry="10"
           sodipodi:rx="11"
           sodipodi:cy="33"
           sodipodi:cx="33"
           id="path5052"
           style="fill:none;stroke:url(#linearGradient4181);stroke-width:2.06644297;stroke-linecap:butt;stroke-linejoin:miter;stroke-miterlimit:4;stroke-opacity:1;stroke-dasharray:none"
           sodipodi:type="arc" />
        <path
           sodipodi:type="arc"
           style="opacity:0.5;fill:none;stroke:#ffffff;stroke-width:0.6240049;stroke-linecap:butt;stroke-linejoin:miter;stroke-miterlimit:4;stroke-opacity:1;stroke-dasharray:none;filter:url(#filter3923)"
           id="path3889"
           sodipodi:cx="33"
           sodipodi:cy="33"
           sodipodi:rx="11"
           sodipodi:ry="10"
           d="m 44,33 c 0,5.522847 -4.924868,10 -11,10 -6.075132,0 -11,-4.477153 -11,-10 0,-5.522847 4.924868,-10 11,-10 6.075132,0 11,4.477153 11,10 z"
           transform="matrix(2.9264063,-0.4719372,0.44868188,2.7822039,-62.749956,-26.865942)" />
        <path
           transform="matrix(0,1.1164753,-1.1164753,0,51.392369,16.522724)"
           d="M 30,30.5 C 30,34.089851 27.089851,37 23.5,37 19.910149,37 17,34.089851 17,30.5 17,26.910149 19.910149,24 23.5,24 c 3.589851,0 6.5,2.910149 6.5,6.5 z"
           sodipodi:ry="6.5"
           sodipodi:rx="6.5"
           sodipodi:cy="30.5"
           sodipodi:cx="23.5"
           id="path2464"
           style="fill:url(#linearGradient4183);fill-opacity:1;stroke:none"
           sodipodi:type="arc" />
        <path
           transform="matrix(0,1.1164753,-1.1164753,0,63.714801,47.65198)"
           d="M 30,30.5 C 30,34.089851 27.089851,37 23.5,37 19.910149,37 17,34.089851 17,30.5 17,26.910149 19.910149,24 23.5,24 c 3.589851,0 6.5,2.910149 6.5,6.5 z"
           sodipodi:ry="6.5"
           sodipodi:rx="6.5"
           sodipodi:cy="30.5"
           sodipodi:cx="23.5"
           id="path2466"
           style="fill:url(#linearGradient4185);fill-opacity:1;stroke:none;display:inline"
           sodipodi:type="arc" />
        <path
           transform="matrix(0,1.1164753,-1.1164753,0,100.9879,44.844162)"
           d="M 30,30.5 C 30,34.089851 27.089851,37 23.5,37 19.910149,37 17,34.089851 17,30.5 17,26.910149 19.910149,24 23.5,24 c 3.589851,0 6.5,2.910149 6.5,6.5 z"
           sodipodi:ry="6.5"
           sodipodi:rx="6.5"
           sodipodi:cy="30.5"
           sodipodi:cx="23.5"
           id="path2468"
           style="fill:url(#linearGradient4187);fill-opacity:1;stroke:none;display:inline"
           sodipodi:type="arc" />
        <path
           transform="matrix(0,1.1164753,-1.1164753,0,80.248961,-5.1197199)"
           d="M 30,30.5 C 30,34.089851 27.089851,37 23.5,37 19.910149,37 17,34.089851 17,30.5 17,26.910149 19.910149,24 23.5,24 c 3.589851,0 6.5,2.910149 6.5,6.5 z"
           sodipodi:ry="6.5"
           sodipodi:rx="6.5"
           sodipodi:cy="30.5"
           sodipodi:cx="23.5"
           id="path2470"
           style="fill:url(#linearGradient4189);fill-opacity:1;stroke:none;display:inline"
           sodipodi:type="arc" />
        <path
           transform="matrix(0,1.1164753,-1.1164753,0,112.71263,11.112112)"
           d="M 30,30.5 C 30,34.089851 27.089851,37 23.5,37 19.910149,37 17,34.089851 17,30.5 17,26.910149 19.910149,24 23.5,24 c 3.589851,0 6.5,2.910149 6.5,6.5 z"
           sodipodi:ry="6.5"
           sodipodi:rx="6.5"
           sodipodi:cy="30.5"
           sodipodi:cx="23.5"
           id="path2472"
           style="fill:url(#linearGradient4191);fill-opacity:1;stroke:none;display:inline"
           sodipodi:type="arc" />
      </g>
    </g>
    <rect
       ry="25"
       rx="25"
       id="rect3003"
       style="opacity:0.15;fill:#ffffff;fill-opacity:1"
       height="92"
       width="92"
       y="958.36218"
       x="-96"
       clip-path="url(#clipPath3009)"
       transform="translate(98,0)" />
  </g>
</svg>
