<?xml version="1.0" encoding="UTF-8" standalone="no"?>
<!-- Created with Inkscape (http://www.inkscape.org/) -->

<svg
   xmlns:dc="http://purl.org/dc/elements/1.1/"
   xmlns:cc="http://creativecommons.org/ns#"
   xmlns:rdf="http://www.w3.org/1999/02/22-rdf-syntax-ns#"
   xmlns:svg="http://www.w3.org/2000/svg"
   xmlns="http://www.w3.org/2000/svg"
   xmlns:xlink="http://www.w3.org/1999/xlink"
   xmlns:sodipodi="http://sodipodi.sourceforge.net/DTD/sodipodi-0.dtd"
   xmlns:inkscape="http://www.inkscape.org/namespaces/inkscape"
   width="96"
   height="96"
   id="svg11037"
   version="1.1"
   inkscape:version="0.48.3.1 r9886"
   sodipodi:docname="hb-icon.svg">
  <defs
     id="defs11039">
    <linearGradient
       y2="1046.1001"
       x2="47.999954"
       y1="962.62189"
       x1="47.999954"
       gradientTransform="matrix(1.15,0,0,1.15,-7.1999462,-150.65291)"
       gradientUnits="userSpaceOnUse"
       id="linearGradient3886"
       xlink:href="#linearGradient3795"
       inkscape:collect="always" />
    <linearGradient
       id="linearGradient3795">
      <stop
         style="stop-color:#13a6fd;stop-opacity:1;"
         offset="0"
         id="stop3797" />
      <stop
         style="stop-color:#2975b6;stop-opacity:1;"
         offset="1"
         id="stop3799" />
    </linearGradient>
    <linearGradient
       y2="1046.1001"
       x2="47.999954"
       y1="962.62189"
       x1="47.999954"
       gradientTransform="matrix(1.15,0,0,1.15,-7.1999462,-150.65292)"
       gradientUnits="userSpaceOnUse"
       id="linearGradient11642"
       xlink:href="#linearGradient3795"
       inkscape:collect="always" />
    <clipPath
       clipPathUnits="userSpaceOnUse"
       id="clipPath3009">
      <path
         id="path3011"
         d="m -2,956.36218 -96,0 0,33.5624 96,25.68742 0,-59.24982 z"
         style="opacity:0.15;fill:#ffffff;fill-opacity:1;stroke:none"
         inkscape:connector-curvature="0" />
    </clipPath>
    <linearGradient
       x1="48"
       y1="90"
       x2="48"
       y2="5.9877172"
       id="linearGradient3617"
       xlink:href="#linearGradient3187"
       gradientUnits="userSpaceOnUse" />
    <linearGradient
       id="linearGradient3187">
      <stop
         id="stop3189"
         style="stop-color:#282828;stop-opacity:1"
         offset="0" />
      <stop
         id="stop3191"
         style="stop-color:#5a5a5a;stop-opacity:1"
         offset="1" />
    </linearGradient>
    <radialGradient
       cx="53.419292"
       cy="66.597893"
       r="47.724609"
       fx="53.419292"
       fy="66.597893"
       id="radialGradient3904"
       xlink:href="#linearGradient3386"
       gradientUnits="userSpaceOnUse"
       gradientTransform="matrix(1.0164118,0,0,1.2415079,-19.337623,-31.113008)" />
    <linearGradient
       id="linearGradient3386">
      <stop
         id="stop3388"
         style="stop-color:#eeeeec;stop-opacity:1"
         offset="0" />
      <stop
         id="stop3390"
         style="stop-color:#eeeeec;stop-opacity:0"
         offset="1" />
    </linearGradient>
    <radialGradient
       cx="53.419292"
       cy="66.597893"
       r="47.724609"
       fx="53.419292"
       fy="66.597893"
       id="radialGradient3929"
       xlink:href="#linearGradient3386"
       gradientUnits="userSpaceOnUse"
       gradientTransform="matrix(1.0220726,0,0,1.2415079,-19.896446,-47.863009)" />
    <linearGradient
       id="linearGradient3350">
      <stop
         id="stop3352"
         style="stop-color:#eeeeec;stop-opacity:1"
         offset="0" />
      <stop
         id="stop3354"
         style="stop-color:#eeeeec;stop-opacity:0"
         offset="1" />
    </linearGradient>
    <radialGradient
       cx="53.419292"
       cy="66.597893"
       r="47.724609"
       fx="53.419292"
       fy="66.597893"
       id="radialGradient3933"
       xlink:href="#linearGradient3386"
       gradientUnits="userSpaceOnUse"
       gradientTransform="matrix(1.4750367,0,0,0.847859,-55.736923,-9.8942437)" />
    <linearGradient
       id="linearGradient3357">
      <stop
         id="stop3359"
         style="stop-color:#eeeeec;stop-opacity:1"
         offset="0" />
      <stop
         id="stop3361"
         style="stop-color:#eeeeec;stop-opacity:0"
         offset="1" />
    </linearGradient>
    <radialGradient
       cx="53.419292"
       cy="66.597893"
       r="47.724609"
       fx="53.419292"
       fy="66.597893"
       id="radialGradient4114"
       xlink:href="#linearGradient3386"
       gradientUnits="userSpaceOnUse"
       gradientTransform="matrix(1.0199392,0,0,0.85846172,-19.873341,-11.926904)" />
    <linearGradient
       id="linearGradient3364">
      <stop
         id="stop3366"
         style="stop-color:#eeeeec;stop-opacity:1"
         offset="0" />
      <stop
         id="stop3368"
         style="stop-color:#eeeeec;stop-opacity:0"
         offset="1" />
    </linearGradient>
    <radialGradient
       cx="53.419292"
       cy="66.597893"
       r="47.724609"
       fx="53.419292"
       fy="66.597893"
       id="radialGradient3937"
       xlink:href="#linearGradient3386"
       gradientUnits="userSpaceOnUse"
       gradientTransform="matrix(1.4750367,0,0,0.847859,-77.736923,-9.8942437)" />
    <linearGradient
       id="linearGradient3371">
      <stop
         id="stop3373"
         style="stop-color:#eeeeec;stop-opacity:1"
         offset="0" />
      <stop
         id="stop3375"
         style="stop-color:#eeeeec;stop-opacity:0"
         offset="1" />
    </linearGradient>
    <linearGradient
       x1="43.476658"
       y1="26"
       x2="43.476658"
       y2="34.001266"
       id="linearGradient4262"
       xlink:href="#linearGradient3260"
       gradientUnits="userSpaceOnUse"
       gradientTransform="matrix(0.72413795,0,0,0.75,1.6551725,4.5)" />
    <linearGradient
       id="linearGradient3260"
       gradientUnits="userSpaceOnUse">
      <stop
         id="stop3262"
         style="stop-color:#000000;stop-opacity:1"
         offset="0" />
      <stop
         id="stop3266"
         style="stop-color:#000000;stop-opacity:0.3548387"
         offset="0.2" />
      <stop
         id="stop3268"
         style="stop-color:#000000;stop-opacity:0"
         offset="0.55254942" />
      <stop
         id="stop3264"
         style="stop-color:#000000;stop-opacity:0"
         offset="1" />
    </linearGradient>
    <linearGradient
       x1="50.464287"
       y1="16.035713"
       x2="50.464287"
       y2="20.329885"
       id="linearGradient4320"
       xlink:href="#linearGradient4314"
       gradientUnits="userSpaceOnUse"
       gradientTransform="translate(0,-0.67856979)" />
    <linearGradient
       id="linearGradient4314">
      <stop
         id="stop4316"
         style="stop-color:#ffffff;stop-opacity:1"
         offset="0" />
      <stop
         id="stop4322"
         style="stop-color:#ffffff;stop-opacity:0.49803922"
         offset="0.30000001" />
      <stop
         id="stop4318"
         style="stop-color:#ffffff;stop-opacity:0"
         offset="1" />
    </linearGradient>
    <linearGradient
       x1="48"
       y1="16"
       x2="48"
       y2="11.924657"
       id="linearGradient4310"
       xlink:href="#linearGradient3260"
       gradientUnits="userSpaceOnUse"
       gradientTransform="matrix(1,0,0,1.25,0,-4.5982122)" />
    <linearGradient
       id="linearGradient3389"
       gradientUnits="userSpaceOnUse">
      <stop
         id="stop3391"
         style="stop-color:#000000;stop-opacity:1"
         offset="0" />
      <stop
         id="stop3393"
         style="stop-color:#000000;stop-opacity:0.3548387"
         offset="0.2" />
      <stop
         id="stop3395"
         style="stop-color:#000000;stop-opacity:0"
         offset="0.55254942" />
      <stop
         id="stop3397"
         style="stop-color:#000000;stop-opacity:0"
         offset="1" />
    </linearGradient>
    <linearGradient
       x1="48"
       y1="16"
       x2="48"
       y2="11.924657"
       id="linearGradient4326"
       xlink:href="#linearGradient3260"
       gradientUnits="userSpaceOnUse"
       gradientTransform="matrix(1,0,0,1.25,0,4.4017878)" />
    <linearGradient
       id="linearGradient3400"
       gradientUnits="userSpaceOnUse">
      <stop
         id="stop3402"
         style="stop-color:#000000;stop-opacity:1"
         offset="0" />
      <stop
         id="stop3404"
         style="stop-color:#000000;stop-opacity:0.3548387"
         offset="0.2" />
      <stop
         id="stop3406"
         style="stop-color:#000000;stop-opacity:0"
         offset="0.55254942" />
      <stop
         id="stop3408"
         style="stop-color:#000000;stop-opacity:0"
         offset="1" />
    </linearGradient>
    <linearGradient
       x1="11"
       y1="10.441942"
       x2="16"
       y2="24"
       id="linearGradient4371"
       xlink:href="#linearGradient3273"
       gradientUnits="userSpaceOnUse"
       gradientTransform="matrix(0.81330712,0,0,0.81132563,3.9935431,2.0281849)" />
    <linearGradient
       id="linearGradient3273">
      <stop
         id="stop3275"
         style="stop-color:#5d5d5d;stop-opacity:1"
         offset="0" />
      <stop
         id="stop3277"
         style="stop-color:#171717;stop-opacity:1"
         offset="1" />
    </linearGradient>
    <linearGradient
       x1="13.125"
       y1="9.9419422"
       x2="19.25"
       y2="24.5"
       id="linearGradient4373"
       xlink:href="#linearGradient3289"
       gradientUnits="userSpaceOnUse"
       gradientTransform="matrix(0.81330712,0,0,0.81132563,3.9935431,2.0281849)" />
    <linearGradient
       id="linearGradient3289">
      <stop
         id="stop3291"
         style="stop-color:#919191;stop-opacity:1"
         offset="0" />
      <stop
         id="stop3293"
         style="stop-color:#232323;stop-opacity:1"
         offset="1" />
    </linearGradient>
    <radialGradient
       cx="11.3125"
       cy="14.9375"
       r="1.4375"
       fx="11.3125"
       fy="14.9375"
       id="radialGradient4379"
       xlink:href="#linearGradient3299"
       gradientUnits="userSpaceOnUse" />
    <linearGradient
       id="linearGradient3299">
      <stop
         id="stop3301"
         style="stop-color:#dfdfdf;stop-opacity:1"
         offset="0" />
      <stop
         id="stop3303"
         style="stop-color:#434343;stop-opacity:1"
         offset="1" />
    </linearGradient>
    <radialGradient
       cx="11.3125"
       cy="14.9375"
       r="1.4375"
       fx="11.3125"
       fy="14.9375"
       id="radialGradient4377"
       xlink:href="#linearGradient3299"
       gradientUnits="userSpaceOnUse" />
    <linearGradient
       id="linearGradient3423">
      <stop
         id="stop3425"
         style="stop-color:#dfdfdf;stop-opacity:1"
         offset="0" />
      <stop
         id="stop3427"
         style="stop-color:#434343;stop-opacity:1"
         offset="1" />
    </linearGradient>
    <radialGradient
       cx="11.3125"
       cy="14.9375"
       r="1.4375"
       fx="11.3125"
       fy="14.9375"
       id="radialGradient4375"
       xlink:href="#linearGradient3299"
       gradientUnits="userSpaceOnUse" />
    <linearGradient
       id="linearGradient3430">
      <stop
         id="stop3432"
         style="stop-color:#dfdfdf;stop-opacity:1"
         offset="0" />
      <stop
         id="stop3434"
         style="stop-color:#434343;stop-opacity:1"
         offset="1" />
    </linearGradient>
    <linearGradient
       inkscape:collect="always"
       xlink:href="#linearGradient4325"
       id="linearGradient3457"
       gradientUnits="userSpaceOnUse"
       gradientTransform="matrix(1.294304,-0.21779196,0.21779196,1.294304,-34.157089,-10.884221)"
       x1="66"
       y1="84"
       x2="66"
       y2="55" />
    <linearGradient
       id="linearGradient4325">
      <stop
         id="stop4327"
         style="stop-color:#d88215;stop-opacity:1"
         offset="0" />
      <stop
         id="stop4329"
         style="stop-color:#efc259;stop-opacity:1"
         offset="1" />
    </linearGradient>
    <linearGradient
       inkscape:collect="always"
       xlink:href="#linearGradient3485"
       id="linearGradient3742"
       gradientUnits="userSpaceOnUse"
       x1="136.41356"
       y1="115.49392"
       x2="149.52968"
       y2="115.49392" />
    <linearGradient
       id="linearGradient3485">
      <stop
         id="stop3487"
         style="stop-color:#e6605b;stop-opacity:1"
         offset="0" />
      <stop
         id="stop3489"
         style="stop-color:#f08682;stop-opacity:1"
         offset="1" />
    </linearGradient>
    <filter
       x="-0.42857143"
       y="-0.16666667"
       width="1.8571428"
       height="1.3333333"
       color-interpolation-filters="sRGB"
       id="filter3495">
      <feGaussianBlur
         stdDeviation="0.55242721"
         id="feGaussianBlur3497" />
    </filter>
    <filter
       x="-0.18344349"
       y="-0.17668343"
       width="1.366887"
       height="1.3533669"
       color-interpolation-filters="sRGB"
       id="filter3509">
      <feGaussianBlur
         stdDeviation="0.65925"
         id="feGaussianBlur3511" />
    </filter>
    <linearGradient
       inkscape:collect="always"
       xlink:href="#linearGradient3339"
       id="linearGradient3744"
       gradientUnits="userSpaceOnUse"
       gradientTransform="matrix(1.0893815,0,0,1,-13.275943,0)"
       x1="137.40625"
       y1="116.46875"
       x2="148.53125"
       y2="116.46875" />
    <linearGradient
       id="linearGradient3339">
      <stop
         id="stop3341"
         style="stop-color:#000000;stop-opacity:1"
         offset="0" />
      <stop
         id="stop3347"
         style="stop-color:#000000;stop-opacity:0.49803922"
         offset="0.69999999" />
      <stop
         id="stop3343"
         style="stop-color:#000000;stop-opacity:0"
         offset="1" />
    </linearGradient>
    <linearGradient
       inkscape:collect="always"
       xlink:href="#linearGradient3278"
       id="linearGradient3746"
       gradientUnits="userSpaceOnUse"
       gradientTransform="translate(-23.73343,0)"
       x1="136"
       y1="60"
       x2="150"
       y2="60" />
    <linearGradient
       id="linearGradient3278">
      <stop
         id="stop3280"
         style="stop-color:#000000;stop-opacity:1"
         offset="0" />
      <stop
         id="stop3290"
         style="stop-color:#282828;stop-opacity:1"
         offset="0.25" />
      <stop
         id="stop3286"
         style="stop-color:#3c3c3c;stop-opacity:1"
         offset="0.30000001" />
      <stop
         id="stop3288"
         style="stop-color:#646464;stop-opacity:1"
         offset="0.69999999" />
      <stop
         id="stop3292"
         style="stop-color:#787878;stop-opacity:1"
         offset="0.75" />
      <stop
         id="stop3282"
         style="stop-color:#a0a0a0;stop-opacity:1"
         offset="1" />
    </linearGradient>
    <linearGradient
       inkscape:collect="always"
       xlink:href="#linearGradient3254"
       id="linearGradient3748"
       gradientUnits="userSpaceOnUse"
       gradientTransform="translate(-23.73343,0)"
       x1="143"
       y1="2.4000001e-06"
       x2="143"
       y2="120.01752" />
    <linearGradient
       id="linearGradient3254">
      <stop
         id="stop3256"
         style="stop-color:#000000;stop-opacity:1"
         offset="0" />
      <stop
         id="stop3266-4"
         style="stop-color:#000000;stop-opacity:1"
         offset="0.06588447" />
      <stop
         id="stop3264-7"
         style="stop-color:#ad5f1b;stop-opacity:1"
         offset="0.07" />
      <stop
         id="stop3268-8"
         style="stop-color:#ad601a;stop-opacity:1"
         offset="0.1913653" />
      <stop
         id="stop3262-4"
         style="stop-color:#000000;stop-opacity:1"
         offset="0.20983393" />
      <stop
         id="stop3258"
         style="stop-color:#000000;stop-opacity:1"
         offset="1" />
    </linearGradient>
    <linearGradient
       inkscape:collect="always"
       xlink:href="#linearGradient3394"
       id="linearGradient3750"
       gradientUnits="userSpaceOnUse"
       gradientTransform="translate(-23.73343,0)"
       x1="141.25002"
       y1="4.9218717"
       x2="144.81252"
       y2="4.9218717" />
    <linearGradient
       id="linearGradient3394">
      <stop
         id="stop3396"
         style="stop-color:#000000;stop-opacity:1"
         offset="0" />
      <stop
         id="stop3472"
         style="stop-color:#7d7d7d;stop-opacity:1"
         offset="0.5" />
      <stop
         id="stop3398"
         style="stop-color:#000000;stop-opacity:1"
         offset="1" />
    </linearGradient>
    <linearGradient
       inkscape:collect="always"
       xlink:href="#linearGradient3308"
       id="linearGradient3752"
       gradientUnits="userSpaceOnUse"
       gradientTransform="translate(-23.73343,0)"
       x1="136.98804"
       y1="17.043356"
       x2="148.99513"
       y2="17.043356" />
    <linearGradient
       id="linearGradient3308">
      <stop
         id="stop3310"
         style="stop-color:#da8539;stop-opacity:1"
         offset="0" />
      <stop
         id="stop3312"
         style="stop-color:#fadfc7;stop-opacity:1"
         offset="1" />
    </linearGradient>
    <linearGradient
       inkscape:collect="always"
       xlink:href="#linearGradient5452"
       id="linearGradient3754"
       gradientUnits="userSpaceOnUse"
       gradientTransform="matrix(1,0,0,1.2653524,-23.73343,-54.364173)"
       x1="146.10596"
       y1="118.94019"
       x2="146.07562"
       y2="66" />
    <linearGradient
       id="linearGradient5452">
      <stop
         id="stop5454"
         style="stop-color:#ffffff;stop-opacity:1"
         offset="0" />
      <stop
         id="stop5456"
         style="stop-color:#ffffff;stop-opacity:0"
         offset="1" />
    </linearGradient>
    <linearGradient
       inkscape:collect="always"
       xlink:href="#linearGradient5452"
       id="linearGradient3756"
       gradientUnits="userSpaceOnUse"
       gradientTransform="matrix(1,0,0,1.2653524,-29.85843,-54.364173)"
       x1="146.10596"
       y1="118.94019"
       x2="146.07562"
       y2="66" />
    <linearGradient
       id="linearGradient3484">
      <stop
         id="stop3486"
         style="stop-color:#ffffff;stop-opacity:1"
         offset="0" />
      <stop
         id="stop3488"
         style="stop-color:#ffffff;stop-opacity:0"
         offset="1" />
    </linearGradient>
    <filter
       x="-0.43161276"
       y="-0.11371106"
       width="1.8632255"
       height="1.2274221"
       color-interpolation-filters="sRGB"
       id="filter3382">
      <feGaussianBlur
         stdDeviation="0.73914765"
         id="feGaussianBlur3384" />
    </filter>
    <filter
       x="-0.60979599"
       y="-0.1494"
       width="2.2195919"
       height="1.2988"
       color-interpolation-filters="sRGB"
       id="filter3390">
      <feGaussianBlur
         stdDeviation="0.77812506"
         id="feGaussianBlur3392" />
    </filter>
    <linearGradient
       inkscape:collect="always"
       xlink:href="#linearGradient3401"
       id="linearGradient3758"
       gradientUnits="userSpaceOnUse"
       x1="136"
       y1="106"
       x2="150"
       y2="106" />
    <linearGradient
       id="linearGradient3401">
      <stop
         id="stop3403"
         style="stop-color:#404040;stop-opacity:1"
         offset="0" />
      <stop
         id="stop3447"
         style="stop-color:#808080;stop-opacity:1"
         offset="0.2" />
      <stop
         id="stop3410"
         style="stop-color:#efefef;stop-opacity:1"
         offset="0.69999999" />
      <stop
         id="stop3405"
         style="stop-color:#dcdcdc;stop-opacity:1"
         offset="1" />
    </linearGradient>
    <linearGradient
       inkscape:collect="always"
       xlink:href="#linearGradient3461"
       id="linearGradient3760"
       gradientUnits="userSpaceOnUse"
       x1="136"
       y1="106"
       x2="150"
       y2="106" />
    <linearGradient
       id="linearGradient3461">
      <stop
         id="stop3463"
         style="stop-color:#444542;stop-opacity:1"
         offset="0" />
      <stop
         id="stop3465"
         style="stop-color:#71746e;stop-opacity:1"
         offset="1" />
    </linearGradient>
    <linearGradient
       inkscape:collect="always"
       xlink:href="#linearGradient3339"
       id="linearGradient3762"
       gradientUnits="userSpaceOnUse"
       gradientTransform="translate(0.04225159,1.5494389)"
       spreadMethod="reflect"
       x1="142.95775"
       y1="98.950562"
       x2="148.95775"
       y2="98.950562" />
    <linearGradient
       id="linearGradient3505">
      <stop
         id="stop3507"
         style="stop-color:#000000;stop-opacity:1"
         offset="0" />
      <stop
         id="stop3509"
         style="stop-color:#000000;stop-opacity:0.49803922"
         offset="0.69999999" />
      <stop
         id="stop3511"
         style="stop-color:#000000;stop-opacity:0"
         offset="1" />
    </linearGradient>
    <linearGradient
       inkscape:collect="always"
       xlink:href="#linearGradient3355"
       id="linearGradient3764"
       gradientUnits="userSpaceOnUse"
       gradientTransform="translate(0.04225159,2.5494389)"
       spreadMethod="reflect"
       x1="142.95775"
       y1="98.950562"
       x2="148.95775"
       y2="98.950562" />
    <linearGradient
       id="linearGradient3355">
      <stop
         id="stop3357"
         style="stop-color:#ffffff;stop-opacity:1"
         offset="0" />
      <stop
         id="stop3516"
         style="stop-color:#ffffff;stop-opacity:0.49803922"
         offset="0.69999999" />
      <stop
         id="stop3518"
         style="stop-color:#ffffff;stop-opacity:0"
         offset="1" />
    </linearGradient>
    <linearGradient
       inkscape:collect="always"
       xlink:href="#linearGradient3339"
       id="linearGradient3766"
       gradientUnits="userSpaceOnUse"
       gradientTransform="translate(0.04225159,3.5494389)"
       spreadMethod="reflect"
       x1="142.95775"
       y1="98.950562"
       x2="148.95775"
       y2="98.950562" />
    <linearGradient
       id="linearGradient3521">
      <stop
         id="stop3523"
         style="stop-color:#000000;stop-opacity:1"
         offset="0" />
      <stop
         id="stop3525"
         style="stop-color:#000000;stop-opacity:0.49803922"
         offset="0.69999999" />
      <stop
         id="stop3527"
         style="stop-color:#000000;stop-opacity:0"
         offset="1" />
    </linearGradient>
    <linearGradient
       inkscape:collect="always"
       xlink:href="#linearGradient3355"
       id="linearGradient3768"
       gradientUnits="userSpaceOnUse"
       gradientTransform="translate(0.04225159,4.5494389)"
       spreadMethod="reflect"
       x1="142.95775"
       y1="98.950562"
       x2="148.95775"
       y2="98.950562" />
    <linearGradient
       id="linearGradient3530">
      <stop
         id="stop3532"
         style="stop-color:#ffffff;stop-opacity:1"
         offset="0" />
      <stop
         id="stop3534"
         style="stop-color:#ffffff;stop-opacity:0.49803922"
         offset="0.69999999" />
      <stop
         id="stop3536"
         style="stop-color:#ffffff;stop-opacity:0"
         offset="1" />
    </linearGradient>
    <linearGradient
       inkscape:collect="always"
       xlink:href="#linearGradient3339"
       id="linearGradient3770"
       gradientUnits="userSpaceOnUse"
       gradientTransform="translate(0.04225159,9.5494389)"
       spreadMethod="reflect"
       x1="142.95775"
       y1="98.950562"
       x2="148.95775"
       y2="98.950562" />
    <linearGradient
       id="linearGradient3539">
      <stop
         id="stop3541"
         style="stop-color:#000000;stop-opacity:1"
         offset="0" />
      <stop
         id="stop3543"
         style="stop-color:#000000;stop-opacity:0.49803922"
         offset="0.69999999" />
      <stop
         id="stop3545"
         style="stop-color:#000000;stop-opacity:0"
         offset="1" />
    </linearGradient>
    <linearGradient
       inkscape:collect="always"
       xlink:href="#linearGradient3355"
       id="linearGradient3773"
       gradientUnits="userSpaceOnUse"
       gradientTransform="translate(0.04225159,10.549439)"
       spreadMethod="reflect"
       x1="142.95775"
       y1="98.950562"
       x2="148.95775"
       y2="98.950562" />
    <linearGradient
       id="linearGradient3548">
      <stop
         id="stop3550"
         style="stop-color:#ffffff;stop-opacity:1"
         offset="0" />
      <stop
         id="stop3552"
         style="stop-color:#ffffff;stop-opacity:0.49803922"
         offset="0.69999999" />
      <stop
         id="stop3554"
         style="stop-color:#ffffff;stop-opacity:0"
         offset="1" />
    </linearGradient>
    <linearGradient
       inkscape:collect="always"
       xlink:href="#linearGradient3339"
       id="linearGradient3775"
       gradientUnits="userSpaceOnUse"
       gradientTransform="translate(0.04225159,11.549439)"
       spreadMethod="reflect"
       x1="142.95775"
       y1="98.950562"
       x2="148.95775"
       y2="98.950562" />
    <linearGradient
       id="linearGradient3557">
      <stop
         id="stop3559"
         style="stop-color:#000000;stop-opacity:1"
         offset="0" />
      <stop
         id="stop3561"
         style="stop-color:#000000;stop-opacity:0.49803922"
         offset="0.69999999" />
      <stop
         id="stop3563"
         style="stop-color:#000000;stop-opacity:0"
         offset="1" />
    </linearGradient>
    <linearGradient
       inkscape:collect="always"
       xlink:href="#linearGradient3355"
       id="linearGradient3777"
       gradientUnits="userSpaceOnUse"
       gradientTransform="translate(0.04225159,12.549439)"
       spreadMethod="reflect"
       x1="142.95775"
       y1="98.950562"
       x2="148.95775"
       y2="98.950562" />
    <linearGradient
       id="linearGradient3566">
      <stop
         id="stop3568"
         style="stop-color:#ffffff;stop-opacity:1"
         offset="0" />
      <stop
         id="stop3570"
         style="stop-color:#ffffff;stop-opacity:0.49803922"
         offset="0.69999999" />
      <stop
         id="stop3572"
         style="stop-color:#ffffff;stop-opacity:0"
         offset="1" />
    </linearGradient>
    <linearGradient
       inkscape:collect="always"
       xlink:href="#linearGradient3439"
       id="linearGradient3779"
       gradientUnits="userSpaceOnUse"
       spreadMethod="repeat"
       x1="137"
       y1="106"
       x2="139.03125"
       y2="106" />
    <linearGradient
       id="linearGradient3439">
      <stop
         id="stop3441"
         style="stop-color:#3d3d3d;stop-opacity:1"
         offset="0" />
      <stop
         id="stop3443"
         style="stop-color:#ffffff;stop-opacity:1"
         offset="1" />
    </linearGradient>
    <filter
       x="-1.0349605"
       y="-0.13573837"
       width="3.069921"
       height="1.2714767"
       color-interpolation-filters="sRGB"
       id="filter3451">
      <feGaussianBlur
         stdDeviation="0.9498173"
         id="feGaussianBlur3453" />
    </filter>
    <filter
       x="-0.93333328"
       y="-0.13770492"
       width="2.8666666"
       height="1.2754098"
       color-interpolation-filters="sRGB"
       id="filter3457">
      <feGaussianBlur
         stdDeviation="0.92807767"
         id="feGaussianBlur3459" />
    </filter>
    <clipPath
       clipPathUnits="userSpaceOnUse"
       id="clipPath3468">
      <rect
         x="7.8097816"
         y="7.0811453"
         width="83.249969"
         height="83.249969"
         style="opacity:0.6;fill:#000000;fill-opacity:1"
         id="rect3470"
         rx="22.622274"
         ry="22.622274" />
    </clipPath>
  </defs>
  <sodipodi:namedview
     id="base"
     pagecolor="#ffffff"
     bordercolor="#666666"
     borderopacity="1.0"
     inkscape:pageopacity="0.0"
     inkscape:pageshadow="2"
     inkscape:zoom="3.959798"
     inkscape:cx="29.118614"
     inkscape:cy="49.863109"
     inkscape:document-units="px"
     inkscape:current-layer="layer1"
     showgrid="false"
     inkscape:window-width="1366"
     inkscape:window-height="684"
     inkscape:window-x="0"
     inkscape:window-y="26"
     inkscape:window-maximized="1"
     showguides="true"
     inkscape:guide-bbox="true">
    <sodipodi:guide
       orientation="0,1"
       position="-24.748737,0"
       id="guide11064" />
    <sodipodi:guide
       orientation="0,1"
       position="-23.233509,96"
       id="guide11066" />
    <sodipodi:guide
       orientation="1,0"
       position="0,54.800776"
       id="guide11068" />
    <sodipodi:guide
       orientation="1,0"
       position="96,51.012704"
       id="guide11070" />
    <sodipodi:guide
       orientation="0,1"
       position="-18.94036,48"
       id="guide11072" />
    <sodipodi:guide
       orientation="1,0"
       position="48,79.296975"
       id="guide11074" />
    <sodipodi:guide
       orientation="1,0"
       position="2,75.508903"
       id="guide11076" />
    <sodipodi:guide
       orientation="0,1"
       position="-77.27667,2"
       id="guide11078" />
    <sodipodi:guide
       orientation="1,0"
       position="94,77.781746"
       id="guide11080" />
    <sodipodi:guide
       orientation="0,1"
       position="-65.912454,94"
       id="guide11082" />
  </sodipodi:namedview>
  <metadata
     id="metadata11042">
    <rdf:RDF>
      <cc:Work
         rdf:about="">
        <dc:format>image/svg+xml</dc:format>
        <dc:type
           rdf:resource="http://purl.org/dc/dcmitype/StillImage" />
        <dc:title />
      </cc:Work>
    </rdf:RDF>
  </metadata>
  <g
     inkscape:label="Layer 1"
     inkscape:groupmode="layer"
     id="layer1"
     transform="translate(0,-956.36218)">
    <g
       transform="matrix(1.1051055,0,0,1.1051055,-6.6306327,950.53677)"
       id="g3278"
       clip-path="url(#clipPath3468)">
      <rect
         style="fill:url(#linearGradient3617);fill-opacity:1;fill-rule:nonzero;stroke:none"
         id="rect2419"
         y="6"
         x="6"
         ry="6"
         rx="6"
         height="84"
         width="84" />
      <path
         style="font-size:6px;font-style:normal;font-variant:normal;font-weight:bold;font-stretch:normal;text-align:start;line-height:125%;writing-mode:lr-tb;text-anchor:start;opacity:0.8;fill:url(#radialGradient3904);fill-opacity:1;stroke:none;display:inline;font-family:DejaVu Sans;-inkscape-font-specification:DejaVu Sans Bold"
         id="path3842"
         inkscape:connector-curvature="0"
         d="m 40,39 41,0 0,1 -41,0 0,-1 z" />
      <path
         style="font-size:6px;font-style:normal;font-variant:normal;font-weight:bold;font-stretch:normal;text-align:start;line-height:125%;writing-mode:lr-tb;text-anchor:start;opacity:0.8;fill:url(#radialGradient3929);fill-opacity:1;stroke:none;display:inline;font-family:DejaVu Sans;-inkscape-font-specification:DejaVu Sans Bold"
         id="path3840"
         inkscape:connector-curvature="0"
         d="m 15,69 66,0 0,1 -66,0 0,-1 z" />
      <path
         style="font-size:6px;font-style:normal;font-variant:normal;font-weight:bold;font-stretch:normal;text-align:start;line-height:125%;writing-mode:lr-tb;text-anchor:start;opacity:0.8;fill:url(#radialGradient3933);fill-opacity:1;stroke:none;display:inline;font-family:DejaVu Sans;-inkscape-font-specification:DejaVu Sans Bold"
         id="text3348"
         inkscape:connector-curvature="0"
         d="m 59,70 0,14 -1,0 0,-14 1,0 z" />
      <path
         style="font-size:6px;font-style:normal;font-variant:normal;font-weight:bold;font-stretch:normal;text-align:start;line-height:125%;writing-mode:lr-tb;text-anchor:start;opacity:0.8;fill:url(#radialGradient4114);fill-opacity:1;stroke:none;display:inline;font-family:DejaVu Sans;-inkscape-font-specification:DejaVu Sans Bold"
         id="path3870"
         inkscape:connector-curvature="0"
         d="m 41.78125,62.875 c -0.364641,3e-6 -0.649276,0.05669 -0.84375,0.21875 -0.194473,0.162065 -0.28125,0.417586 -0.28125,0.71875 0,0.240395 0.07964,0.420696 0.21875,0.5625 0.140454,0.141805 0.353733,0.24767 0.65625,0.3125 l 0.3125,0.0625 c 0.183669,0.04051 0.28298,0.07368 0.34375,0.125 0.06212,0.05132 0.09375,0.12421 0.09375,0.21875 -2e-6,0.105341 -0.03452,0.19328 -0.125,0.25 -0.09049,0.05671 -0.204835,0.09375 -0.375,0.09375 -0.167466,0 -0.350281,-0.04243 -0.53125,-0.09375 -0.17962,-0.05267 -0.369376,-0.11611 -0.5625,-0.21875 l 0,0.65625 c 0.193124,0.07157 0.369376,0.11979 0.5625,0.15625 0.193125,0.03647 0.401974,0.0625 0.59375,0.0625 0.406504,0 0.709071,-0.08794 0.90625,-0.25 0.19852,-0.163413 0.281247,-0.41642 0.28125,-0.75 -3e-6,-0.253896 -0.0457,-0.424745 -0.1875,-0.5625 C 42.701942,64.299749 42.461277,64.19253 42.125,64.125 L 41.78125,64.0625 C 41.623237,64.03009 41.52952,63.98207 41.46875,63.9375 41.40933,63.891583 41.375,63.83103 41.375,63.75 c 0,-0.10804 0.03586,-0.19868 0.125,-0.25 0.08913,-0.05131 0.219875,-0.0625 0.40625,-0.0625 0.140451,0 0.310736,-0.0066 0.46875,0.03125 0.158008,0.03782 0.302634,0.11322 0.46875,0.1875 l 0,-0.65625 C 42.656025,62.950032 42.488067,62.93057 42.3125,62.90625 42.136931,62.88059 41.947363,62.875003 41.78125,62.875 z m 3.0625,0 C 44.505191,62.92793 44.220809,63.069558 44,63.28125 c -0.294414,0.28091 -0.4375,0.672764 -0.4375,1.15625 0,0.482137 0.143086,0.873991 0.4375,1.15625 C 44.294412,65.874658 44.683754,66 45.1875,66 c 0.168813,0 0.344688,-0.02468 0.5,-0.0625 0.155308,-0.03781 0.294342,-0.08197 0.4375,-0.15625 l 0,-0.625 c -0.144508,0.09859 -0.265799,0.17283 -0.40625,0.21875 -0.140457,0.04592 -0.313442,0.0625 -0.46875,0.0625 -0.278209,10e-7 -0.49689,-0.102981 -0.65625,-0.28125 -0.159363,-0.178269 -0.218751,-0.406778 -0.21875,-0.71875 -10e-7,-0.313321 0.05939,-0.57173 0.21875,-0.75 0.15936,-0.178264 0.378041,-0.249998 0.65625,-0.25 0.155308,0 0.328293,0.01659 0.46875,0.0625 0.140451,0.04592 0.261742,0.12016 0.40625,0.21875 l 0,-0.625 c -0.143158,-0.07428 -0.282192,-0.14969 -0.4375,-0.1875 -0.155312,-0.0378 -0.331187,-0.03125 -0.5,-0.03125 -0.125937,10e-7 -0.230897,-0.01764 -0.34375,0 z m -18.875,0.03125 0,0.59375 1,0 0,2.4375 0.78125,0 0,-2.4375 1,0 0,-0.59375 -2.78125,0 z m 3.1875,0 0,3.03125 2.15625,0 0,-0.59375 -1.375,0 0,-0.6875 1.25,0 0,-0.59375 -1.25,0 0,-0.5625 1.3125,0 0,-0.59375 -2.09375,0 z m 17.625,0 0,3.03125 2.15625,0 0,-0.59375 -1.375,0 0,-0.6875 1.25,0 0,-0.59375 -1.25,0 0,-0.5625 1.3125,0 0,-0.59375 -2.09375,0 z m 2.84375,0 0,3.03125 0.71875,0 0,-2.0625 1.125,2.0625 0.84375,0 0,-3.03125 -0.71875,0 0,2.09375 -1.09375,-2.09375 -0.875,0 z m 3.46875,0 0,3.03125 2.15625,0 0,-0.59375 -1.375,0 0,-0.6875 1.25,0 0,-0.59375 -1.25,0 0,-0.5625 1.3125,0 0,-0.59375 -2.09375,0 z m 11.65625,0 0,0.59375 1,0 0,2.4375 0.78125,0 0,-2.4375 1,0 0,-0.59375 -2.78125,0 z m 6.09375,0 0,3.03125 0.78125,0 0,-1.1875 1.1875,1.1875 0.96875,0 -1.59375,-1.59375 1.4375,-1.4375 -0.90625,0 -1.09375,1.125 0,-1.125 -0.78125,0 z m 3.1875,0 0,3.03125 2.15625,0 0,-0.59375 -1.375,0 0,-0.6875 1.25,0 0,-0.59375 -1.25,0 0,-0.5625 1.34375,0 0,-0.59375 -2.125,0 z M 20,62.9375 l 0,3.03125 0.8125,0 c 0.453773,0 0.80436,-0.06017 1.03125,-0.125 0.226885,-0.06618 0.431684,-0.15584 0.59375,-0.3125 0.141802,-0.136402 0.24362,-0.290479 0.3125,-0.46875 0.06887,-0.179617 0.09375,-0.39676 0.09375,-0.625 -2e-6,-0.225535 -0.02487,-0.415479 -0.09375,-0.59375 C 22.68112,63.665484 22.579302,63.511405 22.4375,63.375 22.276784,63.218343 22.069286,63.09608 21.84375,63.03125 21.619563,62.96508 21.271675,62.9375 20.8125,62.9375 l -0.8125,0 z m 4.1875,0 -1.09375,3.03125 0.78125,0 0.1875,-0.5625 1.21875,0 0.1875,0.5625 0.78125,0 -1.125,-3.03125 -0.9375,0 z m 44.1875,0 -1.125,3.03125 0.78125,0 0.21875,-0.5625 1.21875,0 0.1875,0.5625 0.78125,0 -1.125,-3.03125 -0.9375,0 z m -47.59375,0.59375 0.28125,0 c 0.320071,2e-6 0.551284,0.06209 0.71875,0.21875 0.167457,0.156663 0.249997,0.387686 0.25,0.6875 -3e-6,0.301167 -0.08119,0.52949 -0.25,0.6875 -0.167467,0.158017 -0.400029,0.25 -0.71875,0.25 l -0.28125,0 0,-1.84375 z m 3.875,0.09375 0.4375,1.21875 -0.84375,0 0.40625,-1.21875 z m 44.1875,0 0.40625,1.21875 -0.8125,0 0.40625,-1.21875 z" />
      <path
         style="font-size:6px;font-style:normal;font-variant:normal;font-weight:bold;font-stretch:normal;text-align:start;line-height:125%;writing-mode:lr-tb;text-anchor:start;opacity:0.8;fill:url(#radialGradient3937);fill-opacity:1;stroke:none;display:inline;font-family:DejaVu Sans;-inkscape-font-specification:DejaVu Sans Bold"
         id="path3935"
         inkscape:connector-curvature="0"
         d="m 37,70 0,14 -1,0 0,-14 1,0 z" />
      <g
         id="layer3">
        <path
           style="fill:#000000;fill-opacity:1;fill-rule:nonzero;stroke:none"
           id="rect4237"
           inkscape:connector-curvature="0"
           d="M 12,6 C 8.676,6 6,8.676 6,12 l 0,12 84,0 0,-12 C 90,8.676 87.324,6 84,6 L 12,6 z" />
        <rect
           style="opacity:0.8;fill:url(#linearGradient4262);fill-opacity:1;fill-rule:evenodd;stroke:none"
           id="rect3250"
           y="24"
           x="6"
           height="6"
           width="84" />
        <rect
           style="opacity:0.3;fill:url(#linearGradient4320);fill-opacity:1;fill-rule:evenodd;stroke:none"
           id="rect4289"
           y="15"
           x="6"
           height="5"
           width="84" />
        <g
           id="g4299"
           transform="translate(1,0)">
          <path
             style="fill:#f0f0f0;fill-opacity:1;fill-rule:evenodd;stroke:none"
             id="path4293"
             inkscape:connector-curvature="0"
             d="M 28.333333,6 23,15 28.333333,24 39,24 33.666667,15 39,6 28.333333,6 z" />
          <path
             style="fill:#f0f0f0;fill-opacity:1;fill-rule:evenodd;stroke:none"
             id="path4295"
             inkscape:connector-curvature="0"
             d="M 50.333333,6 45,15 50.333333,24 61,24 55.666667,15 61,6 50.333333,6 z" />
          <path
             style="fill:#f0f0f0;fill-opacity:1;fill-rule:evenodd;stroke:none"
             id="path4297"
             inkscape:connector-curvature="0"
             d="M 72.333333,6 67,15 72.333333,24 83,24 77.666667,15 83,6 72.333333,6 z" />
        </g>
        <rect
           style="opacity:0.7;fill:url(#linearGradient4310);fill-opacity:1;fill-rule:evenodd;stroke:none"
           id="rect4291"
           y="10"
           x="6"
           height="5"
           width="84" />
        <rect
           style="opacity:0.7;fill:url(#linearGradient4326);fill-opacity:1;fill-rule:evenodd;stroke:none"
           id="rect4324"
           y="19"
           x="6"
           height="5"
           width="84" />
        <path
           style="fill:url(#linearGradient4371);fill-opacity:1;fill-rule:evenodd;stroke:url(#linearGradient4373);stroke-width:1;stroke-linecap:butt;stroke-linejoin:round;stroke-miterlimit:4;stroke-opacity:1;stroke-dasharray:none;stroke-dashoffset:0"
           id="path4333"
           inkscape:connector-curvature="0"
           d="m 12.005391,10.5 c 1.109513,0 1.770155,0.983693 6.03003,4.302704 4.304387,3.353689 5.477493,3.726472 5.477493,5.074645 0,1.348423 -1.088205,1.622651 -2.439921,1.622651 l -8.133072,0 C 11.588205,21.5 10.5,20.414446 10.5,19.066023 l 0,-6.490605 C 10.5,11.226995 10.967611,10.5 12.005391,10.5 z" />
        <path
           inkscape:connector-curvature="0"
           style="fill:url(#radialGradient4379);fill-opacity:1;fill-rule:evenodd;stroke:none"
           id="path4335"
           transform="matrix(0.81330712,0,0,0.81132563,3.5868895,1.0746776)"
           d="m 12.75,14.9375 a 1.4375,1.4375 0 1 1 -2.875,0 1.4375,1.4375 0 1 1 2.875,0 z" />
        <path
           inkscape:connector-curvature="0"
           style="fill:url(#radialGradient4377);fill-opacity:1;fill-rule:evenodd;stroke:none"
           id="path4337"
           transform="matrix(0.81330712,0,0,0.81132563,3.5868895,7.09897)"
           d="m 12.75,14.9375 a 1.4375,1.4375 0 1 1 -2.875,0 1.4375,1.4375 0 1 1 2.875,0 z" />
        <path
           inkscape:connector-curvature="0"
           style="fill:url(#radialGradient4375);fill-opacity:1;fill-rule:evenodd;stroke:none"
           id="path4339"
           transform="matrix(0.81330712,0,0,0.81132563,11.618297,7.09897)"
           d="m 12.75,14.9375 a 1.4375,1.4375 0 1 1 -2.875,0 1.4375,1.4375 0 1 1 2.875,0 z" />
      </g>
      <path
         style="fill:url(#linearGradient3457);fill-opacity:1;stroke:none;display:inline"
         id="path4318"
         inkscape:connector-curvature="0"
         d="M 83.711708,25.182023 10.023516,93.481481 92.858978,79.542792 83.711708,25.182023 z m -6.99421,20.475714 4.28097,25.441163 -38.788672,6.526953 34.507702,-31.968116 z" />
      <path
         style="fill:#a0672c;fill-opacity:1;stroke:none;display:inline"
         id="path4964"
         inkscape:connector-curvature="0"
         d="m 76.544788,44.67274 0.16594,0.986137 -33.140164,30.737806 -1.510021,0.254091 34.484245,-31.978034 z m 16.15881,33.882138 0.16594,0.986137 -82.83546,13.938686 1.344084,-1.24023 81.325436,-13.684593 z" />
      <path
         style="opacity:0.5;fill:#ffe680;fill-opacity:1;stroke:none;display:inline"
         id="path4955"
         inkscape:connector-curvature="0"
         d="m 83.722268,25.180246 0.16594,0.986136 -72.344109,67.059229 -1.510021,0.25409 73.68819,-68.299455 z m -2.7283,45.933277 0.16593,0.986136 -38.767482,6.523388 1.344085,-1.240227 37.257467,-6.269297 z" />
      <g
         style="display:inline"
         id="g3643"
         transform="matrix(0.53065619,-0.19518968,-0.19518968,-0.53065619,-13.078553,121.1099)">
        <g
           id="g3537">
          <rect
             style="fill:url(#linearGradient3742);fill-opacity:1;stroke:#df453f;stroke-width:1.32645738;stroke-linecap:butt;stroke-linejoin:round;stroke-miterlimit:4;stroke-opacity:1;stroke-dasharray:none"
             id="rect3483"
             y="107.49392"
             x="136.91356"
             ry="3"
             rx="3"
             height="16"
             width="12.116117" />
          <path
             style="opacity:0.3;fill:#701300;fill-opacity:1;stroke:none;filter:url(#filter3495)"
             id="path3493"
             transform="matrix(1.8857143,0,0,1,-123.51329,-1.9445437)"
             d="m 141.24458,118.1889 a 1.5467962,3.9774759 0 1 1 -3.09359,0 1.5467962,3.9774759 0 1 1 3.09359,0 z"
             inkscape:connector-curvature="0" />
          <path
             style="opacity:0.8;fill:#ffffff;fill-opacity:1;fill-rule:evenodd;stroke:none;filter:url(#filter3509)"
             id="path3499"
             inkscape:connector-curvature="0"
             d="m 146.31251,113.125 c -0.85193,9.50672 -3.9375,8.3125 -6.5,8.9375 4.07634,0.0625 8.625,-0.0625 8.625,-0.0625 -2.4375,-0.5625 -1.8125,-2.375 -2.125,-8.875 z" />
          <rect
             style="opacity:0.2;fill:url(#linearGradient3744);fill-opacity:1;stroke:none"
             id="rect3525"
             y="115.96875"
             x="136.41188"
             height="1"
             width="12.119369" />
        </g>
        <g
           id="g3311"
           transform="translate(23.73343,0)">
          <path
             style="fill:url(#linearGradient3746);fill-opacity:1;stroke:url(#linearGradient3748);stroke-width:1.32645738;stroke-linecap:butt;stroke-linejoin:round;stroke-miterlimit:4;stroke-opacity:1;stroke-dasharray:none"
             id="rect2480"
             inkscape:connector-curvature="0"
             d="m 112.76657,24.500002 6.5,-23.9999996 6.5,23.9999996 0,71.999997 -13,0 0,-71.999997 z" />
          <path
             style="fill:url(#linearGradient3750);fill-opacity:1;fill-rule:evenodd;stroke:none"
             id="path3272"
             inkscape:connector-curvature="0"
             d="m 117.69336,8.0716529 3.14265,0.022097 -1.58237,-5.7913293" />
          <path
             style="fill:url(#linearGradient3752);fill-opacity:1;fill-rule:evenodd;stroke:none"
             id="path3274"
             inkscape:connector-curvature="0"
             d="M 117.73213,8.0901517 113.96457,22 c 0,0 -0.46779,1.653465 -0.698,2.60832 -0.19122,0.64228 1.95886,1.611283 3.0182,-1.60832 1.21534,4.513809 5.57589,3.437953 5.98831,0.01105 0.3425,1.701476 1.75396,2.949961 2.98863,1.521937 -0.23478,-0.908743 -0.43641,-1.521937 -0.43641,-1.521937 l -4.02168,-14.9208973 -3.07149,0 z" />
          <path
             style="opacity:0.3;fill:none;stroke:url(#linearGradient3754);stroke-width:1.76860964px;stroke-linecap:butt;stroke-linejoin:miter;stroke-opacity:1"
             id="path3294"
             inkscape:connector-curvature="0"
             d="m 122.37252,96.304856 0,-67.217294" />
          <path
             style="opacity:0.4;fill:none;stroke:url(#linearGradient3756);stroke-width:1.76860964px;stroke-linecap:butt;stroke-linejoin:miter;stroke-opacity:1"
             id="path3304"
             inkscape:connector-curvature="0"
             d="m 116.24752,96.304856 0,-67.217294" />
          <path
             style="opacity:0.4;fill:#ac4311;fill-opacity:1;fill-rule:evenodd;stroke:none;filter:url(#filter3382)"
             id="path3372"
             inkscape:connector-curvature="0"
             d="m 118.7044,5.9798798 -4.77297,17.8986412 1.98873,-0.839689 2.78424,-17.0589522 z" />
          <path
             style="opacity:0.15;fill:none;stroke:#4d2600;stroke-width:1.76860964px;stroke-linecap:butt;stroke-linejoin:miter;stroke-opacity:1"
             id="path3386"
             inkscape:connector-curvature="0"
             d="m 113.07908,24.624995 c 0,0 1.48667,1.76491 3.25,-1.53125 2,5.25 5.16858,2.087146 5.93749,-0.03125 1.375,3.4375 3.12501,1.4375 3.12501,1.4375" />
          <path
             style="opacity:0.8;fill:#ffffff;fill-opacity:1;fill-rule:evenodd;stroke:none;filter:url(#filter3390)"
             id="path3388"
             transform="matrix(1.122449,0,0,1.345,-41.70282,-4.7709353)"
             inkscape:connector-curvature="0"
             d="m 144.06251,8.9374939 -0.375,12.5000011 3.0625,-0.3125 -2.6875,-12.1875011 z" />
        </g>
        <g
           id="g3620">
          <rect
             style="fill:url(#linearGradient3758);fill-opacity:1;stroke:url(#linearGradient3760);stroke-width:1.32645738;stroke-linecap:butt;stroke-linejoin:round;stroke-miterlimit:4;stroke-opacity:1;stroke-dasharray:none"
             id="rect3333"
             y="96.5"
             x="136.5"
             height="19"
             width="13" />
          <rect
             style="opacity:0.4;fill:url(#linearGradient3762);fill-opacity:1;stroke:none"
             id="rect3337"
             y="100"
             x="137"
             height="1"
             width="12" />
          <rect
             style="opacity:0.6;fill:url(#linearGradient3764);fill-opacity:1;stroke:none"
             id="rect3351"
             y="101"
             x="137"
             height="1"
             width="12" />
          <rect
             style="opacity:0.4;fill:url(#linearGradient3766);fill-opacity:1;stroke:none"
             id="rect3369"
             y="102"
             x="137"
             height="1"
             width="12" />
          <rect
             style="opacity:0.6;fill:url(#linearGradient3768);fill-opacity:1;stroke:none"
             id="rect3371"
             y="103"
             x="137"
             height="1"
             width="12" />
          <rect
             style="opacity:0.4;fill:url(#linearGradient3770);fill-opacity:1;stroke:none"
             id="rect3379"
             y="108"
             x="137"
             height="1"
             width="12" />
          <rect
             style="opacity:0.6;fill:url(#linearGradient3773);fill-opacity:1;stroke:none"
             id="rect3381"
             y="109"
             x="137"
             height="1"
             width="12" />
          <rect
             style="opacity:0.4;fill:url(#linearGradient3775);fill-opacity:1;stroke:none"
             id="rect3385"
             y="110"
             x="137"
             height="1"
             width="12" />
          <rect
             style="opacity:0.6;fill:url(#linearGradient3777);fill-opacity:1;stroke:none"
             id="rect3387"
             y="111"
             x="137"
             height="1"
             width="12" />
          <rect
             style="opacity:0.3;fill:url(#linearGradient3779);fill-opacity:1;stroke:none"
             id="rect3437"
             y="104"
             x="137"
             height="4"
             width="12" />
          <path
             style="opacity:0.6;fill:#000000;fill-opacity:1;stroke:none;filter:url(#filter3451)"
             id="path3449"
             transform="matrix(1.2553848,0,0,1,-35.75387,0)"
             d="m 140.00001,106.07969 a 1.10128,8.3968973 0 1 1 -2.20256,0 1.10128,8.3968973 0 1 1 2.20256,0 z"
             inkscape:connector-curvature="0" />
          <path
             style="opacity:0.8;fill:#ffffff;fill-opacity:1;stroke:none;filter:url(#filter3457)"
             id="path3455"
             d="m 147.34339,106.03549 a 1.193245,8.0875489 0 1 1 -2.38649,0 1.193245,8.0875489 0 1 1 2.38649,0 z"
             inkscape:connector-curvature="0" />
        </g>
      </g>
    </g>
    <rect
       ry="25"
       rx="25"
       id="rect3003"
       style="opacity:0.15;fill:#ffffff;fill-opacity:1"
       height="92"
       width="92"
       y="958.36218"
       x="-96"
       clip-path="url(#clipPath3009)"
       transform="translate(98,0)" />
  </g>
</svg>
