<?xml version="1.0" encoding="UTF-8" standalone="no"?>
<!-- Created with Inkscape (http://www.inkscape.org/) -->

<svg
   xmlns:dc="http://purl.org/dc/elements/1.1/"
   xmlns:cc="http://creativecommons.org/ns#"
   xmlns:rdf="http://www.w3.org/1999/02/22-rdf-syntax-ns#"
   xmlns:svg="http://www.w3.org/2000/svg"
   xmlns="http://www.w3.org/2000/svg"
   xmlns:xlink="http://www.w3.org/1999/xlink"
   xmlns:sodipodi="http://sodipodi.sourceforge.net/DTD/sodipodi-0.dtd"
   xmlns:inkscape="http://www.inkscape.org/namespaces/inkscape"
   width="96"
   height="96"
   id="svg11037"
   version="1.1"
   inkscape:version="0.48.3.1 r9886"
   sodipodi:docname="kgeography.svg">
  <defs
     id="defs11039">
    <linearGradient
       y2="1046.1001"
       x2="47.999954"
       y1="962.62189"
       x1="47.999954"
       gradientTransform="matrix(1.15,0,0,1.15,-7.1999462,-150.65291)"
       gradientUnits="userSpaceOnUse"
       id="linearGradient3886"
       xlink:href="#linearGradient3795"
       inkscape:collect="always" />
    <linearGradient
       id="linearGradient3795">
      <stop
         style="stop-color:#13a6fd;stop-opacity:1;"
         offset="0"
         id="stop3797" />
      <stop
         style="stop-color:#2975b6;stop-opacity:1;"
         offset="1"
         id="stop3799" />
    </linearGradient>
    <linearGradient
       y2="1046.1001"
       x2="47.999954"
       y1="962.62189"
       x1="47.999954"
       gradientTransform="matrix(1.15,0,0,1.15,-7.1999462,-150.65292)"
       gradientUnits="userSpaceOnUse"
       id="linearGradient11642"
       xlink:href="#linearGradient3795"
       inkscape:collect="always" />
    <clipPath
       clipPathUnits="userSpaceOnUse"
       id="clipPath3009">
      <path
         id="path3011"
         d="m -2,956.36218 -96,0 0,33.5624 96,25.68742 0,-59.24982 z"
         style="opacity:0.15;fill:#ffffff;fill-opacity:1;stroke:none"
         inkscape:connector-curvature="0" />
    </clipPath>
    <linearGradient
       inkscape:collect="always"
       xlink:href="#linearGradient3700"
       id="linearGradient3706"
       x1="48"
       y1="90"
       x2="48"
       y2="5.9877172"
       gradientUnits="userSpaceOnUse" />
    <linearGradient
       id="linearGradient3700">
      <stop
         style="stop-color:#126692;stop-opacity:1;"
         offset="0"
         id="stop3702" />
      <stop
         style="stop-color:#2e80ab;stop-opacity:1;"
         offset="1"
         id="stop3704" />
    </linearGradient>
    <linearGradient
       gradientTransform="matrix(1.1428571,0,0,1.1428571,-6.857145,949.50504)"
       y2="5.9877172"
       x2="48"
       y1="90"
       x1="48"
       gradientUnits="userSpaceOnUse"
       id="linearGradient3196"
       xlink:href="#linearGradient3700"
       inkscape:collect="always" />
    <clipPath
       clipPathUnits="userSpaceOnUse"
       id="clipPath3018">
      <rect
         x="2"
         y="958.36218"
         width="92"
         height="92"
         style="opacity:0.6;fill:#000000;fill-opacity:1"
         id="rect3020"
         rx="25"
         ry="25" />
    </clipPath>
    <clipPath
       clipPathUnits="userSpaceOnUse"
       id="clipPath3775">
      <rect
         ry="6"
         rx="6"
         y="-14"
         x="-34"
         height="84"
         width="84"
         id="rect3777"
         style="fill:#ff0000;fill-opacity:1;fill-rule:nonzero;stroke:none" />
    </clipPath>
    <filter
       inkscape:collect="always"
       id="filter3779"
       color-interpolation-filters="sRGB">
      <feGaussianBlur
         inkscape:collect="always"
         stdDeviation="1.6519426"
         id="feGaussianBlur3781" />
    </filter>
    <radialGradient
       r="42"
       fy="41.752277"
       fx="48"
       cy="41.752277"
       cx="48"
       gradientTransform="matrix(1.7146179,6.6254866e-8,-4.2857144e-8,1.1091053,-34.30166,-5.082394)"
       gradientUnits="userSpaceOnUse"
       id="radialGradient2977"
       xlink:href="#linearGradient4049"
       inkscape:collect="always" />
    <linearGradient
       id="linearGradient4049">
      <stop
         style="stop-color:#a7d8f1;stop-opacity:1;"
         offset="0"
         id="stop4051" />
      <stop
         style="stop-color:#3299cf;stop-opacity:1;"
         offset="1"
         id="stop4053" />
    </linearGradient>
    <radialGradient
       inkscape:collect="always"
       xlink:href="#linearGradient4136"
       id="radialGradient4047"
       gradientUnits="userSpaceOnUse"
       gradientTransform="matrix(1.3924306,0,0,1.672902,-18.378474,-31.961599)"
       cx="46.832417"
       cy="47.498142"
       fx="46.832417"
       fy="47.498142"
       r="23.734631" />
    <linearGradient
       id="linearGradient4136">
      <stop
         style="stop-color:#ffffff;stop-opacity:1;"
         offset="0"
         id="stop4138" />
      <stop
         style="stop-color:#ffffff;stop-opacity:0;"
         offset="1"
         id="stop4140" />
    </linearGradient>
    <radialGradient
       inkscape:collect="always"
       xlink:href="#linearGradient4136"
       id="radialGradient4043"
       gradientUnits="userSpaceOnUse"
       gradientTransform="matrix(1.3924306,0,0,1.672902,-18.378474,-31.961599)"
       cx="46.832417"
       cy="47.498142"
       fx="46.832417"
       fy="47.498142"
       r="23.734631" />
    <linearGradient
       id="linearGradient3251">
      <stop
         style="stop-color:#ffffff;stop-opacity:1;"
         offset="0"
         id="stop3253" />
      <stop
         style="stop-color:#ffffff;stop-opacity:0;"
         offset="1"
         id="stop3255" />
    </linearGradient>
    <radialGradient
       inkscape:collect="always"
       xlink:href="#linearGradient4136"
       id="radialGradient4045"
       gradientUnits="userSpaceOnUse"
       gradientTransform="matrix(1.3924306,0,0,1.672902,-18.378474,-31.961599)"
       cx="46.832417"
       cy="47.498142"
       fx="46.832417"
       fy="47.498142"
       r="23.734631" />
    <linearGradient
       id="linearGradient3258">
      <stop
         style="stop-color:#ffffff;stop-opacity:1;"
         offset="0"
         id="stop3260" />
      <stop
         style="stop-color:#ffffff;stop-opacity:0;"
         offset="1"
         id="stop3262" />
    </linearGradient>
    <radialGradient
       inkscape:collect="always"
       xlink:href="#linearGradient4136"
       id="radialGradient3179"
       gradientUnits="userSpaceOnUse"
       gradientTransform="matrix(1.3924306,0,0,1.672902,-18.378474,-31.961599)"
       cx="46.832417"
       cy="47.498142"
       fx="46.832417"
       fy="47.498142"
       r="23.734631" />
    <linearGradient
       id="linearGradient3265">
      <stop
         style="stop-color:#ffffff;stop-opacity:1;"
         offset="0"
         id="stop3267" />
      <stop
         style="stop-color:#ffffff;stop-opacity:0;"
         offset="1"
         id="stop3269" />
    </linearGradient>
    <radialGradient
       inkscape:collect="always"
       xlink:href="#linearGradient4136"
       id="radialGradient3175"
       gradientUnits="userSpaceOnUse"
       gradientTransform="matrix(1.3924306,0,0,1.672902,-18.378474,-31.961599)"
       cx="46.832417"
       cy="47.498142"
       fx="46.832417"
       fy="47.498142"
       r="23.734631" />
    <linearGradient
       id="linearGradient3272">
      <stop
         style="stop-color:#ffffff;stop-opacity:1;"
         offset="0"
         id="stop3274" />
      <stop
         style="stop-color:#ffffff;stop-opacity:0;"
         offset="1"
         id="stop3276" />
    </linearGradient>
    <radialGradient
       inkscape:collect="always"
       xlink:href="#linearGradient4136"
       id="radialGradient3177"
       gradientUnits="userSpaceOnUse"
       gradientTransform="matrix(1.3924306,0,0,1.672902,-18.378474,-31.961599)"
       cx="46.832417"
       cy="47.498142"
       fx="46.832417"
       fy="47.498142"
       r="23.734631" />
    <linearGradient
       id="linearGradient3279">
      <stop
         style="stop-color:#ffffff;stop-opacity:1;"
         offset="0"
         id="stop3281" />
      <stop
         style="stop-color:#ffffff;stop-opacity:0;"
         offset="1"
         id="stop3283" />
    </linearGradient>
    <radialGradient
       inkscape:collect="always"
       xlink:href="#linearGradient4049"
       id="radialGradient3149"
       gradientUnits="userSpaceOnUse"
       gradientTransform="matrix(1.7146179,6.6254866e-8,-4.2857144e-8,1.1091053,-34.30166,-5.082394)"
       cx="48"
       cy="41.752277"
       fx="48"
       fy="41.752277"
       r="42" />
    <radialGradient
       inkscape:collect="always"
       xlink:href="#linearGradient4136"
       id="radialGradient3151"
       gradientUnits="userSpaceOnUse"
       gradientTransform="matrix(1.3924306,0,0,1.672902,-18.378474,-31.961599)"
       cx="46.832417"
       cy="47.498142"
       fx="46.832417"
       fy="47.498142"
       r="23.734631" />
    <radialGradient
       inkscape:collect="always"
       xlink:href="#linearGradient4136"
       id="radialGradient3153"
       gradientUnits="userSpaceOnUse"
       gradientTransform="matrix(1.3924306,0,0,1.672902,-18.378474,-31.961599)"
       cx="46.832417"
       cy="47.498142"
       fx="46.832417"
       fy="47.498142"
       r="23.734631" />
    <radialGradient
       inkscape:collect="always"
       xlink:href="#linearGradient4136"
       id="radialGradient3155"
       gradientUnits="userSpaceOnUse"
       gradientTransform="matrix(1.3924306,0,0,1.672902,-18.378474,-31.961599)"
       cx="46.832417"
       cy="47.498142"
       fx="46.832417"
       fy="47.498142"
       r="23.734631" />
    <radialGradient
       inkscape:collect="always"
       xlink:href="#linearGradient4136"
       id="radialGradient3157"
       gradientUnits="userSpaceOnUse"
       gradientTransform="matrix(1.3924306,0,0,1.672902,-18.378474,-31.961599)"
       cx="46.832417"
       cy="47.498142"
       fx="46.832417"
       fy="47.498142"
       r="23.734631" />
    <radialGradient
       inkscape:collect="always"
       xlink:href="#linearGradient4136"
       id="radialGradient3159"
       gradientUnits="userSpaceOnUse"
       gradientTransform="matrix(1.3924306,0,0,1.672902,-18.378474,-31.961599)"
       cx="46.832417"
       cy="47.498142"
       fx="46.832417"
       fy="47.498142"
       r="23.734631" />
    <radialGradient
       inkscape:collect="always"
       xlink:href="#linearGradient4136"
       id="radialGradient3161"
       gradientUnits="userSpaceOnUse"
       gradientTransform="matrix(1.3924306,0,0,1.672902,-18.378474,-31.961599)"
       cx="46.832417"
       cy="47.498142"
       fx="46.832417"
       fy="47.498142"
       r="23.734631" />
  </defs>
  <sodipodi:namedview
     id="base"
     pagecolor="#ffffff"
     bordercolor="#666666"
     borderopacity="1.0"
     inkscape:pageopacity="0.0"
     inkscape:pageshadow="2"
     inkscape:zoom="3.959798"
     inkscape:cx="29.118614"
     inkscape:cy="49.863109"
     inkscape:document-units="px"
     inkscape:current-layer="layer1"
     showgrid="false"
     inkscape:window-width="1366"
     inkscape:window-height="684"
     inkscape:window-x="0"
     inkscape:window-y="26"
     inkscape:window-maximized="1"
     showguides="true"
     inkscape:guide-bbox="true">
    <sodipodi:guide
       orientation="0,1"
       position="-24.748737,0"
       id="guide11064" />
    <sodipodi:guide
       orientation="0,1"
       position="-23.233509,96"
       id="guide11066" />
    <sodipodi:guide
       orientation="1,0"
       position="0,54.800776"
       id="guide11068" />
    <sodipodi:guide
       orientation="1,0"
       position="96,51.012704"
       id="guide11070" />
    <sodipodi:guide
       orientation="0,1"
       position="-18.94036,48"
       id="guide11072" />
    <sodipodi:guide
       orientation="1,0"
       position="48,79.296975"
       id="guide11074" />
    <sodipodi:guide
       orientation="1,0"
       position="2,75.508903"
       id="guide11076" />
    <sodipodi:guide
       orientation="0,1"
       position="-77.27667,2"
       id="guide11078" />
    <sodipodi:guide
       orientation="1,0"
       position="94,77.781746"
       id="guide11080" />
    <sodipodi:guide
       orientation="0,1"
       position="-65.912454,94"
       id="guide11082" />
  </sodipodi:namedview>
  <metadata
     id="metadata11042">
    <rdf:RDF>
      <cc:Work
         rdf:about="">
        <dc:format>image/svg+xml</dc:format>
        <dc:type
           rdf:resource="http://purl.org/dc/dcmitype/StillImage" />
        <dc:title />
      </cc:Work>
    </rdf:RDF>
  </metadata>
  <g
     inkscape:label="Layer 1"
     inkscape:groupmode="layer"
     id="layer1"
     transform="translate(0,-956.36218)">
    <rect
       style="fill:url(#linearGradient3196);fill-opacity:1;fill-rule:nonzero;stroke:none;display:inline"
       id="rect2419"
       width="96"
       height="96"
       x="0"
       y="956.36218"
       rx="6.8571429"
       ry="6.8571429"
       clip-path="url(#clipPath3018)" />
    <g
       transform="matrix(0.95238091,0,0,0.95238091,2.2857143,960.6479)"
       style="display:inline"
       id="g3198">
      <path
         inkscape:connector-curvature="0"
         transform="translate(40,20)"
         clip-path="url(#clipPath3775)"
         style="opacity:0.5;fill:#00344f;fill-opacity:1;stroke:none;display:inline;filter:url(#filter3779)"
         d="m -3.72611,-13.918298 c 1.65011,2.216692 0.11258,5.918337 2.60147,5.881591 1.2119,1.714016 -2.41545,0.511296 0.20359,1.832342 1.50611,1.186578 -1.59338,1.86454 0.27179,2.929374 -2.14969,1.109666 0.34845,5.803987 1.94512,6.978848 2.62796,2.213161 1.16221,-4.685722 4.0945,-5.044597 1.59336,-1.819699 4.39184,-2.987811 6.37927,-4.818381 -1.9423,-0.15774 -3.07646,-1.367135 -1.23703,-2.116304 3.38546,3.470394 0.84891,-1.643528 -1.02513,-2.45324 1.81337,-0.577046 3.57698,-0.154481 3.32537,-1.65137 1.91632,-1.402516 -1.84226,-1.855344 -3.18394,-1.538263 -4.45834,0 -8.91668,0 -13.37501,0 z m -27.80185,1.447777 c -2.44976,0.698195 -2.62065,6.554878 -0.15835,3.302739 0.60434,-1.335366 3.39707,-2.944672 0.15835,-3.302739 z m 11.44649,0.203593 c -1.41226,2.215341 0.20491,3.991499 1.37991,1.289427 0.83171,-1.128343 -0.61793,-1.248085 -1.37991,-1.289427 z m 3.52895,0.497674 c -2.72875,1.265212 -0.6726,4.215564 -0.60506,4.871738 2.87456,0.994829 4.47323,-0.650437 5.5607,2.161488 2.73516,1.576935 -0.0538,4.317061 -1.08055,5.030674 1.84934,-1.611189 5.40416,4.380481 4.47225,1.214924 -1.11178,-0.812076 2.98516,1.304563 0.85962,-1.334669 -1.95606,-3.152657 0.15527,-1.411414 0.97995,-0.675608 2.80489,-2.516097 -3.17359,-2.820214 -1.68121,-5.409578 -1.30776,-1.059583 -3.02289,-4.269493 -5.33868,-3.642063 -1.55024,2.005564 -0.21416,-4.36996 -2.48861,-1.179563 -0.11789,1.783415 -0.0429,4.046455 -0.70571,0.956824 -0.44407,-0.540872 0.764,-1.798298 0.0273,-1.994167 z m -5.56489,0.02262 c -1.8316,0.610853 -1.73323,3.086505 0.51896,3.351911 0.77143,-0.879633 0.30649,-3.185338 -0.51896,-3.351911 z m -7.1484,0.791753 c -2.37908,0.563878 -1.40799,2.482865 -0.67958,3.023321 -2.94491,0.737923 4.4957,0.943126 0.79269,1.410494 -3.0808,1.230835 2.96666,2.680942 3.95876,1.221561 3.80439,0.930735 0.13691,-3.046545 -0.19704,-5.202532 -1.61275,-1.731481 -0.0637,3.991533 -1.52187,0.184408 -0.50878,1.130543 -2.12652,0.166598 -2.35296,-0.637252 z m 75.60113,0.248837 c -3.19245,1.249862 1.98418,5.966434 0.69764,1.675494 -0.12817,-0.518125 0.2882,-1.887105 -0.69764,-1.675494 z m -66.66563,1.900205 c -2.29408,2.156707 2.91599,3.940201 -0.6589,5.546906 -0.53601,-2.002938 -1.45827,1.002105 -3.50346,-0.615417 -3.5159,1.464466 -5.31387,-0.762828 -8.25754,-2.28957 -1.76803,-0.220164 -1.10378,1.680533 -1.22088,3.460193 0,4.918306 0,9.836614 0,14.75492 1.73349,1.82448 0.67633,0.804976 0,0.301752 0.95147,3.241642 -0.41957,7.980231 3.33085,9.86583 0.63757,1.183033 3.31289,6.223076 3.43622,4.715046 -1.34121,-1.405066 -2.71735,-5.617387 -0.44789,-1.863024 2.03275,3.568795 4.77475,5.883507 8.78047,6.73276 2.19006,0.745225 3.99117,3.306965 5.91712,2.743325 1.08905,2.871967 -3.22742,5.629887 0.14491,8.308597 1.76052,2.7118 4.71619,4.4904 3.11596,8.29758 -1.11907,3.71826 -0.63992,7.76974 -1.60778,11.23409 -0.3004,2.10873 2.93803,7.46101 2.65747,3.17511 0.94557,-2.9784 0.92064,-6.25562 3.14758,-8.36483 3.04711,0.02413 0.58237,-3.27775 3.60701,-2.84642 1.84564,-2.42007 2.38023,-5.30712 5.49491,-6.26809 0.37204,-2.9376 5.17882,-7.43659 0.21313,-8.580318 -1.3496,-0.665451 -4.8245,-0.904732 -4.55895,-1.233078 0.53804,-2.914877 -4.49346,-3.744701 -6.63422,-4.937269 -2.81076,-1.995848 -7.03424,3.315594 -8.02452,-1.261025 -0.59087,-1.439948 -2.75132,-1.463301 -1.75843,-3.68521 -1.78939,1.780326 -5.28934,1.23924 -4.37303,-2.198916 1.39157,-2.895595 6.73564,-3.032599 7.64626,0.450282 -1.26435,-3.841203 2.44394,-6.83143 4.50253,-9.564217 0.41916,-1.3062 2.90974,-2.428425 2.05267,-0.692421 1.46016,-0.05269 3.6733,-2.688637 1.07941,-1.472012 -0.0367,-2.403896 -2.27297,-1.720272 -2.99799,-1.378934 1.34377,-2.133574 8.24499,-0.967127 5.3551,-4.454587 -2.23931,-0.907679 -2.05303,-6.204449 -4.318,-3.253597 0.19059,-1.818146 -4.61001,-5.377145 -4.50526,-2.328319 0.58599,2.728128 0.10714,5.870869 -1.13992,7.659113 -0.26025,-3.99762 -7.07568,-3.114085 -6.19943,-7.373995 1.26944,-2.030291 2.75285,-4.83791 2.89418,-4.585337 2.27505,-0.868941 4.10459,-3.396512 1.46783,-5.058122 -0.14091,1.448202 -1.98303,4.436139 -1.72366,0.822325 -1.70579,2.02318 -1.3162,-3.219407 -2.91375,-3.763121 z m 54.45,1.402533 c -3.99594,0.977838 -5.58006,4.795836 -7.55681,7.958163 -2.91386,1.314237 -2.80294,6.958318 0.45241,5.155674 0.87128,1.522277 -0.60951,3.921673 1.92831,1.931216 2.047,-2.709901 0.35794,-7.092756 3.84142,-8.801515 0.25373,1.32865 -3.21333,6.289871 0.837,5.474405 3.66156,0.138209 -2.66186,0.364969 -0.88101,2.704729 -1.85026,-1.098211 -0.88882,2.999333 -3.30397,2.045788 -2.09233,1.138533 -3.46434,-0.528629 -2.98503,-2.35496 -1.64596,0.960573 0.51769,3.67045 -2.33959,3.83331 -0.64004,2.273659 -5.90338,1.930962 -2.91021,4.246159 1.3289,3.445358 -4.95153,0.215986 -3.16853,4.35053 1.52545,4.088438 4.7224,-1.354722 6.01944,-2.406348 2.50247,-1.941872 6.21066,3.311089 3.95876,3.506335 2.52508,-0.338912 2.00619,-2.74125 -0.017,-3.671301 -1.09268,-2.834933 3.45903,1.390324 3.2066,2.811683 1.60594,3.008346 0.94461,-3.080088 2.57885,-0.384565 -0.1908,2.843378 6.57418,0.668556 3.34439,4.292415 -2.77687,0.559513 -5.51013,-0.716143 -7.90083,0.100926 -2.22511,-0.01969 -2.11347,-2.397964 -2.92358,-2.993542 -2.83037,0.23004 -6.32794,0.204027 -8.22277,2.491404 -2.04902,2.812343 -5.00383,6.743795 -2.77053,10.334807 2.23488,5.321462 7.77719,0.276028 10.96298,3.418767 0.94693,1.310381 -0.8206,2.868035 1.29671,4.287425 0.7967,3.02353 -0.90449,5.89433 1.05226,8.78464 1.01184,2.7182 1.63978,6.78664 5.40576,4.30281 3.98577,-2.39945 2.92416,-6.8227 6.21294,-9.27265 -2.60227,-5.038063 3.18363,-7.247103 4.62722,-11.337101 -3.15394,0.461909 -5.96377,-2.68376 -6.72579,-5.84994 -1.32493,-1.537885 -0.98367,-3.805502 0.49633,-0.916468 2.03426,1.971905 2.07822,7.823061 5.84127,4.813019 1.72035,-0.719835 6.41861,-3.465723 2.67511,-4.71532 -2.41304,1.748397 -5.07525,-5.224262 -1.53182,-1.179972 2.57604,1.093303 4.37998,1.744706 4.37998,-1.880149 0,-9.766125 0,-19.664578 0,-29.496868 -0.8024,0.82028 -2.8638,2.335242 -3.90428,1.328569 -1.79037,0.249406 -4.15389,3.734285 -3.59125,0.365539 -1.55624,-0.103093 -0.27859,3.020534 -2.41664,3.107891 -0.21529,1.605887 -2.15987,0.297377 -1.42943,1.822369 -1.50065,-1.064875 -2.77067,-4.427041 0.18614,-2.316729 4.39102,-1.317844 -2.8956,-4.290405 -3.45804,-5.008905 0.94545,-0.226615 -1.02861,-1.212248 -1.26681,-0.88224 z m -36.23967,0.88224 c -1.46151,1.2182 2.77853,1.447612 0,0 z m -19.52238,0.656023 c -1.63465,1.710504 2.60328,1.572448 0,0 z m 9.47842,1.696613 c -1.23787,2.028578 1.82903,0.748943 0,0 z m 27.10058,2.39788 c -1.44923,1.669078 -3.36205,-0.439263 -3.39323,0.995347 0.26265,0.433474 1.31468,3.527292 3.61944,1.244183 1.23699,-0.52171 0.74997,-1.836879 -0.22621,-2.23953 z m -30.85575,0.995347 c -2.74881,2.401478 4.6683,2.622741 0.58232,0.275426 l -0.58232,-0.275426 z M 20.34318,5.875522 C 18.3641,7.166563 21.29262,9.90833 20.30008,11.196245 19.05998,13.35771 24.90841,11.04399 21.7847,9.319485 21.56213,7.837869 19.95468,6.030129 20.34316,5.875522 z m -1.33466,2.601473 c -2.7574,0.779858 -0.62597,4.806237 0.35065,1.013998 0.055,-0.219858 0.12936,-1.021351 -0.35065,-1.013998 z M -3.07009,11.39517 c -2.56522,1.749832 -0.39843,3.496444 1.48156,2.709121 -0.38595,-1.055763 -1.46417,-1.720956 -1.48156,-2.709121 z m 48.4553,2.940797 c 1.27995,0.646198 -2.34553,1.750082 -0.0498,2.887358 1.33598,1.571671 0.83231,4.945457 -1.3392,2.557643 0.40344,-2.665992 -2.94356,-4.656978 1.38903,-5.445001 z m -6.58287,0.02262 c -0.17366,1.712793 3.69395,4.375139 -0.47504,3.506334 -2.20475,0.258725 -5.50697,-0.06739 -2.72943,-2.815681 0.87765,-0.527085 3.18206,1.818498 1.98292,-0.373952 0.42514,-0.02713 0.82107,-0.187672 1.22155,-0.316701 z m -12.73591,3.709927 c -1.60811,1.036413 1.11198,1.831121 0,0 z M -14.31299,27.7279 c -0.2711,0.904805 5.086,1.821755 1.38931,0.372149 l -0.55107,-0.194046 -0.83824,-0.178103 z m 4.16236,1.289426 c -1.62491,1.650213 3.34781,0.493017 0,0 z m 54.3369,15.133794 c -3.53072,0.09113 -3.06133,9.20159 -0.60013,3.81083 0.2334,-1.16979 1.1689,-2.71377 0.60013,-3.81083 z"
         id="path3767"
         sodipodi:nodetypes="cccccccccccccccccccccccccccccccccccccccccccccccccccccccccccccccccccccccccccccccccccccccccccccccccccccccccccccccccccsccccccccccccccccccccccccccccccccccccccccccccccccccc" />
      <path
         inkscape:connector-curvature="0"
         sodipodi:nodetypes="cccccccccccccccccccccccccccccccccccccccccccccccccccccccccccccccccccccccccccccccccccccccccccccccccccccccccccccccccccsccccccccccccccccccccccccccccccccccccccccccccccccccc"
         id="path3522"
         d="m 36.27389,6.0817017 c 1.65011,2.216692 0.11258,5.9183373 2.60147,5.8815913 1.2119,1.714016 -2.41545,0.511296 0.20359,1.832342 1.50611,1.186578 -1.59338,1.86454 0.27179,2.929374 -2.14969,1.109666 0.34845,5.803987 1.94512,6.978848 2.62796,2.213161 1.16221,-4.685722 4.0945,-5.044597 1.59336,-1.819699 4.39184,-2.987811 6.37927,-4.818381 -1.9423,-0.15774 -3.07646,-1.367135 -1.23703,-2.116304 3.38546,3.470394 0.84891,-1.643528 -1.02513,-2.4532403 1.81337,-0.577046 3.57698,-0.154481 3.32537,-1.65137 1.91632,-1.402516 -1.84226,-1.855344 -3.18394,-1.538263 -4.45834,0 -8.91668,0 -13.37501,0 z M 8.47204,7.5294787 C 6.02228,8.2276737 5.85139,14.084357 8.31369,10.832218 8.91803,9.4968517 11.71076,7.8875457 8.47204,7.5294787 z m 11.44649,0.203593 c -1.41226,2.2153416 0.20491,3.9914993 1.37991,1.289427 0.83171,-1.128343 -0.61793,-1.248085 -1.37991,-1.289427 z m 3.52895,0.497674 c -2.72875,1.265212 -0.6726,4.2155643 -0.60506,4.8717383 2.87456,0.994829 4.47323,-0.650437 5.5607,2.161488 2.73516,1.576935 -0.0538,4.317061 -1.08055,5.030674 1.84934,-1.611189 5.40416,4.380481 4.47225,1.214924 -1.11178,-0.812076 2.98516,1.304563 0.85962,-1.334669 -1.95606,-3.152657 0.15527,-1.411414 0.97995,-0.675608 2.80489,-2.516097 -3.17359,-2.820214 -1.68121,-5.409578 -1.30776,-1.059583 -3.02289,-4.2694933 -5.33868,-3.642063 -1.55024,2.005564 -0.21416,-4.3699603 -2.48861,-1.1795633 -0.11789,1.7834153 -0.0429,4.0464553 -0.70571,0.9568243 -0.44407,-0.5408723 0.764,-1.7982983 0.0273,-1.9941673 z m -5.56489,0.022621 c -1.8316,0.610853 -1.73323,3.0865053 0.51896,3.3519113 0.77143,-0.879633 0.30649,-3.1853383 -0.51896,-3.3519113 z m -7.1484,0.791753 c -2.37908,0.563878 -1.40799,2.4828653 -0.67958,3.0233213 -2.94491,0.737923 4.4957,0.943126 0.79269,1.410494 -3.0808,1.230835 2.96666,2.680942 3.95876,1.221561 3.80439,0.930735 0.13691,-3.046545 -0.19704,-5.2025323 -1.61275,-1.731481 -0.0637,3.9915333 -1.52187,0.184408 -0.50878,1.1305433 -2.12652,0.166598 -2.35296,-0.637252 z m 75.60113,0.248837 c -3.19245,1.2498623 1.98418,5.9664343 0.69764,1.6754943 -0.12817,-0.518125 0.2882,-1.8871053 -0.69764,-1.6754943 z M 19.66969,11.194162 c -2.29408,2.156707 2.91599,3.940201 -0.6589,5.546906 -0.53601,-2.002938 -1.45827,1.002105 -3.50346,-0.615417 -3.5159,1.464466 -5.31387,-0.762828 -8.25754,-2.28957 -1.76803,-0.220164 -1.10378,1.680533 -1.22088,3.460193 0,4.918306 0,9.836614 0,14.75492 1.73349,1.82448 0.67633,0.804976 0,0.301752 0.95147,3.241642 -0.41957,7.980231 3.33085,9.86583 0.63757,1.183033 3.31289,6.223076 3.43622,4.715046 -1.34121,-1.405066 -2.71735,-5.617387 -0.44789,-1.863024 2.03275,3.568795 4.77475,5.883507 8.78047,6.73276 2.19006,0.745225 3.99117,3.306965 5.91712,2.743325 1.08905,2.871967 -3.22742,5.629887 0.14491,8.308597 1.76052,2.7118 4.71619,4.4904 3.11596,8.29758 -1.11907,3.71826 -0.63992,7.76974 -1.60778,11.23409 -0.3004,2.10873 2.93803,7.46101 2.65747,3.17511 0.94557,-2.9784 0.92064,-6.25562 3.14758,-8.36483 3.04711,0.02413 0.58237,-3.27775 3.60701,-2.84642 1.84564,-2.42007 2.38023,-5.30712 5.49491,-6.26809 0.37204,-2.9376 5.17882,-7.43659 0.21313,-8.580318 -1.3496,-0.665451 -4.8245,-0.904732 -4.55895,-1.233078 0.53804,-2.914877 -4.49346,-3.744701 -6.63422,-4.937269 -2.81076,-1.995848 -7.03424,3.315594 -8.02452,-1.261025 -0.59087,-1.439948 -2.75132,-1.463301 -1.75843,-3.68521 -1.78939,1.780326 -5.28934,1.23924 -4.37303,-2.198916 1.39157,-2.895595 6.73564,-3.032599 7.64626,0.450282 -1.26435,-3.841203 2.44394,-6.83143 4.50253,-9.564217 0.41916,-1.3062 2.90974,-2.428425 2.05267,-0.692421 1.46016,-0.05269 3.6733,-2.688637 1.07941,-1.472012 -0.0367,-2.403896 -2.27297,-1.720272 -2.99799,-1.378934 1.34377,-2.133574 8.24499,-0.967127 5.3551,-4.454587 -2.23931,-0.907679 -2.05303,-6.204449 -4.318,-3.253597 0.19059,-1.818146 -4.61001,-5.377145 -4.50526,-2.328319 0.58599,2.728128 0.10714,5.870869 -1.13992,7.659113 -0.26025,-3.99762 -7.07568,-3.114085 -6.19943,-7.373995 1.26944,-2.030291 2.75285,-4.83791 2.89418,-4.585337 2.27505,-0.868941 4.10459,-3.396512 1.46783,-5.058122 -0.14091,1.448202 -1.98303,4.436139 -1.72366,0.822325 -1.70579,2.02318 -1.3162,-3.219407 -2.91375,-3.763121 z m 54.45,1.402533 c -3.99594,0.977838 -5.58006,4.795836 -7.55681,7.958163 -2.91386,1.314237 -2.80294,6.958318 0.45241,5.155674 0.87128,1.522277 -0.60951,3.921673 1.92831,1.931216 2.047,-2.709901 0.35794,-7.092756 3.84142,-8.801515 0.25373,1.32865 -3.21333,6.289871 0.837,5.474405 3.66156,0.138209 -2.66186,0.364969 -0.88101,2.704729 -1.85026,-1.098211 -0.88882,2.999333 -3.30397,2.045788 -2.09233,1.138533 -3.46434,-0.528629 -2.98503,-2.35496 -1.64596,0.960573 0.51769,3.67045 -2.33959,3.83331 -0.64004,2.273659 -5.90338,1.930962 -2.91021,4.246159 1.3289,3.445358 -4.95153,0.215986 -3.16853,4.35053 1.52545,4.088438 4.7224,-1.354722 6.01944,-2.406348 2.50247,-1.941872 6.21066,3.311089 3.95876,3.506335 2.52508,-0.338912 2.00619,-2.74125 -0.017,-3.671301 -1.09268,-2.834933 3.45903,1.390324 3.2066,2.811683 1.60594,3.008346 0.94461,-3.080088 2.57885,-0.384565 -0.1908,2.843378 6.57418,0.668556 3.34439,4.292415 -2.77687,0.559513 -5.51013,-0.716143 -7.90083,0.100926 -2.22511,-0.01969 -2.11347,-2.397964 -2.92358,-2.993542 -2.83037,0.23004 -6.32794,0.204027 -8.22277,2.491404 -2.04902,2.812343 -5.00383,6.743795 -2.77053,10.334807 2.23488,5.321462 7.77719,0.276028 10.96298,3.418767 0.94693,1.310381 -0.8206,2.868035 1.29671,4.287425 0.7967,3.02353 -0.90449,5.89433 1.05226,8.78464 1.01184,2.7182 1.63978,6.78664 5.40576,4.30281 3.98577,-2.39945 2.92416,-6.8227 6.21294,-9.27265 -2.60227,-5.038063 3.18363,-7.247103 4.62722,-11.337101 -3.15394,0.461909 -5.96377,-2.68376 -6.72579,-5.84994 -1.32493,-1.537885 -0.98367,-3.805502 0.49633,-0.916468 2.03426,1.971905 2.07822,7.823061 5.84127,4.813019 1.72035,-0.719835 6.41861,-3.465723 2.67511,-4.71532 -2.41304,1.748397 -5.07525,-5.224262 -1.53182,-1.179972 2.57604,1.093303 4.37998,1.744706 4.37998,-1.880149 0,-9.766125 0,-19.664578 0,-29.496868 -0.8024,0.82028 -2.8638,2.335242 -3.90428,1.328569 -1.79037,0.249406 -4.15389,3.734285 -3.59125,0.365539 -1.55624,-0.103093 -0.27859,3.020534 -2.41664,3.107891 -0.21529,1.605887 -2.15987,0.297377 -1.42943,1.822369 -1.50065,-1.064875 -2.77067,-4.427041 0.18614,-2.316729 4.39102,-1.317844 -2.8956,-4.290405 -3.45804,-5.008905 0.94545,-0.226615 -1.02861,-1.212248 -1.26681,-0.88224 z m -36.23967,0.88224 c -1.46151,1.2182 2.77853,1.447612 0,0 z m -19.52238,0.656023 c -1.63465,1.710504 2.60328,1.572448 0,0 z m 9.47842,1.696613 c -1.23787,2.028578 1.82903,0.748943 0,0 z m 27.10058,2.39788 c -1.44923,1.669078 -3.36205,-0.439263 -3.39323,0.995347 0.26265,0.433474 1.31468,3.527292 3.61944,1.244183 1.23699,-0.52171 0.74997,-1.836879 -0.22621,-2.23953 z m -30.85575,0.995347 c -2.74881,2.401478 4.6683,2.622741 0.58232,0.275426 l -0.58232,-0.275426 z m 36.26229,6.650724 c -1.97908,1.291041 0.94944,4.032808 -0.0431,5.320723 -1.2401,2.161465 4.60833,-0.152255 1.48462,-1.87676 -0.22257,-1.481616 -1.83002,-3.289356 -1.44154,-3.443963 z m -1.33466,2.601473 c -2.7574,0.779858 -0.62597,4.806237 0.35065,1.013998 0.055,-0.219858 0.12936,-1.021351 -0.35065,-1.013998 z M 36.92991,31.39517 c -2.56522,1.749832 -0.39843,3.496444 1.48156,2.709121 -0.38595,-1.055763 -1.46417,-1.720956 -1.48156,-2.709121 z m 48.4553,2.940797 c 1.27995,0.646198 -2.34553,1.750082 -0.0498,2.887358 1.33598,1.571671 0.83231,4.945457 -1.3392,2.557643 0.40344,-2.665992 -2.94356,-4.656978 1.38903,-5.445001 z m -6.58287,0.02262 c -0.17366,1.712793 3.69395,4.375139 -0.47504,3.506334 -2.20475,0.258725 -5.50697,-0.06739 -2.72943,-2.815681 0.87765,-0.527085 3.18206,1.818498 1.98292,-0.373952 0.42514,-0.02713 0.82107,-0.187672 1.22155,-0.316701 z m -12.73591,3.709927 c -1.60811,1.036413 1.11198,1.831121 0,0 z M 25.68701,47.7279 c -0.2711,0.904805 5.086,1.821755 1.38931,0.372149 L 26.52525,47.906003 25.68701,47.7279 z m 4.16236,1.289426 c -1.62491,1.650213 3.34781,0.493017 0,0 z m 54.3369,15.133794 c -3.53072,0.09113 -3.06133,9.20159 -0.60013,3.81083 0.2334,-1.16979 1.1689,-2.71377 0.60013,-3.81083 z"
         style="fill:url(#radialGradient3149);fill-opacity:1;stroke:none;display:inline" />
      <g
         transform="translate(66.523282,-18.570487)"
         id="g4029">
        <g
           id="g4156"
           transform="translate(-65.355699,19.072343)"
           style="opacity:0.07999998;fill:#ffffff;fill-opacity:1;stroke:#ffffff;stroke-width:4;stroke-opacity:1">
          <rect
             y="18.982748"
             x="23.097788"
             height="57.030792"
             width="11.413744"
             id="rect4158"
             style="fill:#ffffff;fill-opacity:1;stroke:#ffffff;stroke-width:4;stroke-opacity:1" />
          <path
             sodipodi:nodetypes="ccccccccc"
             inkscape:connector-curvature="0"
             id="path4160"
             d="m 56.834419,18.982747 6.866314,0 6.866314,0 -19.576364,28.515397 19.576364,28.515397 -6.866314,0 -6.866314,0 -19.576365,-28.515397 z"
             style="fill:#ffffff;fill-opacity:1;stroke:#ffffff;stroke-width:4;stroke-opacity:1" />
        </g>
        <g
           id="g3364"
           transform="translate(-65.355699,19.072343)"
           style="fill:url(#radialGradient3155);fill-opacity:1">
          <rect
             y="18.982748"
             x="23.097788"
             height="57.030792"
             width="11.413744"
             id="rect3359"
             style="fill:url(#radialGradient3151);fill-opacity:1;stroke:none" />
          <path
             sodipodi:nodetypes="ccccccccc"
             inkscape:connector-curvature="0"
             id="rect3361"
             d="m 56.834419,18.982747 6.866314,0 6.866314,0 -19.576364,28.515397 19.576364,28.515397 -6.866314,0 -6.866314,0 -19.576365,-28.515397 z"
             style="fill:url(#radialGradient3153);fill-opacity:1;stroke:none" />
        </g>
        <g
           style="opacity:0.2;fill:#ffffff;fill-opacity:1;stroke:#ffffff;stroke-width:2;stroke-opacity:1"
           transform="translate(-65.355699,19.072343)"
           id="g4144">
          <rect
             style="fill:#ffffff;fill-opacity:1;stroke:#ffffff;stroke-width:2;stroke-opacity:1"
             id="rect4146"
             width="11.413744"
             height="57.030792"
             x="23.097788"
             y="18.982748" />
          <path
             style="fill:#ffffff;fill-opacity:1;stroke:#ffffff;stroke-width:2;stroke-opacity:1"
             d="m 56.834419,18.982747 6.866314,0 6.866314,0 -19.576364,28.515397 19.576364,28.515397 -6.866314,0 -6.866314,0 -19.576365,-28.515397 z"
             id="path4148"
             inkscape:connector-curvature="0"
             sodipodi:nodetypes="ccccccccc" />
        </g>
        <g
           id="g4150"
           transform="translate(-65.355699,18.072343)"
           style="opacity:0.2;fill:#ffffff;fill-opacity:1;stroke:none">
          <rect
             y="18.982748"
             x="23.097788"
             height="57.030792"
             width="11.413744"
             id="rect4152"
             style="fill:#ffffff;fill-opacity:1;stroke:none" />
          <path
             sodipodi:nodetypes="ccccccccc"
             inkscape:connector-curvature="0"
             id="path4154"
             d="m 56.834419,18.982747 6.866314,0 6.866314,0 -19.576364,28.515397 19.576364,28.515397 -6.866314,0 -6.866314,0 -19.576365,-28.515397 z"
             style="fill:#ffffff;fill-opacity:1;stroke:none" />
        </g>
      </g>
      <g
         id="g3162"
         transform="translate(66.562091,-18.531678)">
        <g
           style="opacity:0.07999998;fill:#ffffff;fill-opacity:1;stroke:#ffffff;stroke-width:4;stroke-opacity:1"
           transform="translate(-65.355699,19.072343)"
           id="g3164">
          <rect
             style="fill:#ffffff;fill-opacity:1;stroke:#ffffff;stroke-width:4;stroke-opacity:1"
             id="rect3166"
             width="11.413744"
             height="57.030792"
             x="23.097788"
             y="18.982748" />
          <path
             style="fill:#ffffff;fill-opacity:1;stroke:#ffffff;stroke-width:4;stroke-opacity:1"
             d="m 56.834419,18.982747 6.866314,0 6.866314,0 -19.576364,28.515397 19.576364,28.515397 -6.866314,0 -6.866314,0 -19.576365,-28.515397 z"
             id="path3168"
             inkscape:connector-curvature="0"
             sodipodi:nodetypes="ccccccccc" />
        </g>
        <g
           style="fill:url(#radialGradient3161);fill-opacity:1"
           transform="translate(-65.355699,19.072343)"
           id="g3170">
          <rect
             style="fill:url(#radialGradient3157);fill-opacity:1;stroke:none"
             id="rect3172"
             width="11.413744"
             height="57.030792"
             x="23.097788"
             y="18.982748" />
          <path
             style="fill:url(#radialGradient3159);fill-opacity:1;stroke:none"
             d="m 56.834419,18.982747 6.866314,0 6.866314,0 -19.576364,28.515397 19.576364,28.515397 -6.866314,0 -6.866314,0 -19.576365,-28.515397 z"
             id="path3174"
             inkscape:connector-curvature="0"
             sodipodi:nodetypes="ccccccccc" />
        </g>
        <g
           id="g3176"
           transform="translate(-65.355699,19.072343)"
           style="opacity:0.2;fill:#ffffff;fill-opacity:1;stroke:#ffffff;stroke-width:2;stroke-opacity:1">
          <rect
             y="18.982748"
             x="23.097788"
             height="57.030792"
             width="11.413744"
             id="rect3178"
             style="fill:#ffffff;fill-opacity:1;stroke:#ffffff;stroke-width:2;stroke-opacity:1" />
          <path
             sodipodi:nodetypes="ccccccccc"
             inkscape:connector-curvature="0"
             id="path3180"
             d="m 56.834419,18.982747 6.866314,0 6.866314,0 -19.576364,28.515397 19.576364,28.515397 -6.866314,0 -6.866314,0 -19.576365,-28.515397 z"
             style="fill:#ffffff;fill-opacity:1;stroke:#ffffff;stroke-width:2;stroke-opacity:1" />
        </g>
        <g
           style="opacity:0.2;fill:#ffffff;fill-opacity:1;stroke:none"
           transform="translate(-65.355699,18.072343)"
           id="g3182">
          <rect
             style="fill:#ffffff;fill-opacity:1;stroke:none"
             id="rect3184"
             width="11.413744"
             height="57.030792"
             x="23.097788"
             y="18.982748" />
          <path
             style="fill:#ffffff;fill-opacity:1;stroke:none"
             d="m 56.834419,18.982747 6.866314,0 6.866314,0 -19.576364,28.515397 19.576364,28.515397 -6.866314,0 -6.866314,0 -19.576365,-28.515397 z"
             id="path3186"
             inkscape:connector-curvature="0"
             sodipodi:nodetypes="ccccccccc" />
        </g>
      </g>
    </g>
    <rect
       ry="25"
       rx="25"
       id="rect3003"
       style="opacity:0.15;fill:#ffffff;fill-opacity:1"
       height="92"
       width="92"
       y="958.36218"
       x="-96"
       clip-path="url(#clipPath3009)"
       transform="translate(98,0)" />
  </g>
</svg>
