<?xml version="1.0" encoding="UTF-8" standalone="no"?>
<!-- Created with Inkscape (http://www.inkscape.org/) -->

<svg
   xmlns:dc="http://purl.org/dc/elements/1.1/"
   xmlns:cc="http://creativecommons.org/ns#"
   xmlns:rdf="http://www.w3.org/1999/02/22-rdf-syntax-ns#"
   xmlns:svg="http://www.w3.org/2000/svg"
   xmlns="http://www.w3.org/2000/svg"
   xmlns:xlink="http://www.w3.org/1999/xlink"
   xmlns:sodipodi="http://sodipodi.sourceforge.net/DTD/sodipodi-0.dtd"
   xmlns:inkscape="http://www.inkscape.org/namespaces/inkscape"
   width="96"
   height="96"
   id="svg11037"
   version="1.1"
   inkscape:version="0.48.3.1 r9886"
   sodipodi:docname="luckybackup.svg">
  <defs
     id="defs11039">
    <linearGradient
       y2="1046.1001"
       x2="47.999954"
       y1="962.62189"
       x1="47.999954"
       gradientTransform="matrix(1.15,0,0,1.15,-7.1999462,-150.65291)"
       gradientUnits="userSpaceOnUse"
       id="linearGradient3886"
       xlink:href="#linearGradient3795"
       inkscape:collect="always" />
    <linearGradient
       id="linearGradient3795">
      <stop
         style="stop-color:#13a6fd;stop-opacity:1;"
         offset="0"
         id="stop3797" />
      <stop
         style="stop-color:#2975b6;stop-opacity:1;"
         offset="1"
         id="stop3799" />
    </linearGradient>
    <linearGradient
       y2="1046.1001"
       x2="47.999954"
       y1="962.62189"
       x1="47.999954"
       gradientTransform="matrix(1.15,0,0,1.15,-7.1999462,-150.65292)"
       gradientUnits="userSpaceOnUse"
       id="linearGradient11642"
       xlink:href="#linearGradient3795"
       inkscape:collect="always" />
    <clipPath
       clipPathUnits="userSpaceOnUse"
       id="clipPath3009">
      <path
         id="path3011"
         d="m -2,956.36218 -96,0 0,33.5624 96,25.68742 0,-59.24982 z"
         style="opacity:0.15;fill:#ffffff;fill-opacity:1;stroke:none"
         inkscape:connector-curvature="0" />
    </clipPath>
    <linearGradient
       inkscape:collect="always"
       xlink:href="#linearGradient4001-2"
       id="linearGradient3830"
       gradientUnits="userSpaceOnUse"
       gradientTransform="matrix(3.1952737,0,0,3.2992193,-5.205342,953.10144)"
       x1="17.675829"
       y1="3.8597815"
       x2="17.675829"
       y2="25.716698" />
    <linearGradient
       id="linearGradient4001-2">
      <stop
         style="stop-color:#323232;stop-opacity:1;"
         offset="0"
         id="stop4003-2" />
      <stop
         style="stop-color:#787878;stop-opacity:1;"
         offset="1"
         id="stop4005-2" />
    </linearGradient>
  </defs>
  <sodipodi:namedview
     id="base"
     pagecolor="#ffffff"
     bordercolor="#666666"
     borderopacity="1.0"
     inkscape:pageopacity="0.0"
     inkscape:pageshadow="2"
     inkscape:zoom="3.959798"
     inkscape:cx="24.699197"
     inkscape:cy="49.863109"
     inkscape:document-units="px"
     inkscape:current-layer="layer1"
     showgrid="false"
     inkscape:window-width="1366"
     inkscape:window-height="684"
     inkscape:window-x="0"
     inkscape:window-y="26"
     inkscape:window-maximized="1"
     showguides="true"
     inkscape:guide-bbox="true">
    <sodipodi:guide
       orientation="0,1"
       position="-24.748737,0"
       id="guide11064" />
    <sodipodi:guide
       orientation="0,1"
       position="-23.233509,96"
       id="guide11066" />
    <sodipodi:guide
       orientation="1,0"
       position="0,54.800776"
       id="guide11068" />
    <sodipodi:guide
       orientation="1,0"
       position="96,51.012704"
       id="guide11070" />
    <sodipodi:guide
       orientation="0,1"
       position="-18.94036,48"
       id="guide11072" />
    <sodipodi:guide
       orientation="1,0"
       position="48,79.296975"
       id="guide11074" />
    <sodipodi:guide
       orientation="1,0"
       position="2,75.508903"
       id="guide11076" />
    <sodipodi:guide
       orientation="0,1"
       position="-77.27667,2"
       id="guide11078" />
    <sodipodi:guide
       orientation="1,0"
       position="94,77.781746"
       id="guide11080" />
    <sodipodi:guide
       orientation="0,1"
       position="-65.912454,94"
       id="guide11082" />
  </sodipodi:namedview>
  <metadata
     id="metadata11042">
    <rdf:RDF>
      <cc:Work
         rdf:about="">
        <dc:format>image/svg+xml</dc:format>
        <dc:type
           rdf:resource="http://purl.org/dc/dcmitype/StillImage" />
        <dc:title />
      </cc:Work>
    </rdf:RDF>
  </metadata>
  <g
     inkscape:label="Layer 1"
     inkscape:groupmode="layer"
     id="layer1"
     transform="translate(0,-956.36218)">
    <rect
       x="2"
       y="958.36218"
       width="92"
       height="92"
       style="fill:#999999;fill-opacity:1;opacity:0.59999999999999998"
       id="rect3867"
       rx="25"
       ry="25" />
    <g
       transform="translate(0,-1.96194e-5)"
       id="g2997">
      <path
         d="m 49.803913,966.66181 c -19.409465,0 -35.151486,17.43584 -35.167094,38.96619 l -7.41806,0 12.27185,23.6235 12.317642,-23.6235 -7.921758,0 c 0.01564,-15.86069 11.618338,-28.70432 25.91742,-28.70432 14.308793,0 25.917402,12.87927 25.917402,28.75492 0,15.8752 -11.608609,28.7541 -25.917402,28.7541 l 0,10.2629 c 19.419073,0 35.167083,-17.4721 35.167083,-39.017 0,-21.54484 -15.74801,-39.01679 -35.167083,-39.01679 z m -0.09165,16.25707 c -1.623525,0 -2.930565,1.44989 -2.930565,3.25158 l 0,19.50814 c 0,1.8012 1.30704,3.2517 2.930585,3.2517 l 14.652948,0 c 1.623555,0 2.930591,-1.4505 2.930591,-3.2517 0,-1.8007 -1.307036,-3.2511 -2.930591,-3.2511 l -11.722356,0 0,-16.25704 c 0,-1.80169 -1.307048,-3.25158 -2.930592,-3.25158 z"
         id="path3772-3-2-7"
         style="opacity:0;fill:none;stroke:#ffffff;stroke-width:3.55477476;stroke-miterlimit:4;stroke-opacity:1;stroke-dasharray:none;display:inline"
         inkscape:connector-curvature="0" />
      <path
         d="m 49.898652,967.16559 c -20.078747,0 -36.363598,17.03384 -36.379743,38.06921 l -7.6738619,0 12.6950189,23.0784 12.742393,-23.0784 -8.194919,0 c 0.01608,-15.49564 12.018962,-28.04328 26.811112,-28.04328 14.802212,0 26.811125,12.58282 26.811125,28.09208 0,15.5094 -12.008913,28.0923 -26.811125,28.0923 l 0,10.0258 c 20.088715,0 36.37976,-17.0694 36.37976,-38.1181 0,-21.04898 -16.291045,-38.11801 -36.37976,-38.11801 z m -0.09477,15.88321 c -1.679532,0 -3.031638,1.41565 -3.031638,3.1761 l 0,19.0587 c 0,1.7601 1.352106,3.1762 3.031638,3.1762 l 15.15823,0 c 1.679532,0 3.031645,-1.4161 3.031645,-3.1762 0,-1.7598 -1.352113,-3.1765 -3.031645,-3.1765 l -12.126581,0 0,-15.8822 c 0,-1.76045 -1.352127,-3.1761 -3.031649,-3.1761 z"
         id="path3772-3-2"
         style="opacity:0;fill:#000000;fill-opacity:1;stroke:#000000;stroke-width:3.57365298;stroke-miterlimit:4;stroke-opacity:1;stroke-dasharray:none;display:inline"
         inkscape:connector-curvature="0" />
      <path
         d="m 50,966.22182 c -20.076031,0 -36.358666,17.01556 -36.374811,38.02868 l -7.6728146,0 12.6932956,23.0543 12.740655,-23.0543 -8.193806,0 C 23.208599,988.77147 35.209854,976.23649 50,976.23649 c 14.800198,0 26.807485,12.57015 26.807485,28.06321 0,15.4929 -12.007287,28.0625 -26.807485,28.0625 l 0,10.0147 c 20.085986,0 36.37482,-17.0511 36.37482,-38.0772 0,-21.02714 -16.288834,-38.07788 -36.37482,-38.07788 z m -0.09477,15.86633 c -1.679306,0 -3.031239,1.41424 -3.031239,3.17281 l 0,19.03874 c 0,1.758 1.351933,3.1727 3.031239,3.1727 l 15.156171,0 c 1.679304,0 3.031232,-1.4147 3.031232,-3.1727 0,-1.7582 -1.351928,-3.1738 -3.031232,-3.1738 l -12.124936,0 0,-15.86494 c 0,-1.75857 -1.351932,-3.17281 -3.031235,-3.17281 z"
         id="path3772"
         style="fill:url(#linearGradient3830);fill-opacity:1;fill-rule:evenodd;stroke:none;display:inline"
         inkscape:connector-curvature="0" />
      <path
         inkscape:connector-curvature="0"
         id="path3772-5"
         d="m 50.014573,966.1782 c -20.076032,0 -36.339182,17.03244 -36.35533,38.0454 l -7.6635892,0 2.3364581,4.2587 5.4205901,0 c 0.01608,-21.65045 16.211103,-39.20637 36.16841,-39.20637 19.967205,0 36.074946,17.54091 36.074946,39.20637 0,0.4503 -0.07951,0.9073 -0.09343,1.3556 0.25393,-1.8154 0.467291,-3.7253 0.467291,-5.6143 0,-21.02703 -16.269337,-38.0454 -36.355329,-38.0454 z m -0.09343,15.87617 c -1.679309,0 -2.990672,1.43629 -2.990672,3.19439 l 0,2.80738 c 0.340922,-1.40019 1.496571,-2.41993 2.897211,-2.41993 1.669366,0 2.990666,1.48038 2.990666,3.29146 l 0,16.36033 12.056148,0 c 0.983544,0 1.787137,0.4722 2.336455,1.259 0.547898,-0.5742 0.934577,-1.4448 0.934577,-2.3234 0,-1.7585 -1.404812,-3.0977 -3.08412,-3.0977 l -12.149594,0 0,-15.87714 c 0,-1.7581 -1.311361,-3.19439 -2.990671,-3.19439 z m -26.355275,22.16923 c -0.190132,1.387 -0.372405,2.8143 -0.37383,4.2587 l 5.887881,0 2.336462,-4.2587 -7.850511,0 z m 52.990923,3.7755 c -1.747581,13.7266 -12.953036,24.2985 -26.542198,24.2985 l 0,5.13 c 14.669197,-0.06 26.542198,-13.0143 26.542198,-28.9453 0,-0.1641 0.0026,-0.3189 0,-0.4832 z"
         style="opacity:0.3;fill:#000000;fill-opacity:1;fill-rule:evenodd;stroke:none;display:inline" />
    </g>
    <rect
       ry="25"
       rx="25"
       id="rect3003"
       style="opacity:0.15;fill:#ffffff;fill-opacity:1"
       height="92"
       width="92"
       y="958.36218"
       x="-96"
       clip-path="url(#clipPath3009)"
       transform="translate(98,0)" />
  </g>
</svg>
