<?xml version="1.0" encoding="UTF-8" standalone="no"?>
<!-- Created with Inkscape (http://www.inkscape.org/) -->

<svg
   xmlns:memaker="http://launchpad.net/memaker"
   xmlns:dc="http://purl.org/dc/elements/1.1/"
   xmlns:cc="http://creativecommons.org/ns#"
   xmlns:rdf="http://www.w3.org/1999/02/22-rdf-syntax-ns#"
   xmlns:svg="http://www.w3.org/2000/svg"
   xmlns="http://www.w3.org/2000/svg"
   xmlns:xlink="http://www.w3.org/1999/xlink"
   xmlns:sodipodi="http://sodipodi.sourceforge.net/DTD/sodipodi-0.dtd"
   xmlns:inkscape="http://www.inkscape.org/namespaces/inkscape"
   width="96"
   height="96"
   id="svg11037"
   version="1.1"
   inkscape:version="0.48.3.1 r9886"
   sodipodi:docname="memaker.svg">
  <defs
     id="defs11039">
    <linearGradient
       y2="1046.1001"
       x2="47.999954"
       y1="962.62189"
       x1="47.999954"
       gradientTransform="matrix(1.15,0,0,1.15,-7.1999462,-150.65291)"
       gradientUnits="userSpaceOnUse"
       id="linearGradient3886"
       xlink:href="#linearGradient3795"
       inkscape:collect="always" />
    <linearGradient
       id="linearGradient3795">
      <stop
         style="stop-color:#13a6fd;stop-opacity:1;"
         offset="0"
         id="stop3797" />
      <stop
         style="stop-color:#2975b6;stop-opacity:1;"
         offset="1"
         id="stop3799" />
    </linearGradient>
    <linearGradient
       y2="1046.1001"
       x2="47.999954"
       y1="962.62189"
       x1="47.999954"
       gradientTransform="matrix(1.15,0,0,1.15,-7.1999462,-150.65292)"
       gradientUnits="userSpaceOnUse"
       id="linearGradient11642"
       xlink:href="#linearGradient3795"
       inkscape:collect="always" />
    <clipPath
       clipPathUnits="userSpaceOnUse"
       id="clipPath3009">
      <path
         id="path3011"
         d="m -2,956.36218 -96,0 0,33.5624 96,25.68742 0,-59.24982 z"
         style="opacity:0.15;fill:#ffffff;fill-opacity:1;stroke:none"
         inkscape:connector-curvature="0" />
    </clipPath>
    <clipPath
       clipPathUnits="userSpaceOnUse"
       id="clipPath4146">
      <rect
         style="fill:#e9b96e;fill-opacity:1;fill-rule:nonzero;stroke:none"
         id="rect4148"
         transform="scale(1,-1)"
         y="-330.03705"
         x="74.599915"
         ry="17.804829"
         rx="17.804829"
         height="249.26759"
         width="249.26759" />
    </clipPath>
    <clipPath
       clipPathUnits="userSpaceOnUse"
       id="clipPath4146-5">
      <rect
         style="fill:#e9b96e;fill-opacity:1;fill-rule:nonzero;stroke:none"
         id="rect4148-1"
         transform="scale(1,-1)"
         y="-330.03705"
         x="74.599915"
         ry="17.804829"
         rx="17.804829"
         height="249.26759"
         width="249.26759" />
    </clipPath>
    <clipPath
       clipPathUnits="userSpaceOnUse"
       id="clipPath3234">
      <rect
         x="7.749999"
         y="7.75"
         width="80.5"
         height="80.5"
         style="opacity:0.6;fill:#000000;fill-opacity:1"
         id="rect3236"
         rx="21.875"
         ry="21.875" />
    </clipPath>
  </defs>
  <sodipodi:namedview
     id="base"
     pagecolor="#ffffff"
     bordercolor="#666666"
     borderopacity="1.0"
     inkscape:pageopacity="0.0"
     inkscape:pageshadow="2"
     inkscape:zoom="3.959798"
     inkscape:cx="29.118614"
     inkscape:cy="49.863109"
     inkscape:document-units="px"
     inkscape:current-layer="layer1"
     showgrid="false"
     inkscape:window-width="1366"
     inkscape:window-height="684"
     inkscape:window-x="0"
     inkscape:window-y="26"
     inkscape:window-maximized="1"
     showguides="true"
     inkscape:guide-bbox="true">
    <sodipodi:guide
       orientation="0,1"
       position="-24.748737,0"
       id="guide11064" />
    <sodipodi:guide
       orientation="0,1"
       position="-23.233509,96"
       id="guide11066" />
    <sodipodi:guide
       orientation="1,0"
       position="0,54.800776"
       id="guide11068" />
    <sodipodi:guide
       orientation="1,0"
       position="96,51.012704"
       id="guide11070" />
    <sodipodi:guide
       orientation="0,1"
       position="-18.94036,48"
       id="guide11072" />
    <sodipodi:guide
       orientation="1,0"
       position="48,79.296975"
       id="guide11074" />
    <sodipodi:guide
       orientation="1,0"
       position="2,75.508903"
       id="guide11076" />
    <sodipodi:guide
       orientation="0,1"
       position="-77.27667,2"
       id="guide11078" />
    <sodipodi:guide
       orientation="1,0"
       position="94,77.781746"
       id="guide11080" />
    <sodipodi:guide
       orientation="0,1"
       position="-65.912454,94"
       id="guide11082" />
  </sodipodi:namedview>
  <metadata
     id="metadata11042">
    <rdf:RDF>
      <cc:Work
         rdf:about="">
        <dc:format>image/svg+xml</dc:format>
        <dc:type
           rdf:resource="http://purl.org/dc/dcmitype/StillImage" />
        <dc:title />
      </cc:Work>
    </rdf:RDF>
  </metadata>
  <g
     inkscape:label="Layer 1"
     inkscape:groupmode="layer"
     id="layer1"
     transform="translate(0,-956.36218)">
    <g
       transform="matrix(1.1428571,0,0,1.1428571,-6.8571415,949.50504)"
       style="display:inline"
       id="g3231"
       clip-path="url(#clipPath3234)">
      <rect
         width="84"
         height="84"
         rx="6"
         ry="6"
         x="6"
         y="-90"
         transform="scale(1,-1)"
         id="rect2419"
         style="fill:#e9b96e;fill-opacity:1;fill-rule:nonzero;stroke:none" />
      <rect
         style="fill:#dba44d;fill-opacity:1;fill-rule:nonzero;stroke:none"
         id="rect4150"
         transform="scale(1,-1)"
         y="-86.272362"
         x="45.325333"
         ry="5.4674802"
         rx="5.4674802"
         height="76.544724"
         width="40.947037" />
      <g
         transform="matrix(0.33698725,0,0,0.33698725,-19.139221,-21.218279)"
         id="g4070"
         memaker:file="hair"
         clip-path="url(#clipPath4146-5)">
        <sodipodi:namedview
           pagecolor="#ffffff"
           objecttolerance="10.0"
           inkscape:zoom="1.4142136"
           inkscape:window-y="0"
           inkscape:window-x="0"
           inkscape:window-width="1024"
           inkscape:window-height="711"
           inkscape:pageshadow="2"
           inkscape:pageopacity="0.0"
           inkscape:cy="306.78058"
           inkscape:cx="225.94927"
           inkscape:current-layer="layer4"
           id="namedview4072"
           guidetolerance="10.0"
           gridtolerance="10.0"
           borderopacity="1.0"
           bordercolor="#666666" />
        <metadata
           id="metadata4074">
          <rdf:RDF>
            <cc:Work
               rdf:about="">
              <dc:format>
						image/svg+xml
					</dc:format>
              <dc:type
                 rdf:resource="http://purl.org/dc/dcmitype/StillImage" />
            </cc:Work>
            <cc:Work
               rdf:about="">
              <dc:format>
						image/svg+xml
					</dc:format>
              <dc:type
                 rdf:resource="http://purl.org/dc/dcmitype/StillImage" />
            </cc:Work>
          </rdf:RDF>
        </metadata>
        <defs
           id="defs4076" />
        <g
           style="display:inline"
           inkscape:label="hair01"
           inkscape:groupmode="layer"
           id="g4078">
          <g
             transform="translate(0,23.739771)"
             id="g3428">
            <path
               d="m 200.78125,1.28125 c -20.96272,0 -41.05758,2.3294613 -59.4375,7.875 C 122.96329,14.701957 106.28452,23.485115 92.25,36.3125 78.215695,49.13969 66.866261,65.99452 59.09375,87.46875 c -7.772228,21.47346 -12.000002,47.55725 -12,79 A 3.8521248,3.8521248 0 0 0 53.625,169.25 l 39.03125,-37.71875 30.1875,37.34375 a 3.8521248,3.8521248 0 0 0 6,0 l 31.625,-39.4375 37.5,39.6875 a 3.8521248,3.8521248 0 0 0 5.90625,-0.34375 l 32.25,-42.875 36.625,43.0625 a 3.8521248,3.8521248 0 0 0 6.25,-0.5625 l 26.40625,-45.3125 42.34375,45.96875 a 3.8521248,3.8521248 0 0 0 6.6875,-2.59375 c 0,-31.44276 -4.22779,-57.52656 -12,-79 C 334.66499,65.994523 323.31558,49.139692 309.28125,36.3125 295.24673,23.485115 278.56796,14.701957 260.1875,9.15625 241.80878,3.6110686 221.74397,1.2812501 200.78125,1.28125 z"
               id="path4080"
               inkscape:original="M 200.78125 5.125 C 180.10557 5.125 160.39143 7.4361674 142.46875 12.84375 C 124.54609 18.251332 108.4028 26.763436 94.84375 39.15625 C 81.284698 51.549064 70.30358 67.825553 62.71875 88.78125 C 55.133921 109.73695 50.937498 135.37253 50.9375 166.46875 L 93 125.84375 L 125.84375 166.46875 L 160.25 123.5625 L 200.78125 166.46875 L 235.9375 119.71875 L 275.6875 166.46875 L 304.71875 116.65625 L 350.59375 166.46875 C 350.59375 135.37252 346.39731 109.73694 338.8125 88.78125 C 331.22767 67.825555 320.24657 51.549064 306.6875 39.15625 C 293.12845 26.763436 276.98516 18.251332 259.0625 12.84375 C 241.13983 7.4361674 221.45693 5.1250001 200.78125 5.125 z "
               inkscape:radius="3.8517396"
               sodipodi:type="inkscape:offset"
               style="fill:#242424;fill-opacity:1;stroke:#242424;stroke-width:5;stroke-linecap:round;stroke-linejoin:round;stroke-miterlimit:4;stroke-opacity:1;stroke-dasharray:none"
               transform="matrix(0.9575417,0,0,0.9575417,6.9922673,-16.057462)" />
            <path
               d="m 251.15625,30.03125 a 4.5981608,4.5981608 0 0 0 -4.1875,2.75 L 193.59375,154.75 a 4.5981608,4.5981608 0 0 0 8,4.46875 l 25.5,-36.625 c 1.17029,-1.55341 2.9538,-2.50468 4.90625,-2.5625 1.94416,-0.0576 3.83287,0.76772 5.09375,2.25 l 28,32.9375 a 4.5981608,4.5981608 0 0 0 7.46875,-0.65625 L 292.5,120.28125 c 1.01846,-1.75277 2.83803,-2.93492 4.875,-3.15625 2.02931,-0.2205 4.01767,0.5504 5.40625,2.0625 l 23.03125,24.96875 A 4.5981608,4.5981608 0 0 0 333.75,140.5 C 331.97963,124.88139 328.99125,110.97694 324.65625,99 317.71074,79.810641 307.8123,65.139042 295.625,54 283.43826,42.861476 268.8947,35.165317 252.5,30.21875 a 4.5981608,4.5981608 0 0 0 -1.34375,-0.1875 z"
               id="path4082"
               inkscape:original="M 251.1875 34.625 L 197.8125 156.59375 L 223.40625 119.8125 C 225.41711 117.14333 228.53461 115.53643 231.875 115.4375 C 235.21539 115.33856 238.42846 116.76701 240.59375 119.3125 L 268.59375 152.25 L 288.53125 117.96875 C 290.28921 114.9433 293.39637 112.94048 296.875 112.5625 C 300.35363 112.18452 303.78951 113.48524 306.15625 116.0625 L 329.1875 141.03125 C 327.44797 125.68468 324.51977 112.10021 320.34375 100.5625 C 313.61725 81.978228 304.15659 68.031671 292.53125 57.40625 C 280.90651 46.781386 267.04106 39.408296 251.1875 34.625 z "
               inkscape:radius="4.5977011"
               sodipodi:type="inkscape:offset"
               style="opacity:0.5;fill:#000000;fill-opacity:1;stroke:#000000;stroke-width:4.78770828;stroke-linecap:round;stroke-linejoin:round;stroke-miterlimit:4;stroke-opacity:1"
               transform="translate(0.7994501,-27.126729)" />
          </g>
        </g>
      </g>
      <g
         style="stroke:#c17d11;stroke-width:1.34904289;stroke-opacity:1"
         transform="matrix(1.0023879,0,0,0.76838782,-0.1229297,21.710754)"
         id="g3432">
        <rect
           style="fill:#ffffff;fill-opacity:1;stroke:#c17d11;stroke-width:1.34904289;stroke-linecap:square;stroke-linejoin:round;stroke-miterlimit:4;stroke-opacity:1;stroke-dasharray:none"
           id="rect3408"
           width="58.675934"
           height="26.382704"
           x="18.662033"
           y="59.889656"
           rx="10.287469"
           ry="10.287469" />
        <path
           sodipodi:nodetypes="cacccc"
           inkscape:connector-curvature="0"
           id="rect3410"
           d="m 18.662033,53.889656 c 0,0 19.4392,6 29.337967,6 9.898767,0 29.337967,-6 29.337967,-6 l 0,17.992139 -58.675934,0 z"
           style="fill:#ffffff;fill-opacity:1;stroke:#c17d11;stroke-width:1.34904289;stroke-linecap:square;stroke-linejoin:round;stroke-miterlimit:4;stroke-opacity:1" />
      </g>
      <g
         id="g4012"
         memaker:file="nose"
         transform="matrix(0.31050956,0,0,0.31050956,-14.202986,-43.835451)">
        <sodipodi:namedview
           showguides="true"
           pagecolor="#ffffff"
           objecttolerance="10.0"
           inkscape:zoom="2.5318656"
           inkscape:window-y="0"
           inkscape:window-x="0"
           inkscape:window-width="1024"
           inkscape:window-height="711"
           inkscape:pageshadow="2"
           inkscape:pageopacity="0.0"
           inkscape:guide-bbox="true"
           inkscape:cy="106.20627"
           inkscape:cx="177.77405"
           inkscape:current-layer="layer7"
           id="namedview4014"
           guidetolerance="10.0"
           gridtolerance="10.0"
           borderopacity="1.0"
           bordercolor="#666666" />
        <metadata
           id="metadata4016">
          <rdf:RDF>
            <cc:Work
               rdf:about="">
              <dc:format>
						image/svg+xml
					</dc:format>
              <dc:type
                 rdf:resource="http://purl.org/dc/dcmitype/StillImage" />
            </cc:Work>
            <cc:Work
               rdf:about="">
              <dc:format>
						image/svg+xml
					</dc:format>
              <dc:type
                 rdf:resource="http://purl.org/dc/dcmitype/StillImage" />
            </cc:Work>
          </rdf:RDF>
        </metadata>
        <defs
           id="defs4018" />
        <g
           style="display:inline"
           inkscape:label="nose01"
           inkscape:groupmode="layer"
           id="g4020">
          <g
             id="g4152">
            <path
               inkscape:connector-curvature="0"
               d="m 221.68128,294.23542 c 5.42283,4.21237 8.76141,10.00848 8.72749,16.38759 -0.0678,12.75824 -13.60021,23.04108 -30.20617,22.95277 -16.60596,-0.0883 -30.0282,-10.51451 -29.96035,-23.27275 0.0339,-6.37913 3.43398,-12.13939 8.90131,-16.29384"
               id="path4022"
               sodipodi:nodetypes="cssss"
               style="fill:#e9b96e;fill-opacity:1;stroke:#c17d11;stroke-width:4.78770828;stroke-linecap:round;stroke-linejoin:round;stroke-miterlimit:4;stroke-opacity:1" />
            <path
               d="m 182.84375,259.75 c -1.83956,1.9282 -2.6877,3.93454 -2.78125,5.96875 -0.12856,2.79567 1.12054,5.71034 4.53125,8.59375 3.41071,2.88341 8.87175,5.20669 15.25,5.5 6.38259,0.29352 12.05008,-1.53702 15.71875,-4.09375 3.66867,-2.55673 5.18435,-5.30702 5.3125,-8.09375 0.0932,-2.02716 -0.59804,-4.12222 -2.25,-6.21875 L 182.84375,259.75 z"
               id="path4024"
               inkscape:original="M 179.0625 248.59375 C 173.1812 252.69687 169.3998 258.56371 169.09375 265.21875 C 168.48166 278.52882 182.01953 289.98457 199.34375 290.78125 C 216.66797 291.57794 231.23167 281.43507 231.84375 268.125 C 232.14979 261.46997 228.91737 255.25059 223.4375 250.625 L 179.0625 248.59375 z "
               inkscape:radius="-10.991674"
               sodipodi:type="inkscape:offset"
               style="opacity:0.3580786;fill:#c17d11;fill-opacity:1;stroke:#c17d11;stroke-width:5;stroke-linecap:round;stroke-linejoin:round;stroke-miterlimit:4;stroke-opacity:1"
               transform="matrix(0.7434868,-0.3575088,0.3575088,0.7434868,-38.509698,186.83608)" />
          </g>
        </g>
      </g>
      <g
         transform="matrix(0.66836578,0,0,0.66836578,18.236475,8.8890293)"
         id="g3412">
        <g
           transform="translate(2,0)"
           id="g3186">
          <path
             d="m -36.781609,204.98085 c 0,9.94536 -8.062305,18.00766 -18.007663,18.00766 -9.945358,0 -18.007664,-8.0623 -18.007664,-18.00766 0,-9.94536 8.062306,-18.00766 18.007664,-18.00766 9.945358,0 18.007663,8.0623 18.007663,18.00766 z"
             id="path4038"
             sodipodi:cx="-54.789272"
             sodipodi:cy="204.98085"
             sodipodi:rx="18.007664"
             sodipodi:ry="18.007664"
             sodipodi:type="arc"
             style="fill:#eeeeec;fill-opacity:1;stroke:none"
             transform="matrix(0.54300942,0,0,0.54300942,59.696779,-60.379854)" />
          <path
             d="m -36.781609,204.98085 c 0,9.94536 -8.062305,18.00766 -18.007663,18.00766 -9.945358,0 -18.007664,-8.0623 -18.007664,-18.00766 0,-9.94536 8.062306,-18.00766 18.007664,-18.00766 9.945358,0 18.007663,8.0623 18.007663,18.00766 z"
             id="path4040"
             sodipodi:cx="-54.789272"
             sodipodi:cy="204.98085"
             sodipodi:rx="18.007664"
             sodipodi:ry="18.007664"
             sodipodi:type="arc"
             style="fill:#3465a4;fill-opacity:1;stroke:none"
             transform="matrix(0.31570316,0,0,0.31570316,50.299744,-13.786427)" />
          <path
             d="m -36.781609,204.98085 c 0,9.94536 -8.062305,18.00766 -18.007663,18.00766 -9.945358,0 -18.007664,-8.0623 -18.007664,-18.00766 0,-9.94536 8.062306,-18.00766 18.007664,-18.00766 9.945358,0 18.007663,8.0623 18.007663,18.00766 z"
             id="path4042"
             sodipodi:cx="-54.789272"
             sodipodi:cy="204.98085"
             sodipodi:rx="18.007664"
             sodipodi:ry="18.007664"
             sodipodi:type="arc"
             style="fill:#2e3436;fill-opacity:1;stroke:none"
             transform="matrix(0.15120524,0,0,0.15120524,41.287024,19.932504)" />
          <path
             d="m -36.781609,204.98085 c 0,9.94536 -8.062305,18.00766 -18.007663,18.00766 -9.945358,0 -18.007664,-8.0623 -18.007664,-18.00766 0,-9.94536 8.062306,-18.00766 18.007664,-18.00766 9.945358,0 18.007663,8.0623 18.007663,18.00766 z"
             id="path4050"
             sodipodi:cx="-54.789272"
             sodipodi:cy="204.98085"
             sodipodi:rx="18.007664"
             sodipodi:ry="18.007664"
             sodipodi:type="arc"
             style="fill:#eeeeec;fill-opacity:1;stroke:none"
             transform="matrix(0.10700675,0,0,0.10700675,40.343544,27.28682)" />
        </g>
        <g
           transform="translate(-2,0)"
           id="g3192">
          <path
             d="m -36.781609,204.98085 c 0,9.94536 -8.062305,18.00766 -18.007663,18.00766 -9.945358,0 -18.007664,-8.0623 -18.007664,-18.00766 0,-9.94536 8.062306,-18.00766 18.007664,-18.00766 9.945358,0 18.007663,8.0623 18.007663,18.00766 z"
             id="path4044"
             sodipodi:cx="-54.789272"
             sodipodi:cy="204.98085"
             sodipodi:rx="18.007664"
             sodipodi:ry="18.007664"
             sodipodi:type="arc"
             style="fill:#eeeeec;fill-opacity:1;stroke:none"
             transform="matrix(0.54300942,0,0,0.54300942,88.868984,-60.379854)" />
          <path
             d="m -36.781609,204.98085 c 0,9.94536 -8.062305,18.00766 -18.007663,18.00766 -9.945358,0 -18.007664,-8.0623 -18.007664,-18.00766 0,-9.94536 8.062306,-18.00766 18.007664,-18.00766 9.945358,0 18.007663,8.0623 18.007663,18.00766 z"
             id="path4046"
             sodipodi:cx="-54.789272"
             sodipodi:cy="204.98085"
             sodipodi:rx="18.007664"
             sodipodi:ry="18.007664"
             sodipodi:type="arc"
             style="fill:#3465a4;fill-opacity:1;stroke:none"
             transform="matrix(0.31570316,0,0,0.31570316,73.358128,-13.786427)" />
          <path
             d="m -36.781609,204.98085 c 0,9.94536 -8.062305,18.00766 -18.007663,18.00766 -9.945358,0 -18.007664,-8.0623 -18.007664,-18.00766 0,-9.94536 8.062306,-18.00766 18.007664,-18.00766 9.945358,0 18.007663,8.0623 18.007663,18.00766 z"
             id="path4048"
             sodipodi:cx="-54.789272"
             sodipodi:cy="204.98085"
             sodipodi:rx="18.007664"
             sodipodi:ry="18.007664"
             sodipodi:type="arc"
             style="fill:#2e3436;fill-opacity:1;stroke:none"
             transform="matrix(0.15120524,0,0,0.15120524,64.345408,19.932504)" />
          <path
             d="m -36.781609,204.98085 c 0,9.94536 -8.062305,18.00766 -18.007663,18.00766 -9.945358,0 -18.007664,-8.0623 -18.007664,-18.00766 0,-9.94536 8.062306,-18.00766 18.007664,-18.00766 9.945358,0 18.007663,8.0623 18.007663,18.00766 z"
             id="path4052"
             sodipodi:cx="-54.789272"
             sodipodi:cy="204.98085"
             sodipodi:rx="18.007664"
             sodipodi:ry="18.007664"
             sodipodi:type="arc"
             style="fill:#eeeeec;fill-opacity:1;stroke:none"
             transform="matrix(0.10700675,0,0,0.10700675,63.401928,27.28682)" />
        </g>
      </g>
    </g>
    <rect
       ry="25"
       rx="25"
       id="rect3003"
       style="opacity:0.15;fill:#ffffff;fill-opacity:1"
       height="92"
       width="92"
       y="958.36218"
       x="-96"
       clip-path="url(#clipPath3009)"
       transform="translate(98,0)" />
  </g>
</svg>
