<?xml version="1.0" encoding="UTF-8" standalone="no"?>
<!-- Created with Inkscape (http://www.inkscape.org/) -->

<svg
   xmlns:dc="http://purl.org/dc/elements/1.1/"
   xmlns:cc="http://creativecommons.org/ns#"
   xmlns:rdf="http://www.w3.org/1999/02/22-rdf-syntax-ns#"
   xmlns:svg="http://www.w3.org/2000/svg"
   xmlns="http://www.w3.org/2000/svg"
   xmlns:xlink="http://www.w3.org/1999/xlink"
   xmlns:sodipodi="http://sodipodi.sourceforge.net/DTD/sodipodi-0.dtd"
   xmlns:inkscape="http://www.inkscape.org/namespaces/inkscape"
   width="96"
   height="96"
   id="svg11037"
   version="1.1"
   inkscape:version="0.48.3.1 r9886"
   sodipodi:docname="monodoc-browser.svg">
  <defs
     id="defs11039">
    <linearGradient
       y2="1046.1001"
       x2="47.999954"
       y1="962.62189"
       x1="47.999954"
       gradientTransform="matrix(1.15,0,0,1.15,-7.1999462,-150.65291)"
       gradientUnits="userSpaceOnUse"
       id="linearGradient3886"
       xlink:href="#linearGradient3795"
       inkscape:collect="always" />
    <linearGradient
       id="linearGradient3795">
      <stop
         style="stop-color:#13a6fd;stop-opacity:1;"
         offset="0"
         id="stop3797" />
      <stop
         style="stop-color:#2975b6;stop-opacity:1;"
         offset="1"
         id="stop3799" />
    </linearGradient>
    <linearGradient
       y2="1046.1001"
       x2="47.999954"
       y1="962.62189"
       x1="47.999954"
       gradientTransform="matrix(1.15,0,0,1.15,-7.1999462,-150.65292)"
       gradientUnits="userSpaceOnUse"
       id="linearGradient11642"
       xlink:href="#linearGradient3795"
       inkscape:collect="always" />
    <clipPath
       clipPathUnits="userSpaceOnUse"
       id="clipPath3009">
      <path
         id="path3011"
         d="m -2,956.36218 -96,0 0,33.5624 96,25.68742 0,-59.24982 z"
         style="opacity:0.15;fill:#ffffff;fill-opacity:1;stroke:none"
         inkscape:connector-curvature="0" />
    </clipPath>
    <radialGradient
       inkscape:collect="always"
       xlink:href="#linearGradient3688"
       id="radialGradient3843"
       cx="52.987808"
       cy="85.094971"
       fx="52.987808"
       fy="85.094971"
       r="42"
       gradientUnits="userSpaceOnUse"
       gradientTransform="matrix(1.2480819,0,0,1.5584051,-11.568654,-46.593213)" />
    <linearGradient
       id="linearGradient3688">
      <stop
         id="stop3690"
         style="stop-color:#3e79a6;stop-opacity:1;"
         offset="0" />
      <stop
         id="stop3692"
         style="stop-color:#123766;stop-opacity:1;"
         offset="1" />
    </linearGradient>
    <radialGradient
       r="42"
       fy="85.094971"
       fx="52.987808"
       cy="85.094971"
       cx="52.987808"
       gradientTransform="matrix(1.4263793,0,0,1.7810344,-20.078464,896.25565)"
       gradientUnits="userSpaceOnUse"
       id="radialGradient3055"
       xlink:href="#linearGradient3688"
       inkscape:collect="always" />
    <radialGradient
       inkscape:collect="always"
       xlink:href="#linearGradient3855"
       id="radialGradient3861"
       cx="32.580364"
       cy="46.609951"
       fx="32.580364"
       fy="46.609951"
       r="34.268578"
       gradientTransform="matrix(0.78226328,1.3549197,-1.7089485,0.98666189,91.49939,-54.567665)"
       gradientUnits="userSpaceOnUse" />
    <linearGradient
       id="linearGradient3855">
      <stop
         style="stop-color:#ffffff;stop-opacity:1;"
         offset="0"
         id="stop3857" />
      <stop
         style="stop-color:#aaaaa7;stop-opacity:1;"
         offset="1"
         id="stop3859" />
    </linearGradient>
    <clipPath
       clipPathUnits="userSpaceOnUse"
       id="clipPath3849">
      <rect
         style="fill:url(#radialGradient3853);fill-opacity:1;fill-rule:nonzero;stroke:none"
         id="rect3851"
         y="6"
         x="6"
         ry="6"
         rx="6"
         height="84"
         width="84" />
    </clipPath>
    <radialGradient
       r="34.268578"
       fy="46.609951"
       fx="32.580364"
       cy="46.609951"
       cx="32.580364"
       gradientTransform="matrix(0.78226328,1.3549197,-1.7089485,0.98666189,91.49939,-54.567665)"
       gradientUnits="userSpaceOnUse"
       id="radialGradient3074"
       xlink:href="#linearGradient3855"
       inkscape:collect="always" />
    <radialGradient
       inkscape:collect="always"
       xlink:href="#linearGradient3688-0"
       id="radialGradient3843-5"
       cx="52.987808"
       cy="85.094971"
       fx="52.987808"
       fy="85.094971"
       r="42"
       gradientUnits="userSpaceOnUse"
       gradientTransform="matrix(1.2480819,0,0,1.5584051,-11.568654,-46.593213)" />
    <linearGradient
       id="linearGradient3688-0">
      <stop
         id="stop3690-6"
         style="stop-color:#7e8388;stop-opacity:1;"
         offset="0" />
      <stop
         id="stop3692-3"
         style="stop-color:#3d424a;stop-opacity:1;"
         offset="1" />
    </linearGradient>
    <radialGradient
       r="42"
       fy="85.094971"
       fx="52.987808"
       cy="85.094971"
       cx="52.987808"
       gradientTransform="matrix(1.4263793,0,0,1.7810344,-20.078462,896.25565)"
       gradientUnits="userSpaceOnUse"
       id="radialGradient3055-4"
       xlink:href="#linearGradient3688-0"
       inkscape:collect="always" />
    <clipPath
       clipPathUnits="userSpaceOnUse"
       id="clipPath3086">
      <rect
         ry="25"
         rx="25"
         id="rect3088"
         style="opacity:0.6;fill:#000000;fill-opacity:1"
         height="92"
         width="92"
         y="958.36218"
         x="2" />
    </clipPath>
  </defs>
  <sodipodi:namedview
     id="base"
     pagecolor="#ffffff"
     bordercolor="#666666"
     borderopacity="1.0"
     inkscape:pageopacity="0.0"
     inkscape:pageshadow="2"
     inkscape:zoom="3.959798"
     inkscape:cx="71.232963"
     inkscape:cy="51.875376"
     inkscape:document-units="px"
     inkscape:current-layer="layer1"
     showgrid="false"
     inkscape:window-width="1366"
     inkscape:window-height="684"
     inkscape:window-x="0"
     inkscape:window-y="26"
     inkscape:window-maximized="1"
     showguides="true"
     inkscape:guide-bbox="true">
    <sodipodi:guide
       orientation="0,1"
       position="-24.748737,0"
       id="guide11064" />
    <sodipodi:guide
       orientation="0,1"
       position="-23.233509,96"
       id="guide11066" />
    <sodipodi:guide
       orientation="1,0"
       position="0,54.800776"
       id="guide11068" />
    <sodipodi:guide
       orientation="1,0"
       position="96,51.012704"
       id="guide11070" />
    <sodipodi:guide
       orientation="0,1"
       position="-18.94036,48"
       id="guide11072" />
    <sodipodi:guide
       orientation="1,0"
       position="48,79.296975"
       id="guide11074" />
    <sodipodi:guide
       orientation="1,0"
       position="2,75.508903"
       id="guide11076" />
    <sodipodi:guide
       orientation="0,1"
       position="-77.27667,2"
       id="guide11078" />
    <sodipodi:guide
       orientation="1,0"
       position="94,77.781746"
       id="guide11080" />
    <sodipodi:guide
       orientation="0,1"
       position="-65.912454,94"
       id="guide11082" />
  </sodipodi:namedview>
  <metadata
     id="metadata11042">
    <rdf:RDF>
      <cc:Work
         rdf:about="">
        <dc:format>image/svg+xml</dc:format>
        <dc:type
           rdf:resource="http://purl.org/dc/dcmitype/StillImage" />
        <dc:title></dc:title>
      </cc:Work>
    </rdf:RDF>
  </metadata>
  <g
     inkscape:label="Layer 1"
     inkscape:groupmode="layer"
     id="layer1"
     transform="translate(0,-956.36218)">
    <rect
       width="96"
       height="96"
       rx="6.8571429"
       ry="6.8571429"
       x="0"
       y="956.36218"
       id="rect2419-3"
       style="fill:url(#radialGradient3055-4);fill-opacity:1;fill-rule:nonzero;stroke:none"
       clip-path="url(#clipPath3086)" />
    <path
       transform="matrix(0.94839064,0,0,0.94839064,-3.6903439,947.00702)"
       sodipodi:nodetypes="sssssssssscccccccssscccsssssccccssssss"
       inkscape:connector-curvature="0"
       id="path3062"
       d="m 42.585887,14.565399 c -1.123733,0.0034 -2.110004,0.06887 -2.979414,0.15961 -3.006655,0.313835 -6.113537,1.024201 -7.076109,1.649321 -0.271314,0.176194 1.662648,0.662949 5.001159,1.276892 2.997103,0.551153 5.169233,1.053263 4.841548,1.117279 -0.327684,0.06402 -4.999542,-0.420728 -10.427949,-1.117279 -9.530007,-1.222857 -9.9238,-1.29236 -10.587563,-0.691651 -1.383946,1.252455 -3.367538,4.712274 -3.777471,6.54407 -0.396892,1.773497 -0.350975,1.972658 0.532038,3.777472 1.505081,3.076277 4.272277,5.291548 10.640766,8.512613 3.011438,1.523135 5.409646,2.836956 5.320382,2.926211 -0.08922,0.08925 -2.641021,-0.866141 -5.69281,-2.128152 l -5.533198,-2.287767 -8.140185,2.287767 c -4.478179,1.253185 -8.5195421,2.287763 -8.7032952,2.287763 l -0.1293918,51.766473 7.236574,0 c 0,-0.534142 17.872229,-22.266629 18.248912,-22.185146 0.21518,0.04655 8.178832,3.457914 17.716874,7.554945 16.289803,6.997226 17.382805,7.400337 17.823282,6.81009 0.666129,-0.892642 2.989494,-5.686092 4.203102,-8.725429 l 1.010873,-2.553783 -1.755726,-0.95767 c -2.458204,-1.344279 -6.0421,-4.344949 -8.299798,-6.916496 -2.060223,-2.346619 -5.799218,-8.039303 -5.799218,-8.831835 0,-0.262327 1.217016,0.940111 2.660193,2.660191 4.053706,4.831489 13.405952,12.408333 13.992607,11.332415 0.696143,-1.276745 1.139582,-5.049692 1.11728,-9.417078 -0.02723,-5.331731 -0.771738,-9.487 -2.606989,-15.216296 l -1.01087,-3.192227 -5.054364,-1.596115 -6.224849,-1.968542 c -2.196714,-0.690563 -0.875045,-0.664929 2.340969,0.05319 3.845283,0.858657 7.796549,1.61092 10.215136,1.915337 2.129531,0.268038 2.592089,-0.183829 2.819802,-2.553782 C 74.798531,33.836092 72.857587,25.477215 70.890323,21.322278 70.105152,19.66399 69.748901,19.328553 68.176928,18.608885 63.598265,16.512705 50.451983,14.541252 42.585887,14.565394 z"
       style="fill:url(#radialGradient3074);fill-opacity:1;stroke:none"
       clip-path="url(#clipPath3849)" />
    <rect
       ry="25"
       rx="25"
       id="rect3003"
       style="opacity:0.15;fill:#ffffff;fill-opacity:1"
       height="92"
       width="92"
       y="958.36218"
       x="-96"
       clip-path="url(#clipPath3009)"
       transform="translate(98,0)" />
  </g>
</svg>
