<?xml version="1.0" encoding="UTF-8" standalone="no"?>
<!-- Created with Inkscape (http://www.inkscape.org/) -->

<svg
   xmlns:dc="http://purl.org/dc/elements/1.1/"
   xmlns:cc="http://creativecommons.org/ns#"
   xmlns:rdf="http://www.w3.org/1999/02/22-rdf-syntax-ns#"
   xmlns:svg="http://www.w3.org/2000/svg"
   xmlns="http://www.w3.org/2000/svg"
   xmlns:xlink="http://www.w3.org/1999/xlink"
   xmlns:sodipodi="http://sodipodi.sourceforge.net/DTD/sodipodi-0.dtd"
   xmlns:inkscape="http://www.inkscape.org/namespaces/inkscape"
   width="96"
   height="96"
   id="svg11037"
   version="1.1"
   inkscape:version="0.48.3.1 r9886"
   sodipodi:docname="okular.svg">
  <defs
     id="defs11039">
    <linearGradient
       y2="1046.1001"
       x2="47.999954"
       y1="962.62189"
       x1="47.999954"
       gradientTransform="matrix(1.15,0,0,1.15,-7.1999462,-150.65291)"
       gradientUnits="userSpaceOnUse"
       id="linearGradient3886"
       xlink:href="#linearGradient3795"
       inkscape:collect="always" />
    <linearGradient
       id="linearGradient3795">
      <stop
         style="stop-color:#13a6fd;stop-opacity:1;"
         offset="0"
         id="stop3797" />
      <stop
         style="stop-color:#2975b6;stop-opacity:1;"
         offset="1"
         id="stop3799" />
    </linearGradient>
    <linearGradient
       y2="1046.1001"
       x2="47.999954"
       y1="962.62189"
       x1="47.999954"
       gradientTransform="matrix(1.15,0,0,1.15,-7.1999462,-150.65292)"
       gradientUnits="userSpaceOnUse"
       id="linearGradient11642"
       xlink:href="#linearGradient3795"
       inkscape:collect="always" />
    <clipPath
       clipPathUnits="userSpaceOnUse"
       id="clipPath3009">
      <path
         id="path3011"
         d="m -2,956.36218 -96,0 0,33.5624 96,25.68742 0,-59.24982 z"
         style="opacity:0.15;fill:#ffffff;fill-opacity:1;stroke:none"
         inkscape:connector-curvature="0" />
    </clipPath>
    <linearGradient
       x1="13.850985"
       y1="2.9298244"
       x2="87.412468"
       y2="86.937393"
       id="linearGradient3617"
       xlink:href="#ButtonColor"
       gradientUnits="userSpaceOnUse" />
    <linearGradient
       x1="10.31979"
       y1="21"
       x2="10.31979"
       y2="0.99929649"
       id="ButtonColor"
       gradientUnits="userSpaceOnUse">
      <stop
         id="stop3189"
         style="stop-color:#bcbcbc;stop-opacity:1;"
         offset="0" />
      <stop
         offset="0.31665367"
         style="stop-color:#f0f0f0;stop-opacity:1;"
         id="stop3911" />
      <stop
         id="stop3913"
         style="stop-color:#ececec;stop-opacity:1;"
         offset="0.75" />
      <stop
         id="stop3191"
         style="stop-color:#dcdcdc;stop-opacity:1;"
         offset="1" />
    </linearGradient>
    <radialGradient
       cx="48"
       cy="90.171875"
       r="42"
       fx="48"
       fy="90.171875"
       id="radialGradient3619"
       xlink:href="#linearGradient3737"
       gradientUnits="userSpaceOnUse"
       gradientTransform="matrix(1.1573129,0,0,0.99590774,-7.5510206,0.19713193)" />
    <linearGradient
       id="linearGradient3737">
      <stop
         id="stop3739"
         style="stop-color:#ffffff;stop-opacity:1"
         offset="0" />
      <stop
         id="stop3741"
         style="stop-color:#ffffff;stop-opacity:0"
         offset="1" />
    </linearGradient>
    <radialGradient
       r="42"
       fy="90.171875"
       fx="48"
       cy="90.171875"
       cx="48"
       gradientTransform="matrix(1.1573129,0,0,0.99590774,-7.5510206,0.19713193)"
       gradientUnits="userSpaceOnUse"
       id="radialGradient3219"
       xlink:href="#linearGradient3737"
       inkscape:collect="always" />
    <clipPath
       clipPathUnits="userSpaceOnUse"
       id="clipPath3036">
      <rect
         x="7.7500005"
         y="7.75"
         width="80.5"
         height="80.5"
         style="opacity:0.6;fill:#000000;fill-opacity:1"
         id="rect3038"
         rx="21.875"
         ry="21.875" />
    </clipPath>
    <filter
       color-interpolation-filters="sRGB"
       inkscape:collect="always"
       id="filter4837"
       x="-0.18714078"
       width="1.3742816"
       y="-0.29900974"
       height="1.5980195">
      <feGaussianBlur
         inkscape:collect="always"
         stdDeviation="1.7501982"
         id="feGaussianBlur4839" />
    </filter>
    <filter
       color-interpolation-filters="sRGB"
       inkscape:collect="always"
       id="filter4841"
       x="-0.1967949"
       width="1.3935899"
       y="-0.30751243"
       height="1.6150249">
      <feGaussianBlur
         inkscape:collect="always"
         stdDeviation="1.9077161"
         id="feGaussianBlur4843" />
    </filter>
  </defs>
  <sodipodi:namedview
     id="base"
     pagecolor="#ffffff"
     bordercolor="#666666"
     borderopacity="1.0"
     inkscape:pageopacity="0.0"
     inkscape:pageshadow="2"
     inkscape:zoom="3.959798"
     inkscape:cx="29.118614"
     inkscape:cy="49.863109"
     inkscape:document-units="px"
     inkscape:current-layer="layer1"
     showgrid="false"
     inkscape:window-width="1366"
     inkscape:window-height="684"
     inkscape:window-x="0"
     inkscape:window-y="26"
     inkscape:window-maximized="1"
     showguides="true"
     inkscape:guide-bbox="true">
    <sodipodi:guide
       orientation="0,1"
       position="-24.748737,0"
       id="guide11064" />
    <sodipodi:guide
       orientation="0,1"
       position="-23.233509,96"
       id="guide11066" />
    <sodipodi:guide
       orientation="1,0"
       position="0,54.800776"
       id="guide11068" />
    <sodipodi:guide
       orientation="1,0"
       position="96,51.012704"
       id="guide11070" />
    <sodipodi:guide
       orientation="0,1"
       position="-18.94036,48"
       id="guide11072" />
    <sodipodi:guide
       orientation="1,0"
       position="48,79.296975"
       id="guide11074" />
    <sodipodi:guide
       orientation="1,0"
       position="2,75.508903"
       id="guide11076" />
    <sodipodi:guide
       orientation="0,1"
       position="-77.27667,2"
       id="guide11078" />
    <sodipodi:guide
       orientation="1,0"
       position="94,77.781746"
       id="guide11080" />
    <sodipodi:guide
       orientation="0,1"
       position="-65.912454,94"
       id="guide11082" />
  </sodipodi:namedview>
  <metadata
     id="metadata11042">
    <rdf:RDF>
      <cc:Work
         rdf:about="">
        <dc:format>image/svg+xml</dc:format>
        <dc:type
           rdf:resource="http://purl.org/dc/dcmitype/StillImage" />
        <dc:title />
      </cc:Work>
    </rdf:RDF>
  </metadata>
  <g
     inkscape:label="Layer 1"
     inkscape:groupmode="layer"
     id="layer1"
     transform="translate(0,-956.36218)">
    <g
       transform="matrix(1.1428571,0,0,1.1428571,-6.8571429,949.50504)"
       id="background"
       style="display:inline"
       clip-path="url(#clipPath3036)">
      <rect
         width="84"
         height="84"
         rx="6"
         ry="6"
         x="6"
         y="6"
         id="rect2419"
         style="fill:url(#linearGradient3617);fill-opacity:1;fill-rule:nonzero;stroke:none" />
      <path
         style="fill:#328dc2;fill-opacity:1;stroke:none"
         d="m 53.493624,6.3681163 12.268537,0 c 0,0 -33.514047,38.9002337 -15.859327,54.7595607 C 67.557557,76.987004 90,48.859141 90,48.859141 l 0,11.370838 c 0,0 -20.023679,16.101237 -42.191792,4.787721 C 25.096276,53.426646 38.78559,22.708891 53.493624,6.3681163 z"
         id="path3915"
         inkscape:connector-curvature="0"
         sodipodi:nodetypes="ccsccsc" />
      <path
         d="M 12,90 C 8.676,90 6,87.324 6,84 L 6,82 6,14 6,12 c 0,-0.334721 0.04135,-0.6507 0.09375,-0.96875 0.0487,-0.295596 0.09704,-0.596915 0.1875,-0.875 C 6.29113,10.12587 6.302142,10.09265 6.3125,10.0625 6.411365,9.774729 6.5473802,9.515048 6.6875,9.25 6.8320918,8.976493 7.0031161,8.714385 7.1875,8.46875 7.3718839,8.223115 7.5612765,7.995278 7.78125,7.78125 8.221197,7.353194 8.72416,6.966724 9.28125,6.6875 9.559795,6.547888 9.8547231,6.440553 10.15625,6.34375 9.9000482,6.443972 9.6695391,6.580022 9.4375,6.71875 c -0.00741,0.0044 -0.023866,-0.0045 -0.03125,0 -0.031933,0.0193 -0.062293,0.04251 -0.09375,0.0625 -0.120395,0.0767 -0.2310226,0.163513 -0.34375,0.25 -0.1061728,0.0808 -0.2132809,0.161112 -0.3125,0.25 C 8.4783201,7.442683 8.3087904,7.626638 8.15625,7.8125 8.0486711,7.942755 7.9378561,8.077785 7.84375,8.21875 7.818661,8.25713 7.805304,8.30462 7.78125,8.34375 7.716487,8.446782 7.6510225,8.548267 7.59375,8.65625 7.4927417,8.850956 7.3880752,9.071951 7.3125,9.28125 7.30454,9.30306 7.288911,9.3218 7.28125,9.34375 7.2494249,9.4357 7.2454455,9.530581 7.21875,9.625 7.1884177,9.731618 7.1483606,9.828031 7.125,9.9375 7.0521214,10.279012 7,10.635705 7,11 l 0,2 0,68 0,2 c 0,2.781848 2.2181517,5 5,5 l 2,0 68,0 2,0 c 2.781848,0 5,-2.218152 5,-5 l 0,-2 0,-68 0,-2 C 89,10.635705 88.94788,10.279012 88.875,9.9375 88.83085,9.730607 88.78662,9.539842 88.71875,9.34375 88.71105,9.3218 88.69545,9.30306 88.6875,9.28125 88.62476,9.107511 88.549117,8.913801 88.46875,8.75 88.42717,8.6672 88.38971,8.580046 88.34375,8.5 88.28915,8.40279 88.216976,8.31165 88.15625,8.21875 88.06214,8.077785 87.951329,7.942755 87.84375,7.8125 87.700576,7.63805 87.540609,7.465502 87.375,7.3125 87.36383,7.3023 87.35502,7.29135 87.34375,7.28125 87.205364,7.155694 87.058659,7.046814 86.90625,6.9375 86.803679,6.86435 86.701932,6.784136 86.59375,6.71875 c -0.0074,-0.0045 -0.02384,0.0044 -0.03125,0 -0.232039,-0.138728 -0.462548,-0.274778 -0.71875,-0.375 0.301527,0.0968 0.596455,0.204138 0.875,0.34375 0.55709,0.279224 1.060053,0.665694 1.5,1.09375 0.219973,0.214028 0.409366,0.441865 0.59375,0.6875 0.184384,0.245635 0.355408,0.507743 0.5,0.78125 0.14012,0.265048 0.276135,0.524729 0.375,0.8125 0.01041,0.03078 0.02133,0.06274 0.03125,0.09375 0.09046,0.278085 0.1388,0.579404 0.1875,0.875 C 89.95865,11.3493 90,11.665279 90,12 l 0,2 0,68 0,2 c 0,3.324 -2.676,6 -6,6 l -72,0 z"
         inkscape:connector-curvature="0"
         id="path3615"
         style="opacity:0.2;fill:url(#radialGradient3219);fill-opacity:1;fill-rule:nonzero;stroke:none" />
    </g>
    <rect
       ry="25"
       rx="25"
       id="rect3003"
       style="opacity:0.15;fill:#ffffff;fill-opacity:1"
       height="92"
       width="92"
       y="958.36218"
       x="-96"
       clip-path="url(#clipPath3009)"
       transform="translate(98,0)" />
    <g
       id="g4845"
       transform="translate(-130.51835,945.18919)">
      <path
         style="fill:#808080;stroke:none"
         d="m 213.61412,62.185745 -14.61036,4.165766 0.42262,1.569709 14.72378,-4.009653 z"
         id="path4779"
         inkscape:connector-curvature="0"
         sodipodi:nodetypes="ccccc" />
      <path
         style="fill:#808080;stroke:none"
         d="m 140.59253,82.048586 13.91606,-3.622407 0.30187,1.50934 -14.46889,3.796199 z"
         id="path4781"
         inkscape:connector-curvature="0"
         sodipodi:nodetypes="ccccc" />
      <path
         style="fill:#000000;stroke:none"
         d="m 200.02812,68.07348 c -40.84626,13.432534 -41.71122,15.138539 -54.36998,27.955265 -1.42078,1.438503 -2.04781,2.823669 -4.16233,1.088633 -1.31675,-1.080438 -0.16307,-1.49466 2.10876,-4.006352 13.95145,-15.424513 30.7442,-19.525996 55.65143,-27.097027 0.70146,-0.21322 1.57943,1.793991 0.77212,2.059481 z"
         id="path4783"
         inkscape:connector-curvature="0"
         sodipodi:nodetypes="ssssss" />
      <path
         sodipodi:nodetypes="ssssss"
         inkscape:connector-curvature="0"
         id="path4785"
         d="m 154.87242,80.281151 c 42.03833,-9.034884 43.64645,-7.999257 61.04508,-3.330148 1.95276,0.52404 3.19351,1.402906 4.14231,-1.162496 0.59084,-1.597524 -0.6141,-1.372402 -3.8434,-2.392913 -19.83135,-6.267047 -36.39659,-1.326225 -61.71767,4.718071 -0.71311,0.170227 -0.45718,2.346053 0.37368,2.167486 z"
         style="fill:#000000;stroke:none" />
      <path
         inkscape:connector-curvature="0"
         style="fill:#808080;stroke:none"
         d="m 204.18074,58.410196 c -2.46642,0.06169 -5.2403,0.427254 -8.18436,1.206116 -8.45976,2.23809 -11.89386,5.239892 -13.41804,9.002794 -5.69978,-0.759426 -8.01117,0.488925 -11.41502,3.273743 -3.96322,-1.974033 -6.53041,-4.159887 -18.63019,-0.732284 -8.50443,2.40913 -12.80671,6.654182 -12.31961,10.855042 l -3.38143,0.603058 0.62459,2.261468 3.31682,-0.603058 c 1.71826,5.172645 8.56036,9.588332 21.86085,4.307557 11.83715,-4.699765 11.33597,-11.551372 9.26125,-15.744121 0,0 4.37482,-4.205739 10.42429,-2.886063 1.33359,7.793963 6.23286,11.952513 20.37474,7.947442 9.46106,-2.679424 12.73017,-6.94926 12.16885,-13.719568 l 3.12298,-0.753822 -0.47383,-2.390694 -3.0799,0.689209 c -0.89419,-2.060597 -4.82586,-3.452462 -10.25199,-3.316819 z m 1.05535,1.206116 c 4.14063,0.05148 7.88904,1.016466 8.33513,3.833726 0.75288,4.754833 0.22355,10.233963 -11.2858,13.547266 -9.48918,2.731742 -15.8813,1.953639 -18.19943,-4.415246 -2.10735,-5.789769 3.51815,-9.577601 12.16885,-11.888856 2.30417,-0.615616 5.76076,-1.116898 8.98125,-1.07689 z m -43.01095,10.768893 c 6.35439,0.02633 9.41565,3.051355 9.77815,5.169068 0.60648,3.543078 0.15452,8.64093 -11.93193,12.92267 -10.27978,3.641712 -16.26327,0.168463 -18.00559,-4.113717 -1.88741,-4.638762 0.75071,-9.551576 12.68575,-12.858057 2.8778,-0.797263 5.35548,-1.128745 7.47362,-1.119964 z"
         id="path4787" />
      <path
         inkscape:connector-curvature="0"
         style="opacity:0.4647303;fill:#ffffff;stroke:none;filter:url(#filter4837)"
         d="m 203.57022,62.028033 c 3.08212,0.03832 5.87228,0.756616 6.20433,2.85367 0.56042,3.539305 0.1664,7.617747 -8.40069,10.084036 -7.06336,2.033398 -11.8214,1.454209 -13.54692,-3.28653 -1.56862,-4.30967 2.61877,-7.129178 9.058,-8.849583 1.71513,-0.458239 4.28808,-0.831373 6.68528,-0.801593 z"
         id="path4789" />
      <path
         inkscape:connector-curvature="0"
         style="opacity:0.4647303;fill:#ffffff;stroke:none;filter:url(#filter4841)"
         d="m 160.92706,72.750311 c 4.82232,0.01998 7.14549,2.315656 7.42059,3.922777 0.46025,2.688822 0.11726,6.557554 -9.05508,9.806943 -7.80127,2.763675 -12.3421,0.127845 -13.66434,-3.121877 -1.43234,-3.520331 0.56971,-7.248638 9.62715,-9.757908 2.18394,-0.605039 4.06424,-0.856599 5.67168,-0.849935 z"
         id="path4791" />
    </g>
  </g>
</svg>
