<?xml version="1.0" encoding="UTF-8" standalone="no"?>
<!-- Created with Inkscape (http://www.inkscape.org/) -->

<svg
   xmlns:dc="http://purl.org/dc/elements/1.1/"
   xmlns:cc="http://creativecommons.org/ns#"
   xmlns:rdf="http://www.w3.org/1999/02/22-rdf-syntax-ns#"
   xmlns:svg="http://www.w3.org/2000/svg"
   xmlns="http://www.w3.org/2000/svg"
   xmlns:xlink="http://www.w3.org/1999/xlink"
   xmlns:sodipodi="http://sodipodi.sourceforge.net/DTD/sodipodi-0.dtd"
   xmlns:inkscape="http://www.inkscape.org/namespaces/inkscape"
   width="96"
   height="96"
   id="svg11037"
   version="1.1"
   inkscape:version="0.48.3.1 r9886"
   sodipodi:docname="openarena.svg">
  <defs
     id="defs11039">
    <linearGradient
       y2="1046.1001"
       x2="47.999954"
       y1="962.62189"
       x1="47.999954"
       gradientTransform="matrix(1.15,0,0,1.15,-7.1999462,-150.65291)"
       gradientUnits="userSpaceOnUse"
       id="linearGradient3886"
       xlink:href="#linearGradient3795"
       inkscape:collect="always" />
    <linearGradient
       id="linearGradient3795">
      <stop
         style="stop-color:#13a6fd;stop-opacity:1;"
         offset="0"
         id="stop3797" />
      <stop
         style="stop-color:#2975b6;stop-opacity:1;"
         offset="1"
         id="stop3799" />
    </linearGradient>
    <linearGradient
       y2="1046.1001"
       x2="47.999954"
       y1="962.62189"
       x1="47.999954"
       gradientTransform="matrix(1.15,0,0,1.15,-7.1999462,-150.65292)"
       gradientUnits="userSpaceOnUse"
       id="linearGradient11642"
       xlink:href="#linearGradient3795"
       inkscape:collect="always" />
    <clipPath
       clipPathUnits="userSpaceOnUse"
       id="clipPath3009">
      <path
         id="path3011"
         d="m -2,956.36218 -96,0 0,33.5624 96,25.68742 0,-59.24982 z"
         style="opacity:0.15;fill:#ffffff;fill-opacity:1;stroke:none"
         inkscape:connector-curvature="0" />
    </clipPath>
    <radialGradient
       cx="29.605604"
       cy="43.719692"
       r="43.796333"
       fx="29.605604"
       fy="43.719692"
       id="radialGradient14159"
       xlink:href="#linearGradient14161"
       gradientUnits="userSpaceOnUse"
       gradientTransform="matrix(1.2356952,-0.34568617,0.3873126,1.3844936,-25.640396,-7.7859395)" />
    <linearGradient
       id="linearGradient14161">
      <stop
         id="stop14163"
         style="stop-color:#aac7d6;stop-opacity:1"
         offset="0" />
      <stop
         id="stop14165"
         style="stop-color:#2b5660;stop-opacity:1"
         offset="1" />
    </linearGradient>
    <radialGradient
       cx="26.320644"
       cy="23.350534"
       r="33.181923"
       fx="26.320644"
       fy="23.350534"
       id="radialGradient14079"
       xlink:href="#linearGradient14011"
       gradientUnits="userSpaceOnUse"
       gradientTransform="matrix(1.0952651,0,0,1.0647175,1.2503599,2.5949482)" />
    <linearGradient
       id="linearGradient14011">
      <stop
         id="stop14013"
         style="stop-color:#ffffff;stop-opacity:1"
         offset="0" />
      <stop
         id="stop14015"
         style="stop-color:#c1e6ee;stop-opacity:1"
         offset="1" />
    </linearGradient>
    <radialGradient
       cx="26.320644"
       cy="23.350534"
       r="33.181923"
       fx="26.320644"
       fy="23.350534"
       id="radialGradient14075"
       xlink:href="#linearGradient14011"
       gradientUnits="userSpaceOnUse"
       gradientTransform="matrix(1.0952651,0,0,1.0647175,-0.21200571,1.9067761)" />
    <linearGradient
       id="linearGradient3225">
      <stop
         id="stop3227"
         style="stop-color:#ffffff;stop-opacity:1"
         offset="0" />
      <stop
         id="stop3229"
         style="stop-color:#c1e6ee;stop-opacity:1"
         offset="1" />
    </linearGradient>
    <radialGradient
       cx="26.320644"
       cy="23.350534"
       r="33.181923"
       fx="26.320644"
       fy="23.350534"
       id="radialGradient14071"
       xlink:href="#linearGradient14011"
       gradientUnits="userSpaceOnUse"
       gradientTransform="matrix(1.0952651,0,0,1.0647175,-1.6718391,1.2985122)" />
    <linearGradient
       id="linearGradient3232">
      <stop
         id="stop3234"
         style="stop-color:#ffffff;stop-opacity:1"
         offset="0" />
      <stop
         id="stop3236"
         style="stop-color:#c1e6ee;stop-opacity:1"
         offset="1" />
    </linearGradient>
    <radialGradient
       cx="26.320644"
       cy="23.350534"
       r="33.181923"
       fx="26.320644"
       fy="23.350534"
       id="radialGradient14067"
       xlink:href="#linearGradient14011"
       gradientUnits="userSpaceOnUse"
       gradientTransform="matrix(1.0855499,0,0,1.1195236,-2.0492981,-4.0285975)" />
    <linearGradient
       id="linearGradient3239">
      <stop
         id="stop3241"
         style="stop-color:#ffffff;stop-opacity:1"
         offset="0" />
      <stop
         id="stop3243"
         style="stop-color:#c1e6ee;stop-opacity:1"
         offset="1" />
    </linearGradient>
    <radialGradient
       cx="16.544779"
       cy="39.796417"
       r="41.493076"
       fx="16.544779"
       fy="39.796417"
       id="radialGradient14027"
       xlink:href="#linearGradient14019"
       gradientUnits="userSpaceOnUse"
       gradientTransform="matrix(1.096582,0,0,0.98698801,-1.5979286,0.51783075)" />
    <linearGradient
       id="linearGradient14019">
      <stop
         id="stop14021"
         style="stop-color:#ffffff;stop-opacity:1"
         offset="0" />
      <stop
         id="stop14023"
         style="stop-color:#4aa4dd;stop-opacity:1"
         offset="1" />
    </linearGradient>
    <radialGradient
       cx="-12.530236"
       cy="21.791805"
       r="22.262459"
       fx="-12.530236"
       fy="21.791805"
       id="radialGradient14037"
       xlink:href="#linearGradient14031"
       gradientUnits="userSpaceOnUse"
       gradientTransform="matrix(1,0,0,1.2349727,0,-5.1204788)" />
    <linearGradient
       id="linearGradient14031">
      <stop
         id="stop14033"
         style="stop-color:#ffffff;stop-opacity:1"
         offset="0" />
      <stop
         id="stop14035"
         style="stop-color:#ffffff;stop-opacity:0"
         offset="1" />
    </linearGradient>
    <radialGradient
       cx="26.320644"
       cy="23.350534"
       r="33.181923"
       fx="26.320644"
       fy="23.350534"
       id="radialGradient14017"
       xlink:href="#linearGradient14011"
       gradientUnits="userSpaceOnUse"
       gradientTransform="matrix(1,0,0,1.0339737,0,-1.5607664)" />
    <linearGradient
       id="linearGradient3254">
      <stop
         id="stop3256"
         style="stop-color:#ffffff;stop-opacity:1"
         offset="0" />
      <stop
         id="stop3258"
         style="stop-color:#c1e6ee;stop-opacity:1"
         offset="1" />
    </linearGradient>
    <linearGradient
       x1="34.107262"
       y1="8.4832563"
       x2="73.962151"
       y2="21.135145"
       id="linearGradient14063"
       xlink:href="#linearGradient14057"
       gradientUnits="userSpaceOnUse"
       gradientTransform="matrix(1.0169382,0,0,1.0168273,-0.30995337,0.1224103)" />
    <linearGradient
       id="linearGradient14057">
      <stop
         id="stop14059"
         style="stop-color:#000000;stop-opacity:1"
         offset="0" />
      <stop
         id="stop14061"
         style="stop-color:#000000;stop-opacity:0"
         offset="1" />
    </linearGradient>
    <linearGradient
       y2="21.135145"
       x2="73.962151"
       y1="8.4832563"
       x1="34.107262"
       gradientTransform="matrix(1.0169382,0,0,1.0168273,-0.30995337,0.1224103)"
       gradientUnits="userSpaceOnUse"
       id="linearGradient3285"
       xlink:href="#linearGradient14057"
       inkscape:collect="always" />
    <clipPath
       clipPathUnits="userSpaceOnUse"
       id="clipPath3122">
      <rect
         x="4.7677917"
         y="5.4675841"
         width="85.013702"
         height="84.449356"
         style="opacity:0.6;fill:#000000;fill-opacity:1"
         id="rect3124"
         rx="23.101549"
         ry="22.948195" />
    </clipPath>
  </defs>
  <sodipodi:namedview
     id="base"
     pagecolor="#ffffff"
     bordercolor="#666666"
     borderopacity="1.0"
     inkscape:pageopacity="0.0"
     inkscape:pageshadow="2"
     inkscape:zoom="3.959798"
     inkscape:cx="29.118614"
     inkscape:cy="49.863109"
     inkscape:document-units="px"
     inkscape:current-layer="layer1"
     showgrid="false"
     inkscape:window-width="1366"
     inkscape:window-height="684"
     inkscape:window-x="0"
     inkscape:window-y="26"
     inkscape:window-maximized="1"
     showguides="true"
     inkscape:guide-bbox="true">
    <sodipodi:guide
       orientation="0,1"
       position="-24.748737,0"
       id="guide11064" />
    <sodipodi:guide
       orientation="0,1"
       position="-23.233509,96"
       id="guide11066" />
    <sodipodi:guide
       orientation="1,0"
       position="0,54.800776"
       id="guide11068" />
    <sodipodi:guide
       orientation="1,0"
       position="96,51.012704"
       id="guide11070" />
    <sodipodi:guide
       orientation="0,1"
       position="-18.94036,48"
       id="guide11072" />
    <sodipodi:guide
       orientation="1,0"
       position="48,79.296975"
       id="guide11074" />
    <sodipodi:guide
       orientation="1,0"
       position="2,75.508903"
       id="guide11076" />
    <sodipodi:guide
       orientation="0,1"
       position="-77.27667,2"
       id="guide11078" />
    <sodipodi:guide
       orientation="1,0"
       position="94,77.781746"
       id="guide11080" />
    <sodipodi:guide
       orientation="0,1"
       position="-65.912454,94"
       id="guide11082" />
  </sodipodi:namedview>
  <metadata
     id="metadata11042">
    <rdf:RDF>
      <cc:Work
         rdf:about="">
        <dc:format>image/svg+xml</dc:format>
        <dc:type
           rdf:resource="http://purl.org/dc/dcmitype/StillImage" />
        <dc:title />
      </cc:Work>
    </rdf:RDF>
  </metadata>
  <g
     inkscape:label="Layer 1"
     inkscape:groupmode="layer"
     id="layer1"
     transform="translate(0,-956.36218)">
    <g
       transform="matrix(1.0821785,0,0,1.0894103,-3.1596017,952.40574)"
       id="g3184"
       clip-path="url(#clipPath3122)">
      <rect
         style="fill:url(#radialGradient14159);fill-opacity:1;fill-rule:nonzero;stroke:none"
         id="rect12887-4"
         y="3.6317241"
         x="4.0369492"
         ry="6.2421312"
         rx="6.256619"
         height="87.389839"
         width="87.592667" />
      <path
         inkscape:connector-curvature="0"
         style="opacity:0.06190479;fill:#c1e6ee;fill-opacity:1;stroke:none"
         id="path14106"
         d="M 26.436407,58.143069 13.463525,75.097359 26.15338,91.752791 39.73823,74.947925 z" />
      <path
         inkscape:connector-curvature="0"
         style="opacity:0.16666667;fill:#c1e6ee;fill-opacity:1;stroke:none"
         id="path14104"
         d="M 26.388527,58.021416 14.436747,74.66887 26.127777,91.022874 38.643356,74.52214 z" />
      <path
         inkscape:connector-curvature="0"
         style="opacity:0.03333333;fill:url(#radialGradient14079);fill-opacity:1;stroke:none"
         id="path14077"
         d="M 30.80732,19.193764 C 20.239337,45.74513 5.3243698,63.489316 6.2327692,88.916734 L 26.244756,53.259175 46.318321,90.848629 67.638774,83.4018 63.303426,72.288413 c 0,0 10.910925,-6.512383 10.105381,-22.555639 C 73.06235,26.431743 55.742881,18.851363 30.80732,19.193764 z m 8.479954,10.042256 c 0,0 -4.388564,-2.821772 9.31106,3.988896 17.064345,8.483416 2.219535,19.483683 2.219535,19.483683 z" />
      <path
         inkscape:connector-curvature="0"
         style="opacity:0.33809527;fill:#c1e6ee;fill-opacity:1;stroke:none"
         id="path14102"
         d="M 26.340646,57.899763 15.409969,73.994912 26.102173,89.806346 37.548481,73.85305 z" />
      <path
         inkscape:connector-curvature="0"
         style="opacity:0.10952382;fill:url(#radialGradient14075);fill-opacity:1;stroke:none"
         id="path14073"
         d="M 29.344954,18.505592 C 18.776971,45.056958 4.2921117,62.715122 5.2005111,88.14254 L 26.588842,51.624766 46.920471,89.988414 66.176408,82.713628 61.84106,71.600241 c 0,0 11.685119,-6.34034 10.879575,-22.383596 C 72.374178,25.915614 54.280515,18.163191 29.344954,18.505592 z m 8.479954,10.042256 c 0,0 -1.979962,-2.477686 11.719662,4.332982 17.064345,8.483416 1.789428,20.774006 1.789428,20.774006 z" />
      <path
         inkscape:connector-curvature="0"
         style="opacity:0.31904764;fill:url(#radialGradient14071);fill-opacity:1;stroke:none"
         id="path14069"
         d="M 27.885121,17.897328 C 17.317138,44.448694 3.4405422,62.228511 4.3489416,87.655929 L 26.588842,50.773196 47.528735,88.893539 64.716575,82.105364 60.381227,70.991977 c 0,0 12.293383,-5.732076 11.487839,-21.775332 C 71.522609,25.915614 52.820682,17.554927 27.885121,17.897328 z m 8.358301,9.433992 c 0,0 -0.426776,-1.293304 13.544454,4.941246 19.01079,8.483416 1.667775,22.72045 1.667775,22.72045 z" />
      <path
         inkscape:connector-curvature="0"
         style="opacity:0.54285709;fill:url(#radialGradient14067);fill-opacity:1;stroke:none"
         id="path14065"
         d="M 27.245489,13.424639 C 16.771245,41.342731 3.2588832,60.165676 4.1592251,86.901965 L 26.68415,49.14402 47.679451,87.819536 63.629669,81.577346 59.212202,70.659388 c 0,0 12.666636,-5.515474 11.868237,-22.384554 C 70.737053,23.774388 51.959868,13.064613 27.245489,13.424639 z m 7.922441,13.24539 c 0,0 1.867908,-1.104047 15.715212,5.451426 18.842162,8.920098 0.447246,24.65747 0.447246,24.65747 z" />
      <path
         inkscape:connector-curvature="0"
         style="opacity:0.03333333;fill:#dce4e9;fill-opacity:1;stroke:none"
         id="path13988"
         transform="matrix(0.65273727,0,0,0.66867991,19.803137,13.372154)"
         d="m 48.661113,66.073418 c -0.688974,0.84208 -18.029525,-11.573827 -18.854258,-10.86418 -0.824733,0.709648 8.865575,19.708264 7.930143,20.263916 -0.935432,0.555653 -12.98373,-17.0423 -14.001439,-16.657525 -1.017709,0.384775 1.590292,21.551914 0.521229,21.754121 -1.069063,0.202206 -6.371905,-20.455222 -7.45984,-20.441728 -1.087934,0.01349 -5.876803,20.796087 -6.9505523,20.620457 C 8.7726462,80.57285 10.854861,59.347539 9.8279222,58.988123 8.8009831,58.628707 -2.8071468,76.520067 -3.7560725,75.987786 -4.7049982,75.455504 4.511128,56.222395 3.6690484,55.533421 2.8269687,54.844447 -14.200311,67.686612 -14.909958,66.861879 -15.619606,66.037146 -0.3811694,51.116037 -0.93682235,50.180604 -1.4924753,49.245172 -21.885164,55.489187 -22.269939,54.471478 -22.654714,53.453769 -3.2319477,44.644365 -3.434154,43.575302 -3.6363603,42.506238 -24.934798,41.398983 -24.948291,40.311049 -24.961785,39.223114 -3.6973608,37.587959 -3.5217314,36.514209 -3.3461021,35.44046 -22.981383,27.115486 -22.621967,26.088547 -22.262552,25.061608 -1.7212732,30.797926 -1.1889916,29.849 -0.65671003,28.900074 -16.26053,14.361496 -15.571556,13.519416 -14.882581,12.677337 2.4579699,25.093243 3.2827026,24.383596 4.1074354,23.673949 -5.5828724,4.6753329 -4.6474401,4.11968 -3.7120079,3.564027 8.33629,21.161981 9.353999,20.777206 10.371708,20.39243 7.7637066,-0.77470896 8.8327698,-0.97691527 9.9018331,-1.1791216 15.204675,19.478306 16.29261,19.464813 c 1.087934,-0.01349 5.876802,-20.7960873 6.950552,-20.6204579 1.073749,0.17562942 -1.008466,21.4009409 0.01847,21.7603569 1.02694,0.359416 12.635069,-17.531945 13.583995,-16.9996634 0.948926,0.5322816 -8.2672,19.7653904 -7.425121,20.4543644 0.84208,0.688975 17.86936,-12.153191 18.579007,-11.328458 0.709648,0.824733 -14.528789,15.745843 -13.973136,16.681275 0.555653,0.935432 20.948341,-5.308583 21.333116,-4.290874 0.384776,1.017709 -19.037991,9.827114 -18.835784,10.896177 0.202206,1.069063 21.500644,2.176318 21.514137,3.264253 0.01349,1.087934 -21.250931,2.72309 -21.42656,3.796839 -0.175629,1.07375 19.459652,9.398724 19.100236,10.425663 -0.359416,1.026939 -20.900694,-4.709379 -21.432976,-3.760454 -0.532281,0.948926 15.071539,15.487505 14.382564,16.329584 z" />
      <path
         inkscape:connector-curvature="0"
         style="opacity:0.13809527;fill:#dce4e9;fill-opacity:1;stroke:none"
         id="path13986"
         transform="matrix(0.64029835,0,0,0.6833833,19.492807,12.184861)"
         d="m 48.661113,66.073418 c -0.688974,0.84208 -18.029525,-11.573827 -18.854258,-10.86418 -0.824733,0.709648 8.865575,19.708264 7.930143,20.263916 -0.935432,0.555653 -12.98373,-17.0423 -14.001439,-16.657525 -1.017709,0.384775 1.590292,21.551914 0.521229,21.754121 -1.069063,0.202206 -6.371905,-20.455222 -7.45984,-20.441728 -1.087934,0.01349 -5.876803,20.796087 -6.9505523,20.620457 C 8.7726462,80.57285 10.854861,59.347539 9.8279222,58.988123 8.8009831,58.628707 -2.8071468,76.520067 -3.7560725,75.987786 -4.7049982,75.455504 4.511128,56.222395 3.6690484,55.533421 2.8269687,54.844447 -14.200311,67.686612 -14.909958,66.861879 -15.619606,66.037146 -0.3811694,51.116037 -0.93682235,50.180604 -1.4924753,49.245172 -21.885164,55.489187 -22.269939,54.471478 -22.654714,53.453769 -3.2319477,44.644365 -3.434154,43.575302 -3.6363603,42.506238 -24.934798,41.398983 -24.948291,40.311049 -24.961785,39.223114 -3.6973608,37.587959 -3.5217314,36.514209 -3.3461021,35.44046 -22.981383,27.115486 -22.621967,26.088547 -22.262552,25.061608 -1.7212732,30.797926 -1.1889916,29.849 -0.65671003,28.900074 -16.26053,14.361496 -15.571556,13.519416 -14.882581,12.677337 2.4579699,25.093243 3.2827026,24.383596 4.1074354,23.673949 -5.5828724,4.6753329 -4.6474401,4.11968 -3.7120079,3.564027 8.33629,21.161981 9.353999,20.777206 10.371708,20.39243 7.7637066,-0.77470896 8.8327698,-0.97691527 9.9018331,-1.1791216 15.204675,19.478306 16.29261,19.464813 c 1.087934,-0.01349 5.876802,-20.7960873 6.950552,-20.6204579 1.073749,0.17562942 -1.008466,21.4009409 0.01847,21.7603569 1.02694,0.359416 12.635069,-17.531945 13.583995,-16.9996634 0.948926,0.5322816 -8.2672,19.7653904 -7.425121,20.4543644 0.84208,0.688975 17.86936,-12.153191 18.579007,-11.328458 0.709648,0.824733 -14.528789,15.745843 -13.973136,16.681275 0.555653,0.935432 20.948341,-5.308583 21.333116,-4.290874 0.384776,1.017709 -19.037991,9.827114 -18.835784,10.896177 0.202206,1.069063 21.500644,2.176318 21.514137,3.264253 0.01349,1.087934 -21.250931,2.72309 -21.42656,3.796839 -0.175629,1.07375 19.459652,9.398724 19.100236,10.425663 -0.359416,1.026939 -20.900694,-4.709379 -21.432976,-3.760454 -0.532281,0.948926 15.071539,15.487505 14.382564,16.329584 z" />
      <path
         inkscape:connector-curvature="0"
         style="opacity:0.27619048;fill:url(#radialGradient14027);fill-opacity:1;stroke:none"
         id="path13984"
         transform="matrix(0.6071279,0,0,0.67918233,18.665261,12.524088)"
         d="m 48.661113,66.073418 c -0.688974,0.84208 -18.029525,-11.573827 -18.854258,-10.86418 -0.824733,0.709648 8.865575,19.708264 7.930143,20.263916 -0.935432,0.555653 -12.98373,-17.0423 -14.001439,-16.657525 -1.017709,0.384775 1.590292,21.551914 0.521229,21.754121 -1.069063,0.202206 -6.371905,-20.455222 -7.45984,-20.441728 -1.087934,0.01349 -5.876803,20.796087 -6.9505523,20.620457 C 8.7726462,80.57285 10.854861,59.347539 9.8279222,58.988123 8.8009831,58.628707 -2.8071468,76.520067 -3.7560725,75.987786 -4.7049982,75.455504 4.511128,56.222395 3.6690484,55.533421 2.8269687,54.844447 -14.200311,67.686612 -14.909958,66.861879 -15.619606,66.037146 -0.3811694,51.116037 -0.93682235,50.180604 -1.4924753,49.245172 -21.885164,55.489187 -22.269939,54.471478 -22.654714,53.453769 -3.2319477,44.644365 -3.434154,43.575302 -3.6363603,42.506238 -24.934798,41.398983 -24.948291,40.311049 -24.961785,39.223114 -3.6973608,37.587959 -3.5217314,36.514209 -3.3461021,35.44046 -22.981383,27.115486 -22.621967,26.088547 -22.262552,25.061608 -1.7212732,30.797926 -1.1889916,29.849 -0.65671003,28.900074 -16.26053,14.361496 -15.571556,13.519416 -14.882581,12.677337 2.4579699,25.093243 3.2827026,24.383596 4.1074354,23.673949 -5.5828724,4.6753329 -4.6474401,4.11968 -3.7120079,3.564027 8.33629,21.161981 9.353999,20.777206 10.371708,20.39243 7.7637066,-0.77470896 8.8327698,-0.97691527 9.9018331,-1.1791216 15.204675,19.478306 16.29261,19.464813 c 1.087934,-0.01349 5.876802,-20.7960873 6.950552,-20.6204579 1.073749,0.17562942 -1.008466,21.4009409 0.01847,21.7603569 1.02694,0.359416 12.635069,-17.531945 13.583995,-16.9996634 0.948926,0.5322816 -8.2672,19.7653904 -7.425121,20.4543644 0.84208,0.688975 17.86936,-12.153191 18.579007,-11.328458 0.709648,0.824733 -14.528789,15.745843 -13.973136,16.681275 0.555653,0.935432 20.948341,-5.308583 21.333116,-4.290874 0.384776,1.017709 -19.037991,9.827114 -18.835784,10.896177 0.202206,1.069063 21.500644,2.176318 21.514137,3.264253 0.01349,1.087934 -21.250931,2.72309 -21.42656,3.796839 -0.175629,1.07375 19.459652,9.398724 19.100236,10.425663 -0.359416,1.026939 -20.900694,-4.709379 -21.432976,-3.760454 -0.532281,0.948926 15.071539,15.487505 14.382564,16.329584 z" />
      <path
         inkscape:connector-curvature="0"
         style="fill:url(#radialGradient14037);fill-opacity:1;stroke:none"
         id="path14029"
         transform="matrix(1.1311475,0,0,1.0884956,42.275338,19.725718)"
         d="m 9.7322226,21.791805 a 22.262459,27.493528 0 1 1 -44.5249176,0 22.262459,27.493528 0 1 1 44.5249176,0 z" />
      <path
         inkscape:connector-curvature="0"
         style="opacity:0.52380952;fill:#c1e6ee;fill-opacity:1;stroke:none"
         id="path14081"
         d="m 26.597658,58.629679 -9.84951,14.990539 9.634624,14.726294 10.314139,-14.85842 z" />
      <path
         inkscape:connector-curvature="0"
         style="fill:#113456;fill-opacity:1;stroke:none"
         id="path13942"
         d="m 27.053994,17.398394 c -13.663348,0.02726 -22.7287768,2.869547 -23.0249905,9.041435 -0.6725852,19.38846 0.2535077,43.85064 0.2535077,43.85064 L 4.01818,82.894655 l 0.1343528,2.616748 22.4060342,-38.42869 22.10389,38.84435 11.621992,-4.743665 -5.25797,-10.042249 c 0,0 11.916422,-3.075201 14.991172,-18.330237 C 72.554044,30.965846 49.826224,17.352945 27.053994,17.398394 z m 2.635533,7.935064 c 0,0 22.156255,1.806456 28.484927,11.420596 10.686283,16.233958 -9.001506,24.058437 -9.001506,24.058437 z m -5.93862,0.268509 -19.6650992,35.104699 c 0,0 -0.3111636,-22.423587 -0.2476256,-26.881489 0.1269637,-8.907903 19.9127238,-8.22321 19.9127248,-8.22321 z" />
      <path
         inkscape:connector-curvature="0"
         style="fill:url(#radialGradient14017);fill-opacity:1;stroke:none"
         id="path12688"
         d="M 26.537865,11.637488 C 1.9893877,11.996025 4.2855797,15.016404 4.0323767,19.384284 3.9446827,21.966068 3.9753157,24.633281 3.9324657,27.319756 3.6466671,45.237714 4.146099,64.134202 4.146099,64.134202 l -0.1672411,13.182002 0.059396,2.63317 22.5203071,-39.371561 22.10389,39.671831 11.621992,-4.844717 -5.25797,-10.256174 c 0,0 11.916422,-3.14071 14.991172,-18.720716 2.536399,-22.31042 -20.713093,-35.123062 -43.47978,-34.790549 z m 3.151662,6.727757 c 0,0 22.156255,1.844938 28.484927,11.663883 10.686283,16.579781 -9.001506,24.570941 -9.001506,24.570941 z m -5.93862,0.274229 -19.7600285,35.738672 c 0,0 -0.2021088,-22.737439 0.076483,-27.268342 0.5583461,-9.0807 19.6835435,-8.47033 19.6835455,-8.47033 z" />
      <path
         inkscape:connector-curvature="0"
         style="fill:#113456;fill-opacity:1;stroke:none"
         id="path13946"
         d="M 26.570113,57.840727 17.96676,72.29579 26.382748,86.827643 35.315196,72.303769 z" />
      <rect
         style="fill:#113456;fill-opacity:1;stroke:none"
         id="rect13948"
         y="66.671883"
         x="17.963285"
         ry="0"
         rx="6.3677826"
         height="5.6313558"
         width="17.361139" />
      <path
         inkscape:connector-curvature="0"
         style="fill:#c1e6ee;fill-opacity:1;stroke:none"
         id="path12692"
         d="m 26.552822,52.060429 -8.588146,14.622336 8.400781,14.36458 8.993274,-14.493461 z" />
      <path
         inkscape:connector-curvature="0"
         style="fill:#113456;fill-opacity:1;stroke:none"
         id="path13944"
         d="m 60.282642,75.426555 0.05714,5.713991 -3.649584,1.477648 -1.316675,-5.166554 z" />
      <path
         inkscape:connector-curvature="0"
         style="opacity:0.3142857;fill:none;stroke:url(#linearGradient3285);stroke-width:2.54220676;stroke-linecap:butt;stroke-linejoin:miter;stroke-miterlimit:4;stroke-opacity:1;stroke-dasharray:none"
         id="path14055"
         d="m 5.1305201,10.993646 c 0,0 0.9965822,0.116191 3.2602578,-0.322455 C 14.865527,9.4165451 28.829645,7.5613592 40.114295,9.6360858 61.029154,13.481364 73.978095,29.990618 75.462655,35.557112" />
    </g>
    <rect
       ry="25"
       rx="25"
       id="rect3003"
       style="opacity:0.15;fill:#ffffff;fill-opacity:1"
       height="92"
       width="92"
       y="958.36218"
       x="-96"
       clip-path="url(#clipPath3009)"
       transform="translate(98,0)" />
  </g>
</svg>
