<?xml version="1.0" encoding="UTF-8" standalone="no"?>
<!-- Created with Inkscape (http://www.inkscape.org/) -->

<svg
   xmlns:dc="http://purl.org/dc/elements/1.1/"
   xmlns:cc="http://creativecommons.org/ns#"
   xmlns:rdf="http://www.w3.org/1999/02/22-rdf-syntax-ns#"
   xmlns:svg="http://www.w3.org/2000/svg"
   xmlns="http://www.w3.org/2000/svg"
   xmlns:xlink="http://www.w3.org/1999/xlink"
   xmlns:sodipodi="http://sodipodi.sourceforge.net/DTD/sodipodi-0.dtd"
   xmlns:inkscape="http://www.inkscape.org/namespaces/inkscape"
   width="96"
   height="96"
   id="svg11037"
   version="1.1"
   inkscape:version="0.48.3.1 r9886"
   sodipodi:docname="pinta.svg">
  <defs
     id="defs11039">
    <linearGradient
       y2="1046.1001"
       x2="47.999954"
       y1="962.62189"
       x1="47.999954"
       gradientTransform="matrix(1.15,0,0,1.15,-7.1999462,-150.65291)"
       gradientUnits="userSpaceOnUse"
       id="linearGradient3886"
       xlink:href="#linearGradient3795"
       inkscape:collect="always" />
    <linearGradient
       id="linearGradient3795">
      <stop
         style="stop-color:#13a6fd;stop-opacity:1;"
         offset="0"
         id="stop3797" />
      <stop
         style="stop-color:#2975b6;stop-opacity:1;"
         offset="1"
         id="stop3799" />
    </linearGradient>
    <linearGradient
       y2="1046.1001"
       x2="47.999954"
       y1="962.62189"
       x1="47.999954"
       gradientTransform="matrix(1.15,0,0,1.15,-7.1999462,-150.65292)"
       gradientUnits="userSpaceOnUse"
       id="linearGradient11642"
       xlink:href="#linearGradient3795"
       inkscape:collect="always" />
    <clipPath
       clipPathUnits="userSpaceOnUse"
       id="clipPath3009">
      <path
         id="path3011"
         d="m -2,956.36218 -96,0 0,33.5624 96,25.68742 0,-59.24982 z"
         style="opacity:0.15;fill:#ffffff;fill-opacity:1;stroke:none"
         inkscape:connector-curvature="0" />
    </clipPath>
    <linearGradient
       x1="48"
       y1="90"
       x2="48"
       y2="5.9877172"
       id="linearGradient2969"
       xlink:href="#linearGradient3187"
       gradientUnits="userSpaceOnUse" />
    <linearGradient
       id="linearGradient3187">
      <stop
         id="stop3189"
         style="stop-color:#bd9c5b;stop-opacity:1"
         offset="0" />
      <stop
         id="stop3191"
         style="stop-color:#fadd96;stop-opacity:1"
         offset="1" />
    </linearGradient>
    <filter
       color-interpolation-filters="sRGB"
       id="filter3325">
      <feGaussianBlur
         id="feGaussianBlur3327"
         stdDeviation="2.32" />
    </filter>
    <linearGradient
       inkscape:collect="always"
       xlink:href="#linearGradient3737-0"
       id="linearGradient3125"
       gradientUnits="userSpaceOnUse"
       gradientTransform="translate(-40,0)"
       x1="48"
       y1="20.220806"
       x2="48"
       y2="138.66119" />
    <linearGradient
       id="linearGradient3737-0">
      <stop
         id="stop3739-6"
         style="stop-color:#ffffff;stop-opacity:1"
         offset="0" />
      <stop
         id="stop3741-1"
         style="stop-color:#ffffff;stop-opacity:0"
         offset="1" />
    </linearGradient>
    <clipPath
       id="clipPath2977">
      <path
         d="m -28,6 c -3.324,0 -6,2.676 -6,6 l 0,33.21875 c 2.18571,0.12257 4.56375,0.238058 5.75,0.4375 0.64556,0.108538 -0.10827,0.242057 -1.125,0.34375 -1.01673,0.101693 -2.31358,0.197367 -2.8125,0.28125 -0.60768,0.102166 -1.20065,0.155127 -1.8125,0.25 l 0,1.03125 c 0.37152,0.03564 0.69223,0.03125 0.90625,0.03125 0.79002,10e-7 1.13227,0.219783 1.28125,0.5625 0.14898,0.342717 0.09375,0.815139 0.09375,1.375 0,0.41983 -0.91575,0.671391 -1.125,1.375 -0.07478,0.251474 -0.61801,0.51087 -1.15625,0.75 l 0,2.1875 c 0.71848,0.02468 1.41156,0.05972 1.8125,0.3125 0.27517,0.173491 -0.76856,0.376316 -1.8125,0.5625 l 0,7.5 c 1.1115,0.178216 3.23164,0.89604 3.875,1.03125 1.0648,0.223782 1.18534,0.335965 0.84375,0.4375 -0.34159,0.101535 -1.1303,0.176786 -1.9375,0.3125 -0.95534,0.160617 -1.89421,0.456871 -2.78125,0.65625 L -34,84 c 0,3.324 2.676,6 6,6 l 12.5625,0 c 0.09318,-0.433081 0.15326,-0.905883 0.25,-1.40625 0.1371,-0.709071 0.22652,-1.344555 0.34375,-1.59375 0.02931,-0.0623 0.05898,-0.11418 0.09375,-0.125 0.10432,-0.03246 0.24356,0.19889 0.46875,0.78125 0.29726,0.768719 0.51235,1.624099 0.65625,2.34375 l 0.75,0 c 0.26973,-0.487886 0.55273,-1.110762 0.78125,-1.40625 0.09677,-0.125139 0.28119,0.103115 0.53125,0.34375 0.25006,0.240635 0.56576,0.485066 0.90625,0.375 0.63353,-0.20479 1.58152,-0.698195 2,-0.96875 0.13663,-0.08833 0.27138,-0.158324 0.375,-0.1875 0.10362,-0.02918 0.17609,-0.01753 0.25,0 0.14782,0.03506 0.23479,0.146168 0.34375,0.28125 0.21791,0.270164 0.44939,0.625 1.03125,0.625 0.46722,0 0.66007,-0.03138 0.78125,0.0625 0.12118,0.09388 0.1707,0.321145 0.375,0.875 l 8.6875,0 C 3.14083,89.413108 4.20094,87.869015 4.375,86.96875 4.56148,86.004238 4.59064,85.759698 4.65625,85.9375 c 0.06561,0.177802 0.16768,0.770965 0.4375,1.46875 0.10788,0.278977 0.21618,0.357332 0.3125,0.28125 0.09632,-0.07608 0.17078,-0.297106 0.25,-0.5625 0.15844,-0.530788 0.287,-1.268952 0.34375,-1.5625 0.12808,-0.662448 0.09732,-1.761071 0.09375,-2.25 -8.9e-4,-0.122232 -0.0058,-0.218192 0,-0.25 0.01738,-0.09543 0.08534,0.295908 0.28125,1.5625 0.16001,1.034452 0.55165,2.666984 0.71875,3.53125 0.16585,0.857781 0.26937,1.297378 0.375,1.84375 l 27.5625,0 c 0.03787,-0.489133 0.03582,-1.072063 0.0625,-1.46875 0.02001,-0.297515 0.06858,-0.486789 0.15625,-0.46875 0.02922,0.006 0.05177,0.03947 0.09375,0.09375 0.22802,0.29483 0.60721,1.142012 0.9375,1.84375 L 44,90 c 3.324,0 6,-2.676 6,-6 l 0,-7.0625 c -0.16548,0.0045 -0.29499,0 -0.5,0 -1.29937,0 -2.57564,0 -3.875,0 -1.19804,0 -1.996,-0.0017 -2.1875,-0.0625 -0.1915,-0.06081 0.23046,-0.186909 1.4375,-0.5 0.6398,-0.165955 3.26183,-0.901716 5.125,-1.3125 l 0,-37.96875 c -0.63757,-0.263204 -1.18841,-0.49357 -1.71875,-0.90625 -0.1392,-0.108324 -0.42969,-0.363223 -0.9375,-0.53125 -0.50781,-0.168027 -1.23505,-0.253867 -2.21875,-0.0625 -1.49781,0.291384 -1.64422,0.281974 -1.21875,0.15625 0.42547,-0.125724 1.42431,-0.382779 2.1875,-0.53125 C 47.21966,34.999712 48.75193,34.038229 50,33.40625 L 50,28.875 C 49.31793,28.620057 48.60142,28.342045 48.28125,27.84375 48.07642,27.524969 47.99109,27.329414 48,27.21875 c 0.0089,-0.110664 0.10446,-0.149576 0.21875,-0.1875 0.11429,-0.03792 0.26368,-0.05569 0.375,-0.15625 0.11132,-0.100562 0.1875,-0.295173 0.1875,-0.59375 0,-0.319121 0.082,-0.861922 0.0625,-1.375 -0.0097,-0.256539 -0.03769,-0.499478 -0.125,-0.6875 -0.08731,-0.188022 -0.22417,-0.333499 -0.4375,-0.375 -0.56121,-0.109178 -0.81824,-0.234978 -0.875,-0.34375 -0.05676,-0.108772 0.07694,-0.190451 0.28125,-0.28125 0.40861,-0.181598 1.10111,-0.308199 1.09375,-0.3125 -0.65315,-0.381187 -5.11642,-0.921785 -4.875,-0.96875 0.32484,-0.06319 0.64392,-0.124305 0.96875,-0.1875 1.02328,-0.199069 2.36966,-0.312207 3.65625,-0.5625 C 49.09118,21.07857 49.41673,20.934731 49.625,20.75 49.83327,20.565269 49.92108,20.35562 50,20.15625 L 50,12 C 50,8.676 47.324,6 44,6 L -6.03125,6 C -5.93692,7.381129 -5.83654,8.919032 -6.125,8.15625 -6.33053,7.612767 -6.45072,7.043483 -6.65625,6.5 -6.70825,6.362498 -6.75371,6.168523 -6.8125,6 l -1.96875,0 c -0.2351,0.486521 -0.45735,0.973378 -0.78125,1.1875 -0.49514,0.327333 -0.76026,0.462326 -1,0.375 C -10.80224,7.47517 -11.01662,7.16134 -11.375,6.6875 -11.53494,6.476035 -11.81687,6.253022 -12.125,6 L -18.78125,6 -20.0625,11.5 -21.75,6 -21.96875,6 -23.6875,14.84375 -25.0625,6 -28,6 z"
         inkscape:connector-curvature="0"
         id="path2979"
         style="fill:#ffffff;fill-opacity:1;fill-rule:nonzero;stroke:none;display:inline" />
    </clipPath>
    <filter
       x="-0.192"
       y="-0.192"
       width="1.3839999"
       height="1.3839999"
       color-interpolation-filters="sRGB"
       id="filter3794">
      <feGaussianBlur
         id="feGaussianBlur3796"
         stdDeviation="5.28" />
    </filter>
    <radialGradient
       r="14.407301"
       fy="42.343147"
       fx="26.78167"
       cy="42.343147"
       cx="26.78167"
       gradientTransform="matrix(1,0,0,0.282209,0,30.39355)"
       gradientUnits="userSpaceOnUse"
       id="radialGradient3136"
       xlink:href="#linearGradient6975"
       inkscape:collect="always" />
    <linearGradient
       inkscape:collect="always"
       id="linearGradient6975">
      <stop
         style="stop-color:#000000;stop-opacity:1;"
         offset="0"
         id="stop6977" />
      <stop
         style="stop-color:#000000;stop-opacity:0;"
         offset="1"
         id="stop6979" />
    </linearGradient>
    <linearGradient
       inkscape:collect="always"
       xlink:href="#linearGradient6951"
       id="linearGradient6957"
       x1="28.058632"
       y1="18.867767"
       x2="33.436985"
       y2="23.742767"
       gradientUnits="userSpaceOnUse"
       gradientTransform="matrix(1.2476163,0,0,1.2959585,9.3891,15.620067)" />
    <linearGradient
       id="linearGradient6951">
      <stop
         style="stop-color:#6e3d09;stop-opacity:1;"
         offset="0"
         id="stop6953" />
      <stop
         id="stop6959"
         offset="0.24242425"
         style="stop-color:#ea8113;stop-opacity:1;" />
      <stop
         style="stop-color:#5c3307;stop-opacity:1;"
         offset="0.62121212"
         id="stop6961" />
      <stop
         style="stop-color:#e07c12;stop-opacity:1;"
         offset="1"
         id="stop6955" />
    </linearGradient>
    <linearGradient
       inkscape:collect="always"
       xlink:href="#linearGradient6939"
       id="linearGradient6945"
       x1="19.394735"
       y1="30.001331"
       x2="23.109331"
       y2="33.438831"
       gradientUnits="userSpaceOnUse"
       gradientTransform="matrix(1.2476163,0,0,1.2959585,9.3891,15.620067)" />
    <linearGradient
       id="linearGradient6939">
      <stop
         style="stop-color:#bdbdbd;stop-opacity:1;"
         offset="0"
         id="stop6941" />
      <stop
         id="stop6947"
         offset="0.33333334"
         style="stop-color:#e2e2e2;stop-opacity:1;" />
      <stop
         style="stop-color:#a3a3a3;stop-opacity:1;"
         offset="0.66666669"
         id="stop6949" />
      <stop
         style="stop-color:#dddddd;stop-opacity:1;"
         offset="1"
         id="stop6943" />
    </linearGradient>
    <radialGradient
       inkscape:collect="always"
       xlink:href="#linearGradient6963"
       id="radialGradient6969"
       cx="15.415101"
       cy="35.356506"
       fx="15.415101"
       fy="35.356506"
       r="7.5791559"
       gradientTransform="matrix(1.2409478,0,0,1.2562012,8.5456277,18.171519)"
       gradientUnits="userSpaceOnUse" />
    <linearGradient
       id="linearGradient6963">
      <stop
         style="stop-color:#696969;stop-opacity:1;"
         offset="0"
         id="stop6965" />
      <stop
         style="stop-color:#000000;stop-opacity:1;"
         offset="1"
         id="stop6967" />
    </linearGradient>
    <linearGradient
       inkscape:collect="always"
       xlink:href="#linearGradient2446"
       id="linearGradient2452"
       x1="13.236155"
       y1="37.752247"
       x2="7.7521091"
       y2="42.282146"
       gradientUnits="userSpaceOnUse"
       gradientTransform="matrix(1.0633409,0,0,1.1045429,12.173583,22.821493)" />
    <linearGradient
       inkscape:collect="always"
       id="linearGradient2446">
      <stop
         style="stop-color:#ffffff;stop-opacity:1;"
         offset="0"
         id="stop2448" />
      <stop
         style="stop-color:#ffffff;stop-opacity:0;"
         offset="1"
         id="stop2450" />
    </linearGradient>
    <linearGradient
       inkscape:collect="always"
       xlink:href="#linearGradient6721"
       id="linearGradient7025"
       gradientUnits="userSpaceOnUse"
       gradientTransform="matrix(0.862482,0,0,0.580718,-16.25697,11.01348)"
       x1="52.717937"
       y1="2.3161638"
       x2="67.465988"
       y2="2.3161638" />
    <linearGradient
       id="linearGradient6721">
      <stop
         style="stop-color:#729fcf;stop-opacity:1;"
         offset="0"
         id="stop6723" />
      <stop
         style="stop-color:#3c74b1;stop-opacity:1;"
         offset="1"
         id="stop6725" />
    </linearGradient>
    <linearGradient
       inkscape:collect="always"
       xlink:href="#linearGradient6651"
       id="linearGradient7020"
       gradientUnits="userSpaceOnUse"
       gradientTransform="matrix(0.71944,0,0,0.718914,-7.696252,9.471728)"
       x1="53.168766"
       y1="24.244797"
       x2="69.690994"
       y2="24.244797" />
    <linearGradient
       id="linearGradient6651">
      <stop
         style="stop-color:#f2f2f2;stop-opacity:1;"
         offset="0"
         id="stop6653" />
      <stop
         style="stop-color:#c3c3c3;stop-opacity:1;"
         offset="1"
         id="stop6655" />
    </linearGradient>
    <linearGradient
       inkscape:collect="always"
       xlink:href="#linearGradient6629"
       id="linearGradient7017"
       gradientUnits="userSpaceOnUse"
       gradientTransform="matrix(0.888619,0,0,0.718914,-18.29768,9.471728)"
       x1="61.871845"
       y1="29.615223"
       x2="61.871845"
       y2="41.459263" />
    <linearGradient
       id="linearGradient6629">
      <stop
         style="stop-color:#aeaeae;stop-opacity:1;"
         offset="0"
         id="stop6631" />
      <stop
         style="stop-color:#c4c4c4;stop-opacity:0;"
         offset="1"
         id="stop6633" />
    </linearGradient>
    <linearGradient
       inkscape:collect="always"
       xlink:href="#linearGradient6748"
       id="linearGradient7014"
       gradientUnits="userSpaceOnUse"
       gradientTransform="matrix(0.718914,0,0,0.718914,-1.897103,-22.42481)"
       x1="49.853039"
       y1="64.259621"
       x2="62.768223"
       y2="64.259621" />
    <linearGradient
       id="linearGradient6748">
      <stop
         style="stop-color:#729fcf;stop-opacity:1;"
         offset="0"
         id="stop6750" />
      <stop
         style="stop-color:#2b5582;stop-opacity:1;"
         offset="1"
         id="stop6752" />
    </linearGradient>
    <linearGradient
       inkscape:collect="always"
       xlink:href="#linearGradient6651"
       id="linearGradient7010"
       gradientUnits="userSpaceOnUse"
       gradientTransform="matrix(0.737307,0,0,0.770854,-8.532023,7.121636)"
       x1="60.168766"
       y1="40.119797"
       x2="60.440994"
       y2="43.869797" />
    <linearGradient
       id="linearGradient3299">
      <stop
         style="stop-color:#f2f2f2;stop-opacity:1;"
         offset="0"
         id="stop3301" />
      <stop
         style="stop-color:#c3c3c3;stop-opacity:1;"
         offset="1"
         id="stop3303" />
    </linearGradient>
    <linearGradient
       inkscape:collect="always"
       xlink:href="#linearGradient6835"
       id="linearGradient7005"
       gradientUnits="userSpaceOnUse"
       x1="48.25"
       y1="54.75"
       x2="48.25"
       y2="71.25"
       gradientTransform="matrix(0.718914,0,0,0.718914,-1.897103,-20.68606)" />
    <linearGradient
       inkscape:collect="always"
       id="linearGradient6835">
      <stop
         style="stop-color:#ffffff;stop-opacity:1;"
         offset="0"
         id="stop6837" />
      <stop
         style="stop-color:#ffffff;stop-opacity:0;"
         offset="1"
         id="stop6839" />
    </linearGradient>
    <clipPath
       clipPathUnits="userSpaceOnUse"
       id="clipPath3186">
      <rect
         x="7.4439936"
         y="7.136806"
         width="80.855057"
         height="81.155678"
         style="opacity:0.6;fill:#000000;fill-opacity:1"
         id="rect3188"
         rx="21.971483"
         ry="22.053173" />
    </clipPath>
  </defs>
  <sodipodi:namedview
     id="base"
     pagecolor="#ffffff"
     bordercolor="#666666"
     borderopacity="1.0"
     inkscape:pageopacity="0.0"
     inkscape:pageshadow="2"
     inkscape:zoom="3.959798"
     inkscape:cx="29.118614"
     inkscape:cy="59.964634"
     inkscape:document-units="px"
     inkscape:current-layer="layer1"
     showgrid="false"
     inkscape:window-width="1366"
     inkscape:window-height="684"
     inkscape:window-x="0"
     inkscape:window-y="26"
     inkscape:window-maximized="1"
     showguides="true"
     inkscape:guide-bbox="true">
    <sodipodi:guide
       orientation="0,1"
       position="-24.748737,0"
       id="guide11064" />
    <sodipodi:guide
       orientation="0,1"
       position="-23.233509,96"
       id="guide11066" />
    <sodipodi:guide
       orientation="1,0"
       position="0,54.800776"
       id="guide11068" />
    <sodipodi:guide
       orientation="1,0"
       position="96,51.012704"
       id="guide11070" />
    <sodipodi:guide
       orientation="0,1"
       position="-18.94036,48"
       id="guide11072" />
    <sodipodi:guide
       orientation="1,0"
       position="48,79.296975"
       id="guide11074" />
    <sodipodi:guide
       orientation="1,0"
       position="2,75.508903"
       id="guide11076" />
    <sodipodi:guide
       orientation="0,1"
       position="-77.27667,2"
       id="guide11078" />
    <sodipodi:guide
       orientation="1,0"
       position="94,77.781746"
       id="guide11080" />
    <sodipodi:guide
       orientation="0,1"
       position="-65.912454,94"
       id="guide11082" />
  </sodipodi:namedview>
  <metadata
     id="metadata11042">
    <rdf:RDF>
      <cc:Work
         rdf:about="">
        <dc:format>image/svg+xml</dc:format>
        <dc:type
           rdf:resource="http://purl.org/dc/dcmitype/StillImage" />
        <dc:title />
      </cc:Work>
    </rdf:RDF>
  </metadata>
  <g
     inkscape:label="Layer 1"
     inkscape:groupmode="layer"
     id="layer1"
     transform="translate(0,-956.36218)">
    <g
       transform="matrix(1.1378385,0,0,1.1336237,-6.4700627,950.27173)"
       id="g3205"
       clip-path="url(#clipPath3186)">
      <g
         style="display:inline"
         id="layer1-5">
        <path
           style="fill:url(#linearGradient2969);fill-opacity:1;fill-rule:nonzero;stroke:none"
           id="rect2419"
           inkscape:connector-curvature="0"
           d="M 12,6 C 8.676,6 6,8.676 6,12 l 0,33.21875 c 2.18571,0.12257 4.56375,0.238058 5.75,0.4375 C 12.39556,45.764788 11.64173,45.898307 10.625,46 9.60827,46.101693 8.31142,46.197367 7.8125,46.28125 7.20482,46.383416 6.61185,46.436377 6,46.53125 l 0,1.03125 c 0.37152,0.03564 0.69223,0.03125 0.90625,0.03125 0.79002,10e-7 1.13227,0.219783 1.28125,0.5625 0.14898,0.342717 0.09375,0.815139 0.09375,1.375 0,0.41983 -0.91575,0.671391 -1.125,1.375 C 7.08147,51.157724 6.53824,51.41712 6,51.65625 l 0,2.1875 c 0.71848,0.02468 1.41156,0.05972 1.8125,0.3125 C 8.08767,54.329741 7.04394,54.532566 6,54.71875 l 0,7.5 c 1.1115,0.178216 3.23164,0.89604 3.875,1.03125 1.0648,0.223782 1.18534,0.335965 0.84375,0.4375 C 10.37716,63.789035 9.58845,63.864286 8.78125,64 7.82591,64.160617 6.88704,64.456871 6,64.65625 L 6,84 c 0,3.324 2.676,6 6,6 l 12.5625,0 c 0.09318,-0.433081 0.15326,-0.905883 0.25,-1.40625 0.1371,-0.709071 0.22652,-1.344555 0.34375,-1.59375 0.02931,-0.0623 0.05898,-0.11418 0.09375,-0.125 0.10432,-0.03246 0.24356,0.19889 0.46875,0.78125 C 26.01601,88.424969 26.2311,89.280349 26.375,90 l 0.75,0 c 0.26973,-0.487886 0.55273,-1.110762 0.78125,-1.40625 0.09677,-0.125139 0.28119,0.103115 0.53125,0.34375 0.25006,0.240635 0.56576,0.485066 0.90625,0.375 0.63353,-0.20479 1.58152,-0.698195 2,-0.96875 0.13663,-0.08833 0.27138,-0.158324 0.375,-0.1875 0.10362,-0.02918 0.17609,-0.01753 0.25,0 0.14782,0.03506 0.23479,0.146168 0.34375,0.28125 0.21791,0.270164 0.44939,0.625 1.03125,0.625 0.46722,0 0.66007,-0.03138 0.78125,0.0625 0.12118,0.09388 0.1707,0.321145 0.375,0.875 l 8.6875,0 c -0.04667,-0.586892 1.01344,-2.130985 1.1875,-3.03125 0.18648,-0.964512 0.21564,-1.209052 0.28125,-1.03125 0.06561,0.177802 0.16768,0.770965 0.4375,1.46875 0.10788,0.278977 0.21618,0.357332 0.3125,0.28125 0.09632,-0.07608 0.17078,-0.297106 0.25,-0.5625 0.15844,-0.530788 0.287,-1.268952 0.34375,-1.5625 0.12808,-0.662448 0.09732,-1.761071 0.09375,-2.25 -8.9e-4,-0.122232 -0.0058,-0.218192 0,-0.25 0.01738,-0.09543 0.08534,0.295908 0.28125,1.5625 0.16001,1.034452 0.55165,2.666984 0.71875,3.53125 0.16585,0.857781 0.26937,1.297378 0.375,1.84375 l 27.5625,0 c 0.03787,-0.489133 0.03582,-1.072063 0.0625,-1.46875 0.02001,-0.297515 0.06858,-0.486789 0.15625,-0.46875 0.02922,0.006 0.05177,0.03947 0.09375,0.09375 0.22802,0.29483 0.60721,1.142012 0.9375,1.84375 L 84,90 c 3.324,0 6,-2.676 6,-6 l 0,-7.0625 c -0.16548,0.0045 -0.29499,0 -0.5,0 -1.29937,0 -2.57564,0 -3.875,0 -1.19804,0 -1.996,-0.0017 -2.1875,-0.0625 -0.1915,-0.06081 0.23046,-0.186909 1.4375,-0.5 0.6398,-0.165955 3.26183,-0.901716 5.125,-1.3125 l 0,-37.96875 c -0.63757,-0.263204 -1.18841,-0.49357 -1.71875,-0.90625 -0.1392,-0.108324 -0.42969,-0.363223 -0.9375,-0.53125 -0.50781,-0.168027 -1.23505,-0.253867 -2.21875,-0.0625 -1.49781,0.291384 -1.64422,0.281974 -1.21875,0.15625 0.42547,-0.125724 1.42431,-0.382779 2.1875,-0.53125 C 87.21966,34.999712 88.75193,34.038229 90,33.40625 L 90,28.875 C 89.31793,28.620057 88.60142,28.342045 88.28125,27.84375 88.07642,27.524969 87.99109,27.329414 88,27.21875 c 0.0089,-0.110664 0.10446,-0.149576 0.21875,-0.1875 0.11429,-0.03792 0.26368,-0.05569 0.375,-0.15625 0.11132,-0.100562 0.1875,-0.295173 0.1875,-0.59375 0,-0.319121 0.082,-0.861922 0.0625,-1.375 -0.0097,-0.256539 -0.03769,-0.499478 -0.125,-0.6875 -0.08731,-0.188022 -0.22417,-0.333499 -0.4375,-0.375 -0.56121,-0.109178 -0.81824,-0.234978 -0.875,-0.34375 -0.05676,-0.108772 0.07694,-0.190451 0.28125,-0.28125 0.40861,-0.181598 1.10111,-0.308199 1.09375,-0.3125 -0.65315,-0.381187 -5.11642,-0.921785 -4.875,-0.96875 0.32484,-0.06319 0.64392,-0.124305 0.96875,-0.1875 1.02328,-0.199069 2.36966,-0.312207 3.65625,-0.5625 C 89.09118,21.07857 89.41673,20.934731 89.625,20.75 89.83327,20.565269 89.92108,20.35562 90,20.15625 L 90,12 C 90,8.676 87.324,6 84,6 L 33.96875,6 C 34.06308,7.381129 34.16346,8.919032 33.875,8.15625 33.66947,7.612767 33.54928,7.043483 33.34375,6.5 33.29175,6.362498 33.24629,6.168523 33.1875,6 l -1.96875,0 c -0.2351,0.486521 -0.45735,0.973378 -0.78125,1.1875 -0.49514,0.327333 -0.76026,0.462326 -1,0.375 C 29.19776,7.47517 28.98338,7.16134 28.625,6.6875 28.46506,6.476035 28.18313,6.253022 27.875,6 L 21.21875,6 19.9375,11.5 18.25,6 18.03125,6 16.3125,14.84375 14.9375,6 12,6 z" />
        <path
           style="opacity:0.35;fill:#ac7535;fill-opacity:1;fill-rule:nonzero;stroke:none;display:inline;filter:url(#filter3325)"
           id="path3323"
           transform="matrix(0.72858,0,0,0.72858,2.7142001,23.342123)"
           inkscape:connector-curvature="0"
           d="m 30.96875,-18.312503 c 2.490599,2.202083 5.119997,4.329804 8.156249,6.78125 -2.865788,1.12192 -7.610063,2.38625 -10.812499,4.875 -1.116132,-2.086786 -2.391765,-4.09917 -3.78125,-6 -0.252887,0.04931 -0.519078,0.07806 -0.78125,0.09375 -0.441014,0.999424 -1.14862,1.807425 -2,2.40625 1.519094,2.037663 2.862436,4.206786 4.03125,6.46875 -0.04538,0.08949 -0.11468,0.15832 -0.15625,0.25 -0.62379,1.375524 -0.60214,3.062507 -0.25,4.53125 0.41032,1.711437 1.329814,3.319873 2.4375,4.687503 0.439852,0.54307 0.88843,1.02564 1.3125,1.46875 -1.381243,0.65005 -2.744897,1.36613 -4.15625,2.15625 -3.59651,-0.34816 -7.16257,-0.93496 -10.75,-1.375 -0.30865,-0.06986 -0.57329,-0.12094 -0.875,-0.1875 3.05317,-1.35023 6.26497,-3.15357 8.0625,-5.156253 1.84414,-2.054607 2.91767,-4.90696 2.375,-7.6875 -0.24903,-1.27601 -1.12103,-2.32981 -1.6875,-3.5 -0.448438,-0.34877 -0.877766,-0.720418 -1.3125,-1.09375 -0.920341,0.412994 -1.947373,0.60971 -3,0.5 -2.365326,-0.246527 -4.294158,-1.908989 -4.96875,-4.15625 -0.927758,-0.207212 -1.860883,-0.371602 -2.8125,-0.5 l 0,3.5 c 1.588292,0.469966 3.097367,1.091537 4.4375,1.90625 1.15919,0.70471 2.02016,1.81431 3.03125,2.71875 0.47825,1.12618 1.25266,2.16552 1.4375,3.375 C 19.54296,1.916084 16.32735,6.14906 12.625,7.6875 12.5621,7.67385 12.50012,7.66978 12.4375,7.65625 12.18267,7.50867 12.02395,6.89757 11.6875,6.875 11.129358,6.83755 10.564549,6.85672 10,6.875 l 0,2.28125 C 10.159293,9.10005 10.30483,9.05982 10.46875,9 c 0.64158,0.11434 1.23344,0.21833 1.90625,0.34375 3.52695,0.39948 7.03003,0.90853 10.5625,1.25 -0.12601,0.07515 -0.24841,0.14245 -0.375,0.21875 -4.29767,1.81269 -8.36878,3.99797 -11.96875,7.53125 -0.208801,0.20493 -0.395275,0.41762 -0.59375,0.625 l 0,3.90625 c 1.822204,-4.88103 6.716165,-8.72659 11.125,-11.15625 -3.62118,2.40026 -7.03762,5.73865 -7.40625,10.375 -0.15573,1.9587 0.88726,3.83887 1.34375,5.75 0.67233,0.67991 1.30051,1.40305 1.9375,2.125 -0.389801,0.2181 -0.795593,0.40852 -1.1875,0.625 0.0658,0.11991 0.127216,0.24248 0.1875,0.375 0.43975,-0.22154 0.877909,-0.45885 1.3125,-0.6875 0.80827,0.90199 1.63627,1.78132 2.625,2.46875 0.30397,0.21133 0.61711,0.42421 0.9375,0.625 -0.76956,1.23723 -1.47867,2.48018 -1.84375,3.875 -0.36723,1.40301 -0.48598,2.80352 -0.40625,4.15625 -1.41773,-0.95382 -2.80263,-1.97742 -4,-3.1875 -0.07705,-0.07787 -0.142504,-0.17122 -0.21875,-0.25 -0.407752,0.3523 -0.74156,0.54844 -1,0.6875 -0.60173,0.32377 -0.81462,0.37255 -1.0625,0.4375 -0.03881,0.27769 -0.09795,0.53177 -0.15625,0.78125 2.148844,1.73335 4.577254,3.16503 6.96875,4.65625 0.0064,0.02226 0.02476,0.04026 0.03125,0.0625 -2.41897,1.26498 -4.82544,2.66034 -7.0625,4.1875 C 11.622572,48.61644 11.149064,48.4729 10.65625,48.3125 10.430626,48.54418 10.208149,48.72012 10,48.875 l 0,1.5625 c 0.536925,0.08445 0.93263,0.0072 2.15625,0.78125 0.239581,0.08367 0.478197,0.16613 0.71875,0.25 -0.0443,0.03966 -0.08243,0.08427 -0.125,0.125 0.05072,0.03599 0.07189,0.05529 0.125,0.09375 0.170267,0.1233 0.373559,0.30237 0.59375,0.5 0.155161,-0.11619 0.319275,-0.22067 0.46875,-0.34375 3.41939,1.23204 6.79555,2.61522 9.78125,4.09375 1.33845,0.6628 2.596164,1.44514 3.875,2.21875 -3.74515,-0.57089 -7.34173,-1.58354 -11.65625,-3.8125 -0.474075,-0.24492 -0.947379,-0.5068 -1.40625,-0.78125 0.110656,0.19756 0.238912,0.38374 0.34375,0.625 0.280828,0.64623 0.393944,1.49244 0.375,2.34375 5.488069,2.12764 9.82255,2.72965 14.90625,3.15625 0.445924,0.27014 0.893548,0.5503 1.34375,0.8125 1.643833,1.37163 3.424397,2.58562 4.96875,4.0625 -7.735766,-0.61489 -15.474853,-1.62139 -22.9375,-3.625 -0.02818,0.03212 -0.06605,0.06343 -0.09375,0.09375 7.521146,2.01689 15.334672,3.01164 23.125,3.625 0.06408,0.0622 0.12439,0.12428 0.1875,0.1875 -2.873199,0.87871 -5.637133,1.79858 -7.9375,2.71875 -4.58988,1.83598 -9.08648,3.89981 -13.46875,6.1875 -1.03087,0.53814 -2.04549,1.08917 -3.0625,1.65625 C 12.06515,75.28396 11.83664,75.19085 11.625,75.0625 11.0804,74.73223 10.532415,74.38073 10,74 l 0,4.4375 c 3.7753,1.85809 7.99614,2.94625 12.125,3.40625 0.46761,0.0521 0.9367,0.07262 1.40625,0.09375 -0.08496,0.22414 -0.16118,0.45258 -0.21875,0.6875 -0.26673,1.08846 -0.287002,2.24343 -0.125,3.375 l 2.25,0 c 0.09783,-0.18865 0.01149,-0.13479 0.15625,-0.375 0.311493,-0.51686 0.890525,-1.38992 1.96875,-2.0625 -0.03894,-0.52681 -0.04284,-1.06726 0,-1.59375 0.534345,-0.0078 1.060373,-0.03886 1.59375,-0.03125 C 30.705813,81.36767 33.904391,80.48289 37,79.25 c 0.352721,1.68222 0.864219,3.33307 1.499999,4.9375 0.74144,-0.14899 1.57505,-0.22167 2.5,-0.0625 0.31913,0.05492 0.62558,0.1227 0.90625,0.21875 -0.90179,-2.07446 -1.58149,-4.22825 -2,-6.4375 1.57917,-0.80095 2.97591,-1.68316 3.875,-2.6875 0.91249,-1.0193 1.57774,-2.38635 1.6875,-3.75 0.01601,-0.19884 0.0052,-0.39321 0,-0.59375 1.48031,-0.13689 2.95528,-0.26087 4.4375,-0.25 2.59282,1.79116 5.58016,3.0332 8.3125,4.625 1.51219,0.42245 2.59925,0.75855 3.84375,1.125 -0.21698,0.89886 -0.45707,1.78998 -0.71875,2.6875 0.6373,0.20749 1.28084,0.40599 1.28125,0.40625 8.6e-4,5.4e-4 0.98411,0.73823 1.25,1.03125 0.03834,0.04225 0.05927,0.05397 0.09375,0.09375 0.40271,-1.11415 0.76359,-2.23708 1.09375,-3.375 3.12122,0.90918 5.66263,1.57881 8.65625,1.96875 1.09879,0.41615 2.21971,0.80052 3.34375,1.15625 1.46059,1.88366 3.21282,3.5853 4.375,5.65625 l 4.5,0 c -0.24521,-0.56717 -0.53723,-1.13208 -0.84375,-1.6875 -0.45537,-0.82514 -1.01883,-1.55872 -1.625,-2.28125 5.75814,1.20052 11.68947,1.6459 17.500001,1.3125 3.21838,-0.18467 6.50102,-0.43432 9.59375,-1.34375 0.88413,-0.25998 1.73448,-0.57629 2.59375,-0.90625 0.38408,0.18364 0.77084,0.35499 1.15625,0.53125 l 0,-4 c -0.021,-0.01002 -0.0415,-0.02128 -0.0625,-0.03125 -1.1784,-0.91899 -2.42372,-1.76479 -3.59375,-2.6875 -0.652,-0.31842 -1.56915,-0.87236 -2.28125,-2.09375 -0.0577,-0.09891 -0.10205,-0.20505 -0.15625,-0.3125 -0.035,0.0192 -0.0585,0.04325 -0.0937,0.0625 -0.14365,-0.1546 -0.29845,-0.31144 -0.4375,-0.46875 0.088,-0.06652 0.16279,-0.15088 0.25,-0.21875 -0.0615,-0.16367 -0.13505,-0.31938 -0.1875,-0.5 -0.12144,-0.41817 -0.16338,-0.82456 -0.1875,-1.21875 -0.24324,0.2918 -0.48891,0.5643 -0.75,0.84375 -0.40182,-0.51278 -0.77534,-1.02335 -1.125,-1.5625 0.6799,-0.35336 1.35375,-0.71091 2.03125,-1.0625 0.0761,-0.29864 0.14352,-0.58201 0.25,-0.84375 -0.35372,0.29421 -0.68424,0.57857 -1.0625,0.90625 -0.51531,0.18019 -1.04543,0.33649 -1.5625,0.5 -1.04783,-1.72695 -1.84072,-3.6097 -2.25,-5.59375 2.65333,0.02366 5.35511,-0.13112 8.125,-0.5625 0.0526,-0.0082 0.10364,-0.02289 0.15625,-0.03125 -0.0449,0.19826 -0.0716,0.39696 -0.125,0.59375 -0.0866,0.31916 -0.18115,0.62425 -0.28125,0.9375 0.0776,-0.02209 0.14778,-0.02998 0.21875,-0.0625 0.74057,-0.33938 1.19497,-0.46083 1.875,-0.6875 0.0749,-0.02498 0.94668,-0.30042 1.25,-0.40625 l 0,-12.34375 c -0.12071,-0.24042 -0.24306,-0.4675 -0.375,-0.6875 0.12843,-0.07287 0.24802,-0.14542 0.375,-0.21875 l 0,-0.09375 c -0.13949,0.08098 -0.26425,0.16875 -0.40625,0.25 -0.36482,-0.59833 -0.79337,-1.10118 -1.25,-1.59375 0.56381,-0.0025 1.10461,0.01328 1.65625,0.0625 l 0,-3.21875 c -0.86379,0.09536 -1.68953,0.27824 -2.375,0.5625 -0.48091,0.19943 -0.93403,0.43618 -1.40625,0.65625 -0.87002,-0.71201 -1.83987,-1.48617 -2.9375,-2.4375 -2.3193,-0.94125 -4.53037,-2.24731 -6.96875,-2.8125 -2.580061,-0.59804 -5.262311,-0.77977 -7.906251,-0.625 -1.70659,0.0999 -3.31946,0.32803 -4.875,0.6875 2.02622,-2.35732 3.70444,-4.94659 4.78125,-7.65625 0.2295,-0.57752 0.40294,-1.17636 0.53125,-1.78125 4.07493,0.25628 7.933281,0.69759 12.187501,1.75 0.33685,0.24102 0.67446,0.49268 1,0.75 3.1907,2.52203 6.07008,5.65731 7.96875,9.21875 l 0,-5.40625 c -0.85477,-0.91995 -1.76828,-1.80462 -2.71875,-2.625 0.92067,0.34156 1.82491,0.71356 2.71875,1.125 l 0,-1.875 c -0.75076,-0.22495 -1.4968,-0.42645 -2.25,-0.625 -1.08012,-0.28474 -2.12934,-0.55557 -3.15625,-0.78125 -0.1747,-0.12582 -0.35567,-0.25263 -0.53125,-0.375 -3.34772,-2.33321 -7.16136,-3.87016 -10.750001,-5.8125 -0.48228,-0.15637 -0.95721,-0.33654 -1.4375,-0.5 0.26544,-0.33998 0.49049,-0.68767 0.6875,-1.03125 0.12074,-0.21057 0.24987,-0.41926 0.34375,-0.625 2.52946,0.29832 5.133301,0.72735 7.812501,1.28125 3.02416,0.62521 6.18619,1.46862 9.28125,2.5625 l 0,-1.3125 c -2.77416,-0.81906 -5.54843,-1.48895 -8.21875,-2 -2.6103,-0.49957 -5.55376,-0.95498 -8.593751,-1.28125 0.89458,-2.87115 -0.79668,-5.22809 -3.4375,-6.84375 -1.39887,-0.85584 -2.98229,-1.32786 -4.5625,-1.8125 -0.74245,-0.82309 -1.54719,-1.60871 -2.40625,-2.3125 0.0206,-0.01068 0.04187,-0.02063 0.0625,-0.03125 4.53199,1.2813 9.12663,2.27449 13.781251,2.9375 0.0315,0.02005 0.0621,0.04257 0.0937,0.0625 1.91339,1.20521 4.10272,1.8656 6.15625,2.8125 0.68755,0.1491 1.49686,0.36759 2.28125,0.5625 -0.0506,-0.06471 -0.74978,-0.96839 -0.75,-0.96875 -4.7e-4,-7.6e-4 -0.87494,-2.68664 -0.875,-2.6875 -2e-5,-2.5e-4 0.055,-0.39195 0.0937,-0.65625 -1.10229,-0.44686 -2.18399,-0.929 -3.1875,-1.5625 -2.12163,-1.33938 -3.94885,-3.02332 -5.375001,-4.96875 3.850011,-1.06319 7.667811,-1.74429 12.031251,-1.90625 0.43388,-0.01611 0.87785,-0.03143 1.3125,-0.03125 -0.20545,-0.40745 -0.39088,-0.93523 -0.4375,-1.84375 -2.65697,0.25084 -5.26718,0.67735 -7.6875,1.21875 -2.10677,0.47126 -4.06972,0.97683 -5.937501,1.5625 -0.71548,-1.13753 -1.30209,-2.34316 -1.71875,-3.625 1.85437,0.29145 3.718591,0.51285 5.593751,0.625 3.24478,0.19406 6.5688,0.2575 9.75,-0.40625 0.002,-0.14503 -0.008,-0.27657 0,-0.4375 0.0141,-0.27027 0.17361,-0.624724 0.25,-0.937503 -0.14219,-0.029791 -0.19877,-0.011474 -0.90625,-0.3125 -0.0104,-0.00442 -0.0205,-0.02666 -0.0312,-0.03125 -2.07731,0.225283 -4.208,0.352931 -6.5625,0.28125 -2.88382,-0.087797 -5.750741,-0.400059 -8.593751,-0.90625 -0.21085,-1.193122 -0.29732,-2.411999 -0.21875,-3.6875 0.17993,-2.92117 0.77123,-4.89245 1.71875,-6.71875 1.40188,0.54236 2.880761,1.08257 4.968751,1.78125 1.33046,0.4452 2.64703,1.44738 4.03125,1.21875 0.66461,-0.10978 1.3242,-0.27219 1.96875,-0.46875 0.0489,-0.052432 0.10174,-0.106446 0.15625,-0.15625 0.013,-0.026828 0.0937,-0.15622 0.0937,-0.15625 2.4e-4,-3.36e-4 1.03086,-1.093433 1.03125,-1.09375 3.9e-4,-3.17e-4 0.59999,-0.425344 0.84375,-0.5625 0.24376,-0.137156 0.44422,-0.237598 0.625,-0.3125 0.36157,-0.149804 0.63603,-0.229321 0.84375,-0.28125 0.33325,-0.08331 0.66659,-0.16665 1,-0.25 0.36495,-0.091239 0.48849,-0.089002 0.8125,-0.15625 l 0,-1.3125 c -0.50575,-0.299715 -1.1084,-0.498406 -1.625,-0.78125 -0.93825,-0.28628 -1.87471,-0.58697 -2.8125,-0.875 -1.69171,-1.45295 -3.53416,-2.90953 -5.65625,-4.4375 2.36311,-0.46277 4.76545,-0.80073 7.21875,-0.96875 0.73331,-0.05022 1.45352,-0.07068 2.1875,-0.0625 -0.46114,-0.572205 -1.13697,-0.942641 -1.9375,-1.0625 -2.42076,0.266171 -4.83921,0.670238 -7.25,1.21875 0.46537,-0.476027 0.89123,-0.868522 1.3125,-1.28125 l -2.09375,0 c -0.0785,0.06399 -0.1729,0.123474 -0.25,0.1875 -0.30321,0.2518 -0.58497,0.51501 -0.875,0.78125 -0.44894,-0.310428 -0.96252,-0.649194 -1.4375,-0.96875 l -0.25,0 c 0.52745,0.353966 1.09602,0.71815 1.59375,1.0625 -0.35212,0.32638 -0.69271,0.65875 -1.03125,1 -2.518751,0.68829 -5.009861,1.48032 -7.437501,2.40625 -3.21473,-1.324759 -6.37665,-2.805203 -9.4375,-4.46875 l -9.6875,0 c 0.86033,1.907046 1.55742,3.870473 1.96875,5.84375 -1.34025,0.22582 -2.67827,0.469 -4,0.78125 -1.67057,0.39466 -3.30698,0.92883 -4.9375,1.46875 -1.80858,-1.37096 -3.58404,-2.8054 -5.40625,-4.15625 -1.27372,-1.33572 -2.608,-2.622902 -3.90625,-3.9375 l -3.9375,0 c 1.60458,1.574922 3.37633,3.197768 5.59375,5.34375 1.64771,1.18137 3.27665,2.44756 4.90625,3.65625 -0.30266,0.1039 -0.60337,0.20937 -0.90625,0.3125 -4.98543,-1.48284 -11.44476,-2.62138 -16.34375,-2.90625 -2.72767,-0.15861 -5.45588,0.09644 -8.1875,0.15625 -0.0189,0.008 -0.04338,0.02321 -0.0625,0.03125 -2.812385,-2.380257 -5.280434,-4.45127 -7.593749,-6.59375 l -1.0625,0 z m 77.9375,12.53125 c -0.0198,0.02123 -0.0439,0.04097 -0.0625,0.0625 -0.01,0.011181 0.004,0.024811 0,0.03125 0.0321,-0.018049 0.088,-0.077127 0.15625,-0.125 -0.0319,0.00789 -0.0622,0.021615 -0.0937,0.03125 z m -29.281251,-10.75 c 1.99427,1.04062 4.02249,2.05093 6.0625,3 -0.64523,0.05071 -1.29772,0.09184 -1.9375,0.15625 -1.09553,0.1103 -2.18728,0.20663 -3.28125,0.34375 -0.06001,-0.44641 -0.11733,-0.87236 -0.21875,-1.3125 -0.16852,-0.73138 -0.39078,-1.47289 -0.625,-2.1875 z m 24.437501,0.40625 c 2.05672,1.47941 3.85251,2.90708 5.5,4.3125 -0.39165,-0.11524 -0.78907,-0.25412 -1.1875,-0.34375 -2.38206,-0.53586 -4.81914,-0.91311 -7.28125,-1.1875 0.19234,-0.30001 0.36182,-0.51998 0.5625,-0.84375 0.7077,-0.70445 1.186,-1.20432 1.75,-1.78125 0.22115,-0.04643 0.43439,-0.1122 0.65625,-0.15625 z m -3.5625,0.8125 c -0.557771,0.58736 -1.130001,1.16236 -1.687501,1.75 -1.14604,-0.09201 -2.28731,-0.14619 -3.4375,-0.1875 1.68878,-0.5751 3.40122,-1.11612 5.125001,-1.5625 z m -13.406251,3.4375 c 0.71595,-0.0017 1.41744,0.01609 2.125,0.03125 -0.58106,0.26219 -1.17906,0.50872 -1.75,0.78125 -2.18147,1.04128 -4.42939,2.22699 -6.6875,3.5 -0.06024,-1.34314 -0.09977,-2.69227 -0.1875,-4.03125 2.163,-0.181493 4.35215,-0.276179 6.5,-0.28125 z m 2.71875,0.21875 c 0.37842,0.16489 0.74578,0.3374 1.125,0.5 2.04185,0.84103 3.34998,1.3769 4.71875,1.9375 -1.95748,2.96068 -3.2729,5.2461 -3.5625,9.78125 -0.01263,0.197764 0.0056,0.398411 0,0.59375 -4.17539,-1.047267 -8.27346,-2.517482 -12.1875,-4.3125 0.28595,-1.16236 0.56224,-2.36152 0.90625,-3.5 -0.01461,-0.19699 -0.02068,-0.39615 -0.03125,-0.59375 1.8547,-1.04706 3.68585,-2.01539 5.46875,-2.84375 1.17977,-0.54814 2.37259,-1.06259 3.5625,-1.5625 z m -12.8125,0.4375 c 0.21803,1.90325 0.11371,3.8559 0.15625,5.78125 -0.27821,0.16961 -0.5663,0.32784 -0.84375,0.5 -1.58811,-0.83374 -3.13943,-1.68788 -4.65625,-2.625 -0.98701,-0.6098 -1.93969,-1.28267 -2.875,-1.96875 0.6554,-0.18735 1.30464,-0.4067 1.96875,-0.5625 2.0288,-0.47594 4.12481,-0.84255 6.25,-1.125 z m -32.21875,1.5625 c 4.69764,0.07495 10.44441,0.9495 15.28125,2.375 -3.03287,1.60887 -5.7127,2.97509 -8.1875,4.375 -2.99372,-1.96153 -5.93263,-4.02578 -8.9375,-5.96875 -0.29858,-0.25983 -0.52211,-0.43705 -0.8125,-0.6875 0.88803,-0.06376 1.76586,-0.10795 2.65625,-0.09375 z m -3.1875,0.125 c 0.37049,0.30338 0.64681,0.52614 1.03125,0.84375 3.02159,1.92979 5.98823,3.96006 9,5.90625 -2.74668,1.568119 -5.30934,3.240779 -7.875,5.59375 -3.70342,0.569009 -7.060642,1.410853 -10.281249,2.593753 -0.326645,-0.34063 -0.639393,-0.69841 -0.9375,-1.0625 -0.656481,-2.745651 -1.591108,-5.419305 -2.75,-8.000003 0.316527,-2.19565 1.599807,-4.20714 4.09375,-5.59375 0.661288,-0.36767 1.529051,0.16826 2.28125,0.25 1.818119,-0.13945 3.619729,-0.38028 5.437499,-0.53125 z m 24.40625,0.84375 c 0.24287,0.17642 0.47402,0.35763 0.71875,0.53125 -0.37307,-0.13168 -0.83737,-0.31157 -1.125,-0.40625 0.13443,-0.04531 0.27168,-0.08021 0.40625,-0.125 z m -4.96875,1.6875 c 0.52322,0.16725 1.03659,0.31897 1.53125,0.5 2.22383,0.81386 6.32853,2.55725 8.40625,5.09375 -1.86986,1.302188 -3.68507,2.66174 -5.40625,4.03125 -1.65484,-0.138181 -3.31575,-0.285929 -4.96875,-0.4375 -1.02322,-0.536779 -2.05575,-1.065582 -3.0625,-1.625 -1.80924,-1.005338 -3.54644,-2.120643 -5.28125,-3.25 2.09514,-1.18874 4.42412,-2.26763 7.5,-3.875 0.43171,-0.13759 0.85137,-0.2933 1.28125,-0.4375 z m 16.125,1.90625 c 0.0038,0.11386 -0.0053,0.23007 0,0.34375 -0.0269,0.08231 -0.03658,0.16727 -0.0625,0.25 -0.15908,-0.08111 -0.31031,-0.1678 -0.46875,-0.25 0.17845,-0.11278 0.35243,-0.23228 0.53125,-0.34375 z m -1,2.5 c 0.11259,0.05614 0.23088,0.1006 0.34375,0.15625 -0.0216,0.08311 -0.04087,0.16689 -0.0625,0.25 -0.07547,-0.13723 -0.18796,-0.27192 -0.28125,-0.40625 z m -24.15625,0.0625 c 1.74369,1.12012 3.50397,2.206991 5.3125,3.21875 0.87753,0.490923 1.76746,0.961381 2.65625,1.4375 -0.28019,-0.026947 -0.56384,-0.033545 -0.84375,-0.0625 -4.43697,0.156735 -8.90514,-0.066522 -13.3125,0.46875 -0.16143,0.019606 -0.3088,0.041945 -0.46875,0.0625 2.37818,-2.373799 4.399,-3.822798 6.65625,-5.125 z m 19.1875,1.4375 c 0.36496,0.496642 0.66468,1.008334 0.84375,1.5625 0.28783,0.890737 -0.15931,1.828298 -0.5,2.75 -1.72929,-0.239299 -3.47726,-0.380649 -5.21875,-0.53125 1.52422,-1.266855 3.17734,-2.550628 4.875,-3.78125 z m 8.15625,0 c 4.13061,1.843261 8.4207,3.333075 12.8125,4.375 0.22317,2.131643 0.88519,4.089403 1.875,5.875003 -5.76629,-2.1689 -11.8537,-3.90814 -17.78125,-5.09375 0.90272,-1.088103 1.7064,-2.26864 2.375,-3.531253 0.27757,-0.524173 0.52378,-1.066852 0.71875,-1.625 z m -21.6875,4.25 c 1.6122,0.13774 3.22665,0.214603 4.84375,0.3125 0.41183,0.211233 0.83596,0.417263 1.25,0.625003 -0.29525,0.24776 -0.58676,0.50124 -0.875,0.75 -5.20221,-0.5798 -10.53598,-0.69415 -15.1875,-0.40625 -1.5286,0.0946 -3.04685,0.28008 -4.5625,0.5 0.29233,-0.32842 0.56435,-0.60484 0.84375,-0.90625 3.21293,-0.42771 6.42082,-0.40456 13.6875,-0.875003 z m 16.5625,0.15625 c -0.06616,0.104188 -0.11903,0.209023 -0.1875,0.312503 -0.062,-0.01103 -0.12556,-0.02036 -0.1875,-0.03125 0.12016,-0.098992 0.25649,-0.179669 0.375,-0.281253 z M 63.187499,3.53125 c 0.3963,0.02417 0.79135,0.03711 1.1875,0.0625 -0.12702,0.10459 -0.24916,0.20768 -0.375,0.3125 -0.26861,-0.13176 -0.5449,-0.24159 -0.8125,-0.375 z m 2.03125,0.125 c 1.92513,0.13108 3.84069,0.30288 5.75,0.5625 -0.68353,0.50513 -1.34655,1.05951 -2.03125,1.5625 -0.56002,-0.10828 -1.11719,-0.21665 -1.6875,-0.3125 -0.89625,-0.41064 -1.7704,-0.85196 -2.65625,-1.28125 0.20283,-0.17907 0.41729,-0.35193 0.625,-0.53125 z m -23,0.65625 c -0.27982,0.28451 -0.56143,0.57197 -0.84375,0.875 -2.32801,0.37855 -4.637669,0.80732 -6.968749,1.15625 -0.0051,-0.00467 0.0051,-0.02659 0,-0.03125 3.407289,-1.00738 5.817559,-1.63065 7.812499,-2 z m 22.125,0.09375 c 0.59755,0.29659 1.21053,0.58602 1.8125,0.875 -0.80012,-0.12233 -1.59446,-0.24477 -2.40625,-0.34375 0.12332,-0.11383 0.2501,-0.23154 0.375,-0.34375 0.06989,-0.06279 0.14823,-0.12466 0.21875,-0.1875 z M 72.687499,4.5 c 0.21518,0.03572 0.44038,0.05633 0.65625,0.09375 -0.46337,0.6203 -0.96494,1.2301 -1.5,1.8125 -0.66177,-0.16116 -1.34805,-0.29575 -2.03125,-0.4375 0.70148,-0.33313 1.40218,-0.68216 2.09375,-1.03125 0.26577,-0.13416 0.53258,-0.27633 0.78125,-0.4375 z m 2.75,0.5 c 5.79269,1.13836 11.75194,2.83445 17.34375,5.03125 -1.82466,0.78224 -3.62312,1.67077 -5.46875,2.65625 -0.60092,-0.15706 -1.18279,-0.33292 -1.78125,-0.5 -3.39984,-2.37828 -7.37425,-3.99311 -11.1875,-5.125 -0.26093,-0.07746 -0.54669,-0.14475 -0.8125,-0.21875 0.67149,-0.58245 1.303,-1.19274 1.90625,-1.84375 z m -25.40625,0.28125 c 3.76515,-0.07495 7.74794,0.11887 11.65625,0.625 -0.68984,0.6301 -1.37405,1.27322 -2.03125,1.9375 -2.48561,0.48309 -4.95518,1.02245 -7.46875,1.3125 -4.01193,0.46294 -8.13931,0.70998 -12.28125,0.78125 -0.13744,-0.06663 -0.26927,-0.15139 -0.40625,-0.21875 0.85156,-1.30674 1.76814,-2.57267 2.78125,-3.78125 1.35669,-0.21046 2.69272,-0.40077 4.0625,-0.5 1.19301,-0.08643 2.43245,-0.13127 3.6875,-0.15625 z m 12.5625,0.75 c 1.52799,0.21803 3.05627,0.46167 4.53125,0.78125 -1.19245,0.44092 -2.55138,0.2079 -3.8125,0.40625 -0.74239,0.11676 -1.4795,0.23772 -2.21875,0.375 0.49488,-0.53025 0.98605,-1.0517 1.5,-1.5625 z M 40.437499,6.25 c -0.01986,0.0226 -0.04262,0.0398 -0.0625,0.0625 -0.78237,0.89333 -1.49621,1.79763 -2.1875,2.75 C 37.503098,8.69107 36.848674,8.2706 36.21875,7.8125 35.942986,7.61195 35.673512,7.40173 35.40625,7.1875 37.080684,6.86813 38.760559,6.54807 40.437499,6.25 z m 27.1875,0.6875 c 1.01117,0.2286 2.00011,0.47061 2.96875,0.75 -2.18843,2.06679 -4.74058,3.79385 -7.3125,4.875 -1.43079,0.60145 -3.0745,0.39897 -4.625,0.46875 -1.15921,0.05217 -1.68993,0.05598 -2.53125,0.09375 0.96794,-1.0646 1.92133,-2.13962 2.875,-3.21875 0.41449,-0.08864 0.80897,-0.20178 1.21875,-0.3125 2.53046,-0.68375 4.99743,-1.6027 7.40625,-2.65625 z M 29.6875,7.78125 c 0.05369,0.05174 0.102644,0.1058 0.15625,0.15625 0.0038,0.01991 -0.0038,0.04257 0,0.0625 -1.255016,0.45943 -2.48922,0.91216 -3.71875,1.375 1.114096,-0.67197 2.32568,-1.16215 3.5625,-1.59375 z m 42.312499,0.3125 c 0.1858,0.06002 0.37887,0.12543 0.5625,0.1875 4.0179,1.35811 7.88805,3.29523 11.0625,6.0625 -2.07385,-0.33496 -4.15577,-0.65246 -6.25,-0.78125 -5.33698,-0.32824 -11.48908,-0.13865 -17.25,0.5 2.33686,-0.83911 4.61135,-1.86454 6.84375,-2.9375 1.75258,-0.84235 3.45614,-1.85558 5.03125,-3.03125 z M 29.9375,8.4375 c 0.08069,0.44834 0.153428,0.89247 0.21875,1.34375 C 28.936718,9.72006 27.732774,9.65276 26.53125,9.5625 26.437407,9.55545 26.343804,9.53869 26.25,9.53125 27.464428,9.15222 28.70856,8.78113 29.9375,8.4375 z m 27.468749,1.75 c -0.91847,0.99092 -1.83241,2.00814 -2.75,3 -0.36071,0.01374 -1.00705,0.05491 -1.3125,0.0625 -3.70808,0.09214 -3.79967,-0.29853 -10.71875,-1.96875 -0.02887,-0.01553 -0.06481,-0.01582 -0.09375,-0.03125 2.43457,-0.06406 4.87817,-0.18849 7.34375,-0.375 2.50692,-0.18964 5.04819,-0.29907 7.53125,-0.6875 z m 36.59375,0.34375 c 0.41328,0.16925 0.81029,0.35684 1.21875,0.53125 1.11664,1.50499 2.50538,2.84916 4.0625,4.03125 -3.7679,-0.52694 -7.52233,-1.28002 -11.21875,-2.21875 1.35751,-0.63919 2.74887,-1.17472 4.15625,-1.6875 0.60284,-0.21965 1.19314,-0.45088 1.78125,-0.65625 z M 24.1875,10.6875 c 0.21915,0.01851 0.43695,0.04556 0.65625,0.0625 1.833131,0.14161 3.654616,0.25564 5.46875,0.34375 0.05087,0.46177 0.09072,0.94212 0.125,1.40625 0.403549,5.46366 -0.05781,8.26141 -1.03125,11.78125 -1.285363,0.40531 -2.54054,0.84462 -3.71875,1.3125 -1.70806,0.67828 -3.34166,1.48779 -4.96875,2.34375 -0.60308,-0.81641 -1.20028,-1.63069 -1.84375,-2.40625 -0.30858,-1.89947 -1.14468,-3.80921 -0.90625,-5.71875 0.50117,-4.01381 3.13065,-6.89489 6.21875,-9.125 z m 9.40625,0.53125 c 0.375704,0.01118 0.749566,0.02259 1.125,0.03125 0.485365,0.24768 1.004703,0.52655 1.53125,0.78125 -1.034889,1.74161 -1.944441,3.53666 -2.6875,5.40625 0.165852,-1.72909 0.205914,-3.66951 0.03125,-6.21875 z M 37.718749,12.75 c 0.54539,0.26553 1.02338,0.50449 1.625,0.8125 3.69038,0.87107 7.10144,1.93634 10.6875,2.1875 -2.73494,0.5999 -5.46515,1.32038 -8.0625,2.34375 -2.62442,1.03404 -5.16791,2.2514 -7.656249,3.59375 0.751156,-3.10329 1.904161,-6.10114 3.406249,-8.9375 z m 29.71875,2.09375 c 2.66989,-0.03349 5.30922,0.05453 7.78125,0.28125 2.03942,0.18703 4.05781,0.62503 6.0625,1.0625 -2.23777,1.5114 -4.28319,3.30219 -6.4375,4.9375 -6.95747,-0.97949 -14.03521,-1.27166 -21,-0.9375 -0.70401,0.03377 -1.45302,0.10516 -2.1875,0.15625 0.76831,-1.37117 1.64725,-2.78828 2.5625,-4.34375 4.2077,-0.70114 8.76894,-1.10045 13.21875,-1.15625 z M 52.093749,16.375 c -0.89784,1.46083 -1.78364,2.82035 -2.59375,4.125 -4.9827,0.44707 -10.41429,1.28593 -15.499999,2.53125 0.04672,-0.22877 0.105345,-0.45972 0.15625,-0.6875 4.860399,-2.68013 13.593009,-5.08186 17.468749,-5.875 0.15427,-0.03157 0.31311,-0.06303 0.46875,-0.09375 z m 30.3125,0.0625 c 0.66832,0.14333 1.32913,0.28133 2,0.40625 0.81199,0.41462 1.70838,0.76182 2.59375,1.15625 0.37937,0.52419 0.72862,1.05596 1.0625,1.625 0.73985,1.26093 1.16306,2.68713 1.5,4.125 -0.78371,-0.02609 -1.56597,-0.05598 -2.34375,-0.0625 -0.95907,-0.28754 -1.93159,-0.54923 -2.90625,-0.78125 -2.43505,-0.57968 -4.89006,-1.06822 -7.375,-1.46875 0.41289,-0.5204 0.8132,-1.06704 1.25,-1.65625 1.42703,-1.07703 2.80684,-2.24454 4.21875,-3.34375 z m -22.46875,4.21875 c 4.78855,0.03036 9.55878,0.40439 14.28125,1.125 -1.1111,1.43176 -2.16495,2.66888 -3.09375,3.875 -2.11225,0.6248 -4.18969,1.38085 -6.28125,2.09375 1.94905,-0.50306 3.88699,-1.00754 5.84375,-1.46875 -1.23489,1.69461 -2.15892,3.43316 -2.5,5.71875 -1.69109,0.12534 -3.37824,0.26999 -5.0625,0.46875 -3.13444,0.36988 -6.61559,0.87509 -10.1875,1.5 2.59653,-1.83692 5.61728,-3.25544 9.375,-5.40625 -0.51865,0.1667 -1.04129,0.3442 -1.5625,0.5 -3.55733,2.06754 -6.49956,3.49842 -9.09375,5.125 -0.93215,0.16961 -1.87234,0.34529 -2.8125,0.53125 -0.09043,-0.57002 -0.14358,-1.15705 -0.1875,-1.75 -0.38377,-5.1818 0.78183,-8.5327 2.65625,-12 2.86236,-0.22101 5.75187,-0.33072 8.625,-0.3125 z m 2.375,7.90625 c 0.84054,-0.27016 1.69426,-0.52722 2.53125,-0.8125 -0.65202,0.16829 -1.31388,0.34712 -1.96875,0.5 -0.19677,0.11451 -0.36976,0.20218 -0.5625,0.3125 z m -13.21875,-7.40625 c -2.40211,3.96006 -4.06135,7.68765 -3.46875,13.46875 0.02526,0.24645 0.05751,0.50403 0.09375,0.75 -2.60145,0.56361 -5.16305,1.19257 -7.65625,1.875 C 36.624371,36.90715 35.14184,36.48818 33.65625,36 c -0.591254,-4.08928 -0.530207,-8.15934 0.1875,-12.125 1.211037,-0.3246 2.400056,-0.61119 3.625,-0.875 3.817199,-0.82212 7.717189,-1.45725 11.624999,-1.84375 z m 63.312501,0.1875 c 0.64529,0.53805 1.295,1.09327 1.90625,1.65625 l 0,-1.53125 c -0.21904,0.05844 -0.23801,0.26032 -1.90625,-0.125 z m -36.062501,0.8125 c 2.33086,0.40973 4.64949,0.88431 6.9375,1.46875 0.13631,0.03482 0.27038,0.08871 0.40625,0.125 -2.65992,0.09226 -5.23547,0.31698 -7.5625,0.71875 -0.60659,0.10472 -1.21298,0.24017 -1.8125,0.375 0.60056,-0.87324 1.28107,-1.75134 2.03125,-2.6875 z m 9.96875,2.375 c 1.24792,0.41229 2.48825,0.87418 3.71875,1.34375 0.11457,0.47597 0.23304,0.9423 0.375,1.40625 -0.15368,0.98448 -0.22697,1.99722 -0.3125,3 -0.4273,0.39548 -0.84978,0.78491 -1.28125,1.125 -2.37981,-0.06177 -4.84812,-0.0868 -7.53125,-0.1875 -3.0291,0.20701 -6.06118,0.33018 -9.09375,0.5 -0.07285,0.0041 -0.1459,-0.0041 -0.21875,0 0.09685,-2.57766 0.77949,-4.40647 1.8125,-6.09375 0.3573,-0.05997 0.70316,-0.1074 1.0625,-0.15625 3.99907,-0.54372 7.77494,-0.86566 11.46875,-0.9375 z m -58.468749,1.1875 c -1.76165,1.43103 -3.33373,3.10876 -5.03125,4.625 -0.66055,-0.59457 -1.23848,-1.28634 -1.78125,-2 0.87845,-0.43189 1.77011,-0.84602 2.6875,-1.1875 1.35724,-0.50522 2.750908,-0.97335 4.125,-1.4375 z m 0.875,0.96875 c -0.375588,1.25942 -0.758166,2.56436 -1.21875,4.21875 -0.345584,0.6624 -0.671848,1.32747 -1,2 -0.63362,-0.36082 -1.25496,-0.72397 -1.84375,-1.125 0.59848,-0.97391 1.21732,-1.93755 1.75,-2.9375 0.786088,-0.69595 1.554611,-1.42384 2.3125,-2.15625 z m 2.375,1 c -0.243099,2.44475 -0.277659,4.92487 -0.03125,7.40625 -0.944753,-0.37306 -1.845424,-0.80843 -2.75,-1.25 0.660267,-1.29282 1.346817,-2.66161 2.25,-4.375 0.197505,-0.70107 0.348436,-1.16301 0.53125,-1.78125 z m 64.093749,0.125 c 0.32685,0.12026 0.64066,0.2588 0.96875,0.375 2.43344,1.47477 5.025941,2.77495 7.437501,4.28125 -3.51991,-0.50825 -6.887831,-0.76776 -10.375001,-0.90625 0.1386,-0.73436 0.24589,-1.46492 0.3125,-2.21875 0.61161,-0.49341 1.15063,-1.01718 1.65625,-1.53125 z m -14,3.46875 c 2.65079,0.153 5.04093,0.24598 7.34375,0.34375 -0.22309,0.17151 -0.44496,0.3441 -0.65625,0.5 -2.58954,1.91072 -13.50881,4.78078 -13.8125,4.875 -0.40779,0.0631 -0.81154,0.15077 -1.21875,0.21875 -0.51318,-1.36434 -0.83928,-2.83596 -0.875,-4.40625 -0.0081,-0.35742 -0.01125,-0.69981 0,-1.03125 3.06413,-0.16801 6.15861,-0.29066 9.21875,-0.5 z m 8.75,0.53125 c -0.14036,1.21642 -0.34103,2.42657 -0.78125,3.5625 -0.92925,2.39782 -2.33041,4.63043 -3.9375,6.65625 -1.46129,0.48455 -2.85806,1.11977 -4.25,1.8125 -1.18157,-1.30243 -3.61857,-1.86315 -5.4375,-2.09375 -0.85575,-1.01729 -1.57638,-2.10059 -2.15625,-3.28125 2.62364,-0.62553 5.29793,-1.12253 7.78125,-2.15625 1.88064,-0.78285 5.44382,-2.4442 8.78125,-4.5 z m -21.78125,0.25 c -0.1261,0.87746 -0.15412,1.8338 -0.09375,2.90625 0.05644,1.00256 0.25174,1.99715 0.5625,2.96875 -2.00237,0.34704 -4.0083,0.66691 -6.03125,0.84375 -2.88426,0.25213 -5.7342,0.37198 -8.59375,0.34375 -1.31958,-0.01303 -2.65291,-0.04566 -3.96875,-0.125 -0.24068,-0.61033 -0.44152,-1.23336 -0.625,-1.875 1.04651,-1.17395 2.13411,-2.14682 3.3125,-3 3.28672,-0.60953 6.6754,-1.14569 10.28125,-1.59375 1.71395,-0.21298 3.43411,-0.34089 5.15625,-0.46875 z m -16.8125,2.3125 c -0.77854,0.49918 -1.53189,1.02422 -2.25,1.59375 -0.08045,-0.36068 -0.15709,-0.72348 -0.21875,-1.09375 0.81576,-0.17454 1.64256,-0.33858 2.46875,-0.5 z M 23.1875,34.65625 c 0.65969,0.33349 1.33702,0.63864 2.03125,0.9375 -0.70019,1.41088 -1.4619,2.80144 -2.3125,4.125 -0.09397,0.14622 -0.18554,0.29159 -0.28125,0.4375 -0.15999,-1.60366 -0.0776,-3.26415 0.375,-4.9375 0.05252,-0.19418 0.12184,-0.37353 0.1875,-0.5625 z m 22.562499,0.9375 c 0.15353,0.95772 0.38111,1.9135 0.6875,2.84375 -0.06377,0.07087 -0.12408,0.14637 -0.1875,0.21875 -2.16824,-0.24267 -4.33598,-0.58177 -6.5,-1.03125 -0.28682,-0.05958 -0.58268,-0.12222 -0.875,-0.1875 2.29876,-0.67761 4.57815,-1.29569 6.875,-1.84375 z M 27,36.3125 c 1.462602,0.55435 2.947651,1.04669 4.4375,1.46875 0.0018,0.0102 -0.0018,0.02104 0,0.03125 0.07765,0.44593 0.144528,0.90483 0.25,1.34375 -0.748535,0.25865 -1.477348,0.54186 -2.1875,0.8125 -2.057316,0.78404 -4.22706,1.68096 -6.40625,2.6875 -0.01754,-0.06298 -0.04575,-0.12433 -0.0625,-0.1875 1.6988,-2.1669 2.81716,-4.00309 3.96875,-6.15625 z m 7.875,2.34375 c 0.905443,0.20544 1.804072,0.40225 2.65625,0.5625 2.509629,0.47191 4.980749,0.79525 7.437499,1.03125 -0.76652,1.0467 -1.51474,2.21922 -2.25,3.59375 -1.20234,2.24771 -1.97032,4.69927 -2.28125,7.1875 -0.43971,-0.09992 -0.90491,-0.21052 -1.3125,-0.3125 -0.62606,-1.03793 -1.27254,-2.05377 -1.937499,-3.0625 -0.928072,-2.94188 -2.178256,-5.80687 -2.96875,-8.78125 0.219777,-0.07278 0.437247,-0.14733 0.65625,-0.21875 z m 34.249999,0.625 c 0.32395,0.74063 0.69293,1.45764 1.125,2.125 0.06531,0.10087 0.15092,0.18206 0.21875,0.28125 -3.76733,0.32525 -7.61214,1.3692 -10.90625,2.90625 -1.46276,0.68252 -2.88641,1.43628 -4.28125,2.25 -1.82094,-1.85388 -3.38379,-3.90542 -4.53125,-6.21875 3.18826,0.08599 6.41829,-0.01461 9.71875,-0.25 2.90419,-0.20714 5.77478,-0.66256 8.65625,-1.09375 z M 31.84375,39.6875 c 0.825982,3.12891 2.256097,6.10879 3.28125,9.1875 0.182634,0.2696 0.352885,0.53962 0.53125,0.8125 C 32.228744,48.54003 29.153144,47.06063 23.84375,44.75 23.6011,44.18261 23.36634,43.61827 23.1875,43.03125 24.81972,42.29977 26.490302,41.64437 28.21875,41 c 1.230225,-0.45864 2.429334,-0.89585 3.625,-1.3125 z m 15.124999,0.75 c 0.09418,0.0067 0.18707,-0.0064 0.28125,0 0.48078,1.05429 1.04366,2.08837 1.6875,3.03125 1.18121,1.72981 2.60616,3.28419 4.1875,4.6875 -1.3935,0.84524 -2.8055,1.69289 -4.21875,2.5 -0.66107,0.61811 -1.18658,1.09206 -1.78125,1.625 -0.28352,-0.04589 -0.48164,-0.07521 -0.78125,-0.125 -1.05965,-0.17611 -1.97104,-0.36066 -2.875,-0.53125 0.09901,-3.22825 0.89654,-6.44488 2.375,-9.25 0.36834,-0.69887 0.75224,-1.33375 1.125,-1.9375 z m 44.21875,2.5 c 1.89327,-0.05803 3.86789,0.12295 6.15625,0.65625 2.36926,0.55215 4.506591,1.87157 6.750001,2.8125 0.82615,0.755 1.7237,1.44016 2.59375,2.15625 -1.04978,0.62181 -2.11696,1.25624 -3.125,1.9375 -0.86178,0.58241 -1.5044,1.39144 -2.1875,2.1875 -1.377401,-0.15219 -3.157311,-0.34264 -5.875001,-0.59375 -3.01366,-0.92207 -6.1373,-1.50204 -9.03125,-2.75 -1.53916,-0.66374 -3.13245,-1.45223 -4.65625,-2.375 1.27451,-0.98902 2.52657,-2.05312 3.71875,-3.21875 1.95105,-0.45745 3.76298,-0.75448 5.65625,-0.8125 z m -23.25,1.3125 c 0.71457,-0.01075 1.46112,0.0041 2.21875,0.0625 0.77097,0.05946 2.0762,0.24662 3.3125,0.6875 0.74997,0.67127 1.51048,1.31441 2.3125,1.90625 -0.46162,0.30892 -0.94212,0.61059 -1.40625,0.9375 -1.74864,1.23164 -3.29508,2.81099 -4.4375,4.625 -0.39083,-0.07883 -0.77032,-0.11112 -1.15625,-0.09375 -0.02377,0.0011 -0.03884,-0.0011 -0.0625,0 0.03139,-1.1098 0.02602,-2.257 -0.03125,-3.4375 -0.06497,-1.33936 -0.13125,-2.68887 -0.53125,-3.96875 -0.06485,-0.20752 -0.14231,-0.46688 -0.21875,-0.71875 z m 15.34375,0.0625 c -0.59213,0.62325 -1.24054,1.19825 -1.875,1.78125 0.13793,-0.44008 0.20748,-0.8672 0.09375,-1.28125 0.05416,-0.01583 0.1016,-0.04727 0.15625,-0.0625 0.56363,-0.15715 1.09402,-0.29476 1.625,-0.4375 z m -64.374999,0.875 c -1.28245,1.55754 -2.66893,3.06765 -4.125,4.5 C 14.18392,49.47948 13.59269,49.26087 13,49.0625 c 1.87009,-1.47694 3.8481,-2.73678 5.90625,-3.875 z m 40.624999,0.6875 c -0.59188,0.52964 -1.16512,1.11609 -1.84375,1.75 -0.20538,0.31146 -0.43967,0.60135 -0.65625,0.90625 -0.44235,-0.38478 -0.86325,-0.78113 -1.28125,-1.1875 0.28768,-0.14042 0.57712,-0.28779 0.875,-0.40625 0.99273,-0.39481 1.96155,-0.73761 2.90625,-1.0625 z M 19.78125,46.3125 c 1.11915,2.70023 2.93581,5.14377 5,7.25 -2.70645,-1.18954 -5.73948,-2.37092 -8.8125,-3.46875 1.27163,-1.15872 2.49379,-2.36163 3.65625,-3.625 0.05444,-0.05917 0.10267,-0.09775 0.15625,-0.15625 z m 41.874999,0.625 c 0.2375,0.38224 0.96442,0.69889 1.15625,1.15625 0.46508,1.10882 0.75511,2.3115 0.9375,3.5 0.05887,0.38363 0.08063,0.73102 0.125,1.09375 -0.30206,0.02574 -0.59655,0.03675 -0.875,0.0625 -1.20662,-0.70924 -2.37145,-1.4603 -3.5,-2.28125 0.32065,-0.69229 0.69838,-1.38868 1.09375,-2.0625 0.30815,-0.52517 0.68904,-0.98664 1.0625,-1.46875 z M 25.34375,47.625 c 2.280039,1.01889 4.574689,2.0435 6.9375,2.84375 1.56818,0.53111 3.167415,1.02124 4.78125,1.46875 1.154319,1.85289 2.316649,3.70259 3.624999,5.4375 0.07818,0.38294 0.14774,0.7776 0.25,1.15625 -0.13682,0.1893 -0.24227,0.39491 -0.375,0.59375 C 39.348229,58.6954 38.147769,58.23614 37,57.65625 c -2.268712,-1.14623 -4.457804,-2.49269 -6.40625,-4.125 -1.98211,-1.66052 -3.825282,-3.67497 -5.25,-5.90625 z m 51.156249,0.09375 c 0.17814,0.87174 -0.6514,1.66876 -0.96875,2.5 -0.66547,0.42755 -1.29,0.94039 -1.9375,1.40625 0.12122,-0.2828 0.27676,-0.54744 0.4375,-0.8125 0.72954,-1.20304 1.55429,-2.21362 2.46875,-3.09375 z m -22.9375,0.8125 c 0.73901,0.6331 1.53029,1.20977 2.3125,1.78125 -0.07186,0.12468 -0.15249,0.24703 -0.21875,0.375 -0.42969,0.82991 -0.80761,1.65744 -1.125,2.5 -1.50517,-0.08699 -3.39843,-0.30648 -5.90625,-0.6875 1.08638,-0.95769 2.27389,-1.9821 3.625,-3.21875 0.44468,-0.23863 0.87586,-0.49413 1.3125,-0.75 z m 25.46875,0.5 c 4.3519,2.55281 7.92845,3.27127 13.65625,5.0625 2.40729,0.28854 4.81461,0.68687 7.21875,0.9375 -1.12094,2.1854 -1.76566,3.39734 -1.75,6.65625 6e-4,0.12522 0.0278,0.25058 0.03125,0.375 -2.68015,-0.17043 -5.46249,-0.56771 -10.21875,-1.1875 2.8133,-0.77264 5.56682,-1.74402 8.3125,-2.75 -2.77834,1.00968 -5.58931,1.95195 -8.4375,2.71875 -1.33815,-0.17408 -2.73402,-0.3584 -4.4375,-0.5625 -3.60886,-1.10305 -7.33355,-1.92216 -10.90625,-3.125 -0.05556,-0.28494 -0.08392,-0.56573 -0.15625,-0.84375 0.37316,-1.21247 0.56728,-2.50497 0.9375,-3.71875 1.98977,-0.89328 3.66787,-2.04392 5.75,-3.5625 z M 107.59375,49.375 c 0.52392,0.48468 1.02237,0.98137 1.4375,1.5625 0.31826,0.44552 0.61099,0.93095 0.875,1.40625 -0.0505,0.02923 -0.10553,0.06437 -0.15625,0.09375 -2.20848,0.34112 -3.80402,0.53747 -5,0.53125 -0.0196,-1.1e-4 -0.0429,1.8e-4 -0.0625,0 0.29301,-0.51581 0.56708,-1.06359 0.9375,-1.75 0.65556,-0.61915 1.31308,-1.22472 1.96875,-1.84375 z m -48.812501,2.90625 c 0.40122,0.25097 0.79176,0.51813 1.1875,0.75 -0.49624,0.04888 -0.97543,0.09036 -1.4375,0.125 0.0783,-0.29314 0.15416,-0.58733 0.25,-0.875 z m -15.3125,1.15625 c 0.65433,0.13205 1.31188,0.25713 1.96875,0.375 -0.61476,0.55182 -1.20401,1.09665 -1.75,1.625 -0.10181,-0.66089 -0.18178,-1.33049 -0.21875,-2 z m 3.4375,0.625 c 2.35902,0.38411 4.70641,0.6813 7.0625,0.875 -0.27099,1.07391 -0.41936,2.15431 -0.40625,3.3125 -0.11012,0.01908 -0.23529,0.0443 -0.34375,0.0625 -2.71533,0.45558 -5.46345,0.59411 -8.21875,0.71875 -0.23649,-0.25964 -0.45615,-0.5479 -0.6875,-0.8125 -0.09148,-0.2964 -0.17308,-0.60539 -0.25,-0.90625 0.86429,-1.20783 1.78549,-2.24035 2.84375,-3.25 z M 110.78125,54.25 c 0.86702,2.28728 1.16857,4.78269 0.84375,7.21875 -3.78391,0.34711 -6.52862,0.54803 -8.71875,0.625 -0.11501,-0.9169 -0.16919,-1.87609 -0.125,-2.84375 0.0833,-1.82373 0.32518,-2.94898 0.71875,-3.96875 0.18696,0.0028 0.3755,7.3e-4 0.5625,0 0.009,-0.0033 0.022,0.0033 0.0312,0 2.10255,-0.01048 4.23166,-0.2618 6.34375,-0.90625 0.10801,-0.03296 0.23246,-0.09005 0.34375,-0.125 z M 69.031249,54.5 c -0.11358,0.38494 -0.23021,0.78942 -0.3125,1.1875 -0.06407,-0.02813 -0.12342,-0.06536 -0.1875,-0.09375 0.02345,-0.30025 0.04231,-0.60622 0.0625,-0.90625 0.14459,-0.06302 0.29303,-0.12317 0.4375,-0.1875 z m -4.96875,0.65625 c 0.0085,0.0039 0.02272,-0.0039 0.03125,0 0.0073,0.14698 -0.0054,0.29201 0,0.4375 -2.03764,0.64971 -4.05878,1.22524 -6,1.6875 -0.0066,-0.14707 -0.02838,-0.28925 -0.03125,-0.4375 -0.01073,-0.55412 0.03703,-1.094 0.09375,-1.625 1.97806,0.11246 3.96001,0.1854 5.90625,-0.0625 z m 0.0625,1.28125 c 0.01755,1.14862 0.01161,2.29075 -0.03125,3.5 -1.57407,-0.03207 -3.80513,0.16497 -5.59375,0.34375 -0.16258,-0.70061 -0.27385,-1.42483 -0.34375,-2.15625 2.06544,-0.48644 4.04644,-1.03074 5.96875,-1.6875 z m 4.28125,0.4375 c 0.03093,0.01094 0.06281,0.02035 0.09375,0.03125 -0.03536,0.18982 -0.08733,0.37364 -0.125,0.5625 0.01817,-0.19773 0.0138,-0.39719 0.03125,-0.59375 z m 4.3125,1.40625 c 2.97861,0.87331 6.12923,1.68482 9.65625,2.71875 1.02945,0.13995 2.01869,0.28811 3.03125,0.4375 -3.49646,0.81479 -7.00226,1.49228 -10.5,2.03125 -0.40787,-0.50659 -0.80047,-1.03647 -1.125,-1.59375 -0.63241,-1.086 -0.85129,-2.33416 -1.0625,-3.59375 z m -19.09375,0.75 c 0.0046,0.06284 -0.0056,0.12432 0,0.1875 0.04571,0.51888 0.09663,1.03359 0.1875,1.53125 -1.11852,0.15634 -2.23683,0.33957 -3.34375,0.5625 -0.30027,0.06047 -0.62667,0.12195 -0.9375,0.1875 -0.76889,-0.14959 -1.71777,-0.33401 -2.65625,-0.53125 -0.34873,-0.34527 -0.69204,-0.67614 -1.03125,-1.03125 2.00924,-0.11267 4.01305,-0.28374 6,-0.59375 0.6141,-0.09582 1.18636,-0.2082 1.78125,-0.3125 z m 14.59375,0.03125 c 0.50399,1.72146 0.72443,3.59754 1.6875,5.09375 -0.75896,0.08984 -1.52172,0.17209 -2.28125,0.25 0.12995,-1.02143 0.24397,-2.06615 0.40625,-3.28125 0.06224,-0.71444 0.12282,-1.37851 0.1875,-2.0625 z m 17.34375,2.40625 c 4.29144,0.63455 8.49192,1.28156 12.6875,1.625 0.23272,2.55125 1.0389,4.93278 2.281251,7.09375 -1.857021,0.3712 -3.716561,0.63958 -5.593751,0.71875 -3.13935,0.1324 -6.30933,-0.20857 -9.5,-1.09375 -2.49409,-0.69193 -4.95456,-1.69917 -7.09375,-3.15625 -1.25973,-0.85805 -2.40311,-1.93339 -3.375,-3.125 3.54888,-0.54952 7.0681,-1.22741 10.59375,-2.0625 z M 64.031249,61.625 c -0.01819,0.51076 -0.04786,0.97696 -0.0625,1.53125 -0.05424,0.52598 -0.07903,1.06669 -0.125,1.59375 -1.15288,0.08866 -2.31387,0.15614 -3.46875,0.21875 -0.14846,-0.25415 -0.27143,-0.52191 -0.40625,-0.78125 1.42941,-0.72024 2.80434,-1.57767 4.0625,-2.5625 z m -22.875,1.3125 c 0.45427,0.11197 0.75824,0.18033 1.15625,0.28125 -0.33372,0.08884 -0.66494,0.18978 -1,0.28125 -0.09267,-0.08361 -0.1871,-0.16806 -0.28125,-0.25 0.03367,-0.09181 0.059,-0.18969 0.09375,-0.28125 0.0051,-0.01346 0.02614,-0.01784 0.03125,-0.03125 z m 2.3125,1.125 c 0.22143,0.33367 0.44743,0.64679 0.6875,0.96875 -0.46643,-0.01972 -0.93919,-0.03924 -1.40625,-0.0625 -0.18546,-0.21193 -0.36733,-0.42415 -0.5625,-0.625 0.42497,-0.09772 0.85343,-0.1891 1.28125,-0.28125 z m 26.46875,0.15625 c 0.0077,0.01158 0.0235,0.01971 0.03125,0.03125 2.72895,4.06181 7.88162,6.53762 12.375,7.75 4.96819,1.34049 12.19769,1.73735 17.1875,0.15625 0.626921,-0.19865 1.234941,-0.41139 1.843751,-0.65625 0.59727,0.87833 1.27998,1.70152 2,2.5 -0.35255,0.2552 -0.70161,0.51726 -1.0625,0.75 -1.44307,0.93065 -3.247681,1.10816 -4.875001,1.65625 -3.4297,0.461 -6.8207,1.37446 -10.28125,1.375 -3.03517,4.7e-4 -6.06913,-0.32767 -9.0625,-0.875 -1.82208,-1.24616 -3.6065,-2.55363 -5.59375,-3.5 -1.84514,-0.8787 -3.86619,-1.604 -5.9375,-2.25 0.44773,-2.23076 0.75835,-4.29797 1.0625,-6.6875 0.7693,-0.07903 1.54414,-0.15876 2.3125,-0.25 z m -22.09375,0.5625 c 0.15222,0.13051 0.31519,0.24608 0.46875,0.375 -0.0519,-0.001 -0.10434,0.001 -0.15625,0 -0.10199,-0.12473 -0.21297,-0.24832 -0.3125,-0.375 z m 15.96875,0.0625 c -0.11675,1.34567 -0.21483,2.69123 -0.375,4.03125 -0.52261,-0.50781 -1.01422,-1.02367 -1.46875,-1.59375 -0.57408,-0.72005 -1.07758,-1.48183 -1.53125,-2.25 1.12685,-0.06194 2.24997,-0.10089 3.375,-0.1875 z m -12.34375,0.1875 c 0.72551,0.05449 1.49305,0.08479 2.4375,0.125 0.19325,0.0082 0.39734,0.01593 0.59375,0.03125 -0.30299,0.0053 -0.60307,0.02766 -0.90625,0.03125 -0.62709,0.0074 -1.24704,-3.6e-4 -1.875,0 -0.08152,-0.06354 -0.16883,-0.12351 -0.25,-0.1875 z m -8.65625,0.03125 c 0.46778,0.02284 0.9387,0.04321 1.40625,0.0625 0.92363,1.22578 2.00056,2.36346 3.125,3.40625 -0.76541,0.03937 -1.52656,0.10358 -2.28125,0.21875 -0.1726,-0.498 -0.37294,-0.98829 -0.625,-1.4375 -0.46951,-0.83675 -1.0292,-1.55908 -1.625,-2.25 z m 5.40625,0.1875 c 0.06229,0.0012 0.12522,-0.0011 0.1875,0 1.44023,1.20349 2.92053,2.34404 4.46875,3.40625 -0.44445,-0.02777 -0.89725,-0.03987 -1.34375,-0.0625 -0.20127,-0.16536 -0.39986,-0.32491 -0.59375,-0.5 -0.96369,-0.87029 -1.88308,-1.83096 -2.71875,-2.84375 z m 6.9375,0 c 0.07267,0.006 0.14605,-0.0055 0.21875,0 0.71839,1.39261 1.63104,2.7014 2.71875,3.9375 -0.23087,-0.03481 -0.45754,-0.06192 -0.6875,-0.09375 -1.94336,-1.17069 -3.83491,-2.4217 -5.625,-3.8125 1.12562,-0.0018 2.25095,-0.0067 3.375,-0.03125 z M 37.4375,65.5625 c 0.02896,0.03241 0.06497,0.06112 0.09375,0.09375 -0.5531,1.80019 -0.875409,3.65591 -1.03125,5.5 -3.664295,1.47786 -5.866595,3.28382 -10.34375,6.40625 -0.3268,0.58465 -0.71123,1.12478 -1.09375,1.6875 -4.267,-0.40669 -8.67613,-1.58192 -12.46875,-3.65625 4.55284,-2.73199 8.95565,-4.63931 14.46875,-6.65625 3.478004,-1.27242 6.914984,-2.40216 10.375,-3.375 z m 2.218749,3.09375 c 0.2038,0.38126 0.40269,0.7563 0.5625,1.15625 0.0083,0.02084 0.0231,0.04156 0.03125,0.0625 -0.26475,0.0733 -0.50012,0.14491 -0.75,0.21875 0.04249,-0.47893 0.08828,-0.96036 0.15625,-1.4375 z m 15.5,2.375 c 0.67842,0.08672 1.35351,0.19753 2.03125,0.3125 1.75285,1.00231 3.53498,1.9169 5.375,2.75 -0.03855,0.18752 -0.08472,0.37421 -0.125,0.5625 -0.75461,-0.25153 -1.52086,-0.52277 -2.28125,-0.75 -1.62337,-1.02239 -3.33253,-1.91083 -5,-2.875 z m -14.5,0.28125 c 0.16933,0.90349 0.16782,1.83268 0,2.71875 -0.15569,0.82199 -0.51407,1.6155 -1,2.34375 -0.22511,-1.66538 -0.29103,-3.35071 -0.21875,-5.03125 0.40797,-3.5e-4 0.81727,-0.0094 1.21875,-0.03125 z m -4.218749,0.375 c -0.157999,2.45281 0.01735,4.90555 0.5,7.3125 -0.727116,0.4621 -1.49874,0.82512 -2.25,1.03125 -0.08166,0.0224 -0.170972,0.03605 -0.25,0.03125 -0.553193,-0.03362 -1.031537,-0.67403 -1.5625,-0.9375 -1.56071,0.0403 -3.126616,0.17202 -4.6875,0.21875 0.629082,-1.33986 1.681115,-2.49554 2.4375,-3.78125 1.871022,-1.26949 3.537264,-2.94434 5.625,-3.8125 0.0628,-0.02612 0.123875,-0.03957 0.1875,-0.0625 z m 67.375,2.8125 c 0.0202,0.02125 0.0422,0.04131 0.0625,0.0625 -0.28288,0.11029 -0.55786,0.24076 -0.84375,0.34375 0.26194,-0.12903 0.52222,-0.2719 0.78125,-0.40625 z m 0.34375,0.34375 c 0.36042,0.36588 0.71223,0.74706 1.09375,1.09375 1.67191,1.5193 3.64586,2.66561 5.46875,4 0.1994,0.08869 0.39537,0.18998 0.59375,0.28125 -2.50464,0.5247 -5.0205,0.95344 -7.6875,1.15625 -1.22915,0.09347 -2.47908,0.13588 -3.718751,0.15625 -5.57852,0.09166 -11.23533,-0.54815 -16.65625,-1.96875 0.46208,0.03146 0.91247,0.07768 1.375,0.09375 3.3331,0.11582 6.65041,-0.66597 9.96875,-1 0.87467,-0.41407 1.76534,-0.80314 2.65625,-1.1875 2.27428,-0.70358 4.591441,-1.58724 6.906251,-2.625 z M 65.562499,75.375 c 0.31753,0.12529 0.6494,0.2234 0.96875,0.34375 0.35387,0.20037 0.70776,0.39522 1.0625,0.59375 -0.70387,-0.21417 -1.39451,-0.42259 -2.09375,-0.65625 0.02658,-0.09682 0.03671,-0.18593 0.0625,-0.28125 z M 114.25,83.40625 C 112.89528,84.2193 111.56836,85.08379 110.28125,86 l 0.875,0 c 1.64401,0 2.84999,-1.0588 3.09375,-2.59375 z" />
      </g>
      <rect
         style="opacity:0.1;fill:url(#linearGradient3125);fill-opacity:1;fill-rule:nonzero;stroke:#ffffff;stroke-width:0.5;stroke-linecap:round;stroke-linejoin:miter;stroke-miterlimit:4;stroke-opacity:1;stroke-dasharray:none;stroke-dashoffset:0;display:inline;filter:url(#filter3794)"
         id="rect3171"
         clip-path="url(#clipPath2977)"
         transform="translate(39.686275,-0.62745102)"
         y="15"
         x="-25"
         ry="12"
         rx="12"
         height="66"
         width="66" />
      <path
         sodipodi:type="arc"
         style="opacity:0.3;color:#000000;fill:url(#radialGradient3136);fill-opacity:1;fill-rule:nonzero;stroke:none;stroke-width:1;marker:none;visibility:visible;display:inline;overflow:visible"
         id="path6901"
         sodipodi:cx="26.78167"
         sodipodi:cy="42.343147"
         sodipodi:rx="14.407301"
         sodipodi:ry="4.0658641"
         d="m 41.188971,42.343147 c 0,2.245515 -6.450369,4.065864 -14.407301,4.065864 -7.956933,0 -14.407301,-1.820349 -14.407301,-4.065864 0,-2.245514 6.450368,-4.065864 14.407301,-4.065864 7.956932,0 14.407301,1.82035 14.407301,4.065864 z"
         inkscape:r_cx="true"
         inkscape:r_cy="true"
         transform="matrix(1.3339813,0,0,1.4553291,21.461008,8.7342452)" />
      <path
         sodipodi:nodetypes="ccssc"
         inkscape:r_cy="true"
         inkscape:r_cx="true"
         id="path6937"
         d="m 38.781234,47.227968 5.072638,4.925547 c 8.967241,-9.152706 22.186436,-31.073571 22.186436,-31.073571 0.535838,-1.586833 -1.356465,-2.586594 -2.30354,-1.516913 0,0 -17.079957,18.269239 -24.955534,27.664937 z"
         style="color:#000000;fill:url(#linearGradient6957);fill-opacity:1;fill-rule:nonzero;stroke:#673907;stroke-width:1.27155781;stroke-linecap:round;stroke-linejoin:miter;stroke-miterlimit:4;stroke-opacity:1;stroke-dasharray:none;stroke-dashoffset:0;marker:none;visibility:visible;display:inline;overflow:visible"
         inkscape:connector-curvature="0" />
      <path
         sodipodi:nodetypes="ccccccccc"
         inkscape:r_cy="true"
         inkscape:r_cx="true"
         id="path6935"
         d="m 29.297607,60.481942 2.802545,2.506151 10.595714,-9.547367 0.34317,-0.914723 1.365397,-0.02309 c -0.545832,-2.024938 -3.66988,-5.680779 -6.009161,-5.680779 l 0.102329,1.412692 -0.835891,0.492499 -8.364102,11.754613 z"
         style="color:#000000;fill:url(#linearGradient6945);fill-opacity:1;fill-rule:nonzero;stroke:#888a85;stroke-width:1.27155781;stroke-linecap:round;stroke-linejoin:miter;stroke-miterlimit:4;stroke-opacity:1;stroke-dasharray:none;stroke-dashoffset:0;marker:none;visibility:visible;display:inline;overflow:visible"
         inkscape:connector-curvature="0" />
      <path
         sodipodi:nodetypes="cssc"
         inkscape:r_cy="true"
         inkscape:r_cx="true"
         id="path6933"
         d="m 16.456421,70.733003 c 8.240895,0 14.49504,1.019402 15.679074,-5.208553 0.954169,-5.018871 -5.689535,-7.423717 -8.981754,-2.943188 -3.171444,4.316162 -6.69732,8.151741 -6.69732,8.151741 z"
         style="color:#000000;fill:url(#radialGradient6969);fill-opacity:1;fill-rule:nonzero;stroke:none;stroke-width:0.2;marker:none;visibility:visible;display:inline;overflow:visible"
         inkscape:connector-curvature="0" />
      <path
         transform="matrix(1.0633409,0,0,1.1045429,18.921518,21.29437)"
         inkscape:r_cy="true"
         inkscape:r_cx="true"
         d="m 8.8749989,37.75 c 0,0.690356 -0.559644,1.25 -1.2499999,1.25 -0.6903558,0 -1.2499998,-0.559644 -1.2499998,-1.25 0,-0.690356 0.559644,-1.25 1.2499998,-1.25 0.6903559,0 1.2499999,0.559644 1.2499999,1.25 z"
         sodipodi:ry="1.2499999"
         sodipodi:rx="1.2499999"
         sodipodi:cy="37.75"
         sodipodi:cx="7.624999"
         id="path6971"
         style="opacity:0.52777782;color:#000000;fill:#ffffff;fill-opacity:1;fill-rule:nonzero;stroke:none;stroke-width:1;marker:none;visibility:visible;display:inline;overflow:visible"
         sodipodi:type="arc" />
      <path
         sodipodi:type="arc"
         style="color:#000000;fill:#ffffff;fill-opacity:1;fill-rule:nonzero;stroke:none;stroke-width:1;marker:none;visibility:visible;display:inline;overflow:visible"
         id="path6983"
         sodipodi:cx="7.624999"
         sodipodi:cy="37.75"
         sodipodi:rx="1.2499999"
         sodipodi:ry="1.2499999"
         d="m 8.8749989,37.75 c 0,0.690356 -0.559644,1.25 -1.2499999,1.25 -0.6903558,0 -1.2499998,-0.559644 -1.2499998,-1.25 0,-0.690356 0.559644,-1.25 1.2499998,-1.25 0.6903559,0 1.2499999,0.559644 1.2499999,1.25 z"
         inkscape:r_cx="true"
         inkscape:r_cy="true"
         transform="matrix(0.98295572,0,0,1.021043,32.061195,11.835207)" />
      <path
         inkscape:r_cy="true"
         inkscape:r_cx="true"
         id="path6985"
         d="M 37.895122,52.167409 31.278637,60.12847"
         style="color:#000000;fill:none;stroke:#ffffff;stroke-width:1.27155781;stroke-linecap:round;stroke-linejoin:round;stroke-miterlimit:4;stroke-opacity:1;stroke-dasharray:none;stroke-dashoffset:0;marker:none;visibility:visible;display:inline;overflow:visible"
         inkscape:connector-curvature="0" />
      <path
         sodipodi:nodetypes="cssc"
         inkscape:r_cy="true"
         inkscape:r_cx="true"
         id="path1571"
         d="m 18.094763,69.884228 c 0,0 4.168425,-2.127732 5.944677,-5.296361 0.628433,-1.121051 2.051547,-0.164374 1.174838,0.951881 -1.893667,2.411076 -7.119515,4.34448 -7.119515,4.34448 z"
         style="opacity:0.42777776;color:#000000;fill:url(#linearGradient2452);fill-opacity:1;fill-rule:nonzero;stroke:none;stroke-width:1;marker:none;visibility:visible;display:inline;overflow:visible"
         inkscape:connector-curvature="0" />
      <path
         transform="matrix(0.29676675,0,0,0.30826579,62.214223,8.7538552)"
         inkscape:r_cy="true"
         inkscape:r_cx="true"
         d="m 8.8749989,37.75 c 0,0.690356 -0.559644,1.25 -1.2499999,1.25 -0.6903558,0 -1.2499998,-0.559644 -1.2499998,-1.25 0,-0.690356 0.559644,-1.25 1.2499998,-1.25 0.6903559,0 1.2499999,0.559644 1.2499999,1.25 z"
         sodipodi:ry="1.2499999"
         sodipodi:rx="1.2499999"
         sodipodi:cy="37.75"
         sodipodi:cx="7.624999"
         id="path2454"
         style="opacity:0.53333285;color:#000000;fill:#ffffff;fill-opacity:1;fill-rule:nonzero;stroke:none;stroke-width:1;marker:none;visibility:visible;display:inline;overflow:visible"
         sodipodi:type="arc" />
      <g
         id="g7038"
         transform="matrix(1.2476163,0,0,1.2959586,14.263474,17.956494)">
        <path
           style="color:#000000;fill:url(#linearGradient7025);fill-opacity:1;fill-rule:nonzero;stroke:#204a87;stroke-width:0.99999982;stroke-linecap:round;stroke-linejoin:miter;stroke-miterlimit:4;stroke-opacity:1;stroke-dasharray:none;stroke-dashoffset:0;marker:none;visibility:visible;display:inline;overflow:visible"
           d="m 35.12694,7.3500759 c -3.057856,0.087289 -5.484389,1.0560825 -5.484389,2.2243336 0,0.277699 0,3.2924195 0,3.5701185 0,1.225706 2.670932,2.224333 5.94142,2.224333 3.270486,0 5.916029,-0.998627 5.916029,-2.224333 0,-0.277699 0,-3.2924195 0,-3.5701185 0,-1.2257062 -2.645543,-2.2243336 -5.916029,-2.2243336 -0.153305,0 -0.306646,-0.00429 -0.457031,0 z"
           id="path6659"
           sodipodi:nodetypes="cssssssc"
           inkscape:r_cx="true"
           inkscape:r_cy="true"
           inkscape:connector-curvature="0" />
        <path
           sodipodi:type="arc"
           style="color:#000000;fill:#3465a4;fill-opacity:1;fill-rule:nonzero;stroke:none;stroke-width:0.99999982;marker:none;visibility:visible;display:inline;overflow:visible"
           id="path6729"
           sodipodi:cx="52"
           sodipodi:cy="49.75"
           sodipodi:rx="5.375"
           sodipodi:ry="1.5"
           d="m 57.375,49.75 c 0,0.828427 -2.406469,1.5 -5.375,1.5 -2.968531,0 -5.375,-0.671573 -5.375,-1.5 0,-0.828427 2.406469,-1.5 5.375,-1.5 2.968531,0 5.375,0.671573 5.375,1.5 z"
           inkscape:r_cx="true"
           inkscape:r_cy="true"
           transform="matrix(0.886278,0,0,0.468914,-10.44392,-9.718859)" />
        <path
           style="color:#000000;fill:url(#linearGradient7020);fill-opacity:1;fill-rule:nonzero;stroke:#5a5a5a;stroke-width:1.00000036;stroke-linecap:round;stroke-linejoin:miter;stroke-miterlimit:4;stroke-opacity:1;stroke-dasharray:none;stroke-dashoffset:0;marker:none;visibility:visible;display:inline;overflow:visible"
           d="m 27.926447,39.155467 1.047009,-21.349435 2.486646,-3.663512 c 1.971292,-0.635437 6.726427,-0.635437 8.506948,0 l 2.486647,3.031873 2.617523,22.486387 -17.144773,-0.505313 z"
           id="path6617"
           inkscape:r_cx="true"
           inkscape:r_cy="true"
           sodipodi:nodetypes="ccccccc"
           inkscape:connector-curvature="0" />
        <path
           style="color:#000000;fill:url(#linearGradient7017);fill-opacity:1;fill-rule:nonzero;stroke:none;stroke-width:1;marker:none;visibility:visible;display:inline;overflow:visible"
           d="m 28.828495,38.896108 c 0,0 2.590673,-9.531543 7.540188,-9.531543 5.106601,0 8.168535,9.912805 8.168535,9.912805 L 28.828495,38.896108 z"
           id="path6619"
           inkscape:r_cx="true"
           inkscape:r_cy="true"
           sodipodi:nodetypes="czcc"
           inkscape:connector-curvature="0" />
        <path
           style="color:#000000;fill:url(#linearGradient7014);fill-opacity:1;fill-rule:nonzero;stroke:none;stroke-width:1;marker:none;visibility:visible;display:inline;overflow:visible"
           d="m 29.180138,20.498708 -0.295913,6.474742 c 1.662489,-1.078371 11.992511,-1.264486 14.343625,0.387648 L 42.526302,20.763785 C 41.128342,19.810631 31.943464,19.28554 29.180138,20.498708 z"
           id="path6641"
           inkscape:r_cx="true"
           inkscape:r_cy="true"
           sodipodi:nodetypes="ccccc"
           inkscape:connector-curvature="0" />
        <path
           sodipodi:nodetypes="ccccccc"
           inkscape:r_cy="true"
           inkscape:r_cx="true"
           id="path6670"
           d="m 29.048762,38.222096 0.877497,-20.194312 1.839967,-3.032835 c 1.818556,-0.592175 6.205258,-0.592175 7.847823,0 L 41.57453,17.527535 44.026754,38.7759 29.048762,38.222096 z"
           style="opacity:0.59444424;color:#000000;fill:none;stroke:#ffffff;stroke-width:1.00000012;stroke-linecap:round;stroke-linejoin:miter;stroke-miterlimit:4;stroke-opacity:1;stroke-dasharray:none;stroke-dashoffset:0;marker:none;visibility:visible;display:inline;overflow:visible"
           inkscape:connector-curvature="0" />
        <rect
           style="color:#000000;fill:url(#linearGradient7010);fill-opacity:1;fill-rule:nonzero;stroke:#5a5a5a;stroke-width:1.0000006;stroke-linecap:round;stroke-linejoin:miter;stroke-miterlimit:4;stroke-opacity:1;stroke-dasharray:none;stroke-dashoffset:0;marker:none;visibility:visible;display:inline;overflow:visible"
           id="rect5742"
           width="19.974413"
           height="3.9277525"
           x="26.512789"
           y="37.536133"
           inkscape:r_cx="true"
           inkscape:r_cy="true"
           rx="0.88388413"
           ry="0.88388366" />
        <path
           style="color:#000000;fill:#ffffff;fill-opacity:1;fill-rule:nonzero;stroke:none;stroke-width:1;marker:none;visibility:visible;display:inline;overflow:visible"
           d="m 29.395219,17.996451 c 1.874537,-1.366188 9.097934,-1.655174 12.71992,-0.606704 l -2.337406,-2.885623 c -2.478201,-0.667208 -5.924347,-0.375766 -8.275461,0.06904 l -2.107053,3.423287 z"
           id="path6668"
           inkscape:r_cx="true"
           inkscape:r_cy="true"
           sodipodi:nodetypes="ccccc"
           inkscape:connector-curvature="0" />
        <path
           style="opacity:0.86111109;color:#000000;fill:url(#linearGradient7005);fill-opacity:1;fill-rule:nonzero;stroke:none;stroke-width:0.99999982;marker:none;visibility:visible;display:inline;overflow:visible"
           d="m 31.172941,17.416382 0,15.456651 3.235113,-3.59457 -0.359457,-12.580995 -2.875656,0.718914 z"
           id="path6833"
           inkscape:r_cx="true"
           inkscape:r_cy="true"
           inkscape:connector-curvature="0" />
        <g
           id="g7033"
           style="opacity:0.57777782">
          <path
             sodipodi:nodetypes="ccccc"
             inkscape:r_cy="true"
             inkscape:r_cx="true"
             id="path6666"
             d="m 31.009391,9.3809738 0,3.2400352 c 0,0 0.611189,-0.347686 0.990609,-0.361321 L 32,9 c -0.481572,0.069463 -0.990609,0.3809738 -0.990609,0.3809738 z"
             style="opacity:0.41111109;color:#000000;fill:#e6e7e6;fill-opacity:1;fill-rule:nonzero;stroke:none;stroke-width:1;marker:none;visibility:visible;display:inline;overflow:visible"
             inkscape:connector-curvature="0" />
          <path
             style="color:#000000;fill:#e6e7e6;fill-opacity:1;fill-rule:nonzero;stroke:none;stroke-width:1;marker:none;visibility:visible;display:inline;overflow:visible"
             d="m 33.009391,8.7599648 0,3.2400352 c 0,0 0.611189,-0.08252 0.990609,-0.09616 l 0,-3.3149307 c -0.511601,0.025805 -0.990609,0.1710515 -0.990609,0.1710515 z"
             id="path7029"
             inkscape:r_cx="true"
             inkscape:r_cy="true"
             sodipodi:nodetypes="ccccc"
             inkscape:connector-curvature="0" />
          <path
             sodipodi:nodetypes="ccccc"
             inkscape:r_cy="true"
             inkscape:r_cx="true"
             id="path7031"
             d="m 35.009391,8.561091 0,3.295278 c 0,0 0.555946,-0.0052 0.990609,0.01433 l 0,-3.3370274 c -0.500552,-0.051535 -0.990609,0.02742 -0.990609,0.02742 z"
             style="opacity:0.44444442;color:#000000;fill:#e6e7e6;fill-opacity:1;fill-rule:nonzero;stroke:none;stroke-width:1;marker:none;visibility:visible;display:inline;overflow:visible"
             inkscape:connector-curvature="0" />
        </g>
      </g>
    </g>
    <rect
       ry="25"
       rx="25"
       id="rect3003"
       style="opacity:0.15;fill:#ffffff;fill-opacity:1"
       height="92"
       width="92"
       y="958.36218"
       x="-96"
       clip-path="url(#clipPath3009)"
       transform="translate(98,0)" />
  </g>
</svg>
