<?xml version="1.0" encoding="UTF-8" standalone="no"?>
<!-- Created with Inkscape (http://www.inkscape.org/) -->

<svg
   xmlns:dc="http://purl.org/dc/elements/1.1/"
   xmlns:cc="http://creativecommons.org/ns#"
   xmlns:rdf="http://www.w3.org/1999/02/22-rdf-syntax-ns#"
   xmlns:svg="http://www.w3.org/2000/svg"
   xmlns="http://www.w3.org/2000/svg"
   xmlns:xlink="http://www.w3.org/1999/xlink"
   xmlns:sodipodi="http://sodipodi.sourceforge.net/DTD/sodipodi-0.dtd"
   xmlns:inkscape="http://www.inkscape.org/namespaces/inkscape"
   width="96"
   height="96"
   id="svg11037"
   version="1.1"
   inkscape:version="0.48.3.1 r9886"
   sodipodi:docname="quake4.svg">
  <defs
     id="defs11039">
    <linearGradient
       y2="1046.1001"
       x2="47.999954"
       y1="962.62189"
       x1="47.999954"
       gradientTransform="matrix(1.15,0,0,1.15,-7.1999462,-150.65291)"
       gradientUnits="userSpaceOnUse"
       id="linearGradient3886"
       xlink:href="#linearGradient3795"
       inkscape:collect="always" />
    <linearGradient
       id="linearGradient3795">
      <stop
         style="stop-color:#13a6fd;stop-opacity:1;"
         offset="0"
         id="stop3797" />
      <stop
         style="stop-color:#2975b6;stop-opacity:1;"
         offset="1"
         id="stop3799" />
    </linearGradient>
    <linearGradient
       y2="1046.1001"
       x2="47.999954"
       y1="962.62189"
       x1="47.999954"
       gradientTransform="matrix(1.15,0,0,1.15,-7.1999462,-150.65292)"
       gradientUnits="userSpaceOnUse"
       id="linearGradient11642"
       xlink:href="#linearGradient3795"
       inkscape:collect="always" />
    <clipPath
       clipPathUnits="userSpaceOnUse"
       id="clipPath3009">
      <path
         id="path3011"
         d="m -2,956.36218 -96,0 0,33.5624 96,25.68742 0,-59.24982 z"
         style="opacity:0.15;fill:#ffffff;fill-opacity:1;stroke:none"
         inkscape:connector-curvature="0" />
    </clipPath>
    <radialGradient
       cx="26.358019"
       cy="50.082199"
       r="42"
       fx="26.358019"
       fy="50.082199"
       id="radialGradient3142"
       xlink:href="#linearGradient17127-9"
       gradientUnits="userSpaceOnUse"
       gradientTransform="matrix(1.4481287,0.82894711,-0.865734,1.6239436,27.424359,-53.685058)" />
    <linearGradient
       id="linearGradient17127-9">
      <stop
         id="stop17129-0"
         style="stop-color:#c5df43;stop-opacity:1"
         offset="0" />
      <stop
         id="stop17131-8"
         style="stop-color:#000000;stop-opacity:1"
         offset="1" />
    </linearGradient>
    <linearGradient
       x1="706.63983"
       y1="239.55937"
       x2="700.2254"
       y2="233.08882"
       id="linearGradient3144"
       xlink:href="#linearGradient6749"
       gradientUnits="userSpaceOnUse"
       gradientTransform="matrix(1.4458204,0,0,1.5030002,-973.15795,-336.58618)" />
    <linearGradient
       id="linearGradient6749">
      <stop
         id="stop6751"
         style="stop-color:#dce21f;stop-opacity:1"
         offset="0" />
      <stop
         id="stop6753"
         style="stop-color:#dce21f;stop-opacity:0"
         offset="1" />
    </linearGradient>
    <linearGradient
       x1="706.63983"
       y1="239.55937"
       x2="700.2254"
       y2="233.08882"
       id="linearGradient3150"
       xlink:href="#linearGradient6749"
       gradientUnits="userSpaceOnUse"
       gradientTransform="matrix(1.4458204,0,0,1.5030002,-972.32902,-335.78745)" />
    <linearGradient
       id="linearGradient3191">
      <stop
         id="stop3193"
         style="stop-color:#dce21f;stop-opacity:1"
         offset="0" />
      <stop
         id="stop3195"
         style="stop-color:#dce21f;stop-opacity:0"
         offset="1" />
    </linearGradient>
    <linearGradient
       x1="706.63983"
       y1="239.55937"
       x2="700.2254"
       y2="233.08882"
       id="linearGradient3152"
       xlink:href="#linearGradient6749"
       gradientUnits="userSpaceOnUse"
       gradientTransform="matrix(1.4458204,0,0,1.5030002,-971.48965,-334.94259)" />
    <linearGradient
       id="linearGradient3198">
      <stop
         id="stop3200"
         style="stop-color:#dce21f;stop-opacity:1"
         offset="0" />
      <stop
         id="stop3202"
         style="stop-color:#dce21f;stop-opacity:0"
         offset="1" />
    </linearGradient>
    <linearGradient
       x1="706.63983"
       y1="239.55937"
       x2="700.2254"
       y2="233.08882"
       id="linearGradient3154"
       xlink:href="#linearGradient6749"
       gradientUnits="userSpaceOnUse"
       gradientTransform="matrix(1.4458204,0,0,1.5030002,-970.06542,-334.30033)" />
    <linearGradient
       id="linearGradient3205">
      <stop
         id="stop3207"
         style="stop-color:#dce21f;stop-opacity:1"
         offset="0" />
      <stop
         id="stop3209"
         style="stop-color:#dce21f;stop-opacity:0"
         offset="1" />
    </linearGradient>
    <linearGradient
       x1="706.63983"
       y1="239.55937"
       x2="700.2254"
       y2="233.08882"
       id="linearGradient3156"
       xlink:href="#linearGradient6749"
       gradientUnits="userSpaceOnUse"
       gradientTransform="matrix(1.4458204,0,0,1.5030002,-968.78803,-333.56937)" />
    <linearGradient
       id="linearGradient3212">
      <stop
         id="stop3214"
         style="stop-color:#dce21f;stop-opacity:1"
         offset="0" />
      <stop
         id="stop3216"
         style="stop-color:#dce21f;stop-opacity:0"
         offset="1" />
    </linearGradient>
    <linearGradient
       x1="706.63983"
       y1="239.55937"
       x2="700.2254"
       y2="233.08882"
       id="linearGradient3158"
       xlink:href="#linearGradient6749"
       gradientUnits="userSpaceOnUse"
       gradientTransform="matrix(1.4458204,0,0,1.5030002,-968.78803,-332.2902)" />
    <linearGradient
       id="linearGradient3219">
      <stop
         id="stop3221"
         style="stop-color:#dce21f;stop-opacity:1"
         offset="0" />
      <stop
         id="stop3223"
         style="stop-color:#dce21f;stop-opacity:0"
         offset="1" />
    </linearGradient>
    <linearGradient
       y2="233.08882"
       x2="700.2254"
       y1="239.55937"
       x1="706.63983"
       gradientTransform="matrix(1.4458204,0,0,1.5030002,-968.78803,-332.2902)"
       gradientUnits="userSpaceOnUse"
       id="linearGradient3238"
       xlink:href="#linearGradient6749"
       inkscape:collect="always" />
    <clipPath
       clipPathUnits="userSpaceOnUse"
       id="clipPath3090">
      <rect
         x="6.2823591"
         y="6.616107"
         width="83.589226"
         height="83.041824"
         style="opacity:0.6;fill:#000000;fill-opacity:1"
         id="rect3092"
         rx="22.714464"
         ry="22.565712" />
    </clipPath>
  </defs>
  <sodipodi:namedview
     id="base"
     pagecolor="#ffffff"
     bordercolor="#666666"
     borderopacity="1.0"
     inkscape:pageopacity="0.0"
     inkscape:pageshadow="2"
     inkscape:zoom="3.959798"
     inkscape:cx="29.118614"
     inkscape:cy="59.964634"
     inkscape:document-units="px"
     inkscape:current-layer="layer1"
     showgrid="false"
     inkscape:window-width="1366"
     inkscape:window-height="684"
     inkscape:window-x="0"
     inkscape:window-y="26"
     inkscape:window-maximized="1"
     showguides="true"
     inkscape:guide-bbox="true">
    <sodipodi:guide
       orientation="0,1"
       position="-24.748737,0"
       id="guide11064" />
    <sodipodi:guide
       orientation="0,1"
       position="-23.233509,96"
       id="guide11066" />
    <sodipodi:guide
       orientation="1,0"
       position="0,54.800776"
       id="guide11068" />
    <sodipodi:guide
       orientation="1,0"
       position="96,51.012704"
       id="guide11070" />
    <sodipodi:guide
       orientation="0,1"
       position="-18.94036,48"
       id="guide11072" />
    <sodipodi:guide
       orientation="1,0"
       position="48,79.296975"
       id="guide11074" />
    <sodipodi:guide
       orientation="1,0"
       position="2,75.508903"
       id="guide11076" />
    <sodipodi:guide
       orientation="0,1"
       position="-77.27667,2"
       id="guide11078" />
    <sodipodi:guide
       orientation="1,0"
       position="94,77.781746"
       id="guide11080" />
    <sodipodi:guide
       orientation="0,1"
       position="-65.912454,94"
       id="guide11082" />
  </sodipodi:namedview>
  <metadata
     id="metadata11042">
    <rdf:RDF>
      <cc:Work
         rdf:about="">
        <dc:format>image/svg+xml</dc:format>
        <dc:type
           rdf:resource="http://purl.org/dc/dcmitype/StillImage" />
        <dc:title />
      </cc:Work>
    </rdf:RDF>
  </metadata>
  <g
     inkscape:label="Layer 1"
     inkscape:groupmode="layer"
     id="layer1"
     transform="translate(0,-956.36218)">
    <g
       transform="matrix(1.1006203,0,0,1.1078755,-4.9144922,951.03236)"
       id="g3158"
       clip-path="url(#clipPath3090)">
      <rect
         style="fill:#000000;fill-opacity:1;stroke:none"
         id="rect6670"
         y="4.0958304"
         x="4.4652023"
         ry="6.7561522"
         rx="6.2509813"
         height="86.64296"
         width="83.346733" />
      <path
         inkscape:connector-curvature="0"
         style="fill:url(#radialGradient3142);fill-opacity:1;fill-rule:nonzero;stroke:none"
         id="rect5790"
         d="m 10.858351,3.6085294 c -3.4453754,0 -6.2351002,2.79038 -6.2351002,6.2468442 l 0,46.1702894 c 7.1228492,4.141952 14.1419302,5.2605 14.1419302,5.2605 l -0.451819,-10.333126 4.080264,-9.44072 3.600657,9.205876 -0.201649,10.453487 c 0,0 6.43419,1.148442 16.331583,-6.55508 C 54.314636,45.128325 56.539045,38.615585 54.052234,23.899033 51.747004,10.256961 38.012664,4.2191232 38.012664,4.2191232 c 0,0 5.264724,0.067484 14.684114,10.7558458 14.13246,16.036456 3.253095,35.743224 3.253095,35.743224 l 1.310275,2.771157 -5.241099,7.374094 -3.750096,-0.187875 -3.479005,2.536313 -0.225909,2.912064 -9.849652,4.039313 -1.310274,-1.503 -7.635739,1.268156 0.271091,17.096627 -0.903638,3.945376 60.363,0 c 3.445375,0 6.189918,-2.79038 6.189918,-6.246844 l 0,-74.8682004 c 0,-3.4564642 -2.744543,-6.2468442 -6.189918,-6.2468442 z M 4.6232508,67.86179 l 0,16.861784 c 0,3.456464 2.7897248,6.246844 6.2351002,6.246844 l 8.810467,0 -1.129547,-4.555969 c 0,0 0.68652,-16.69707 -0.406636,-16.486034 -1.458139,-0.03262 -5.918827,-1.268156 -5.918827,-1.268156 l -2.3946406,1.690875 z" />
      <path
         inkscape:connector-curvature="0"
         style="fill:none;stroke:url(#linearGradient3144);stroke-width:1.17885017;stroke-linecap:round;stroke-linejoin:miter;stroke-miterlimit:4;stroke-opacity:1;stroke-dasharray:none"
         id="path6690"
         d="m 39.980875,4.7167666 c 0,0 15.512204,5.4770374 18.696264,20.3516004 3.882738,18.138492 -2.168906,25.543152 -2.168906,25.543152 l 1.245908,2.933697 -5.6508,7.943988 -3.45593,-0.547859 -3.97323,3.231601 0.601375,2.188067 -10.524112,4.258 -1.692275,-1.641787 -6.910053,1.287921 0.446282,17.086317 -0.781669,3.016567" />
      <path
         inkscape:connector-curvature="0"
         style="opacity:0.21198156;fill:none;stroke:#d2e66d;stroke-width:1.46493447;stroke-miterlimit:4;stroke-opacity:1;stroke-dasharray:none"
         id="path5800"
         d="m 34.626195,30.531184 a 12.084015,11.619232 0 1 1 -24.16803,0 12.084015,11.619232 0 1 1 24.16803,0 z" />
      <path
         inkscape:connector-curvature="0"
         style="opacity:0.31336407;fill:#f2fac9;fill-opacity:1;stroke:none"
         id="path5806"
         d="m 24.504936,30.717189 a 1.587895,1.3897084 0 1 1 -3.17579,0 1.587895,1.3897084 0 1 1 3.17579,0 z" />
      <path
         inkscape:connector-curvature="0"
         style="opacity:0.10138251;fill:none;stroke:#d2e66d;stroke-width:3.02103925;stroke-miterlimit:4;stroke-opacity:1;stroke-dasharray:none"
         id="path5808"
         d="m 31.747165,30.531191 a 9.2049803,9.1342896 0 1 1 -18.40996,0 9.2049803,9.1342896 0 1 1 18.40996,0 z" />
      <path
         inkscape:connector-curvature="0"
         style="opacity:0.11981566;fill:none;stroke:#d2e66d;stroke-width:1.22412336;stroke-miterlimit:4;stroke-opacity:1;stroke-dasharray:none"
         id="path5810"
         d="m 26.818187,30.717178 a 4.088576,3.6851939 0 1 1 -8.177152,0 4.088576,3.6851939 0 1 1 8.177152,0 z" />
      <path
         inkscape:connector-curvature="0"
         style="opacity:0.735426;fill:none;stroke:url(#linearGradient3150);stroke-width:1.17885017;stroke-linecap:round;stroke-linejoin:miter;stroke-miterlimit:4;stroke-opacity:1;stroke-dasharray:none"
         id="path5875"
         d="m 40.809807,5.515491 c 0,0 15.275005,5.529944 18.696264,20.3516 4.186879,18.138493 -1.743112,24.446727 -1.743112,24.446727 l 0.820114,4.030122 -5.894117,8.370374 -3.577581,-0.608775 -3.304119,2.683396 0.844677,2.188068 -12.227288,4.98894 -1.692275,-1.763607 -5.754322,0.861536 0.446282,17.086317 -1.02503,2.22471" />
      <path
         inkscape:connector-curvature="0"
         style="opacity:0.54708521;fill:none;stroke:url(#linearGradient3152);stroke-width:1.17885017;stroke-linecap:round;stroke-linejoin:miter;stroke-miterlimit:4;stroke-opacity:1;stroke-dasharray:none"
         id="path5879"
         d="m 43.048221,5.1420903 c 0,0 13.75932,6.7756807 17.297221,21.5698517 4.308535,18.016668 -1.317316,23.776683 -1.317316,23.776683 l 0.820113,4.03013 -6.684881,9.527713 -3.699232,-0.79151 -2.391706,1.952443 1.02717,2.431719 -14.052131,5.658976 -1.753101,-1.824521 -4.476939,0.435148 0.446281,17.086317 -0.781712,1.493757" />
      <path
         inkscape:connector-curvature="0"
         style="opacity:0.38116593;fill:none;stroke:url(#linearGradient3154);stroke-width:1.17885017;stroke-linecap:round;stroke-linejoin:miter;stroke-miterlimit:4;stroke-opacity:1;stroke-dasharray:none"
         id="path5913"
         d="m 43.620871,6.2107504 c 0,0 15.097622,6.2410006 18.148812,21.1434636 3.713748,18.138493 -1.489363,23.389037 -1.489363,23.389037 l 0.820112,4.03013 -7.459095,10.561435 -3.828268,-0.834581 -1.35942,1.134079 1.070182,2.647078 -15.686584,6.391195 -2.054183,-1.996808 -2.799476,0.305933 0.446281,16.311027 -0.652675,1.278397" />
      <path
         inkscape:connector-curvature="0"
         style="opacity:0.19282514;fill:none;stroke:url(#linearGradient3156);stroke-width:1.17885017;stroke-linecap:round;stroke-linejoin:miter;stroke-miterlimit:4;stroke-opacity:1;stroke-dasharray:none"
         id="path5917"
         d="m 44.350806,7.7335656 c 0,0 15.98305,5.3837324 18.696265,20.3516004 3.287952,18.138493 -1.489363,22.901736 -1.489363,22.901736 l 0.759285,4.03013 -8.189032,11.718774 -3.828268,-1.078231 -0.507828,0.281302 1.009354,3.073467 -17.450596,6.939409 -1.810872,-2.179547 -1.400431,0.123195 0.446281,15.823726 -0.774332,1.034747" />
      <path
         inkscape:connector-curvature="0"
         style="opacity:0.06278028;fill:none;stroke:url(#linearGradient3238);stroke-width:1.17885017;stroke-linecap:round;stroke-linejoin:miter;stroke-miterlimit:4;stroke-opacity:1;stroke-dasharray:none"
         id="path5921"
         d="m 45.324054,7.0635269 c 0,0 16.226362,7.5765861 18.939578,22.5444541 3.287951,18.138493 -1.550193,21.683483 -1.550193,21.683483 l 0.94177,3.78648 -9.527248,12.937026 -3.037504,-1.200056 0.222108,0.03765 0.766041,2.525253 -19.275435,7.792186 -1.810872,-2.301372 0.241925,0.184108 0.567937,14.910036 -0.83516,0.912922" />
    </g>
    <rect
       ry="25"
       rx="25"
       id="rect3003"
       style="opacity:0.15;fill:#ffffff;fill-opacity:1"
       height="92"
       width="92"
       y="958.36218"
       x="-96"
       clip-path="url(#clipPath3009)"
       transform="translate(98,0)" />
  </g>
</svg>
