<?xml version="1.0" encoding="UTF-8" standalone="no"?>
<!-- Created with Inkscape (http://www.inkscape.org/) -->

<svg
   xmlns:dc="http://purl.org/dc/elements/1.1/"
   xmlns:cc="http://creativecommons.org/ns#"
   xmlns:rdf="http://www.w3.org/1999/02/22-rdf-syntax-ns#"
   xmlns:svg="http://www.w3.org/2000/svg"
   xmlns="http://www.w3.org/2000/svg"
   xmlns:xlink="http://www.w3.org/1999/xlink"
   xmlns:sodipodi="http://sodipodi.sourceforge.net/DTD/sodipodi-0.dtd"
   xmlns:inkscape="http://www.inkscape.org/namespaces/inkscape"
   width="96"
   height="96"
   id="svg11037"
   version="1.1"
   inkscape:version="0.48.3.1 r9886"
   sodipodi:docname="redshift.svg">
  <defs
     id="defs11039">
    <linearGradient
       y2="1046.1001"
       x2="47.999954"
       y1="962.62189"
       x1="47.999954"
       gradientTransform="matrix(1.15,0,0,1.15,-7.1999462,-150.65291)"
       gradientUnits="userSpaceOnUse"
       id="linearGradient3886"
       xlink:href="#linearGradient3795"
       inkscape:collect="always" />
    <linearGradient
       id="linearGradient3795">
      <stop
         style="stop-color:#13a6fd;stop-opacity:1;"
         offset="0"
         id="stop3797" />
      <stop
         style="stop-color:#2975b6;stop-opacity:1;"
         offset="1"
         id="stop3799" />
    </linearGradient>
    <linearGradient
       y2="1046.1001"
       x2="47.999954"
       y1="962.62189"
       x1="47.999954"
       gradientTransform="matrix(1.15,0,0,1.15,-7.1999462,-150.65292)"
       gradientUnits="userSpaceOnUse"
       id="linearGradient11642"
       xlink:href="#linearGradient3795"
       inkscape:collect="always" />
    <clipPath
       clipPathUnits="userSpaceOnUse"
       id="clipPath3009">
      <path
         id="path3011"
         d="m -2,956.36218 -96,0 0,33.5624 96,25.68742 0,-59.24982 z"
         style="opacity:0.15;fill:#ffffff;fill-opacity:1;stroke:none"
         inkscape:connector-curvature="0" />
    </clipPath>
    <linearGradient
       x1="48"
       y1="90"
       x2="48"
       y2="5.9877172"
       id="linearGradient3617"
       xlink:href="#radialGradient3809"
       gradientUnits="userSpaceOnUse"
       gradientTransform="translate(0,-96)" />
    <radialGradient
       cx="622.72803"
       cy="621.17328"
       r="510.71881"
       fx="622.72803"
       fy="621.17328"
       id="radialGradient3809"
       gradientUnits="userSpaceOnUse">
      <stop
         id="stop3811"
         style="stop-color:#f0f0f0;stop-opacity:1"
         offset="0" />
      <stop
         id="stop3813"
         style="stop-color:#e1e1e1;stop-opacity:1"
         offset="0.2814" />
      <stop
         id="stop3815"
         style="stop-color:#c0c0c0;stop-opacity:1"
         offset="0.75150001" />
      <stop
         id="stop3817"
         style="stop-color:#b2b2b2;stop-opacity:1"
         offset="1" />
    </radialGradient>
    <linearGradient
       y2="5.9877172"
       x2="48"
       y1="90"
       x1="48"
       gradientTransform="matrix(1.1428571,0,0,1.1428571,-6.8571429,-1059.2193)"
       gradientUnits="userSpaceOnUse"
       id="linearGradient3278"
       xlink:href="#radialGradient3809"
       inkscape:collect="always" />
    <clipPath
       clipPathUnits="userSpaceOnUse"
       id="clipPath3022">
      <rect
         x="2"
         y="958.36218"
         width="92"
         height="92"
         style="opacity:0.6;fill:#000000;fill-opacity:1"
         id="rect3024"
         rx="25"
         ry="25"
         transform="scale(1,-1)" />
    </clipPath>
    <radialGradient
       gradientTransform="matrix(0.021289,0,0,0.027586,323.37,-435.1)"
       r="358.45001"
       cy="-405.91"
       cx="97.468002"
       gradientUnits="userSpaceOnUse"
       id="radialGradient7778">
      <stop
         offset="0"
         style="stop-color:#787974"
         id="stop9644" />
      <stop
         offset="1"
         style="stop-color:#787974;stop-opacity:0"
         id="stop9646" />
    </radialGradient>
    <radialGradient
       gradientTransform="matrix(1.3418,0,0,1.0894,-13.234,-3.7454)"
       r="15.062"
       cy="18.625"
       cx="27.75"
       gradientUnits="userSpaceOnUse"
       id="radialGradient2996">
      <stop
         offset="0"
         style="stop-color:#ff4300;stop-opacity:0"
         id="stop2744" />
      <stop
         offset=".5"
         style="stop-color:#ff2c00;stop-opacity:.32549"
         id="stop2746" />
      <stop
         offset="1"
         style="stop-color:#ff5600;stop-opacity:0"
         id="stop2748" />
    </radialGradient>
    <radialGradient
       gradientTransform="matrix(2.1122,0,0,0.62269,-6.2016,-3.2095)"
       r="7.829"
       cy="74.209999"
       cx="14.772"
       gradientUnits="userSpaceOnUse"
       id="radialGradient2993">
      <stop
         offset="0"
         style="stop-opacity:.51546"
         id="stop2801" />
      <stop
         offset=".55172"
         style="stop-opacity:.14433"
         id="stop2803" />
      <stop
         offset="1"
         style="stop-opacity:0"
         id="stop2805" />
    </radialGradient>
    <linearGradient
       x1="23.124001"
       x2="26.478001"
       gradientTransform="matrix(1.7634,0,0,1.5367,-19.733,-23.884)"
       y1="43.165001"
       gradientUnits="userSpaceOnUse"
       y2="43.165001"
       id="linearGradient2990">
      <stop
         offset=".005618"
         style="stop-color:#686868"
         id="stop2815" />
      <stop
         offset=".030121"
         style="stop-color:#777"
         id="stop2817" />
      <stop
         offset=".083666"
         style="stop-color:#929292"
         id="stop2819" />
      <stop
         offset=".1422"
         style="stop-color:#a7a7a7"
         id="stop2821" />
      <stop
         offset=".2074"
         style="stop-color:#b6b6b6"
         id="stop2823" />
      <stop
         offset=".2846"
         style="stop-color:#bebebe"
         id="stop2825" />
      <stop
         offset=".4045"
         style="stop-color:#c1c1c1"
         id="stop2827" />
      <stop
         offset=".4962"
         style="stop-color:#bcbcbc"
         id="stop2829" />
      <stop
         offset=".6057"
         style="stop-color:#adadad"
         id="stop2831" />
      <stop
         offset=".7245"
         style="stop-color:#959595"
         id="stop2833" />
      <stop
         offset=".8497"
         style="stop-color:#747474"
         id="stop2835" />
      <stop
         offset=".9789"
         style="stop-color:#494949"
         id="stop2837" />
      <stop
         offset="1"
         style="stop-color:#414141"
         id="stop2839" />
    </linearGradient>
    <linearGradient
       x1="24.613001"
       x2="24.613001"
       gradientTransform="matrix(0.9917,0,0,0.99093,-0.40874,1.0079)"
       y1="31.146"
       gradientUnits="userSpaceOnUse"
       y2="26.74"
       id="linearGradient2987">
      <stop
         offset="0"
         style="stop-color:#4c4428"
         id="stop2751" />
      <stop
         offset="1"
         style="stop-color:#e7b600;stop-opacity:0"
         id="stop2753" />
    </linearGradient>
    <linearGradient
       x1="-22.874001"
       x2="-4.3908"
       gradientTransform="matrix(0.56043,0.029697,-0.11726,0.65231,35.381,20.962)"
       y1="38.675999"
       gradientUnits="userSpaceOnUse"
       xlink:href="#lG19894"
       y2="38.675999"
       id="linearGradient2982" />
    <linearGradient
       x1="18.995001"
       x2="30.17"
       y1="37.227001"
       gradientUnits="userSpaceOnUse"
       y2="37.227001"
       id="lG19894">
      <stop
         offset=".005618"
         style="stop-color:#a3a349"
         id="stop2842" />
      <stop
         offset=".020787"
         style="stop-color:#acac54"
         id="stop2844" />
      <stop
         offset=".066"
         style="stop-color:#c1c172"
         id="stop2846" />
      <stop
         offset=".1148"
         style="stop-color:#d4d68e"
         id="stop2848" />
      <stop
         offset=".1677"
         style="stop-color:#e2e4a6"
         id="stop2850" />
      <stop
         offset=".2265"
         style="stop-color:#edf0b8"
         id="stop2852" />
      <stop
         offset=".2963"
         style="stop-color:#f3f6c3"
         id="stop2854" />
      <stop
         offset=".4045"
         style="stop-color:#f5f8c7"
         id="stop2856" />
      <stop
         offset=".5239"
         style="stop-color:#eef0be"
         id="stop2858" />
      <stop
         offset=".6666"
         style="stop-color:#dbdda9"
         id="stop2860" />
      <stop
         offset=".8211"
         style="stop-color:#bebd88"
         id="stop2862" />
      <stop
         offset=".9832"
         style="stop-color:#989564"
         id="stop2864" />
      <stop
         offset="1"
         style="stop-color:#949160"
         id="stop2866" />
    </linearGradient>
    <linearGradient
       x1="-10.481"
       x2="-23.851"
       gradientTransform="matrix(0.56043,0.029697,-0.11726,0.65231,35.381,20.962)"
       y1="39.034"
       gradientUnits="userSpaceOnUse"
       xlink:href="#lG2399"
       y2="39.143002"
       id="linearGradient2984" />
    <linearGradient
       id="lG2399">
      <stop
         offset="0"
         style="stop-color:#929470"
         id="stop2775" />
      <stop
         offset=".26471"
         style="stop-color:#fcffc1"
         id="stop2777" />
      <stop
         offset=".63235"
         style="stop-color:#f3f5ba"
         id="stop2779" />
      <stop
         offset="1"
         style="stop-color:#929470"
         id="stop2781" />
    </linearGradient>
    <linearGradient
       x1="-22.874001"
       x2="-4.3908"
       gradientTransform="matrix(0.61192,-0.13118,0.061943,0.73641,30.371,15.406)"
       y1="38.675999"
       gradientUnits="userSpaceOnUse"
       xlink:href="#lG19894"
       y2="38.675999"
       id="linearGradient2977" />
    <linearGradient
       x1="18.995001"
       x2="30.17"
       y1="37.227001"
       gradientUnits="userSpaceOnUse"
       y2="37.227001"
       id="linearGradient3340">
      <stop
         offset=".005618"
         style="stop-color:#a3a349"
         id="stop3342" />
      <stop
         offset=".020787"
         style="stop-color:#acac54"
         id="stop3344" />
      <stop
         offset=".066"
         style="stop-color:#c1c172"
         id="stop3346" />
      <stop
         offset=".1148"
         style="stop-color:#d4d68e"
         id="stop3348" />
      <stop
         offset=".1677"
         style="stop-color:#e2e4a6"
         id="stop3350" />
      <stop
         offset=".2265"
         style="stop-color:#edf0b8"
         id="stop3352" />
      <stop
         offset=".2963"
         style="stop-color:#f3f6c3"
         id="stop3354" />
      <stop
         offset=".4045"
         style="stop-color:#f5f8c7"
         id="stop3356" />
      <stop
         offset=".5239"
         style="stop-color:#eef0be"
         id="stop3358" />
      <stop
         offset=".6666"
         style="stop-color:#dbdda9"
         id="stop3360" />
      <stop
         offset=".8211"
         style="stop-color:#bebd88"
         id="stop3362" />
      <stop
         offset=".9832"
         style="stop-color:#989564"
         id="stop3364" />
      <stop
         offset="1"
         style="stop-color:#949160"
         id="stop3366" />
    </linearGradient>
    <linearGradient
       x1="-10.481"
       x2="-23.851"
       gradientTransform="matrix(0.61192,-0.13118,0.061943,0.73641,30.371,15.406)"
       y1="39.034"
       gradientUnits="userSpaceOnUse"
       xlink:href="#lG2399"
       y2="39.143002"
       id="linearGradient2979" />
    <linearGradient
       id="linearGradient3369">
      <stop
         offset="0"
         style="stop-color:#929470"
         id="stop3371" />
      <stop
         offset=".26471"
         style="stop-color:#fcffc1"
         id="stop3373" />
      <stop
         offset=".63235"
         style="stop-color:#f3f5ba"
         id="stop3375" />
      <stop
         offset="1"
         style="stop-color:#929470"
         id="stop3377" />
    </linearGradient>
    <linearGradient
       x1="-22.874001"
       x2="-4.3908"
       gradientTransform="matrix(0.61192,-0.13118,0.061943,0.73641,30.371,12.33)"
       y1="38.675999"
       gradientUnits="userSpaceOnUse"
       xlink:href="#lG19894"
       y2="38.675999"
       id="linearGradient2972" />
    <linearGradient
       x1="18.995001"
       x2="30.17"
       y1="37.227001"
       gradientUnits="userSpaceOnUse"
       y2="37.227001"
       id="linearGradient3380">
      <stop
         offset=".005618"
         style="stop-color:#a3a349"
         id="stop3382" />
      <stop
         offset=".020787"
         style="stop-color:#acac54"
         id="stop3384" />
      <stop
         offset=".066"
         style="stop-color:#c1c172"
         id="stop3386" />
      <stop
         offset=".1148"
         style="stop-color:#d4d68e"
         id="stop3388" />
      <stop
         offset=".1677"
         style="stop-color:#e2e4a6"
         id="stop3390" />
      <stop
         offset=".2265"
         style="stop-color:#edf0b8"
         id="stop3392" />
      <stop
         offset=".2963"
         style="stop-color:#f3f6c3"
         id="stop3394" />
      <stop
         offset=".4045"
         style="stop-color:#f5f8c7"
         id="stop3396" />
      <stop
         offset=".5239"
         style="stop-color:#eef0be"
         id="stop3398" />
      <stop
         offset=".6666"
         style="stop-color:#dbdda9"
         id="stop3400" />
      <stop
         offset=".8211"
         style="stop-color:#bebd88"
         id="stop3402" />
      <stop
         offset=".9832"
         style="stop-color:#989564"
         id="stop3404" />
      <stop
         offset="1"
         style="stop-color:#949160"
         id="stop3406" />
    </linearGradient>
    <linearGradient
       x1="-10.481"
       x2="-23.851"
       gradientTransform="matrix(0.61192,-0.13118,0.061943,0.73641,30.371,12.33)"
       y1="39.034"
       gradientUnits="userSpaceOnUse"
       xlink:href="#lG2399"
       y2="39.143002"
       id="linearGradient2974" />
    <linearGradient
       id="linearGradient3409">
      <stop
         offset="0"
         style="stop-color:#929470"
         id="stop3411" />
      <stop
         offset=".26471"
         style="stop-color:#fcffc1"
         id="stop3413" />
      <stop
         offset=".63235"
         style="stop-color:#f3f5ba"
         id="stop3415" />
      <stop
         offset="1"
         style="stop-color:#929470"
         id="stop3417" />
    </linearGradient>
    <linearGradient
       x1="-22.874001"
       x2="-4.3908"
       gradientTransform="matrix(0.61192,-0.13118,0.061943,0.73641,30.371,9.2548)"
       y1="38.675999"
       gradientUnits="userSpaceOnUse"
       xlink:href="#lG19894"
       y2="38.675999"
       id="linearGradient2967" />
    <linearGradient
       x1="18.995001"
       x2="30.17"
       y1="37.227001"
       gradientUnits="userSpaceOnUse"
       y2="37.227001"
       id="linearGradient3420">
      <stop
         offset=".005618"
         style="stop-color:#a3a349"
         id="stop3422" />
      <stop
         offset=".020787"
         style="stop-color:#acac54"
         id="stop3424" />
      <stop
         offset=".066"
         style="stop-color:#c1c172"
         id="stop3426" />
      <stop
         offset=".1148"
         style="stop-color:#d4d68e"
         id="stop3428" />
      <stop
         offset=".1677"
         style="stop-color:#e2e4a6"
         id="stop3430" />
      <stop
         offset=".2265"
         style="stop-color:#edf0b8"
         id="stop3432" />
      <stop
         offset=".2963"
         style="stop-color:#f3f6c3"
         id="stop3434" />
      <stop
         offset=".4045"
         style="stop-color:#f5f8c7"
         id="stop3436" />
      <stop
         offset=".5239"
         style="stop-color:#eef0be"
         id="stop3438" />
      <stop
         offset=".6666"
         style="stop-color:#dbdda9"
         id="stop3440" />
      <stop
         offset=".8211"
         style="stop-color:#bebd88"
         id="stop3442" />
      <stop
         offset=".9832"
         style="stop-color:#989564"
         id="stop3444" />
      <stop
         offset="1"
         style="stop-color:#949160"
         id="stop3446" />
    </linearGradient>
    <linearGradient
       x1="-10.481"
       x2="-23.851"
       gradientTransform="matrix(0.61192,-0.13118,0.061943,0.73641,30.371,9.2548)"
       y1="39.034"
       gradientUnits="userSpaceOnUse"
       xlink:href="#lG2399"
       y2="39.143002"
       id="linearGradient2969" />
    <linearGradient
       id="linearGradient3449">
      <stop
         offset="0"
         style="stop-color:#929470"
         id="stop3451" />
      <stop
         offset=".26471"
         style="stop-color:#fcffc1"
         id="stop3453" />
      <stop
         offset=".63235"
         style="stop-color:#f3f5ba"
         id="stop3455" />
      <stop
         offset="1"
         style="stop-color:#929470"
         id="stop3457" />
    </linearGradient>
    <linearGradient
       x1="17.879999"
       x2="11.906"
       gradientTransform="matrix(1.5304,0,0,0.54383,1.0306,1.6641)"
       y1="55.362999"
       gradientUnits="userSpaceOnUse"
       y2="54.862999"
       id="linearGradient2957">
      <stop
         offset="0"
         style="stop-color:#d6d87b"
         id="stop2756" />
      <stop
         offset="1"
         style="stop-color:#fbe843"
         id="stop2758" />
    </linearGradient>
    <linearGradient
       x1="-29.007"
       x2="-37.640999"
       gradientTransform="matrix(-0.86446,-0.043417,0.18088,-0.95368,1.0306,1.6641)"
       y1="-29.799"
       gradientUnits="userSpaceOnUse"
       y2="-29.598"
       id="linearGradient2959">
      <stop
         offset="0"
         style="stop-color:#dcd763"
         id="stop2761" />
      <stop
         offset=".26471"
         style="stop-color:#d9bb05"
         id="stop2763" />
      <stop
         offset=".63235"
         style="stop-color:#dcd763"
         id="stop2765" />
      <stop
         offset="1"
         style="stop-color:#c7a107"
         id="stop2767" />
    </linearGradient>
    <radialGradient
       gradientTransform="matrix(0.52617,0,0,0.75827,-9.5648,5.1186)"
       r="33.933998"
       cy="29.868999"
       cx="68.138"
       gradientUnits="userSpaceOnUse"
       id="radialGradient2952">
      <stop
         offset="0"
         style="stop-color:#fff;stop-opacity:.17526"
         id="stop2808" />
      <stop
         offset="0.882"
         style="stop-color:#f30"
         id="stop2810" />
      <stop
         offset="1"
         style="stop-color:#ff5600"
         id="stop2812" />
    </radialGradient>
    <linearGradient
       x1="23.413"
       x2="23.413"
       y1="1.9997"
       gradientUnits="userSpaceOnUse"
       y2="34.005001"
       id="linearGradient2954">
      <stop
         offset="0"
         style="stop-color:#ab1d04"
         id="stop2737" />
      <stop
         offset=".73603"
         style="stop-color:#ab4704"
         id="stop2739" />
      <stop
         offset="1"
         style="stop-color:#616471"
         id="stop2741" />
    </linearGradient>
    <linearGradient
       x1="37.939999"
       x2="-5.2516999"
       gradientTransform="matrix(0.85339,0,0,0.97525,1.8913,1.6641)"
       y1="16.652"
       gradientUnits="userSpaceOnUse"
       y2="3.8557"
       id="linearGradient2949">
      <stop
         offset="0"
         style="stop-color:#fffff1"
         id="stop2770" />
      <stop
         offset="1"
         style="stop-color:#f1f3ff;stop-opacity:0"
         id="stop2772" />
    </linearGradient>
    <linearGradient
       x1="30.620001"
       x2="32.166"
       gradientTransform="matrix(-0.58997,0,0,1.473,47.1,4.7782)"
       y1="10.314"
       gradientUnits="userSpaceOnUse"
       xlink:href="#lG20393"
       y2="18.163"
       id="linearGradient2946" />
    <linearGradient
       id="lG20393">
      <stop
         offset="0"
         style="stop-color:#ff1708"
         id="stop2794" />
      <stop
         offset=".41176"
         style="stop-color:#ff4f04;stop-opacity:.43922"
         id="stop2796" />
      <stop
         offset="1"
         style="stop-color:#4c3e1c;stop-opacity:.47843"
         id="stop2798" />
    </linearGradient>
    <linearGradient
       x1="30.620001"
       x2="32.166"
       gradientTransform="matrix(0.58997,0,0,1.473,0.90381,4.894)"
       y1="10.314"
       gradientUnits="userSpaceOnUse"
       xlink:href="#lG20393"
       y2="18.163"
       id="linearGradient2943" />
    <linearGradient
       id="linearGradient3484">
      <stop
         offset="0"
         style="stop-color:#ff1708"
         id="stop3486" />
      <stop
         offset=".41176"
         style="stop-color:#ff4f04;stop-opacity:.43922"
         id="stop3488" />
      <stop
         offset="1"
         style="stop-color:#4c3e1c;stop-opacity:.47843"
         id="stop3490" />
    </linearGradient>
    <linearGradient
       x1="14.637"
       x2="9.3648005"
       gradientTransform="matrix(1.861,0,0,0.46695,1.2554,5.4734)"
       y1="31.504"
       gradientUnits="userSpaceOnUse"
       y2="32.250999"
       id="linearGradient2940">
      <stop
         offset="0"
         style="stop-color:#ffb812"
         id="stop2789" />
      <stop
         offset="1"
         style="stop-color:#ffb812;stop-opacity:0"
         id="stop2791" />
    </linearGradient>
    <linearGradient
       x1="16.999001"
       x2="32.097"
       gradientTransform="matrix(1.0885,0,0,0.91662,0.70435,-1.5744)"
       y1="10.061"
       gradientUnits="userSpaceOnUse"
       y2="36.726002"
       id="linearGradient2937">
      <stop
         offset="0"
         style="stop-color:#fff"
         id="stop2784" />
      <stop
         offset="1"
         style="stop-color:#fff;stop-opacity:0"
         id="stop2786" />
    </linearGradient>
  </defs>
  <sodipodi:namedview
     id="base"
     pagecolor="#ffffff"
     bordercolor="#666666"
     borderopacity="1.0"
     inkscape:pageopacity="0.0"
     inkscape:pageshadow="2"
     inkscape:zoom="3.959798"
     inkscape:cx="29.118614"
     inkscape:cy="49.863109"
     inkscape:document-units="px"
     inkscape:current-layer="layer1"
     showgrid="false"
     inkscape:window-width="1366"
     inkscape:window-height="684"
     inkscape:window-x="0"
     inkscape:window-y="26"
     inkscape:window-maximized="1"
     showguides="true"
     inkscape:guide-bbox="true">
    <sodipodi:guide
       orientation="0,1"
       position="-24.748737,0"
       id="guide11064" />
    <sodipodi:guide
       orientation="0,1"
       position="-23.233509,96"
       id="guide11066" />
    <sodipodi:guide
       orientation="1,0"
       position="0,54.800776"
       id="guide11068" />
    <sodipodi:guide
       orientation="1,0"
       position="96,51.012704"
       id="guide11070" />
    <sodipodi:guide
       orientation="0,1"
       position="-18.94036,48"
       id="guide11072" />
    <sodipodi:guide
       orientation="1,0"
       position="48,79.296975"
       id="guide11074" />
    <sodipodi:guide
       orientation="1,0"
       position="2,75.508903"
       id="guide11076" />
    <sodipodi:guide
       orientation="0,1"
       position="-77.27667,2"
       id="guide11078" />
    <sodipodi:guide
       orientation="1,0"
       position="94,77.781746"
       id="guide11080" />
    <sodipodi:guide
       orientation="0,1"
       position="-65.912454,94"
       id="guide11082" />
  </sodipodi:namedview>
  <metadata
     id="metadata11042">
    <rdf:RDF>
      <cc:Work
         rdf:about="">
        <dc:format>image/svg+xml</dc:format>
        <dc:type
           rdf:resource="http://purl.org/dc/dcmitype/StillImage" />
        <dc:title />
      </cc:Work>
    </rdf:RDF>
  </metadata>
  <g
     inkscape:label="Layer 1"
     inkscape:groupmode="layer"
     id="layer1"
     transform="translate(0,-956.36218)">
    <rect
       width="96"
       height="96"
       rx="6.8571429"
       ry="6.8571429"
       x="0"
       y="-1052.3622"
       transform="scale(1,-1)"
       id="rect2419"
       style="fill:url(#linearGradient3278);fill-opacity:1;fill-rule:nonzero;stroke:none"
       clip-path="url(#clipPath3022)" />
    <g
       transform="matrix(1.299656,0,0,1.2909856,20.071036,-323.25142)"
       id="layer1-5">
      <g
         transform="matrix(0.76551,0,0,0.76551,15.682,1006)"
         id="layer1-1">
        <g
           transform="matrix(0.9987,0,0,0.9987,-342.54,469.41)"
           id="g7594">
          <path
             transform="matrix(1.3865,0,0,1.3865,444.99,-446.47)"
             d="m -46.5,0.25 c 0,5.3848 -4.365,9.75 -9.75,9.75 -5.385,0 -9.75,-4.3652 -9.75,-9.75 0,-5.3848 4.365,-9.75 9.75,-9.75 5.3848,0 9.75,4.3652 9.75,9.75 z"
             style="fill:#eaece8"
             id="path7596"
             inkscape:connector-curvature="0" />
          <g
             transform="translate(37.125,-1.625)"
             id="g7598">
            <path
               d="m 323.85,-456.08 c 0.0486,0.17562 -0.12591,0.39397 -0.27934,0.59855 -0.20144,0.2686 -0.31042,0.44775 -0.0798,0.67837 0.14329,0.14328 0.57893,0.0158 0.71827,-0.0399 0.3214,-0.12856 0.67358,-0.22953 0.9976,-0.35913 0.24571,-0.0983 0.4292,-0.13723 0.67836,-0.19952 0.28672,-0.0717 0.57153,0.0571 0.67837,0.19952 0.0681,0.0908 -0.46179,0.49026 -0.51875,0.51874 -0.24201,0.12101 -0.47287,0.21798 -0.71827,0.27933 -0.30202,0.0755 -0.57153,0.17815 -0.87788,0.23942 -0.30771,0.0615 -0.52362,0.15456 -0.79808,0.31923 -0.34006,0.20404 -0.62606,0.50635 -0.91778,0.79808 -0.27257,0.27257 -0.36706,0.56686 -0.27933,0.91778 0.0844,0.33751 0.21002,0.457 0.51875,0.51875 0.3433,0.0687 0.51056,-0.0955 0.67836,-0.31923 0.21824,-0.29099 0.30168,-0.66081 0.55865,-0.91778 0.21494,-0.21495 0.36222,-0.4213 0.59856,-0.59856 0.23962,-0.17971 0.42089,-0.27386 0.71827,-0.19952 0.24731,0.0618 0.44872,0.30522 0.71826,0.35914 0.22729,0.0455 0.56158,-0.26084 0.75817,-0.35914 0.0429,-0.0215 0.0798,-0.0532 0.11972,-0.0798 0.20735,-0.13824 0.55041,-0.0798 0.79807,-0.0798 0.26905,0 0.49616,0.12837 0.71826,0.23942 0.26878,0.13438 0.50065,0.12608 0.75817,0.31923 0.27256,0.20441 0.41892,0.35898 0.55866,0.63846 0.13199,0.26397 0.19033,0.42976 0.39904,0.63846 0.22072,0.22072 0.56031,0.36079 0.79806,0.59855 0.14292,0.14291 0.23261,0.53136 0.27934,0.71827 0.0733,0.29311 0.1394,0.59907 0,0.87788 -0.15089,0.30177 -0.33188,0.58396 -0.47885,0.87788 -0.1446,0.28922 -0.54921,0.53162 -0.79807,0.71827 -0.34301,0.25726 -0.75121,0.27237 -1.0774,0.59856 -0.37514,0.37513 -0.41054,0.59585 -0.75818,1.1173 -0.25687,0.38531 0.0488,0.55643 0.35914,0.47885 0.32847,-0.0821 0.63271,-0.15818 0.95769,-0.23943 0.0532,-0.0133 0.10641,-0.0266 0.15961,-0.0399 0.40008,-0.10002 0.71782,-0.41888 1.1173,-0.51875 0.49734,-0.12433 1.5428,0.64638 1.9952,0.91779 0.35667,0.214 -0.0691,0.63308 -0.23942,0.71826 -0.31687,0.15844 -0.63299,0.19952 -0.99759,0.19952 -0.23599,0 -0.49249,-0.0745 -0.71827,-0.11971 -0.30515,-0.061 -0.5178,-0.0606 -0.75817,0.11971 -0.26721,0.20042 -0.2359,0.45813 -0.0798,0.71827 0.15594,0.25989 0.41021,0.4437 0.47884,0.71827 0.0866,0.34645 -0.19337,0.53102 -0.43893,0.67836 -0.24655,0.14793 -0.67219,-0.0399 -0.95769,-0.0399 -0.3617,0 -0.71143,0.18442 -0.99759,0.39904 -0.12967,0.0973 -0.24307,0.61316 -0.27933,0.75817 -0.0133,0.0532 -0.0266,0.10641 -0.0399,0.15962 -0.0973,0.38907 0.0274,0.58727 0.15962,0.91778 0.0957,0.23926 0.32804,0.45656 0.43894,0.67837 0.13845,0.27689 0.22919,0.4594 0.0798,0.75817 -0.12733,0.25465 -0.17554,0.46276 -0.23943,0.71826 -0.0447,0.17901 0.20742,0.65822 0.27933,0.83798 0.14424,0.36058 0.0101,0.42884 -0.23943,0.67837 -0.2208,0.2208 -0.55161,0.2758 -0.79806,0.39903 -0.2292,0.1146 -0.68093,-0.0206 -0.91779,-0.0798 -0.26703,-0.0668 -0.51539,0.0582 -0.71827,0.15962 -0.32213,0.16107 -0.3211,0.31673 -0.55865,0 -0.25189,-0.33585 -0.46083,-0.68615 -0.55865,-1.0774 -0.0133,-0.0532 -0.0266,-0.10641 -0.0399,-0.15962 -0.0668,-0.26738 -0.0399,-0.59608 -0.0399,-0.87788 0,-0.28763 0.0798,-0.54462 0.0798,-0.83798 0,-0.31598 -0.75459,0.2779 -0.95768,0.35914 -0.0941,0.0376 -0.18623,0.0798 -0.27934,0.11971 -0.39873,0.17089 -0.35913,0.53524 -0.35913,0.87788 0,0.34152 0.19951,0.60231 0.19951,0.95769 0,0.34243 -0.40342,0.43894 -0.67835,0.43894 -0.39099,0 -0.5722,-0.45249 -0.83798,-0.71827 -0.25426,-0.25425 -0.68805,-0.53811 -0.83798,-0.83797 -0.21217,-0.42435 -0.28391,-0.66496 0.15961,-0.9976 0.25414,-0.1906 0.60842,-0.22596 0.79808,-0.47884 0.19924,-0.26566 0.48175,-0.63773 0,-0.75817 -0.32828,-0.0821 -0.45563,-0.19618 -0.83798,-0.11971 -0.0665,0.0133 -0.13301,0.0266 -0.19952,0.0399 -0.65946,0.13189 -0.65494,0.0716 -1.2769,-0.23942 -0.44759,-0.2238 -0.60098,-0.56108 -0.91778,-0.87788 -0.29493,-0.29493 -0.46228,-0.69193 -0.55865,-1.0774 -0.0887,-0.3548 -0.19371,-0.69501 -0.27933,-1.0375 -0.0701,-0.28054 -0.0798,-0.62556 -0.0798,-0.91778 0,-0.29704 -0.0798,-0.61345 -0.0798,-0.91779 v -0.99759 c 0,-0.33653 0.0399,-0.63407 0.0399,-0.95769 0,-0.27723 0.0542,-0.61602 0.11971,-0.87789 0.006,-0.0258 0,-0.0532 0,-0.0798 0,-0.34036 0.19708,-0.69223 0.31923,-0.9976 0.10762,-0.26907 0.27463,-0.54927 0.39904,-0.79807 0.13029,-0.26057 0.26091,-0.48091 0.43894,-0.71827 0.1922,-0.25627 0.39689,-0.51616 0.59855,-0.75817 0.34733,-0.41679 0.70836,-0.80669 1.1173,-1.1572 0.23897,-0.20482 0.35656,-0.54674 0.63846,-0.75816 0.34879,-0.2616 0.65243,-0.53921 0.99759,-0.79808 0.2624,-0.1968 0.50187,-0.4241 0.67836,-0.71827 0.14357,-0.23929 0.22463,-0.46405 0.43894,-0.67836 0.0527,-0.0527 0.22985,-0.13487 0.27934,-0.15961 z"
               style="opacity:0.10556;fill:#787974;fill-rule:evenodd"
               id="path7600"
               inkscape:connector-curvature="0" />
            <path
               d="m 334.86,-450.97 c -0.38499,0.0925 -1.1527,0.22436 -1.676,0.11971 -0.40086,-0.0802 -0.41421,-0.30406 -0.79807,0.0798 l -0.0798,0.0798 c -0.24233,0.24233 -0.27932,0.27859 -0.27932,0.63846 0,0.2363 0.004,0.4611 -0.0399,0.67836 -0.0467,0.23338 -0.0115,0.59226 0.0399,0.79807 0.0784,0.31372 0.12792,0.53517 0.27932,0.83798 0.12091,0.24181 0.17725,0.43221 0.39904,0.59856 0.288,0.21599 0.68441,0.27376 0.9976,0.39903 0.22083,0.0883 0.59074,0.0399 0.83797,0.0399 0.31364,0 0.35914,0.0355 0.35914,0.39903 0,0.31202 -0.58566,0.74998 -0.75817,1.0375 -0.19089,0.31814 -0.11781,0.56436 0,0.91779 0.0878,0.26347 0.1448,0.5245 0.19951,0.79807 0.057,0.28517 0.13143,0.49056 0.35914,0.71827 0.24219,0.2422 0.68895,-0.0258 0.91778,0.27933 0.11503,0.15336 0.11972,0.40725 0.11972,0.59855 0,0.31727 0.10251,0.46749 0.39903,0.31923 0.26993,-0.13496 0.4726,-0.12467 0.67837,-0.39904 0.19592,-0.26123 0.29408,-0.58817 0.43894,-0.87788 0.12918,-0.25837 0.35001,-0.27932 0.63846,-0.27932 0.26664,0 0.4808,0.0693 0.75817,0 0.40637,-0.1016 0.46832,-0.2289 0.75816,-0.51875 0.36667,-0.36667 0.32315,-0.62199 0.39904,-1.0774 0.0342,-0.20545 -0.0338,-0.45465 -0.0798,-0.63846 -0.0133,-0.0532 -0.0266,-0.10641 -0.0399,-0.15962 -0.0556,-0.22243 -0.54378,-0.23942 -0.71826,-0.23942 -0.38567,0 -0.95765,-0.18953 -1.3168,-0.27933 -0.18343,-0.0458 -0.69207,-0.65216 -0.83797,-0.79807 -0.2109,-0.21089 -0.25241,-0.37116 -0.31923,-0.63846 -0.0823,-0.32931 -0.0384,-0.67226 -0.11971,-0.99759 -0.0932,-0.37293 0.0159,-0.5827 -0.27933,-0.87788 -0.20899,-0.209 -0.34674,-0.49671 -0.39904,-0.75818 -0.0504,-0.25226 -0.28717,-0.53461 -0.47884,-0.67836 -0.14021,-0.10515 -0.15679,-0.0792 -0.35913,-0.11971 z"
               style="opacity:0.18888999;fill:#787974;fill-rule:evenodd"
               id="path7602"
               inkscape:connector-curvature="0" />
            <path
               d="m 341,-448.66 c -0.20686,0.007 -0.41855,0.25893 -0.59856,0.43894 -0.17692,0.17692 -0.11971,0.4801 -0.11971,0.71826 0,0.26057 0.056,0.5433 0.11971,0.79808 0.054,0.21611 0.253,0.49242 0.39904,0.63846 0.22008,0.22008 0.50176,0.34965 0.79807,0.39903 0.38807,0.0647 0.60185,0.11149 0.75818,-0.27932 0.10737,-0.26842 0.15961,-0.45302 0.15961,-0.75817 0,-0.27625 -0.0124,-0.48851 -0.0798,-0.75817 -0.0815,-0.32585 -0.18635,-0.49221 -0.47884,-0.63846 -0.20729,-0.10364 -0.41834,-0.34368 -0.59856,-0.47885 -0.10339,-0.0775 -0.23587,-0.0798 -0.35913,-0.0798 z"
               style="opacity:0.18332998;fill:#787974;fill-rule:evenodd"
               id="path7604"
               inkscape:connector-curvature="0" />
            <path
               d="m 328.36,-436.21 c 0.21632,-0.14825 0.84563,-0.79382 1.2769,-1.1173 0.0831,-0.0623 0.15961,-0.13301 0.23942,-0.19952 0.43011,-0.35842 0.80496,-0.92811 1.1173,-1.3966 0.49552,-0.74328 0.71315,-1.411 0.87788,-2.2346 0.20928,-1.0464 0.26214,-0.34748 0.0399,0.31924 -0.0347,0.10405 -0.0532,0.21282 -0.0798,0.31922 -0.10903,0.43615 -0.15211,0.89903 -0.31922,1.3168 -0.22556,0.5639 -0.65123,1.0486 -0.79808,1.636 -0.0784,0.31342 -0.18502,0.69649 -0.11972,0.95769 0.078,0.31211 0.53278,-0.37711 0.83799,-0.47885 0.4153,-0.13843 0.51874,-0.22895 0.51874,0.23943 0,0.28308 -0.14275,0.67387 -0.19952,0.95769 -0.0979,0.48934 1.288,0.077 1.5962,0 1.0073,-0.25183 1.6982,-0.59713 2.5139,-1.2769 0.89829,-0.74857 1.6454,-1.5656 2.474,-2.3942 0.66669,-0.66668 0.98041,-1.0848 0.55866,0.0399 -0.0399,0.10641 -0.0798,0.21282 -0.11971,0.31923 -0.0399,0.10641 -0.0798,0.21282 -0.11971,0.31923 -0.22087,0.58898 -0.62389,1.2406 -1.1572,1.5962 -0.83096,0.55397 -1.3696,1.5826 -2.2745,2.0351 -0.36626,0.18313 -0.74917,0.25488 -1.1173,0.43894 -0.36945,0.18473 0.71851,0.31485 0.91778,0.35914 2.0033,0.44518 -1.6212,0.63846 -2.075,0.63846 -0.74853,0 -1.1228,-0.15633 -1.7159,0.19951 -0.20269,0.12161 0.94323,0.58769 0.99758,0.59856 0.4676,0.0935 0.88473,0.39904 1.3966,0.39904 0.84991,0 -1.7729,0.26507 -2.5139,0.0798 -0.62118,-0.1553 -1.2098,-0.2825 -1.8356,-0.43895 -0.31755,-0.0794 -0.63616,-0.0305 -0.9178,0.0399 -0.056,0.014 0.0399,0.82339 0.0399,0.91778 0,0.591 -0.15469,1.0522 -0.43894,0.19952 -0.15311,-0.45935 -0.43894,-0.94432 -0.43894,-1.4365 0,-0.31166 -0.41156,0.46894 -0.59855,0.71827 -0.26333,0.3511 -0.78197,0.8539 -0.87788,0.87788 -0.0131,0.003 0.25819,-0.55392 0.35913,-0.95769 0.0759,-0.3034 0.56595,-1.1155 0.23942,-1.1971 -0.3049,-0.0762 -0.72505,-0.0173 -1.0375,-0.0798 -0.46341,-0.0927 -0.96027,-0.18086 -1.3966,-0.39904 -0.84451,-0.42225 -2.1628,-0.81006 -3.0726,-1.0375 -0.0838,-0.0209 -1.4555,-1.4954 -0.15962,-0.19951 0.85544,0.85544 2.1906,1.4365 3.3918,1.4365 0.38491,0 0.95655,-0.14935 1.3168,-0.23942 0.21699,-0.0543 0.51677,-0.38229 0.75817,-0.47885 0.26199,-0.10479 -0.41791,-0.38179 -0.59855,-0.59855 -0.0665,-0.0798 -0.13302,-0.15962 -0.19953,-0.23942 -0.71532,-0.8584 -0.96642,-2.0438 -1.7956,-2.8731 -0.13341,-0.1334 -2.0778,-2.4032 -1.1572,-1.636 0.95189,0.79324 1.8316,1.4984 2.6336,2.4341 0.41125,0.4798 0.76487,1.1057 1.1572,1.5962 0.39477,0.49348 0.31152,-0.10291 0.19951,-0.43894 -0.24012,-0.72038 -0.1197,-1.7215 -0.1197,-2.474 0,-0.99806 0.51551,1.0246 0.55865,1.1971 0.12401,0.49605 0.38047,1.1421 0.75816,0.63846 0.39026,-0.52034 0.43894,-0.61871 0.43894,0.0399 v 0.15961 c 0,0.24765 -0.0131,0.53284 0.0399,0.79807 z"
               style="opacity:0.47222003;fill:#f3f4f2;fill-rule:evenodd"
               id="path7606"
               inkscape:connector-curvature="0" />
            <path
               d="m 340.05,-444.98 c 0.08,0.0851 0.15962,0.37727 0.15962,0.63846 0,0.10627 -0.65983,0.61991 -0.75818,0.71827 -0.19197,0.19196 -0.23069,0.51496 -0.27932,0.75816 -0.0627,0.31332 -0.14128,0.53067 -0.0798,0.83798 0.0521,0.26046 0.16017,0.51987 0.27932,0.75817 0.14338,0.28674 0.35124,0.43104 0.59856,0.67837 0.27549,0.27549 0.61563,0.27362 0.95768,0.35913 0.43482,0.1087 -0.25838,0.523 -0.35913,0.59856 -0.26793,0.20095 -0.5291,0.26013 -0.67836,0.55865 -0.1729,0.3458 0.18476,0.47294 0.39904,0.55865 0.2419,0.0968 0.60668,-0.33006 0.71827,-0.47885 0.15065,-0.20087 0.39904,-0.42712 0.39904,-0.67836 0,-0.24697 0.1197,-0.50826 0.1197,-0.79807 0,-0.27029 0.0614,-0.56478 0.11971,-0.79808 0.0889,-0.35541 0.21725,-0.49656 0.43894,-0.71826 0.17864,-0.17863 0.17417,-0.6202 0.11972,-0.83798 -0.0624,-0.24974 -0.21901,-0.47698 -0.27933,-0.71827 -0.0615,-0.24606 -0.36202,-0.38978 -0.55865,-0.43894 -0.23626,-0.0591 -0.56748,-0.48767 -0.71827,-0.63846 -0.20761,-0.20761 -0.2995,-0.35913 -0.59855,-0.35913 z"
               style="opacity:0.11667002;fill:#787974;fill-rule:evenodd"
               id="path7608"
               inkscape:connector-curvature="0" />
            <path
               d="m 322.69,-446.02 c -0.009,-0.009 0.0266,0 0,0 z"
               style="fill:none;stroke:#000000;stroke-width:1.00129998px"
               id="path7610"
               inkscape:connector-curvature="0" />
            <path
               d="m 327.6,-455.68 c 0.17193,-0.0426 0.57166,-0.17284 0.83797,-0.23942 0.34034,-0.0851 0.69744,0.11971 1.0375,0.11971 0.0345,0 0.25527,0.43894 0.63846,0.43894 h 0.15962 c 0.24164,0 0.51173,0.1925 0.67836,0.35914 0.16091,0.1609 0.0136,0.54508 -0.0798,0.63846 -0.25418,0.25417 -0.48157,0.0771 -0.67836,-0.11972 -0.21053,-0.21053 -0.32098,-0.28974 -0.59856,-0.35913 -0.27563,-0.0689 -0.57017,-0.0271 -0.83797,0.0399 -0.32704,0.0818 -0.54193,0.15961 -0.91779,0.15961 -0.12562,0 -0.5121,-0.54536 -0.55866,-0.63846 -0.0821,-0.16419 0.21875,-0.37391 0.31924,-0.39904 z"
               style="opacity:0.2;fill:#938f8b;fill-rule:evenodd"
               id="path7612"
               inkscape:connector-curvature="0" />
            <path
               d="m 332.43,-455 c 0.19753,0.0512 0.64044,0.0394 0.95768,-0.0399 0.35162,-0.0879 0.90828,-0.13206 1.2769,-0.0399 0.22336,0.0558 1.5873,0.32367 0.95768,0.63846 -0.31149,0.15575 -0.64122,0.19319 -0.91778,0.35913 -0.33295,0.19977 0.40229,0.27933 0.55865,0.27933 0.42422,0 0.18044,0.51064 0.0798,0.67836 -0.15693,0.26154 -0.0504,0.66587 0,0.91779 0.0571,0.28533 0.54752,0.23942 0.79807,0.23942 0.34322,0 0.63189,0.0444 0.83798,0.31923 0.18225,0.243 0.43466,0.4874 0.31923,0.71827 -0.11889,0.23778 -0.72141,0.27932 -0.91778,0.27932 -0.15157,0 -0.75039,-0.7629 -0.83799,-0.83798 -0.23047,-0.19755 -0.49986,-0.0147 -0.71825,0.0399 -0.38884,0.0972 -0.67608,-0.39713 -0.9178,-0.59856 -0.26154,-0.21795 -0.42515,-0.53108 -0.55865,-0.79807 -0.16889,-0.33778 0.10385,-0.47885 -0.39903,-0.47885 -0.3123,0 -0.48314,-0.0631 -0.71828,-0.23942 -0.31928,-0.23946 -0.55864,-0.14689 -0.55864,-0.59856 0,-0.39868 0.0217,-0.5158 0.35913,-0.71826 0.10827,-0.065 0.25395,-0.0327 0.39904,-0.11971 z"
               style="opacity:0.28889029;fill:#938f8b;fill-rule:evenodd"
               id="path7614"
               inkscape:connector-curvature="0" />
            <path
               d="m 323.88,-456.19 c 0.0486,0.17563 -0.12589,0.39398 -0.27933,0.59856 -0.20144,0.2686 -0.31042,0.44774 -0.0798,0.67836 0.14329,0.14329 0.57893,0.0158 0.71827,-0.0399 0.3214,-0.12856 0.67358,-0.22953 0.99759,-0.35914 0.24572,-0.0983 0.42921,-0.13723 0.67837,-0.19952 0.28672,-0.0717 0.57153,0.0571 0.67836,0.19952 0.0681,0.0908 -0.46179,0.49027 -0.51875,0.51875 -0.24201,0.12101 -0.47286,0.21798 -0.71826,0.27933 -0.30202,0.0755 -0.57153,0.17815 -0.87789,0.23942 -0.3077,0.0615 -0.52361,0.15455 -0.79807,0.31923 -0.34006,0.20404 -0.62606,0.50635 -0.91778,0.79807 -0.27258,0.27258 -0.36706,0.56687 -0.27933,0.91779 0.0844,0.33751 0.21002,0.457 0.51874,0.51875 0.34331,0.0687 0.51057,-0.0955 0.67837,-0.31923 0.21824,-0.29099 0.30168,-0.66081 0.55865,-0.91779 0.21494,-0.21494 0.36221,-0.4213 0.59856,-0.59855 0.23961,-0.17971 0.42089,-0.27386 0.71826,-0.19952 0.24732,0.0618 0.44873,0.30522 0.71827,0.35913 0.22729,0.0455 0.56158,-0.26083 0.75817,-0.35913 0.0429,-0.0215 0.0798,-0.0532 0.11972,-0.0798 0.20735,-0.13823 0.55041,-0.0798 0.79807,-0.0798 0.26905,0 0.49616,0.12837 0.71826,0.23943 0.26878,0.13438 0.50064,0.12608 0.75817,0.31922 0.27256,0.20442 0.41891,0.35898 0.55865,0.63846 0.132,0.26398 0.19034,0.42976 0.39905,0.63846 0.22072,0.22073 0.5603,0.3608 0.79806,0.59856 0.14292,0.14291 0.23261,0.53136 0.27934,0.71827 0.0733,0.29311 0.1394,0.59907 0,0.87788 -0.15089,0.30177 -0.33189,0.58395 -0.47885,0.87788 -0.14461,0.28922 -0.54921,0.53161 -0.79808,0.71827 -0.343,0.25726 -0.75121,0.27237 -1.0774,0.59855 -0.37514,0.37514 -0.41054,0.59586 -0.75818,1.1173 -0.25687,0.38531 0.0488,0.55643 0.35914,0.47884 0.32847,-0.0821 0.63271,-0.15818 0.95769,-0.23942 0.0532,-0.0133 0.10641,-0.0266 0.15961,-0.0399 0.40007,-0.10002 0.71782,-0.41888 1.1173,-0.51875 0.49733,-0.12434 1.5428,0.64638 1.9952,0.91778 0.35667,0.214 -0.0691,0.63309 -0.23943,0.71827 -0.31686,0.15844 -0.63298,0.19952 -0.99758,0.19952 -0.23599,0 -0.49249,-0.0746 -0.71827,-0.11971 -0.30515,-0.061 -0.51781,-0.0606 -0.75817,0.11971 -0.26722,0.20041 -0.2359,0.45813 -0.0798,0.71827 0.15594,0.25988 0.4102,0.4437 0.47884,0.71826 0.0866,0.34646 -0.19337,0.53103 -0.43894,0.67837 -0.24654,0.14793 -0.67218,-0.0399 -0.95768,-0.0399 -0.36171,0 -0.71143,0.18442 -0.99759,0.39904 -0.12968,0.0972 -0.24307,0.61316 -0.27933,0.75817 -0.0133,0.0532 -0.0266,0.10641 -0.0399,0.15961 -0.0973,0.38907 0.0274,0.58727 0.15962,0.91779 0.0957,0.23925 0.32804,0.45656 0.43894,0.67836 0.13845,0.2769 0.22919,0.45941 0.0798,0.75817 -0.12733,0.25466 -0.17555,0.46276 -0.23943,0.71827 -0.0447,0.17901 0.20742,0.65821 0.27933,0.83798 0.14423,0.36058 0.0101,0.42884 -0.23942,0.67836 -0.22081,0.22081 -0.55162,0.27581 -0.79808,0.39904 -0.22919,0.11459 -0.68092,-0.0206 -0.91778,-0.0798 -0.26703,-0.0668 -0.51539,0.0582 -0.71827,0.15962 -0.32213,0.16106 -0.32111,0.31673 -0.55865,0 -0.25189,-0.33586 -0.46084,-0.68615 -0.55865,-1.0774 -0.0133,-0.0532 -0.0266,-0.10641 -0.0399,-0.15962 -0.0669,-0.26738 -0.0399,-0.59608 -0.0399,-0.87788 0,-0.28764 0.0798,-0.54462 0.0798,-0.83798 0,-0.31598 -0.75459,0.2779 -0.95769,0.35914 -0.094,0.0376 -0.18622,0.0798 -0.27933,0.11971 -0.39874,0.17088 -0.35913,0.53524 -0.35913,0.87788 0,0.34152 0.19952,0.60231 0.19952,0.95769 0,0.34242 -0.40343,0.43894 -0.67836,0.43894 -0.39099,0 -0.5722,-0.45249 -0.83798,-0.71827 -0.25427,-0.25426 -0.68805,-0.53811 -0.83798,-0.83798 -0.21218,-0.42434 -0.28391,-0.66495 0.15961,-0.99759 0.25414,-0.1906 0.60842,-0.22596 0.79808,-0.47885 0.19924,-0.26565 0.48175,-0.63773 0,-0.75816 -0.32828,-0.0821 -0.45564,-0.19619 -0.83798,-0.11972 -0.0665,0.0133 -0.13301,0.0266 -0.19952,0.0399 -0.65946,0.13189 -0.65494,0.0716 -1.2769,-0.23943 -0.44759,-0.22379 -0.60098,-0.56108 -0.91778,-0.87787 -0.29493,-0.29493 -0.46228,-0.69193 -0.55865,-1.0774 -0.0887,-0.3548 -0.19371,-0.69501 -0.27933,-1.0375 -0.0701,-0.28055 -0.0798,-0.62556 -0.0798,-0.91779 0,-0.29703 -0.0798,-0.61344 -0.0798,-0.91778 v -0.9976 c 0,-0.33652 0.0399,-0.63406 0.0399,-0.95769 0,-0.27723 0.0542,-0.61602 0.11971,-0.87788 0.006,-0.0258 0,-0.0532 0,-0.0798 0,-0.34035 0.19708,-0.69222 0.31923,-0.99759 0.10762,-0.26907 0.27463,-0.54927 0.39904,-0.79807 0.13028,-0.26058 0.26091,-0.48091 0.43893,-0.71827 0.19221,-0.25628 0.3969,-0.51617 0.59856,-0.75817 0.34733,-0.4168 0.70836,-0.80669 1.1173,-1.1572 0.23897,-0.20483 0.35655,-0.54675 0.63846,-0.75817 0.34879,-0.26159 0.65243,-0.5392 0.99759,-0.79807 0.2624,-0.1968 0.50186,-0.42411 0.67837,-0.71827 0.14356,-0.23929 0.22462,-0.46405 0.43893,-0.67836 0.0527,-0.0527 0.22984,-0.13487 0.27933,-0.15962 z"
               style="opacity:0.17778003;fill:url(#radialGradient7778);fill-rule:evenodd"
               id="path7616"
               inkscape:connector-curvature="0" />
            <path
               transform="matrix(0.021289,0,0,0.021289,345.15,-457.77)"
               d="m -824.73,649.37 c 0,17.598 -14.266,31.865 -31.865,31.865 -17.598,0 -31.865,-14.266 -31.865,-31.865 0,-17.598 14.266,-31.865 31.865,-31.865 17.598,0 31.865,14.266 31.865,31.865 z"
               style="opacity:0.61667002;fill:#ffffff"
               id="path7618"
               inkscape:connector-curvature="0" />
            <path
               transform="matrix(0.011271,0,0,0.011271,330.39,-456.65)"
               d="m -824.73,649.37 c 0,17.598 -14.266,31.865 -31.865,31.865 -17.598,0 -31.865,-14.266 -31.865,-31.865 0,-17.598 14.266,-31.865 31.865,-31.865 17.598,0 31.865,14.266 31.865,31.865 z"
               style="opacity:0.54444;fill:#ffffff"
               id="path7620"
               inkscape:connector-curvature="0" />
            <path
               transform="matrix(0.021289,0,0,0.021289,354.93,-458.53)"
               d="m -824.73,649.37 c 0,17.598 -14.266,31.865 -31.865,31.865 -17.598,0 -31.865,-14.266 -31.865,-31.865 0,-17.598 14.266,-31.865 31.865,-31.865 17.598,0 31.865,14.266 31.865,31.865 z"
               style="opacity:0.54444;fill:#c2c3be"
               id="path7622"
               inkscape:connector-curvature="0" />
            <path
               transform="matrix(0.021289,0,0,0.021289,349.82,-448.31)"
               d="m -824.73,649.37 c 0,17.598 -14.266,31.865 -31.865,31.865 -17.598,0 -31.865,-14.266 -31.865,-31.865 0,-17.598 14.266,-31.865 31.865,-31.865 17.598,0 31.865,14.266 31.865,31.865 z"
               style="opacity:0.56667002;fill:#c2c3be"
               id="path7624"
               inkscape:connector-curvature="0" />
            <path
               transform="matrix(0.013775,0,0,0.013775,347.86,-453.49)"
               d="m -824.73,649.37 c 0,17.598 -14.266,31.865 -31.865,31.865 -17.598,0 -31.865,-14.266 -31.865,-31.865 0,-17.598 14.266,-31.865 31.865,-31.865 17.598,0 31.865,14.266 31.865,31.865 z"
               style="opacity:0.61667002;fill:#ffffff"
               id="path7626"
               inkscape:connector-curvature="0" />
            <path
               transform="matrix(0.011271,0,0,0.011271,337.49,-441.33)"
               d="m -824.73,649.37 c 0,17.598 -14.266,31.865 -31.865,31.865 -17.598,0 -31.865,-14.266 -31.865,-31.865 0,-17.598 14.266,-31.865 31.865,-31.865 17.598,0 31.865,14.266 31.865,31.865 z"
               style="opacity:0.61667002;fill:#ffffff"
               id="path7628"
               inkscape:connector-curvature="0" />
            <path
               transform="matrix(0.013775,0,0,0.013775,346.18,-447.59)"
               d="m -824.73,649.37 c 0,17.598 -14.266,31.865 -31.865,31.865 -17.598,0 -31.865,-14.266 -31.865,-31.865 0,-17.598 14.266,-31.865 31.865,-31.865 17.598,0 31.865,14.266 31.865,31.865 z"
               style="opacity:0.61667002;fill:#ffffff"
               id="path7630"
               inkscape:connector-curvature="0" />
            <path
               transform="matrix(0.013775,0,0,0.013775,351.37,-459)"
               d="m -824.73,649.37 c 0,17.598 -14.266,31.865 -31.865,31.865 -17.598,0 -31.865,-14.266 -31.865,-31.865 0,-17.598 14.266,-31.865 31.865,-31.865 17.598,0 31.865,14.266 31.865,31.865 z"
               style="opacity:0.61667002;fill:#ffffff"
               id="path7632"
               inkscape:connector-curvature="0" />
            <path
               transform="matrix(0.013775,0,0,0.013775,348.34,-458.2)"
               d="m -824.73,649.37 c 0,17.598 -14.266,31.865 -31.865,31.865 -17.598,0 -31.865,-14.266 -31.865,-31.865 0,-17.598 14.266,-31.865 31.865,-31.865 17.598,0 31.865,14.266 31.865,31.865 z"
               style="opacity:0.61667002;fill:#ffffff"
               id="path7634"
               inkscape:connector-curvature="0" />
            <path
               transform="matrix(0.013775,0,0,0.013775,349.53,-462.67)"
               d="m -824.73,649.37 c 0,17.598 -14.266,31.865 -31.865,31.865 -17.598,0 -31.865,-14.266 -31.865,-31.865 0,-17.598 14.266,-31.865 31.865,-31.865 17.598,0 31.865,14.266 31.865,31.865 z"
               style="opacity:0.61667002;fill:#ffffff"
               id="path7636"
               inkscape:connector-curvature="0" />
            <path
               transform="matrix(0.013775,0,0,0.013775,340.67,-449.42)"
               d="m -824.73,649.37 c 0,17.598 -14.266,31.865 -31.865,31.865 -17.598,0 -31.865,-14.266 -31.865,-31.865 0,-17.598 14.266,-31.865 31.865,-31.865 17.598,0 31.865,14.266 31.865,31.865 z"
               style="opacity:0.61667002;fill:#ffffff"
               id="path7638"
               inkscape:connector-curvature="0" />
            <path
               d="m 328.31,-435.94 c 0.20049,-0.13569 0.7838,-0.72662 1.1836,-1.0227 0.077,-0.0571 0.14794,-0.12175 0.22192,-0.18263 0.39866,-0.32808 0.74611,-0.84954 1.0356,-1.2784 0.45929,-0.68036 0.66102,-1.2915 0.81369,-2.0454 0.19399,-0.95783 0.24299,-0.31807 0.037,0.2922 -0.0322,0.0953 -0.0493,0.1948 -0.074,0.29221 -0.10106,0.39921 -0.14098,0.82291 -0.29589,1.2053 -0.20907,0.51616 -0.60361,0.95987 -0.73973,1.4976 -0.0726,0.28688 -0.17148,0.63753 -0.11095,0.87661 0.0723,0.28568 0.49382,-0.34519 0.77671,-0.43831 0.38495,-0.12671 0.48082,-0.20957 0.48082,0.21916 0,0.25912 -0.13232,0.61682 -0.18493,0.87661 -0.0907,0.44791 1.1939,0.0705 1.4794,0 0.93365,-0.23051 1.574,-0.54658 2.3302,-1.1688 0.83261,-0.6852 1.5251,-1.4331 2.2932,-2.1915 0.61795,-0.61025 0.90873,-0.99294 0.51781,0.0365 -0.037,0.0974 -0.074,0.19481 -0.11096,0.29221 -0.037,0.0974 -0.074,0.1948 -0.11095,0.2922 -0.20473,0.53913 -0.57829,1.1356 -1.0726,1.461 -0.77021,0.50708 -1.2694,1.4486 -2.1082,1.8628 -0.33947,0.16763 -0.6944,0.2333 -1.0356,0.40179 -0.34243,0.16909 0.66599,0.28819 0.85069,0.32873 1.8569,0.40749 -1.5026,0.58441 -1.9233,0.58441 -0.6938,0 -1.0407,-0.14309 -1.5904,0.18263 -0.18787,0.11131 0.87427,0.53793 0.92465,0.54788 0.43341,0.0856 0.82005,0.36525 1.2945,0.36525 0.78777,0 -1.6432,0.24264 -2.3302,0.0731 -0.57575,-0.14215 -1.1214,-0.25859 -1.7014,-0.40179 -0.29434,-0.0727 -0.58965,-0.0279 -0.85069,0.0365 -0.0519,0.0128 0.037,0.75369 0.037,0.84009 0,0.54096 -0.1434,0.96316 -0.40685,0.18263 -0.14193,-0.42047 -0.40686,-0.86438 -0.40686,-1.3149 0,-0.28528 -0.38147,0.42924 -0.55479,0.65746 -0.24407,0.32138 -0.7248,0.78161 -0.8137,0.80356 -0.0121,0.003 0.23931,-0.50702 0.33287,-0.87662 0.0703,-0.27771 0.52458,-1.021 0.22192,-1.0958 -0.28262,-0.0698 -0.67204,-0.0159 -0.96164,-0.0731 -0.42953,-0.0848 -0.89007,-0.16554 -1.2945,-0.36525 -0.78276,-0.38651 -2.0047,-0.74149 -2.848,-0.94967 -0.0777,-0.0192 -1.3491,-1.3688 -0.14795,-0.18262 0.7929,0.78302 2.0304,1.3149 3.1438,1.3149 0.35677,0 0.88662,-0.13671 1.2206,-0.21916 0.20112,-0.0496 0.47898,-0.34992 0.70274,-0.4383 0.24283,-0.0959 -0.38736,-0.34947 -0.5548,-0.54788 -0.0616,-0.0731 -0.12328,-0.14611 -0.18493,-0.21916 -0.66303,-0.78573 -0.89577,-1.8708 -1.6644,-2.6298 -0.12365,-0.12211 -1.9259,-2.1997 -1.0726,-1.4976 0.8823,0.72609 1.6977,1.3716 2.4411,2.2281 0.38119,0.43918 0.70895,1.0121 1.0726,1.461 0.36592,0.45169 0.28875,-0.0942 0.18493,-0.40178 -0.22258,-0.6594 -0.11096,-1.5758 -0.11096,-2.2646 0,-0.91357 0.47782,0.93782 0.51781,1.0958 0.11494,0.45405 0.35266,1.0454 0.70274,0.58441 0.36173,-0.47629 0.40685,-0.56634 0.40685,0.0365 v 0.1461 c 0,0.22669 -0.0122,0.48773 0.037,0.73051 z"
               style="fill:#ffffff;fill-rule:evenodd"
               id="path7640"
               inkscape:connector-curvature="0" />
            <g
               transform="translate(461.7,-517.21)"
               style="opacity:0.31667002"
               id="g7642">
              <path
                 transform="matrix(1,0,0,1.0556,-0.17678,-4.0809)"
                 d="m -125.69,68.683 c 0,0.87868 -0.79146,1.591 -1.7678,1.591 -0.97631,0 -1.7678,-0.71231 -1.7678,-1.591 0,-0.87868 0.79146,-1.591 1.7678,-1.591 0.97631,0 1.7678,0.71231 1.7678,1.591 z"
                 style="fill:#a3a4a0"
                 id="path7644"
                 inkscape:connector-curvature="0" />
              <path
                 transform="matrix(1,0,0,1.0556,1.7678,-0.10344)"
                 d="m -125.69,68.683 c 0,0.87868 -0.79146,1.591 -1.7678,1.591 -0.97631,0 -1.7678,-0.71231 -1.7678,-1.591 0,-0.87868 0.79146,-1.591 1.7678,-1.591 0.97631,0 1.7678,0.71231 1.7678,1.591 z"
                 style="fill:#a3a4a0"
                 id="path7646"
                 inkscape:connector-curvature="0" />
              <path
                 transform="matrix(0.65,0,0,0.68611,-40.279,25.214)"
                 d="m -125.69,68.683 c 0,0.87868 -0.79146,1.591 -1.7678,1.591 -0.97631,0 -1.7678,-0.71231 -1.7678,-1.591 0,-0.87868 0.79146,-1.591 1.7678,-1.591 0.97631,0 1.7678,0.71231 1.7678,1.591 z"
                 style="fill:#a3a4a0"
                 id="path7648"
                 inkscape:connector-curvature="0" />
              <path
                 transform="matrix(1.55,0,0,1.6361,63.03,-45.537)"
                 d="m -125.69,68.683 c 0,0.87868 -0.79146,1.591 -1.7678,1.591 -0.97631,0 -1.7678,-0.71231 -1.7678,-1.591 0,-0.87868 0.79146,-1.591 1.7678,-1.591 0.97631,0 1.7678,0.71231 1.7678,1.591 z"
                 style="fill:#a3a4a0"
                 id="path7651"
                 inkscape:connector-curvature="0" />
              <path
                 transform="matrix(1.8,0,0,1.9,89.148,-57.506)"
                 d="m -125.69,68.683 c 0,0.87868 -0.79146,1.591 -1.7678,1.591 -0.97631,0 -1.7678,-0.71231 -1.7678,-1.591 0,-0.87868 0.79146,-1.591 1.7678,-1.591 0.97631,0 1.7678,0.71231 1.7678,1.591 z"
                 style="fill:#a3a4a0"
                 id="path7653"
                 inkscape:connector-curvature="0" />
              <path
                 transform="matrix(1.4,0,0,1.4778,42.32,-25.709)"
                 d="m -125.69,68.683 c 0,0.87868 -0.79146,1.591 -1.7678,1.591 -0.97631,0 -1.7678,-0.71231 -1.7678,-1.591 0,-0.87868 0.79146,-1.591 1.7678,-1.591 0.97631,0 1.7678,0.71231 1.7678,1.591 z"
                 style="fill:#a3a4a0"
                 id="path7655"
                 inkscape:connector-curvature="0" />
              <path
                 transform="matrix(1.4,0,0,1.4778,40.729,-32.285)"
                 d="m -125.69,68.683 c 0,0.87868 -0.79146,1.591 -1.7678,1.591 -0.97631,0 -1.7678,-0.71231 -1.7678,-1.591 0,-0.87868 0.79146,-1.591 1.7678,-1.591 0.97631,0 1.7678,0.71231 1.7678,1.591 z"
                 style="fill:#a3a4a0"
                 id="path7657"
                 inkscape:connector-curvature="0" />
            </g>
            <path
               transform="translate(490.91,-504.26)"
               d="m -161.84,69.523 c 0,0.36612 -0.2968,0.66291 -0.66291,0.66291 -0.36612,0 -0.66292,-0.2968 -0.66292,-0.66291 0,-0.36612 0.2968,-0.66291 0.66292,-0.66291 0.36611,0 0.66291,0.2968 0.66291,0.66291 z"
               style="fill:#ffffff"
               id="path7659"
               inkscape:connector-curvature="0" />
          </g>
          <path
             transform="matrix(1.3865,0,0,1.3865,445.01,-446.36)"
             d="m -46.5,0.25 c 0,5.3848 -4.365,9.75 -9.75,9.75 -5.385,0 -9.75,-4.3652 -9.75,-9.75 0,-5.3848 4.365,-9.75 9.75,-9.75 5.3848,0 9.75,4.3652 9.75,9.75 z"
             style="fill:none;stroke:#888a85;stroke-width:0.72219002"
             id="path7661"
             inkscape:connector-curvature="0" />
          <path
             transform="matrix(0.77807,-1.0613,1.0613,0.77807,410.47,-466.35)"
             d="m -22.5,-17.5 c 0,5.2467 -4.2533,9.5 -9.5,9.5 -5.2467,0 -9.5,-4.2533 -9.5,-9.5 0,-5.2467 4.2533,-9.5 9.5,-9.5 5.2467,0 9.5,4.2533 9.5,9.5 z"
             style="fill:none;stroke:#ffffff;stroke-width:0.76089001;stroke-linecap:square"
             id="path7663"
             inkscape:connector-curvature="0" />
        </g>
      </g>
      <g
         transform="matrix(0.93552,0,0,0.93552,-5.4801,1005.6)"
         id="g3397">
        <path
           d="m 44.21,16.545 c 0,9.0629 -9.0485,16.41 -20.21,16.41 -11.1615,0 -20.21,-7.3469 -20.21,-16.41 0,-9.0629 9.0485,-16.41 20.21,-16.41 11.1615,0 20.21,7.3469 20.21,16.41 z"
           style="fill:url(#radialGradient2996)"
           id="path2891"
           inkscape:connector-curvature="0" />
        <path
           d="m 41.536,43 c 0,2.6924 -7.4035,4.875 -16.536,4.875 -9.1326,0 -16.536,-2.1826 -16.536,-4.875 0,-2.6924 7.4035,-4.875 16.536,-4.875 9.1326,0 16.536,2.1826 16.536,4.875 z"
           style="opacity:0.8;fill:url(#radialGradient2993)"
           id="path2893"
           inkscape:connector-curvature="0" />
        <path
           d="m 21.002,40.503 v 1.383 c 0,1.383 1.4107,2.6123 2.9978,2.6123 1.5871,0 2.9978,-1.2293 2.9978,-2.6123 V 40.503 H 21.002 z"
           style="fill:url(#linearGradient2990);stroke:#565656"
           id="path2895"
           inkscape:connector-curvature="0" />
        <path
           d="m 23.835,28.498 c -3.2668,-0.0079 -6.9714,0.95698 -4.964,2.781 -0.49772,0.2017 -1.2092,0.65215 -1.1253,1.7062 0.04631,0.55049 0.62715,0.88841 1.4215,1.1365 -0.9005,0.6345 -1.4735,1.305 -1.4215,1.9233 0.04576,0.54408 0.61438,0.91666 1.3925,1.1657 -0.87781,0.6272 -1.4438,1.3135 -1.3925,1.9233 0.0784,0.93209 2.0796,1.9762 6.4129,1.8559 3.1199,-0.08543 5.8731,-0.64719 6.0904,-1.8559 0.08532,-0.47462 -0.30136,-0.91747 -0.89931,-1.3114 0.44763,-0.45322 0.76122,-0.91292 0.72525,-1.3405 -0.04598,-0.54664 -0.60791,-0.91701 -1.3925,-1.1657 0.87781,-0.6272 1.4438,-1.3135 1.3925,-1.9233 -0.04598,-0.54664 -0.60791,-0.88787 -1.3925,-1.1365 0.88828,-0.63058 1.4441,-1.3095 1.3925,-1.9233 -0.05739,-0.68228 -3.1696,-1.8279 -6.24,-1.8354 z"
           style="fill:#aeae57;stroke:url(#linearGradient2987);stroke-width:2"
           id="path2897"
           inkscape:connector-curvature="0" />
        <path
           d="m 30.174,39.091 c -0.21729,1.2087 -3.2924,1.8908 -8.2143,1.6432 -3.1172,-0.1568 -3.2956,-1.0329 -3.0783,-2.2416 0.21729,-1.2087 2.9232,-2.0557 6.0399,-1.8905 3.1168,0.16516 5.47,1.2802 5.2527,2.4889 z"
           style="fill:url(#linearGradient2982);stroke:url(#linearGradient2984);stroke-width:0.088289"
           id="path2899"
           inkscape:connector-curvature="0" />
        <path
           d="m 29.995,36.44 c 0.11484,1.3653 -2.5523,3.0637 -5.9572,3.7936 -3.4049,0.7299 -6.2582,0.21483 -6.373,-1.1504 -0.11484,-1.3653 2.5523,-3.0637 5.9572,-3.7936 3.4049,-0.7299 6.2582,-0.21483 6.373,1.1504 z"
           style="fill:url(#linearGradient2977);stroke:url(#linearGradient2979);stroke-width:0.088289"
           id="path2901"
           inkscape:connector-curvature="0" />
        <path
           d="m 29.995,33.364 c 0.11484,1.3653 -2.5523,3.0637 -5.9572,3.7936 -3.4049,0.7299 -6.2582,0.21483 -6.373,-1.1504 -0.11484,-1.3653 2.5523,-3.0637 5.9572,-3.7936 3.4049,-0.7299 6.2582,-0.21483 6.373,1.1504 z"
           style="fill:url(#linearGradient2972);stroke:url(#linearGradient2974);stroke-width:0.088289"
           id="path2903"
           inkscape:connector-curvature="0" />
        <path
           d="m 29.954,30.453 c 0,1.3694 -2.513,2.8992 -5.9161,3.6288 -3.4031,0.72952 -6.2582,0.21413 -6.373,-1.1504 -0.11478,-1.3646 2.2121,-2.9562 5.6172,-3.1416 3.4321,-0.1869 6.672,-0.04364 6.672,0.66326 z"
           style="fill:url(#linearGradient2967);stroke:url(#linearGradient2969);stroke-width:0.088289"
           id="path2905"
           inkscape:connector-curvature="0" />
        <path
           d="m 21.495,35.516 c 0,0.59825 -0.48279,1.0832 -1.0783,1.0832 -0.59555,0 -1.0783,-0.48498 -1.0783,-1.0832 0,-0.59825 0.48279,-1.0832 1.0783,-1.0832 0.59555,0 1.0783,0.48498 1.0783,1.0832 z"
           style="fill:#ffffff"
           id="path2907"
           inkscape:connector-curvature="0" />
        <path
           d="m 18.722,34.172 c 3.3573,0.50142 6.9026,-0.03246 9.7643,-1.8958 0.8024,-0.52246 0.92309,-1.1196 1.2923,-1.5867 -1.4086,1.1196 -4.971,4.135 -11.057,3.4824 z"
           style="fill-opacity:0.23391999;fill-rule:evenodd"
           id="path2909"
           inkscape:connector-curvature="0" />
        <path
           d="m 21.495,38.504 c 0,0.59825 -0.48279,1.0832 -1.0783,1.0832 -0.59555,0 -1.0783,-0.48498 -1.0783,-1.0832 0,-0.59825 0.48279,-1.0832 1.0783,-1.0832 0.59555,0 1.0783,0.48498 1.0783,1.0832 z"
           style="fill:#ffffff"
           id="path2911"
           inkscape:connector-curvature="0" />
        <path
           d="m 18.845,40.271 c 3.3573,0.50142 6.9026,-0.03246 9.7643,-1.8958 0.8024,-0.52246 0.92309,-1.1196 1.2923,-1.5867 -1.4086,1.1196 -4.971,4.135 -11.057,3.4824 z"
           style="fill-opacity:0.23391999;fill-rule:evenodd"
           id="path2913"
           inkscape:connector-curvature="0" />
        <path
           d="m 18.866,37.18 c 3.3573,0.50142 6.9026,-0.03246 9.7643,-1.8958 0.8024,-0.52246 0.92309,-1.1196 1.2923,-1.5867 -1.4086,1.1196 -4.971,4.135 -11.057,3.4824 z"
           style="fill-opacity:0.23391999;fill-rule:evenodd"
           id="path2915"
           inkscape:connector-curvature="0" />
        <path
           d="m 18.456,30.968 c 0,-0.78342 1.5024,-1.7205 5.2954,-1.6681 3.5142,0.04859 5.8291,0.88661 5.8291,2.1405 0,1.2273 -3.0727,2.0481 -6.3489,1.8835 -3.2762,-0.16454 -4.7757,-1.1286 -4.7757,-2.3559 z"
           style="fill:url(#linearGradient2957);stroke:url(#linearGradient2959);stroke-width:0.088289"
           id="path2917"
           inkscape:connector-curvature="0" />
        <path
           d="m 24,2.4934 c -7.4656,0 -13.528,5.9144 -13.528,13.198 0,7.4661 5.48,8.2931 5.48,11.045 0,3.233 3.2129,6.8991 8.4959,6.7667 5.6177,-0.14072 7.936,-3.3293 7.936,-6.7667 0,-2.9389 5.144,-3.0172 5.144,-11.045 0,-7.2831 -6.062,-13.198 -13.528,-13.198 z"
           style="fill:url(#radialGradient2952);stroke:url(#linearGradient2954);stroke-width:0.98750001"
           id="path2919"
           inkscape:connector-curvature="0" />
        <path
           d="m 24,3.5481 c -6.9579,0 -12.608,5.5122 -12.608,12.3 0,6.9584 5.1073,7.729 5.1073,10.293 0,3.0131 2.9944,6.4299 7.9181,6.3065 5.2356,-0.13115 7.3963,-3.1028 7.3963,-6.3065 0,-2.739 4.7942,-2.812 4.7942,-10.293 0,-6.7888 -5.65,-12.301 -12.608,-12.301 z"
           style="fill:none;stroke:url(#linearGradient2949);stroke-width:0.92034"
           id="path2921"
           inkscape:connector-curvature="0" />
        <path
           d="m 29.531,19.07 c 0.2932,0.09663 0.48866,0.38652 0.39093,0.67642 l -3.6161,10.726 c -0.09773,0.28989 -0.39093,0.48315 -0.68412,0.38652 -0.29319,-0.09663 -0.48866,-0.38652 -0.39093,-0.67642 l 3.6161,-10.726 C 28.94461,19.16663 29.23781,18.97337 29.531,19.07 z"
           style="fill:url(#linearGradient2946)"
           id="path2923"
           inkscape:connector-curvature="0" />
        <path
           d="m 18.473,19.186 c -0.2932,0.09663 -0.48866,0.38652 -0.39093,0.67642 l 3.6161,10.726 c 0.09773,0.28989 0.39093,0.48315 0.68412,0.38652 0.29319,-0.09663 0.48866,-0.38652 0.39093,-0.67641 l -3.6161,-10.726 C 19.05939,19.28264 18.76619,19.08938 18.473,19.18601 z"
           style="fill:url(#linearGradient2943)"
           id="path2925"
           inkscape:connector-curvature="0" />
        <path
           d="m 18.57,19.117 c -0.23054,0.03899 -0.41115,0.2175 -0.45066,0.44543 -0.03952,0.22793 0.07064,0.45572 0.27488,0.56841 0,0 1.7271,1.0019 3.9844,1.5063 2.2573,0.50438 5.1458,0.53709 7.3242,-1.5642 0.16429,-0.12888 0.24046,-0.33872 0.19654,-0.54148 -0.04392,-0.20276 -0.20033,-0.36335 -0.40359,-0.41439 -0.20326,-0.05104 -0.41822,0.0163 -0.55467,0.17376 -1.8286,1.7639 -4.2608,1.7654 -6.3281,1.3035 -2.0673,-0.46193 -3.6621,-1.3904 -3.6621,-1.3904 -0.11197,-0.07396 -0.24743,-0.10487 -0.38086,-0.0869 z"
           style="fill:#ff4600;stroke:url(#linearGradient2940);stroke-width:0.2"
           id="path2927"
           inkscape:connector-curvature="0" />
        <path
           d="m 24.307,5.1682 c -5.9782,0 -10.829,3.9848 -10.829,8.8924 0,1.9601 0.93302,3.6763 2.2436,5.1465 1.4819,0.62546 3.096,1.0749 4.876,1.0749 5.9782,0 10.829,-3.9848 10.829,-8.8924 0,-1.9719 -0.94853,-3.7042 -2.2735,-5.1791 C 27.6781,5.59245 26.0757,5.1682 24.307,5.1682 z"
           style="opacity:0.59777;fill:url(#linearGradient2937)"
           id="path2929"
           inkscape:connector-curvature="0" />
      </g>
    </g>
    <rect
       ry="25"
       rx="25"
       id="rect3003"
       style="opacity:0.15;fill:#ffffff;fill-opacity:1"
       height="92"
       width="92"
       y="958.36218"
       x="-96"
       clip-path="url(#clipPath3009)"
       transform="translate(98,0)" />
  </g>
</svg>
