<?xml version="1.0" encoding="UTF-8" standalone="no"?>
<!-- Created with Inkscape (http://www.inkscape.org/) -->

<svg
   xmlns:dc="http://purl.org/dc/elements/1.1/"
   xmlns:cc="http://creativecommons.org/ns#"
   xmlns:rdf="http://www.w3.org/1999/02/22-rdf-syntax-ns#"
   xmlns:svg="http://www.w3.org/2000/svg"
   xmlns="http://www.w3.org/2000/svg"
   xmlns:xlink="http://www.w3.org/1999/xlink"
   xmlns:sodipodi="http://sodipodi.sourceforge.net/DTD/sodipodi-0.dtd"
   xmlns:inkscape="http://www.inkscape.org/namespaces/inkscape"
   width="96"
   height="96"
   id="svg11037"
   version="1.1"
   inkscape:version="0.48.3.1 r9886"
   sodipodi:docname="rosegarden.svg">
  <defs
     id="defs11039">
    <linearGradient
       y2="1046.1001"
       x2="47.999954"
       y1="962.62189"
       x1="47.999954"
       gradientTransform="matrix(1.15,0,0,1.15,-7.1999462,-150.65291)"
       gradientUnits="userSpaceOnUse"
       id="linearGradient3886"
       xlink:href="#linearGradient3795"
       inkscape:collect="always" />
    <linearGradient
       id="linearGradient3795">
      <stop
         style="stop-color:#13a6fd;stop-opacity:1;"
         offset="0"
         id="stop3797" />
      <stop
         style="stop-color:#2975b6;stop-opacity:1;"
         offset="1"
         id="stop3799" />
    </linearGradient>
    <linearGradient
       y2="1046.1001"
       x2="47.999954"
       y1="962.62189"
       x1="47.999954"
       gradientTransform="matrix(1.15,0,0,1.15,-7.1999462,-150.65292)"
       gradientUnits="userSpaceOnUse"
       id="linearGradient11642"
       xlink:href="#linearGradient3795"
       inkscape:collect="always" />
    <clipPath
       clipPathUnits="userSpaceOnUse"
       id="clipPath3009">
      <path
         id="path3011"
         d="m -2,956.36218 -96,0 0,33.5624 96,25.68742 0,-59.24982 z"
         style="opacity:0.15;fill:#ffffff;fill-opacity:1;stroke:none"
         inkscape:connector-curvature="0" />
    </clipPath>
    <linearGradient
       inkscape:collect="always"
       xlink:href="#linearGradient4523"
       id="linearGradient3607"
       gradientUnits="userSpaceOnUse"
       x1="48"
       y1="90"
       x2="48"
       y2="5.9877172" />
    <linearGradient
       id="linearGradient4523">
      <stop
         offset="0"
         style="stop-color:#5a0606;stop-opacity:1;"
         id="stop4525" />
      <stop
         offset="1"
         style="stop-color:#b40e0e;stop-opacity:1;"
         id="stop4527" />
    </linearGradient>
    <linearGradient
       gradientTransform="matrix(1.1428571,0,0,1.1428571,-6.8571429,949.50504)"
       y2="5.9877172"
       x2="48"
       y1="90"
       x1="48"
       gradientUnits="userSpaceOnUse"
       id="linearGradient3242"
       xlink:href="#linearGradient4523"
       inkscape:collect="always" />
    <clipPath
       clipPathUnits="userSpaceOnUse"
       id="clipPath3018">
      <rect
         x="2"
         y="958.36218"
         width="92"
         height="92"
         style="opacity:0.6;fill:#000000;fill-opacity:1"
         id="rect3020"
         rx="25"
         ry="25" />
    </clipPath>
    <radialGradient
       inkscape:collect="always"
       xlink:href="#linearGradient4761"
       id="radialGradient4767"
       cx="34.815575"
       cy="26.216022"
       fx="34.815575"
       fy="26.216022"
       r="3.8856249"
       gradientTransform="matrix(1,0,0,1.3027562,0,-7.9370621)"
       gradientUnits="userSpaceOnUse" />
    <linearGradient
       inkscape:collect="always"
       id="linearGradient4761">
      <stop
         style="stop-color:#e03f43;stop-opacity:1;"
         offset="0"
         id="stop4763" />
      <stop
         style="stop-color:#e03f43;stop-opacity:0;"
         offset="1"
         id="stop4765" />
    </linearGradient>
    <radialGradient
       inkscape:collect="always"
       xlink:href="#linearGradient4785"
       id="radialGradient4791"
       cx="23.467579"
       cy="24.721451"
       fx="23.467579"
       fy="24.721451"
       r="3.7073214"
       gradientTransform="matrix(1,0,0,1.5024729,0,-12.421859)"
       gradientUnits="userSpaceOnUse" />
    <linearGradient
       inkscape:collect="always"
       id="linearGradient4785">
      <stop
         style="stop-color:#e03f43;stop-opacity:1;"
         offset="0"
         id="stop4787" />
      <stop
         style="stop-color:#e03f43;stop-opacity:0;"
         offset="1"
         id="stop4789" />
    </linearGradient>
    <radialGradient
       inkscape:collect="always"
       xlink:href="#linearGradient4777"
       id="radialGradient4783"
       cx="30.6171"
       cy="16.70944"
       fx="30.6171"
       fy="16.70944"
       r="5.8204999"
       gradientTransform="matrix(1,0,0,0.3119937,0,11.4962)"
       gradientUnits="userSpaceOnUse" />
    <linearGradient
       inkscape:collect="always"
       id="linearGradient4777">
      <stop
         style="stop-color:#e03f43;stop-opacity:1;"
         offset="0"
         id="stop4779" />
      <stop
         style="stop-color:#e03f43;stop-opacity:0;"
         offset="1"
         id="stop4781" />
    </linearGradient>
    <radialGradient
       inkscape:collect="always"
       xlink:href="#linearGradient4747"
       id="radialGradient4753"
       cx="38.615585"
       cy="20.77845"
       fx="38.615585"
       fy="20.77845"
       r="5.0569334"
       gradientTransform="matrix(1,0,0,1.2623757,0,-5.4517598)"
       gradientUnits="userSpaceOnUse" />
    <linearGradient
       id="linearGradient4747">
      <stop
         style="stop-color:#fd898b;stop-opacity:1;"
         offset="0"
         id="stop4749" />
      <stop
         style="stop-color:#fc575a;stop-opacity:0;"
         offset="1"
         id="stop4751" />
    </linearGradient>
    <radialGradient
       inkscape:collect="always"
       xlink:href="#linearGradient4747"
       id="radialGradient4755"
       cx="25.150068"
       cy="15.767066"
       fx="25.150068"
       fy="15.767066"
       r="4.9037724"
       gradientTransform="matrix(1,0,0,0.84327617,0,2.4710749)"
       gradientUnits="userSpaceOnUse" />
    <linearGradient
       id="linearGradient3271">
      <stop
         style="stop-color:#fd898b;stop-opacity:1;"
         offset="0"
         id="stop3273" />
      <stop
         style="stop-color:#fc575a;stop-opacity:0;"
         offset="1"
         id="stop3275" />
    </linearGradient>
    <radialGradient
       inkscape:collect="always"
       xlink:href="#linearGradient4747"
       id="radialGradient4757"
       cx="24.503298"
       cy="30.563931"
       fx="24.503298"
       fy="30.563931"
       r="6.4267025"
       gradientTransform="matrix(1,0,0,0.76303208,0,7.2426708)"
       gradientUnits="userSpaceOnUse" />
    <linearGradient
       id="linearGradient3278">
      <stop
         style="stop-color:#fd898b;stop-opacity:1;"
         offset="0"
         id="stop3280" />
      <stop
         style="stop-color:#fc575a;stop-opacity:0;"
         offset="1"
         id="stop3282" />
    </linearGradient>
    <radialGradient
       inkscape:collect="always"
       xlink:href="#linearGradient4585"
       id="radialGradient4591"
       cx="40.012955"
       cy="45.190075"
       fx="40.012955"
       fy="45.190075"
       r="15.407295"
       gradientTransform="matrix(1.0202028,0,0,0.58453008,-2.5915326,18.545383)"
       gradientUnits="userSpaceOnUse" />
    <linearGradient
       id="linearGradient4585">
      <stop
         style="stop-color:#ff7272;stop-opacity:1;"
         offset="0"
         id="stop4587" />
      <stop
         style="stop-color:#ef2b2b;stop-opacity:0.48117155;"
         offset="1"
         id="stop4589" />
    </linearGradient>
    <radialGradient
       inkscape:collect="always"
       xlink:href="#linearGradient4747"
       id="radialGradient4759"
       cx="39.493683"
       cy="29.966667"
       fx="39.493683"
       fy="29.966667"
       r="6.0601826"
       gradientTransform="matrix(1,0,0,1.0204424,0,-0.61259173)"
       gradientUnits="userSpaceOnUse" />
    <linearGradient
       id="linearGradient3289">
      <stop
         style="stop-color:#fd898b;stop-opacity:1;"
         offset="0"
         id="stop3291" />
      <stop
         style="stop-color:#fc575a;stop-opacity:0;"
         offset="1"
         id="stop3293" />
    </linearGradient>
    <radialGradient
       inkscape:collect="always"
       xlink:href="#linearGradient4739"
       id="radialGradient4745"
       cx="13.960087"
       cy="21.527559"
       fx="13.960087"
       fy="21.527559"
       r="5.8295531"
       gradientTransform="matrix(1,0,0,1.6315361,0,-13.59543)"
       gradientUnits="userSpaceOnUse" />
    <linearGradient
       inkscape:collect="always"
       id="linearGradient4739">
      <stop
         style="stop-color:#ed3237;stop-opacity:1;"
         offset="0"
         id="stop4741" />
      <stop
         style="stop-color:#ed3237;stop-opacity:0;"
         offset="1"
         id="stop4743" />
    </linearGradient>
    <radialGradient
       inkscape:collect="always"
       xlink:href="#linearGradient4731"
       id="radialGradient4737"
       cx="32.186588"
       cy="9.6032763"
       fx="32.186588"
       fy="9.6032763"
       r="9.6462269"
       gradientTransform="matrix(1,0,0,0.45778762,0,5.2070155)"
       gradientUnits="userSpaceOnUse" />
    <linearGradient
       inkscape:collect="always"
       id="linearGradient4731">
      <stop
         style="stop-color:#ed3237;stop-opacity:1;"
         offset="0"
         id="stop4733" />
      <stop
         style="stop-color:#ed3237;stop-opacity:0;"
         offset="1"
         id="stop4735" />
    </linearGradient>
    <radialGradient
       inkscape:collect="always"
       xlink:href="#linearGradient4715"
       id="radialGradient4721"
       cx="27.280287"
       cy="39.377712"
       fx="27.280287"
       fy="39.377712"
       r="12.430825"
       gradientTransform="matrix(1,0,0,0.50132147,0,19.636821)"
       gradientUnits="userSpaceOnUse" />
    <linearGradient
       inkscape:collect="always"
       id="linearGradient4715">
      <stop
         style="stop-color:#ef4b3f;stop-opacity:1;"
         offset="0"
         id="stop4717" />
      <stop
         style="stop-color:#ef4b3f;stop-opacity:0;"
         offset="1"
         id="stop4719" />
    </linearGradient>
    <radialGradient
       inkscape:collect="always"
       xlink:href="#linearGradient4723"
       id="radialGradient4729"
       cx="48.847473"
       cy="26.537045"
       fx="48.847473"
       fy="26.537045"
       r="5.7758727"
       gradientTransform="matrix(1,0,0,2.1895147,0,-31.566205)"
       gradientUnits="userSpaceOnUse" />
    <linearGradient
       inkscape:collect="always"
       id="linearGradient4723">
      <stop
         style="stop-color:#ef4b3f;stop-opacity:1;"
         offset="0"
         id="stop4725" />
      <stop
         style="stop-color:#ef4b3f;stop-opacity:0;"
         offset="1"
         id="stop4727" />
    </linearGradient>
    <radialGradient
       inkscape:collect="always"
       xlink:href="#linearGradient4585"
       id="radialGradient4595"
       cx="8.8361349"
       cy="32.985939"
       fx="8.8361349"
       fy="32.985939"
       r="8.8360882"
       gradientTransform="matrix(1.0269862,0,0,1.3751819,0.3803387,-11.301347)"
       gradientUnits="userSpaceOnUse" />
    <linearGradient
       id="linearGradient3312">
      <stop
         style="stop-color:#ff7272;stop-opacity:1;"
         offset="0"
         id="stop3314" />
      <stop
         style="stop-color:#ef2b2b;stop-opacity:0.48117155;"
         offset="1"
         id="stop3316" />
    </linearGradient>
    <radialGradient
       inkscape:collect="always"
       xlink:href="#linearGradient4585"
       id="radialGradient4597"
       cx="16.159716"
       cy="9.8533468"
       fx="16.159716"
       fy="9.8533468"
       r="12.266825"
       gradientTransform="matrix(1.0004263,0.11714214,-0.09242066,0.79143511,1.5927559,-2.3895996)"
       gradientUnits="userSpaceOnUse" />
    <linearGradient
       id="linearGradient3319">
      <stop
         style="stop-color:#ff7272;stop-opacity:1;"
         offset="0"
         id="stop3321" />
      <stop
         style="stop-color:#ef2b2b;stop-opacity:0.48117155;"
         offset="1"
         id="stop3323" />
    </linearGradient>
    <radialGradient
       inkscape:collect="always"
       xlink:href="#linearGradient4585"
       id="radialGradient4593"
       cx="43.349926"
       cy="9.7007895"
       fx="43.349926"
       fy="9.7007895"
       r="11.23753"
       gradientTransform="matrix(1,0,0,0.86324887,1.8893794,1.5393286)"
       gradientUnits="userSpaceOnUse" />
    <linearGradient
       id="linearGradient3326">
      <stop
         style="stop-color:#ff7272;stop-opacity:1;"
         offset="0"
         id="stop3328" />
      <stop
         style="stop-color:#ef2b2b;stop-opacity:0.48117155;"
         offset="1"
         id="stop3330" />
    </linearGradient>
  </defs>
  <sodipodi:namedview
     id="base"
     pagecolor="#ffffff"
     bordercolor="#666666"
     borderopacity="1.0"
     inkscape:pageopacity="0.0"
     inkscape:pageshadow="2"
     inkscape:zoom="3.959798"
     inkscape:cx="29.118614"
     inkscape:cy="59.964634"
     inkscape:document-units="px"
     inkscape:current-layer="layer1"
     showgrid="false"
     inkscape:window-width="1366"
     inkscape:window-height="684"
     inkscape:window-x="0"
     inkscape:window-y="26"
     inkscape:window-maximized="1"
     showguides="true"
     inkscape:guide-bbox="true">
    <sodipodi:guide
       orientation="0,1"
       position="-24.748737,0"
       id="guide11064" />
    <sodipodi:guide
       orientation="0,1"
       position="-23.233509,96"
       id="guide11066" />
    <sodipodi:guide
       orientation="1,0"
       position="0,54.800776"
       id="guide11068" />
    <sodipodi:guide
       orientation="1,0"
       position="96,51.012704"
       id="guide11070" />
    <sodipodi:guide
       orientation="0,1"
       position="-18.94036,48"
       id="guide11072" />
    <sodipodi:guide
       orientation="1,0"
       position="48,79.296975"
       id="guide11074" />
    <sodipodi:guide
       orientation="1,0"
       position="2,75.508903"
       id="guide11076" />
    <sodipodi:guide
       orientation="0,1"
       position="-77.27667,2"
       id="guide11078" />
    <sodipodi:guide
       orientation="1,0"
       position="94,77.781746"
       id="guide11080" />
    <sodipodi:guide
       orientation="0,1"
       position="-65.912454,94"
       id="guide11082" />
  </sodipodi:namedview>
  <metadata
     id="metadata11042">
    <rdf:RDF>
      <cc:Work
         rdf:about="">
        <dc:format>image/svg+xml</dc:format>
        <dc:type
           rdf:resource="http://purl.org/dc/dcmitype/StillImage" />
        <dc:title />
      </cc:Work>
    </rdf:RDF>
  </metadata>
  <g
     inkscape:label="Layer 1"
     inkscape:groupmode="layer"
     id="layer1"
     transform="translate(0,-956.36218)">
    <rect
       style="fill:url(#linearGradient3242);fill-opacity:1;fill-rule:nonzero;stroke:none"
       id="rect2419"
       y="956.36218"
       x="0"
       ry="6.8571429"
       rx="6.8571429"
       height="96"
       width="96"
       clip-path="url(#clipPath3018)" />
    <g
       id="g3707"
       transform="matrix(1.4782728,-0.1664462,0.1664462,1.4782728,1.1051347,971.89365)">
      <metadata
         id="metadata3709" />
      <g
         id="g3711">
        <path
           d="m 33.9341,26.7868 c 3.95688,-3.57773 3.12238,-5.99772 -2.50348,-7.25997 3.91258,1.94627 4.74707,4.36626 2.50348,7.25997 z"
           class="fil0"
           id="path3713"
           inkscape:connector-curvature="0"
           style="fill:#e03f43;fill-opacity:1" />
        <path
           d="m 33.5586,28.6643 c -3.34584,1.80769 -5.51552,1.26529 -6.50897,-1.62721 1.95643,1.61574 4.12611,2.15814 6.50897,1.62721 z"
           class="fil0"
           id="path3715"
           inkscape:connector-curvature="0"
           style="fill:#e03f43;fill-opacity:1" />
        <path
           d="m 28.4265,18.5254 c -4.51707,0.645985 -5.60188,2.69045 -3.25443,6.13338 -0.203947,-3.07923 0.880862,-5.12369 3.25443,-6.13338 z"
           class="fil0"
           id="path3717"
           inkscape:connector-curvature="0"
           style="fill:#e03f43;fill-opacity:1" />
        <path
           d="m 37.3137,21.154 c 3.11412,7.4537 0.986221,10.7916 -6.38375,10.0138 4.89725,-1.52639 7.02515,-4.86431 6.38375,-10.0138 z"
           class="fil1"
           id="path3719"
           inkscape:connector-curvature="0"
           style="fill:url(#radialGradient4767);fill-opacity:1" />
        <path
           d="m 27.1749,30.2916 c -8.35585,-1.53586 -9.64931,-5.24925 -3.88033,-11.1403 -1.66692,4.18659 -0.37352,7.90004 3.88033,11.1403 z"
           class="fil1"
           id="path3721"
           inkscape:connector-curvature="0"
           style="fill:url(#radialGradient4791);fill-opacity:1" />
        <path
           d="m 36.4376,18.5254 c -3.86013,-4.66949 -7.74045,-4.83636 -11.641,-0.500685 3.87097,-1.49901 7.7513,-1.33214 11.641,0.500685 z"
           class="fil1"
           id="path3723"
           inkscape:connector-curvature="0"
           style="fill:url(#radialGradient4783);fill-opacity:1" />
        <path
           d="m 39.9424,27.1622 c 6.5815,-8.20309 4.4536,-12.4589 -6.38375,-12.7675 5.11577,2.55249 7.24373,6.80829 6.38375,12.7675 z"
           class="fil2"
           id="path3725"
           inkscape:connector-curvature="0"
           style="fill:url(#radialGradient4753);fill-opacity:1" />
        <path
           d="m 20.4156,19.9023 c -0.971932,-7.77081 2.24083,-10.0656 9.63824,-6.88444 -4.54324,0.64587 -7.756,2.9407 -9.63824,6.88444 z"
           class="fil2"
           id="path3727"
           inkscape:connector-curvature="0"
           style="fill:url(#radialGradient4755);fill-opacity:1" />
        <path
           d="m 30.93,32.6698 c -9.6671,5.35753 -13.8812,3.02098 -12.6423,-7.00965 2.1427,5.03991 6.35678,7.37646 12.6423,7.00965 z"
           class="fil2"
           id="path3729"
           inkscape:connector-curvature="0"
           style="fill:url(#radialGradient4757);fill-opacity:1" />
        <path
           d="m 43.251544,54.363721 c -8.092171,-1.218189 -8.140875,-3.372545 -12.384001,-3.332216 -2.621442,0.02488 -2.493469,-0.231202 -4.091912,-1.74944 1.139454,-1.558574 1.911127,-2.569629 6.645918,-3.263082 6.200854,0.818218 9.124801,-1.146536 12.96964,-4.943201 1.123355,-1.723021 3.166556,-3.430177 6.129664,-5.121469 2.093496,1.165734 1.741292,2.507046 -0.127686,4.685607 -2.553068,2.975871 -0.660674,5.510973 -0.893916,8.17258 -1.553822,6.500077 -2.68011,5.364603 -8.247707,5.551221 z"
           class="fil5"
           id="path3747"
           inkscape:connector-curvature="0"
           style="fill:url(#radialGradient4591);fill-opacity:1"
           sodipodi:nodetypes="ccccccccc" />
        <path
           d="m 43.8227,23.7826 c 4.20788,12.0294 0.744802,15.2838 -10.3892,9.76339 4.98815,-1.00229 8.45123,-4.25677 10.3892,-9.76339 z"
           class="fil3"
           id="path3731"
           inkscape:connector-curvature="0"
           style="fill:url(#radialGradient4759);fill-opacity:1" />
        <path
           d="m 10.642653,27.563181 c 0.51548,1.226368 -3.7108168,-10.045951 4.05746,-13.498557 2.09238,-2.32898 4.261227,-2.666444 5.089527,-1.171964 -2.20703,4.27393 -3.45877,10.1153 -3.75511,17.524 -1.91213,1.38074 -4.299836,0.363092 -5.391877,-2.853519 z"
           class="fil3"
           id="path3733"
           inkscape:connector-curvature="0"
           style="fill:url(#radialGradient4745);fill-opacity:1"
           sodipodi:nodetypes="cccccc" />
        <path
           d="m 25.5476,7.63544 c -3.48098,0.64059 -3.93995,1.47503 -1.3769,2.50343 6.08242,0.775101 11.59,2.06856 16.5227,3.88033 1.32835,-0.83329 1.49523,-1.79294 0.500685,-2.87896 -3.98465,-6.51356 -9.20016,-7.68186 -15.6465,-3.5048 z"
           class="fil3"
           id="path3735"
           inkscape:connector-curvature="0"
           style="fill:url(#radialGradient4737);fill-opacity:1" />
        <path
           d="m 15.9093,35.7991 c -1.56392,-1.93927 -1.39704,-2.81549 0.500743,-2.62858 4.99498,4.12513 12.2132,5.29338 21.6547,3.5048 1.84826,0.761214 2.14035,1.72087 0.876214,2.87896 -10.2481,9.17514 -17.9253,7.92345 -23.0316,-3.75517 z"
           class="fil4"
           id="path3737"
           inkscape:connector-curvature="0"
           style="fill:url(#radialGradient4721);fill-opacity:1" />
        <path
           d="m 47.9533,17.1485 c -2.01307,-3.64826 -3.18132,-4.23238 -3.5048,-1.75243 5.79745,10.0874 5.33848,17.6394 -1.3769,22.6561 1.88292,1.50831 3.46842,1.50831 4.75654,0 9.01836,-5.15875 9.06008,-12.1266 0.125157,-20.9037 z"
           class="fil4"
           id="path3739"
           inkscape:connector-curvature="0"
           style="fill:url(#radialGradient4729);fill-opacity:1" />
        <path
           d="M 3.7397592,47.601832 C 0.85512974,45.457824 1.1987445,37.599857 1.7694613,34.430526 c -0.055339,-7.656552 4.6228508,-8.055071 4.5194414,-8.990865 1.5916848,1.72965 1.6232513,3.237786 1.6599045,5.621709 0.5246287,6.031982 2.4509688,8.579055 5.6114668,9.403098 2.801886,1.587495 9.162535,7.569094 9.017381,10.180925 -1.402486,0.679857 -5.132399,2.252238 -10.995535,-1.267931 z"
           class="fil5"
           id="path3741"
           inkscape:connector-curvature="0"
           style="fill:url(#radialGradient4595);fill-opacity:1"
           sodipodi:nodetypes="cccccccc" />
        <path
           d="M 4.2200892,12.179275 C 4.027021,15.794077 4.9795629,16.695491 7.0776957,14.883631 10.748249,12.838526 13.78633,10.73675 16.19188,8.5782951 18.159565,6.1128947 20.71579,4.876278 23.860556,4.8684245 27.025323,4.5726644 29.045262,3.5803927 29.920315,1.8917332 29.418565,-0.17542438 27.818344,-1.3282485 25.119773,-1.5666728 19.59891,-1.4306684 15.665028,-1.8035378 13.318228,-2.6852692 8.5449081,-1.6550166 5.7358018,0.29799917 4.8908827,3.1738276 4.9740315,6.9523695 4.7504134,9.9541878 4.2200867,12.17928 z"
           class="fil5"
           id="path3743"
           inkscape:connector-curvature="0"
           style="fill:url(#radialGradient4597);fill-opacity:1" />
        <path
           d="m 37.826279,0.46304877 c -3.81743,0.0541716 -4.77708,1.01382003 -2.87896,2.87896003 2.00441,1.83701 4.25752,2.96354 6.75928,3.37964 4.64946,2.59433 7.36148,5.3064002 8.13612,8.1361802 1.53052,2.85577 3.07435,4.44127 4.63138,4.75648 1.02484,-0.869328 1.65068,-2.32966 1.87758,-4.38101 -0.543552,-1.99752 -0.501833,-4.87642 0.125157,-8.6368102 -1.06409,-2.49316 -3.7344,-4.62105 -8.01097,-6.38375003 -4.50508,0.570408 -8.05159,0.653846 -10.6396,0.250314 z"
           class="fil5"
           id="path3745"
           inkscape:connector-curvature="0"
           style="fill:url(#radialGradient4593);fill-opacity:1" />
        <path
           d="m 31.6882,20.8865 c -1.94587,-0.718118 -3.40931,-0.386948 -4.39031,0.993452 1.64948,-0.766321 3.11291,-1.09749 4.39031,-0.993452 z"
           class="fil6"
           id="path3749"
           inkscape:connector-curvature="0"
           style="fill:#e03f43;fill-opacity:1" />
        <path
           d="m 27.2979,23.0977 c 0.506768,2.8836 1.94886,3.23612 4.32621,1.05755 -2.21868,1.58894 -3.66077,1.23642 -4.32621,-1.05755 z"
           class="fil6"
           id="path3751"
           inkscape:connector-curvature="0"
           style="fill:#e03f43;fill-opacity:1" />
        <path
           d="m 32.0407,22.4247 c 1.65441,1.77946 1.366,3.16812 -0.865253,4.16599 1.52576,-1.30815 1.81417,-2.69681 0.865253,-4.16599 z"
           class="fil6"
           id="path3753"
           inkscape:connector-curvature="0"
           style="fill:#e03f43;fill-opacity:1" />
      </g>
    </g>
    <g
       transform="matrix(1.4782728,-0.1664462,0.1664462,1.4782728,1.1051347,971.89365)"
       id="g3399"
       style="opacity:0.15;fill:none;stroke:#000000;stroke-width:0.67221749;stroke-opacity:1">
      <metadata
         id="metadata3401" />
      <g
         id="g3403"
         style="fill:none;stroke:#000000;stroke-width:0.67221749;stroke-opacity:1">
        <path
           style="fill:none;stroke:#000000;stroke-width:0.67221749;stroke-opacity:1"
           inkscape:connector-curvature="0"
           id="path3405"
           class="fil0"
           d="m 33.9341,26.7868 c 3.95688,-3.57773 3.12238,-5.99772 -2.50348,-7.25997 3.91258,1.94627 4.74707,4.36626 2.50348,7.25997 z" />
        <path
           style="fill:none;stroke:#000000;stroke-width:0.67221749;stroke-opacity:1"
           inkscape:connector-curvature="0"
           id="path3407"
           class="fil0"
           d="m 33.5586,28.6643 c -3.34584,1.80769 -5.51552,1.26529 -6.50897,-1.62721 1.95643,1.61574 4.12611,2.15814 6.50897,1.62721 z" />
        <path
           style="fill:none;stroke:#000000;stroke-width:0.67221749;stroke-opacity:1"
           inkscape:connector-curvature="0"
           id="path3409"
           class="fil0"
           d="m 28.4265,18.5254 c -4.51707,0.645985 -5.60188,2.69045 -3.25443,6.13338 -0.203947,-3.07923 0.880862,-5.12369 3.25443,-6.13338 z" />
        <path
           style="fill:none;stroke:#000000;stroke-width:0.67221749;stroke-opacity:1"
           inkscape:connector-curvature="0"
           id="path3411"
           class="fil1"
           d="m 37.3137,21.154 c 3.11412,7.4537 0.986221,10.7916 -6.38375,10.0138 4.89725,-1.52639 7.02515,-4.86431 6.38375,-10.0138 z" />
        <path
           style="fill:none;stroke:#000000;stroke-width:0.67221749;stroke-opacity:1"
           inkscape:connector-curvature="0"
           id="path3413"
           class="fil1"
           d="m 27.1749,30.2916 c -8.35585,-1.53586 -9.64931,-5.24925 -3.88033,-11.1403 -1.66692,4.18659 -0.37352,7.90004 3.88033,11.1403 z" />
        <path
           style="fill:none;stroke:#000000;stroke-width:0.67221749;stroke-opacity:1"
           inkscape:connector-curvature="0"
           id="path3415"
           class="fil1"
           d="m 36.4376,18.5254 c -3.86013,-4.66949 -7.74045,-4.83636 -11.641,-0.500685 3.87097,-1.49901 7.7513,-1.33214 11.641,0.500685 z" />
        <path
           style="fill:none;stroke:#000000;stroke-width:0.67221749;stroke-opacity:1"
           inkscape:connector-curvature="0"
           id="path3417"
           class="fil2"
           d="m 39.9424,27.1622 c 6.5815,-8.20309 4.4536,-12.4589 -6.38375,-12.7675 5.11577,2.55249 7.24373,6.80829 6.38375,12.7675 z" />
        <path
           style="fill:none;stroke:#000000;stroke-width:0.67221749;stroke-opacity:1"
           inkscape:connector-curvature="0"
           id="path3419"
           class="fil2"
           d="m 20.4156,19.9023 c -0.971932,-7.77081 2.24083,-10.0656 9.63824,-6.88444 -4.54324,0.64587 -7.756,2.9407 -9.63824,6.88444 z" />
        <path
           style="fill:none;stroke:#000000;stroke-width:0.67221749;stroke-opacity:1"
           inkscape:connector-curvature="0"
           id="path3421"
           class="fil2"
           d="m 30.93,32.6698 c -9.6671,5.35753 -13.8812,3.02098 -12.6423,-7.00965 2.1427,5.03991 6.35678,7.37646 12.6423,7.00965 z" />
        <path
           sodipodi:nodetypes="ccccccccc"
           style="fill:none;stroke:#000000;stroke-width:0.67221749;stroke-opacity:1"
           inkscape:connector-curvature="0"
           id="path3423"
           class="fil5"
           d="m 43.251544,54.363721 c -8.092171,-1.218189 -8.140875,-3.372545 -12.384001,-3.332216 -2.621442,0.02488 -2.493469,-0.231202 -4.091912,-1.74944 1.139454,-1.558574 1.911127,-2.569629 6.645918,-3.263082 6.200854,0.818218 9.124801,-1.146536 12.96964,-4.943201 1.123355,-1.723021 3.166556,-3.430177 6.129664,-5.121469 2.093496,1.165734 1.741292,2.507046 -0.127686,4.685607 -2.553068,2.975871 -0.660674,5.510973 -0.893916,8.17258 -1.553822,6.500077 -2.68011,5.364603 -8.247707,5.551221 z" />
        <path
           style="fill:none;stroke:#000000;stroke-width:0.67221749;stroke-opacity:1"
           inkscape:connector-curvature="0"
           id="path3425"
           class="fil3"
           d="m 43.8227,23.7826 c 4.20788,12.0294 0.744802,15.2838 -10.3892,9.76339 4.98815,-1.00229 8.45123,-4.25677 10.3892,-9.76339 z" />
        <path
           sodipodi:nodetypes="cccccc"
           style="fill:none;stroke:#000000;stroke-width:0.67221749;stroke-opacity:1"
           inkscape:connector-curvature="0"
           id="path3427"
           class="fil3"
           d="m 10.642653,27.563181 c 0.51548,1.226368 -3.7108168,-10.045951 4.05746,-13.498557 2.09238,-2.32898 4.261227,-2.666444 5.089527,-1.171964 -2.20703,4.27393 -3.45877,10.1153 -3.75511,17.524 -1.91213,1.38074 -4.299837,0.363092 -5.391877,-2.853519 z" />
        <path
           style="fill:none;stroke:#000000;stroke-width:0.67221749;stroke-opacity:1"
           inkscape:connector-curvature="0"
           id="path3429"
           class="fil3"
           d="m 25.5476,7.63544 c -3.48098,0.64059 -3.93995,1.47503 -1.3769,2.50343 6.08242,0.775101 11.59,2.06856 16.5227,3.88033 1.32835,-0.83329 1.49523,-1.79294 0.500685,-2.87896 -3.98465,-6.51356 -9.20016,-7.68186 -15.6465,-3.5048 z" />
        <path
           style="fill:none;stroke:#000000;stroke-width:0.67221749;stroke-opacity:1"
           inkscape:connector-curvature="0"
           id="path3431"
           class="fil4"
           d="m 15.9093,35.7991 c -1.56392,-1.93927 -1.39704,-2.81549 0.500743,-2.62858 4.99498,4.12513 12.2132,5.29338 21.6547,3.5048 1.84826,0.761214 2.14035,1.72087 0.876214,2.87896 -10.2481,9.17514 -17.9253,7.92345 -23.0316,-3.75517 z" />
        <path
           style="fill:none;stroke:#000000;stroke-width:0.67221749;stroke-opacity:1"
           inkscape:connector-curvature="0"
           id="path3433"
           class="fil4"
           d="m 47.9533,17.1485 c -2.01307,-3.64826 -3.18132,-4.23238 -3.5048,-1.75243 5.79745,10.0874 5.33848,17.6394 -1.3769,22.6561 1.88292,1.50831 3.46842,1.50831 4.75654,0 9.01836,-5.15875 9.06008,-12.1266 0.125157,-20.9037 z" />
        <path
           sodipodi:nodetypes="cccccccc"
           style="fill:none;stroke:#000000;stroke-width:0.67221749;stroke-opacity:1"
           inkscape:connector-curvature="0"
           id="path3435"
           class="fil5"
           d="M 3.7397592,47.601832 C 0.85512974,45.457824 1.1987445,37.599857 1.7694613,34.430526 c -0.055339,-7.656552 4.6228508,-8.055071 4.5194414,-8.990865 1.5916848,1.72965 1.6232513,3.237786 1.6599045,5.621709 0.5246287,6.031982 2.4509688,8.579055 5.6114668,9.403098 2.801886,1.587495 9.162535,7.569094 9.017381,10.180925 -1.402486,0.679857 -5.132399,2.252238 -10.995535,-1.267931 z" />
        <path
           style="fill:none;stroke:#000000;stroke-width:0.67221749;stroke-opacity:1"
           inkscape:connector-curvature="0"
           id="path3437"
           class="fil5"
           d="M 4.2200892,12.179275 C 4.027021,15.794077 4.9795629,16.695491 7.0776957,14.883631 10.748249,12.838526 13.78633,10.73675 16.19188,8.5782951 18.159565,6.1128947 20.71579,4.876278 23.860556,4.8684245 27.025323,4.5726644 29.045262,3.5803927 29.920315,1.8917332 29.418565,-0.17542438 27.818344,-1.3282485 25.119773,-1.5666728 19.59891,-1.4306684 15.665028,-1.8035378 13.318228,-2.6852692 8.5449081,-1.6550166 5.7358018,0.29799917 4.8908827,3.1738276 4.9740315,6.9523695 4.7504134,9.9541878 4.2200867,12.17928 z" />
        <path
           style="fill:none;stroke:#000000;stroke-width:0.67221749;stroke-opacity:1"
           inkscape:connector-curvature="0"
           id="path3439"
           class="fil5"
           d="m 37.826279,0.46304877 c -3.81743,0.0541716 -4.77708,1.01382003 -2.87896,2.87896003 2.00441,1.83701 4.25752,2.96354 6.75928,3.37964 4.64946,2.59433 7.36148,5.3064002 8.13612,8.1361802 1.53052,2.85577 3.07435,4.44127 4.63138,4.75648 1.02484,-0.869328 1.65068,-2.32966 1.87758,-4.38101 -0.543552,-1.99752 -0.501833,-4.87642 0.125157,-8.6368102 -1.06409,-2.49316 -3.7344,-4.62105 -8.01097,-6.38375003 -4.50508,0.570408 -8.05159,0.653846 -10.6396,0.250314 z" />
        <path
           style="fill:none;stroke:#000000;stroke-width:0.67221749;stroke-opacity:1"
           inkscape:connector-curvature="0"
           id="path3441"
           class="fil6"
           d="m 31.6882,20.8865 c -1.94587,-0.718118 -3.40931,-0.386948 -4.39031,0.993452 1.64948,-0.766321 3.11291,-1.09749 4.39031,-0.993452 z" />
        <path
           style="fill:none;stroke:#000000;stroke-width:0.67221749;stroke-opacity:1"
           inkscape:connector-curvature="0"
           id="path3443"
           class="fil6"
           d="m 27.2979,23.0977 c 0.506768,2.8836 1.94886,3.23612 4.32621,1.05755 -2.21868,1.58894 -3.66077,1.23642 -4.32621,-1.05755 z" />
        <path
           style="fill:none;stroke:#000000;stroke-width:0.67221749;stroke-opacity:1"
           inkscape:connector-curvature="0"
           id="path3445"
           class="fil6"
           d="m 32.0407,22.4247 c 1.65441,1.77946 1.366,3.16812 -0.865253,4.16599 1.52576,-1.30815 1.81417,-2.69681 0.865253,-4.16599 z" />
      </g>
    </g>
    <rect
       ry="25"
       rx="25"
       id="rect3003"
       style="opacity:0.15;fill:#ffffff;fill-opacity:1"
       height="92"
       width="92"
       y="958.36218"
       x="-96"
       clip-path="url(#clipPath3009)"
       transform="translate(98,0)" />
  </g>
</svg>
