<?xml version="1.0" encoding="UTF-8" standalone="no"?>
<!-- Created with Inkscape (http://www.inkscape.org/) -->

<svg
   xmlns:dc="http://purl.org/dc/elements/1.1/"
   xmlns:cc="http://creativecommons.org/ns#"
   xmlns:rdf="http://www.w3.org/1999/02/22-rdf-syntax-ns#"
   xmlns:svg="http://www.w3.org/2000/svg"
   xmlns="http://www.w3.org/2000/svg"
   xmlns:xlink="http://www.w3.org/1999/xlink"
   xmlns:sodipodi="http://sodipodi.sourceforge.net/DTD/sodipodi-0.dtd"
   xmlns:inkscape="http://www.inkscape.org/namespaces/inkscape"
   width="96"
   height="96"
   id="svg11037"
   version="1.1"
   inkscape:version="0.48.3.1 r9886"
   sodipodi:docname="scidavis.svg">
  <defs
     id="defs11039">
    <linearGradient
       y2="1046.1001"
       x2="47.999954"
       y1="962.62189"
       x1="47.999954"
       gradientTransform="matrix(1.15,0,0,1.15,-7.1999462,-150.65291)"
       gradientUnits="userSpaceOnUse"
       id="linearGradient3886"
       xlink:href="#linearGradient3795"
       inkscape:collect="always" />
    <linearGradient
       id="linearGradient3795">
      <stop
         style="stop-color:#13a6fd;stop-opacity:1;"
         offset="0"
         id="stop3797" />
      <stop
         style="stop-color:#2975b6;stop-opacity:1;"
         offset="1"
         id="stop3799" />
    </linearGradient>
    <linearGradient
       y2="1046.1001"
       x2="47.999954"
       y1="962.62189"
       x1="47.999954"
       gradientTransform="matrix(1.15,0,0,1.15,-7.1999462,-150.65292)"
       gradientUnits="userSpaceOnUse"
       id="linearGradient11642"
       xlink:href="#linearGradient3795"
       inkscape:collect="always" />
    <clipPath
       clipPathUnits="userSpaceOnUse"
       id="clipPath3009">
      <path
         id="path3011"
         d="m -2,956.36218 -96,0 0,33.5624 96,25.68742 0,-59.24982 z"
         style="opacity:0.15;fill:#ffffff;fill-opacity:1;stroke:none"
         inkscape:connector-curvature="0" />
    </clipPath>
    <linearGradient
       x1="48"
       y1="20.220806"
       x2="48"
       y2="138.66119"
       id="linearGradient3613"
       xlink:href="#linearGradient3737"
       gradientUnits="userSpaceOnUse" />
    <linearGradient
       id="linearGradient3737">
      <stop
         id="stop3739"
         style="stop-color:#ffffff;stop-opacity:1"
         offset="0" />
      <stop
         id="stop3741"
         style="stop-color:#ffffff;stop-opacity:0"
         offset="1" />
    </linearGradient>
    <clipPath
       id="clipPath3613">
      <rect
         width="84"
         height="84"
         rx="6"
         ry="6"
         x="6"
         y="6"
         id="rect3615"
         style="fill:#ffffff;fill-opacity:1;fill-rule:nonzero;stroke:none" />
    </clipPath>
    <filter
       x="-0.192"
       y="-0.192"
       width="1.3839999"
       height="1.3839999"
       color-interpolation-filters="sRGB"
       id="filter3794">
      <feGaussianBlur
         id="feGaussianBlur3796"
         stdDeviation="5.28" />
    </filter>
    <linearGradient
       y2="138.66119"
       x2="48"
       y1="20.220806"
       x1="48"
       gradientUnits="userSpaceOnUse"
       id="linearGradient3434"
       xlink:href="#linearGradient3737"
       inkscape:collect="always" />
    <linearGradient
       x1="48"
       y1="20.220806"
       x2="48"
       y2="138.66119"
       id="linearGradient3613-1"
       xlink:href="#linearGradient3737-8"
       gradientUnits="userSpaceOnUse" />
    <linearGradient
       id="linearGradient3737-8">
      <stop
         id="stop3739-9"
         style="stop-color:#ffffff;stop-opacity:1"
         offset="0" />
      <stop
         id="stop3741-0"
         style="stop-color:#ffffff;stop-opacity:0"
         offset="1" />
    </linearGradient>
    <clipPath
       id="clipPath3613-8">
      <rect
         width="84"
         height="84"
         rx="6"
         ry="6"
         x="6"
         y="6"
         id="rect3615-4"
         style="fill:#ffffff;fill-opacity:1;fill-rule:nonzero;stroke:none" />
    </clipPath>
    <filter
       x="-0.192"
       y="-0.192"
       width="1.3839999"
       height="1.3839999"
       color-interpolation-filters="sRGB"
       id="filter3794-2">
      <feGaussianBlur
         id="feGaussianBlur3796-9"
         stdDeviation="5.28" />
    </filter>
    <linearGradient
       y2="138.66119"
       x2="48"
       y1="20.220806"
       x1="48"
       gradientUnits="userSpaceOnUse"
       id="linearGradient3434-2"
       xlink:href="#linearGradient3737-8"
       inkscape:collect="always" />
    <linearGradient
       x1="48"
       y1="90"
       x2="48"
       y2="5.9877172"
       id="linearGradient3617"
       xlink:href="#linearGradient3778"
       gradientUnits="userSpaceOnUse" />
    <linearGradient
       id="linearGradient3778">
      <stop
         id="stop3780"
         style="stop-color:#911935;stop-opacity:1"
         offset="0" />
      <stop
         id="stop3782"
         style="stop-color:#dd6876;stop-opacity:1"
         offset="1" />
    </linearGradient>
    <linearGradient
       x1="48"
       y1="20.220806"
       x2="48"
       y2="138.66119"
       id="linearGradient3613-3"
       xlink:href="#linearGradient3737-0"
       gradientUnits="userSpaceOnUse" />
    <linearGradient
       id="linearGradient3737-0">
      <stop
         id="stop3739-5"
         style="stop-color:#ffffff;stop-opacity:1"
         offset="0" />
      <stop
         id="stop3741-4"
         style="stop-color:#ffffff;stop-opacity:0"
         offset="1" />
    </linearGradient>
    <clipPath
       id="clipPath3613-9">
      <rect
         width="84"
         height="84"
         rx="6"
         ry="6"
         x="6"
         y="6"
         id="rect3615-3"
         style="fill:#ffffff;fill-opacity:1;fill-rule:nonzero;stroke:none" />
    </clipPath>
    <filter
       x="-0.192"
       y="-0.192"
       width="1.3839999"
       height="1.3839999"
       color-interpolation-filters="sRGB"
       id="filter3794-5">
      <feGaussianBlur
         id="feGaussianBlur3796-2"
         stdDeviation="5.28" />
    </filter>
    <clipPath
       clipPathUnits="userSpaceOnUse"
       id="clipPath3094">
      <rect
         x="7.7500005"
         y="7.75"
         width="80.5"
         height="80.5"
         style="opacity:0.6;fill:#000000;fill-opacity:1"
         id="rect3096"
         rx="21.875"
         ry="21.875" />
    </clipPath>
  </defs>
  <sodipodi:namedview
     id="base"
     pagecolor="#ffffff"
     bordercolor="#666666"
     borderopacity="1.0"
     inkscape:pageopacity="0.0"
     inkscape:pageshadow="2"
     inkscape:zoom="3.959798"
     inkscape:cx="29.118614"
     inkscape:cy="49.863109"
     inkscape:document-units="px"
     inkscape:current-layer="layer1"
     showgrid="false"
     inkscape:window-width="1366"
     inkscape:window-height="684"
     inkscape:window-x="0"
     inkscape:window-y="26"
     inkscape:window-maximized="1"
     showguides="true"
     inkscape:guide-bbox="true">
    <sodipodi:guide
       orientation="0,1"
       position="-24.748737,0"
       id="guide11064" />
    <sodipodi:guide
       orientation="0,1"
       position="-23.233509,96"
       id="guide11066" />
    <sodipodi:guide
       orientation="1,0"
       position="0,54.800776"
       id="guide11068" />
    <sodipodi:guide
       orientation="1,0"
       position="96,51.012704"
       id="guide11070" />
    <sodipodi:guide
       orientation="0,1"
       position="-18.94036,48"
       id="guide11072" />
    <sodipodi:guide
       orientation="1,0"
       position="48,79.296975"
       id="guide11074" />
    <sodipodi:guide
       orientation="1,0"
       position="2,75.508903"
       id="guide11076" />
    <sodipodi:guide
       orientation="0,1"
       position="-77.27667,2"
       id="guide11078" />
    <sodipodi:guide
       orientation="1,0"
       position="94,77.781746"
       id="guide11080" />
    <sodipodi:guide
       orientation="0,1"
       position="-65.912454,94"
       id="guide11082" />
  </sodipodi:namedview>
  <metadata
     id="metadata11042">
    <rdf:RDF>
      <cc:Work
         rdf:about="">
        <dc:format>image/svg+xml</dc:format>
        <dc:type
           rdf:resource="http://purl.org/dc/dcmitype/StillImage" />
        <dc:title />
      </cc:Work>
    </rdf:RDF>
  </metadata>
  <g
     inkscape:label="Layer 1"
     inkscape:groupmode="layer"
     id="layer1"
     transform="translate(0,-956.36218)">
    <g
       transform="matrix(1.1428571,0,0,1.1428571,-6.8571429,949.50504)"
       id="g3436"
       clip-path="url(#clipPath3094)">
      <g
         id="layer1-6">
        <rect
           style="fill:url(#linearGradient3617);fill-opacity:1;fill-rule:nonzero;stroke:none"
           id="rect2419"
           y="6"
           x="6"
           ry="6"
           rx="6"
           height="84"
           width="84" />
      </g>
      <g
         id="layer5-4">
        <rect
           style="opacity:0.1;fill:url(#linearGradient3613-3);fill-opacity:1;fill-rule:nonzero;stroke:#ffffff;stroke-width:0.5;stroke-linecap:round;stroke-linejoin:miter;stroke-miterlimit:4;stroke-opacity:1;stroke-dasharray:none;stroke-dashoffset:0;filter:url(#filter3794-5)"
           id="rect3171-6"
           clip-path="url(#clipPath3613-9)"
           y="15"
           x="15"
           ry="12"
           rx="12"
           height="66"
           width="66" />
      </g>
    </g>
    <g
       transform="translate(0,956.36218)"
       id="layer5">
      <rect
         width="66"
         height="66"
         rx="12"
         ry="12"
         x="15"
         y="15"
         clip-path="url(#clipPath3613)"
         id="rect3171"
         style="opacity:0.1;fill:url(#linearGradient3434);fill-opacity:1;fill-rule:nonzero;stroke:#ffffff;stroke-width:0.5;stroke-linecap:round;stroke-linejoin:miter;stroke-miterlimit:4;stroke-opacity:1;stroke-dasharray:none;stroke-dashoffset:0;filter:url(#filter3794)" />
    </g>
    <g
       id="g4047"
       transform="matrix(1.2663801,0,0,1.2663801,4.2383322,944.39864)">
      <path
         style="fill:#c7d6f3"
         d="m 33.72973,71.279277 -12,0 0,-4.5 0,-4.5 3.5,0 3.5,0 0,-1.940983 0,-1.940983 -0.895215,-0.553273 -0.895215,-0.553274 -0.597722,1.557639 -0.597722,1.557638 -1.007063,-0.622399 -1.007063,-0.622399 0,0.961192 0,0.961192 -3.114869,1.085849 -3.114869,1.085849 -0.816033,-0.504336 -0.816032,-0.504336 -0.628116,1.016312 -0.628115,1.016312 -2.498481,0 -2.498481,0 0.307498,-4.25 0.307498,-4.25 3.25,0.0097 3.25,0.0097 0,-0.661841 c 0,-0.364013 1.2375,-1.169818 2.75,-1.790677 1.5125,-0.62086 3.660117,-1.677381 4.772481,-2.347826 l 2.022481,-1.219056 -0.332876,-1.682868 -0.332877,-1.682867 1.560395,-3.017473 1.560396,-3.017472 0,-4.04966 0,-4.04966 -3.5,0 -3.5,0 0,-4.5 0,-4.5 12,0 12,0 0,4.5 0,4.5 -3.5,0 -3.5,0 0,1.940983 0,1.940983 0.895215,0.553273 0.895215,0.553274 0.597722,-1.557639 0.597722,-1.557638 1.007063,0.622399 1.007063,0.622399 0,-0.961192 0,-0.961192 3.114869,-1.085849 3.114869,-1.085849 0.816033,0.504336 0.816032,0.504336 0.628116,-1.016312 0.628115,-1.016312 2.498481,0 2.498481,0 -0.307498,4.25 -0.307498,4.25 -3.25,-0.0097 -3.25,-0.0097 0,0.692279 c 0,0.380753 -1.0125,1.000829 -2.25,1.377947 -1.2375,0.377117 -3.02074,1.362018 -3.962755,2.188669 l -1.712755,1.503 -1.522612,-0.584281 -1.522612,-0.584281 1.194538,1.912759 1.194537,1.912759 -1.70917,3.584168 -1.709171,3.584235 0,3.966073 0,3.966073 3.5,0 3.5,0 0,4.5 0,4.5 -12,0 z m -4.395833,-15.270833 0.604166,-0.604167 -0.525219,-1.3125 -0.525219,-1.3125 -0.07895,1.916667 -0.07895,1.916666 0.604167,-0.604166 z m 4.395833,-0.729167 1.333333,0 -0.666666,-0.666667 -0.666667,-0.666666 -0.666667,0.666666 -0.666666,0.666667 1.333333,0 z m 4.604167,-14.270833 0.604166,-0.604167 -0.525219,-1.3125 -0.525219,-1.3125 -0.07895,1.916667 -0.07895,1.916666 0.604167,-0.604166 z m -4.604167,-0.729167 1.333333,0 -0.666666,-0.666667 -0.666667,-0.666666 -0.666667,0.666666 -0.666666,0.666667 1.333333,0 z"
         id="path4029"
         inkscape:connector-curvature="0" />
      <path
         style="fill:#b8cbf0"
         d="m 33.72973,71.279277 -11,0 0,-4.5 0,-4.5 3.5,0 3.5,0 0,-2.5 0,-2.5 -1.393011,0 -1.393011,0 -0.599926,1.563382 -0.599926,1.563382 -1.007063,-0.622399 -1.007063,-0.622399 0,0.991629 0,0.99163 -2.25,0.723615 c -1.2375,0.397989 -3.15,0.872219 -4.25,1.053845 -1.1,0.181626 -3.2375,0.613784 -4.75,0.960349 l -2.75,0.63012 0,-4.116577 0,-4.116577 1.75,-0.17105 c 0.9625,-0.09408 2.425,-0.226168 3.25,-0.293535 0.825,-0.06737 3.7875,-1.412062 6.583333,-2.988213 l 5.083334,-2.865729 0,-2.827831 0,-2.827831 1.666666,-1.841646 1.666667,-1.841646 0,-4.17126 0,-4.171259 -3.5,0 -3.5,0 0,-4.5 0,-4.5 11,0 11,0 0,4.5 0,4.5 -3.5,0 -3.5,0 0,2.5 0,2.5 1.393011,0 1.393011,0 0.599926,-1.563382 0.599926,-1.563382 1.007063,0.622399 1.007063,0.622399 0,-0.991629 0,-0.99163 2.25,-0.723615 c 1.2375,-0.397989 3.15,-0.872219 4.25,-1.053845 1.1,-0.181626 3.2375,-0.613784 4.75,-0.96035 l 2.75,-0.630119 0,4.116577 0,4.116577 -1.75,0.17105 c -0.9625,0.09408 -2.445803,0.22258 -3.29623,0.285561 -0.850426,0.06298 -3.669229,1.358671 -6.264005,2.879311 L 41.70172,44.38 l -1.085763,-0.671039 -1.085763,-0.671038 1.09991,2.055202 1.099911,2.055202 -0.938459,2.468336 c -0.516153,1.357584 -1.416217,2.763606 -2.000143,3.124492 l -1.061683,0.656156 0,4.440983 0,4.440983 3.5,0 3.5,0 0,4.5 0,4.5 -11,0 z m -4.395833,-15.270833 0.604166,-0.604167 -0.525219,-1.3125 -0.525219,-1.3125 -0.07895,1.916667 -0.07895,1.916666 0.604167,-0.604166 z m 4.395833,-0.729167 1.333333,0 -0.666666,-0.666667 -0.666667,-0.666666 -0.666667,0.666666 -0.666666,0.666667 1.333333,0 z m 4.604167,-14.270833 0.604166,-0.604167 -0.525219,-1.3125 -0.525219,-1.3125 -0.07895,1.916667 -0.07895,1.916666 0.604167,-0.604166 z m -4.604167,-0.729167 1.333333,0 -0.666666,-0.666667 -0.666667,-0.666666 -0.666667,0.666666 -0.666666,0.666667 1.333333,0 z"
         id="path4027"
         inkscape:connector-curvature="0" />
      <path
         style="fill:#a3bbec"
         d="m 33.72973,71.279277 -11,0 0,-4 0,-4 3.5,0 3.5,0 0,-3 0,-3 -1.393011,0 -1.393011,0 -0.599926,1.563382 -0.599926,1.563382 -1.007063,-0.622399 -1.007063,-0.622399 0,0.991629 0,0.99163 -2.25,0.723615 c -1.2375,0.397989 -3.15,0.872219 -4.25,1.053845 -1.1,0.181626 -3.2375,0.613784 -4.75,0.960349 l -2.75,0.63012 0,-4.116577 0,-4.116577 1.75,-0.17105 c 0.9625,-0.09408 2.425,-0.226168 3.25,-0.293535 0.825,-0.06737 3.7875,-1.412062 6.583333,-2.988213 l 5.083334,-2.865729 0,-2.827831 0,-2.827831 1.666666,-1.841646 1.666667,-1.841646 0,-4.67126 0,-4.671259 -3.5,0 -3.5,0 0,-4 0,-4 11,0 11,0 0,4 0,4 -3.5,0 -3.5,0 0,3 0,3 1.393011,0 1.393011,0 0.599926,-1.563382 0.599926,-1.563382 1.007063,0.622399 1.007063,0.622399 0,-0.991629 0,-0.99163 2.25,-0.723615 c 1.2375,-0.397989 3.15,-0.872219 4.25,-1.053845 1.1,-0.181626 3.2375,-0.613784 4.75,-0.96035 l 2.75,-0.630119 0,4.116577 0,4.116577 -1.75,0.17105 c -0.9625,0.09408 -2.445803,0.22258 -3.29623,0.285561 -0.850426,0.06298 -3.669229,1.358671 -6.264005,2.879311 L 41.70172,44.38 l -1.085763,-0.671039 -1.085763,-0.671038 1.09991,2.055202 1.099911,2.055202 -0.938459,2.468336 c -0.516153,1.357584 -1.416217,2.763606 -2.000143,3.124492 l -1.061683,0.656156 0,4.940983 0,4.940983 3.5,0 3.5,0 0,4 0,4 -11,0 z m -4.395833,-15.270833 0.604166,-0.604167 -0.525219,-1.3125 -0.525219,-1.3125 -0.07895,1.916667 -0.07895,1.916666 0.604167,-0.604166 z m 4.395833,-0.729167 1.333333,0 -0.666666,-0.666667 -0.666667,-0.666666 -0.666667,0.666666 -0.666666,0.666667 1.333333,0 z m 4.604167,-14.270833 0.604166,-0.604167 -0.525219,-1.3125 -0.525219,-1.3125 -0.07895,1.916667 -0.07895,1.916666 0.604167,-0.604166 z m -4.604167,-0.729167 1.333333,0 -0.666666,-0.666667 -0.666667,-0.666666 -0.666667,0.666666 -0.666666,0.666667 1.333333,0 z"
         id="path4025"
         inkscape:connector-curvature="0" />
      <path
         style="fill:#ed9a9a"
         d="M 33.961845,70.064458 23.69396,70.349638 23.127272,68.872871 C 22.815593,68.060649 22.714884,66.582318 22.903473,65.58769 l 0.34289,-1.808413 3.741684,-0.310365 3.741683,-0.310366 0,-4.380617 0,-4.380618 -1,-0.618034 -1,-0.618034 0,1.60083 0,1.600831 -2,2.146748 c -1.1,1.180711 -2,1.804752 -2,1.386758 l 0,-0.75999 -1.571429,1.571428 c -0.864285,0.864286 -2.101785,1.628859 -2.75,1.699052 -0.648214,0.07019 -2.078571,0.281318 -3.178571,0.469167 -1.1,0.187849 -3.2375,0.632878 -4.75,0.988954 l -2.75,0.64741 0,-4.116577 0,-4.116577 1.75,-0.17105 c 0.9625,-0.09408 2.425,-0.226168 3.25,-0.293535 0.825,-0.06737 3.7875,-1.412062 6.583333,-2.988213 l 5.083334,-2.865729 0,-2.848877 0,-2.848876 2.166666,-2.306311 2.166667,-2.306311 0,-4.125184 0,-4.125183 -3.75,-0.310366 -3.75,-0.310365 0,-3 0,-3 10.5,0 10.5,0 0,3 0,3 -3.75,0.310365 -3.75,0.310366 0,4.380617 0,4.380618 1,0.618034 1,0.618034 0,-1.60083 0,-1.600831 2,-2.146748 c 1.1,-1.180711 2,-1.804752 2,-1.386758 l 0,0.75999 1.571429,-1.571428 c 0.864285,-0.864286 2.101785,-1.628859 2.75,-1.699052 0.648214,-0.07019 2.078571,-0.281318 3.178571,-0.469167 1.1,-0.187849 3.2375,-0.632878 4.75,-0.988954 l 2.75,-0.64741 0,4.116577 0,4.116577 -1.75,0.17105 c -0.9625,0.09408 -2.445803,0.22258 -3.29623,0.285561 -0.850426,0.06298 -3.669229,1.358671 -6.264005,2.879311 L 41.70172,44.38 l -1.085763,-0.671039 -1.085763,-0.671038 1.09991,2.055202 1.099911,2.055202 -0.895967,2.356572 c -0.492782,1.296115 -1.617846,2.955679 -2.500142,3.68792 l -1.604176,1.331347 0,4.31719 0,4.31719 3.75,0.310366 3.75,0.310365 0,3 0,3 -10.267885,0.285181 z m -0.232115,-14.785181 1.333333,0 -0.666666,-0.666667 -0.666667,-0.666666 -0.666667,0.666666 -0.666666,0.666667 1.333333,0 z m 0,-15 1.333333,0 -0.666666,-0.666667 -0.666667,-0.666666 -0.666667,0.666666 -0.666666,0.666667 1.333333,0 z"
         id="path4023"
         inkscape:connector-curvature="0" />
      <path
         style="fill:#8eaae5"
         d="M 33.961845,70.064458 23.69396,70.349638 23.127272,68.872871 C 22.815593,68.060649 22.714884,66.582318 22.903473,65.58769 l 0.34289,-1.808413 3.741684,-0.310365 3.741683,-0.310366 0,-4.380617 0,-4.380618 -1,-0.618034 -1,-0.618034 0,1.60083 0,1.600831 -2,2.146748 c -1.1,1.180711 -2,1.804752 -2,1.386758 l 0,-0.75999 -1.571429,1.571428 c -0.864285,0.864286 -2.101785,1.628859 -2.75,1.699052 -0.648214,0.07019 -2.078571,0.281318 -3.178571,0.469167 -1.1,0.187849 -3.2375,0.632878 -4.75,0.988954 l -2.75,0.64741 0,-4.116577 0,-4.116577 1.75,-0.17105 c 0.9625,-0.09408 2.425,-0.226168 3.25,-0.293535 0.825,-0.06737 3.862042,-1.452893 6.748983,-3.078949 l 5.248984,-2.956466 0.001,-3.095012 0.001,-3.095013 2,-1.809975 2,-1.809975 0,-4.284647 0,-4.284647 -3.75,-0.310366 -3.75,-0.310365 0,-3 0,-3 10.5,0 10.5,0 0,3 0,3 -3.75,0.310365 -3.75,0.310366 0,4.380617 0,4.380618 1,0.618034 1,0.618034 0,-1.60083 0,-1.600831 2,-2.146748 c 1.1,-1.180711 2,-1.804752 2,-1.386758 l 0,0.75999 1.571429,-1.571428 c 0.864285,-0.864286 2.101785,-1.628859 2.75,-1.699052 0.648214,-0.07019 2.078571,-0.281318 3.178571,-0.469167 1.1,-0.187849 3.2375,-0.632878 4.75,-0.988954 l 2.75,-0.64741 0,4.116577 0,4.116577 -1.75,0.17105 c -0.9625,0.09408 -2.445803,0.22258 -3.29623,0.285561 -0.850426,0.06298 -3.669229,1.358671 -6.264005,2.879311 L 41.701687,44.38 l -0.805051,-0.497549 -0.805051,-0.497549 0.444905,3.031331 0.444905,3.03133 -2.125849,2.875364 -2.125849,2.875365 0,3.980127 0,3.980127 3.75,0.310366 3.75,0.310365 0,3 0,3 -10.267885,0.285181 z m -0.232115,-14.785181 1.333333,0 -0.666666,-0.666667 -0.666667,-0.666666 -0.666667,0.666666 -0.666666,0.666667 1.333333,0 z m 2.908039,-6.217327 1.591961,-0.303104 0.320137,-2.244255 0.320137,-2.244256 -1.647679,-0.632273 -1.647678,-0.632274 -1.586556,1.586556 -1.586556,1.586556 1.322137,1.593077 1.322136,1.593077 1.591961,-0.303104 z m -2.908039,-8.782673 1.333333,0 -0.666666,-0.666667 -0.666667,-0.666666 -0.666667,0.666666 -0.666666,0.666667 1.333333,0 z"
         id="path4021"
         inkscape:connector-curvature="0" />
      <path
         style="fill:#a7a7a7"
         d="m 33.72973,70.279277 -10,0 0,-3 0,-3 3.5,0 3.5,0 0,-4.940983 0,-4.940983 -1,-0.618034 -1,-0.618034 0,1.60083 0,1.600831 -2,2.146748 c -1.1,1.180711 -2,1.804752 -2,1.386758 l 0,-0.75999 -1.571429,1.571428 c -0.864285,0.864286 -2.101785,1.628859 -2.75,1.699052 -0.648214,0.07019 -2.078571,0.281318 -3.178571,0.469167 -1.1,0.187849 -3.2375,0.632878 -4.75,0.988954 l -2.75,0.64741 0,-4.116577 0,-4.116577 1.75,-0.17105 c 0.9625,-0.09408 2.425,-0.226168 3.25,-0.293535 0.825,-0.06737 3.862042,-1.452893 6.748983,-3.078949 l 5.248984,-2.956466 0.001,-3.095012 0.001,-3.095013 2,-1.809975 2,-1.809975 0,-4.845013 0,-4.845012 -3.5,0 -3.5,0 0,-3 0,-3 10,0 10,0 0,3 0,3 -3.5,0 -3.5,0 0,4.940983 0,4.940983 1,0.618034 1,0.618034 0,-1.60083 0,-1.600831 2,-2.146748 c 1.1,-1.180711 2,-1.804752 2,-1.386758 l 0,0.75999 1.571429,-1.571428 c 0.864285,-0.864286 2.101785,-1.628859 2.75,-1.699052 0.648214,-0.07019 2.078571,-0.281318 3.178571,-0.469167 1.1,-0.187849 3.2375,-0.632878 4.75,-0.988954 l 2.75,-0.64741 0,4.116577 0,4.116577 -1.75,0.17105 c -0.9625,0.09408 -2.445803,0.22258 -3.29623,0.285561 -0.850426,0.06298 -3.669229,1.358671 -6.264005,2.879311 L 41.701687,44.38 l -0.805051,-0.497549 -0.805051,-0.497549 0.444905,3.031331 0.444905,3.03133 -2.125849,2.875364 -2.125849,2.875365 0,4.540492 0,4.540493 3.5,0 3.5,0 0,3 0,3 -10,0 z m 0,-15 1.333333,0 -0.666666,-0.666667 -0.666667,-0.666666 -0.666667,0.666666 -0.666666,0.666667 1.333333,0 z m 2.908039,-6.217327 1.591961,-0.303104 0.320137,-2.244255 0.320137,-2.244256 -1.647679,-0.632273 -1.647678,-0.632274 -1.586556,1.586556 -1.586556,1.586556 1.322137,1.593077 1.322136,1.593077 1.591961,-0.303104 z m -2.908039,-8.782673 1.333333,0 -0.666666,-0.666667 -0.666667,-0.666666 -0.666667,0.666666 -0.666666,0.666667 1.333333,0 z"
         id="path4019"
         inkscape:connector-curvature="0" />
      <path
         style="fill:#658bd6"
         d="m 33.72973,70.279277 -10,0 0,-3 0,-3 3.5,0 3.5,0 0,-4.940983 0,-4.940983 -1,-0.618034 -1,-0.618034 0,1.630446 0,1.630445 -1.268314,1.178572 c -0.697573,0.648214 -2.740424,2.002057 -4.539669,3.00854 l -3.271354,1.829969 -4.960332,0.533257 -4.960331,0.533257 0,-3.613226 0,-3.613226 2.5,-0.125 c 1.375,-0.06875 2.8375,-0.191347 3.25,-0.272437 0.4125,-0.08109 3.1125,-1.446359 6,-3.033929 l 5.25,-2.886492 0,-3.186083 0,-3.186084 2,-1.809975 2,-1.809975 0,-4.845013 0,-4.845012 -3.5,0 -3.5,0 0,-3 0,-3 10,0 10,0 0,3 0,3 -3.5,0 -3.5,0 0,5.5 0,5.5 1,0 1,0 0,-1.571429 c 0,-0.864285 0.570741,-2.101785 1.268314,-2.75 0.697573,-0.648214 2.740424,-2.002057 4.539669,-3.00854 l 3.271354,-1.829969 4.960332,-0.533257 4.960331,-0.533257 0,3.613226 0,3.613226 -2.5,0 c -1.375,0 -2.6125,-0.05466 -2.75,-0.121458 -0.1375,-0.0668 -2.64416,1.290189 -5.570355,3.015535 l -5.320354,3.136994 -0.748701,-0.462723 -0.748702,-0.462723 0.444905,3.031331 0.444905,3.03133 -2.125849,2.875364 -2.125849,2.875365 0,4.540492 0,4.540493 3.5,0 3.5,0 0,3 0,3 -10,0 z m 0,-15 1.333333,0 -0.666666,-0.666667 -0.666667,-0.666666 -0.666667,0.666666 -0.666666,0.666667 1.333333,0 z m 2.908039,-6.217327 1.591961,-0.303104 0.320137,-2.244255 0.320137,-2.244256 -1.647679,-0.632273 -1.647678,-0.632274 -1.586556,1.586556 -1.586556,1.586556 1.322137,1.593077 1.322136,1.593077 1.591961,-0.303104 z m -2.908039,-8.782673 1.333333,0 -0.666666,-0.666667 -0.666667,-0.666666 -0.666667,0.666666 -0.666666,0.666667 1.333333,0 z"
         id="path4017"
         inkscape:connector-curvature="0" />
      <path
         style="fill:#dd5e5e"
         d="m 33.72973,69.279277 -10,0 0,-2.5 0,-2.5 3.5,0 3.5,0 0,-4.940983 0,-4.940983 -1,-0.618034 -1,-0.618034 0,1.630446 0,1.630445 -1.268314,1.178572 c -0.697573,0.648214 -2.740424,2.002057 -4.539669,3.00854 l -3.271354,1.829969 -4.960332,0.533257 -4.960331,0.533257 0,-3.613226 0,-3.613226 2.5,-0.125 c 1.375,-0.06875 2.8375,-0.191347 3.25,-0.272437 0.4125,-0.08109 3.1125,-1.446359 6,-3.033929 l 5.25,-2.886492 0,-3.186083 0,-3.186084 2,-1.809975 2,-1.809975 0,-4.845013 0,-4.845012 -3.5,0 -3.5,0 0,-2.5 0,-2.5 10,0 10,0 0,2.5 0,2.5 -3.5,0 -3.5,0 0,5.5 0,5.5 1,0 1,0 0,-1.571429 c 0,-0.864285 0.570741,-2.101785 1.268314,-2.75 0.697573,-0.648214 2.740424,-2.002057 4.539669,-3.00854 l 3.271354,-1.829969 4.960332,-0.533257 4.960331,-0.533257 0,3.613226 0,3.613226 -2.5,0 c -1.375,0 -2.8375,0.07801 -3.25,0.173352 -0.4125,0.09534 -2.91916,1.452335 -5.570355,3.015536 l -4.820354,2.842183 -0.748701,-0.462723 -0.748702,-0.462723 0.444905,3.031331 0.444905,3.03133 -2.125849,2.875364 -2.125849,2.875365 0,4.540492 0,4.540493 3.5,0 3.5,0 0,2.5 0,2.5 -10,0 z m 0,-14 1.333333,0 -0.666666,-0.666667 -0.666667,-0.666666 -0.666667,0.666666 -0.666666,0.666667 1.333333,0 z m 2.908039,-6.217327 1.591961,-0.303104 0.320137,-2.244255 0.320137,-2.244256 -1.647679,-0.632273 -1.647678,-0.632274 -1.586556,1.586556 -1.586556,1.586556 1.322137,1.593077 1.322136,1.593077 1.591961,-0.303104 z m -2.908039,-8.782673 1.333333,0 -0.666666,-0.666667 -0.666667,-0.666666 -0.666667,0.666666 -0.666666,0.666667 1.333333,0 z"
         id="path4015"
         inkscape:connector-curvature="0" />
      <path
         style="fill:#3564c4"
         d="m 33.72973,69.279277 -10,0 0,-2.5 0,-2.5 3.5,0 3.5,0 0,-5.5 0,-5.5 -1,0 -1,0 0,1.571429 c 0,0.864285 -0.570741,2.101785 -1.268314,2.75 -0.697573,0.648214 -2.740424,2.002057 -4.539669,3.00854 l -3.271354,1.829969 -4.960332,0.533257 -4.960331,0.533257 0,-3.613226 0,-3.613226 2.5,-0.125 c 1.375,-0.06875 2.8375,-0.191347 3.25,-0.272437 0.4125,-0.08109 3.1125,-1.446359 6,-3.033929 l 5.25,-2.886492 0,-2.841071 0,-2.841071 2,-2 2,-2 0,-5 0,-5 -3.5,0 -3.5,0 0,-2.5 0,-2.5 10,0 10,0 0,2.5 0,2.5 -3.5,0 -3.5,0 0,5.024751 0,5.024751 -2.414431,0.917965 -2.414431,0.917965 -0.652957,2.057284 -0.652956,2.057284 0.634037,1.997676 0.634038,1.997676 2.431114,0.610171 2.431114,0.610171 1.451308,-0.55692 1.451309,-0.556919 -0.556061,1.449073 c -0.305834,0.796989 -0.957917,1.449072 -1.449073,1.449072 l -0.893011,0 0,5.5 0,5.5 3.5,0 3.5,0 0,2.5 0,2.5 -10,0 z m 0,-14 1.333333,0 -0.666666,-0.666667 -0.666667,-0.666666 -0.666667,0.666666 -0.666666,0.666667 1.333333,0 z m 0,-15 1.333333,0 -0.666666,-0.666667 -0.666667,-0.666666 -0.666667,0.666666 -0.666666,0.666667 1.333333,0 z m 7.655994,4 c -0.140797,0 -0.795994,-0.54 -1.455994,-1.2 l -1.2,-1.2 0,-1.871429 0,-1.871428 1.268314,-1.178572 c 0.697573,-0.648214 2.740424,-2.002057 4.539669,-3.00854 l 3.271354,-1.829969 4.960332,-0.533257 4.960331,-0.533257 0,3.613226 0,3.613226 -2.5,0 c -1.375,0 -2.8375,0.07801 -3.25,0.173352 -0.4125,0.09534 -2.907303,1.445344 -5.544006,3 -2.636704,1.554657 -4.909204,2.826648 -5.05,2.826648 z"
         id="path4013"
         inkscape:connector-curvature="0" />
      <path
         style="fill:#2659bf"
         d="m 33.72973,69.279277 -10,0 0,-2.5 0,-2.5 4.05226,0 4.052259,0 -0.302259,-5.171397 -0.30226,-5.171398 -1.25,-0.411936 -1.25,-0.411936 0,1.654762 0,1.654762 -1.268314,1.178572 c -0.697573,0.648214 -2.740424,2.002057 -4.539669,3.00854 l -3.271354,1.829969 -4.960332,0.533257 -4.960331,0.533257 0,-3.613226 0,-3.613226 2.5,-0.125 c 1.375,-0.06875 2.8375,-0.191347 3.25,-0.272437 0.4125,-0.08109 3.1125,-1.446359 6,-3.033929 l 5.25,-2.886492 0,-2.88882 0,-2.88882 2.5,-2.316922 2.5,-2.316921 0,-4.63533 0,-4.635329 -4,0 -4,0 0,-2.5 0,-2.5 10,0 10,0 0,2.5 0,2.5 -4,0 -4,0 0,4.5 0,4.5 -1.75,0.07028 -1.75,0.07029 2,0.859429 2,0.859429 -1.714816,0.07029 -1.714816,0.07028 -1.120215,2.093141 -1.120215,2.093141 0.60026,2.391629 0.600261,2.39163 2.482535,0.623076 2.482534,0.623077 1.451308,-0.55692 1.451309,-0.556919 -0.526391,1.371754 c -0.289516,0.754464 -1.166598,1.617424 -1.949073,1.917687 l -1.422681,0.545934 0,5.031385 0,5.031385 4,0 4,0 0,2.5 0,2.5 -10,0 z m 0,-14 1.333333,0 -0.666666,-0.666667 -0.666667,-0.666666 -0.666667,0.666666 -0.666666,0.666667 1.333333,0 z m 7.655994,-11 c -0.140797,0 -0.795994,-0.54 -1.455994,-1.2 l -1.2,-1.2 0,-1.871429 0,-1.871428 1.268314,-1.178572 c 0.697573,-0.648214 2.740424,-2.002057 4.539669,-3.00854 l 3.271354,-1.829969 4.960332,-0.533257 4.960331,-0.533257 0,3.613226 0,3.613226 -2.5,0 c -1.375,0 -2.8375,0.07801 -3.25,0.173352 -0.4125,0.09534 -2.907303,1.445344 -5.544006,3 -2.636704,1.554657 -4.909204,2.826648 -5.05,2.826648 z"
         id="path4011"
         inkscape:connector-curvature="0" />
      <path
         style="fill:#616163"
         d="m 14.690061,62.972472 -4.960331,0.533257 0,-3.613226 0,-3.613226 2.5,-0.125 c 1.375,-0.06875 2.8375,-0.191347 3.25,-0.272437 0.4125,-0.08109 3.1125,-1.446359 6,-3.033929 l 5.25,-2.886492 0,-2.841071 0,-2.841071 2,-2 2,-2 2.75,0.06339 2.75,0.06339 -2.16206,0.871858 -2.16206,0.871858 -0.655327,2.064756 -0.655328,2.064748 0.634037,1.997676 0.634038,1.997676 2.431114,0.610171 2.431114,0.610171 1.451308,-0.55692 1.451309,-0.556919 -0.559374,1.457704 -0.559373,1.457705 -2.389699,0.599776 -2.389699,0.599776 -2.5,-0.62746 -2.5,-0.62746 0,1.590481 c 0,0.874764 -0.570741,2.120837 -1.268314,2.769052 -0.697573,0.648214 -2.740424,2.002057 -4.539669,3.00854 l -3.271354,1.829969 -4.960332,0.533257 z M 41.385724,44.279277 c -0.140797,0 -0.795994,-0.54 -1.455994,-1.2 l -1.2,-1.2 0,-1.871429 0,-1.871428 1.268314,-1.178572 c 0.697573,-0.648214 2.740424,-2.002057 4.539669,-3.00854 l 3.271354,-1.829969 4.960332,-0.533257 4.960331,-0.533257 0,3.613226 0,3.613226 -2.5,0 c -1.375,0 -2.8375,0.07801 -3.25,0.173352 -0.4125,0.09534 -2.907303,1.445344 -5.544006,3 -2.636704,1.554657 -4.909204,2.826648 -5.05,2.826648 z"
         id="path4009"
         inkscape:connector-curvature="0" />
      <path
         style="fill:#c91515"
         d="m 11.97973,63.2737 -2.25,0.0056 0,-3.5 0,-3.5 3.039838,0 3.039838,0 3.710162,-1.977477 c 2.040589,-1.087612 4.497662,-2.599721 5.460162,-3.360242 l 1.75,-1.382766 0,-2.639758 0,-2.639757 2,-2 2,-2 2.75,0.06339 2.75,0.06339 -2.16206,0.871858 -2.16206,0.871858 -0.655327,2.064756 -0.655328,2.064748 0.634037,1.997676 0.634038,1.997676 2.431114,0.610171 2.431114,0.610171 1.451308,-0.55692 1.451309,-0.556919 -0.559374,1.457704 -0.559373,1.457705 -2.389699,0.599776 -2.389699,0.599776 -2.5,-0.62746 -2.5,-0.62746 -0.01238,1.769052 -0.01238,1.769052 -3.339501,2.162098 c -1.836726,1.189154 -5.093656,2.649144 -7.237622,3.244423 -2.143966,0.595279 -4.91062,1.084835 -6.14812,1.087902 z M 41.870713,44.279277 c -0.407541,0 -1.280983,-0.54 -1.940983,-1.2 l -1.2,-1.2 0.01238,-2.05 0.01238,-2.05 3.339501,-2.162098 c 1.836723,-1.189154 5.093653,-2.649144 7.237619,-3.244423 2.143966,-0.595279 4.91062,-1.084835 6.14812,-1.087902 l 2.25,-0.0056 0,3.5 0,3.5 -3.039838,0 -3.039838,0 -3.892313,1.98571 c -2.140773,1.092141 -4.174403,2.442141 -4.519179,3 -0.344776,0.55786 -0.960308,1.01429 -1.367849,1.01429 z"
         id="path4007"
         inkscape:connector-curvature="0" />
      <path
         style="fill:#020202"
         d="m 11.97973,63.2737 -2.25,0.0056 0,-3.5 0,-3.5 3.039838,0 3.039838,0 3.710162,-2.010473 c 2.040589,-1.105759 4.510472,-2.568259 5.488629,-3.25 l 1.778466,-1.239527 0.956221,1.5 c 0.525921,0.825 0.957541,2.4 0.959155,3.5 l 0.0029,2 -3.339501,2.162098 c -1.836692,1.189154 -5.093622,2.649144 -7.237588,3.244423 -2.143966,0.595279 -4.91062,1.084835 -6.14812,1.087902 z M 41.870713,44.279277 c -0.407541,0 -1.280983,-0.54 -1.940983,-1.2 l -1.2,-1.2 0.01238,-2.05 0.01238,-2.05 3.339501,-2.162098 c 1.836723,-1.189154 5.093653,-2.649144 7.237619,-3.244423 2.143966,-0.595279 4.91062,-1.084835 6.14812,-1.087902 l 2.25,-0.0056 0,3.5 0,3.5 -3.039838,0 -3.039838,0 -3.892313,1.98571 c -2.140773,1.092141 -4.174403,2.442141 -4.519179,3 -0.344776,0.55786 -0.960308,1.01429 -1.367849,1.01429 z"
         id="path4005"
         inkscape:connector-curvature="0" />
    </g>
    <rect
       ry="25"
       rx="25"
       id="rect3003"
       style="opacity:0.15;fill:#ffffff;fill-opacity:1"
       height="92"
       width="92"
       y="958.36218"
       x="-96"
       clip-path="url(#clipPath3009)"
       transform="translate(98,0)" />
  </g>
</svg>
