<?xml version="1.0" encoding="UTF-8" standalone="no"?>
<!-- Created with Inkscape (http://www.inkscape.org/) -->

<svg
   xmlns:dc="http://purl.org/dc/elements/1.1/"
   xmlns:cc="http://creativecommons.org/ns#"
   xmlns:rdf="http://www.w3.org/1999/02/22-rdf-syntax-ns#"
   xmlns:svg="http://www.w3.org/2000/svg"
   xmlns="http://www.w3.org/2000/svg"
   xmlns:xlink="http://www.w3.org/1999/xlink"
   xmlns:sodipodi="http://sodipodi.sourceforge.net/DTD/sodipodi-0.dtd"
   xmlns:inkscape="http://www.inkscape.org/namespaces/inkscape"
   width="96"
   height="96"
   id="svg11037"
   version="1.1"
   inkscape:version="0.48.3.1 r9886"
   sodipodi:docname="screenlets.svg">
  <defs
     id="defs11039">
    <linearGradient
       y2="1046.1001"
       x2="47.999954"
       y1="962.62189"
       x1="47.999954"
       gradientTransform="matrix(1.15,0,0,1.15,-7.1999462,-150.65291)"
       gradientUnits="userSpaceOnUse"
       id="linearGradient3886"
       xlink:href="#linearGradient3795"
       inkscape:collect="always" />
    <linearGradient
       id="linearGradient3795">
      <stop
         style="stop-color:#13a6fd;stop-opacity:1;"
         offset="0"
         id="stop3797" />
      <stop
         style="stop-color:#2975b6;stop-opacity:1;"
         offset="1"
         id="stop3799" />
    </linearGradient>
    <linearGradient
       y2="1046.1001"
       x2="47.999954"
       y1="962.62189"
       x1="47.999954"
       gradientTransform="matrix(1.15,0,0,1.15,-7.1999462,-150.65292)"
       gradientUnits="userSpaceOnUse"
       id="linearGradient11642"
       xlink:href="#linearGradient3795"
       inkscape:collect="always" />
    <clipPath
       clipPathUnits="userSpaceOnUse"
       id="clipPath3009">
      <path
         id="path3011"
         d="m -2,956.36218 -96,0 0,33.5624 96,25.68742 0,-59.24982 z"
         style="opacity:0.15;fill:#ffffff;fill-opacity:1;stroke:none"
         inkscape:connector-curvature="0" />
    </clipPath>
    <radialGradient
       inkscape:collect="always"
       xlink:href="#linearGradient3175"
       id="radialGradient3509"
       gradientUnits="userSpaceOnUse"
       gradientTransform="matrix(-0.00226162,-1.2345585,1.3856367,0,70.085959,140.26707)"
       cx="56.065952"
       cy="-15.871236"
       fx="56.065952"
       fy="-15.871236"
       r="35.9375" />
    <linearGradient
       id="linearGradient3175">
      <stop
         id="stop3177"
         style="stop-color:#1863c6;stop-opacity:1;"
         offset="0" />
      <stop
         id="stop3179"
         style="stop-color:#799ee1;stop-opacity:1;"
         offset="1" />
    </linearGradient>
    <radialGradient
       r="35.9375"
       fy="-15.871236"
       fx="56.065952"
       cy="-15.871236"
       cx="56.065952"
       gradientTransform="matrix(-0.00301812,-1.6491094,1.8491222,0,77.515263,1127.6903)"
       gradientUnits="userSpaceOnUse"
       id="radialGradient3503"
       xlink:href="#linearGradient3175"
       inkscape:collect="always" />
    <clipPath
       clipPathUnits="userSpaceOnUse"
       id="clipPath3187">
      <rect
         x="2"
         y="958.36218"
         width="92"
         height="92"
         style="opacity:0.6;fill:#000000;fill-opacity:1"
         id="rect3189"
         rx="25"
         ry="25" />
    </clipPath>
    <linearGradient
       inkscape:collect="always"
       xlink:href="#linearGradient4542"
       id="linearGradient4633"
       gradientUnits="userSpaceOnUse"
       gradientTransform="matrix(4.0448803,0,0,4.0448803,-40.828811,-19.125011)"
       x1="24.486135"
       y1="15.858613"
       x2="26"
       y2="20.410612" />
    <linearGradient
       id="linearGradient4542"
       inkscape:collect="always">
      <stop
         id="stop4544"
         offset="0"
         style="stop-color:#ffffff;stop-opacity:1;" />
      <stop
         id="stop4546"
         offset="1"
         style="stop-color:#ffffff;stop-opacity:0;" />
    </linearGradient>
    <linearGradient
       inkscape:collect="always"
       xlink:href="#linearGradient5561"
       id="linearGradient3347"
       gradientUnits="userSpaceOnUse"
       gradientTransform="matrix(2.5869187,0,0,2.6993933,-9.0437394,2.0896653)"
       x1="15.75"
       y1="11.070312"
       x2="15.75"
       y2="14.625" />
    <linearGradient
       id="linearGradient5561">
      <stop
         style="stop-color:#edd400;stop-opacity:1;"
         offset="0"
         id="stop5563" />
      <stop
         style="stop-color:#edd400;stop-opacity:1;"
         offset="1"
         id="stop5565" />
    </linearGradient>
    <linearGradient
       inkscape:collect="always"
       xlink:href="#linearGradient5561"
       id="linearGradient4655"
       gradientUnits="userSpaceOnUse"
       gradientTransform="matrix(2.5869186,0,0,2.6993933,2.7661019,7.9945882)"
       x1="15.75"
       y1="11.070312"
       x2="15.75"
       y2="14.625" />
    <linearGradient
       id="linearGradient3524">
      <stop
         style="stop-color:#edd400;stop-opacity:1;"
         offset="0"
         id="stop3526" />
      <stop
         style="stop-color:#edd400;stop-opacity:1;"
         offset="1"
         id="stop3528" />
    </linearGradient>
    <linearGradient
       inkscape:collect="always"
       xlink:href="#linearGradient5561"
       id="linearGradient3270"
       gradientUnits="userSpaceOnUse"
       gradientTransform="matrix(2.5869187,0,0,2.6993933,-9.0437394,2.0896653)"
       x1="15.75"
       y1="11.070312"
       x2="15.75"
       y2="14.625" />
    <linearGradient
       inkscape:collect="always"
       xlink:href="#linearGradient5561"
       id="linearGradient3272"
       gradientUnits="userSpaceOnUse"
       gradientTransform="matrix(2.5869186,0,0,2.6993933,2.7661019,7.9945882)"
       x1="15.75"
       y1="11.070312"
       x2="15.75"
       y2="14.625" />
    <linearGradient
       inkscape:collect="always"
       xlink:href="#linearGradient4542"
       id="linearGradient3274"
       gradientUnits="userSpaceOnUse"
       gradientTransform="matrix(4.0448803,0,0,4.0448803,-40.828811,-19.125011)"
       x1="24.486135"
       y1="15.858613"
       x2="26"
       y2="20.410612" />
  </defs>
  <sodipodi:namedview
     id="base"
     pagecolor="#ffffff"
     bordercolor="#666666"
     borderopacity="1.0"
     inkscape:pageopacity="0.0"
     inkscape:pageshadow="2"
     inkscape:zoom="3.959798"
     inkscape:cx="29.118614"
     inkscape:cy="49.863109"
     inkscape:document-units="px"
     inkscape:current-layer="layer1"
     showgrid="false"
     inkscape:window-width="1366"
     inkscape:window-height="684"
     inkscape:window-x="0"
     inkscape:window-y="26"
     inkscape:window-maximized="1"
     showguides="true"
     inkscape:guide-bbox="true">
    <sodipodi:guide
       orientation="0,1"
       position="-24.748737,0"
       id="guide11064" />
    <sodipodi:guide
       orientation="0,1"
       position="-23.233509,96"
       id="guide11066" />
    <sodipodi:guide
       orientation="1,0"
       position="0,54.800776"
       id="guide11068" />
    <sodipodi:guide
       orientation="1,0"
       position="96,51.012704"
       id="guide11070" />
    <sodipodi:guide
       orientation="0,1"
       position="-18.94036,48"
       id="guide11072" />
    <sodipodi:guide
       orientation="1,0"
       position="48,79.296975"
       id="guide11074" />
    <sodipodi:guide
       orientation="1,0"
       position="2,75.508903"
       id="guide11076" />
    <sodipodi:guide
       orientation="0,1"
       position="-77.27667,2"
       id="guide11078" />
    <sodipodi:guide
       orientation="1,0"
       position="94,77.781746"
       id="guide11080" />
    <sodipodi:guide
       orientation="0,1"
       position="-65.912454,94"
       id="guide11082" />
  </sodipodi:namedview>
  <metadata
     id="metadata11042">
    <rdf:RDF>
      <cc:Work
         rdf:about="">
        <dc:format>image/svg+xml</dc:format>
        <dc:type
           rdf:resource="http://purl.org/dc/dcmitype/StillImage" />
        <dc:title />
      </cc:Work>
    </rdf:RDF>
  </metadata>
  <g
     inkscape:label="Layer 1"
     inkscape:groupmode="layer"
     id="layer1"
     transform="translate(0,-956.36218)">
    <path
       d="m 96,1052.3622 0,-96 -96,0 0,96 96,0 z"
       id="blue"
       style="fill:url(#radialGradient3503);fill-opacity:1;fill-rule:nonzero;stroke:none;enable-background:new"
       inkscape:connector-curvature="0"
       clip-path="url(#clipPath3187)" />
    <g
       transform="translate(5.6201934e-8,956.36218)"
       style="enable-background:new"
       id="notes">
      <path
         style="fill:#000000;fill-opacity:0.26279865;fill-rule:evenodd;stroke:none"
         d="m 26.385799,28.872709 13.25796,1.687119 0.323362,14.50924 -13.257957,0.337425 -0.323365,-16.533784 z"
         id="path4637"
         inkscape:connector-curvature="0" />
      <path
         style="fill:url(#linearGradient3270);fill-opacity:1;fill-rule:evenodd;stroke:#c4a000;stroke-width:1.18098462;stroke-linecap:butt;stroke-linejoin:miter;stroke-miterlimit:4;stroke-opacity:1;stroke-dasharray:none"
         d="m 24.909568,27.396478 13.25796,1.687119 0.323363,14.509241 -13.257958,0.337425 -0.323365,-16.533785 z"
         id="path4639"
         inkscape:connector-curvature="0" />
      <path
         sodipodi:type="arc"
         style="color:#000000;fill:#cc0000;fill-opacity:1;fill-rule:evenodd;stroke:none;stroke-width:0.5;marker:none;visibility:visible;display:inline;overflow:visible"
         id="path4641"
         sodipodi:cx="19.754795"
         sodipodi:cy="11.67068"
         sodipodi:rx="0.4861359"
         sodipodi:ry="0.53033006"
         d="m 20.240931,11.67068 c 0,0.292893 -0.21765,0.53033 -0.486136,0.53033 -0.268485,0 -0.486136,-0.237437 -0.486136,-0.53033 0,-0.292893 0.217651,-0.53033 0.486136,-0.53033 0.268486,0 0.486136,0.237437 0.486136,0.53033 z"
         transform="matrix(5.2651872,0,0,5.2651872,-72.271532,-31.27655)" />
      <path
         sodipodi:type="arc"
         style="color:#000000;fill:#ef2929;fill-opacity:1;fill-rule:evenodd;stroke:none;stroke-width:0.5;marker:none;visibility:visible;display:inline;overflow:visible"
         id="path4643"
         sodipodi:cx="19.754795"
         sodipodi:cy="11.67068"
         sodipodi:rx="0.4861359"
         sodipodi:ry="0.53033006"
         d="m 20.240931,11.67068 c 0,0.292893 -0.21765,0.53033 -0.486136,0.53033 -0.268485,0 -0.486136,-0.237437 -0.486136,-0.53033 0,-0.292893 0.217651,-0.53033 0.486136,-0.53033 0.268486,0 0.486136,0.237437 0.486136,0.53033 z"
         transform="matrix(3.9878575,0,0,3.5088587,-46.882908,-11.322343)" />
      <path
         inkscape:connector-curvature="0"
         style="fill:#000000;fill-opacity:0.26279865;fill-rule:evenodd;stroke:none"
         d="M 38.19564,34.777631 51.453601,36.464751 51.776964,50.97399 38.519006,51.311416 38.19564,34.777631 z"
         id="path4645" />
      <path
         inkscape:connector-curvature="0"
         style="fill:url(#linearGradient3272);fill-opacity:1;fill-rule:evenodd;stroke:#c4a000;stroke-width:1.18098462;stroke-linecap:butt;stroke-linejoin:miter;stroke-miterlimit:4;stroke-opacity:1;stroke-dasharray:none"
         d="M 36.719409,33.301401 49.97737,34.98852 50.300732,49.497761 37.042775,49.835185 36.719409,33.301401 z"
         id="path4647" />
      <path
         sodipodi:type="arc"
         style="color:#000000;fill:#cc0000;fill-opacity:1;fill-rule:evenodd;stroke:none;stroke-width:0.5;marker:none;visibility:visible;display:inline;overflow:visible"
         id="path4649"
         sodipodi:cx="19.754795"
         sodipodi:cy="11.67068"
         sodipodi:rx="0.4861359"
         sodipodi:ry="0.53033006"
         d="m 20.240931,11.67068 c 0,0.292893 -0.21765,0.53033 -0.486136,0.53033 -0.268485,0 -0.486136,-0.237437 -0.486136,-0.53033 0,-0.292893 0.217651,-0.53033 0.486136,-0.53033 0.268486,0 0.486136,0.237437 0.486136,0.53033 z"
         transform="matrix(4.9498156,0,0,4.9498156,-54.231581,-21.691026)" />
      <path
         sodipodi:type="arc"
         style="color:#000000;fill:#ef2929;fill-opacity:1;fill-rule:evenodd;stroke:none;stroke-width:0.5;marker:none;visibility:visible;display:inline;overflow:visible"
         id="path4651"
         sodipodi:cx="19.754795"
         sodipodi:cy="11.67068"
         sodipodi:rx="0.4861359"
         sodipodi:ry="0.53033006"
         d="m 20.240931,11.67068 c 0,0.292893 -0.21765,0.53033 -0.486136,0.53033 -0.268485,0 -0.486136,-0.237437 -0.486136,-0.53033 0,-0.292893 0.217651,-0.53033 0.486136,-0.53033 0.268486,0 0.486136,0.237437 0.486136,0.53033 z"
         transform="matrix(3.7489948,0,0,3.2986867,-30.50963,-3.1022891)" />
    </g>
    <g
       transform="translate(5.6201934e-8,956.36218)"
       style="enable-background:new"
       id="clock">
      <path
         sodipodi:type="arc"
         style="color:#000000;fill:#000000;fill-opacity:0.24232082;fill-rule:evenodd;stroke:none;stroke-width:0.40124759;marker:none;visibility:visible;display:inline;overflow:visible"
         id="path4625"
         sodipodi:cx="26.22113"
         sodipodi:cy="19.144962"
         sodipodi:rx="2.4766586"
         sodipodi:ry="2.5552826"
         d="m 28.697789,19.144962 c 0,1.411244 -1.108838,2.555283 -2.476659,2.555283 -1.36782,0 -2.476658,-1.144039 -2.476658,-2.555283 0,-1.411243 1.108838,-2.555282 2.476658,-2.555282 1.367821,0 2.476659,1.144039 2.476659,2.555282 z"
         transform="matrix(3.9428052,0,0,4.123834,-36.382654,-18.917996)" />
      <path
         sodipodi:type="arc"
         style="color:#000000;fill:#d3d7cf;fill-opacity:1;fill-rule:evenodd;stroke:#888a85;stroke-width:0.40124759;stroke-linecap:butt;stroke-linejoin:miter;stroke-miterlimit:4;stroke-opacity:1;stroke-dasharray:none;stroke-dashoffset:0;marker:none;visibility:visible;display:inline;overflow:visible"
         id="path4627"
         sodipodi:cx="26.22113"
         sodipodi:cy="19.144962"
         sodipodi:rx="2.4766586"
         sodipodi:ry="2.5552826"
         d="m 28.697789,19.144962 c 0,1.411244 -1.108838,2.555283 -2.476659,2.555283 -1.36782,0 -2.476658,-1.144039 -2.476658,-2.555283 0,-1.411243 1.108838,-2.555282 2.476658,-2.555282 1.367821,0 2.476659,1.144039 2.476659,2.555282 z"
         transform="matrix(3.9428052,0,0,4.123834,-37.899478,-20.434826)" />
      <path
         inkscape:connector-curvature="0"
         style="fill:none;stroke:#555753;stroke-width:1.61795223;stroke-linecap:round;stroke-linejoin:miter;stroke-miterlimit:4;stroke-opacity:1;stroke-dasharray:none"
         d="m 65.14705,52.87386 0,6.96112 6.572931,-0.8938"
         id="path4629"
         sodipodi:nodetypes="ccc" />
      <path
         inkscape:connector-curvature="0"
         style="opacity:0.52842808;color:#000000;fill:url(#linearGradient3274);fill-opacity:1;fill-rule:evenodd;stroke:none;stroke-width:0.40000004;marker:none;visibility:visible;display:inline;overflow:visible"
         d="m 65.14705,49.005942 c -4.92825,0 -8.898741,3.934521 -8.898735,8.83027 0,1.398784 0.343167,2.759352 0.924542,3.936384 3.411709,-4.894835 8.927891,-8.25317 15.254978,-9.043046 -1.619992,-2.248756 -4.286878,-3.723608 -7.280785,-3.723608 z"
         id="path4631" />
    </g>
    <g
       transform="translate(5.6201934e-8,956.36218)"
       style="enable-background:new"
       id="buttons">
      <path
         sodipodi:type="arc"
         style="color:#000000;fill:#000000;fill-opacity:0.25597271;fill-rule:evenodd;stroke:none;stroke-width:0.35356715;marker:none;visibility:visible;display:inline;overflow:visible"
         id="path4657"
         sodipodi:cx="45.65625"
         sodipodi:cy="54.71875"
         sodipodi:rx="0.71875"
         sodipodi:ry="0.71875"
         d="m 46.375,54.71875 c 0,0.396955 -0.321795,0.71875 -0.71875,0.71875 -0.396955,0 -0.71875,-0.321795 -0.71875,-0.71875 0,-0.396955 0.321795,-0.71875 0.71875,-0.71875 0.396955,0 0.71875,0.321795 0.71875,0.71875 z"
         transform="matrix(2.6817103,0,0,2.7681985,-90.159891,-84.664973)" />
      <path
         sodipodi:type="arc"
         style="color:#000000;fill:#888a85;fill-opacity:1;fill-rule:evenodd;stroke:#555753;stroke-width:0.35356715;stroke-linecap:butt;stroke-linejoin:miter;stroke-miterlimit:4;stroke-opacity:1;stroke-dasharray:none;stroke-dashoffset:0;marker:none;visibility:visible;display:inline;overflow:visible"
         id="path4663"
         sodipodi:cx="45.65625"
         sodipodi:cy="54.71875"
         sodipodi:rx="0.71875"
         sodipodi:ry="0.71875"
         d="m 46.375,54.71875 c 0,0.396955 -0.321795,0.71875 -0.71875,0.71875 -0.396955,0 -0.71875,-0.321795 -0.71875,-0.71875 0,-0.396955 0.321795,-0.71875 0.71875,-0.71875 0.396955,0 0.71875,0.321795 0.71875,0.71875 z"
         transform="matrix(2.6817103,0,0,2.7681985,-90.639471,-85.663244)" />
      <path
         sodipodi:type="arc"
         style="color:#000000;fill:#000000;fill-opacity:0.25597271;fill-rule:evenodd;stroke:none;stroke-width:0.35356715;marker:none;visibility:visible;display:inline;overflow:visible"
         id="path4659"
         sodipodi:cx="45.65625"
         sodipodi:cy="54.71875"
         sodipodi:rx="0.71875"
         sodipodi:ry="0.71875"
         d="m 46.375,54.71875 c 0,0.396955 -0.321795,0.71875 -0.71875,0.71875 -0.396955,0 -0.71875,-0.321795 -0.71875,-0.71875 0,-0.396955 0.321795,-0.71875 0.71875,-0.71875 0.396955,0 0.71875,0.321795 0.71875,0.71875 z"
         transform="matrix(2.6817103,0,0,2.7681985,-84.318851,-84.664973)" />
      <path
         sodipodi:type="arc"
         style="color:#000000;fill:#888a85;fill-opacity:1;fill-rule:evenodd;stroke:#555753;stroke-width:0.35356715;stroke-linecap:butt;stroke-linejoin:miter;stroke-miterlimit:4;stroke-opacity:1;stroke-dasharray:none;stroke-dashoffset:0;marker:none;visibility:visible;display:inline;overflow:visible"
         id="path4667"
         sodipodi:cx="45.65625"
         sodipodi:cy="54.71875"
         sodipodi:rx="0.71875"
         sodipodi:ry="0.71875"
         d="m 46.375,54.71875 c 0,0.396955 -0.321795,0.71875 -0.71875,0.71875 -0.396955,0 -0.71875,-0.321795 -0.71875,-0.71875 0,-0.396955 0.321795,-0.71875 0.71875,-0.71875 0.396955,0 0.71875,0.321795 0.71875,0.71875 z"
         transform="matrix(2.6817103,0,0,2.7681985,-84.770491,-85.663244)" />
      <path
         sodipodi:type="arc"
         style="color:#000000;fill:#000000;fill-opacity:0.25597271;fill-rule:evenodd;stroke:none;stroke-width:0.35356715;marker:none;visibility:visible;display:inline;overflow:visible"
         id="path4661"
         sodipodi:cx="45.65625"
         sodipodi:cy="54.71875"
         sodipodi:rx="0.71875"
         sodipodi:ry="0.71875"
         d="m 46.375,54.71875 c 0,0.396955 -0.321795,0.71875 -0.71875,0.71875 -0.396955,0 -0.71875,-0.321795 -0.71875,-0.71875 0,-0.396955 0.321795,-0.71875 0.71875,-0.71875 0.396955,0 0.71875,0.321795 0.71875,0.71875 z"
         transform="matrix(2.6817103,0,0,2.7681985,-78.467361,-84.664973)" />
      <path
         sodipodi:type="arc"
         style="color:#000000;fill:#888a85;fill-opacity:1;fill-rule:evenodd;stroke:#555753;stroke-width:0.35356715;stroke-linecap:butt;stroke-linejoin:miter;stroke-miterlimit:4;stroke-opacity:1;stroke-dasharray:none;stroke-dashoffset:0;marker:none;visibility:visible;display:inline;overflow:visible"
         id="path4669"
         sodipodi:cx="45.65625"
         sodipodi:cy="54.71875"
         sodipodi:rx="0.71875"
         sodipodi:ry="0.71875"
         d="m 46.375,54.71875 c 0,0.396955 -0.321795,0.71875 -0.71875,0.71875 -0.396955,0 -0.71875,-0.321795 -0.71875,-0.71875 0,-0.396955 0.321795,-0.71875 0.71875,-0.71875 0.396955,0 0.71875,0.321795 0.71875,0.71875 z"
         transform="matrix(2.6817103,0,0,2.7681985,-78.918991,-85.663244)" />
      <path
         sodipodi:type="arc"
         style="color:#000000;fill:#000000;fill-opacity:0.25597271;fill-rule:evenodd;stroke:none;stroke-width:0.35356715;marker:none;visibility:visible;display:inline;overflow:visible"
         id="path4665"
         sodipodi:cx="45.65625"
         sodipodi:cy="54.71875"
         sodipodi:rx="0.71875"
         sodipodi:ry="0.71875"
         d="m 46.375,54.71875 c 0,0.396955 -0.321795,0.71875 -0.71875,0.71875 -0.396955,0 -0.71875,-0.321795 -0.71875,-0.71875 0,-0.396955 0.321795,-0.71875 0.71875,-0.71875 0.396955,0 0.71875,0.321795 0.71875,0.71875 z"
         transform="matrix(2.6817103,0,0,2.7681985,-72.381071,-84.664973)" />
      <path
         sodipodi:type="arc"
         style="color:#000000;fill:#888a85;fill-opacity:1;fill-rule:evenodd;stroke:#555753;stroke-width:0.35356715;stroke-linecap:butt;stroke-linejoin:miter;stroke-miterlimit:4;stroke-opacity:1;stroke-dasharray:none;stroke-dashoffset:0;marker:none;visibility:visible;display:inline;overflow:visible"
         id="path4671"
         sodipodi:cx="45.65625"
         sodipodi:cy="54.71875"
         sodipodi:rx="0.71875"
         sodipodi:ry="0.71875"
         d="m 46.375,54.71875 c 0,0.396955 -0.321795,0.71875 -0.71875,0.71875 -0.396955,0 -0.71875,-0.321795 -0.71875,-0.71875 0,-0.396955 0.321795,-0.71875 0.71875,-0.71875 0.396955,0 0.71875,0.321795 0.71875,0.71875 z"
         transform="matrix(2.6817103,0,0,2.7681985,-72.832711,-85.663244)" />
      <path
         inkscape:connector-curvature="0"
         style="color:#000000;fill:#000000;fill-opacity:0.24914676;fill-rule:evenodd;stroke:none;stroke-width:0.40000004;marker:none;visibility:visible;display:inline;overflow:visible"
         d="m 21.01731,64.743771 7.24586,-0.148169 -0.139605,5.346259 -7.266503,0.07217 z"
         id="path4673"
         sodipodi:nodetypes="ccccc" />
      <path
         inkscape:connector-curvature="0"
         style="color:#000000;fill:#73d216;fill-opacity:1;fill-rule:evenodd;stroke:#4e9a06;stroke-width:1.29093611;stroke-linecap:round;stroke-linejoin:miter;stroke-miterlimit:4;stroke-opacity:1;stroke-dashoffset:0;marker:none;visibility:visible;display:inline;overflow:visible"
         d="m 20.447678,63.125553 6.430174,-0.03185 -0.139332,5.346259 -6.451101,0.07243 z"
         id="path4675"
         sodipodi:nodetypes="ccccc" />
    </g>
    <rect
       ry="25"
       rx="25"
       id="rect3003"
       style="opacity:0.15;fill:#ffffff;fill-opacity:1"
       height="92"
       width="92"
       y="958.36218"
       x="-96"
       clip-path="url(#clipPath3009)"
       transform="translate(98,0)" />
  </g>
</svg>
