<?xml version="1.0" encoding="UTF-8" standalone="no"?>
<!-- Created with Inkscape (http://www.inkscape.org/) -->

<svg
   xmlns:dc="http://purl.org/dc/elements/1.1/"
   xmlns:cc="http://creativecommons.org/ns#"
   xmlns:rdf="http://www.w3.org/1999/02/22-rdf-syntax-ns#"
   xmlns:svg="http://www.w3.org/2000/svg"
   xmlns="http://www.w3.org/2000/svg"
   xmlns:xlink="http://www.w3.org/1999/xlink"
   xmlns:sodipodi="http://sodipodi.sourceforge.net/DTD/sodipodi-0.dtd"
   xmlns:inkscape="http://www.inkscape.org/namespaces/inkscape"
   width="96"
   height="96"
   id="svg11037"
   version="1.1"
   inkscape:version="0.48.3.1 r9886"
   sodipodi:docname="snes9x.svg">
  <defs
     id="defs11039">
    <linearGradient
       y2="1046.1001"
       x2="47.999954"
       y1="962.62189"
       x1="47.999954"
       gradientTransform="matrix(1.15,0,0,1.15,-7.1999462,-150.65291)"
       gradientUnits="userSpaceOnUse"
       id="linearGradient3886"
       xlink:href="#linearGradient3795"
       inkscape:collect="always" />
    <linearGradient
       id="linearGradient3795">
      <stop
         style="stop-color:#13a6fd;stop-opacity:1;"
         offset="0"
         id="stop3797" />
      <stop
         style="stop-color:#2975b6;stop-opacity:1;"
         offset="1"
         id="stop3799" />
    </linearGradient>
    <linearGradient
       y2="1046.1001"
       x2="47.999954"
       y1="962.62189"
       x1="47.999954"
       gradientTransform="matrix(1.15,0,0,1.15,-7.1999462,-150.65292)"
       gradientUnits="userSpaceOnUse"
       id="linearGradient11642"
       xlink:href="#linearGradient3795"
       inkscape:collect="always" />
    <clipPath
       clipPathUnits="userSpaceOnUse"
       id="clipPath3009">
      <path
         id="path3011"
         d="m -2,956.36218 -96,0 0,33.5624 96,25.68742 0,-59.24982 z"
         style="opacity:0.15;fill:#ffffff;fill-opacity:1;stroke:none"
         inkscape:connector-curvature="0" />
    </clipPath>
    <linearGradient
       x1="66.299187"
       y1="88.41642"
       x2="48"
       y2="5.9877172"
       id="linearGradient3617"
       xlink:href="#ButtonColor"
       gradientUnits="userSpaceOnUse" />
    <linearGradient
       x1="10.31979"
       y1="21"
       x2="10.31979"
       y2="0.99929649"
       id="ButtonColor"
       gradientUnits="userSpaceOnUse">
      <stop
         id="stop3189"
         style="stop-color:#bdbdbd;stop-opacity:1;"
         offset="0" />
      <stop
         id="stop3191"
         style="stop-color:#ffffff;stop-opacity:1;"
         offset="1" />
    </linearGradient>
    <linearGradient
       x1="36.357143"
       y1="6"
       x2="36.357143"
       y2="63.893143"
       id="linearGradient3188"
       xlink:href="#linearGradient3737"
       gradientUnits="userSpaceOnUse" />
    <linearGradient
       id="linearGradient3737">
      <stop
         id="stop3739"
         style="stop-color:#ffffff;stop-opacity:1"
         offset="0" />
      <stop
         id="stop3741"
         style="stop-color:#ffffff;stop-opacity:0"
         offset="1" />
    </linearGradient>
    <linearGradient
       y2="63.893143"
       x2="36.357143"
       y1="6"
       x1="36.357143"
       gradientUnits="userSpaceOnUse"
       id="linearGradient3277"
       xlink:href="#linearGradient3737"
       inkscape:collect="always" />
    <clipPath
       clipPathUnits="userSpaceOnUse"
       id="clipPath3030">
      <rect
         x="7.7500005"
         y="7.75"
         width="80.5"
         height="80.5"
         style="opacity:0.6;fill:#000000;fill-opacity:1"
         id="rect3032"
         rx="21.875"
         ry="21.875" />
    </clipPath>
    <radialGradient
       inkscape:collect="always"
       xlink:href="#linearGradient5386"
       id="radialGradient5425"
       gradientUnits="userSpaceOnUse"
       gradientTransform="matrix(0.99994045,-0.01091351,0.00946754,0.86745446,-0.82928797,13.280714)"
       cx="142.21875"
       cy="88.487381"
       fx="142.21875"
       fy="88.487381"
       r="37.34375" />
    <linearGradient
       id="linearGradient5386">
      <stop
         style="stop-color:#ffffff;stop-opacity:0.2"
         offset="0"
         id="stop5388" />
      <stop
         style="stop-color:#ffffff;stop-opacity:0;"
         offset="1"
         id="stop5390" />
    </linearGradient>
    <linearGradient
       inkscape:collect="always"
       xlink:href="#linearGradient5376"
       id="linearGradient5427"
       gradientUnits="userSpaceOnUse"
       x1="137.4019"
       y1="13.357287"
       x2="139.08063"
       y2="69.925835" />
    <linearGradient
       id="linearGradient5376">
      <stop
         style="stop-color:#ffffff;stop-opacity:1;"
         offset="0"
         id="stop5378" />
      <stop
         style="stop-color:#ffffff;stop-opacity:0;"
         offset="1"
         id="stop5380" />
    </linearGradient>
    <linearGradient
       x1="48"
       y1="20.220806"
       x2="48"
       y2="138.66119"
       id="linearGradient3613"
       xlink:href="#linearGradient3737-3"
       gradientUnits="userSpaceOnUse" />
    <linearGradient
       id="linearGradient3737-3">
      <stop
         id="stop3739-0"
         style="stop-color:#ffffff;stop-opacity:1"
         offset="0" />
      <stop
         id="stop3741-7"
         style="stop-color:#ffffff;stop-opacity:0"
         offset="1" />
    </linearGradient>
    <clipPath
       id="clipPath3613">
      <rect
         width="84"
         height="84"
         rx="6"
         ry="6"
         x="6"
         y="6"
         id="rect3615"
         style="fill:#ffffff;fill-opacity:1;fill-rule:nonzero;stroke:none" />
    </clipPath>
    <filter
       x="-0.192"
       y="-0.192"
       width="1.3839999"
       height="1.3839999"
       color-interpolation-filters="sRGB"
       id="filter3794">
      <feGaussianBlur
         id="feGaussianBlur3796"
         stdDeviation="5.28" />
    </filter>
    <linearGradient
       inkscape:collect="always"
       xlink:href="#linearGradient4092"
       id="linearGradient4098"
       x1="42.101398"
       y1="27.716993"
       x2="47.326298"
       y2="39.826199"
       gradientUnits="userSpaceOnUse" />
    <linearGradient
       inkscape:collect="always"
       id="linearGradient4092">
      <stop
         style="stop-color:#ffffff;stop-opacity:1;"
         offset="0"
         id="stop4094" />
      <stop
         style="stop-color:#ffffff;stop-opacity:0;"
         offset="1"
         id="stop4096" />
    </linearGradient>
    <linearGradient
       inkscape:collect="always"
       xlink:href="#linearGradient4100"
       id="linearGradient4106"
       x1="64.492485"
       y1="39.279953"
       x2="70.569099"
       y2="51.654324"
       gradientUnits="userSpaceOnUse" />
    <linearGradient
       inkscape:collect="always"
       id="linearGradient4100">
      <stop
         style="stop-color:#ffffff;stop-opacity:1;"
         offset="0"
         id="stop4102" />
      <stop
         style="stop-color:#ffffff;stop-opacity:0;"
         offset="1"
         id="stop4104" />
    </linearGradient>
    <linearGradient
       inkscape:collect="always"
       xlink:href="#linearGradient4108"
       id="linearGradient4114"
       x1="28.170942"
       y1="46.743645"
       x2="30.590702"
       y2="53.284382"
       gradientUnits="userSpaceOnUse" />
    <linearGradient
       inkscape:collect="always"
       id="linearGradient4108">
      <stop
         style="stop-color:#ffffff;stop-opacity:1;"
         offset="0"
         id="stop4110" />
      <stop
         style="stop-color:#ffffff;stop-opacity:0;"
         offset="1"
         id="stop4112" />
    </linearGradient>
    <linearGradient
       inkscape:collect="always"
       xlink:href="#linearGradient4116"
       id="linearGradient4122"
       x1="50.842358"
       y1="57.801243"
       x2="53.773762"
       y2="64.518761"
       gradientUnits="userSpaceOnUse" />
    <linearGradient
       inkscape:collect="always"
       id="linearGradient4116">
      <stop
         style="stop-color:#ffffff;stop-opacity:1;"
         offset="0"
         id="stop4118" />
      <stop
         style="stop-color:#ffffff;stop-opacity:0;"
         offset="1"
         id="stop4120" />
    </linearGradient>
    <linearGradient
       y2="64.518761"
       x2="53.773762"
       y1="57.801243"
       x1="50.842358"
       gradientUnits="userSpaceOnUse"
       id="linearGradient3364"
       xlink:href="#linearGradient4116"
       inkscape:collect="always" />
  </defs>
  <sodipodi:namedview
     id="base"
     pagecolor="#ffffff"
     bordercolor="#666666"
     borderopacity="1.0"
     inkscape:pageopacity="0.0"
     inkscape:pageshadow="2"
     inkscape:zoom="3.959798"
     inkscape:cx="29.118614"
     inkscape:cy="49.863109"
     inkscape:document-units="px"
     inkscape:current-layer="layer1"
     showgrid="false"
     inkscape:window-width="1366"
     inkscape:window-height="684"
     inkscape:window-x="0"
     inkscape:window-y="26"
     inkscape:window-maximized="1"
     showguides="true"
     inkscape:guide-bbox="true">
    <sodipodi:guide
       orientation="0,1"
       position="-24.748737,0"
       id="guide11064" />
    <sodipodi:guide
       orientation="0,1"
       position="-23.233509,96"
       id="guide11066" />
    <sodipodi:guide
       orientation="1,0"
       position="0,54.800776"
       id="guide11068" />
    <sodipodi:guide
       orientation="1,0"
       position="96,51.012704"
       id="guide11070" />
    <sodipodi:guide
       orientation="0,1"
       position="-18.94036,48"
       id="guide11072" />
    <sodipodi:guide
       orientation="1,0"
       position="48,79.296975"
       id="guide11074" />
    <sodipodi:guide
       orientation="1,0"
       position="2,75.508903"
       id="guide11076" />
    <sodipodi:guide
       orientation="0,1"
       position="-77.27667,2"
       id="guide11078" />
    <sodipodi:guide
       orientation="1,0"
       position="94,77.781746"
       id="guide11080" />
    <sodipodi:guide
       orientation="0,1"
       position="-65.912454,94"
       id="guide11082" />
  </sodipodi:namedview>
  <metadata
     id="metadata11042">
    <rdf:RDF>
      <cc:Work
         rdf:about="">
        <dc:format>image/svg+xml</dc:format>
        <dc:type
           rdf:resource="http://purl.org/dc/dcmitype/StillImage" />
        <dc:title />
      </cc:Work>
    </rdf:RDF>
  </metadata>
  <g
     inkscape:label="Layer 1"
     inkscape:groupmode="layer"
     id="layer1"
     transform="translate(0,-956.36218)">
    <g
       transform="matrix(1.1428571,0,0,1.1428571,-6.8571429,949.50504)"
       id="background"
       style="display:inline"
       clip-path="url(#clipPath3030)">
      <rect
         width="84"
         height="84"
         rx="6"
         ry="6"
         x="6"
         y="6"
         id="rect2419"
         style="fill:url(#linearGradient3617);fill-opacity:1;fill-rule:nonzero;stroke:none" />
      <path
         d="M 12,6 C 8.676,6 6,8.676 6,12 l 0,2 0,68 0,2 c 0,0.334721 0.04135,0.6507 0.09375,0.96875 0.0487,0.295596 0.09704,0.596915 0.1875,0.875 0.00988,0.03038 0.020892,0.0636 0.03125,0.09375 0.098865,0.287771 0.2348802,0.547452 0.375,0.8125 0.1445918,0.273507 0.3156161,0.535615 0.5,0.78125 0.1843839,0.245635 0.3737765,0.473472 0.59375,0.6875 0.439947,0.428056 0.94291,0.814526 1.5,1.09375 0.278545,0.139612 0.5734731,0.246947 0.875,0.34375 -0.2562018,-0.100222 -0.4867109,-0.236272 -0.71875,-0.375 -0.00741,-0.0044 -0.023866,0.0045 -0.03125,0 -0.031933,-0.0193 -0.062293,-0.04251 -0.09375,-0.0625 -0.120395,-0.0767 -0.2310226,-0.163513 -0.34375,-0.25 -0.1061728,-0.0808 -0.2132809,-0.161112 -0.3125,-0.25 C 8.4783201,88.557317 8.3087904,88.373362 8.15625,88.1875 8.0486711,88.057245 7.9378561,87.922215 7.84375,87.78125 7.818661,87.74287 7.805304,87.69538 7.78125,87.65625 7.716487,87.553218 7.6510225,87.451733 7.59375,87.34375 7.4927417,87.149044 7.3880752,86.928049 7.3125,86.71875 7.30454,86.69694 7.288911,86.6782 7.28125,86.65625 7.2494249,86.5643 7.2454455,86.469419 7.21875,86.375 7.1884177,86.268382 7.1483606,86.171969 7.125,86.0625 7.0521214,85.720988 7,85.364295 7,85 L 7,83 7,15 7,13 C 7,10.218152 9.2181517,8 12,8 l 2,0 68,0 2,0 c 2.781848,0 5,2.218152 5,5 l 0,2 0,68 0,2 c 0,0.364295 -0.05212,0.720988 -0.125,1.0625 -0.04415,0.206893 -0.08838,0.397658 -0.15625,0.59375 -0.0077,0.02195 -0.0233,0.04069 -0.03125,0.0625 -0.06274,0.173739 -0.138383,0.367449 -0.21875,0.53125 -0.04158,0.0828 -0.07904,0.169954 -0.125,0.25 -0.0546,0.09721 -0.126774,0.18835 -0.1875,0.28125 -0.09411,0.140965 -0.204921,0.275995 -0.3125,0.40625 -0.143174,0.17445 -0.303141,0.346998 -0.46875,0.5 -0.01117,0.0102 -0.01998,0.02115 -0.03125,0.03125 -0.138386,0.125556 -0.285091,0.234436 -0.4375,0.34375 -0.102571,0.07315 -0.204318,0.153364 -0.3125,0.21875 -0.0074,0.0045 -0.02384,-0.0044 -0.03125,0 -0.232039,0.138728 -0.462548,0.274778 -0.71875,0.375 0.301527,-0.0968 0.596455,-0.204138 0.875,-0.34375 0.55709,-0.279224 1.060053,-0.665694 1.5,-1.09375 0.219973,-0.214028 0.409366,-0.441865 0.59375,-0.6875 0.184384,-0.245635 0.355408,-0.507743 0.5,-0.78125 0.14012,-0.265048 0.276135,-0.524729 0.375,-0.8125 0.01041,-0.03078 0.02133,-0.06274 0.03125,-0.09375 0.09046,-0.278085 0.1388,-0.579404 0.1875,-0.875 C 89.95865,84.6507 90,84.334721 90,84 l 0,-2 0,-68 0,-2 C 90,8.676 87.324,6 84,6 L 12,6 z"
         inkscape:connector-curvature="0"
         id="rect3728"
         style="opacity:0.4;fill:url(#linearGradient3277);fill-opacity:1;fill-rule:nonzero;stroke:none" />
    </g>
    <g
       transform="translate(0,956.36218)"
       id="g3279">
      <g
         id="g5417"
         transform="translate(-94.221979,-3.182625)">
        <path
           transform="matrix(0.94317892,0,0,0.94317892,97.537787,6.3213855)"
           d="m 86.974136,47.563187 c 0,21.86936 -17.728619,39.59798 -39.59798,39.59798 -21.869361,0 -39.5979806,-17.72862 -39.5979806,-39.59798 0,-21.869361 17.7286196,-39.5979809 39.5979806,-39.5979809 21.869361,0 39.59798,17.7286199 39.59798,39.5979809 z"
           sodipodi:ry="39.59798"
           sodipodi:rx="39.59798"
           sodipodi:cy="47.563187"
           sodipodi:cx="47.376156"
           id="path5419"
           style="fill:#262626;fill-opacity:1;stroke:none"
           sodipodi:type="arc" />
        <path
           style="fill:url(#radialGradient5425);fill-opacity:1;stroke:none"
           d="m 142.21875,13.84375 c -20.62672,0 -37.34375,16.71703 -37.34375,37.34375 0,20.62672 16.71703,37.34375 37.34375,37.34375 20.62672,0 37.34375,-16.71703 37.34375,-37.34375 0,-20.62672 -16.71703,-37.34375 -37.34375,-37.34375 z m 0,2.28125 c 19.35752,0 35.0625,15.704984 35.0625,35.0625 0,19.357516 -15.70498,35.03125 -35.0625,35.03125 -19.35752,0 -35.03125,-15.673734 -35.03125,-35.03125 0,-19.357516 15.67373,-35.0625 35.03125,-35.0625 z"
           id="path5421"
           inkscape:connector-curvature="0" />
        <path
           id="path5423"
           d="m 142.21875,13.84375 c -20.62672,0 -37.34375,16.71703 -37.34375,37.34375 0,20.62672 16.71703,37.34375 37.34375,37.34375 20.62672,0 37.34375,-16.71703 37.34375,-37.34375 0,-20.62672 -16.71703,-37.34375 -37.34375,-37.34375 z m 0,2.28125 c 19.35752,0 35.0625,15.704984 35.0625,35.0625 0,19.357516 -15.70498,35.03125 -35.0625,35.03125 -19.35752,0 -35.03125,-15.673734 -35.03125,-35.03125 0,-19.357516 15.67373,-35.0625 35.03125,-35.0625 z"
           style="opacity:0.3;fill:url(#linearGradient5427);fill-opacity:1;stroke:none"
           inkscape:connector-curvature="0" />
      </g>
      <g
         style="display:inline"
         id="blur">
        <rect
           style="opacity:0.1;fill:url(#linearGradient3613);fill-opacity:1;fill-rule:nonzero;stroke:#ffffff;stroke-width:0.5;stroke-linecap:round;stroke-linejoin:miter;stroke-miterlimit:4;stroke-opacity:1;stroke-dasharray:none;stroke-dashoffset:0;filter:url(#filter3794)"
           id="rect3171"
           clip-path="url(#clipPath3613)"
           y="15"
           x="15"
           ry="12"
           rx="12"
           height="66"
           width="66" />
      </g>
      <g
         style="fill:#000000"
         transform="translate(-16.125,-1.37525)"
         id="g4088">
        <path
           d="m 178.40625,48.09375 c -7.3735,0 -13.41297,5.983421 -13.5,13.34375 a 1.9857943,1.9857943 0 0 0 2.09375,2 c 0.29149,-0.0159 0.37545,0 0.34375,0 5.27115,0 9.53125,4.247283 9.53125,9.53125 l 0,0.125 a 1.9857943,1.9857943 0 0 0 0.125,0.6875 c -0.73653,-1.721528 -2.30317,-3.086069 -4.15625,-4.03125 -2.55086,-1.301087 -5.84993,-2.03125 -9.46875,-2.03125 -3.61882,0 -6.91122,0.731404 -9.46875,2.03125 -2.55753,1.299846 -4.65625,3.369268 -4.65625,6.125 0,2.755732 2.09844,4.802862 4.65625,6.09375 C 156.46406,83.259638 159.75928,84 163.375,84 c 3.61572,0 6.88635,-0.739125 9.4375,-2.03125 2.55115,-1.292125 4.65625,-3.344124 4.65625,-6.09375 0,-0.653278 -0.1313,-1.268692 -0.34375,-1.84375 A 1.9857943,1.9857943 0 0 0 179,75.0625 l 0.5625,-0.03125 a 1.9857943,1.9857943 0 0 0 0.0625,0 c 3.33022,-0.33283 6.1042,-1.871982 8.21875,-4 -0.11667,0.676364 -0.24159,1.355477 -0.25,2.0625 a 1.9857943,1.9857943 0 0 0 2.125,2 c -0.0146,8.12e-4 0.12232,0.03125 0.34375,0.03125 4.62653,0 8.23528,3.405881 8.90625,7.84375 -0.79131,-0.775216 -1.6334,-1.528927 -2.6875,-2.0625 -2.66434,-1.348662 -6.11985,-2.125 -9.90625,-2.125 -3.7864,0 -7.24191,0.776338 -9.90625,2.125 -2.66434,1.348662 -4.8125,3.475453 -4.8125,6.3125 0,2.837047 2.14816,4.963838 4.8125,6.3125 2.66434,1.348662 6.11985,2.125 9.90625,2.125 3.7864,0 7.24191,-0.776338 9.90625,-2.125 2.66434,-1.348662 4.8125,-3.475453 4.8125,-6.3125 0,-0.276886 -0.11686,-0.517752 -0.15625,-0.78125 a 1.9857943,1.9857943 0 0 0 0.4375,0 l 0.5625,-0.03125 a 1.9857943,1.9857943 0 0 0 0.0937,0 C 208.83867,85.706128 213.97311,80.075776 214,73.25 c 0,-7.256737 -5.92654,-13.1875 -13.1875,-13.1875 -3.64964,0 -6.94547,1.523636 -9.34375,3.9375 0.15134,-0.801756 0.43635,-1.577951 0.4375,-2.40625 0,-7.423529 -6.07601,-13.5 -13.5,-13.5 z"
           id="path4086"
           style="opacity:0.07999998;fill:#000000;fill-opacity:1;fill-rule:evenodd;stroke:none"
           inkscape:original="M 178.40625 50.09375 C 172.09827 50.09375 166.98071 55.171294 166.90625 61.46875 C 167.05478 61.46065 167.18383 61.4375 167.34375 61.4375 C 173.69263 61.4375 178.875 66.606533 178.875 72.96875 L 178.875 73.09375 L 179.4375 73.0625 C 185.69261 72.43735 189.8984 67.244415 189.90625 61.59375 C 189.90625 55.243679 184.75676 50.09375 178.40625 50.09375 z M 200.8125 62.0625 C 194.67691 62.0625 189.6666 66.997536 189.59375 73.125 C 189.73945 73.1169 189.9126 73.125 190.0625 73.125 C 196.23856 73.125 201.25 78.124308 201.25 84.3125 L 201.25 84.46875 L 201.8125 84.4375 C 207.66561 83.835526 211.97693 79.105342 212 73.25 C 212 67.061808 207.00475 62.0625 200.8125 62.0625 z M 163.375 69.71875 C 156.6852 69.71875 151.25 72.487353 151.25 75.875 C 151.25 79.262647 156.6852 82 163.375 82 C 170.0648 82 175.46875 79.262647 175.46875 75.875 C 175.46875 72.487353 170.0648 69.71875 163.375 69.71875 z M 186.375 80.78125 C 179.34444 80.78125 173.65625 83.661144 173.65625 87.21875 C 173.65625 90.776356 179.34444 93.65625 186.375 93.65625 C 193.40556 93.65625 199.09375 90.776356 199.09375 87.21875 C 199.09375 83.661144 193.40556 80.78125 186.375 80.78125 z "
           inkscape:radius="1.9855957"
           sodipodi:type="inkscape:offset"
           transform="translate(-117.5,-21.5)" />
        <path
           sodipodi:type="inkscape:offset"
           inkscape:radius="1.0113647"
           inkscape:original="M 178.40625 50.09375 C 172.09827 50.09375 166.98071 55.171294 166.90625 61.46875 C 167.05478 61.46065 167.18383 61.4375 167.34375 61.4375 C 173.69263 61.4375 178.875 66.606533 178.875 72.96875 L 178.875 73.09375 L 179.4375 73.0625 C 185.69261 72.43735 189.8984 67.244415 189.90625 61.59375 C 189.90625 55.243679 184.75676 50.09375 178.40625 50.09375 z M 200.8125 62.0625 C 194.67691 62.0625 189.6666 66.997536 189.59375 73.125 C 189.73945 73.1169 189.9126 73.125 190.0625 73.125 C 196.23856 73.125 201.25 78.124308 201.25 84.3125 L 201.25 84.46875 L 201.8125 84.4375 C 207.66561 83.835526 211.97693 79.105342 212 73.25 C 212 67.061808 207.00475 62.0625 200.8125 62.0625 z M 163.375 69.71875 C 156.6852 69.71875 151.25 72.487353 151.25 75.875 C 151.25 79.262647 156.6852 82 163.375 82 C 170.0648 82 175.46875 79.262647 175.46875 75.875 C 175.46875 72.487353 170.0648 69.71875 163.375 69.71875 z M 186.375 80.78125 C 179.34444 80.78125 173.65625 83.661144 173.65625 87.21875 C 173.65625 90.776356 179.34444 93.65625 186.375 93.65625 C 193.40556 93.65625 199.09375 90.776356 199.09375 87.21875 C 199.09375 83.661144 193.40556 80.78125 186.375 80.78125 z "
           style="opacity:0.15;fill:#000000;fill-opacity:1;fill-rule:evenodd;stroke:none"
           id="path4084"
           d="m 178.40625,49.09375 c -6.85071,0 -12.41914,5.536169 -12.5,12.375 a 1.0114658,1.0114658 0 0 0 1.0625,1 c 0.22135,-0.01207 0.31268,-0.03125 0.375,-0.03125 5.79994,0 10.53125,4.718241 10.53125,10.53125 l 0,0.125 a 1.0114658,1.0114658 0 0 0 1.0625,1 L 179.5,74.0625 a 1.0114658,1.0114658 0 0 0 0.0312,0 c 6.76194,-0.675804 11.36645,-6.317108 11.375,-12.46875 0,-6.896838 -5.60271,-12.5 -12.5,-12.5 z M 200.8125,61.0625 c -6.6779,0 -12.13942,5.390292 -12.21875,12.0625 a 1.0114658,1.0114658 0 0 0 1.0625,1 c 0.0641,-0.0036 0.21992,0 0.40625,0 5.63028,0 10.1875,4.545336 10.1875,10.1875 l 0,0.15625 a 1.0114658,1.0114658 0 0 0 1.0625,1 l 0.5625,-0.03125 a 1.0114658,1.0114658 0 0 0 0.0312,0 C 208.24544,84.785534 212.97498,79.599633 213,73.25 213,66.517544 207.5491,61.0625 200.8125,61.0625 z m -37.4375,7.65625 c -3.48442,0 -6.65158,0.696801 -9.03125,1.90625 -2.37967,1.209449 -4.09375,3.015293 -4.09375,5.25 0,2.234707 1.71394,4.048947 4.09375,5.25 2.37981,1.201053 5.54841,1.875 9.03125,1.875 3.48284,0 6.62741,-0.673317 9,-1.875 2.37259,-1.201683 4.09375,-3.018403 4.09375,-5.25 0,-2.231597 -1.72131,-4.039919 -4.09375,-5.25 -2.37244,-1.210081 -5.51558,-1.90625 -9,-1.90625 z m 23,11.0625 c -3.65337,0 -6.9515,0.710361 -9.4375,1.96875 -2.486,1.258389 -4.28125,3.15093 -4.28125,5.46875 0,2.31782 1.79525,4.210361 4.28125,5.46875 2.486,1.258389 5.78413,1.96875 9.4375,1.96875 3.65337,0 6.9515,-0.710361 9.4375,-1.96875 2.486,-1.258389 4.28125,-3.15093 4.28125,-5.46875 0,-2.31782 -1.79525,-4.210361 -4.28125,-5.46875 -2.486,-1.258389 -5.78413,-1.96875 -9.4375,-1.96875 z"
           transform="translate(-117.5,-21.5)" />
        <path
           style="opacity:0.4;fill:#000000;fill-opacity:1;fill-rule:evenodd;stroke:none"
           d="m 60.906251,28.5935 c -6.30798,0 -11.42554,5.077544 -11.5,11.375 0.14853,-0.0081 0.27758,-0.03125 0.4375,-0.03125 6.34888,0 11.53125,5.169033 11.53125,11.53125 l 0,0.125 0.5625,-0.03125 c 6.25511,-0.62515 10.4609,-5.818085 10.46875,-11.46875 0,-6.350071 -5.14949,-11.5 -11.5,-11.5 z m 22.40625,11.96875 c -6.13559,0 -11.1459,4.935036 -11.21875,11.0625 0.1457,-0.0081 0.31885,0 0.46875,0 6.17606,0 11.1875,4.999308 11.1875,11.1875 l 0,0.15625 0.5625,-0.03125 c 5.85311,-0.601974 10.16443,-5.332158 10.1875,-11.1875 0,-6.188192 -4.99525,-11.1875 -11.1875,-11.1875 z m -37.4375,7.65625 c -6.6898,0 -12.125,2.768603 -12.125,6.15625 0,3.387647 5.4352,6.125 12.125,6.125 6.6898,0 12.09375,-2.737353 12.09375,-6.125 0,-3.387647 -5.40395,-6.15625 -12.09375,-6.15625 z m 23,11.0625 c -7.03056,0 -12.71875,2.879894 -12.71875,6.4375 0,3.557606 5.68819,6.4375 12.71875,6.4375 7.03056,0 12.71875,-2.879894 12.71875,-6.4375 0,-3.557606 -5.68819,-6.4375 -12.71875,-6.4375 z"
           id="path4042"
           inkscape:connector-curvature="0" />
      </g>
      <g
         id="g3232"
         transform="matrix(0.78388637,0,0,0.78388637,-68.82447,12.328377)">
        <path
           transform="matrix(0.99957823,0,0,1.0062792,0.03692836,-0.31569686)"
           d="m 141.21453,50.587399 c 0,4.294638 -6.92121,7.77613 -15.45895,7.77613 -8.53774,0 -15.45895,-3.481492 -15.45895,-7.77613 0,-4.294639 6.92121,-7.776131 15.45895,-7.776131 8.53774,0 15.45895,3.481492 15.45895,7.776131 z"
           sodipodi:ry="7.7761307"
           sodipodi:rx="15.458948"
           sodipodi:cy="50.587399"
           sodipodi:cx="125.75558"
           id="path3234"
           style="fill:#2cd324;fill-opacity:1;fill-rule:evenodd;stroke:none"
           sodipodi:type="arc" />
        <path
           transform="matrix(1.0504943,0,0,1.0567642,22.990178,11.617342)"
           d="m 141.21453,50.587399 c 0,4.294638 -6.92121,7.77613 -15.45895,7.77613 -8.53774,0 -15.45895,-3.481492 -15.45895,-7.77613 0,-4.294639 6.92121,-7.776131 15.45895,-7.776131 8.53774,0 15.45895,3.481492 15.45895,7.776131 z"
           sodipodi:ry="7.7761307"
           sodipodi:rx="15.458948"
           sodipodi:cy="50.587399"
           sodipodi:cx="125.75558"
           id="path3236"
           style="fill:#f8fa1a;fill-opacity:1;fill-rule:evenodd;stroke:none"
           sodipodi:type="arc" />
        <path
           sodipodi:nodetypes="cccscssc"
           inkscape:connector-curvature="0"
           d="m 174.06477,61.562671 0.71255,-0.04645 c 7.46678,-0.767935 12.97103,-6.769899 13.00045,-14.23953 0,-7.894246 -6.38666,-14.296362 -14.28608,-14.296362 -7.82714,0 -14.18797,6.304036 -14.2809,14.120812 0.18587,-0.01033 0.37679,-0.01033 0.56802,-0.01033 7.87877,0 14.28607,6.402116 14.28607,14.296362 l 0,0.17555"
           style="font-style:normal;font-variant:normal;font-weight:normal;font-stretch:normal;letter-spacing:normal;word-spacing:normal;text-anchor:start;fill:#fb0f19;fill-opacity:1;fill-rule:nonzero;stroke:none"
           id="path3238" />
        <path
           sodipodi:nodetypes="cccscssc"
           inkscape:connector-curvature="0"
           d="m 145.50915,47.059789 0.72891,-0.04647 c 7.97961,-0.797501 13.35534,-7.407975 13.36535,-14.616501 0,-8.100754 -6.57768,-14.67842 -14.67899,-14.67842 -8.04706,0 -14.58347,6.464092 -14.67845,14.497725 0.18948,-0.01033 0.37887,-0.01033 0.58288,-0.01033 8.09923,0 14.67846,6.562171 14.67846,14.67842 l 0,0.175541"
           style="font-style:normal;font-variant:normal;font-weight:normal;font-stretch:normal;letter-spacing:normal;word-spacing:normal;text-anchor:start;fill:#0a12ff;fill-opacity:1;fill-rule:nonzero;stroke:#0a12ff;stroke-width:0;stroke-linecap:butt;stroke-linejoin:miter;stroke-miterlimit:10.43299961;stroke-opacity:1;stroke-dasharray:none;stroke-dashoffset:0"
           id="path3240" />
      </g>
      <path
         inkscape:connector-curvature="0"
         id="path4143"
         d="m 44.78125,26.21875 c -6.30798,0 -11.42555,5.077545 -11.5,11.375 0.14853,-0.0081 0.27758,-0.03125 0.4375,-0.03125 6.34888,0 11.53125,5.169033 11.53125,11.53125 l 0,0.125 0.5625,-0.03125 c 6.25511,-0.62515 10.4609,-5.818085 10.46875,-11.46875 0,-6.35007 -5.1495,-11.5 -11.5,-11.5 z m 0,1 c 5.81778,0 10.5,4.682649 10.5,10.5 -0.007,5.028892 -3.64361,9.605948 -9.15625,10.375 -0.49892,-6.172069 -5.46289,-11.057776 -11.65625,-11.4375 0.55271,-5.303062 4.86621,-9.4375 10.3125,-9.4375 z M 67.1875,38.1875 c -6.13559,0 -11.14591,4.935037 -11.21875,11.0625 0.1457,-0.0081 0.31885,0 0.46875,0 6.17606,0 11.1875,4.99931 11.1875,11.1875 l 0,0.15625 0.5625,-0.03125 c 5.85311,-0.60197 10.16444,-5.33216 10.1875,-11.1875 0,-6.188192 -4.99525,-11.1875 -11.1875,-11.1875 z m 0,1 c 5.66188,0 10.1875,4.52959 10.1875,10.1875 -0.0206,5.21606 -3.70826,9.34639 -8.84375,10.09375 -0.48626,-6.014818 -5.33587,-10.794798 -11.375,-11.15625 0.5536,-5.129208 4.75738,-9.125 10.03125,-9.125 z M 29.75,45.84375 c -6.6898,0 -12.125,2.737353 -12.125,6.125 0,3.38765 5.4352,6.15625 12.125,6.15625 6.6898,0 12.09375,-2.7686 12.09375,-6.15625 0,-3.387647 -5.40395,-6.125 -12.09375,-6.125 z m 0,1 c 3.20897,0 6.087,0.663941 8.09375,1.6875 2.00675,1.023559 3,2.298885 3,3.46875 0,1.169865 -0.96215,2.45243 -2.96875,3.46875 -2.0066,1.01632 -4.9145,1.65625 -8.125,1.65625 -3.2105,0 -6.11001,-0.63932 -8.125,-1.65625 -2.01499,-1.01693 -3,-2.301915 -3,-3.46875 0,-1.166835 0.98487,-2.444575 3,-3.46875 2.01513,-1.024175 4.91603,-1.6875 8.125,-1.6875 z m 23,10.0625 c -7.03056,0 -12.71875,2.87989 -12.71875,6.4375 0,3.55761 5.68819,6.4375 12.71875,6.4375 7.03056,0 12.71875,-2.87989 12.71875,-6.4375 0,-3.55761 -5.68819,-6.4375 -12.71875,-6.4375 z m 0,1 c 3.38073,0 6.44201,0.67663 8.5625,1.75 2.12049,1.07337 3.15625,2.43387 3.15625,3.6875 0,1.25363 -1.03576,2.61413 -3.15625,3.6875 -2.12049,1.07337 -5.18177,1.75 -8.5625,1.75 -3.38073,0 -6.44201,-0.67663 -8.5625,-1.75 -2.12049,-1.07337 -3.15625,-2.43387 -3.15625,-3.6875 0,-1.25363 1.03576,-2.61413 3.15625,-3.6875 2.12049,-1.07337 5.18177,-1.75 8.5625,-1.75 z"
         style="opacity:0.4;fill:#000000;fill-opacity:1;fill-rule:evenodd;stroke:none" />
      <path
         inkscape:connector-curvature="0"
         id="path4076"
         d="m 44.78125,27.2225 c -5.39105,0 -9.6589,4.05574 -10.28125,9.28125 1.08702,-4.631 5.09326,-8.0625 10.0625,-8.0625 5.81778,0 10.5,4.68265 10.5,10.5 -4.4e-4,0.3143 -0.0029,0.62754 -0.03125,0.9375 0.152,-0.70833 0.24897,-1.41781 0.25,-2.15625 0,-5.81735 -4.68222,-10.5 -10.5,-10.5 z"
         style="opacity:0.4;fill:url(#linearGradient4098);fill-opacity:1;fill-rule:evenodd;stroke:none" />
      <path
         inkscape:connector-curvature="0"
         id="path4074"
         d="m 67.1875,39.19125 c -5.27387,0 -9.47765,3.99579 -10.03125,9.125 1.03769,-4.52623 4.96689,-7.90625 9.8125,-7.90625 5.66188,0 10.1875,4.52959 10.1875,10.1875 -0.0013,0.326 -0.0019,0.65179 -0.03125,0.96875 0.14933,-0.70125 0.24702,-1.43401 0.25,-2.1875 0,-5.65791 -4.52562,-10.1875 -10.1875,-10.1875 z"
         style="opacity:0.4;fill:url(#linearGradient4106);fill-opacity:1;fill-rule:evenodd;stroke:none" />
      <path
         inkscape:connector-curvature="0"
         id="path4072"
         d="m 29.75,46.8475 c -3.20897,0 -6.10987,0.66332 -8.125,1.6875 -2.01513,1.02417 -3,2.30191 -3,3.46875 0,0.0733 0.02347,0.14461 0.03125,0.21875 0.39779,-0.86678 1.29484,-1.72918 2.75,-2.46875 2.01513,-1.02418 4.91603,-1.6875 8.125,-1.6875 3.20897,0 6.087,0.66394 8.09375,1.6875 1.88196,0.95991 2.88408,2.14187 3,3.25 0.14724,-0.33088 0.21875,-0.67829 0.21875,-1 0,-1.16987 -0.99325,-2.44519 -3,-3.46875 C 35.837,47.51144 32.95897,46.8475 29.75,46.8475 z"
         style="opacity:0.4;fill:url(#linearGradient4114);fill-opacity:1;fill-rule:evenodd;stroke:none" />
      <path
         inkscape:connector-curvature="0"
         id="path4039"
         d="m 52.75,57.91 c -3.38073,0 -6.44201,0.67663 -8.5625,1.75 -2.12049,1.07337 -3.15625,2.43387 -3.15625,3.6875 0,0.063 0.02602,0.12405 0.03125,0.1875 0.40786,-0.94031 1.35168,-1.86934 2.90625,-2.65625 2.12049,-1.07337 5.18177,-1.75 8.5625,-1.75 3.38073,0 6.44201,0.67663 8.5625,1.75 2.03253,1.02884 3.0738,2.32177 3.15625,3.53125 0.1553,-0.35006 0.21875,-0.72036 0.21875,-1.0625 0,-1.25363 -1.03576,-2.61413 -3.15625,-3.6875 -2.12049,-1.07337 -5.18177,-1.75 -8.5625,-1.75 z"
         style="opacity:0.4;fill:url(#linearGradient3364);fill-opacity:1;fill-rule:evenodd;stroke:none" />
    </g>
    <rect
       ry="25"
       rx="25"
       id="rect3003"
       style="opacity:0.15;fill:#ffffff;fill-opacity:1"
       height="92"
       width="92"
       y="958.36218"
       x="-96"
       clip-path="url(#clipPath3009)"
       transform="translate(98,0)" />
  </g>
</svg>
