<?xml version="1.0" encoding="UTF-8" standalone="no"?>
<!-- Created with Inkscape (http://www.inkscape.org/) -->
<svg id="svg11037" xmlns:rdf="http://www.w3.org/1999/02/22-rdf-syntax-ns#" xmlns="http://www.w3.org/2000/svg" height="96" width="96" version="1.1" xmlns:cc="http://creativecommons.org/ns#" xmlns:xlink="http://www.w3.org/1999/xlink" xmlns:dc="http://purl.org/dc/elements/1.1/">
 <defs id="defs11039">
  <linearGradient id="linearGradient11642" x1="48" gradientUnits="userSpaceOnUse" x2="48" gradientTransform="matrix(1.15 0 0 1.15 -7.1999 -150.65)" y1="962.62" y2="1046.1">
   <stop id="stop3928" style="stop-color:#e9e6e8" offset="0"/>
   <stop id="stop3930" style="stop-color:#92838d" offset="1"/>
  </linearGradient>
  <linearGradient id="linearGradient3920" x1="301.57" gradientUnits="userSpaceOnUse" y1="70.042" gradientTransform="matrix(.22574 0 0 .22574 -9.7844 -9.7903)" x2="301.57" y2="443.59">
   <stop id="stop3974" style="stop-color:#0b9879" offset="0"/>
   <stop id="stop3976" style="stop-color:#60e7dc" offset="1"/>
  </linearGradient>
  <clipPath id="clipPath3009" clipPathUnits="userSpaceOnUse">
   <path id="path3011" style="opacity:.15;fill:#fff" d="m-2 956.36h-96v33.562l96 25.687v-59.25z"/>
  </clipPath>
 </defs>
 <metadata id="metadata11042">
  <rdf:RDF>
   <cc:Work rdf:about="">
    <dc:format>image/svg+xml</dc:format>
    <dc:type rdf:resource="http://purl.org/dc/dcmitype/StillImage"/>
    <dc:title/>
   </cc:Work>
  </rdf:RDF>
 </metadata>
 <g id="layer1" transform="translate(0 -956.36)">
  <rect id="rect3867" style="fill:url(#linearGradient11642)" rx="25" ry="25" height="92" width="92" y="958.36" x="2"/>
  <g id="g3060" transform="translate(0 956.36)">
   <path id="path4189" style="fill:url(#linearGradient3920)" d="m48.006 29.941c-9.974 0-18.059 8.0456-18.059 18.059 0 0-0.11972 1.6964 0.39906 3.6119h27.734c-0.74873 2.0914-2.0917 3.9678-3.9152 5.2203-4.1954 3.3122-10.549 2.1078-14.123-1.6084h-8.5853c2.788 6.3754 9.1464 10.836 16.55 10.836 9.974 0 18.059-8.0855 18.059-18.059 0 0 0-1.856-0.35916-3.6119h-27.746c1.5613-3.9464 5.2895-7.1443 9.6223-7.1815 0.21682-0.01045 0.43282-0.01144 0.64901-0.007 2.9045 0.0589 5.7228 1.4363 7.6823 3.5766h8.6417c-2.788-6.376-9.147-10.836-16.55-10.836zm-4.107-23.941v9.4516c-13.443 1.675-24.36 11.484-27.671 24.347h8.5055c3.4882-9.2847 12.724-16.526 22.818-16.458 0.24474-0.0065 0.49252-0.0095 0.73682-0.008 3.6646 0.02185 7.2667 0.93169 10.532 2.5629 5.8811 2.6474 10.248 7.8794 12.382 13.904h8.5696c-3.312-12.864-14.229-22.673-27.672-24.348v-9.4516zm-27.671 50.201c3.3108 12.863 14.227 22.672 27.671 24.347v9.4516h8.2012v-9.4516c13.444-1.6755 24.36-11.484 27.671-24.347h-8.4495c-3.315 9.781-13.562 16.814-23.923 16.451-10.087 0.051-19.237-7.155-22.649-16.451z"/>
   <path id="path3936" style="opacity:.1" d="m43.906 6v9.4375c-13.444 1.6755-24.377 11.512-27.688 24.375h8.5c3.4882-9.2847 12.75-16.536 22.844-16.469 0.24474-0.0065 0.47445-0.0015 0.71875 0 3.6646 0.02185 7.2662 0.93132 10.531 2.5625 5.8811 2.6474 10.241 7.882 12.375 13.906h8.5938c-3.311-12.864-14.244-22.7-27.687-24.375v-9.4375h-1.9062v9.4375a1.9057 1.9057 0 0 0 1.6562 1.9062c11.808 1.4716 21.492 9.6467 25.281 20.562h-4.75c-2.427-5.89-6.773-11.02-12.719-13.718-0.02081-0.01039-0.04167-0.02091-0.0625-0.03125-3.4965-1.7355-7.3637-2.6952-11.312-2.7188-0.20758-0.0013-0.44775-0.0054-0.71875 0-0.02356 0.000472-0.03832-0.000642-0.0625 0-10.52-0.04192-19.916 7.089-24 16.469h-4.625c3.789-10.917 13.474-19.092 25.281-20.563a1.9057 1.9057 0 0 0 1.656 -1.906v-9.4375h-1.9062zm4.094 23.938c-9.974 0-18.062 8.0486-18.062 18.062 0 0-0.11253 1.7095 0.40625 3.625h27.75c-0.74873 2.0914-2.1139 3.9662-3.9375 5.2188-4.1954 3.3122-10.551 2.0913-14.125-1.625h-8.5625c2.787 6.375 9.127 10.843 16.53 10.843 9.974 0 18.062-8.0885 18.062-18.062 0 0 0.01541-1.8691-0.34375-3.625h-27.75c1.5613-3.9464 5.2922-7.1191 9.625-7.1562 0.21682-0.01045 0.40881-0.03569 0.625-0.03125 2.9045 0.0589 5.7279 1.4534 7.6875 3.5938h8.6562c-2.788-6.375-9.159-10.843-16.562-10.843zm0 1.9062c5.5087 0 10.24 2.835 13.156 7.0312h-4.6875c-2.232-2.082-5.089-3.53-8.218-3.594-0.35532-0.0073-0.55565 0.02181-0.6875 0.03125-0.01196 0.000857-0.05223-0.000495-0.0625 0-5.2246 0.0746-9.5051 3.8065-11.312 8.375a1.9057 1.9057 0 0 0 1.7812 2.5938h26.031c0.04408 0.66918 0.15625 1.6875 0.15625 1.6875a1.9057 1.9057 0 0 0 0 0.03125c0 8.9438-7.2125 16.156-16.156 16.156-5.5087 0-10.215-2.8333-13.125-7.0312h4.5938c4.2651 3.8012 10.96 5.0074 15.781 1.2812 0.03102-0.0213 0.06297-0.04092 0.09375-0.0625v-0.03125c2.1321-1.5012 3.6714-3.6295 4.5312-6.0312a1.9057 1.9057 0 0 0 -1.7812 -2.5625h-26.062c-0.043-0.614-0.188-1.593-0.188-1.593a1.9057 1.9057 0 0 0 0 -0.125c0-8.988 7.207-16.156 16.156-16.156zm-31.781 24.344c3.3108 12.863 14.244 22.699 27.688 24.375v9.4375h1.9688v-1.9062h-0.0625v-7.5312a1.9057 1.9057 0 0 0 -1.657 -1.907c-11.807-1.471-21.492-9.646-25.281-20.562h4.6562c4.0057 9.3874 13.305 16.493 23.812 16.469 0.021-0.000049 0.04149 0.000106 0.0625 0 10.772 0.34968 21.132-6.5493 25.156-16.469h4.5625c-3.788 10.916-13.473 19.091-25.28 20.562a1.9057 1.9057 0 0 0 -1.656 1.906v7.5312h-0.0625v1.9062h1.9688v-9.4375c13.444-1.6755 24.377-11.512 27.688-24.375h-8.4688c-3.316 9.781-13.547 16.833-23.907 16.469-10.087 0.051-19.244-7.173-22.656-16.468h-8.5312z"/>
   <path id="path3932" style="opacity:.15" d="m43.906 6v9.4375c-13.444 1.6755-24.377 11.512-27.688 24.375h8.5c3.4882-9.2847 12.75-16.536 22.844-16.469 0.24474-0.0065 0.47445-0.0015 0.71875 0 3.6646 0.02185 7.2662 0.93132 10.531 2.5625 5.8811 2.6474 10.241 7.882 12.375 13.906h8.5938c-3.311-12.864-14.244-22.7-27.687-24.375v-9.438h-1.094v1.0625h0.03125v8.375a1.0672 1.0672 0 0 0 0.9375 1.0625c12.522 1.5606 22.708 10.487 26.312 22.25h-6.4375c-2.3064-5.949-6.6404-11.138-12.562-13.812-0.0083-0.0037-0.02297 0.0037-0.03125 0-3.3969-1.6923-7.1417-2.6334-10.969-2.6562-0.2241-0.0014-0.456-0.006-0.71875 0-0.01142 0.000263-0.01971-0.000307-0.03125 0-10.339-0.05453-19.67 7.1236-23.5 16.469h-6.3125c3.605-11.764 13.792-20.69 26.313-22.251a1.0672 1.0672 0 0 0 0.9375 -1.0625v-8.375l0.032-0.0005v-1.0625h-1.094zm4.094 23.938c-9.974 0-18.062 8.0486-18.062 18.062 0 0-0.11253 1.7095 0.40625 3.625h27.75c-0.74873 2.0914-2.1139 3.9662-3.9375 5.2188-4.1954 3.3122-10.551 2.0913-14.125-1.625h-8.5625c2.787 6.375 9.127 10.843 16.53 10.843 9.974 0 18.062-8.0885 18.062-18.062 0 0 0.01541-1.8691-0.34375-3.625h-27.75c1.5613-3.9464 5.2922-7.1191 9.625-7.1562 0.21682-0.01045 0.40881-0.03569 0.625-0.03125 2.9045 0.0589 5.7279 1.4534 7.6875 3.5938h8.6562c-2.788-6.375-9.159-10.843-16.562-10.843zm0 1.062c6.339 0 11.733 3.5828 14.656 8.7188h-6.4375c-2.12-2.106-4.934-3.532-7.968-3.594-0.28506-0.0059-0.49671 0.0208-0.65625 0.03125-0.01516 0.000993-0.04822-0.000688-0.0625 0-4.8204 0.07122-8.8667 3.5261-10.562 7.8125a1.0672 1.0672 0 0 0 1 1.4688h26.781c0.138 1.187 0.25 2.562 0.25 2.562 0 9.397-7.603 17-17 17-6.339 0-11.706-3.581-14.625-8.719h6.3125c3.9678 3.7726 10.506 4.981 15.062 1.4375 0.01855-0.01274 0.04404-0.0184 0.0625-0.03125v-0.03125c1.991-1.392 3.472-3.395 4.282-5.656a1.0672 1.0672 0 0 0 -1 -1.4375h-26.812c-0.181-1.191-0.282-2.5-0.282-2.5a1.0672 1.0672 0 0 0 0 -0.062c0-9.439 7.6-17 17-17zm-31.781 25.188c3.3108 12.863 14.244 22.699 27.688 24.375v9.4375h1.0938v-1.0625h-0.03125v-8.375a1.0672 1.0672 0 0 0 -0.939 -1.063c-12.521-1.561-22.708-10.487-26.312-22.25h6.3438c3.7518 9.354 12.984 16.506 23.312 16.469 0.01053-0.000038 0.02072 0.000053 0.03125 0 10.593 0.357 20.869-6.606 24.594-16.469h6.2812c-3.604 11.763-13.791 20.689-26.312 22.25a1.0672 1.0672 0 0 0 -0.9375 1.0625v8.375h-0.03125v1.0625h1.0938v-9.4375c13.444-1.6755 24.377-11.512 27.688-24.375h-8.4688c-3.317 9.781-13.548 16.833-23.908 16.469-10.087 0.051-19.244-7.173-22.656-16.468h-8.5312z"/>
   <path id="path3922" style="opacity:.3" d="m43.906 15.438c-13.444 1.6755-24.377 11.512-27.688 24.375h0.3125c3.6108-12.363 14.286-21.744 27.375-23.375zm8.1875 0v1c13.089 1.6313 23.764 11.012 27.375 23.375h0.3125c-3.312-12.864-14.245-22.7-27.688-24.375zm-4.094 14.5c-9.974 0-18.062 8.0486-18.062 18.062 0 0-0.0224 0.43211 0 1 0-10.014 8.0885-18.062 18.062-18.062 7.0145 0 13.103 4.0006 16.094 9.8438h0.46875c-2.789-6.376-9.16-10.844-16.563-10.844zm-9.562 14.437c-0.16828 0.33149-0.33246 0.6555-0.46875 1h27.75c0.25718 1.2573 0.29176 2.327 0.3125 2.9688 0.0022-0.11593 0.03125-0.22729 0.03125-0.34375 0 0 0.01541-1.8691-0.34375-3.625zm19.219 8.25c-0.78637 1.6737-1.9804 3.175-3.5 4.2188-4.1954 3.3122-10.551 2.0913-14.125-1.625h-8.5625c0.14646 0.3349 0.30295 0.67603 0.46875 1h8.0938c3.5738 3.7163 9.9296 4.9372 14.125 1.625 1.8236-1.2525 3.1888-3.1273 3.9375-5.2188zm-41.438 3.5625c0.08736 0.33943 0.21464 0.66492 0.3125 1h8.2188c3.4117 9.2955 12.569 16.52 22.656 16.469 10.36 0.3633 20.591-6.6884 23.906-16.469h8.1562c0.09786-0.33508 0.22514-0.66057 0.3125-1h-8.4688c-3.316 9.78-13.547 16.832-23.907 16.468-10.087 0.051-19.244-7.173-22.656-16.468z"/>
   <path id="path3963" style="opacity:.3;fill:#fff" d="m47.562 23.344c-10.093-0.068-19.355 7.184-22.843 16.468h-8.1875c-0.09786 0.33508-0.22514 0.66057-0.3125 1h8.5c3.4882-9.2847 12.75-16.536 22.844-16.469 0.24474-0.0065 0.47445-0.0015 0.71875 0 3.6646 0.02185 7.2662 0.93132 10.531 2.5625 5.8811 2.6474 10.241 7.882 12.375 13.906h8.5938c-0.08736-0.33943-0.21464-0.66492-0.3125-1h-8.2812c-2.135-6.024-6.495-11.258-12.377-13.906-3.265-1.631-6.866-2.54-10.531-2.562-0.2443-0.0015-0.47401-0.0065-0.71875 0zm0.65625 13.844c-0.21619-0.0044-0.40818 0.0208-0.625 0.03125-4.3328 0.03713-8.0637 3.2099-9.625 7.1562h0.46875c1.7594-3.4658 5.2017-6.1224 9.1562-6.1562 0.21682-0.01045 0.40881-0.03569 0.625-0.03125 2.9045 0.0589 5.7279 1.4534 7.6875 3.5938h8.6562c-0.14646-0.33491-0.30295-0.67603-0.46875-1h-8.1875c-1.959-2.14-4.783-3.535-7.687-3.593zm17.812 11.156c-0.185 9.813-8.172 17.718-18.03 17.718-7.0145 0-13.072-4.0006-16.062-9.8438h-0.46875c2.788 6.376 9.128 10.844 16.531 10.844 9.974 0 18.062-8.0885 18.062-18.062 0 0-0.02303-0.40176-0.03125-0.65625zm-36.094 0.75c-0.0085 0.13658-0.0903 1.6978 0.40625 3.5312h27.312c0.15727-0.33473 0.31271-0.65143 0.4375-1h-27.75c-0.258-0.958-0.37-1.868-0.404-2.531zm-13.717 8.094c3.3108 12.863 14.244 22.699 27.688 24.375v-1c-13.09-1.632-23.765-11.012-27.376-23.375zm63.25 0c-3.6108 12.363-14.286 21.744-27.375 23.375v1c13.444-1.6755 24.377-11.512 27.688-24.375z"/>
  </g>
  <rect id="rect3003" style="opacity:.15;fill:#fff" clip-path="url(#clipPath3009)" rx="25" ry="25" transform="translate(98 3.8281e-7)" width="92" y="958.36" x="-96" height="92"/>
 </g>
</svg>
