<?xml version="1.0" encoding="UTF-8" standalone="no"?>
<!-- Created with Inkscape (http://www.inkscape.org/) -->

<svg
   xmlns:dc="http://purl.org/dc/elements/1.1/"
   xmlns:cc="http://creativecommons.org/ns#"
   xmlns:rdf="http://www.w3.org/1999/02/22-rdf-syntax-ns#"
   xmlns:svg="http://www.w3.org/2000/svg"
   xmlns="http://www.w3.org/2000/svg"
   xmlns:xlink="http://www.w3.org/1999/xlink"
   xmlns:sodipodi="http://sodipodi.sourceforge.net/DTD/sodipodi-0.dtd"
   xmlns:inkscape="http://www.inkscape.org/namespaces/inkscape"
   width="96"
   height="96"
   id="svg11037"
   version="1.1"
   inkscape:version="0.48.3.1 r9886"
   sodipodi:docname="unetbootin.svg">
  <defs
     id="defs11039">
    <linearGradient
       y2="1046.1001"
       x2="47.999954"
       y1="962.62189"
       x1="47.999954"
       gradientTransform="matrix(1.15,0,0,1.15,-7.1999462,-150.65291)"
       gradientUnits="userSpaceOnUse"
       id="linearGradient3886"
       xlink:href="#linearGradient3795"
       inkscape:collect="always" />
    <linearGradient
       id="linearGradient3795">
      <stop
         style="stop-color:#13a6fd;stop-opacity:1;"
         offset="0"
         id="stop3797" />
      <stop
         style="stop-color:#2975b6;stop-opacity:1;"
         offset="1"
         id="stop3799" />
    </linearGradient>
    <linearGradient
       y2="1046.1001"
       x2="47.999954"
       y1="962.62189"
       x1="47.999954"
       gradientTransform="matrix(1.15,0,0,1.15,-7.1999462,-150.65292)"
       gradientUnits="userSpaceOnUse"
       id="linearGradient11642"
       xlink:href="#linearGradient3795"
       inkscape:collect="always" />
    <clipPath
       clipPathUnits="userSpaceOnUse"
       id="clipPath3009">
      <path
         id="path3011"
         d="m -2,956.36218 -96,0 0,33.5624 96,25.68742 0,-59.24982 z"
         style="opacity:0.15;fill:#ffffff;fill-opacity:1;stroke:none"
         inkscape:connector-curvature="0" />
    </clipPath>
    <linearGradient
       id="rect3723_2_"
       gradientUnits="userSpaceOnUse"
       x1="2.8936"
       y1="-617.00781"
       x2="2.8936"
       y2="-533.92151"
       gradientTransform="matrix(1.0238,0,0,-1.0119,45.0364,-420.6063)">
      <stop
         offset="0"
         style="stop-color:#2D8197"
         id="stop59" />
      <stop
         offset="1"
         style="stop-color:#226171"
         id="stop61" />
    </linearGradient>
    <linearGradient
       y2="-533.92151"
       x2="2.8936"
       y1="-617.00781"
       x1="2.8936"
       gradientTransform="matrix(1.1569178,0,0,-1.1568834,44.651061,338.4016)"
       gradientUnits="userSpaceOnUse"
       id="linearGradient3194"
       xlink:href="#rect3723_2_"
       inkscape:collect="always" />
    <clipPath
       clipPathUnits="userSpaceOnUse"
       id="clipPath3016">
      <rect
         x="2"
         y="958.36218"
         width="92"
         height="92"
         style="opacity:0.6;fill:#000000;fill-opacity:1"
         id="rect3018"
         rx="25"
         ry="25" />
    </clipPath>
    <linearGradient
       id="SVGID_4_"
       gradientUnits="userSpaceOnUse"
       x1="54.338902"
       y1="180.291"
       x2="79.044197"
       y2="163.13811">
      <stop
         offset="0"
         style="stop-color:#BFBFBF"
         id="stop81" />
      <stop
         offset="1"
         style="stop-color:#808080"
         id="stop83" />
    </linearGradient>
    <linearGradient
       id="SVGID_5_"
       gradientUnits="userSpaceOnUse"
       x1="-431.78909"
       y1="548.13483"
       x2="-391.9292"
       y2="548.13483"
       gradientTransform="matrix(0.7235,-0.6904,0.6904,0.7235,-17.008,-506.8552)">
      <stop
         offset="0"
         style="stop-color:#FFFFFF"
         id="stop90" />
      <stop
         offset="1"
         style="stop-color:#808080"
         id="stop92" />
    </linearGradient>
    <linearGradient
       id="SVGID_6_"
       gradientUnits="userSpaceOnUse"
       x1="23.496099"
       y1="180.5723"
       x2="54.390499"
       y2="185.85069">
      <stop
         offset="0"
         style="stop-color:#BFBFBF"
         id="stop101" />
      <stop
         offset="1"
         style="stop-color:#808080"
         id="stop103" />
    </linearGradient>
    <linearGradient
       id="SVGID_7_"
       gradientUnits="userSpaceOnUse"
       x1="27.2749"
       y1="187.1777"
       x2="30.863001"
       y2="190.3437">
      <stop
         offset="0"
         style="stop-color:#BFBFBF"
         id="stop112" />
      <stop
         offset="1"
         style="stop-color:#808080"
         id="stop114" />
    </linearGradient>
    <linearGradient
       id="SVGID_8_"
       gradientUnits="userSpaceOnUse"
       x1="66.9795"
       y1="155.24609"
       x2="86.839203"
       y2="152.74181">
      <stop
         offset="0"
         style="stop-color:#BFBFBF"
         id="stop135" />
      <stop
         offset="1"
         style="stop-color:#808080"
         id="stop137" />
    </linearGradient>
    <linearGradient
       id="SVGID_9_"
       gradientUnits="userSpaceOnUse"
       x1="45.653301"
       y1="158.5723"
       x2="73.559402"
       y2="171.8566">
      <stop
         offset="0"
         style="stop-color:#BFBFBF"
         id="stop146" />
      <stop
         offset="1"
         style="stop-color:#808080"
         id="stop148" />
    </linearGradient>
    <linearGradient
       id="SVGID_10_"
       gradientUnits="userSpaceOnUse"
       x1="-420.49899"
       y1="528.67969"
       x2="-377.5947"
       y2="549.10382"
       gradientTransform="matrix(0.7235,-0.6904,0.6904,0.7235,-17.008,-506.8552)">
      <stop
         offset="0"
         style="stop-color:#BFBFBF"
         id="stop155" />
      <stop
         offset="1"
         style="stop-color:#808080"
         id="stop157" />
    </linearGradient>
    <linearGradient
       id="SVGID_11_"
       gradientUnits="userSpaceOnUse"
       x1="-442.92581"
       y1="530.33789"
       x2="-380.793"
       y2="530.33789"
       gradientTransform="matrix(0.7235,-0.6904,0.6904,0.7235,-17.008,-506.8552)">
      <stop
         offset="0"
         style="stop-color:#FFFFFF"
         id="stop162" />
      <stop
         offset="1"
         style="stop-color:#CCCCCC"
         id="stop164" />
    </linearGradient>
    <linearGradient
       id="SVGID_12_"
       gradientUnits="userSpaceOnUse"
       x1="-442.92581"
       y1="530.33789"
       x2="-380.793"
       y2="530.33789"
       gradientTransform="matrix(0.7235,-0.6904,0.6904,0.7235,-17.008,-506.8552)">
      <stop
         offset="0"
         style="stop-color:#FFFFFF"
         id="stop169" />
      <stop
         offset="1"
         style="stop-color:#808080"
         id="stop171" />
    </linearGradient>
    <linearGradient
       id="SVGID_13_"
       gradientUnits="userSpaceOnUse"
       x1="26.5938"
       y1="148.7832"
       x2="62.1381"
       y2="158.00751">
      <stop
         offset="0"
         style="stop-color:#BFBFBF"
         id="stop178" />
      <stop
         offset="1"
         style="stop-color:#808080"
         id="stop180" />
    </linearGradient>
    <linearGradient
       id="SVGID_14_"
       gradientUnits="userSpaceOnUse"
       x1="-431.72659"
       y1="509.38571"
       x2="-391.86719"
       y2="509.38571"
       gradientTransform="matrix(0.7235,-0.6904,0.6904,0.7235,-17.008,-506.8552)">
      <stop
         offset="0"
         style="stop-color:#FFFFFF"
         id="stop187" />
      <stop
         offset="1"
         style="stop-color:#808080"
         id="stop189" />
    </linearGradient>
  </defs>
  <sodipodi:namedview
     id="base"
     pagecolor="#ffffff"
     bordercolor="#666666"
     borderopacity="1.0"
     inkscape:pageopacity="0.0"
     inkscape:pageshadow="2"
     inkscape:zoom="3.959798"
     inkscape:cx="29.118614"
     inkscape:cy="49.863109"
     inkscape:document-units="px"
     inkscape:current-layer="layer1"
     showgrid="false"
     inkscape:window-width="1366"
     inkscape:window-height="684"
     inkscape:window-x="0"
     inkscape:window-y="26"
     inkscape:window-maximized="1"
     showguides="true"
     inkscape:guide-bbox="true">
    <sodipodi:guide
       orientation="0,1"
       position="-24.748737,0"
       id="guide11064" />
    <sodipodi:guide
       orientation="0,1"
       position="-23.233509,96"
       id="guide11066" />
    <sodipodi:guide
       orientation="1,0"
       position="0,54.800776"
       id="guide11068" />
    <sodipodi:guide
       orientation="1,0"
       position="96,51.012704"
       id="guide11070" />
    <sodipodi:guide
       orientation="0,1"
       position="-18.94036,48"
       id="guide11072" />
    <sodipodi:guide
       orientation="1,0"
       position="48,79.296975"
       id="guide11074" />
    <sodipodi:guide
       orientation="1,0"
       position="2,75.508903"
       id="guide11076" />
    <sodipodi:guide
       orientation="0,1"
       position="-77.27667,2"
       id="guide11078" />
    <sodipodi:guide
       orientation="1,0"
       position="94,77.781746"
       id="guide11080" />
    <sodipodi:guide
       orientation="0,1"
       position="-65.912454,94"
       id="guide11082" />
  </sodipodi:namedview>
  <metadata
     id="metadata11042">
    <rdf:RDF>
      <cc:Work
         rdf:about="">
        <dc:format>image/svg+xml</dc:format>
        <dc:type
           rdf:resource="http://purl.org/dc/dcmitype/StillImage" />
        <dc:title />
      </cc:Work>
    </rdf:RDF>
  </metadata>
  <g
     inkscape:label="Layer 1"
     inkscape:groupmode="layer"
     id="layer1"
     transform="translate(0,-956.36218)">
    <path
       style="fill:url(#linearGradient3194)"
       inkscape:connector-curvature="0"
       id="rect3723_10_"
       d="m 7.814111,1052.3622 h 80.372908 c 4.314429,0 7.812981,-3.5419 7.812981,-7.9046 v -80.18963 c 0,-4.36618 -3.498552,-7.90577 -7.812981,-7.90577 H 7.814111 c -4.3155588,0 -7.81411072633116,3.53959 -7.81411072633116,7.90577 v 80.18963 C -0.00112975,1048.8203 3.4974222,1052.3622 7.814111,1052.3622 z"
       clip-path="url(#clipPath3016)" />
    <g
       transform="translate(-7.8575415e-8,842.46718)"
       id="g76">
      <g
         id="g78">
        <linearGradient
           id="linearGradient3241"
           gradientUnits="userSpaceOnUse"
           x1="54.338902"
           y1="180.291"
           x2="79.044197"
           y2="163.13811">
          <stop
             offset="0"
             style="stop-color:#BFBFBF"
             id="stop3243" />
          <stop
             offset="1"
             style="stop-color:#808080"
             id="stop3245" />
        </linearGradient>
        <path
           style="fill:url(#SVGID_4_)"
           inkscape:connector-curvature="0"
           d="m 56.09,194.649 c -0.883,0 -1.729,-1.057 -1.764,-1.102 L 42.054,180.684 c -0.048,-0.05 -0.046,-0.129 0.004,-0.177 l 28.829,-27.511 c 0.023,-0.022 0.055,-0.034 0.086,-0.034 0.023,0 0.046,0.007 0.066,0.02 0.049,0.03 0.07,0.091 0.052,0.145 -0.519,1.566 -12.732,38.387 -13.855,40.65 -0.288,0.578 -0.674,0.872 -1.146,0.872 z"
           id="path85" />
        <path
           style="fill:#4d4d4d"
           inkscape:connector-curvature="0"
           d="m 70.973,153.088 h 0.005 m -0.005,0 c 0,0 -12.717,38.353 -13.85,40.634 -0.296,0.596 -0.664,0.803 -1.033,0.803 -0.832,0 -1.666,-1.054 -1.666,-1.054 l -12.28,-12.872 28.829,-27.511 m 0,-0.25 c -0.001,0 -0.003,0 -0.004,0 l 0,0 c 0,0 0,0 -10e-4,0 -0.065,0.001 -0.125,0.027 -0.169,0.07 l -28.827,27.51 c -0.1,0.095 -0.104,0.253 -0.009,0.354 l 12.28,12.872 c 0.021,0.029 0.904,1.131 1.847,1.131 0.36,0 0.871,-0.164 1.257,-0.941 1.122,-2.259 13.21,-38.696 13.854,-40.638 0.016,-0.032 0.025,-0.068 0.025,-0.107 0,-0.138 -0.11,-0.25 -0.248,-0.25 h -0.005 l 0,-0.001 0,0 z"
           id="path87" />
      </g>
      <linearGradient
         id="linearGradient3249"
         gradientUnits="userSpaceOnUse"
         x1="-431.78909"
         y1="548.13483"
         x2="-391.9292"
         y2="548.13483"
         gradientTransform="matrix(0.7235,-0.6904,0.6904,0.7235,-17.008,-506.8552)">
        <stop
           offset="0"
           style="stop-color:#FFFFFF"
           id="stop3251" />
        <stop
           offset="1"
           style="stop-color:#808080"
           id="stop3253" />
      </linearGradient>
      <path
         style="fill:url(#SVGID_5_)"
         inkscape:connector-curvature="0"
         d="m 70.037,154.565 c -2.428,7.304 -12.317,37.005 -13.293,38.968 -0.086,0.175 -0.18,0.311 -0.279,0.404 -0.127,0.122 -0.258,0.174 -0.414,0.163 -0.505,-0.035 -1.121,-0.673 -1.297,-0.894 -0.007,-0.01 -0.015,-0.019 -0.024,-0.028 L 42.741,180.611 70.037,154.565 m 0.936,-1.477 0,0 0,0 z m 0,0 -28.829,27.511 12.28,12.872 c 0,0 1.354,1.709 2.333,0.774 0.13,-0.125 0.254,-0.295 0.366,-0.523 1.133,-2.282 13.85,-40.634 13.85,-40.634 l 0,0 z"
         id="path94" />
      <g
         id="g96">
        <g
           id="g98">
          <linearGradient
             id="linearGradient3258"
             gradientUnits="userSpaceOnUse"
             x1="23.496099"
             y1="180.5723"
             x2="54.390499"
             y2="185.85069">
            <stop
               offset="0"
               style="stop-color:#BFBFBF"
               id="stop3260" />
            <stop
               offset="1"
               style="stop-color:#808080"
               id="stop3262" />
          </linearGradient>
          <path
             style="fill:url(#SVGID_6_)"
             inkscape:connector-curvature="0"
             d="m 16.371,185.898 c -0.031,0 -0.062,-0.012 -0.084,-0.033 -0.027,-0.024 -0.042,-0.061 -0.041,-0.098 l 0.082,-1.896 9.75,-9.354 c 0.024,-0.022 0.055,-0.034 0.086,-0.034 0.033,0 0.066,0.013 0.09,0.039 l 8.468,8.873 c 0.033,0.034 0.043,0.083 0.027,0.128 -0.016,0.044 -0.055,0.076 -0.102,0.082 0,0.001 -18.271,2.293 -18.276,2.293 z"
             id="path105" />
          <path
             style="fill:#4d4d4d"
             inkscape:connector-curvature="0"
             d="m 26.164,174.609 8.468,8.873 -18.261,2.291 0.082,-1.896 9.711,-9.268 m 0,-0.25 c -0.062,0 -0.124,0.022 -0.173,0.069 l -9.711,9.268 c -0.047,0.044 -0.075,0.105 -0.078,0.17 l -0.082,1.896 c -0.003,0.073 0.026,0.145 0.081,0.194 0.046,0.043 0.107,0.066 0.169,0.066 0.01,0 0.021,-0.001 0.031,-0.002 l 18.261,-2.291 c 0.094,-0.012 0.173,-0.075 0.204,-0.164 0.032,-0.089 0.011,-0.188 -0.055,-0.257 l -8.468,-8.873 c -0.047,-0.049 -0.113,-0.076 -0.179,-0.076 l 0,0 z"
             id="path107" />
        </g>
        <g
           id="g109">
          <linearGradient
             id="linearGradient3267"
             gradientUnits="userSpaceOnUse"
             x1="27.2749"
             y1="187.1777"
             x2="30.863001"
             y2="190.3437">
            <stop
               offset="0"
               style="stop-color:#BFBFBF"
               id="stop3269" />
            <stop
               offset="1"
               style="stop-color:#808080"
               id="stop3271" />
          </linearGradient>
          <path
             style="fill:url(#SVGID_7_)"
             inkscape:connector-curvature="0"
             d="m 24.839,194.771 c -0.033,0 -0.066,-0.013 -0.09,-0.039 l -8.468,-8.873 c -0.023,-0.023 -0.036,-0.056 -0.035,-0.089 0.001,-0.033 0.015,-0.064 0.039,-0.088 l 9.711,-9.267 c 0.024,-0.022 0.055,-0.034 0.086,-0.034 0.033,0 0.066,0.013 0.09,0.039 l 8.468,8.872 c 0.023,0.023 0.036,0.056 0.035,0.089 -10e-4,0.033 -0.015,0.064 -0.039,0.088 l -9.711,9.268 c -0.024,0.023 -0.055,0.034 -0.086,0.034 z"
             id="path116" />
          <path
             style="fill:#4d4d4d"
             inkscape:connector-curvature="0"
             d="m 26.083,176.507 8.468,8.872 -9.711,9.268 -8.468,-8.873 9.711,-9.267 m 0,-0.25 c -0.062,0 -0.124,0.022 -0.172,0.069 l -9.711,9.267 c -0.048,0.046 -0.076,0.108 -0.078,0.175 -0.002,0.067 0.023,0.131 0.069,0.179 l 8.468,8.873 c 0.049,0.051 0.115,0.077 0.181,0.077 0.062,0 0.124,-0.022 0.173,-0.069 l 9.711,-9.268 c 0.048,-0.046 0.076,-0.108 0.078,-0.175 0.002,-0.067 -0.023,-0.131 -0.069,-0.179 l -8.468,-8.872 c -0.051,-0.051 -0.117,-0.077 -0.182,-0.077 l 0,0 z"
             id="path118" />
        </g>
        <g
           id="g120">
          <path
             style="fill:#ffffff"
             inkscape:connector-curvature="0"
             d="m 27.655,190.263 c -0.033,-0.001 -0.064,-0.015 -0.087,-0.039 l -2.153,-2.257 c -0.023,-0.023 -0.036,-0.056 -0.035,-0.089 0.001,-0.033 0.015,-0.064 0.039,-0.088 l 1.473,-1.405 c 0.023,-0.021 0.054,-0.034 0.086,-0.034 10e-4,0 0.002,0 0.003,0 0.033,0.001 0.064,0.015 0.087,0.039 l 2.153,2.257 c 0.048,0.05 0.046,0.129 -0.004,0.177 l -1.473,1.405 c -0.023,0.021 -0.054,0.034 -0.086,0.034 -0.001,0 -0.002,0 -0.003,0 z"
             id="path122" />
          <path
             style="fill:#4d4d4d"
             inkscape:connector-curvature="0"
             d="m 26.978,186.476 2.153,2.257 -1.473,1.405 -2.153,-2.257 1.473,-1.405 m 0,-0.25 c -0.064,0 -0.126,0.024 -0.172,0.069 l -1.473,1.405 c -0.048,0.046 -0.076,0.108 -0.078,0.175 -0.002,0.067 0.023,0.131 0.069,0.179 l 2.153,2.257 c 0.045,0.048 0.108,0.075 0.175,0.077 0.002,0 0.004,0 0.006,0 0.064,0 0.126,-0.024 0.172,-0.069 l 1.473,-1.405 c 0.1,-0.095 0.104,-0.253 0.009,-0.354 l -2.153,-2.257 c -0.045,-0.048 -0.108,-0.075 -0.175,-0.077 -0.003,0 -0.005,0 -0.006,0 l 0,0 z"
             id="path124" />
        </g>
        <g
           id="g126">
          <path
             style="fill:#ffffff"
             inkscape:connector-curvature="0"
             d="m 23.424,185.825 c -0.033,0 -0.066,-0.013 -0.09,-0.039 l -2.153,-2.255 c -0.048,-0.05 -0.046,-0.129 0.004,-0.177 l 1.472,-1.406 c 0.023,-0.021 0.054,-0.034 0.086,-0.034 0.001,0 0.002,0 0.003,0 0.033,0.001 0.064,0.015 0.087,0.039 l 2.154,2.257 c 0.023,0.023 0.036,0.056 0.035,0.089 -10e-4,0.033 -0.015,0.064 -0.039,0.088 l -1.473,1.404 c -0.024,0.022 -0.055,0.034 -0.086,0.034 z"
             id="path128" />
          <path
             style="fill:#4d4d4d"
             inkscape:connector-curvature="0"
             d="m 22.743,182.039 2.154,2.257 -1.473,1.404 -2.153,-2.255 1.472,-1.406 m 0,-0.25 c -0.064,0 -0.126,0.024 -0.173,0.069 l -1.472,1.406 c -0.1,0.096 -0.104,0.254 -0.008,0.354 l 2.153,2.255 c 0.049,0.051 0.115,0.077 0.181,0.077 0.062,0 0.124,-0.022 0.172,-0.069 l 1.473,-1.404 c 0.048,-0.046 0.076,-0.108 0.078,-0.175 0.002,-0.067 -0.023,-0.131 -0.069,-0.179 l -2.154,-2.257 c -0.045,-0.048 -0.108,-0.075 -0.175,-0.077 -0.002,0 -0.004,0 -0.006,0 l 0,0 z"
             id="path130" />
        </g>
      </g>
      <g
         id="g132">
        <linearGradient
           id="linearGradient3282"
           gradientUnits="userSpaceOnUse"
           x1="66.9795"
           y1="155.24609"
           x2="86.839203"
           y2="152.74181">
          <stop
             offset="0"
             style="stop-color:#BFBFBF"
             id="stop3284" />
          <stop
             offset="1"
             style="stop-color:#808080"
             id="stop3286" />
        </linearGradient>
        <path
           style="fill:url(#SVGID_8_)"
           inkscape:connector-curvature="0"
           d="m 35.931,185.405 c -0.491,0 -0.947,-0.195 -1.285,-0.551 l -12.292,-9.713 c -0.028,-0.021 -0.045,-0.055 -0.047,-0.09 -0.01,-0.163 -0.238,-3.994 0.739,-4.928 L 65.61,129.508 c 0.332,-0.316 0.768,-0.49 1.227,-0.49 0.49,0 0.947,0.194 1.286,0.55 l 11.659,12.219 c 0.648,0.681 0.304,4.722 0.262,5.181 l -42.888,37.949 c -0.331,0.313 -0.766,0.488 -1.225,0.488 z"
           id="path139" />
        <path
           style="fill:#4d4d4d"
           inkscape:connector-curvature="0"
           d="m 66.835,129.144 c 0.436,0 0.87,0.171 1.195,0.511 l 11.659,12.219 c 0.628,0.659 0.229,5.083 0.229,5.083 l -42.847,37.867 c -0.32,0.306 -0.731,0.457 -1.141,0.457 -0.436,0 -0.871,-0.172 -1.195,-0.512 L 22.43,175.044 c 0,0 -0.246,-3.926 0.7,-4.829 L 65.694,129.6 c 0.32,-0.305 0.731,-0.456 1.141,-0.456 m 0,-0.25 0,0 c -0.492,0 -0.958,0.187 -1.313,0.525 l -42.563,40.615 c -1.001,0.956 -0.803,4.611 -0.777,5.025 0.004,0.071 0.039,0.137 0.095,0.181 l 12.305,9.725 c 0.335,0.356 0.824,0.565 1.35,0.565 0.491,0 0.958,-0.187 1.313,-0.526 l 42.84,-37.86 c 0.048,-0.042 0.077,-0.102 0.083,-0.165 0.068,-0.758 0.376,-4.572 -0.297,-5.278 L 68.212,129.482 c -0.363,-0.379 -0.853,-0.588 -1.377,-0.588 l 0,0 z"
           id="path141" />
      </g>
      <g
         id="g143">
        <linearGradient
           id="linearGradient3291"
           gradientUnits="userSpaceOnUse"
           x1="45.653301"
           y1="158.5723"
           x2="73.559402"
           y2="171.8566">
          <stop
             offset="0"
             style="stop-color:#BFBFBF"
             id="stop3293" />
          <stop
             offset="1"
             style="stop-color:#808080"
             id="stop3295" />
        </linearGradient>
        <path
           style="fill:url(#SVGID_9_)"
           inkscape:connector-curvature="0"
           d="m 35.705,189.385 c -0.491,0 -0.948,-0.195 -1.286,-0.551 L 22.761,176.617 c -0.677,-0.709 -0.65,-1.836 0.058,-2.513 l 42.563,-40.615 c 0.331,-0.316 0.767,-0.491 1.226,-0.491 0.491,0 0.948,0.195 1.287,0.551 l 11.658,12.218 c 0.327,0.343 0.502,0.793 0.491,1.268 -0.012,0.475 -0.207,0.916 -0.551,1.244 l -42.562,40.615 c -0.331,0.316 -0.767,0.491 -1.226,0.491 z"
           id="path150" />
        <path
           style="fill:#4d4d4d"
           inkscape:connector-curvature="0"
           d="m 66.607,133.123 c 0.437,0 0.872,0.172 1.196,0.512 l 11.658,12.218 c 0.631,0.66 0.605,1.706 -0.055,2.335 l -42.562,40.615 c -0.32,0.306 -0.73,0.457 -1.14,0.457 -0.436,0 -0.871,-0.171 -1.196,-0.512 L 22.85,176.531 c -0.63,-0.661 -0.606,-1.706 0.054,-2.336 L 65.466,133.58 c 0.321,-0.306 0.732,-0.457 1.141,-0.457 m 0.001,-0.25 0,0 c -0.492,0 -0.958,0.188 -1.313,0.526 l -42.562,40.615 c -0.759,0.724 -0.787,1.93 -0.063,2.689 l 11.659,12.217 c 0.362,0.38 0.851,0.589 1.376,0.589 0.491,0 0.957,-0.187 1.313,-0.526 L 79.58,148.368 c 0.367,-0.351 0.576,-0.823 0.589,-1.331 0.012,-0.508 -0.175,-0.99 -0.526,-1.357 L 67.985,133.462 c -0.363,-0.38 -0.852,-0.589 -1.377,-0.589 l 0,0 z"
           id="path152" />
      </g>
      <linearGradient
         id="linearGradient3299"
         gradientUnits="userSpaceOnUse"
         x1="-420.49899"
         y1="528.67969"
         x2="-377.5947"
         y2="549.10382"
         gradientTransform="matrix(0.7235,-0.6904,0.6904,0.7235,-17.008,-506.8552)">
        <stop
           offset="0"
           style="stop-color:#BFBFBF"
           id="stop3301" />
        <stop
           offset="1"
           style="stop-color:#808080"
           id="stop3303" />
      </linearGradient>
      <path
         style="opacity:0.35;fill:url(#SVGID_10_)"
         inkscape:connector-curvature="0"
         d="m 51.373,150.769 c -6.334,6.044 -17.333,21.142 -21.27,25.298 -2.155,2.274 -3.734,2.951 -4.764,3.072 l 9.17,9.609 c 0.629,0.66 1.675,0.686 2.336,0.055 l 42.562,-40.615 c 0.66,-0.629 0.686,-1.675 0.055,-2.335 l -8.988,-9.42 c -2.722,1.797 -13.587,9.074 -19.101,14.336 z"
         id="path159" />
      <linearGradient
         id="linearGradient3306"
         gradientUnits="userSpaceOnUse"
         x1="-442.92581"
         y1="530.33789"
         x2="-380.793"
         y2="530.33789"
         gradientTransform="matrix(0.7235,-0.6904,0.6904,0.7235,-17.008,-506.8552)">
        <stop
           offset="0"
           style="stop-color:#FFFFFF"
           id="stop3308" />
        <stop
           offset="1"
           style="stop-color:#CCCCCC"
           id="stop3310" />
      </linearGradient>
      <path
         style="fill:url(#SVGID_11_)"
         inkscape:connector-curvature="0"
         d="m 65.954,134.091 c 0.378,-0.361 0.979,-0.348 1.34,0.031 l 11.658,12.217 c 0.36,0.378 0.347,0.979 -0.03,1.34 l -42.563,40.615 c -0.378,0.359 -0.979,0.346 -1.34,-0.03 L 23.36,176.045 c -0.361,-0.378 -0.347,-0.979 0.031,-1.34 l 42.563,-40.614 m -0.486,-0.511 -42.562,40.615 c -0.66,0.63 -0.685,1.675 -0.054,2.336 l 11.658,12.217 c 0.629,0.66 1.675,0.686 2.336,0.055 l 42.562,-40.615 c 0.66,-0.629 0.686,-1.675 0.055,-2.335 L 67.805,133.635 c -0.631,-0.66 -1.678,-0.685 -2.337,-0.055 l 0,0 z"
         id="path166" />
      <linearGradient
         id="linearGradient3313"
         gradientUnits="userSpaceOnUse"
         x1="-442.92581"
         y1="530.33789"
         x2="-380.793"
         y2="530.33789"
         gradientTransform="matrix(0.7235,-0.6904,0.6904,0.7235,-17.008,-506.8552)">
        <stop
           offset="0"
           style="stop-color:#FFFFFF"
           id="stop3315" />
        <stop
           offset="1"
           style="stop-color:#808080"
           id="stop3317" />
      </linearGradient>
      <path
         style="fill:url(#SVGID_12_)"
         inkscape:connector-curvature="0"
         d="m 65.954,134.091 c 0.378,-0.361 0.979,-0.348 1.34,0.031 l 11.658,12.217 c 0.36,0.378 0.347,0.979 -0.03,1.34 l -42.563,40.615 c -0.378,0.359 -0.979,0.346 -1.34,-0.03 L 23.36,176.045 c -0.361,-0.378 -0.347,-0.979 0.031,-1.34 l 42.563,-40.614 m -0.486,-0.511 -42.562,40.615 c -0.66,0.63 -0.685,1.675 -0.054,2.336 l 11.658,12.217 c 0.629,0.66 1.675,0.686 2.336,0.055 l 42.562,-40.615 c 0.66,-0.629 0.686,-1.675 0.055,-2.335 L 67.805,133.635 c -0.631,-0.66 -1.678,-0.685 -2.337,-0.055 l 0,0 z"
         id="path173" />
      <g
         id="g175">
        <linearGradient
           id="linearGradient3321"
           gradientUnits="userSpaceOnUse"
           x1="26.5938"
           y1="148.7832"
           x2="62.1381"
           y2="158.00751">
          <stop
             offset="0"
             style="stop-color:#BFBFBF"
             id="stop3323" />
          <stop
             offset="1"
             style="stop-color:#808080"
             id="stop3325" />
        </linearGradient>
        <path
           style="fill:url(#SVGID_13_)"
           inkscape:connector-curvature="0"
           d="m 29.217,167.085 c -0.033,0 -0.066,-0.013 -0.09,-0.039 L 16.843,154.178 c -0.039,-0.032 -1.138,-1.001 -0.998,-1.918 0.064,-0.419 0.371,-0.752 0.913,-0.99 2.314,-1.017 39.666,-11.493 41.254,-11.938 0.012,-0.003 0.023,-0.005 0.034,-0.005 0.044,0 0.086,0.023 0.108,0.063 0.028,0.05 0.02,0.112 -0.022,0.152 l -28.828,27.509 c -0.025,0.022 -0.055,0.034 -0.087,0.034 z"
           id="path182" />
        <path
           style="fill:#4d4d4d"
           inkscape:connector-curvature="0"
           d="M 58.046,139.451 29.217,166.96 16.933,154.092 c 0,0 -2.109,-1.836 -0.125,-2.708 2.332,-1.025 41.238,-11.933 41.238,-11.933 m 0,-0.25 c -0.022,0 -0.045,0.003 -0.067,0.01 -1.59,0.445 -38.95,10.924 -41.271,11.944 -0.583,0.256 -0.915,0.622 -0.986,1.086 -0.15,0.983 0.999,1.996 1.048,2.039 l 12.268,12.853 c 0.049,0.051 0.115,0.077 0.181,0.077 0.062,0 0.124,-0.022 0.172,-0.069 L 58.22,139.632 c 0.083,-0.079 0.102,-0.205 0.044,-0.305 -0.046,-0.079 -0.13,-0.126 -0.218,-0.126 l 0,0 z"
           id="path184" />
      </g>
      <linearGradient
         id="linearGradient3329"
         gradientUnits="userSpaceOnUse"
         x1="-431.72659"
         y1="509.38571"
         x2="-391.86719"
         y2="509.38571"
         gradientTransform="matrix(0.7235,-0.6904,0.6904,0.7235,-17.008,-506.8552)">
        <stop
           offset="0"
           style="stop-color:#FFFFFF"
           id="stop3331" />
        <stop
           offset="1"
           style="stop-color:#808080"
           id="stop3333" />
      </linearGradient>
      <path
         style="fill:url(#SVGID_14_)"
         inkscape:connector-curvature="0"
         d="m 16.561,152.031 0,0 c 0.1,-0.096 0.24,-0.183 0.417,-0.26 2.007,-0.882 32.137,-9.371 39.547,-11.454 L 29.231,166.364 17.238,153.8 c -0.009,-0.01 -0.019,-0.018 -0.027,-0.026 -0.212,-0.185 -0.819,-0.825 -0.831,-1.334 -0.004,-0.158 0.054,-0.288 0.181,-0.409 m -0.292,-0.305 c -0.98,0.936 0.664,2.366 0.664,2.366 l 12.284,12.868 28.829,-27.509 c 0,0 -38.906,10.908 -41.238,11.933 -0.233,0.102 -0.409,0.217 -0.539,0.342 l 0,0 z"
         id="path191" />
    </g>
    <rect
       ry="25"
       rx="25"
       id="rect3003"
       style="opacity:0.15;fill:#ffffff;fill-opacity:1"
       height="92"
       width="92"
       y="958.36218"
       x="-96"
       clip-path="url(#clipPath3009)"
       transform="translate(98,0)" />
  </g>
</svg>
