<?xml version="1.0" encoding="UTF-8" standalone="no"?>
<!-- Created with Inkscape (http://www.inkscape.org/) -->

<svg
   xmlns:dc="http://purl.org/dc/elements/1.1/"
   xmlns:cc="http://creativecommons.org/ns#"
   xmlns:rdf="http://www.w3.org/1999/02/22-rdf-syntax-ns#"
   xmlns:svg="http://www.w3.org/2000/svg"
   xmlns="http://www.w3.org/2000/svg"
   xmlns:xlink="http://www.w3.org/1999/xlink"
   xmlns:sodipodi="http://sodipodi.sourceforge.net/DTD/sodipodi-0.dtd"
   xmlns:inkscape="http://www.inkscape.org/namespaces/inkscape"
   width="96"
   height="96"
   id="svg11037"
   version="1.1"
   inkscape:version="0.48.3.1 r9886"
   sodipodi:docname="volleybrawl.svg">
  <defs
     id="defs11039">
    <linearGradient
       y2="1046.1001"
       x2="47.999954"
       y1="962.62189"
       x1="47.999954"
       gradientTransform="matrix(1.15,0,0,1.15,-7.1999462,-150.65291)"
       gradientUnits="userSpaceOnUse"
       id="linearGradient3886"
       xlink:href="#linearGradient3795"
       inkscape:collect="always" />
    <linearGradient
       id="linearGradient3795">
      <stop
         style="stop-color:#13a6fd;stop-opacity:1;"
         offset="0"
         id="stop3797" />
      <stop
         style="stop-color:#2975b6;stop-opacity:1;"
         offset="1"
         id="stop3799" />
    </linearGradient>
    <linearGradient
       y2="1046.1001"
       x2="47.999954"
       y1="962.62189"
       x1="47.999954"
       gradientTransform="matrix(1.15,0,0,1.15,-7.1999462,-150.65292)"
       gradientUnits="userSpaceOnUse"
       id="linearGradient11642"
       xlink:href="#linearGradient3795"
       inkscape:collect="always" />
    <clipPath
       clipPathUnits="userSpaceOnUse"
       id="clipPath3009">
      <path
         id="path3011"
         d="m -2,956.36218 -96,0 0,33.5624 96,25.68742 0,-59.24982 z"
         style="opacity:0.15;fill:#ffffff;fill-opacity:1;stroke:none"
         inkscape:connector-curvature="0" />
    </clipPath>
    <linearGradient
       x1="48"
       y1="90"
       x2="48"
       y2="5.9877172"
       id="linearGradient3617"
       xlink:href="#linearGradient3688"
       gradientUnits="userSpaceOnUse" />
    <linearGradient
       id="linearGradient3688">
      <stop
         id="stop3690"
         style="stop-color:#0a4e83;stop-opacity:1;"
         offset="0" />
      <stop
         id="stop3692"
         style="stop-color:#1186e0;stop-opacity:1;"
         offset="1" />
    </linearGradient>
    <linearGradient
       gradientTransform="matrix(1.1428571,0,0,1.1428571,-6.8571429,949.50504)"
       y2="5.9877172"
       x2="48"
       y1="90"
       x1="48"
       gradientUnits="userSpaceOnUse"
       id="linearGradient3084"
       xlink:href="#linearGradient3688"
       inkscape:collect="always" />
    <clipPath
       clipPathUnits="userSpaceOnUse"
       id="clipPath3018">
      <rect
         x="2"
         y="958.36218"
         width="92"
         height="92"
         style="opacity:0.6;fill:#000000;fill-opacity:1"
         id="rect3020"
         rx="25"
         ry="25" />
    </clipPath>
    <radialGradient
       inkscape:collect="always"
       xlink:href="#linearGradient4029"
       id="radialGradient4098"
       gradientUnits="userSpaceOnUse"
       gradientTransform="matrix(-0.00621934,0.22589636,0.22538716,0.00620517,42.945595,-4.9721786)"
       cx="94.342743"
       cy="101.32678"
       fx="94.342743"
       fy="101.32678"
       r="130.28741" />
    <linearGradient
       id="linearGradient4029">
      <stop
         id="stop4031"
         offset="0.00000000"
         style="stop-color:#ffffea;stop-opacity:1.0000000;" />
      <stop
         id="stop4035"
         offset="1"
         style="stop-color:#b3af8d;stop-opacity:1;" />
    </linearGradient>
    <radialGradient
       cx="48"
       cy="90.171875"
       r="42"
       fx="48"
       fy="90.171875"
       id="radialGradient3619"
       xlink:href="#linearGradient3737"
       gradientUnits="userSpaceOnUse"
       gradientTransform="matrix(1.1573129,0,0,0.99590774,-9.551021,956.55931)" />
    <linearGradient
       id="linearGradient3737">
      <stop
         id="stop3739"
         style="stop-color:#ffffff;stop-opacity:1"
         offset="0" />
      <stop
         id="stop3741"
         style="stop-color:#ffffff;stop-opacity:0"
         offset="1" />
    </linearGradient>
  </defs>
  <sodipodi:namedview
     id="base"
     pagecolor="#ffffff"
     bordercolor="#666666"
     borderopacity="1.0"
     inkscape:pageopacity="0.0"
     inkscape:pageshadow="2"
     inkscape:zoom="3.959798"
     inkscape:cx="29.118614"
     inkscape:cy="49.863109"
     inkscape:document-units="px"
     inkscape:current-layer="layer1"
     showgrid="false"
     inkscape:window-width="1366"
     inkscape:window-height="684"
     inkscape:window-x="0"
     inkscape:window-y="26"
     inkscape:window-maximized="1"
     showguides="true"
     inkscape:guide-bbox="true">
    <sodipodi:guide
       orientation="0,1"
       position="-24.748737,0"
       id="guide11064" />
    <sodipodi:guide
       orientation="0,1"
       position="-23.233509,96"
       id="guide11066" />
    <sodipodi:guide
       orientation="1,0"
       position="0,54.800776"
       id="guide11068" />
    <sodipodi:guide
       orientation="1,0"
       position="96,51.012704"
       id="guide11070" />
    <sodipodi:guide
       orientation="0,1"
       position="-18.94036,48"
       id="guide11072" />
    <sodipodi:guide
       orientation="1,0"
       position="48,79.296975"
       id="guide11074" />
    <sodipodi:guide
       orientation="1,0"
       position="2,75.508903"
       id="guide11076" />
    <sodipodi:guide
       orientation="0,1"
       position="-77.27667,2"
       id="guide11078" />
    <sodipodi:guide
       orientation="1,0"
       position="94,77.781746"
       id="guide11080" />
    <sodipodi:guide
       orientation="0,1"
       position="-65.912454,94"
       id="guide11082" />
  </sodipodi:namedview>
  <metadata
     id="metadata11042">
    <rdf:RDF>
      <cc:Work
         rdf:about="">
        <dc:format>image/svg+xml</dc:format>
        <dc:type
           rdf:resource="http://purl.org/dc/dcmitype/StillImage" />
        <dc:title />
      </cc:Work>
    </rdf:RDF>
  </metadata>
  <g
     inkscape:label="Layer 1"
     inkscape:groupmode="layer"
     id="layer1"
     transform="translate(0,-956.36218)">
    <rect
       width="96"
       height="96"
       rx="6.8571429"
       ry="6.8571429"
       x="0"
       y="956.36218"
       id="rect2419"
       style="fill:url(#linearGradient3084);fill-opacity:1;fill-rule:nonzero;stroke:none"
       clip-path="url(#clipPath3018)" />
    <g
       transform="translate(-2,956.36218)"
       id="g4120">
      <g
         id="g4080">
        <path
           style="fill:#fedd57;fill-opacity:1;stroke:#000000;stroke-width:1.25296295px;stroke-linecap:butt;stroke-linejoin:miter;stroke-opacity:1"
           d="m 10.915576,82.457572 c 0,0 -0.9266398,-30.840745 24.861041,-37.022346 25.340414,-6.0744 41.07188,-2.800575 50.160228,23.852544 5.789873,15.908101 -69.861914,25.638453 -75.021269,13.169802 z"
           id="path3969"
           inkscape:connector-curvature="0"
           sodipodi:nodetypes="cscc" />
        <path
           style="fill:#ffffff;fill-opacity:1;stroke:#000000;stroke-width:0.62648147;stroke-linecap:butt;stroke-linejoin:miter;stroke-opacity:1"
           d="m 61.421334,62.311229 8.221084,-4.005885 c -0.219485,-3.452955 -3.285906,-5.353792 -5.590147,-5.412377 -4.37418,0.323163 -6.067801,4.560888 -4.179062,7.914153 0.734192,1.231549 1.548125,1.504109 1.548125,1.504109 z"
           id="path3971"
           inkscape:connector-curvature="0"
           sodipodi:nodetypes="ccccc" />
        <path
           sodipodi:nodetypes="ccccc"
           inkscape:connector-curvature="0"
           id="path3973"
           d="m 70.212808,57.104668 7.450262,-3.625089 c -0.198042,-3.122964 -2.97614,-4.841443 -5.064046,-4.89387 -3.96361,0.293345 -5.499251,4.126549 -3.788646,7.158949 0.664973,1.113685 1.40243,1.36001 1.40243,1.36001 z"
           style="fill:#ffffff;fill-opacity:1;stroke:#000000;stroke-width:0.62648147;stroke-linecap:butt;stroke-linejoin:miter;stroke-opacity:1" />
        <path
           sodipodi:type="arc"
           style="fill:#000000;fill-opacity:1;stroke:none"
           id="path3975"
           sodipodi:cx="137.40196"
           sodipodi:cy="70.839172"
           sodipodi:rx="0.96648508"
           sodipodi:ry="0.96648508"
           d="m 138.36845,70.839172 c 0,0.533775 -0.43271,0.966485 -0.96649,0.966485 -0.53377,0 -0.96648,-0.43271 -0.96648,-0.966485 0,-0.533775 0.43271,-0.966485 0.96648,-0.966485 0.53378,0 0.96649,0.43271 0.96649,0.966485 z"
           transform="matrix(2.0974306,-0.29666509,0.29666509,2.0974306,-248.29047,-50.905953)" />
        <path
           transform="matrix(1.8789482,-0.26576247,0.26576247,1.8789482,-207.08185,-43.963227)"
           d="m 138.36845,70.839172 c 0,0.533775 -0.43271,0.966485 -0.96649,0.966485 -0.53377,0 -0.96648,-0.43271 -0.96648,-0.966485 0,-0.533775 0.43271,-0.966485 0.96648,-0.966485 0.53378,0 0.96649,0.43271 0.96649,0.966485 z"
           sodipodi:ry="0.96648508"
           sodipodi:rx="0.96648508"
           sodipodi:cy="70.839172"
           sodipodi:cx="137.40196"
           id="path3977"
           style="fill:#000000;fill-opacity:1;stroke:none"
           sodipodi:type="arc" />
        <path
           style="fill:#871945;fill-opacity:1;stroke:none"
           d="m 82.35216,58.015346 -17.910013,9.511685 c 0,0 3.943208,9.767249 13.952504,3.928067 4.891608,-2.853655 2.170561,-12.368538 2.170561,-12.368538"
           id="path3979"
           inkscape:connector-curvature="0"
           sodipodi:nodetypes="ccsc" />
        <path
           id="path3981"
           d="m 74.486622,69.300257 c -1.941303,0.274582 -3.283446,1.99193 -3.165002,3.915819 1.909799,0.273333 4.230072,-0.09775 7.064656,-1.75137 -0.667309,-1.46864 -2.221447,-2.401818 -3.899654,-2.164449 z"
           style="fill:#fabfde;fill-opacity:1;stroke:none"
           inkscape:connector-curvature="0" />
        <path
           sodipodi:nodetypes="ccsc"
           inkscape:connector-curvature="0"
           id="path3983"
           d="m 82.35216,58.015346 -17.910013,9.511685 c 0,0 3.943208,9.767249 13.952504,3.928067 4.891608,-2.853655 2.170561,-12.368538 2.170561,-12.368538"
           style="fill:none;stroke:#000000;stroke-width:0.93972224;stroke-linecap:butt;stroke-linejoin:miter;stroke-opacity:1" />
        <path
           inkscape:connector-curvature="0"
           id="path3985"
           d="M 24.589924,50.65041 C 10.300188,61.461753 10.912839,82.461195 10.912839,82.461195 c 4.577781,11.06315 64.632969,4.644867 74.073859,-8.053637 -15.966622,10.502178 -66.3354,14.969228 -70.512008,4.875602 0,0 -0.503322,-17.350931 10.115234,-28.63275 z"
           style="opacity:0.2;fill:#000000;fill-opacity:1;stroke:none" />
      </g>
    </g>
    <path
       d="m 10,1046.3621 c -3.324,0 -6,-2.676 -6,-6 l 0,-2 0,-67.99992 0,-2 c 0,-0.33472 0.04135,-0.6507 0.09375,-0.96875 0.0487,-0.2956 0.09704,-0.59692 0.1875,-0.875 0.00988,-0.0304 0.020892,-0.0636 0.03125,-0.0937 0.098865,-0.28777 0.2348802,-0.54745 0.375,-0.8125 0.1445918,-0.27351 0.3156161,-0.53562 0.5,-0.78125 0.1843839,-0.24564 0.3737765,-0.47347 0.59375,-0.6875 0.439947,-0.42806 0.94291,-0.81453 1.5,-1.09375 0.278545,-0.13961 0.5734731,-0.24695 0.875,-0.34375 -0.2562018,0.10022 -0.4867109,0.23627 -0.71875,0.375 -0.00741,0.004 -0.023866,-0.005 -0.03125,0 -0.031933,0.0193 -0.062293,0.0425 -0.09375,0.0625 -0.120395,0.0767 -0.2310226,0.16351 -0.34375,0.25 -0.1061728,0.0808 -0.2132809,0.16111 -0.3125,0.25 -0.1779299,0.16143 -0.3474596,0.34539 -0.5,0.53125 -0.1075789,0.13025 -0.2183939,0.26528 -0.3125,0.40625 -0.025089,0.0384 -0.038446,0.0859 -0.0625,0.125 -0.064763,0.10303 -0.1302275,0.20452 -0.1875,0.3125 -0.1010083,0.19471 -0.2056748,0.4157 -0.28125,0.625 -0.00796,0.0218 -0.023589,0.0405 -0.03125,0.0625 -0.031825,0.0919 -0.035805,0.18683 -0.0625,0.28125 -0.030332,0.10662 -0.070389,0.20303 -0.09375,0.3125 C 5.052121,966.64124 5,966.99793 5,967.36223 l 0,2 0,67.99997 0,2 c 0,2.7819 2.2181517,5 5,5 l 2,0 68,0 2,0 c 2.781848,0 5,-2.2181 5,-5 l 0,-2 0,-67.99997 0,-2 c 0,-0.3643 -0.05212,-0.72099 -0.125,-1.0625 -0.04415,-0.20689 -0.08838,-0.39766 -0.15625,-0.59375 -0.0077,-0.022 -0.0233,-0.0407 -0.03125,-0.0625 -0.06274,-0.17374 -0.138383,-0.36745 -0.21875,-0.53125 -0.04158,-0.0828 -0.07904,-0.16995 -0.125,-0.25 -0.0546,-0.0972 -0.126774,-0.18835 -0.1875,-0.28125 -0.09411,-0.14097 -0.204921,-0.276 -0.3125,-0.40625 -0.143174,-0.17445 -0.303141,-0.347 -0.46875,-0.5 -0.01117,-0.0102 -0.01998,-0.0212 -0.03125,-0.0312 -0.138386,-0.12556 -0.285091,-0.23444 -0.4375,-0.34375 -0.102571,-0.0732 -0.204318,-0.15336 -0.3125,-0.21875 -0.0074,-0.005 -0.02384,0.004 -0.03125,0 -0.232039,-0.13873 -0.462548,-0.27478 -0.71875,-0.375 0.301527,0.0968 0.596455,0.20414 0.875,0.34375 0.55709,0.27922 1.060053,0.66569 1.5,1.09375 0.219973,0.21403 0.409366,0.44186 0.59375,0.6875 0.184384,0.24563 0.355408,0.50774 0.5,0.78125 0.14012,0.26505 0.276135,0.52473 0.375,0.8125 0.01041,0.0308 0.02133,0.0627 0.03125,0.0937 0.09046,0.27808 0.1388,0.5794 0.1875,0.875 0.0524,0.31805 0.09375,0.63403 0.09375,0.96875 l 0,2 0,67.99997 0,2 c 0,3.324 -2.676,6 -6,6 l -72,0 z"
       inkscape:connector-curvature="0"
       id="path3615"
       style="opacity:0.2;fill:url(#radialGradient3619);fill-opacity:1;fill-rule:nonzero;stroke:none" />
    <g
       transform="translate(-2,956.36218)"
       id="g4113">
      <path
         inkscape:connector-curvature="0"
         d="m 91.189279,22.323527 c -0.03739,-0.517235 -0.06904,-1.034305 -0.100675,-1.551388 -0.222508,-1.709599 -0.601973,-3.343225 -1.240291,-4.949553 -0.200226,-0.435685 -0.40045,-0.871371 -0.595102,-1.30116 -1.048029,-1.933076 -2.381994,-3.896964 -4.1221,-5.2755371 -0.665567,-0.40835 -0.665567,-0.40835 -1.264566,-0.734563 -1.183806,-0.5430558 -2.337327,-0.9361518 -3.589699,-1.2803558 -0.526758,0.174776 -0.96881,0.397756 -1.4524,0.671232 -1.093692,0.7671308 -1.882941,1.7261898 -2.590956,2.8595649 -0.02592,0.108224 -0.04611,0.216677 -0.06632,0.325092 2.354368,0.317187 4.572699,1.617151 6.509879,2.920846 0.94966,0.714419 1.852207,1.473428 2.712899,2.294379 0.328523,0.358909 0.657046,0.717832 0.991144,1.082637 0.365171,0.486105 0.735915,0.978105 1.106661,1.470104 1.264242,1.996382 2.092428,3.997969 2.348688,6.356622 0.06109,1.11439 0.05435,2.192495 -0.10792,3.295007 -0.180625,0.935656 -0.309453,1.44832 -0.305141,1.500051 0.458405,-0.40034 0.660377,-1.278064 0.865133,-1.840244 0.228259,-0.790968 0.428023,-1.588452 0.605017,-2.392303 0.187358,-1.388594 0.187358,-1.388594 0.245466,-2.040855 0.01294,-0.46996 0.03162,-0.939769 0.05027,-1.409576 l 0,0 z m -32.306712,-9.87713 c -0.184349,0.02929 -0.922074,1.408507 -1.054475,1.634289 -0.218004,0.418433 -0.436009,0.836866 -0.648439,1.261194 -0.466826,1.122794 -0.864715,2.241757 -1.161177,3.426596 -0.09349,0.479216 -0.181255,0.958599 -0.269175,1.443697 -0.09766,1.046937 -0.18973,2.099742 -0.161451,3.155884 0.0051,0.02304 0.01018,0.04622 0.02103,0.06939 0.01751,-0.01146 0.21606,-0.556146 0.258704,-0.646735 0.137186,-0.19124 0.285518,-0.370688 0.456303,-0.532323 0.383654,-2.68517 0.383654,-2.68517 0.561545,-3.729891 0.352518,-1.762604 0.790218,-3.49418 1.518165,-5.143198 0.157849,-0.316842 0.315542,-0.627955 0.478968,-0.938915 l 0,0 z M 68.743832,5.72044 c -0.298503,0.00888 -0.591432,0.023935 -0.884361,0.038704 -1.975055,0.6969895 -3.803096,1.6790801 -5.455939,2.9642369 -1.097796,0.91615 -2.128709,1.9029641 -3.019966,3.0255541 -0.713745,1.133198 -1.203811,2.266828 -1.640035,3.528123 -0.677315,2.310015 -1.038934,4.611511 -1.339719,6.994979 1.080789,1.784846 3.285087,2.34453 5.183049,2.781069 0.114464,0.0089 0.228937,0.01783 0.349137,0.02687 0.109996,-0.03705 0.225732,-0.07411 0.341463,-0.111025 -0.314374,-1.08121 -0.537518,-2.142712 -0.678847,-3.259307 -0.09632,-1.293165 -0.07244,-2.57729 0.06638,-3.869717 0.201238,-1.267763 0.49849,-2.481262 0.870721,-3.709899 0.328377,-0.88572 0.328377,-0.88572 0.660275,-1.691036 1.051639,-2.156311 2.235465,-4.1139729 4.052049,-5.7215483 0.480857,-0.3825288 0.959822,-0.6962642 1.495782,-0.9969747 l 0,0 z m 5.6898,-0.4169054 C 74.158527,5.2959046 73.851194,5.0007106 73.631617,4.8512848 72.502544,4.8202188 71.386405,4.9443578 70.279836,5.137557 70.036594,5.222608 69.75865,5.318215 69.570198,5.4965686 69.101699,5.6385337 69.101699,5.6385337 68.742097,5.7834902 67.851318,6.2637 67.152562,6.8524398 66.427726,7.5551711 c -0.787041,0.87882 -1.437633,1.8015388 -2.078498,2.7876279 -0.222948,0.38962 -0.440322,0.785135 -0.657696,1.180637 -0.219267,0.464282 -0.43296,0.934459 -0.646654,1.404623 -0.501002,1.322615 -0.898368,2.630855 -1.183001,4.011046 -0.18578,1.331271 -0.18578,1.331271 -0.243257,1.960615 -0.0131,0.47569 -0.02635,0.957122 -0.03961,1.438541 0.05914,1.60186 0.299423,3.082532 0.756076,4.620768 0.181826,0.06239 0.345509,0.158644 0.509034,0.260655 1.03611,0.07436 2.073481,0.103003 3.112746,0.06277 0.09917,-0.06035 0.20391,-0.114845 0.308652,-0.169314 0.02777,-0.38352 0.02777,-0.38352 0.08504,-2.463972 0.09823,-1.276333 0.265084,-2.545039 0.489091,-3.806451 0.27606,-1.277172 0.614693,-2.535412 1.021786,-3.78031 0.216534,-0.573333 0.43864,-1.140773 0.660748,-1.708223 1.467879,-3.108431 3.224004,-5.8533279 5.911442,-8.0506361 l 0,0 z m 5.799726,1.8402063 C 79.475311,5.5111596 77.373439,5.1894537 75.790277,4.9852791 c -0.448147,0.027757 -0.842296,0.1775514 -1.27036,0.3091521 -1.033173,0.8605732 -1.971279,1.8098019 -2.831515,2.8472139 -0.535859,0.7136688 -1.049109,1.4394338 -1.539907,2.1830099 -0.663109,1.169025 -0.663109,1.169025 -0.984228,1.791099 -0.274477,0.594673 -0.549112,1.195088 -0.818017,1.795669 -0.322014,0.862942 -0.322014,0.862942 -0.658804,1.845923 -0.518886,1.763762 -0.911207,3.513787 -1.139372,5.342904 -0.04906,0.532055 -0.09813,1.064123 -0.141615,1.602075 -0.02209,0.802374 -0.03845,1.604901 -0.05497,2.413171 0.20554,0.03437 0.307441,0.08302 0.456141,0.09855 1.0359,-0.126304 1.0359,-0.126304 1.842388,-0.253257 1.266208,-0.366639 2.444186,-0.861872 3.592193,-1.518539 1.086384,-0.709989 1.086384,-0.709989 1.110414,-0.749472 -0.20222,-0.779876 -0.109932,-1.631944 -0.08784,-2.43432 0.122104,-1.310098 0.264244,-2.72287 0.717345,-3.972236 0.137816,-0.214157 0.241088,-0.423526 0.327954,-0.66204 -0.0068,-0.172254 -0.0078,-0.344344 -0.0088,-0.516446 0.356616,-1.286429 0.917824,-2.50413 1.495752,-3.704171 0.26438,-0.227869 0.301925,-0.341556 0.385582,-0.67192 0.717111,-1.0470761 0.717111,-1.0470761 0.919234,-1.3053501 0.331684,-0.380885 0.691395,-0.738063 1.050947,-1.0895118 0.257544,-0.187916 0.515087,-0.375844 0.772631,-0.56376 0.430745,-0.22904 0.83762,-0.424314 1.289396,-0.58394 0.0062,-0.01706 0.01236,-0.034117 0.01846,-0.045324 l 0,0 z M 79.738237,27.835642 c -0.12404,-0.07793 -0.172516,-0.400507 -0.208532,-0.55062 -1.65271,-2.052963 -3.690214,-3.462665 -6.092843,-4.526803 -0.02293,-6.36e-4 -0.04585,-0.0013 -0.06878,-0.0013 -1.982528,1.385054 -4.236739,2.429966 -6.68239,2.51177 -0.31827,-0.106314 -0.433056,-0.103641 -0.72483,0.07754 -1.044681,0.02865 -2.094303,0.0284 -3.135512,-0.06913 -0.360808,-0.227882 -0.502672,-0.28342 -0.896663,-0.139406 -0.623927,-0.04584 -1.232919,-0.217478 -1.836496,-0.377486 -1.371152,-0.404822 -2.973869,-1.148691 -3.712884,-2.430869 -0.01719,-4.83e-4 -0.0344,-9.22e-4 -0.05158,-0.0013 -0.965816,0.914049 -0.67642,2.069133 -0.457062,3.26818 0.158736,0.692648 0.35186,1.386238 0.556763,2.068675 0.142231,0.250545 0.284459,0.501104 0.426531,0.757378 0.0058,1.53e-4 0.01719,4.72e-4 0.02866,7.9e-4 0.273943,0.466382 0.908436,0.753431 1.359999,1.018224 4.319781,1.845351 9.306722,2.166191 13.934281,1.582378 1.187123,-0.20248 2.335549,-0.457648 3.475509,-0.82202 0.376797,-0.144486 0.753594,-0.288972 1.135965,-0.427574 0.820267,-0.419057 1.611721,-0.833175 2.349491,-1.380688 0.140864,-0.116627 0.555837,-0.397666 0.600375,-0.557036 l 0,0 z m 1.389415,10.574564 c -0.388311,-0.06226 -0.734765,-0.186553 -0.763683,-0.594584 -0.897665,0.313685 -1.706105,0.92808 -2.527634,1.392999 -0.760746,0.340397 -1.502562,0.618215 -2.300587,0.854347 -0.969806,0.225667 -1.959699,0.34754 -2.954374,0.434871 2.231382,-0.0076 4.432269,-0.365505 6.561125,-1.02384 0.741973,-0.28356 0.741973,-0.28356 1.40944,-0.56917 0.267427,-0.130289 0.453356,-0.216945 0.575713,-0.494623 l 0,0 z m 0.248242,-6.933252 c -0.243388,-1.159552 -0.599931,-2.167362 -1.196717,-3.198994 -0.302865,-0.249233 -0.302865,-0.249233 -0.391726,-0.354924 -0.357501,0.27694 -0.709428,0.559761 -1.061356,0.842596 -1.003935,0.631953 -2.032424,1.114111 -3.144991,1.525121 -1.798853,0.546978 -3.550805,0.848618 -5.4249,1.003493 -1.016497,0.0466 -1.016497,0.0466 -1.974735,0.06035 -3.450263,-0.09498 -6.996115,-0.467922 -10.155381,-1.965861 -0.355868,-0.199068 -0.762053,-0.445413 -1.046305,-0.745754 0.07472,0.827979 0.564603,1.57563 0.946388,2.291616 0.203064,0.332528 0.411702,0.67094 0.620341,1.009338 0.403082,0.567451 0.799327,1.17487 1.284225,1.687215 0.202541,0.143226 0.405084,0.286464 0.613198,0.435584 0.02309,-0.0051 0.05788,0.03692 0.08096,0.03183 0.06802,0.03756 0.117431,0.05538 0.186853,0.101222 0.881115,0.581151 1.800216,1.048934 2.749485,1.521632 0.78845,0.319961 0.78845,0.319961 1.714136,0.655163 1.099048,0.288362 2.125165,0.517363 3.251081,0.663072 0.418229,0.01732 0.842191,0.03463 1.266151,0.05207 1.182705,-0.04202 2.276866,-0.201144 3.436281,-0.438804 0.942728,-0.283764 0.942728,-0.283764 1.747747,-0.565592 1.097264,-0.480261 2.098359,-1.009045 3.119332,-1.634798 1.076339,-0.761885 1.076339,-0.761885 1.814583,-1.326587 0.910921,-0.795117 0.910921,-0.795117 1.511612,-1.363612 0.01414,-0.09715 0.03402,-0.194079 0.05374,-0.285305 l 0,0 z m 0.126178,1.666806 c -0.01299,-0.361697 0.03241,-0.968428 -0.158889,-1.312097 -0.382162,0.339353 -0.764482,0.684435 -1.146801,1.029517 -0.938947,0.771397 -1.927423,1.466872 -2.949185,2.121284 -1.123503,0.599982 -1.123503,0.599982 -1.733814,0.892901 -0.690392,0.284973 -0.690392,0.284973 -1.484106,0.57285 -1.439567,0.413481 -2.788273,0.651663 -4.286676,0.702172 -0.309492,-0.0089 -0.618984,-0.01705 -0.928476,-0.0256 -2.87781,-0.262768 -5.748466,-1.202141 -8.128322,-2.885105 -0.0047,0.171937 0.507654,0.775 0.623753,0.933059 0.0058,1.65e-4 0.04275,0.06608 0.05422,0.06634 0.198436,0.292244 0.198436,0.292244 0.392722,0.527014 1.641569,1.416006 3.255375,2.590341 5.202497,3.532974 0.414285,0.160528 0.82857,0.321056 1.242696,0.487327 0.381316,0.10797 0.768208,0.221897 1.155098,0.335788 2.628259,0.57709 5.268567,0.299908 7.778164,-0.646201 0.639281,-0.3036 0.639281,-0.3036 1.291289,-0.652719 0.641809,-0.395298 1.244759,-0.837554 1.962545,-1.075889 0.01197,-0.01693 0.02372,-0.02801 0.04123,-0.03896 0.389792,-1.033148 0.686463,-2.01725 0.928344,-3.094615 0.05353,-0.486055 0.10722,-0.977839 0.143718,-1.470093 l 0,0 z M 84.958642,9.0518239 C 84.291288,8.5000329 83.588441,7.9874191 82.867296,7.5144541 81.681705,6.8279561 80.410932,6.1104422 79.084683,5.7412573 c -0.05731,-0.00128 -0.11463,-0.00257 -0.17194,-0.00513 0.46208,0.2995008 0.821626,0.5732442 1.165451,1.0014046 0.07056,0.1453392 0.146856,0.2908304 0.22315,0.4363102 0.88904,0.208019 1.75247,0.512843 2.603965,0.834535 0.452983,0.213215 0.90581,0.432159 1.358635,0.6511168 0.66031,0.390994 0.66031,0.390994 0.694698,0.391936 z m 0.963307,21.8849131 c -0.04069,-0.396877 -0.07566,-0.793588 -0.110618,-1.190314 -0.246962,-1.446435 -0.652929,-2.742389 -1.264435,-4.072682 -0.767251,-1.506633 -1.688249,-2.845443 -2.747587,-4.159387 -2.081349,-2.317132 -4.542386,-4.5931 -7.426814,-5.865512 -0.09212,0.221147 -0.206858,0.43021 -0.332896,0.633214 -0.602173,1.663954 -0.706299,3.571055 -0.754425,5.319081 0.0081,0.332884 -0.0098,0.774045 0.130812,1.081899 1.666707,0.711211 3.188606,1.682288 4.567113,2.861626 0.552728,0.548621 1.15688,1.104409 1.603759,1.74763 0.124141,0.490943 0.291504,0.661874 0.661411,0.976056 0.114514,0.215365 0.229037,0.430732 0.349131,0.651993 0.383729,0.853698 0.653779,1.669863 0.823398,2.592226 -0.05647,0.176252 0.01856,0.367592 0.08308,0.524225 0.07361,0.868098 0.03258,1.733052 -0.08852,2.59006 -0.225477,1.106497 -0.557798,2.135493 -0.970989,3.185205 -0.07709,0.508348 0.661939,0.540166 1.012813,0.503943 0.983951,-0.322787 1.946031,-0.892799 2.816096,-1.453884 0.07066,-0.06684 0.141338,-0.133765 0.212007,-0.200647 0.645178,-0.934346 0.971875,-2.175716 1.225535,-3.264234 0.131617,-0.822301 0.182523,-1.629616 0.211134,-2.460498 l 0,0 z m 3.919014,-4.847669 c -0.03975,-0.431267 -0.07392,-0.85664 -0.108098,-1.282011 -0.265153,-1.619009 -0.713973,-3.02511 -1.442051,-4.496272 -0.279042,-0.489466 -0.575438,-0.973687 -0.871992,-1.452165 -0.165628,-0.233994 -0.331255,-0.467974 -0.496884,-0.701955 -1.165552,-1.414376 -2.354294,-2.611425 -3.785645,-3.746341 -0.32069,-0.226775 -0.641381,-0.453561 -0.956497,-0.674454 -1.234964,-0.768162 -2.432493,-1.437777 -3.776617,-1.990981 -0.710579,-0.231791 -1.527054,-0.575461 -2.289321,-0.596444 -0.0896,0.12945 -0.195447,0.224037 -0.29635,0.347451 -0.576982,1.165651 -1.214433,2.44434 -1.461996,3.728045 0.0081,0.120702 0.0163,0.241341 0.03002,0.367898 2.673316,1.232191 4.96457,3.216705 6.976619,5.342649 0.255751,0.293822 0.511502,0.587645 0.767095,0.887197 1.261774,1.66939 2.284251,3.28057 3.068166,5.223576 0.08955,0.289239 0.184818,0.578643 0.279933,0.873777 0.387563,1.547823 0.577053,2.99841 0.429865,4.59459 -0.152864,1.177327 -0.48103,2.263796 -0.935761,3.363978 0.120359,0.0039 0.523236,-0.255167 0.63434,-0.332401 0.850244,-0.882817 1.683924,-1.789036 2.394039,-2.790428 0.306026,-0.490575 0.611895,-0.975406 0.923493,-1.460097 0.414662,-0.894812 0.593185,-1.962449 0.769024,-2.932661 0.07814,-0.754946 0.1219,-1.510849 0.148613,-2.272951 l 0,0 z"
         id="path4025"
         style="fill:url(#radialGradient4098);fill-opacity:1;stroke:#000000;stroke-width:0.5;stroke-miterlimit:4;stroke-opacity:1;stroke-dasharray:none" />
    </g>
    <rect
       ry="25"
       rx="25"
       id="rect3003"
       style="opacity:0.15;fill:#ffffff;fill-opacity:1"
       height="92"
       width="92"
       y="958.36218"
       x="-96"
       clip-path="url(#clipPath3009)"
       transform="translate(98,0)" />
  </g>
</svg>
