<?xml version="1.0" encoding="UTF-8" standalone="no"?>
<!-- Created with Inkscape (http://www.inkscape.org/) -->

<svg
   xmlns:dc="http://purl.org/dc/elements/1.1/"
   xmlns:cc="http://creativecommons.org/ns#"
   xmlns:rdf="http://www.w3.org/1999/02/22-rdf-syntax-ns#"
   xmlns:svg="http://www.w3.org/2000/svg"
   xmlns="http://www.w3.org/2000/svg"
   xmlns:xlink="http://www.w3.org/1999/xlink"
   xmlns:sodipodi="http://sodipodi.sourceforge.net/DTD/sodipodi-0.dtd"
   xmlns:inkscape="http://www.inkscape.org/namespaces/inkscape"
   width="96"
   height="96"
   id="svg11037"
   version="1.1"
   inkscape:version="0.48.3.1 r9886"
   sodipodi:docname="xonotic.svg">
  <defs
     id="defs11039">
    <linearGradient
       y2="1046.1001"
       x2="47.999954"
       y1="962.62189"
       x1="47.999954"
       gradientTransform="matrix(1.15,0,0,1.15,-7.1999462,-150.65291)"
       gradientUnits="userSpaceOnUse"
       id="linearGradient3886"
       xlink:href="#linearGradient3795"
       inkscape:collect="always" />
    <linearGradient
       id="linearGradient3795">
      <stop
         style="stop-color:#13a6fd;stop-opacity:1;"
         offset="0"
         id="stop3797" />
      <stop
         style="stop-color:#2975b6;stop-opacity:1;"
         offset="1"
         id="stop3799" />
    </linearGradient>
    <linearGradient
       y2="1046.1001"
       x2="47.999954"
       y1="962.62189"
       x1="47.999954"
       gradientTransform="matrix(1.15,0,0,1.15,-7.1999462,-150.65292)"
       gradientUnits="userSpaceOnUse"
       id="linearGradient11642"
       xlink:href="#linearGradient3795"
       inkscape:collect="always" />
    <clipPath
       clipPathUnits="userSpaceOnUse"
       id="clipPath3009">
      <path
         id="path3011"
         d="m -2,956.36218 -96,0 0,33.5624 96,25.68742 0,-59.24982 z"
         style="opacity:0.15;fill:#ffffff;fill-opacity:1;stroke:none"
         inkscape:connector-curvature="0" />
    </clipPath>
    <radialGradient
       cx="46.965466"
       cy="70.29435"
       r="42"
       fx="46.965466"
       fy="70.29435"
       id="radialGradient21342"
       xlink:href="#linearGradient21344"
       gradientUnits="userSpaceOnUse"
       gradientTransform="matrix(1.7327983,-0.00566976,0.00584215,1.785544,-18.428473,-61.492883)" />
    <linearGradient
       id="linearGradient21344">
      <stop
         id="stop21346"
         style="stop-color:#06185c;stop-opacity:1"
         offset="0" />
      <stop
         id="stop21348"
         style="stop-color:#000000;stop-opacity:1"
         offset="1" />
    </linearGradient>
    <radialGradient
       r="42"
       fy="70.29435"
       fx="46.965466"
       cy="70.29435"
       cx="46.965466"
       gradientTransform="matrix(1.7327983,-0.00566976,0.00584215,1.785544,-18.428473,-61.492883)"
       gradientUnits="userSpaceOnUse"
       id="radialGradient3110"
       xlink:href="#linearGradient21344"
       inkscape:collect="always" />
    <clipPath
       clipPathUnits="userSpaceOnUse"
       id="clipPath3020">
      <rect
         x="7.7500005"
         y="7.75"
         width="80.5"
         height="80.5"
         style="opacity:0.6;fill:#000000;fill-opacity:1"
         id="rect3022"
         rx="21.875"
         ry="21.875" />
    </clipPath>
    <radialGradient
       cx="31.148031"
       cy="48.389568"
       r="27.332127"
       fx="31.148031"
       fy="48.389568"
       id="radialGradient21399"
       xlink:href="#linearGradient21393"
       gradientUnits="userSpaceOnUse"
       gradientTransform="matrix(1.1022622,-0.00434741,0.00562249,0.73920407,-3.4573371,13.021751)" />
    <linearGradient
       id="linearGradient21393">
      <stop
         id="stop21395"
         style="stop-color:#643112;stop-opacity:1"
         offset="0" />
      <stop
         id="stop21397"
         style="stop-color:#4f270e;stop-opacity:0"
         offset="1" />
    </linearGradient>
    <radialGradient
       cx="25.939386"
       cy="71.050659"
       r="30.109375"
       fx="25.939386"
       fy="71.050659"
       id="radialGradient21309"
       xlink:href="#linearGradient21303"
       gradientUnits="userSpaceOnUse"
       gradientTransform="matrix(1.9449646,0,0,1.221069,-24.511803,-10.393698)" />
    <linearGradient
       id="linearGradient21303">
      <stop
         id="stop21305"
         style="stop-color:#000e1e;stop-opacity:1"
         offset="0" />
      <stop
         id="stop21307"
         style="stop-color:#0057b9;stop-opacity:1"
         offset="1" />
    </linearGradient>
    <linearGradient
       x1="209.58415"
       y1="39.001011"
       x2="208"
       y2="74.169327"
       id="linearGradient21377"
       xlink:href="#linearGradient21371"
       gradientUnits="userSpaceOnUse"
       gradientTransform="translate(-180.37332,-9.9248728)" />
    <linearGradient
       id="linearGradient21371">
      <stop
         id="stop21373"
         style="stop-color:#410c00;stop-opacity:1"
         offset="0" />
      <stop
         id="stop21375"
         style="stop-color:#100300;stop-opacity:1"
         offset="1" />
    </linearGradient>
  </defs>
  <sodipodi:namedview
     id="base"
     pagecolor="#ffffff"
     bordercolor="#666666"
     borderopacity="1.0"
     inkscape:pageopacity="0.0"
     inkscape:pageshadow="2"
     inkscape:zoom="3.959798"
     inkscape:cx="45.16662"
     inkscape:cy="58.119874"
     inkscape:document-units="px"
     inkscape:current-layer="layer1"
     showgrid="false"
     inkscape:window-width="1366"
     inkscape:window-height="684"
     inkscape:window-x="0"
     inkscape:window-y="26"
     inkscape:window-maximized="1"
     showguides="true"
     inkscape:guide-bbox="true">
    <sodipodi:guide
       orientation="0,1"
       position="-24.748737,0"
       id="guide11064" />
    <sodipodi:guide
       orientation="0,1"
       position="-23.233509,96"
       id="guide11066" />
    <sodipodi:guide
       orientation="1,0"
       position="0,54.800776"
       id="guide11068" />
    <sodipodi:guide
       orientation="1,0"
       position="96,51.012704"
       id="guide11070" />
    <sodipodi:guide
       orientation="0,1"
       position="-18.94036,48"
       id="guide11072" />
    <sodipodi:guide
       orientation="1,0"
       position="48,79.296975"
       id="guide11074" />
    <sodipodi:guide
       orientation="1,0"
       position="2,75.508903"
       id="guide11076" />
    <sodipodi:guide
       orientation="0,1"
       position="-77.27667,2"
       id="guide11078" />
    <sodipodi:guide
       orientation="1,0"
       position="94,77.781746"
       id="guide11080" />
    <sodipodi:guide
       orientation="0,1"
       position="-65.912454,94"
       id="guide11082" />
  </sodipodi:namedview>
  <metadata
     id="metadata11042">
    <rdf:RDF>
      <cc:Work
         rdf:about="">
        <dc:format>image/svg+xml</dc:format>
        <dc:type
           rdf:resource="http://purl.org/dc/dcmitype/StillImage" />
        <dc:title />
      </cc:Work>
    </rdf:RDF>
  </metadata>
  <g
     inkscape:label="Layer 1"
     inkscape:groupmode="layer"
     id="layer1"
     transform="translate(0,-956.36218)">
    <g
       transform="matrix(1.1428571,0,0,1.1428571,-6.8571429,949.50504)"
       id="layer1-0"
       style="display:inline"
       clip-path="url(#clipPath3020)">
      <rect
         width="84"
         height="84"
         rx="6"
         ry="6"
         x="6"
         y="6"
         id="rect2419-3"
         style="fill:url(#radialGradient3110);fill-opacity:1;fill-rule:nonzero;stroke:none" />
    </g>
    <g
       transform="matrix(1,0,0,1.0111034,1.1832735,954.70521)"
       id="g3112">
      <path
         inkscape:connector-curvature="0"
         style="fill:url(#radialGradient21399);fill-opacity:1;stroke:none"
         id="path21391"
         transform="matrix(1.0020492,0,0,1.3370536,-2.5915385,-28.439551)"
         d="M 62.057369,51.6413 A 27.332127,25.091789 0 1 1 61.613493,47.137592" />
      <path
         inkscape:connector-curvature="0"
         style="opacity:0.2;fill:#f7701a;fill-opacity:1;stroke:none"
         id="path21389"
         d="m 28.28422,80.669589 c 2.661961,-0.113788 2.293444,-8.376547 7.599492,-9.933799 8.836156,-2.593289 24.078888,-12.422738 20.05164,-13.38415 -4.995938,-1.19266 -9.83147,4.087728 -15.659823,-2.310064 -6.107954,-6.70471 0.974194,-12.268585 6.458065,-15.613512 5.527636,-3.371623 9.897189,-9.883153 6.786901,-10.611263 -4.446285,-1.040863 -9.294654,-0.212049 -9.294654,-0.212049 0,0 0.701084,1.455977 6.77137,0.474671 5.486517,-0.886936 2.902848,-4.715009 2.902848,-4.715009 0,0 -3.603134,-6.319523 -8.217994,-5.699954 -4.4515,0.597638 -6.337768,-0.584051 -7.529022,-1.279698 -1.191267,-0.695646 -7.430942,0.785539 -17.953746,7.56809 C 9.6764928,31.735403 5.0845645,39.05024 5.0845645,39.05024 L 12.877043,38.235065 5.4855711,46.758012 12.271647,45.52247 c 0,0 -3.137964,4.55723 -5.7790427,8.286178 -2.636172,3.722023 -0.9660224,9.581836 -0.9660224,9.581836 0,0 4.1919151,3.536437 9.7165461,5.283989 5.433587,1.718751 6.444803,2.860924 8.740532,5.340614 2.348457,2.536636 1.638598,6.768291 4.30056,6.654502 z" />
      <path
         inkscape:connector-curvature="0"
         style="opacity:0.3;fill:#f7701a;fill-opacity:1;stroke:none"
         id="path21387"
         d="m 27.693609,80.907253 c 2.523877,-0.111781 2.174476,-8.228757 7.205284,-9.758534 8.377798,-2.547535 22.829845,-12.20356 19.011502,-13.14801 -4.736784,-1.171617 -10.222673,3.470935 -15.748692,-2.813979 -5.791116,-6.586417 2.255012,-14.000628 7.980113,-16.664056 5.60027,-2.605356 9.808618,-8.553355 5.478988,-8.553355 -4.329615,0 -8.812513,-0.208308 -8.812513,-0.208308 0,0 0.717819,0.494944 6.473222,-0.469049 5.201915,-0.871287 4.239157,-3.696475 4.239157,-3.696475 0,0 -4.053466,-6.593168 -8.42894,-5.98453 -4.220588,0.587093 -6.221422,-0.243625 -7.350882,-0.926998 -1.129473,-0.683373 -7.364097,0.93674 -17.341052,7.599624 C 10.422841,32.946468 5.5471893,40.7225 5.5471893,40.7225 l 7.5384577,-1.501086 -7.6839473,8.839437 7.1099553,-1.680606 c 0,0 -2.9751893,4.476825 -5.4792668,8.139982 -2.4994263,3.656354 -0.9159122,9.412781 -0.9159122,9.412781 0,0 3.974468,3.474043 9.21252,5.190762 5.151731,1.688427 6.110492,2.810448 8.287135,5.246388 2.226636,2.491881 1.553599,6.648876 4.077478,6.537095 z" />
      <path
         inkscape:connector-curvature="0"
         style="opacity:0.45;fill:#f7701a;fill-opacity:1;stroke:none"
         id="path21385"
         d="m 25.973206,81.01934 c 2.378141,-0.108219 2.048914,-7.966542 6.789228,-9.447571 7.894038,-2.466356 21.933773,-10.73021 18.335914,-11.644564 -4.463268,-1.134283 -11.004518,1.950514 -15.261509,-5.327048 -4.25699,-7.277563 5.975775,-15.50109 11.370291,-18.079646 5.276893,-2.522335 6.341201,-5.683508 2.261578,-5.683508 -4.07961,0 -9.253589,0.665909 -9.253589,0.665909 0,0 1.12857,-2.731498 6.627182,-2.731498 5.498613,0 5.894251,-2.711105 5.894251,-2.711105 0,0 -6.014494,-6.957079 -9.916738,-5.468486 -3.902243,1.488592 -3.967605,-0.06389 -5.031847,-0.725484 -1.064253,-0.661597 -8.336614,1.819389 -17.737468,8.269956 C 10.649644,34.586861 5.2111385,42.223552 5.2111385,42.223552 l 6.9976145,-1.5617 -6.5014108,8.774656 5.9605638,-1.843946 c 0,0 -2.4867474,5.527089 -4.8462312,9.073516 -2.3551016,3.539842 -1.1796707,7.919915 -1.1796707,7.919915 0,0 3.7449692,3.363339 8.6805609,5.025353 4.854253,1.634625 5.757652,2.720892 7.808609,5.079209 2.098063,2.412475 1.46389,6.437004 3.842032,6.328785 z" />
      <path
         inkscape:connector-curvature="0"
         style="opacity:0.07999998;fill:#0057b9;fill-opacity:1;stroke:none"
         id="path21340"
         d="M 41.179783,4.3808536 C 47.009495,9.412257 51.213863,16.813826 52.611789,25.464477 l 0.48762,6.136731 c 0,16.758385 -10.845724,29.749903 -24.922853,34.268484 -1.819664,0.584088 -3.46713,9.361982 -5.385781,9.361982 -2.310685,0 -3.992089,-8.618828 -6.154585,-9.453121 -3.9991,-1.542857 -7.7541128,-3.726454 -11.052746,-6.470911 l 0,11.605108 c 5.077323,3.159428 11.12946,6.060116 17.373134,6.060116 19.340239,0 34.829412,-18.402696 34.829412,-39.751383 L 57.217097,30.294875 C 55.385334,19.212596 49.369154,9.979333 41.179783,4.3808536 z" />
      <path
         inkscape:connector-curvature="0"
         style="opacity:0.15;fill:#0057b9;fill-opacity:1;stroke:none"
         id="path21338"
         d="M 41.984363,5.7250566 C 47.964189,10.75646 52.276818,18.158029 53.710741,26.80868 l 0.500176,6.136731 c 0,16.758385 -11.124999,29.749903 -25.564611,34.268484 -1.86652,0.584088 -3.556408,9.361982 -5.524463,9.361982 -2.370185,0 -4.094885,-8.618828 -6.313064,-9.453121 C 12.706703,65.579899 8.8549993,63.396302 5.4714271,60.651845 l 0,11.605108 c 5.2080629,3.159428 11.4160409,6.060116 17.8204879,6.060116 19.838246,0 35.726261,-18.402696 35.726261,-39.751383 L 58.434634,31.639078 C 56.555704,20.556799 50.384609,11.323536 41.984363,5.7250566 z" />
      <path
         inkscape:connector-curvature="0"
         style="opacity:0.25;fill:#0057b9;fill-opacity:1;stroke:none"
         id="path21336"
         d="m 42.790911,6.9131755 c 6.085972,5.0314035 10.475154,12.4329725 11.93453,21.0836235 l 0.509055,6.136731 c 0,16.758385 -11.322477,29.749903 -26.018403,34.268484 -1.899652,0.584088 -3.619536,9.361982 -5.622526,9.361982 -2.412257,0 -4.167572,-8.618828 -6.425126,-9.453121 -4.17489,-1.542857 -8.0949649,-3.726454 -11.5385981,-6.470911 l 0,11.605108 c 5.3005101,3.159428 11.6186841,6.060116 18.1368151,6.060116 20.19039,0 36.360429,-18.402696 36.360429,-39.751383 l -0.5939,-6.926608 C 57.620904,21.744918 51.340268,12.511655 42.790911,6.9131755 z" />
      <path
         inkscape:connector-curvature="0"
         style="opacity:0.35294118;fill:#0057b9;fill-opacity:1;stroke:none"
         id="path21334"
         d="M 43.493054,7.9824824 C 49.694018,13.013886 54.166132,20.415455 55.653082,29.066106 l 0.518673,6.136731 c 0,16.758385 -11.53641,29.749903 -26.51001,34.268484 -1.935545,0.584088 -3.687925,9.361982 -5.728761,9.361982 -2.457835,0 -4.246316,-8.618828 -6.546526,-9.453121 C 13.132685,67.837325 9.1385422,65.653728 5.6298429,62.909271 l 0,11.605108 c 5.4006611,3.159428 11.8382141,6.060116 18.4795031,6.060116 20.571879,0 37.047444,-18.402696 37.047444,-39.751383 L 60.551669,33.896504 C 58.603254,22.814225 52.203948,13.580962 43.493054,7.9824824 z" />
      <path
         inkscape:connector-curvature="0"
         style="opacity:0.45;fill:#0057b9;fill-opacity:1;stroke:none"
         id="path21332"
         d="M 44.483476,9.2146685 C 50.828299,14.246072 55.404164,21.647641 56.92561,30.298292 l 0.530706,6.136731 c 0,16.758385 -11.804048,29.749903 -27.125028,34.268484 -1.980448,0.584088 -3.773482,9.361982 -5.861665,9.361982 -2.514855,0 -4.344828,-8.618828 -6.698402,-9.453121 C 13.418763,69.069511 9.331959,66.885914 5.7418598,64.141457 l 0,11.605108 c 5.5259532,3.159428 12.1128532,6.060116 18.9082172,6.060116 21.049135,0 37.906924,-18.402696 37.906924,-39.751383 L 61.937842,35.12869 C 59.944224,24.046411 53.396458,14.813148 44.483476,9.2146685 z" />
      <path
         inkscape:connector-curvature="0"
         style="opacity:0.08597286;fill:#50a3ff;fill-opacity:1;stroke:none"
         id="path21330"
         d="m 50.78947,13.214468 c 6.990286,5.320465 12.031657,13.147265 13.70788,22.294907 l 0.584696,6.489295 c 0,17.721176 -13.004884,31.459075 -29.884478,36.237255 -2.18192,0.617644 -6.85248,6.208452 -9.153097,6.208452 -2.770691,0 -2.091709,-5.422603 -4.684715,-6.304828 C 16.56452,76.508052 12.061962,74.199004 8.1066391,71.296876 l 0,12.271836 c 6.0881129,3.340941 13.1076419,5.236412 20.5943039,5.236412 23.190478,0 42.000684,-18.288089 42.000684,-40.863287 L 70.019481,40.617286 C 67.82305,28.898315 60.609176,19.134588 50.78947,13.214468 z" />
      <path
         inkscape:connector-curvature="0"
         style="opacity:0.1;fill:#50a3ff;fill-opacity:1;stroke:none"
         id="path21299"
         d="m 49.997391,12.184765 c 6.990286,5.320465 12.031657,13.147265 13.70788,22.294907 l 0.584696,6.489295 c 0,17.721176 -13.004884,31.459075 -29.884478,36.237255 -2.18192,0.617644 -6.85248,6.208452 -9.153097,6.208452 -2.770691,0 -2.091709,-5.422603 -4.684715,-6.304828 -4.795236,-1.631497 -9.297794,-3.940545 -13.2531171,-6.842673 l 0,12.271836 c 6.0881131,3.340941 13.1076421,5.236412 20.5943041,5.236412 23.190478,0 42.000684,-18.288089 42.000684,-40.863287 L 69.227402,39.587583 C 67.030971,27.868612 59.817097,18.104885 49.997391,12.184765 z" />
      <path
         inkscape:connector-curvature="0"
         style="opacity:0.2;fill:#258bff;fill-opacity:1;stroke:none"
         id="path21297"
         d="m 49.0865,11.313478 c 6.990286,5.320465 12.031657,13.147265 13.70788,22.294907 l 0.584696,6.489295 c 0,17.721176 -13.004884,31.459075 -29.884478,36.237255 -2.18192,0.617644 -5.508277,6.880553 -7.808894,6.880553 -2.770691,0 -3.435912,-6.094704 -6.028918,-6.976929 C 14.86155,74.607062 10.358992,72.298014 6.4036688,69.395886 l 0,12.271836 c 6.0881132,3.340941 13.1076422,5.236412 20.5943042,5.236412 23.190478,0 42.000684,-18.288089 42.000684,-40.863287 L 68.316511,38.716296 C 66.12008,26.997325 58.906206,17.233598 49.0865,11.313478 z" />
      <path
         inkscape:connector-curvature="0"
         style="opacity:0.3;fill:#258bff;fill-opacity:1;stroke:none"
         id="path21295"
         d="m 48.056797,10.679815 c 6.990286,5.320465 12.031657,13.147265 13.70788,22.294907 l 0.584696,6.489295 c 0,17.721176 -13.004884,31.459075 -29.884478,36.237255 -2.18192,0.617644 -4.500125,7.104588 -6.800742,7.104588 -2.770691,0 -4.444064,-6.318739 -7.03707,-7.200964 C 13.831847,73.973399 9.3292888,71.664351 5.3739658,68.762223 l 0,12.271836 C 11.462079,84.375 18.481608,86.270471 25.96827,86.270471 c 23.190478,0 42.000684,-18.288089 42.000684,-40.863287 L 67.286808,38.082633 C 65.090377,26.363662 57.876503,16.599935 48.056797,10.679815 z" />
      <path
         inkscape:connector-curvature="0"
         style="opacity:0.4;fill:#ffffff;fill-opacity:1;stroke:none"
         id="path21293"
         d="m 47.450565,10.798827 c 6.824996,5.230703 11.747161,12.925457 13.383748,21.91877 l 0.570871,6.379814 c 0,17.422203 -12.697374,30.92833 -29.177839,35.625897 -2.130327,0.607224 -4.286997,8.503827 -6.533213,8.503827 -2.705177,0 -4.445702,-7.731236 -6.977394,-8.598576 C 14.034889,73.024587 9.6387967,70.754495 5.7770004,67.901328 l 0,12.064799 c 5.9441556,3.284576 12.7977026,5.148068 20.1073366,5.148068 22.642123,0 41.007549,-17.979551 41.007549,-40.173884 L 66.22587,37.739332 C 64.081375,26.218072 57.038078,16.619068 47.450565,10.798827 z" />
      <path
         inkscape:connector-curvature="0"
         style="opacity:0.64253396;fill:#c6d9ff;fill-opacity:1;stroke:none"
         id="path21301"
         d="M 46.046279,9.8483319 C 52.641291,14.934083 57.397592,22.415602 58.979031,31.159695 l 0.551634,6.203019 c 0,16.939404 -12.269507,30.071253 -28.194625,34.638642 -2.058541,0.590397 -3.922277,9.463108 -6.092802,9.463108 -2.61402,0 -4.516153,-8.711927 -6.962534,-9.555231 C 13.75662,70.34971 9.5086647,68.142526 5.7770004,65.368425 l 0,11.730463 c 5.7438536,3.193555 12.5904886,6.125575 19.6538076,6.125575 21.879145,0 39.401672,-18.601476 39.401672,-40.180766 L 64.188907,36.04227 C 62.116676,24.840283 55.310719,15.507284 46.046279,9.8483319 z" />
      <path
         inkscape:connector-curvature="0"
         style="opacity:0.76470588;fill:#f7701a;fill-opacity:1;stroke:none"
         id="path21381"
         d="m 25.284663,81.355434 c 2.273612,-0.106042 1.958856,-7.806299 6.490814,-9.257538 7.547064,-2.416747 20.755509,-10.733905 17.315791,-11.629867 -4.26709,-1.111468 -10.306639,2.130808 -14.376518,-5.00037 -4.069878,-7.131178 5.713116,-17.055278 10.870521,-19.581967 5.044952,-2.4716 6.06248,-3.703203 2.162173,-3.703203 -3.900295,0 -9.810697,0.432987 -9.810697,0.432987 0,0 2.792458,-4.981594 8.049384,-4.981594 5.256926,0 5.742268,-1.11988 5.742268,-1.11988 0,0 -6.499786,-6.378087 -10.23051,-4.919436 -3.730724,1.45865 -3.900307,0.486217 -4.917771,-0.162072 -1.017475,-0.648289 -7.970186,1.782793 -16.957835,8.10361 C 10.634633,35.85692 5.4351723,43.340003 5.4351723,43.340003 l 6.6900407,-1.530287 -6.1085538,8.378631 5.5914798,-1.587329 c 0,0 -2.2703519,6.403788 -4.5261266,9.878881 -2.2515855,3.46864 -1.2349128,6.772736 -1.2349128,6.772736 0,0 3.580363,3.295687 8.2990154,4.924271 4.640889,1.601745 5.50458,2.666163 7.465389,4.977043 2.005845,2.36395 1.399546,6.307527 3.673159,6.201485 z" />
      <path
         inkscape:connector-curvature="0"
         style="fill:url(#radialGradient21309);fill-opacity:1;stroke:none"
         id="path21286"
         d="m 46.75,10.25 c 6.72492,5.175513 11.57491,12.789078 13.1875,21.6875 L 60.5,38.25 c 0,17.238377 -12.511191,30.601998 -28.75,35.25 -2.09909,0.600817 -4.113762,9.744121 -6.327042,9.744121 -2.66551,0 -4.490888,-8.979682 -6.985458,-9.837871 C 13.824302,71.819202 9.4926705,69.573062 5.6875,66.75 l 0,11.9375 c 5.856995,3.24992 12.610048,5.09375 19.8125,5.09375 22.310119,0 40.40625,-17.789845 40.40625,-39.75 L 65.25,36.90625 C 63.13695,25.506553 56.19693,16.008831 46.75,10.25 z" />
      <path
         inkscape:connector-curvature="0"
         style="fill:url(#linearGradient21377);fill-opacity:1;stroke:none"
         id="path21369"
         d="m 25.250429,80.688987 c 1.532,-0.10365 1.669,-7.426324 5.94622,-8.693651 4.27723,-1.267327 19.685259,-10.104642 16.471959,-10.98039 -3.98621,-1.086393 -10.220159,1.773052 -14.022139,-5.197245 -3.80198,-6.970297 4.96708,-17.289876 9.785,-19.759562 4.71287,-2.415841 6.03339,-3.000291 2.38982,-3.000291 -3.64356,0 -9.16491,0.423219 -9.16491,0.423219 0,0 2.53465,-6.495049 7.44554,-6.495049 4.91089,0 6.17822,-0.475248 6.17822,-0.475248 0,0 -6.81188,-5.227723 -10.29703,-3.80198 -3.48515,1.425743 -3.64357,0.475248 -4.59406,-0.158416 -0.9505,-0.633663 -7.44555,1.742574 -15.84159,7.920792 C 11.151419,36.649384 6.5161944,42.724911 6.5161944,42.724911 L 14.319739,40.60978 6.5414457,49.80586 12.874779,47.170448 c 0,0 -2.54591,8.496798 -5.0421301,11.591536 -2.54734,3.158124 -2.0415541,5.61347 -2.0415541,5.61347 0,0 4.1586214,4.38265 8.6406642,5.819651 4.385106,1.405922 5.6602,2.373751 7.49194,4.632497 1.87381,2.310619 1.79473,5.965045 3.32673,5.861385 z" />
      <path
         inkscape:connector-curvature="0"
         style="opacity:0.1;fill:#f48a46;fill-opacity:1;stroke:none"
         id="path21407"
         d="m 25.014853,29.766212 c 0,0 5.536869,-5.521526 7.285362,-3.943945 1.748478,1.577577 4.808334,2.208607 2.18559,4.101701 -2.62272,1.893097 -3.20555,2.997404 -5.391157,2.524127 -2.185608,-0.473271 -4.079795,-2.681883 -4.079795,-2.681883 z" />
      <path
         inkscape:connector-curvature="0"
         style="opacity:0.2;fill:#f48a46;fill-opacity:1;stroke:none"
         id="path21405"
         d="m 25.4901,29.653213 c 0,0 4.951619,-4.804931 6.515296,-3.432092 1.563662,1.372836 4.30009,1.92197 1.954572,3.569374 -2.345498,1.647407 -2.866722,2.608394 -4.821309,2.19654 C 27.184071,31.575186 25.4901,29.653213 25.4901,29.653213 z" />
      <path
         inkscape:connector-curvature="0"
         style="opacity:0.3;fill:#f48a46;fill-opacity:1;stroke:none"
         id="path21403"
         d="m 26.282179,29.579817 c 0,0 4.240959,-4.088335 5.580215,-2.920238 1.339244,1.168094 3.682938,1.635332 1.674051,3.037046 -2.008871,1.401717 -2.455288,2.219385 -4.129351,1.868954 -1.674065,-0.350428 -3.124915,-1.985762 -3.124915,-1.985762 z" />
      <path
         inkscape:connector-curvature="0"
         style="opacity:0.4;fill:#f48a46;fill-opacity:1;stroke:none"
         id="path21401"
         d="m 26.955446,29.529816 c 0,0 3.613906,-3.247114 4.755144,-2.319366 1.141228,0.927746 3.138392,1.298844 1.426532,2.41214 -1.711846,1.113298 -2.092258,1.762721 -3.5188,1.484395 -1.426544,-0.278324 -2.662876,-1.577169 -2.662876,-1.577169 z" />
      <path
         inkscape:connector-curvature="0"
         style="fill:#a76031;fill-opacity:1;stroke:#f57524;stroke-width:0.42485923;stroke-miterlimit:4;stroke-opacity:1;stroke-dasharray:none"
         id="path21379"
         d="m 27.905942,29.376294 c 0,0 2.715129,-2.218954 3.572542,-1.584967 0.857405,0.633987 2.357875,0.887581 1.071754,1.648366 -1.286111,0.760785 -1.571914,1.204576 -2.643676,1.014379 -1.071763,-0.190196 -2.00062,-1.077778 -2.00062,-1.077778 z" />
    </g>
    <rect
       ry="25"
       rx="25"
       id="rect3003"
       style="opacity:0.15;fill:#ffffff;fill-opacity:1"
       height="92"
       width="92"
       y="958.36218"
       x="-96"
       clip-path="url(#clipPath3009)"
       transform="translate(98,0)" />
  </g>
</svg>
