<?xml version="1.0" encoding="UTF-8" standalone="no"?>
<!-- Created with Inkscape (http://www.inkscape.org/) -->

<svg
   xmlns:dc="http://purl.org/dc/elements/1.1/"
   xmlns:cc="http://creativecommons.org/ns#"
   xmlns:rdf="http://www.w3.org/1999/02/22-rdf-syntax-ns#"
   xmlns:svg="http://www.w3.org/2000/svg"
   xmlns="http://www.w3.org/2000/svg"
   xmlns:xlink="http://www.w3.org/1999/xlink"
   xmlns:sodipodi="http://sodipodi.sourceforge.net/DTD/sodipodi-0.dtd"
   xmlns:inkscape="http://www.inkscape.org/namespaces/inkscape"
   width="96"
   height="96"
   id="svg11037"
   version="1.1"
   inkscape:version="0.48.3.1 r9886"
   sodipodi:docname="xoscope.svg">
  <defs
     id="defs11039">
    <linearGradient
       y2="1046.1001"
       x2="47.999954"
       y1="962.62189"
       x1="47.999954"
       gradientTransform="matrix(1.15,0,0,1.15,-7.1999462,-150.65291)"
       gradientUnits="userSpaceOnUse"
       id="linearGradient3886"
       xlink:href="#linearGradient3795"
       inkscape:collect="always" />
    <linearGradient
       id="linearGradient3795">
      <stop
         style="stop-color:#13a6fd;stop-opacity:1;"
         offset="0"
         id="stop3797" />
      <stop
         style="stop-color:#2975b6;stop-opacity:1;"
         offset="1"
         id="stop3799" />
    </linearGradient>
    <linearGradient
       y2="1046.1001"
       x2="47.999954"
       y1="962.62189"
       x1="47.999954"
       gradientTransform="matrix(1.15,0,0,1.15,-7.1999462,-150.65292)"
       gradientUnits="userSpaceOnUse"
       id="linearGradient11642"
       xlink:href="#linearGradient3795"
       inkscape:collect="always" />
    <clipPath
       clipPathUnits="userSpaceOnUse"
       id="clipPath3009">
      <path
         id="path3011"
         d="m -2,956.36218 -96,0 0,33.5624 96,25.68742 0,-59.24982 z"
         style="opacity:0.15;fill:#ffffff;fill-opacity:1;stroke:none"
         inkscape:connector-curvature="0" />
    </clipPath>
    <linearGradient
       inkscape:collect="always"
       xlink:href="#linearGradient3807"
       id="linearGradient3079"
       gradientUnits="userSpaceOnUse"
       x1="48"
       y1="90"
       x2="48"
       y2="5.9877172" />
    <linearGradient
       id="linearGradient3807">
      <stop
         offset="0"
         style="stop-color:#0f0f0f;stop-opacity:1;"
         id="stop3809" />
      <stop
         offset="1"
         style="stop-color:#494949;stop-opacity:1;"
         id="stop3811" />
    </linearGradient>
    <linearGradient
       gradientTransform="matrix(1.1428571,0,0,1.1428571,-6.8571429,949.50504)"
       y2="5.9877172"
       x2="48"
       y1="90"
       x1="48"
       gradientUnits="userSpaceOnUse"
       id="linearGradient3055"
       xlink:href="#linearGradient3807"
       inkscape:collect="always" />
    <clipPath
       clipPathUnits="userSpaceOnUse"
       id="clipPath3018">
      <rect
         x="2"
         y="958.36218"
         width="92"
         height="92"
         style="opacity:0.6;fill:#000000;fill-opacity:1"
         id="rect3020"
         rx="25"
         ry="25" />
    </clipPath>
  </defs>
  <sodipodi:namedview
     id="base"
     pagecolor="#ffffff"
     bordercolor="#666666"
     borderopacity="1.0"
     inkscape:pageopacity="0.0"
     inkscape:pageshadow="2"
     inkscape:zoom="3.959798"
     inkscape:cx="26.102188"
     inkscape:cy="49.863109"
     inkscape:document-units="px"
     inkscape:current-layer="layer1"
     showgrid="false"
     inkscape:window-width="1366"
     inkscape:window-height="684"
     inkscape:window-x="0"
     inkscape:window-y="26"
     inkscape:window-maximized="1"
     showguides="true"
     inkscape:guide-bbox="true">
    <sodipodi:guide
       orientation="0,1"
       position="-24.748737,0"
       id="guide11064" />
    <sodipodi:guide
       orientation="0,1"
       position="-23.233509,96"
       id="guide11066" />
    <sodipodi:guide
       orientation="1,0"
       position="0,54.800776"
       id="guide11068" />
    <sodipodi:guide
       orientation="1,0"
       position="96,51.012704"
       id="guide11070" />
    <sodipodi:guide
       orientation="0,1"
       position="-18.94036,48"
       id="guide11072" />
    <sodipodi:guide
       orientation="1,0"
       position="48,79.296975"
       id="guide11074" />
    <sodipodi:guide
       orientation="1,0"
       position="2,75.508903"
       id="guide11076" />
    <sodipodi:guide
       orientation="0,1"
       position="-77.27667,2"
       id="guide11078" />
    <sodipodi:guide
       orientation="1,0"
       position="94,77.781746"
       id="guide11080" />
    <sodipodi:guide
       orientation="0,1"
       position="-65.912454,94"
       id="guide11082" />
  </sodipodi:namedview>
  <metadata
     id="metadata11042">
    <rdf:RDF>
      <cc:Work
         rdf:about="">
        <dc:format>image/svg+xml</dc:format>
        <dc:type
           rdf:resource="http://purl.org/dc/dcmitype/StillImage" />
        <dc:title />
      </cc:Work>
    </rdf:RDF>
  </metadata>
  <g
     inkscape:label="Layer 1"
     inkscape:groupmode="layer"
     id="layer1"
     transform="translate(0,-956.36218)">
    <rect
       style="fill:url(#linearGradient3055);fill-opacity:1;fill-rule:nonzero;stroke:none"
       id="rect2419"
       y="956.36218"
       x="0"
       ry="6.8571429"
       rx="6.8571429"
       height="96"
       width="96"
       clip-path="url(#clipPath3018)" />
    <path
       inkscape:connector-curvature="0"
       style="font-size:medium;font-style:normal;font-variant:normal;font-weight:normal;font-stretch:normal;text-indent:0;text-align:start;text-decoration:none;line-height:normal;letter-spacing:normal;word-spacing:normal;text-transform:none;direction:ltr;block-progression:tb;writing-mode:lr-tb;text-anchor:start;baseline-shift:baseline;color:#000000;fill:#ffff00;fill-opacity:1;stroke:none;stroke-width:2.70000005;marker:none;visibility:visible;display:inline;overflow:visible;enable-background:accumulate;font-family:Sans;-inkscape-font-specification:Sans"
       d="m 53.8125,974.33093 a 1.350135,1.350135 0 0 0 -1.21875,1.28125 l 0,0.15625 -2.75,43.90627 -3.46875,-24.68752 a 1.350135,1.350135 0 0 0 -2.6875,-0.0625 l -2.59375,14.09372 -1.625,-4.9375 a 1.350135,1.350135 0 0 0 -2.625,0.2188 l -2.5,16.9062 -5.0625,-34.12497 a 1.350135,1.350135 0 0 0 -2.65625,-0.0312 l -3.375,19.62497 -17.25,0 0,2.7188 18.375,0 a 1.350135,1.350135 0 0 0 1.34375,-1.125 l 2.125,-12.46877 L 33,1030.5809 a 1.350135,1.350135 0 0 0 2.65625,0 l 3.03125,-20.25 1.5,4.5625 a 1.350135,1.350135 0 0 0 2.59375,-0.1562 l 2.0625,-11.1875 4.1875,29.6875 a 1.350135,1.350135 0 0 0 2.6875,-0.125 l 0,-0.25 2.21875,-35.62502 0.53125,8.25002 a 1.350135,1.350135 0 0 0 2.65625,0.2187 l 2.4375,-10.68747 2.71875,19.40627 a 1.350135,1.350135 0 0 0 2.65625,0.094 l 1.75,-7.8438 0.1875,1.5313 a 1.350135,1.350135 0 0 0 1.34375,1.1875 l 21.78125,0 0,-2.7188 -20.59375,0 -1.03125,-7.99997 a 1.350135,1.350135 0 0 0 -2.65625,-0.0937 l -1.8125,8.09377 -2.6875,-19.28127 a 1.350135,1.350135 0 0 0 -2.65625,-0.125 l -2,8.75 -1.28125,-20.25 0,-0.15625 a 1.350135,1.350135 0 0 0 -1.46875,-1.28125 z"
       id="path3036" />
    <rect
       ry="25"
       rx="25"
       id="rect3003"
       style="opacity:0.15;fill:#ffffff;fill-opacity:1"
       height="92"
       width="92"
       y="958.36218"
       x="-96"
       clip-path="url(#clipPath3009)"
       transform="translate(98,0)" />
  </g>
</svg>
