<?xml version="1.0" encoding="UTF-8" standalone="no"?>
<!-- Created with Inkscape (http://www.inkscape.org/) -->
<svg id="svg2" xmlns:rdf="http://www.w3.org/1999/02/22-rdf-syntax-ns#" xmlns="http://www.w3.org/2000/svg" height="24" width="24" version="1.0" xmlns:cc="http://creativecommons.org/ns#" xmlns:xlink="http://www.w3.org/1999/xlink" xmlns:dc="http://purl.org/dc/elements/1.1/">
 <defs id="defs4">
  <linearGradient id="linearGradient4105" y2="24.267" gradientUnits="userSpaceOnUse" x2="39.196" gradientTransform="translate(-4.0851 -4.5745)" y1="72" x1="39">
   <stop id="stop4083-3" style="stop-color:#aaa" offset="0"/>
   <stop id="stop4085-3" style="stop-color:#f0f0f0" offset="1"/>
  </linearGradient>
 </defs>
 <metadata id="metadata7">
  <rdf:RDF>
   <cc:Work rdf:about="">
    <dc:format>image/svg+xml</dc:format>
    <dc:type rdf:resource="http://purl.org/dc/dcmitype/StillImage"/>
    <dc:title/>
   </cc:Work>
  </rdf:RDF>
 </metadata>
 <g id="g4112" transform="matrix(.24966 0 0 .24966 1.0362 .90872)">
  <rect id="rect3799" style="opacity:.9;fill:#fff" height="36" width="28" y="25.426" x="7.9149"/>
  <path id="path3797" style="opacity:0.08" d="m7.9149 17.394c-4.9542 0-9.0312 4.077-9.0312 9.0312v36c0 4.9542 4.077 9.0312 9.0312 9.0312h66c4.9542 0 9.0312-4.077 9.0312-9.0312v-6.9688h0.96875c2.7526 0 5.0312-2.2787 5.0312-5.0312v-12c0-2.7526-2.2787-5.0312-5.0312-5.0312h-0.96875v-6.9688c0-4.9542-4.077-9.0312-9.0312-9.0312h-66zm4 12.062h58c0.6901 0 0.96875 0.27864 0.96875 0.96875v28c0 0.69011-0.27864 0.96875-0.96875 0.96875h-58c-0.69011 0-0.96875-0.27864-0.96875-0.96875v-28c0-0.6901 0.27864-0.96875 0.96875-0.96875z"/>
  <path id="path3793" style="opacity:.1" d="m7.9149 18.457c-4.3781 0-7.9688 3.5907-7.9688 7.9688v36c0 4.3781 3.5907 7.9688 7.9688 7.9688h66c4.3781 0 7.9688-3.5907 7.9688-7.9688v-8.0312h2.0312c2.1707 0 3.9688-1.7981 3.9688-3.9688v-12c0-2.1707-1.7981-3.9688-3.9688-3.9688h-2.0312v-8.0312c0-4.3781-3.5907-7.9688-7.9688-7.9688h-66zm4 9.9375h58c1.1884 0 2.0312 0.84288 2.0312 2.0312v28c0 1.1884-0.84288 2.0312-2.0312 2.0312h-58c-1.1884 0-2.0313-0.84288-2.0313-2.0312v-28c0-1.1884 0.84288-2.0312 2.0313-2.0312z"/>
  <path id="path3789" style="opacity:.15" d="m7.9149 19.394c-3.8714 0-7.0312 3.1598-7.0312 7.0312v36c0 3.8714 3.1598 7.0312 7.0312 7.0312h66c3.8714 0 7.0312-3.1598 7.0312-7.0312v-8.9688h2.9688c1.6533 0 3.0312-1.3779 3.0312-3.0312v-12c0-1.6533-1.3779-3.0312-3.0312-3.0312h-2.9688v-8.9688c0-3.8714-3.1598-7.0312-7.0312-7.0312h-66zm4 8.0625h58c1.6707 0 2.9688 1.2981 2.9688 2.9688v28c0 1.6707-1.2981 2.9688-2.9688 2.9688h-58c-1.6707 0-2.9688-1.2981-2.9688-2.9688v-28c0-1.6707 1.2981-2.9688 2.9688-2.9688z"/>
  <path id="path3783" style="opacity:.3" d="m7.9149 20.426c-3.3273 0-6 2.6727-6 6v36c0 3.3273 2.6727 6 6 6h66c3.3273 0 6-2.6727 6-6v-10h4c1.108 0 2-0.892 2-2v-12c0-1.108-0.892-2-2-2h-4v-10c0-3.3273-2.6727-6-6-6h-66zm4 6h58c2.216 0 4 1.784 4 4v28c0 2.216-1.784 4-4 4h-58c-2.216 0-4-1.784-4-4v-28c0-2.216 1.784-4 4-4z"/>
  <path id="rect2975" style="fill:url(#linearGradient4105)" d="m7.9149 19.426c-3.3273 0-6 2.6727-6 6v36c0 3.3273 2.6727 6 6 6h66c3.3273 0 6-2.6727 6-6v-10h4c1.108 0 2-0.892 2-2v-12c0-1.108-0.892-2-2-2h-4v-10c0-3.3273-2.6727-6-6-6h-66zm4 6h58c2.216 0 4 1.784 4 4v28c0 2.216-1.784 4-4 4h-58c-2.216 0-4-1.784-4-4v-28c0-2.216 1.784-4 4-4z"/>
  <path id="path3765" style="opacity:.75;fill:#fff" d="m7.9149 19.426c-3.3273 0-6 2.6727-6 6v1c0-3.3273 2.6727-6 6-6h66c3.3273 0 6 2.6727 6 6v-1c0-3.3273-2.6727-6-6-6h-66zm72 16v1h4c1.108 0 2 0.892 2 2v-1c0-1.108-0.892-2-2-2h-4zm-72 22v1c0 2.216 1.784 4 4 4h58c2.216 0 4-1.784 4-4v-1c0 2.216-1.784 4-4 4h-58c-2.216 0-4-1.784-4-4z"/>
  <path id="path3774" style="opacity:.15" d="m11.915 24.426c-2.216 0-4 1.784-4 4v1c0-2.216 1.784-4 4-4h58c2.216 0 4 1.784 4 4v-1c0-2.216-1.784-4-4-4h-58zm74 24c0 1.108-0.892 2-2 2h-4v1h4c1.108 0 2-0.892 2-2v-1zm-84 12v1c0 3.3273 2.6727 6 6 6h66c3.3273 0 6-2.6727 6-6v-1c0 3.3273-2.6727 6-6 6h-66c-3.3273 0-6-2.6727-6-6z"/>
 </g>
</svg>
