<?xml version="1.0" encoding="UTF-8" standalone="no"?>
<!-- Created with Inkscape (http://www.inkscape.org/) -->
<svg id="svg3225" xmlns="http://www.w3.org/2000/svg" height="24" width="24" version="1.0">
 <g id="g3615" style="opacity:.3" transform="translate(1,2)">
  <rect id="rect2819" style="stroke:#fff;stroke-width:.5;fill:none" ry=".38089" height="1.611" width="1.6234" y="7.2185" x="4.1457"/>
  <rect id="rect3593" style="stroke:#fff;stroke-width:.5;fill:none" ry=".38089" height="1.611" width="1.6234" y="7.2185" x="10.146"/>
  <rect id="rect3595" style="stroke:#fff;stroke-width:.5;fill:none" ry=".38089" height="1.611" width="1.6234" y="7.2185" x="16.146"/>
  <rect id="rect3597" style="stroke:#fff;stroke-width:.5;fill:none" ry=".38089" height="1.611" width="1.6234" y="10.219" x="4.1457"/>
  <rect id="rect3599" style="stroke:#fff;stroke-width:.5;fill:none" ry=".38089" height="1.611" width="1.6234" y="10.219" x="10.146"/>
  <rect id="rect3601" style="stroke:#fff;stroke-width:.5;fill:none" ry=".38089" height="1.611" width="1.6234" y="10.219" x="16.146"/>
  <rect id="rect3603" style="stroke:#fff;stroke-width:.5;fill:none" ry=".38089" height="1.611" width="1.6234" y="7.2185" x="7.146"/>
  <rect id="rect3605" style="stroke:#fff;stroke-width:.5;fill:none" ry=".38089" height="1.611" width="1.6234" y="10.219" x="7.146"/>
  <rect id="rect3607" style="stroke:#fff;stroke-width:.5;fill:none" ry=".38089" height="1.611" width="1.6234" y="7.2185" x="13.146"/>
  <rect id="rect3609" style="stroke:#fff;stroke-width:.5;fill:none" ry=".38089" height="1.611" width="1.6234" y="10.219" x="13.146"/>
  <rect id="rect3613" style="stroke:#fff;stroke-width:.5;fill:none" ry=".29126" height="1.5214" width="9.5337" y="13.241" x="6.2442"/>
 </g>
 <g id="layer1" transform="translate(0,1)">
  <path id="path3219" style="opacity:.6;fill-rule:evenodd;fill:#3a3935" d="m10.812 2c-0.476 0.0932-0.8184 0.5141-0.812 1v2h-5.7812c-1.7167 0-3.2188 1.2946-3.2188 3l3-1h16v10h-16v-10l-3 1v8c0 1.7054 1.5021 3 3.2188 3h15.562c1.717 0 3.219-1.295 3.219-3v-8c0-1.7054-1.502-3-3.219-3h-1.781v-1c-0.003-0.5511-0.449-0.9971-1-1h-2c-0.003-0.5511-0.449-0.9971-1-1h-3c-0.062-0.0058-0.125-0.0058-0.188 0z"/>
  <path id="rect2396" style="fill-rule:evenodd;fill:#eae3d0" d="m11 3v3h-6.7812c-1.2312 0-2.2188 0.892-2.2188 2v8c0 1.108 0.98764 2 2.2188 2h15.562c1.231 0 2.219-0.892 2.219-2v-8c0-1.108-0.988-2-2.219-2h-7.781v-2h1v1h4v-1h-3v-1h-3zm-5.5 5c-0.277 0-0.5 0.223-0.5 0.5v1c0 0.277 0.223 0.5 0.5 0.5h1c0.277 0 0.5-0.223 0.5-0.5v-1c0-0.277-0.223-0.5-0.5-0.5h-1zm3 0c-0.277 0-0.5 0.223-0.5 0.5v1c0 0.277 0.223 0.5 0.5 0.5h1c0.277 0 0.5-0.223 0.5-0.5v-1c0-0.277-0.223-0.5-0.5-0.5h-1zm3 0c-0.277 0-0.5 0.223-0.5 0.5v1c0 0.277 0.223 0.5 0.5 0.5h1c0.277 0 0.5-0.223 0.5-0.5v-1c0-0.277-0.223-0.5-0.5-0.5h-1zm3 0c-0.277 0-0.5 0.223-0.5 0.5v1c0 0.277 0.223 0.5 0.5 0.5h1c0.277 0 0.5-0.223 0.5-0.5v-1c0-0.277-0.223-0.5-0.5-0.5h-1zm3 0c-0.277 0-0.5 0.223-0.5 0.5v1c0 0.277 0.223 0.5 0.5 0.5h1c0.277 0 0.5-0.223 0.5-0.5v-1c0-0.277-0.223-0.5-0.5-0.5h-1zm-12 3c-0.277 0-0.5 0.223-0.5 0.5v1c0 0.277 0.223 0.5 0.5 0.5h1c0.277 0 0.5-0.223 0.5-0.5v-1c0-0.277-0.223-0.5-0.5-0.5h-1zm3 0c-0.277 0-0.5 0.223-0.5 0.5v1c0 0.277 0.223 0.5 0.5 0.5h1c0.277 0 0.5-0.223 0.5-0.5v-1c0-0.277-0.223-0.5-0.5-0.5h-1zm3 0c-0.277 0-0.5 0.223-0.5 0.5v1c0 0.277 0.223 0.5 0.5 0.5h1c0.277 0 0.5-0.223 0.5-0.5v-1c0-0.277-0.223-0.5-0.5-0.5h-1zm3 0c-0.277 0-0.5 0.223-0.5 0.5v1c0 0.277 0.223 0.5 0.5 0.5h1c0.277 0 0.5-0.223 0.5-0.5v-1c0-0.277-0.223-0.5-0.5-0.5h-1zm3 0c-0.277 0-0.5 0.223-0.5 0.5v1c0 0.277 0.223 0.5 0.5 0.5h1c0.277 0 0.5-0.223 0.5-0.5v-1c0-0.277-0.223-0.5-0.5-0.5h-1zm-10 3c-0.277 0-0.5 0.223-0.5 0.5v1c0 0.277 0.223 0.5 0.5 0.5h9c0.277 0 0.5-0.223 0.5-0.5v-1c0-0.277-0.223-0.5-0.5-0.5h-9z"/>
 </g>
</svg>
