<?xml version="1.0" encoding="UTF-8" standalone="no"?>
<!-- Created with Inkscape (http://www.inkscape.org/) -->
<svg id="svg3187" xmlns="http://www.w3.org/2000/svg" height="24" width="24" version="1.0">
 <path id="path3532" style="opacity:.6;fill:#3a3935;fill-rule:evenodd" d="m14.281 6.0314c-0.202 0.0356-0.388 0.134-0.531 0.2812l-7 7.0004c-0.2705 0.28-0.349 0.694-0.1997 1.053 0.1493 0.36 0.4978 0.597 0.8872 0.603h2.4375l-2.3125 4.594c-0.3021 0.448-0.1831 1.057 0.2656 1.359s1.0573 0.183 1.3594-0.266l6.9995-8c0.257-0.29 0.318-0.705 0.156-1.057-0.163-0.352-0.518-0.575-0.906-0.568h-1.562l1.469-3.6559c0.138-0.3285 0.087-0.7064-0.134-0.986-0.221-0.2797-0.577-0.4168-0.929-0.3577z"/>
 <path id="path2395" style="opacity:.6;stroke:#3a3935;stroke-linecap:round;fill:none" d="m13.025 4.5003c-1.147-0.0111-2.199 0.6201-2.78 1.4611-1.0241-0.6131-2.5284-0.0777-2.9107 0.921-0.3123 0.4716 0.238 1.0935-0.5105 1.2796-1.2812 0.8236-1.7043 2.471-0.9504 3.695 0.6043 1.07 1.9753 1.724 3.3263 1.635 2.0463-0.006 4.0943 0.011 6.1403-0.009 1.697-0.083 3.15-1.422 3.157-2.911 0.057-1.1831-0.824-2.311-2.051-2.7747 0.037-1.5141-1.216-3.0631-2.985-3.2703-0.145-0.0179-0.29-0.0267-0.436-0.0267z"/>
 <path id="path2397" style="fill-rule:evenodd;fill:#eae3d1" d="m13 5.0001c-1.126 0-2.081 0.5938-2.594 1.4688-0.289-0.206-0.6575-0.3125-1.0623-0.3125-0.92 0-1.6875 0.6177-1.6875 1.4062 0 0.1771 0.0562 0.3435 0.125 0.5-1.0463 0.4008-1.7812 1.3259-1.7812 2.3754 0 0.941 0.5892 1.718 1.4687 2.156l6.2813-6.2814c0.143-0.1472 0.329-0.2456 0.531-0.2812 0.352-0.0591 0.717 0.0641 0.938 0.3437 0.221 0.2797 0.263 0.6715 0.125 1l-1.469 3.6559h1.562c0.388-0.007 0.744 0.211 0.907 0.563 0.162 0.352 0.1 0.772-0.157 1.062l-0.156 0.188c1.142-0.361 1.969-1.298 1.969-2.406 0-1.1288-0.856-2.0899-2.031-2.4379 0.002-0.0488 0.031-0.1068 0.031-0.1562 0-1.5772-1.344-2.8438-3-2.8438z"/>
 <path id="path3528" style="fill:#eae3d1;fill-rule:evenodd" d="m14.437 7.0001l-6.9995 6.9999h3.9995l-2.9995 6 6.9995-8h-3l2-4.9999z"/>
</svg>
