<?xml version="1.0" encoding="UTF-8" standalone="no"?>
<!-- Created with Inkscape (http://www.inkscape.org/) -->
<svg id="svg3187" xmlns="http://www.w3.org/2000/svg" height="24" width="24" version="1.0">
 <path id="path2395" style="opacity:.6;stroke:#393934;stroke-linecap:round;fill:none" d="m13.025 4.5001c-1.147-0.011-2.199 0.6202-2.78 1.4612-1.0241-0.6131-2.5284-0.0777-2.9107 0.921-0.3123 0.4716 0.238 1.0935-0.5105 1.2796-1.2812 0.8235-1.7043 2.4711-0.9504 3.6951 0.6043 1.07 1.9753 1.724 3.3263 1.635 2.0463-0.006 4.0943 0.011 6.1403-0.009 1.697-0.083 3.15-1.422 3.157-2.911 0.057-1.1832-0.824-2.3111-2.051-2.7749 0.037-1.514-1.216-3.063-2.985-3.2702-0.145-0.0179-0.29-0.0268-0.436-0.0268z"/>
 <path id="path2397" style="fill-rule:evenodd;fill:#eae3d1" d="m13 5c-1.126 0-2.081 0.5938-2.594 1.4688-0.289-0.206-0.6575-0.3126-1.0623-0.3126-0.92 0-1.6875 0.6177-1.6875 1.4063 0 0.1771 0.0562 0.3435 0.125 0.5-1.0463 0.4007-1.7812 1.3259-1.7812 2.3755 0 1.424 1.338 2.562 3 2.562h1v-3.9688c0-0.5118 0.426-0.9374 0.937-0.9374h2.125c0.512 0 0.938 0.4256 0.938 0.9374v3.9688h1c1.662 0 3-1.138 3-2.562 0-1.1289-0.856-2.09-2.031-2.438 0.002-0.0488 0.031-0.1068 0.031-0.1562 0-1.5772-1.344-2.8438-3-2.8438z"/>
 <rect id="rect3463" style="opacity:.4;fill:#3a3935" rx=".92395" ry=".92395" height="11.904" width="3.9963" y="8.0959" x="10.002"/>
 <path id="path3659" style="fill:#dc0000" d="m11 17h2v2h-2v-2zm0-8v5l0.5 2h1l0.5-2v-5h-2z"/>
</svg>
