<?xml version="1.0" encoding="UTF-8" standalone="no"?>
<!-- Created with Inkscape (http://www.inkscape.org/) -->
<svg id="svg3187" xmlns="http://www.w3.org/2000/svg" height="24" width="24" version="1.0">
 <g id="g3153" style="opacity:.6" transform="translate(4 4.0001)">
  <path id="path3408" style="opacity:1;stroke-width:3;stroke:#000;stroke-linecap:round;fill:none" d="m13.5 10.5l-2 4m-2-4l-2 4m-2-4l-2 4m8-3.986l-2 4m-2-4l-2 4m-2-4l-2 4"/>
  <path id="path2395" style="opacity:1;stroke:#000;stroke-linecap:round;fill:none" d="m10.025 0.50014c-1.1473-0.01102-2.1992 0.62016-2.7799 1.4612-1.0241-0.6131-2.5285-0.0777-2.9107 0.921-0.3123 0.4716 0.238 1.0935-0.5105 1.2796-1.2812 0.8235-1.7043 2.4714-0.9504 3.6954 0.6043 1.0692 1.9753 1.7236 3.3263 1.6346 2.0467-0.0056 4.0942 0.0114 6.1402-0.0087 1.697-0.0834 3.15-1.4221 3.157-2.9114 0.057-1.183-0.824-2.3109-2.051-2.7747 0.037-1.514-1.216-3.063-2.985-3.2702-0.144-0.01788-0.29-0.02677-0.436-0.02676z"/>
 </g>
 <path id="path2397" style="fill-rule:evenodd;fill:#eae3d1" d="m14 5.0001c-1.126 0-2.091 0.6072-2.604 1.4822-0.289-0.206-0.658-0.3393-1.063-0.3393-0.9197 0-1.6663 0.64-1.6663 1.4286 0 0.1771 0.0353 0.3434 0.1041 0.5-1.0463 0.4007-1.7708 1.308-1.7708 2.3574 0 1.424 1.338 2.571 3 2.571h6c1.662 0 3-1.147 3-2.571 0-1.1287-0.846-2.0809-2.021-2.4289 0.003-0.0488 0.021-0.0934 0.021-0.1428 0-1.5772-1.344-2.8572-3-2.8572z"/>
 <path id="path3350" style="stroke:#eae3d1;stroke-linecap:round;stroke-width:1px;fill:none" d="m5.5 18.514l2-4m2 4l2-4m2 4l2-4m-8.0175 4l2-4m2.0005 4l2-4m2 4l2-4"/>
</svg>
