<?xml version="1.0" encoding="UTF-8" standalone="no"?>
<!-- Created with Inkscape (http://www.inkscape.org/) -->
<svg id="svg3187" xmlns="http://www.w3.org/2000/svg" height="24" width="24" version="1.0">
 <path id="path2395" style="opacity:.6;stroke:#3a3935;stroke-linecap:round;fill:#3a3935" d="m12.025 4.5001c-1.147-0.011-2.1993 0.6202-2.78 1.4612-1.0241-0.6131-2.5284-0.0777-2.9107 0.921-0.3123 0.4716 0.238 1.0935-0.5105 1.2796-1.2812 0.8235-1.7043 2.4711-0.9504 3.6951 0.6043 1.07 1.9753 1.724 3.3263 1.635 2.0463-0.006 4.0943 0.011 6.1403-0.009 1.697-0.083 3.15-1.422 3.157-2.911 0.057-1.1832-0.824-2.3111-2.051-2.7749 0.037-1.514-1.216-3.063-2.985-3.2702-0.145-0.0179-0.29-0.0268-0.436-0.0268zm2 5.9999c-1.147-0.011-2.199 0.62-2.78 1.461-1.024-0.613-2.5284-0.077-2.9106 0.921-0.3123 0.472 0.238 1.094-0.5105 1.28-1.2812 0.823-1.7043 2.471-0.9504 3.695 0.6043 1.07 1.9753 1.724 3.3265 1.635 2.046-0.006 4.094 0.011 6.14-0.009 1.697-0.083 3.15-1.422 3.157-2.911 0.057-1.183-0.824-2.311-2.051-2.775 0.037-1.514-1.216-3.063-2.985-3.27-0.144-0.018-0.29-0.027-0.436-0.027z"/>
 <path id="path2397" style="fill-rule:evenodd;fill:#eae3d1" d="m12 5c-1.126 0-2.0808 0.5938-2.5938 1.4687-0.2888-0.2059-0.6576-0.3125-1.0624-0.3125-0.9201 0-1.6875 0.6177-1.6876 1.4063 0.0001 0.1771 0.0562 0.3435 0.125 0.5-1.0463 0.4007-1.7812 1.3259-1.7812 2.3745 0 1.331 1.1787 2.394 2.6875 2.532 0.3082-1.14 1.4598-1.875 2.6565-1.875 0.272 0 0.518 0.148 0.781 0.218 0.739-0.784 1.701-1.3745 2.875-1.3745 1.132 0 2.147 0.4705 2.875 1.2185 0.079-0.231 0.125-0.465 0.125-0.719 0-1.1279-0.856-2.089-2.031-2.437 0.002-0.0488 0.031-0.1068 0.031-0.1563 0-1.5771-1.344-2.8437-3-2.8437zm2 6c-1.126 0-2.091 0.607-2.604 1.482-0.289-0.206-0.658-0.339-1.063-0.339-0.9197 0-1.6663 0.64-1.6663 1.428 0 0.178 0.0353 0.344 0.1041 0.5-1.0463 0.401-1.7708 1.308-1.7708 2.358 0 1.424 1.338 2.571 3 2.571h6c1.662 0 3-1.147 3-2.571 0-1.129-0.846-2.081-2.021-2.429 0.003-0.049 0.021-0.093 0.021-0.143 0-1.577-1.344-2.857-3-2.857z"/>
</svg>
