<?xml version="1.0" encoding="UTF-8" standalone="no"?>
<!-- Created with Inkscape (http://www.inkscape.org/) -->
<svg id="svg3187" xmlns="http://www.w3.org/2000/svg" height="24" width="24" version="1.0">
 <path id="path2480" style="opacity:.6;stroke-width:4;stroke:#6c6962;stroke-linecap:round;fill:none" d="m16.95 16.95l-0.566-0.566m0.071-8.8388l0.495-0.495m-9.3341 0.5657l-0.5656-0.5657m-2.0503 4.9498h1m12 0h1m-7-6v-1"/>
 <path id="path3183" style="opacity:.6;stroke:#3a3935;stroke-linecap:round;fill:none" d="m16.5 12c0-2.4853-2.015-4.5001-4.5-4.5001-2.4852 0-4.5 2.0148-4.5 4.5001 0 2.485 2.0148 4.5 4.5 4.5 2.485 0 4.5-2.015 4.5-4.5zm-6.212 0.5c-0.8821-0.008-1.6913 0.482-2.138 1.137-0.7878-0.477-1.9449-0.061-2.239 0.716-0.2402 0.367 0.1831 0.85-0.3927 0.995-0.9856 0.641-1.311 1.922-0.7311 2.874 0.4649 0.832 1.5195 1.341 2.5588 1.272 1.5743-0.005 3.149 0.009 4.723-0.007 1.305-0.065 2.423-1.106 2.429-2.264 0.044-0.921-0.634-1.798-1.578-2.159 0.028-1.177-0.936-2.382-2.296-2.543-0.111-0.014-0.224-0.021-0.336-0.021z"/>
 <path id="path2496" style="stroke-width:2;stroke:#eae3d1;stroke-linecap:round;fill:none" d="m16.95 16.95l-0.566-0.566m0.071-8.8388l0.495-0.495m-9.3341 0.5657l-0.5656-0.5657m-2.0503 4.9498h1m12 0h1m-7-6v-1"/>
 <path id="path2876-6-6-4-0" style="fill:#eae3d1" d="m12 8c-2.2091 0-4 1.7909-4 4 0 0.287 0.0364 0.574 0.0938 0.844 0.581-0.528 1.3012-0.907 2.1562-0.907 1.615 0 2.925 1.188 3.188 2.719 0.308 0.177 0.565 0.411 0.812 0.656 0.005 0.006 0.026-0.005 0.031 0 1.053-0.72 1.719-1.94 1.719-3.312 0-2.2091-1.791-4-4-4zm-1.75 5c-0.8447 0-1.5684 0.455-1.9531 1.112-0.2167-0.155-0.4933-0.255-0.7969-0.255-0.69 0-1.25 0.48-1.25 1.072 0 0.132 0.0265 0.257 0.0781 0.375-0.7847 0.3-1.3281 0.981-1.3281 1.767 0 1.069 1.0035 1.929 2.25 1.929h4.5c1.246 0 2.25-0.86 2.25-1.929 0-0.846-0.634-1.56-1.516-1.821 0.002-0.037 0.016-0.07 0.016-0.107 0-1.183-1.008-2.143-2.25-2.143z"/>
</svg>
