<?xml version="1.0" encoding="UTF-8" standalone="no"?>
<!-- Created with Inkscape (http://www.inkscape.org/) -->
<svg id="svg3187" xmlns="http://www.w3.org/2000/svg" height="24" width="24" version="1.0">
 <path id="path2476" style="opacity:.6;stroke-width:4;stroke:#3a3935;stroke-linecap:round;fill:none" d="m16.455 7.5452l0.495-0.495m-9.3341 0.5657l-0.5656-0.5657m-2.0503 4.9498h1m12 0h1m-7-6v-1"/>
 <path id="path3183" style="opacity:.6;stroke:#3a3935;stroke-linecap:round;fill:none" d="m16.5 12c0-2.4853-2.015-4.5001-4.5-4.5001-2.4852 0-4.5 2.0148-4.5 4.5001 0 2.485 2.0148 4.5 4.5 4.5 2.485 0 4.5-2.015 4.5-4.5zm-2.475-0.5c-1.147-0.01-2.199 0.551-2.78 1.299-1.024-0.545-2.5284-0.069-2.9106 0.819-0.3123 0.419 0.238 0.972-0.5105 1.137-1.2812 0.732-1.7043 2.197-0.9504 3.285 0.6043 0.95 1.9753 1.532 3.3265 1.453 2.046-0.005 4.094 0.01 6.14-0.008 1.697-0.074 3.15-1.264 3.157-2.588 0.057-1.051-0.824-2.054-2.051-2.466 0.037-1.346-1.216-2.723-2.985-2.907-0.144-0.016-0.29-0.024-0.436-0.024z"/>
 <path id="path2492" style="stroke-width:2;stroke:#eae3d1;stroke-linecap:round;fill:none" d="m16.455 7.5452l0.495-0.495m-9.3341 0.5657l-0.5656-0.5657m-2.0503 4.9498h1m12 0h1m-7-6v-1"/>
 <path id="path2876-6-6-4-0" style="fill:#eae3d1" d="m12 8c-2.2091 0-4 1.7909-4 4 0 0.322 0.0533 0.638 0.125 0.937 0.1263-0.155 0.252-0.292 0.4062-0.406 0.5062-0.373 1.1438-0.562 1.8128-0.562 0.293 0 0.538 0.144 0.812 0.218 0.744-0.709 1.702-1.218 2.844-1.218 0.704 0 1.356 0.17 1.938 0.468-0.274-1.9421-1.92-3.437-3.938-3.437zm2 4c-1.126 0-2.091 0.531-2.604 1.297-0.289-0.18-0.658-0.297-1.063-0.297-0.9197 0-1.6663 0.56-1.6663 1.25 0 0.155 0.0353 0.301 0.1041 0.437-1.0463 0.351-1.7708 1.145-1.7708 2.063 0 1.246 1.338 2.25 3 2.25h6c1.662 0 3-1.004 3-2.25 0-0.987-0.846-1.821-2.021-2.125 0.003-0.043 0.021-0.082 0.021-0.125 0-1.38-1.344-2.5-3-2.5z"/>
</svg>
