<?xml version="1.0" encoding="UTF-8" standalone="no"?>
<!-- Created with Inkscape (http://www.inkscape.org/) -->
<svg id="svg3187" xmlns="http://www.w3.org/2000/svg" height="24" width="24" version="1.0">
 <path id="path3372" style="opacity:.6;stroke-width:3;stroke:#3a3935;stroke-linecap:round;fill:none" d="m6.5 18.514l0.5-1m3.5 1l0.5-1m3.5 1l0.5-1m-7-2l0.5-1m3.5 1l0.5-1m3.5 1l0.5-1"/>
 <path id="path2395" style="opacity:.6;stroke:#3a3835;stroke-linecap:round;fill:#3a3935" d="m14.025 4.5003c-1.147-0.011-2.199 0.6201-2.78 1.4611-1.024-0.6131-2.5284-0.0777-2.9106 0.921-0.3123 0.4716 0.238 1.0935-0.5105 1.2796-1.2812 0.8236-1.7043 2.471-0.9504 3.695 0.6043 1.07 1.9753 1.724 3.3265 1.635 2.046-0.006 4.094 0.011 6.14-0.009 1.697-0.083 3.15-1.422 3.157-2.911 0.057-1.1831-0.824-2.311-2.051-2.7747 0.037-1.5141-1.216-3.0631-2.985-3.2703-0.144-0.0179-0.29-0.0267-0.436-0.0267z"/>
 <path id="path2397" style="fill-rule:evenodd;fill:#eae3d1" d="m14 5.0001c-1.126 0-2.091 0.6072-2.604 1.4822-0.289-0.206-0.658-0.3393-1.063-0.3393-0.9197 0-1.6663 0.64-1.6663 1.4286 0 0.1771 0.0353 0.3434 0.1041 0.5-1.0463 0.4007-1.7708 1.308-1.7708 2.3574 0 1.424 1.338 2.571 3 2.571h6c1.662 0 3-1.147 3-2.571 0-1.1287-0.846-2.0809-2.021-2.4289 0.003-0.0488 0.021-0.0934 0.021-0.1428 0-1.5772-1.344-2.8572-3-2.8572z"/>
 <path id="path3350" style="stroke:#eae3d1;stroke-linecap:round;stroke-width:1px;fill:none" d="m6.5 18.514l0.5-1"/>
 <path id="path3362" style="stroke:#eae3d1;stroke-linecap:round;stroke-width:1px;fill:none" d="m10.5 18.514l0.5-1"/>
 <path id="path3364" style="stroke:#eae3d1;stroke-linecap:round;stroke-width:1px;fill:none" d="m14.5 18.514l0.5-1"/>
 <path id="path3366" style="stroke:#eae3d1;stroke-linecap:round;stroke-width:1px;fill:none" d="m8 15.514l0.5-1"/>
 <path id="path3368" style="stroke:#eae3d1;stroke-linecap:round;stroke-width:1px;fill:none" d="m12 15.514l0.5-1"/>
 <path id="path3370" style="stroke:#eae3d1;stroke-linecap:round;stroke-width:1px;fill:none" d="m16 15.514l0.5-1"/>
</svg>
