<?xml version="1.0" encoding="UTF-8" standalone="no"?>
<!-- Created with Inkscape (http://www.inkscape.org/) -->
<svg id="svg3187" xmlns="http://www.w3.org/2000/svg" height="24" width="24" version="1.0">
 <path id="path2395" style="opacity:.6;stroke:#3a3935;stroke-linecap:round;fill:none" d="m13.025 4.5001c-1.147-0.011-2.199 0.6202-2.78 1.4612-1.0241-0.6131-2.5284-0.0777-2.9107 0.921-0.3123 0.4716 0.238 1.0935-0.5105 1.2796-1.2812 0.8235-1.7043 2.4711-0.9504 3.6951 0.6043 1.07 1.9753 1.724 3.3263 1.635 2.0463-0.006 4.0943 0.011 6.1403-0.009 1.697-0.083 3.15-1.422 3.157-2.911 0.057-1.1832-0.824-2.3111-2.051-2.7749 0.037-1.514-1.216-3.063-2.985-3.2702-0.145-0.0179-0.29-0.0268-0.436-0.0268zm-4.5251 7.9999c0 1.105 0.8954 2 2.0001 2 1.104 0 2-0.895 2-2s-0.896-2-2-2c-1.1047 0-2.0001 0.895-2.0001 2zm3.0001 3c0 1.105 0.895 2 2 2 1.104 0 2-0.895 2-2s-0.896-2-2-2c-1.105 0-2 0.895-2 2zm-4.0001 2c0 1.105 0.8954 2 2 2 1.1041 0 2.0001-0.895 2.0001-2s-0.896-2-2.0001-2c-1.1046 0-2 0.895-2 2z"/>
 <path id="path2397" style="fill-rule:evenodd;fill:#eae3d1" d="m13 5c-1.126 0-2.081 0.5938-2.594 1.4688-0.289-0.206-0.6575-0.3125-1.0623-0.3125-0.92 0-1.6875 0.6176-1.6875 1.4062 0 0.1771 0.0561 0.3435 0.125 0.5-1.0464 0.4007-1.7813 1.3259-1.7813 2.3755 0 1.127 0.8584 2.057 2.0313 2.406-0.0159-0.114-0.0313-0.226-0.0313-0.344 0-1.381 1.1193-2.5 2.5001-2.5 1.381 0 2.5 1.119 2.5 2.5 0 0.173-0.029 0.337-0.063 0.5h2.063c1.662 0 3-1.138 3-2.562 0-1.1289-0.856-2.09-2.031-2.438 0.002-0.0488 0.031-0.1068 0.031-0.1562 0-1.5772-1.344-2.8438-3-2.8438zm-1 10.5c0 0.828 0.671 1.5 1.5 1.5 0.828 0 1.5-0.672 1.5-1.5s-0.672-1.5-1.5-1.5c-0.829 0-1.5 0.672-1.5 1.5zm-3.0001-3c0 0.828 0.6716 1.5 1.5001 1.5 0.828 0 1.5-0.672 1.5-1.5s-0.672-1.5-1.5-1.5c-0.8285 0-1.5001 0.672-1.5001 1.5zm-1 5c0 0.828 0.6716 1.5 1.5 1.5 0.8281 0 1.5001-0.672 1.5001-1.5s-0.672-1.5-1.5001-1.5c-0.8284 0-1.5 0.672-1.5 1.5z"/>
</svg>
