<?xml version="1.0" encoding="UTF-8" standalone="no"?>
<!-- Created with Inkscape (http://www.inkscape.org/) -->
<svg id="svg3186" xmlns="http://www.w3.org/2000/svg" height="24" width="24" version="1.0">
 <path id="path3184" style="opacity:.6;stroke:#3a3835;stroke-linecap:round;fill:none" d="m10.897 5.5122c-1.6902 0.2836-3.1984 1.2956-4.1862 2.6862-0.9919 1.3966-1.4055 3.1826-1.1246 4.8726 0.2801 1.686 1.2332 3.219 2.6241 4.217 1.3933 0.999 3.1897 1.407 4.8737 1.124 1.683-0.282 3.224-1.257 4.217-2.655 0.084-0.117 0.156-0.245 0.188-0.406 0.031-0.16-0.002-0.35-0.094-0.499-0.185-0.299-0.453-0.354-0.687-0.407-0.469-0.105-1.049-0.111-1.656-0.124-0.607-0.014-1.22-0.058-1.656-0.157-0.218-0.049-0.383-0.096-0.468-0.156-0.086-0.06-0.085-0.099-0.094-0.156h-0.031c0.005-1.011-0.299-1.771-0.688-2.249-0.407-0.501-0.883-0.795-0.937-0.843-0.093-0.083-0.165-0.357-0.094-0.8437 0.072-0.4863 0.248-1.0962 0.438-1.6867s0.393-1.1283 0.437-1.6242c0.022-0.248 0.01-0.5178-0.187-0.7809-0.198-0.2631-0.583-0.3614-0.875-0.3123zm2.128 5.9878c-1.147-0.01-2.199 0.551-2.78 1.299-1.024-0.545-2.5284-0.069-2.9106 0.819-0.3123 0.419 0.238 0.972-0.5105 1.137-1.2812 0.732-1.7043 2.197-0.9504 3.285 0.6043 0.95 1.9753 1.532 3.3263 1.453 2.0462-0.005 4.0942 0.01 6.1402-0.008 1.697-0.074 3.15-1.264 3.157-2.588 0.057-1.051-0.824-2.054-2.051-2.466 0.037-1.346-1.216-2.723-2.985-2.907-0.144-0.016-0.29-0.024-0.436-0.024z"/>
 <path id="path2876-6-6-4" style="fill:#eae3d1" d="m11 6c-1.551 0.2603-2.9614 1.1824-3.875 2.4687-0.9135 1.2864-1.2902 2.9413-1.0312 4.5003 0.0794 0.478 0.2142 0.93 0.4062 1.375 0.0431-0.029 0.081-0.066 0.125-0.094 0-0.726 0.4001-1.346 0.9062-1.719 0.5062-0.373 1.1438-0.562 1.8126-0.562 0.2932 0 0.5377 0.144 0.8122 0.218 0.312-0.297 0.678-0.545 1.063-0.75-0.16-0.124-0.292-0.238-0.375-0.312-1.1785-1.047 1.707-5.3853 0.156-5.125z"/>
 <path id="rect3193" style="fill-rule:evenodd;fill:#eae3d1" d="m13 12c-1.126 0-2.091 0.531-2.604 1.297-0.289-0.18-0.6579-0.297-1.0627-0.297-0.92 0-1.6666 0.56-1.6666 1.25 0 0.155 0.0353 0.301 0.1041 0.437-1.0463 0.351-1.7708 1.145-1.7708 2.063 0 1.246 1.338 2.25 3 2.25h6c1.662 0 3-1.004 3-2.25 0-0.987-0.846-1.821-2.021-2.125 0.003-0.043 0.021-0.082 0.021-0.125 0-1.38-1.344-2.5-3-2.5z"/>
</svg>
