<?xml version="1.0" encoding="UTF-8" standalone="no"?>
<!-- Created with Inkscape (http://www.inkscape.org/) -->
<svg id="svg3181" xmlns="http://www.w3.org/2000/svg" height="24" width="24" version="1.0">
 <path id="path3179" style="opacity:.6;stroke-width:3.5;stroke:#3a3935;stroke-linecap:round;fill:none" d="m6.5 16c1.5-1.5 3.5-1.5 5.5 0 2.067 1.55 4 1.5 5.5 0m-11-4c1.5-1.5 3.5-1.5 5.5 0 2.067 1.55 4 1.5 5.5 0m-11-3.9999c1.5-1.5 3.5-1.5 5.5 0 2.067 1.5502 4 1.5 5.5 0"/>
 <path id="path3645" style="stroke-width:1.5;stroke:#eae3d0;stroke-linecap:round;fill:none" d="m6.5 16c1.5-1.5 3.5-1.5 5.5 0 2.067 1.55 4 1.5 5.5 0m-11-4c1.5-1.5 3.5-1.5 5.5 0 2.067 1.55 4 1.5 5.5 0m-11-3.9999c1.5-1.5 3.5-1.5 5.5 0 2.067 1.5502 4 1.5 5.5 0"/>
</svg>
