<?xml version="1.0" encoding="UTF-8" standalone="no"?>
<!-- Created with Inkscape (http://www.inkscape.org/) -->
<svg id="svg3186" xmlns="http://www.w3.org/2000/svg" height="24" width="24" version="1.0">
 <path id="path3184" style="opacity:.6;stroke:#3a3935;stroke-linecap:round;fill:none" d="m11.897 5.5121c-1.69 0.2837-3.1984 1.2957-4.1862 2.6863-0.9919 1.3966-1.4055 3.1826-1.1246 4.8726 0.2801 1.686 1.2332 3.219 2.6241 4.217 1.3937 0.999 3.1897 1.407 4.8737 1.124 1.683-0.282 3.224-1.257 4.217-2.655 0.084-0.117 0.156-0.245 0.188-0.406 0.031-0.16-0.002-0.35-0.094-0.499-0.185-0.299-0.453-0.354-0.687-0.407-0.469-0.105-1.049-0.111-1.656-0.124-0.607-0.014-1.22-0.058-1.656-0.157-0.218-0.049-0.383-0.096-0.468-0.156-0.086-0.06-0.085-0.099-0.094-0.156h-0.031c0.005-1.011-0.299-1.771-0.688-2.249-0.407-0.501-0.883-0.795-0.937-0.843-0.093-0.083-0.165-0.357-0.094-0.8437 0.072-0.4863 0.248-1.0962 0.438-1.6867s0.393-1.1283 0.437-1.6242c0.022-0.248 0.01-0.5178-0.187-0.7809-0.198-0.2631-0.583-0.3614-0.875-0.3124zm-1.609 6.9879c-0.8821-0.008-1.6913 0.482-2.138 1.137-0.7878-0.477-1.9449-0.061-2.239 0.716-0.2402 0.367 0.1831 0.85-0.3927 0.995-0.9856 0.641-1.311 1.922-0.7311 2.874 0.4649 0.832 1.5195 1.341 2.5588 1.272 1.5743-0.005 3.149 0.009 4.723-0.007 1.305-0.065 2.423-1.106 2.429-2.264 0.044-0.921-0.634-1.798-1.578-2.159 0.028-1.177-0.936-2.382-2.296-2.543-0.111-0.014-0.224-0.021-0.336-0.021z"/>
 <path id="rect3193" style="fill-rule:evenodd;fill:#eae3d1" d="m10.25 13c-0.8447 0-1.5684 0.455-1.9531 1.112-0.2167-0.155-0.4933-0.255-0.7969-0.255-0.69 0-1.25 0.48-1.25 1.072 0 0.132 0.0265 0.257 0.0781 0.375-0.7847 0.3-1.3281 0.981-1.3281 1.767 0 1.069 1.0035 1.929 2.25 1.929h4.5c1.246 0 2.25-0.86 2.25-1.929 0-0.846-0.634-1.56-1.516-1.821 0.002-0.037 0.016-0.07 0.016-0.107 0-1.183-1.008-2.143-2.25-2.143z"/>
 <path id="path2876-6-6-4" style="fill:#eae3d1" d="m12 6c-1.551 0.2603-2.9614 1.1824-3.875 2.4687-0.8832 1.2438-1.272 2.8303-1.0625 4.3433 0.1408-0.025 0.2913-0.031 0.4375-0.031 0.2115 0 0.3204 0.106 0.5 0.156 0.5976-0.573 1.3469-1 2.25-1 1.615 0 2.925 1.188 3.188 2.719 0.891 0.51 1.624 1.306 1.624 2.406 0 0.196-0.024 0.381-0.062 0.563 1.149-0.414 2.196-1.157 2.906-2.156 0.914-1.287-4.303 0.027-4.562-1.532 0.071-1.964-1.166-2.515-1.5-2.812-1.179-1.047 1.707-5.3853 0.156-5.125z"/>
</svg>
