<?xml version="1.0" encoding="UTF-8" standalone="no"?>
<!-- Created with Inkscape (http://www.inkscape.org/) -->
<svg id="svg11037" xmlns:rdf="http://www.w3.org/1999/02/22-rdf-syntax-ns#" xmlns="http://www.w3.org/2000/svg" height="96" width="96" version="1.1" xmlns:cc="http://creativecommons.org/ns#" xmlns:xlink="http://www.w3.org/1999/xlink" xmlns:dc="http://purl.org/dc/elements/1.1/">
 <defs id="defs11039">
  <linearGradient id="linearGradient11642" x1="48" gradientUnits="userSpaceOnUse" x2="48" gradientTransform="matrix(1.15 0 0 1.15 -7.1999 -150.65)" y1="962.62" y2="1046.1">
   <stop id="stop3702" style="stop-color:#ebebeb" offset="0"/>
   <stop id="stop3704" style="stop-color:#fafafa" offset="1"/>
  </linearGradient>
  <clipPath id="clipPath3009" clipPathUnits="userSpaceOnUse">
   <path id="path3011" style="opacity:.15;fill:#fff" d="m-2 956.36h-96v33.562l96 25.687v-59.25z"/>
  </clipPath>
  <linearGradient id="linearGradient4140" y2="138.66" gradientUnits="userSpaceOnUse" y1="20.221" x2="48" x1="48">
   <stop id="stop3739-2" style="stop-color:#fff" offset="0"/>
   <stop id="stop3741-1" style="stop-color:#fff;stop-opacity:0" offset="1"/>
  </linearGradient>
  <clipPath id="clipPath3613">
   <rect id="rect3615" style="fill:#fff" rx="6" ry="6" height="84" width="84" y="6" x="6"/>
  </clipPath>
  <filter id="filter3794" width="1.384" y="-.192" x="-.192" height="1.384" color-interpolation-filters="sRGB">
   <feGaussianBlur id="feGaussianBlur3796" stdDeviation="5.28"/>
  </filter>
  <clipPath id="clipPath3729-0">
   <path id="path3731-0" style="fill:#f0f" d="m-88 6c-3.324 0-6 2.676-6 6v72c0 3.324 2.676 6 6 6h72c3.324 0 6-2.676 6-6v-72c0-3.324-2.676-6-6-6h-72zm42.031 18h5.4062l8.4688 44.594h4.7188l-0.656 3.406h-17.469l0.65625-3.4062h5.3438l-1.9688-10.531h-20.188l-6.0938 10.531h5.2812l-0.625 3.4062h-13.531l0.65625-3.4062h4.2188l25.782-44.594zm-0.46875 7.7812-13.219 22.812h17.594l-4.375-22.812z"/>
  </clipPath>
  <filter id="filter3733-3" width="1.2846" y="-.14576" x="-.14228" height="1.2915" color-interpolation-filters="sRGB">
   <feGaussianBlur id="feGaussianBlur3735-8" stdDeviation="3.0366511"/>
  </filter>
  <linearGradient id="linearGradient3682-7" x1="16" xlink:href="#linearGradient3676-1" gradientUnits="userSpaceOnUse" y1="71" gradientTransform="matrix(1.125 0 0 .5 -10 36)" x2="80" y2="71"/>
  <linearGradient id="linearGradient3676-1">
   <stop id="stop3678-4" style="stop-color:#333;stop-opacity:0" offset="0"/>
   <stop id="stop3688-5" offset=".25"/>
   <stop id="stop3684-4" offset=".5"/>
   <stop id="stop3686-9" offset=".75"/>
   <stop id="stop3680-3" style="stop-color:#333;stop-opacity:0" offset="1"/>
  </linearGradient>
  <linearGradient id="linearGradient3692-5" x1="16" xlink:href="#linearGradient3676-1" gradientUnits="userSpaceOnUse" y1="71" gradientTransform="matrix(.875 0 0 .5 18 -12)" x2="80" y2="71"/>
  <linearGradient id="linearGradient3696-6" x1="16" xlink:href="#linearGradient3676-1" gradientUnits="userSpaceOnUse" y1="71" gradientTransform="matrix(.5 0 0 .5 40 -59)" x2="80" y2="71"/>
  <linearGradient id="linearGradient3702-4" x1="16" xlink:href="#linearGradient3676-1" gradientUnits="userSpaceOnUse" y1="71" gradientTransform="matrix(1.25 0 0 .5 -12 -108)" x2="80" y2="71"/>
  <linearGradient id="linearGradient3689-3" y2="24" gradientUnits="userSpaceOnUse" y1="72" x2="48" x1="48">
   <stop id="stop3712-2" style="stop-color:#2b4777" offset="0"/>
   <stop id="stop3714-0" style="stop-color:#5672a0" offset="1"/>
  </linearGradient>
 </defs>
 <metadata id="metadata11042">
  <rdf:RDF>
   <cc:Work rdf:about="">
    <dc:format>image/svg+xml</dc:format>
    <dc:type rdf:resource="http://purl.org/dc/dcmitype/StillImage"/>
    <dc:title/>
   </cc:Work>
  </rdf:RDF>
 </metadata>
 <g id="layer1" transform="translate(0 -956.36)">
  <rect id="rect3867" style="fill:url(#linearGradient11642)" rx="25" ry="25" height="92" width="92" y="958.36" x="2"/>
  <g id="g3061" transform="translate(0 956.36)">
   <g id="layer3">
    <rect id="rect3171" style="opacity:.5;filter:url(#filter3794);stroke:#fff;stroke-linecap:round;stroke-width:.5;fill:url(#linearGradient4140)" clip-path="url(#clipPath3613)" rx="12" ry="12" height="66" width="66" y="15" x="15"/>
   </g>
   <g id="layer4">
    <text id="text3717" style="opacity:.6;font-size:65.843px;stroke-width:2;font-style:italic;filter:url(#filter3733-3);stroke:#ffffff;font-family:DejaVu Serif;line-height:125%;fill:none" clip-path="url(#clipPath3729-0)" xml:space="preserve" transform="translate(100)" y="72" x="-71.563293"><tspan id="tspan3719" y="72" x="-71.563293" style="stroke:#ffffff;stroke-width:2;fill:none">A</tspan></text>
    <rect id="rect2902" style="opacity:.2;color:#000000;fill:url(#linearGradient3682-7)" height="1" width="72" y="71" x="8"/>
    <rect id="rect3690" style="opacity:.12;color:#000000;fill:url(#linearGradient3692-5)" height="1" width="56" y="23" x="32"/>
    <rect id="rect3694" style="opacity:.15;color:#000000;fill:url(#linearGradient3696-6)" transform="rotate(90)" height="1" width="32" y="-24" x="48"/>
    <rect id="rect3698" style="opacity:.15;color:#000000;fill:url(#linearGradient3702-4)" transform="rotate(90)" height="1" width="80" y="-73" x="8"/>
    <text id="text2907" y="72" x="28.436705" style="font-style:italic;font-size:65.843px;font-family:DejaVu Serif;line-height:125%;fill:url(#linearGradient3689-3)" xml:space="preserve"><tspan id="tspan2909" y="72" x="28.436705" style="fill:url(#linearGradient3689-3)">A</tspan></text>
   </g>
  </g>
  <rect id="rect3003" style="opacity:.15;fill:#fff" clip-path="url(#clipPath3009)" rx="25" ry="25" transform="translate(98)" width="92" y="958.36" x="-96" height="92"/>
 </g>
</svg>
