<?xml version="1.0" encoding="UTF-8" standalone="no"?>
<!-- Created with Inkscape (http://www.inkscape.org/) -->
<svg id="svg11037" xmlns:rdf="http://www.w3.org/1999/02/22-rdf-syntax-ns#" xmlns="http://www.w3.org/2000/svg" height="96" width="96" version="1.1" xmlns:cc="http://creativecommons.org/ns#" xmlns:xlink="http://www.w3.org/1999/xlink" xmlns:dc="http://purl.org/dc/elements/1.1/">
 <defs id="defs11039">
  <clipPath id="clipPath3009" clipPathUnits="userSpaceOnUse">
   <path id="path3011" style="opacity:.15;fill:#fff" d="m-2 956.36h-96v33.562l96 25.687v-59.25z"/>
  </clipPath>
  <linearGradient id="linearGradient3617" y2="5.9877" gradientUnits="userSpaceOnUse" y1="90" x2="48" x1="48">
   <stop id="stop3189" style="stop-color:#d18c1d" offset="0"/>
   <stop id="stop3191" style="stop-color:#ffcf0f" offset="1"/>
  </linearGradient>
  <linearGradient id="linearGradient3198" x1="56.466" gradientUnits="userSpaceOnUse" x2="56.466" y1="11.35" y2="36.266">
   <stop id="stop3194" offset="0"/>
   <stop id="stop3196" style="stop-opacity:0" offset="1"/>
  </linearGradient>
  <linearGradient id="linearGradient3613" y2="138.66" gradientUnits="userSpaceOnUse" y1="20.221" x2="48" x1="48">
   <stop id="stop3739" style="stop-color:#fff" offset="0"/>
   <stop id="stop3741" style="stop-color:#fff;stop-opacity:0" offset="1"/>
  </linearGradient>
  <clipPath id="clipPath3613">
   <rect id="rect3615" style="fill:#fff" rx="6" ry="6" height="84" width="84" y="6" x="6"/>
  </clipPath>
  <filter id="filter3794" width="1.384" y="-.192" x="-.192" height="1.384" color-interpolation-filters="sRGB">
   <feGaussianBlur id="feGaussianBlur3796" stdDeviation="5.28"/>
  </filter>
  <clipPath id="clipPath3865">
   <path id="path3867" style="fill:#fff" d="m-88 6c-3.324 0-6 2.676-6 6v72c0 3.324 2.676 6 6 6h72c3.324 0 6-2.676 6-6v-72c0-3.324-2.676-6-6-6h-72zm33.625 22c1.8804-0.06833 3.7884 0.9599 4.75 2.9062 0.57991 1.1738 0.63033 3.0734 0.125 4.4062-0.76105 2.0074-2.5279 3.2188-4.6875 3.2188-1.1372 0-1.2022 0.0223-1.125 0.375 0.04475 0.20434 0.32386 4.6601 0.625 9.9062 0.41215 7.18 0.51191 9.7047 0.375 10.219-0.10003 0.37562-0.15653 0.7315-0.125 0.78125 1.574 0.88863 3.1921 1.7992 4.9062 2.3125 1.3362-1.8775 3.7721-4.7441 4.25-4.9688 3.318-0.46209 6.8806-0.48062 10.188 0.03125 5.6574 6.5601 11.175 13.764 16.188 20.844l-41.25 0.09375 8.7188-13.75c-0.03569-0.02979-2.8082-1.4835-6.1875-3.25-5.4967-2.8734-6.6386-3.3721-6.625-2.9062 0.0022 0.07386 0.42188 1.8756 0.9375 4l1.1875 3.8438 0.03125 5.625c0.01843 5.4432-0.0022 5.6617-0.34375 6-0.37544 0.37185-1.1128 0.39669-3.3125 0.1875-0.79265-0.07539-1.8409-0.40602-2.125-0.6875l0.03125-11.625-0.9375-3.6875-0.9375-3.6875-5.1875 9c-2.8489 4.9626-5.4722 9.333-5.8125 9.6875-0.86375 0.89982-1.3545 0.83885-2.8438-0.25-1.2752-0.93239-1.5725-1.3836-1.4062-2.25 0.14983-0.78064 0.01677-0.5461 6.0938-11.125 3.0117-5.2429 5.5233-9.7032 5.5625-9.9062 0.06098-0.31595-0.19336-0.50391-1.7812-1.3438-1.8336-0.96981-1.8759-0.97723-2.125-0.625-0.44244 0.62563-1.0745 0.45173-2.3125-0.65625-1.6988-1.5204-1.7451-1.2972 2-8.2812 1.698-3.1666 3.271-5.9512 3.5-6.1875l0.40625-0.40625 7.4375-0.0625 7.4375-0.0625-0.254-0.78c-0.5915-1.8856 0.02988-4.2211 1.4688-5.5938 0.91557-0.87346 2.028-1.3028 3.1562-1.3438zm-14.5 13.25c-0.25354 0.000182-0.59873 0.01989-1.0312 0.03125l-1.844 0.063-1.969 3.656c-1.084 2.0252-1.9496 3.7383-1.9062 3.7812 0.11052 0.10946 3.3004 1.7482 3.4062 1.75 0.04772 0.000818 0.96279-1.9591 2.0312-4.3438 1.0685-2.3846 1.9668-4.4875 2.0312-4.6562 0.08147-0.21333 0.04187-0.2818-0.71875-0.28125zm9.4375 7c-0.14708-0.02701-0.58039 0.85738-1.6875 3.3438-0.89663 2.0137-1.6561 3.7204-1.6875 3.7812-0.06085 0.11785 3.8157 2.1791 3.9375 2.0938 0.03957-0.02773-0.03025-2.0193-0.15625-4.4062-0.126-2.387-0.28519-4.5323-0.34375-4.75-0.01033-0.0384-0.04149-0.05864-0.0625-0.0625z"/>
  </clipPath>
  <filter id="filter3861" width="1.211" y="-.13913" x="-.1055" height="1.2783" color-interpolation-filters="sRGB">
   <feGaussianBlur id="feGaussianBlur3863" stdDeviation="2.9050996"/>
  </filter>
  <clipPath id="clipPath3873">
   <path id="path3875" style="fill:#fff" d="m-55.764 76.871c-0.79265-0.07539-1.8141-0.39406-2.0982-0.67554l0.0091-11.63-0.93814-3.6951-0.93814-3.6951-5.1797 9.0229c-2.8489 4.9626-5.4581 9.3129-5.7984 9.6674-0.86375 0.89982-1.3658 0.85948-2.855-0.22936-1.2752-0.93239-1.5612-1.3962-1.3949-2.2626 0.14983-0.78064 0.01978-0.54339 6.0968-11.122 3.0117-5.2429 5.5079-9.6986 5.5471-9.9017 0.06098-0.31595-0.19657-0.5109-1.7845-1.3507-1.8336-0.96981-1.8587-0.97725-2.1078-0.62502-0.44244 0.62563-1.0767 0.44356-2.3147-0.66443-1.6988-1.5204-1.7577-1.2758 1.9874-8.2598 1.698-3.1666 3.2747-5.9508 3.5037-6.1871l0.41632-0.42966 7.4387-0.04987 7.4387-0.04987-0.25392-0.80946c-0.5915-1.8856 0.0095-4.1966 1.4484-5.5693 2.4415-2.3292 6.364-1.5557 7.9025 1.5585 0.57991 1.1738 0.63589 3.0555 0.13056 4.3884-0.76105 2.0074-2.5339 3.2258-4.6934 3.2258-1.1372 0-1.1938 0.01883-1.1165 0.37153 0.04475 0.20434 0.32776 4.6639 0.6289 9.91 0.41215 7.18 0.50256 9.7074 0.36566 10.221-0.10003 0.37562-0.15608 0.72364-0.12456 0.77339 1.574 0.88863 3.1906 1.8015 4.9048 2.3148 1.3362-1.8775 3.7973-4.7292 4.2752-4.9538 3.318-0.46209 6.8529-0.48897 10.16 0.0229 5.6574 6.5601 11.184 13.765 16.197 20.845l-41.234 0.08249 8.7135-13.735c-0.03569-0.02979-2.8298-1.4995-6.2091-3.266-5.4967-2.8734-6.6195-3.3664-6.6059-2.9006 0.0022 0.07386 0.42578 1.8724 0.9414 3.9968l1.19 3.8625 0.01906 5.6271c0.01843 5.4432 0.0075 5.6385-0.33406 5.9768-0.37544 0.37185-1.1343 0.40383-3.3339 0.19464zm6.7209-24.808c-0.126-2.387-0.27701-4.518-0.33557-4.7357-0.08264-0.30718-0.47145 0.42387-1.7367 3.2654-0.89663 2.0137-1.656 3.711-1.6874 3.7719-0.06085 0.11785 3.795 2.1741 3.9168 2.0888 0.03957-0.02773-0.03115-2.0034-0.15715-4.3904zm-11.16-6.8789c1.0685-2.3846 1.9954-4.4737 2.0598-4.6425 0.10863-0.28444-0.01879-0.30322-1.7489-0.2578l-1.866 0.04899-1.971 3.6822c-1.084 2.0252-1.9355 3.7173-1.8922 3.7602 0.11052 0.10946 3.2829 1.7412 3.3888 1.743 0.04772 0.000818 0.96095-1.9495 2.0294-4.3342z"/>
  </clipPath>
  <filter id="filter3881" color-interpolation-filters="sRGB">
   <feGaussianBlur id="feGaussianBlur3883" stdDeviation="0.58101993"/>
  </filter>
  <clipPath id="clipPath3112" clipPathUnits="userSpaceOnUse">
   <rect id="rect3114" style="fill:url(#linearGradient3116)" rx="22.826" ry="22.826" height="84" width="84" y="6" x="6"/>
  </clipPath>
  <linearGradient id="linearGradient3116" x1="48" gradientUnits="userSpaceOnUse" y1="962.62" gradientTransform="matrix(1.05 0 0 1.05 -2.4 -1006.6)" x2="48" y2="1046.1">
   <stop id="stop3797" style="stop-color:#13a6fd" offset="0"/>
   <stop id="stop3799" style="stop-color:#2975b6" offset="1"/>
  </linearGradient>
 </defs>
 <metadata id="metadata11042">
  <rdf:RDF>
   <cc:Work rdf:about="">
    <dc:format>image/svg+xml</dc:format>
    <dc:type rdf:resource="http://purl.org/dc/dcmitype/StillImage"/>
    <dc:title/>
   </cc:Work>
  </rdf:RDF>
 </metadata>
 <g id="layer1" transform="translate(0 -956.36)">
  <g id="g3054" transform="matrix(1.0952 0 0 1.0952 -4.5714 951.79)" clip-path="url(#clipPath3112)">
   <rect id="rect2419" style="fill:url(#linearGradient3617)" rx="6" ry="6" height="84" width="84" y="6" x="6"/>
   <g id="g4638" style="fill:url(#linearGradient3198)" transform="matrix(.71698 0 0 .75 2.8302 1.5)">
    <path id="rect4629" style="opacity:.8;fill-rule:evenodd;fill:url(#linearGradient3198)" d="m18 6h16l-8 16h-16l8-16z"/>
    <path id="path4632" style="opacity:.8;fill-rule:evenodd;fill:url(#linearGradient3198)" d="m44 6h16l-8 16h-16l8-16z"/>
    <path id="path4634" style="opacity:.8;fill-rule:evenodd;fill:url(#linearGradient3198)" d="m72 6h16l-8 16h-16l8-16z"/>
    <path id="path4636" style="opacity:.8;fill-rule:evenodd;fill:url(#linearGradient3198)" d="m100 6h16l-8 16h-16l8-16z"/>
   </g>
   <g id="layer5">
    <rect id="rect3171" style="opacity:.1;filter:url(#filter3794);stroke:#fff;stroke-linecap:round;stroke-width:.5;fill:url(#linearGradient3613)" clip-path="url(#clipPath3613)" rx="12" ry="12" height="66" width="66" y="15" x="15"/>
   </g>
   <g id="layer3">
    <path id="path3859" style="opacity:.8;filter:url(#filter3861);fill:#feeeb7" clip-path="url(#clipPath3865)" transform="translate(100)" d="m-65.764 77.871c-0.79265-0.07539-1.8141-0.39406-2.0982-0.67554l0.0091-11.63-0.93814-3.6951-0.93814-3.6951-5.1797 9.0229c-2.8489 4.9626-5.4581 9.3129-5.7984 9.6674-0.86375 0.89982-1.3658 0.85948-2.855-0.22936-1.2752-0.93239-1.5612-1.3962-1.3949-2.2626 0.14983-0.78064 0.01978-0.54339 6.0968-11.122 3.0117-5.2429 5.5079-9.6986 5.5471-9.9017 0.06098-0.31595-0.19657-0.5109-1.7845-1.3507-1.8336-0.96981-1.8587-0.97725-2.1078-0.62502-0.44244 0.62563-1.0767 0.44356-2.3147-0.66443-1.6988-1.5204-1.7577-1.2758 1.9874-8.2598 1.698-3.1666 3.2747-5.9508 3.5037-6.1871l0.41632-0.42966 7.4387-0.04987 7.4387-0.04987-0.25392-0.80946c-0.5915-1.8856 0.0095-4.1966 1.4484-5.5693 2.4415-2.3292 6.364-1.5557 7.9025 1.5585 0.57991 1.1738 0.63589 3.0555 0.13056 4.3884-0.76105 2.0074-2.5339 3.2258-4.6934 3.2258-1.1372 0-1.1938 0.01883-1.1165 0.37153 0.04475 0.20434 0.32776 4.6639 0.6289 9.91 0.41215 7.18 0.50256 9.7074 0.36566 10.221-0.10003 0.37562-0.15608 0.72364-0.12456 0.77339 1.574 0.88863 3.1906 1.8015 4.9048 2.3148 1.3362-1.8775 3.7973-4.7292 4.2752-4.9538 3.318-0.46209 6.8529-0.48897 10.16 0.0229 5.6574 6.5601 11.184 13.765 16.197 20.845l-41.234 0.08249 8.7135-13.735c-0.03569-0.02979-2.8298-1.4995-6.2091-3.266-5.4967-2.8734-6.6195-3.3664-6.6059-2.9006 0.0022 0.07386 0.42578 1.8724 0.9414 3.9968l1.19 3.8625 0.01906 5.6271c0.01843 5.4432 0.0075 5.6385-0.33406 5.9768-0.37544 0.37185-1.1343 0.40383-3.3339 0.19464zm6.7209-24.808c-0.126-2.387-0.27701-4.518-0.33557-4.7357-0.08264-0.30718-0.47145 0.42387-1.7367 3.2654-0.89663 2.0137-1.656 3.711-1.6874 3.7719-0.06085 0.11785 3.795 2.1741 3.9168 2.0888 0.03957-0.02773-0.03115-2.0034-0.15715-4.3904zm-11.16-6.8789c1.0685-2.3846 1.9954-4.4737 2.0598-4.6425 0.10863-0.28444-0.01879-0.30322-1.7489-0.2578l-1.866 0.04899-1.971 3.6822c-1.084 2.0252-1.9355 3.7173-1.8922 3.7602 0.11052 0.10946 3.2829 1.7412 3.3888 1.743 0.04772 0.000818 0.96095-1.9495 2.0294-4.3342z"/>
    <path id="path3856" style="fill:#3a2d01" d="m34.236 77.871c-0.79265-0.07539-1.8141-0.39406-2.0982-0.67554l0.0091-11.63-0.93814-3.6951-0.93814-3.6951-5.1797 9.0229c-2.8489 4.9626-5.4581 9.3129-5.7984 9.6674-0.86375 0.89982-1.3658 0.85948-2.855-0.22936-1.2752-0.93239-1.5612-1.3962-1.3949-2.2626 0.14983-0.78064 0.01978-0.54339 6.0968-11.122 3.0117-5.2429 5.5079-9.6986 5.5471-9.9017 0.06098-0.31595-0.19657-0.5109-1.7845-1.3507-1.8336-0.96981-1.8587-0.97725-2.1078-0.62502-0.44244 0.62563-1.0767 0.44356-2.3147-0.66443-1.6988-1.5204-1.7577-1.2758 1.9874-8.2598 1.698-3.1666 3.2747-5.9508 3.5037-6.1871l0.41632-0.42966 7.4387-0.04987 7.4387-0.04987-0.25392-0.80946c-0.5915-1.8856 0.0095-4.1966 1.4484-5.5693 2.4415-2.3292 6.364-1.5557 7.9025 1.5585 0.57991 1.1738 0.63589 3.0555 0.13056 4.3884-0.76105 2.0074-2.5339 3.2258-4.6934 3.2258-1.1372 0-1.1938 0.01883-1.1165 0.37153 0.04475 0.20434 0.32776 4.6639 0.6289 9.91 0.41215 7.18 0.50256 9.7074 0.36566 10.221-0.10003 0.37562-0.15608 0.72364-0.12456 0.77339 1.574 0.88863 3.1906 1.8015 4.9048 2.3148 1.3362-1.8775 3.7973-4.7292 4.2752-4.9538 3.318-0.46209 6.8529-0.48897 10.16 0.0229 5.6574 6.5601 11.184 13.765 16.197 20.845l-41.234 0.08249 8.7135-13.735c-0.03569-0.02979-2.8298-1.4995-6.2091-3.266-5.4967-2.8734-6.6195-3.3664-6.6059-2.9006 0.0022 0.07386 0.42578 1.8724 0.9414 3.9968l1.19 3.8625 0.01906 5.6271c0.01843 5.4432 0.0075 5.6385-0.33406 5.9768-0.37544 0.37185-1.1343 0.40383-3.3339 0.19464zm6.7209-24.808c-0.126-2.387-0.27701-4.518-0.33557-4.7357-0.08264-0.30718-0.47145 0.42387-1.7367 3.2654-0.89663 2.0137-1.656 3.711-1.6874 3.7719-0.06085 0.11785 3.795 2.1741 3.9168 2.0888 0.03957-0.02773-0.03115-2.0034-0.15715-4.3904zm-11.16-6.8789c1.0685-2.3846 1.9954-4.4737 2.0598-4.6425 0.10863-0.28444-0.01879-0.30322-1.7489-0.2578l-1.866 0.04899-1.971 3.6822c-1.084 2.0252-1.9355 3.7173-1.8922 3.7602 0.11052 0.10946 3.2829 1.7412 3.3888 1.743 0.04772 0.000818 0.96095-1.9495 2.0294-4.3342z"/>
    <path id="path3869" style="opacity:.8;filter:url(#filter3881);stroke:#000;fill:none" clip-path="url(#clipPath3873)" transform="translate(90,1)" d="m-55.764 77.871c-0.79265-0.07539-1.8141-0.39406-2.0982-0.67554l0.0091-11.63-0.93814-3.6951-0.93814-3.6951-5.1797 9.0229c-2.8489 4.9626-5.4581 9.3129-5.7984 9.6674-0.86375 0.89982-1.3658 0.85948-2.855-0.22936-1.2752-0.93239-1.5612-1.3962-1.3949-2.2626 0.14983-0.78064 0.01978-0.54339 6.0968-11.122 3.0117-5.2429 5.5079-9.6986 5.5471-9.9017 0.06098-0.31595-0.19657-0.5109-1.7845-1.3507-1.8336-0.96981-1.8587-0.97725-2.1078-0.62502-0.44244 0.62563-1.0767 0.44356-2.3147-0.66443-1.6988-1.5204-1.7577-1.2758 1.9874-8.2598 1.698-3.1666 3.2747-5.9508 3.5037-6.1871l0.41632-0.42966 7.4387-0.04987 7.4387-0.04987-0.25392-0.80946c-0.5915-1.8856 0.0095-4.1966 1.4484-5.5693 2.4415-2.3292 6.364-1.5557 7.9025 1.5585 0.57991 1.1738 0.63589 3.0555 0.13056 4.3884-0.76105 2.0074-2.5339 3.2258-4.6934 3.2258-1.1372 0-1.1938 0.01883-1.1165 0.37153 0.04475 0.20434 0.32776 4.6639 0.6289 9.91 0.41215 7.18 0.50256 9.7074 0.36566 10.221-0.10003 0.37562-0.15608 0.72364-0.12456 0.77339 1.574 0.88863 3.1906 1.8015 4.9048 2.3148 1.3362-1.8775 3.7973-4.7292 4.2752-4.9538 3.318-0.46209 6.8529-0.48897 10.16 0.0229 5.6574 6.5601 11.184 13.765 16.197 20.845l-41.234 0.08249 8.7135-13.735c-0.03569-0.02979-2.8298-1.4995-6.2091-3.266-5.4967-2.8734-6.6195-3.3664-6.6059-2.9006 0.0022 0.07386 0.42578 1.8724 0.9414 3.9968l1.19 3.8625 0.01906 5.6271c0.01843 5.4432 0.0075 5.6385-0.33406 5.9768-0.37544 0.37185-1.1343 0.40383-3.3339 0.19464zm6.7209-24.808c-0.126-2.387-0.27701-4.518-0.33557-4.7357-0.08264-0.30718-0.47145 0.42387-1.7367 3.2654-0.89663 2.0137-1.656 3.711-1.6874 3.7719-0.06085 0.11785 3.795 2.1741 3.9168 2.0888 0.03957-0.02773-0.03115-2.0034-0.15715-4.3904zm-11.16-6.8789c1.0685-2.3846 1.9954-4.4737 2.0598-4.6425 0.10863-0.28444-0.01879-0.30322-1.7489-0.2578l-1.866 0.04899-1.971 3.6822c-1.084 2.0252-1.9355 3.7173-1.8922 3.7602 0.11052 0.10946 3.2829 1.7412 3.3888 1.743 0.04772 0.000818 0.96095-1.9495 2.0294-4.3342z"/>
   </g>
  </g>
  <rect id="rect3003" style="opacity:.15;fill:#fff" clip-path="url(#clipPath3009)" rx="25" ry="25" transform="translate(98)" width="92" y="958.36" x="-96" height="92"/>
 </g>
</svg>
