<?xml version="1.0" encoding="UTF-8" standalone="no"?>
<!-- Created with Inkscape (http://www.inkscape.org/) -->
<svg id="svg11037" xmlns:rdf="http://www.w3.org/1999/02/22-rdf-syntax-ns#" xmlns="http://www.w3.org/2000/svg" height="96" width="96" version="1.1" xmlns:cc="http://creativecommons.org/ns#" xmlns:xlink="http://www.w3.org/1999/xlink" xmlns:dc="http://purl.org/dc/elements/1.1/">
 <defs id="defs11039">
  <clipPath id="clipPath3009" clipPathUnits="userSpaceOnUse">
   <path id="path3011" style="opacity:.15;fill:#fff" d="m-2 956.36h-96v33.562l96 25.687v-59.25z"/>
  </clipPath>
  <linearGradient id="linearGradient3617" y2="5.9877" gradientUnits="userSpaceOnUse" y1="90" x2="48" x1="48">
   <stop id="stop3189" style="stop-color:#282828" offset="0"/>
   <stop id="stop3191" style="stop-color:#5a5a5a" offset="1"/>
  </linearGradient>
  <radialGradient id="radialGradient4116" xlink:href="#linearGradient3386" gradientUnits="userSpaceOnUse" cy="66.598" cx="53.419" gradientTransform="matrix(1.0199 0 0 .85846 -19.686 -9.2682)" r="47.725"/>
  <linearGradient id="linearGradient3386">
   <stop id="stop3388" style="stop-color:#eeeeec" offset="0"/>
   <stop id="stop3390" style="stop-color:#eeeeec;stop-opacity:0" offset="1"/>
  </linearGradient>
  <radialGradient id="radialGradient3904" xlink:href="#linearGradient3386" gradientUnits="userSpaceOnUse" cy="66.598" cx="53.419" gradientTransform="matrix(1.0164 0 0 1.2415 -19.338 -31.113)" r="47.725"/>
  <radialGradient id="radialGradient3929" xlink:href="#linearGradient3386" gradientUnits="userSpaceOnUse" cy="66.598" cx="53.419" gradientTransform="matrix(1.0221 0 0 1.2415 -19.896 -47.863)" r="47.725"/>
  <radialGradient id="radialGradient3933" xlink:href="#linearGradient3386" gradientUnits="userSpaceOnUse" cy="66.598" cx="53.419" gradientTransform="matrix(1.475 0 0 .84786 -55.737 -9.8942)" r="47.725"/>
  <radialGradient id="radialGradient4114" xlink:href="#linearGradient3386" gradientUnits="userSpaceOnUse" cy="66.598" cx="53.419" gradientTransform="matrix(1.0199 0 0 .85846 -19.873 -11.927)" r="47.725"/>
  <radialGradient id="radialGradient3937" xlink:href="#linearGradient3386" gradientUnits="userSpaceOnUse" cy="66.598" cx="53.419" gradientTransform="matrix(1.475 0 0 .84786 -77.737 -9.8942)" r="47.725"/>
  <linearGradient id="linearGradient4262" x1="43.477" xlink:href="#linearGradient3260" gradientUnits="userSpaceOnUse" y1="26" gradientTransform="matrix(.72414 0 0 .75 1.6552 4.5)" x2="43.477" y2="34.001"/>
  <linearGradient id="linearGradient3260" gradientUnits="userSpaceOnUse">
   <stop id="stop3262" offset="0"/>
   <stop id="stop3266" style="stop-opacity:.35484" offset=".2"/>
   <stop id="stop3268" style="stop-opacity:0" offset=".55255"/>
   <stop id="stop3264" style="stop-opacity:0" offset="1"/>
  </linearGradient>
  <linearGradient id="linearGradient4320" x1="50.464" gradientUnits="userSpaceOnUse" y1="16.036" gradientTransform="translate(0 -.67857)" x2="50.464" y2="20.33">
   <stop id="stop4316" style="stop-color:#fff" offset="0"/>
   <stop id="stop4322" style="stop-color:#fff;stop-opacity:.49804" offset=".3"/>
   <stop id="stop4318" style="stop-color:#fff;stop-opacity:0" offset="1"/>
  </linearGradient>
  <linearGradient id="linearGradient4310" x1="48" xlink:href="#linearGradient3260" gradientUnits="userSpaceOnUse" y1="16" gradientTransform="matrix(1 0 0 1.25 0 -4.5982)" x2="48" y2="11.925"/>
  <linearGradient id="linearGradient4326" x1="48" xlink:href="#linearGradient3260" gradientUnits="userSpaceOnUse" y1="16" gradientTransform="matrix(1 0 0 1.25 0 4.4018)" x2="48" y2="11.925"/>
  <linearGradient id="linearGradient4371" x1="11" gradientUnits="userSpaceOnUse" y1="10.442" gradientTransform="matrix(.81331 0 0 .81133 3.9935 2.0282)" x2="16" y2="24">
   <stop id="stop3275" style="stop-color:#5d5d5d" offset="0"/>
   <stop id="stop3277" style="stop-color:#171717" offset="1"/>
  </linearGradient>
  <linearGradient id="linearGradient4373" x1="13.125" gradientUnits="userSpaceOnUse" y1="9.9419" gradientTransform="matrix(.81331 0 0 .81133 3.9935 2.0282)" x2="19.25" y2="24.5">
   <stop id="stop3291" style="stop-color:#919191" offset="0"/>
   <stop id="stop3293" style="stop-color:#232323" offset="1"/>
  </linearGradient>
  <radialGradient id="radialGradient4379" cx="11.312" gradientUnits="userSpaceOnUse" cy="14.938" r="1.4375">
   <stop id="stop3301" style="stop-color:#dfdfdf" offset="0"/>
   <stop id="stop3303" style="stop-color:#434343" offset="1"/>
  </radialGradient>
  <linearGradient id="linearGradient4520" x1="70.782" gradientUnits="userSpaceOnUse" y1="83.017" gradientTransform="matrix(1.0513 0 0 1.0513 -120.23 31.416)" x2="75.404" y2="22.03">
   <stop id="stop3279" style="stop-color:#3d9119" offset="0"/>
   <stop id="stop3281" style="stop-color:#76e62b" offset="1"/>
  </linearGradient>
  <radialGradient id="radialGradient4522" xlink:href="#linearGradient3266" gradientUnits="userSpaceOnUse" cy="75.264" cx="40.847" gradientTransform="matrix(.98480 .025979 -.018238 .69136 1.9937 24.82)" r="14.672"/>
  <linearGradient id="linearGradient3266">
   <stop id="stop3269" style="stop-color:#87ff2b" offset="0"/>
   <stop id="stop3271" style="stop-color:#87ff2b;stop-opacity:0" offset="1"/>
  </linearGradient>
  <radialGradient id="radialGradient4526" xlink:href="#linearGradient3266" gradientUnits="userSpaceOnUse" cy="25.073" cx="54.75" gradientTransform="matrix(1.5434 .28142 -.32723 1.7946 -138.18 -6.0461)" r="13"/>
  <radialGradient id="radialGradient4528" xlink:href="#linearGradient3266" gradientUnits="userSpaceOnUse" cy="31.702" cx="56.496" gradientTransform="matrix(.88268 0 -2.2566e-8 1.115 -69.08 51.097)" r="13"/>
  <clipPath id="clipPath3248" clipPathUnits="userSpaceOnUse">
   <rect id="rect3251" style="fill:url(#linearGradient3253)" rx="22.826" ry="22.826" height="84" width="84" y="6.1849" x="6"/>
  </clipPath>
  <linearGradient id="linearGradient3253" x1="48" gradientUnits="userSpaceOnUse" y1="962.62" gradientTransform="matrix(1.05 0 0 1.05 -2.4 -1006.4)" x2="48" y2="1046.1">
   <stop id="stop3797" style="stop-color:#13a6fd" offset="0"/>
   <stop id="stop3799" style="stop-color:#2975b6" offset="1"/>
  </linearGradient>
 </defs>
 <metadata id="metadata11042">
  <rdf:RDF>
   <cc:Work rdf:about="">
    <dc:format>image/svg+xml</dc:format>
    <dc:type rdf:resource="http://purl.org/dc/dcmitype/StillImage"/>
    <dc:title/>
   </cc:Work>
  </rdf:RDF>
 </metadata>
 <g id="layer1" transform="translate(0 -956.36)">
  <g id="g3104" transform="matrix(1.0952 0 0 1.0952 -4.5714 951.59)" clip-path="url(#clipPath3248)">
   <g id="layer1-1">
    <rect id="rect2419" style="fill:url(#linearGradient3617)" rx="6" ry="6" height="84" width="84" y="6" x="6"/>
    <path id="path3890" style="opacity:.8;fill:url(#radialGradient4116)" d="m36.562 32.062c-0.3193 0.000003-0.56595 0.04413-0.75 0.125-0.18266 0.07948-0.31423 0.17168-0.40625 0.3125-0.09063 0.13944-0.15625 0.31119-0.15625 0.46875 0 0.23983 0.10278 0.40773 0.28125 0.5625 0.17708 0.15477 0.45949 0.28158 0.875 0.375 0.25377 0.05577 0.43028 0.12476 0.5 0.1875 0.07 0.063 0.094 0.14 0.094 0.219-0.000002 0.08366-0.01985 0.15461-0.09375 0.21875-0.07251 0.06275-0.17725 0.09375-0.3125 0.09375-0.18126 0.000001-0.3399-0.0634-0.4375-0.1875-0.05996-0.07669-0.10548-0.19734-0.125-0.34375l-0.875 0.0625c0.02649 0.30954 0.11172 0.58047 0.3125 0.78125s0.57227 0.28125 1.0938 0.28125c0.29699 0 0.55479-0.03995 0.75-0.125 0.1952-0.08645 0.32874-0.20907 0.4375-0.375 0.10876-0.16592 0.1875-0.33465 0.1875-0.53125-0.000003-0.16732-0.04274-0.3335-0.125-0.46875-0.08087-0.13525-0.22638-0.25312-0.40625-0.34375-0.17848-0.09202-0.46088-0.16076-0.875-0.25-0.167-0.035-0.268-0.085-0.312-0.125-0.046-0.039-0.094-0.076-0.094-0.125 0-0.06693 0.03798-0.14148 0.09375-0.1875 0.05577-0.0474 0.13985-0.0625 0.25-0.0625 0.13385 0 0.2372 0.03101 0.3125 0.09375 0.07669 0.06275 0.13254 0.17446 0.15625 0.3125l0.875-0.0625c-0.04-0.317-0.138-0.542-0.344-0.687-0.205-0.146-0.515-0.218-0.907-0.219zm14.969 0c-0.49778 0.000003-0.87738 0.12739-1.1562 0.40625-0.27887 0.27887-0.4375 0.68694-0.4375 1.1875 0 0.35834 0.07792 0.63657 0.21875 0.875s0.33662 0.4211 0.5625 0.53125c0.22728 0.11015 0.49795 0.15625 0.84375 0.15625 0.34022 0 0.61647-0.06062 0.84375-0.1875 0.22867-0.12828 0.41134-0.30258 0.53125-0.53125 0.1213-0.23006 0.1875-0.51666 0.1875-0.875-0.000004-0.49359-0.13018-0.88296-0.40625-1.1562-0.27608-0.27468-0.67718-0.40625-1.1875-0.40625zm3.375 0c-0.3193 0.000003-0.5972 0.04413-0.78125 0.125-0.18266 0.07948-0.31422 0.17168-0.40625 0.3125-0.09063 0.13944-0.125 0.31119-0.125 0.46875 0 0.23983 0.07153 0.40773 0.25 0.5625 0.17708 0.15477 0.49074 0.28158 0.90625 0.375 0.25377 0.05577 0.39903 0.12476 0.46875 0.1875 0.06972 0.06275 0.125 0.13927 0.125 0.21875-0.000002 0.08366-0.0511 0.15461-0.125 0.21875-0.072 0.063-0.177 0.094-0.312 0.094-0.181 0-0.308-0.063-0.406-0.187-0.06-0.077-0.105-0.198-0.125-0.344l-0.90625 0.0625c0.02649 0.30954 0.14297 0.58047 0.34375 0.78125s0.57227 0.28125 1.0938 0.28125c0.29699 0 0.52354-0.03995 0.71875-0.125 0.1952-0.08645 0.35999-0.20907 0.46875-0.375 0.10876-0.16592 0.15625-0.33465 0.15625-0.53125-0.000003-0.16732-0.04274-0.3335-0.125-0.46875-0.081-0.134-0.195-0.252-0.375-0.343-0.178-0.092-0.492-0.161-0.906-0.25-0.168-0.035-0.268-0.085-0.313-0.125-0.04602-0.03903-0.0625-0.0762-0.0625-0.125 0-0.06693 0.03798-0.14148 0.09375-0.1875 0.05577-0.0474 0.13985-0.0625 0.25-0.0625 0.13386 0 0.2372 0.03101 0.3125 0.09375 0.07669 0.06275 0.10129 0.17446 0.125 0.3125l0.90625-0.0625c-0.03905-0.3179-0.16864-0.54249-0.375-0.6875-0.20497-0.1464-0.4832-0.21875-0.875-0.21875zm-39.906 0.063v3.0625h0.9375v-1.25h1.1875v-0.625h-1.1875v-0.53125h1.4062v-0.65625h-2.3438zm3.3125 0-1.1562 3.0625h0.96875l0.125-0.53125h1.0938l0.15625 0.53125h0.96875l-1.125-3.0625h-1.0312zm2.4688 0v3.0625h2.5938v-0.71875h-1.6562v-0.59375h1.5v-0.625h-1.5v-0.5h1.5938v-0.625h-2.5312zm3.0938 0v3.0625h0.90625v-1.6875l1.1562 1.6875h0.875v-3.0625h-0.875v1.6875l-1.1562-1.6875h-0.90625zm3.5 0v0.625h1.5312l-1.6875 1.7812v0.65625h2.9062v-0.65625h-1.7812l1.7188-1.8125v-0.59375h-2.6875zm4.0312 0-1.1562 3.0625h0.96875l0.125-0.53125h1.0938l0.15625 0.53125h0.96875l-1.125-3.0625h-1.0312zm6.7812 0v0.75h0.96875v2.3125h0.9375v-2.3125h0.96875v-0.75h-2.875zm3.3125 0v1.8125c0 0.15059 0.03519 0.33604 0.09375 0.53125 0.03625 0.12131 0.0899 0.22942 0.1875 0.34375 0.099 0.11434 0.22523 0.18726 0.34375 0.25 0.11852 0.06135 0.26181 0.10409 0.4375 0.125 0.17708 0.02091 0.3508 0.03125 0.5 0.03125 0.25795 0 0.4722-0.02543 0.65625-0.09375 0.13246-0.0488 0.25508-0.13009 0.375-0.25 0.1213-0.12131 0.19422-0.27715 0.25-0.4375 0.05716-0.16174 0.09375-0.31874 0.09375-0.5v-1.8125h-0.9375v1.8438c-0.000002 0.17011-0.06283 0.31283-0.15625 0.40625-0.09203 0.09203-0.21186 0.125-0.375 0.125-0.16453 0-0.28158-0.03158-0.375-0.125-0.09203-0.09481-0.15625-0.23893-0.15625-0.40625v-1.8438h-0.9375zm3.5938 0v3.0625h1.4062c0.16871 0 0.35474-0.03798 0.5625-0.09375 0.15198-0.04044 0.27379-0.12869 0.40625-0.25 0.13246-0.1227 0.2386-0.25763 0.3125-0.4375 0.07529-0.18126 0.125-0.45358 0.125-0.78125 0-0.20915-0.01231-0.40691-0.0625-0.59375-0.0502-0.18684-0.13846-0.35917-0.25-0.5-0.11155-0.14082-0.266-0.2372-0.4375-0.3125-0.17-0.076-0.379-0.094-0.656-0.094h-1.4062zm3.3438 0v3.0625h0.9375v-3.0625h-0.9375zm3.0938 0.65625c0.19939 0.000003 0.35302 0.05365 0.46875 0.1875 0.11713 0.13246 0.1875 0.33638 0.1875 0.625-0.000002 0.34301-0.07596 0.58629-0.1875 0.71875-0.11155 0.13246-0.26518 0.21875-0.46875 0.21875-0.198 0-0.35302-0.0835-0.46875-0.21875-0.11433-0.13525-0.15625-0.34671-0.15625-0.65625-0.000001-0.31233 0.04052-0.55225 0.15625-0.6875 0.11573-0.13524 0.27772-0.1875 0.46875-0.1875zm-5.5 0.03125h0.25c0.2454 0.000003 0.39403 0.03634 0.5 0.15625 0.10596 0.11992 0.1875 0.36262 0.1875 0.6875 0 0.2454-0.04634 0.4211-0.09375 0.53125-0.04741 0.10876-0.10384 0.17413-0.1875 0.21875-0.08366 0.04323-0.23951 0.0625-0.4375 0.0625h-0.21875v-1.6562zm-27.22 0.094 0.344 1.094h-0.6875l0.34375-1.0938zm13.094 0l0.344 1.094h-0.6875l0.34375-1.0938zm-8.875 4.9688c-0.36464 0.000002-0.64928 0.05669-0.84375 0.21875s-0.3125 0.41759-0.3125 0.71875c0 0.24039 0.07964 0.4207 0.21875 0.5625 0.14045 0.14181 0.35373 0.24767 0.65625 0.3125l0.3125 0.0625c0.18367 0.04051 0.31423 0.07369 0.375 0.125 0.06213 0.05132 0.09375 0.12421 0.09375 0.21875-0.000002 0.10534-0.06576 0.19328-0.15625 0.25-0.09049 0.05671-0.20484 0.09375-0.375 0.09375-0.16746 0-0.35028-0.04243-0.53125-0.09375-0.17962-0.05267-0.36938-0.11611-0.5625-0.21875v0.65625c0.193 0.072 0.401 0.12 0.594 0.157 0.193 0.036 0.371 0.062 0.562 0.062 0.4065 0 0.70907-0.08794 0.90625-0.25 0.19852-0.16341 0.3125-0.41642 0.3125-0.75-0.000003-0.2539-0.07695-0.42475-0.21875-0.5625-0.14181-0.13775-0.38247-0.24497-0.71875-0.3125l-0.343-0.063c-0.15801-0.03241-0.25173-0.08043-0.3125-0.125-0.05942-0.04592-0.09375-0.10647-0.09375-0.1875 0-0.10804 0.03586-0.19869 0.125-0.25 0.08913-0.05131 0.21988-0.0625 0.40625-0.0625 0.14045 0 0.31074-0.0065 0.46875 0.03125 0.15801 0.03782 0.30263 0.11322 0.46875 0.1875v-0.65625c-0.18772-0.04997-0.35568-0.06943-0.53125-0.09375-0.17557-0.02566-0.33389-0.03125-0.5-0.03125zm2.7812 0c-0.36464 0.000003-0.64928 0.05669-0.84375 0.21875s-0.28125 0.41759-0.28125 0.71875c-0.000001 0.2404 0.07965 0.4207 0.21875 0.5625 0.14045 0.14181 0.35373 0.24767 0.65625 0.3125l0.313 0.062c0.18367 0.04051 0.28298 0.07368 0.34375 0.125 0.06212 0.05132 0.09375 0.12421 0.09375 0.21875-0.000001 0.10534-0.03451 0.19329-0.125 0.25s-0.20484 0.09375-0.375 0.09375c-0.16747 0-0.35028-0.04243-0.53125-0.09375-0.17962-0.05267-0.36937-0.11611-0.5625-0.21875v0.65625c0.19313 0.07158 0.36938 0.11979 0.5625 0.15625 0.192 0.037 0.401 0.063 0.593 0.063 0.4065 0 0.70907-0.08794 0.90625-0.25 0.19852-0.16341 0.28125-0.41642 0.28125-0.75-0.000002-0.2539-0.0457-0.42475-0.1875-0.5625-0.14181-0.13775-0.38247-0.24497-0.71875-0.3125l-0.344-0.063c-0.158-0.032-0.251-0.08-0.312-0.124-0.059-0.046-0.094-0.107-0.094-0.188-0.000002-0.10804 0.03586-0.19869 0.125-0.25 0.08913-0.05131 0.21988-0.0625 0.40625-0.0625 0.14045 0 0.31074-0.0066 0.46875 0.03125 0.15801 0.03782 0.30263 0.11322 0.46875 0.1875v-0.656c-0.188-0.05-0.356-0.069-0.531-0.094-0.176-0.025-0.365-0.031-0.532-0.031zm6.2812 0c-0.34945 0.05242-0.61889 0.19658-0.84375 0.40625-0.29982 0.27956-0.4375 0.66871-0.4375 1.1562 0 0.48214 0.14309 0.87399 0.4375 1.1562 0.295 0.281 0.685 0.406 1.189 0.406 0.22283 0 0.44692-0.01524 0.65625-0.0625 0.20933-0.04727 0.39927-0.12421 0.59375-0.21875v-1.4688h-1.2188v0.53125h0.46875v0.59375c-0.05537 0.0216-0.11727 0.02045-0.1875 0.03125-0.06888 0.0095-0.13772 0.03125-0.21875 0.03125-0.29847 0.000001-0.52544-0.07578-0.6875-0.25s-0.25-0.42992-0.25-0.75c-0.000001-0.32277 0.08254-0.57713 0.25-0.75 0.16881-0.17422 0.40813-0.25 0.71875-0.25 0.16746 0 0.33388 0.01524 0.5 0.0625 0.16746 0.04727 0.36243 0.12286 0.53125 0.21875v-0.625c-0.164-0.075-0.346-0.15-0.532-0.188-0.183-0.038-0.392-0.031-0.593-0.031-0.13033 0.000001-0.25852-0.01747-0.375 0zm-17.093 0.031v3.0312h0.75v-2.2188l0.6875 1.6562h0.5l0.6875-1.6562v2.2188h0.75v-3.0312h-1l-0.6875 1.625-0.6875-1.625h-1zm4.125 0v3.0312h2.1562v-0.59375h-1.375v-0.6875h1.25v-0.59375h-1.25v-0.5625h1.3438v-0.59375h-2.125zm15.25 0v3.0312h2.1562v-0.59375h-1.375v-0.6875h1.25v-0.59375h-1.25v-0.5625h1.3125v-0.59375h-2.0938zm-5.8438 0.03125-1.125 3.0312h0.78125l0.1875-0.5625h1.2188l0.1875 0.5625h0.78125l-1.125-3.0312h-0.90625zm0.469 0.688l0.40625 1.2188h-0.84375l0.438-1.219z"/>
    <path id="path3842" style="opacity:.8;fill:url(#radialGradient3904)" d="m40 39h41v1h-41v-1z"/>
    <path id="path3840" style="opacity:.8;fill:url(#radialGradient3929)" d="m15 69h66v1h-66v-1z"/>
    <path id="text3348" style="opacity:.8;fill:url(#radialGradient3933)" d="m59 70v14h-1v-14h1z"/>
    <path id="path3870" style="opacity:.8;fill:url(#radialGradient4114)" d="m41.781 62.875c-0.36464 0.000003-0.64928 0.05669-0.84375 0.21875s-0.28125 0.41759-0.28125 0.71875c0 0.2404 0.07964 0.4207 0.21875 0.5625 0.14045 0.1418 0.35373 0.24767 0.65625 0.3125l0.3125 0.0625c0.18367 0.04051 0.28298 0.07368 0.34375 0.125 0.06212 0.05132 0.09375 0.12421 0.09375 0.21875-0.000002 0.10534-0.03452 0.19328-0.125 0.25-0.09049 0.05671-0.20484 0.09375-0.375 0.09375-0.16747 0-0.35028-0.04243-0.53125-0.09375-0.17962-0.05267-0.36938-0.11611-0.5625-0.21875v0.65625c0.19312 0.07157 0.36938 0.11979 0.5625 0.15625 0.19312 0.03647 0.40197 0.0625 0.59375 0.0625 0.4065 0 0.70907-0.08794 0.90625-0.25 0.19852-0.16341 0.28125-0.41642 0.28125-0.75-0.000003-0.2539-0.0457-0.42474-0.1875-0.5625-0.142-0.137-0.383-0.244-0.719-0.312l-0.344-0.063c-0.158-0.032-0.251-0.08-0.312-0.124-0.06-0.046-0.094-0.107-0.094-0.188 0-0.10804 0.03586-0.19868 0.125-0.25 0.08913-0.05131 0.21988-0.0625 0.40625-0.0625 0.14045 0 0.31074-0.0066 0.46875 0.03125 0.15801 0.03782 0.30263 0.11322 0.46875 0.1875v-0.65625c-0.188-0.05-0.356-0.069-0.532-0.094-0.175-0.025-0.365-0.031-0.531-0.031zm3.0625 0c-0.339 0.053-0.623 0.195-0.844 0.406-0.29441 0.28091-0.4375 0.67276-0.4375 1.1562 0 0.48214 0.14309 0.87399 0.4375 1.1562 0.294 0.282 0.684 0.407 1.188 0.407 0.16881 0 0.34469-0.02468 0.5-0.0625 0.15531-0.03781 0.29434-0.08197 0.4375-0.15625v-0.625c-0.14451 0.09859-0.2658 0.17283-0.40625 0.21875-0.14046 0.04592-0.31344 0.0625-0.46875 0.0625-0.27821 0.000001-0.49689-0.10298-0.65625-0.28125s-0.21875-0.40678-0.21875-0.71875c-0.000001-0.31332 0.05939-0.57173 0.21875-0.75 0.15936-0.17826 0.37804-0.25 0.65625-0.25 0.15531 0 0.32829 0.01659 0.46875 0.0625 0.14045 0.04592 0.26174 0.12016 0.40625 0.21875v-0.625c-0.14316-0.07428-0.28219-0.14969-0.4375-0.1875-0.15531-0.0378-0.33119-0.03125-0.5-0.03125-0.12594 0.000001-0.2309-0.01764-0.34375 0zm-18.875 0.03125v0.59375h1v2.4375h0.78125v-2.4375h1v-0.59375h-2.7812zm3.1875 0v3.0312h2.1562v-0.59375h-1.375v-0.6875h1.25v-0.59375h-1.25v-0.5625h1.3125v-0.59375h-2.0938zm17.625 0v3.0312h2.1562v-0.59375h-1.375v-0.6875h1.25v-0.59375h-1.25v-0.5625h1.3125v-0.59375h-2.0938zm2.8438 0v3.0312h0.71875v-2.0625l1.125 2.0625h0.84375v-3.0312h-0.71875v2.0938l-1.0938-2.0938h-0.875zm3.4688 0v3.0312h2.1562v-0.59375h-1.375v-0.6875h1.25v-0.59375h-1.25v-0.5625h1.3125v-0.59375h-2.0938zm11.656 0v0.59375h1v2.4375h0.78125v-2.4375h1v-0.59375h-2.7812zm6.0938 0v3.0312h0.78125v-1.1875l1.1875 1.1875h0.96875l-1.5938-1.5938 1.4375-1.4375h-0.90625l-1.0938 1.125v-1.125h-0.78125zm3.1875 0v3.0312h2.1562v-0.59375h-1.375v-0.6875h1.25v-0.59375h-1.25v-0.5625h1.3438v-0.59375h-2.125zm-54.032 0.032v3.0312h0.8125c0.45377 0 0.80436-0.06017 1.0312-0.125 0.22688-0.06618 0.43168-0.15584 0.59375-0.3125 0.1418-0.1364 0.24362-0.29048 0.3125-0.46875 0.06887-0.17962 0.09375-0.39676 0.09375-0.625-0.000002-0.22554-0.02487-0.41548-0.09375-0.59375-0.068-0.179-0.17-0.333-0.311-0.469-0.161-0.157-0.369-0.279-0.594-0.344-0.224-0.066-0.572-0.093-1.032-0.093h-0.8125zm4.1875 0-1.0938 3.0312h0.78125l0.1875-0.5625h1.2188l0.1875 0.5625h0.78125l-1.125-3.0312h-0.9375zm44.188 0-1.125 3.0312h0.78125l0.21875-0.5625h1.2188l0.1875 0.5625h0.78125l-1.125-3.0312h-0.9375zm-47.594 0.59375h0.28125c0.32007 0.000002 0.55128 0.06209 0.71875 0.21875 0.16746 0.15666 0.25 0.38769 0.25 0.6875-0.000003 0.30117-0.08119 0.52949-0.25 0.6875-0.16747 0.15802-0.40003 0.25-0.71875 0.25h-0.28125v-1.8438zm3.875 0.09375 0.4375 1.2188h-0.84375l0.40625-1.2188zm44.188 0 0.40625 1.2188h-0.8125l0.40625-1.2188z"/>
    <path id="path3935" style="opacity:.8;fill:url(#radialGradient3937)" d="m37 70v14h-1v-14h1z"/>
   </g>
   <g id="layer3">
    <path id="rect4237" d="m12 6c-3.324 0-6 2.676-6 6v12h84v-12c0-3.324-2.676-6-6-6h-72z"/>
    <rect id="rect3250" style="opacity:.8;fill:url(#linearGradient4262);fill-rule:evenodd" height="6" width="84" y="24" x="6"/>
    <rect id="rect4289" style="opacity:.3;fill:url(#linearGradient4320);fill-rule:evenodd" height="5" width="84" y="15" x="6"/>
    <g id="g4299" transform="translate(1)">
     <path id="path4293" style="fill:#f0f0f0;fill-rule:evenodd" d="m28.333 6-5.333 9 5.333 9h10.667l-5.333-9 5.333-9h-10.667z"/>
     <path id="path4295" style="fill:#f0f0f0;fill-rule:evenodd" d="m50.333 6-5.333 9 5.333 9h10.667l-5.333-9 5.333-9h-10.667z"/>
     <path id="path4297" style="fill:#f0f0f0;fill-rule:evenodd" d="m72.333 6-5.333 9 5.333 9h10.667l-5.333-9 5.333-9h-10.667z"/>
    </g>
    <rect id="rect4291" style="opacity:.7;fill:url(#linearGradient4310);fill-rule:evenodd" height="5" width="84" y="10" x="6"/>
    <rect id="rect4324" style="opacity:.7;fill:url(#linearGradient4326);fill-rule:evenodd" height="5" width="84" y="19" x="6"/>
    <path id="path4333" style="stroke-linejoin:round;stroke:url(#linearGradient4373);fill-rule:evenodd;fill:url(#linearGradient4371)" d="m12.005 10.5c1.1095 0 1.7702 0.98369 6.03 4.3027 4.3044 3.3537 5.4775 3.7265 5.4775 5.0746 0 1.3484-1.0882 1.6227-2.4399 1.6227h-8.1331c-1.352 0-2.44-1.086-2.44-2.434v-6.4906c0-1.348 0.468-2.075 1.505-2.075z"/>
    <path id="path4335" style="fill:url(#radialGradient4379);fill-rule:evenodd" transform="matrix(.81331 0 0 .81133 3.5869 1.0747)" d="m12.75 14.938a1.4375 1.4375 0 1 1 -2.875 0 1.4375 1.4375 0 1 1 2.875 0z"/>
    <path id="path4337" style="fill-rule:evenodd;fill:url(#radialGradient4379)" transform="matrix(.81331 0 0 .81133 3.5869 7.099)" d="m12.75 14.938a1.4375 1.4375 0 1 1 -2.875 0 1.4375 1.4375 0 1 1 2.875 0z"/>
    <path id="path4339" style="fill-rule:evenodd;fill:url(#radialGradient4379)" transform="matrix(.81331 0 0 .81133 11.618 7.099)" d="m12.75 14.938a1.4375 1.4375 0 1 1 -2.875 0 1.4375 1.4375 0 1 1 2.875 0z"/>
   </g>
   <g id="layer6">
    <g id="g4513" transform="matrix(.63946 0 0 .63946 81.521 -.30278)">
     <path id="path3261" style="stroke:#34870e;stroke-width:2.3457;fill:url(#linearGradient4520)" d="m-65.015 50.278v54.904c-3.8558-1.51-8.8945-1.768-14.094-0.36139-9.7177 2.6288-16.233 10.009-14.521 16.46 1.7121 6.4509 10.98 9.5609 20.698 6.9321 8.2561-2.2334 14.171-7.8963 14.718-13.503h0.06571v-40.377l35.186 4.3695v39.096c-3.8558-1.51-8.8945-1.768-14.094-0.36139-9.7177 2.6288-16.233 10.009-14.521 16.46 1.7121 6.4509 10.98 9.5609 20.698 6.9321 8.2561-2.2334 14.171-7.8963 14.718-13.503h0.06571v-70.542l-48.919-6.505zm6.8664 13.213 35.186 4.9609v4.4352l-35.186-4.3695v-5.0266z"/>
     <path id="path2494" style="fill:url(#radialGradient4522)" transform="matrix(1.0233 -.24106 .24106 1.0233 -138.2 40.809)" d="m56.392 82.48a14.672 9.2808 0 1 1 -29.345 0 14.672 9.2808 0 1 1 29.345 0z"/>
     <path id="path3278" style="fill:url(#radialGradient4522)" transform="matrix(1.0233 -.24106 .24106 1.0233 -96.755 53.447)" d="m56.392 82.48a14.672 9.2808 0 1 1 -29.345 0 14.672 9.2808 0 1 1 29.345 0z"/>
     <path id="path3282" style="stroke:url(#radialGradient4526);stroke-width:3.1277;fill:none" d="m-61.355 88.196v-33.511l24.18 3.9424"/>
     <path id="path3292" style="stroke:url(#radialGradient4528);stroke-width:4.9322;fill:none" d="m-19.213 107.9v-42.617"/>
    </g>
   </g>
  </g>
  <rect id="rect3003" style="opacity:.15;fill:#fff" clip-path="url(#clipPath3009)" rx="25" ry="25" transform="translate(98)" width="92" y="958.36" x="-96" height="92"/>
 </g>
</svg>
