<?xml version="1.0" encoding="UTF-8" standalone="no"?>
<!-- Created with Inkscape (http://www.inkscape.org/) -->
<svg id="svg11037" xmlns:rdf="http://www.w3.org/1999/02/22-rdf-syntax-ns#" xmlns="http://www.w3.org/2000/svg" height="96" width="96" version="1.1" xmlns:cc="http://creativecommons.org/ns#" xmlns:xlink="http://www.w3.org/1999/xlink" xmlns:dc="http://purl.org/dc/elements/1.1/">
 <defs id="defs11039">
  <clipPath id="clipPath3009" clipPathUnits="userSpaceOnUse">
   <path id="path3011" style="opacity:.15;fill:#fff" d="m-2 956.36h-96v33.562l96 25.687v-59.25z"/>
  </clipPath>
  <clipPath id="clipPath3820">
   <rect id="rect3822" style="fill:#fff" rx="6" ry="6" height="84" width="84" y="6" x="6"/>
  </clipPath>
  <radialGradient id="radialGradient3130" gradientUnits="userSpaceOnUse" cy="47.906" cx="47.844" r="59.406">
   <stop id="stop3812" offset="0"/>
   <stop id="stop3814" style="stop-opacity:0" offset="1"/>
  </radialGradient>
  <clipPath id="clipPath3048" clipPathUnits="userSpaceOnUse">
   <rect id="rect3050" style="fill:url(#linearGradient3052)" rx="22.826" ry="22.826" height="84" width="84" y="6" x="6"/>
  </clipPath>
  <linearGradient id="linearGradient3052" x1="48" gradientUnits="userSpaceOnUse" y1="962.62" gradientTransform="matrix(1.05 0 0 1.05 -2.4 -1006.6)" x2="48" y2="1046.1">
   <stop id="stop3797" style="stop-color:#13a6fd" offset="0"/>
   <stop id="stop3799" style="stop-color:#2975b6" offset="1"/>
  </linearGradient>
 </defs>
 <metadata id="metadata11042">
  <rdf:RDF>
   <cc:Work rdf:about="">
    <dc:format>image/svg+xml</dc:format>
    <dc:type rdf:resource="http://purl.org/dc/dcmitype/StillImage"/>
    <dc:title/>
   </cc:Work>
  </rdf:RDF>
 </metadata>
 <g id="layer1" transform="translate(0 -956.36)">
  <g id="g3085" transform="matrix(1.0952 0 0 1.0952 -4.5714 951.79)" clip-path="url(#clipPath3048)">
   <path id="path4500" style="fill:#00df16" d="m48.156 48c-7.6342 13.223-9.639 28.131-6.8125 42h23.968c-10.607-10.827-17.156-25.639-17.156-42z"/>
   <path id="path4516" style="fill:#04abcf" d="m48.156 48.094c-16.103 9.297-26.278 24.91-29.187 41.906h22.312c-2.8094-13.844-0.74673-28.705 6.875-41.906z"/>
   <path id="path4518" style="fill:#1a36d8" d="m48.094 48.156c-16.393 0-31.256 6.543-42.094 17.188v18.656c0 3.324 2.676 6 6 6h6.9375c2.92-16.972 13.072-32.558 29.156-41.844z"/>
   <path id="path4520" style="fill:#370099" d="m17.469 40.125c-3.868 0.035-7.7011 0.451-11.469 1.219v23.968c10.827-10.607 25.639-17.156 42-17.156-9.63-5.56-20.162-8.126-30.531-8.031z"/>
   <path id="path4522" style="fill:#650199" d="m6 18.969v22.312c13.844-2.8094 28.705-0.74675 41.906 6.875-9.297-16.103-24.91-26.278-41.906-29.187z"/>
   <path id="path4524" style="fill:#9c009b" d="m12 6c-3.324 0-6 2.676-6 6v6.9375c16.972 2.92 32.558 13.072 41.844 29.156 0-16.393-6.543-31.256-17.188-42.094h-18.656z"/>
   <path id="path4526" style="fill:#d10737" d="m30.688 6c10.607 10.827 17.156 25.639 17.156 42 7.634-13.223 9.639-28.131 6.812-42h-23.968z"/>
   <path id="path4528" style="fill:#fd0005" d="m54.719 6c2.8094 13.844 0.74674 28.705-6.875 41.906 16.103-9.297 26.278-24.91 29.187-41.906h-22.312z"/>
   <path id="path4530" style="fill:#ff6500" d="m77.062 6c-2.92 16.972-13.072 32.558-29.156 41.844 16.393 0 31.256-6.543 42.094-17.188v-18.656c0-3.324-2.676-6-6-6h-6.9375z"/>
   <path id="path4532" style="fill:#fdad00" d="m90 30.688c-10.827 10.607-25.639 17.156-42 17.156 13.223 7.6342 28.131 9.639 42 6.8125v-23.968z"/>
   <path id="path4534" style="fill:#fffd01" d="m48.094 47.844c9.297 16.103 24.91 26.278 41.906 29.187v-22.312c-13.844 2.8094-28.705 0.74675-41.906-6.875z"/>
   <path id="path4536" style="fill:#b6fd00" d="m48.156 47.906c0 16.393 6.5432 31.256 17.188 42.094h18.656c3.324 0 6-2.676 6-6v-6.9375c-16.972-2.92-32.558-13.072-41.844-29.156z"/>
   <path id="path3785" style="fill:url(#radialGradient3130)" clip-path="url(#clipPath3820)" d="m48.094-11.5c11.422 22.582 4.881 45.949 0.531 57.031-1.981-20.057-13.155-39.582-30.281-49.187 21.207 13.861 27.265 37.397 29.031 49.156-11.74-16.405-31.19-27.745-50.844-27.5 25.271 1.399 42.236 18.723 49.657 28.031-18.363-8.318-40.866-8.375-57.75 1.657 22.599-11.432 45.99-4.913 57.062-0.563-20.068 1.972-39.609 13.146-49.219 30.281 13.873-21.225 37.438-27.271 49.188-29.031-16.423 11.738-27.777 31.178-27.531 50.844 1.398-25.271 18.723-42.236 28.031-49.657-8.319 18.363-8.375 40.866 1.656 57.748-11.431-22.597-4.913-45.988-0.563-57.06 1.971 20.071 13.144 39.607 30.282 49.219-21.241-13.883-27.277-37.447-29.032-49.188 11.738 16.426 31.176 27.777 50.844 27.531-25.285-1.399-42.274-18.727-49.687-28.031 18.367 8.33 40.888 8.411 57.781-1.625-22.582 11.423-45.949 4.882-57.031 0.532 20.059-1.979 39.581-13.154 49.187-30.282-13.871 21.224-37.406 27.271-49.156 29.032 16.408-11.741 27.745-31.189 27.5-50.844-1.4 25.285-18.727 42.274-28.031 49.687 8.33-18.367 8.411-40.888-1.625-57.781zm-0.282 59.281c0.0346 0.000257 0.0621-0.004 0.0937 0 0.0338 0.02204 0.0347 0.06938 0.0625 0.09375-0.00027 0.03662-0.0268 0.06043-0.0312 0.09375-0.014 0.02029-0.0164 0.04453-0.0312 0.0625-0.0482-0.000358-0.0824-0.0239-0.125-0.03125-0.007-0.0048-0.0245 0.005-0.0312 0-0.0128-0.02324-0.0213-0.03969-0.0312-0.0625 0.002-0.03567 0.0256-0.06125 0.0312-0.09375 0.003-0.0082-0.004-0.02305 0-0.03125 0.0232-0.01278 0.0397-0.02128 0.0625-0.03125zm0.188 0.188c0.0329 0.10819 0.0662 0.21021 0.0625 0.3125-0.012-0.1-0.05-0.217-0.062-0.313z"/>
  </g>
  <rect id="rect3003" style="opacity:.15;fill:#fff" clip-path="url(#clipPath3009)" rx="25" ry="25" transform="translate(98)" width="92" y="958.36" x="-96" height="92"/>
 </g>
</svg>
