<?xml version="1.0" encoding="UTF-8" standalone="no"?>
<!-- Created with Inkscape (http://www.inkscape.org/) -->
<svg id="svg11037" xmlns:rdf="http://www.w3.org/1999/02/22-rdf-syntax-ns#" xmlns="http://www.w3.org/2000/svg" height="96" width="96" version="1.1" xmlns:cc="http://creativecommons.org/ns#" xmlns:xlink="http://www.w3.org/1999/xlink" xmlns:dc="http://purl.org/dc/elements/1.1/">
 <defs id="defs11039">
  <linearGradient id="linearGradient11642" x1="48" gradientUnits="userSpaceOnUse" x2="48" gradientTransform="matrix(1.15 0 0 1.15 -7.1999 -150.65)" y1="962.62" y2="1046.1">
   <stop id="stop3189" style="stop-color:#3c393e" offset="0"/>
   <stop id="stop3191" style="stop-color:#79727e" offset="1"/>
  </linearGradient>
  <clipPath id="clipPath3009" clipPathUnits="userSpaceOnUse">
   <path id="path3011" style="opacity:.15;fill:#fff" d="m-2 956.36h-96v33.562l96 25.687v-59.25z"/>
  </clipPath>
  <linearGradient id="linearGradient3582" y2="103.5" gradientUnits="userSpaceOnUse" y1="39.107" x2="74.261" x1="74.261">
   <stop id="stop3308" style="stop-color:#b7b7b7" offset="0"/>
   <stop id="stop3310" style="stop-color:#4b4b4b" offset="1"/>
  </linearGradient>
  <linearGradient id="linearGradient3584" y2="103.5" gradientUnits="userSpaceOnUse" y1="39.107" x2="58.001" x1="58.001">
   <stop id="stop3300" style="stop-color:#f9f9f9" offset="0"/>
   <stop id="stop3302" style="stop-color:#232323" offset="1"/>
  </linearGradient>
  <radialGradient id="radialGradient3620" gradientUnits="userSpaceOnUse" cy="96.222" cx="41.458" gradientTransform="matrix(.60787 .57244 -.54209 .57565 56.784 -13.518)" r="5">
   <stop id="stop3378" style="stop-color:#fff" offset="0"/>
   <stop id="stop3380" style="stop-color:#fff;stop-opacity:0" offset="1"/>
  </radialGradient>
  <radialGradient id="radialGradient3617" gradientUnits="userSpaceOnUse" cy="96.22" cx="86.421" gradientTransform="matrix(.58061 -.65421 .59139 .52486 -40.906 71.64)" r="5">
   <stop id="stop3370" style="stop-color:#fff" offset="0"/>
   <stop id="stop3372" style="stop-color:#fff;stop-opacity:0" offset="1"/>
  </radialGradient>
  <radialGradient id="radialGradient3614" xlink:href="#linearGradient3360" gradientUnits="userSpaceOnUse" cy="106.59" cx="64" gradientTransform="matrix(.77158 0 0 .49831 -1.3812 20.05)" r="8.8438"/>
  <linearGradient id="linearGradient3360">
   <stop id="stop3362" style="stop-color:#fff" offset="0"/>
   <stop id="stop3364" style="stop-color:#fff;stop-opacity:0" offset="1"/>
  </linearGradient>
  <radialGradient id="radialGradient3592" gradientUnits="userSpaceOnUse" cy="71.272" cx="66.961" r="31.272">
   <stop id="stop3318" style="stop-color:#ffd52f" offset="0"/>
   <stop id="stop3324" style="stop-color:#f70" offset=".1"/>
   <stop id="stop3227" style="stop-color:#f53900" offset=".175"/>
   <stop id="stop3225" style="stop-color:#eb4200" offset=".28"/>
   <stop id="stop3326" style="stop-color:#d71e00" offset=".35"/>
   <stop id="stop3320" offset="1"/>
  </radialGradient>
  <radialGradient id="radialGradient3594" xlink:href="#linearGradient3360" gradientUnits="userSpaceOnUse" cy="55.938" cx="47.172" gradientTransform="matrix(.57491 -.56679 .70030 .71033 -19.121 43.293)" r="6.2344"/>
  <filter id="filter3443" width="1.2448" y="-.12271" x="-.12241" height="1.2454" color-interpolation-filters="sRGB">
   <feGaussianBlur id="feGaussianBlur3445" stdDeviation="0.6359375"/>
  </filter>
  <radialGradient id="radialGradient3596" xlink:href="#linearGradient3360" gradientUnits="userSpaceOnUse" cy="57.106" cx="47.314" gradientTransform="matrix(.57491 -.56679 .70030 .71033 -17.122 42.793)" r="6.2344"/>
  <radialGradient id="radialGradient3598" xlink:href="#linearGradient3360" gradientUnits="userSpaceOnUse" cy="46.569" cx="64.109" gradientTransform="matrix(1 0 0 .64652 0 17.573)" r="7.0469"/>
  <filter id="filter3236" width="1.1756" y="-.25215" x="-.087778" height="1.5043" color-interpolation-filters="sRGB">
   <feGaussianBlur id="feGaussianBlur3238" stdDeviation="0.51546625"/>
  </filter>
  <radialGradient id="radialGradient3600" xlink:href="#linearGradient3360" gradientUnits="userSpaceOnUse" cy="49.69" cx="64.125" gradientTransform="matrix(1 0 0 .82381 0 11.066)" r="7.0469"/>
  <filter id="filter3439" width="1.2166" y="-.15505" x="-.10829" height="1.3101" color-interpolation-filters="sRGB">
   <feGaussianBlur id="feGaussianBlur3441" stdDeviation="0.6359375"/>
  </filter>
  <radialGradient id="radialGradient3602" xlink:href="#linearGradient3360" gradientUnits="userSpaceOnUse" cy="56.063" cx="80.953" gradientTransform="matrix(.60125 .54116 -.66730 .74140 69.691 -28.958)" r="6.2031"/>
  <filter id="filter3435" width="1.246" y="-.12333" x="-.12302" height="1.2467" color-interpolation-filters="sRGB">
   <feGaussianBlur id="feGaussianBlur3437" stdDeviation="0.6359375"/>
  </filter>
  <radialGradient id="radialGradient3604" xlink:href="#linearGradient3360" gradientUnits="userSpaceOnUse" cy="56.063" cx="80.953" gradientTransform="matrix(.60125 .54116 -.66730 .74140 68.442 -28.458)" r="6.2031"/>
  <radialGradient id="radialGradient3246" gradientUnits="userSpaceOnUse" cy="71.272" cx="66.961" r="31.272">
   <stop id="stop3457" style="stop-color:#e20800;stop-opacity:0" offset="0"/>
   <stop id="stop3463" style="stop-color:#e20800;stop-opacity:.50196" offset=".5"/>
   <stop id="stop3459" style="stop-color:#e20800;stop-opacity:0" offset="1"/>
  </radialGradient>
 </defs>
 <metadata id="metadata11042">
  <rdf:RDF>
   <cc:Work rdf:about="">
    <dc:format>image/svg+xml</dc:format>
    <dc:type rdf:resource="http://purl.org/dc/dcmitype/StillImage"/>
    <dc:title/>
   </cc:Work>
  </rdf:RDF>
 </metadata>
 <g id="layer1" transform="translate(0 -956.36)">
  <rect id="rect3867" style="fill:url(#linearGradient11642)" rx="25" ry="25" height="92" width="92" y="958.36" x="2"/>
  <g id="g3110" transform="translate(4.7616e-8 956.36)">
   <path id="path3805" style="opacity:.05" transform="matrix(1.6593 0 0 1.8447 -10.222 -55.292)" d="m35.094 39.812c-10.075 0-18.406 7.4085-18.406 16.719 0 9.3103 8.3314 16.719 18.406 16.719s18.406-7.408 18.406-16.719c0-9.31-8.331-16.719-18.406-16.719z"/>
   <path id="path3801" style="opacity:.1" transform="matrix(1.6593 0 0 1.8447 -10.222 -55.292)" d="m35.094 40.312c-9.8235 0-17.906 7.2157-17.906 16.219 0 9.0031 8.0828 16.219 17.906 16.219 9.823 0 17.906-7.216 17.906-16.219s-8.083-16.219-17.906-16.219z"/>
   <path id="path3797" style="opacity:.2" transform="matrix(1.6593 0 0 1.8447 -10.222 -55.292)" d="m35.094 40.75c-9.6078 0-17.469 7.0428-17.469 15.781 0 8.7384 7.8609 15.781 17.469 15.781 9.6078 0 17.469-7.0428 17.469-15.781-0.001-8.738-7.861-15.781-17.469-15.781z"/>
   <path id="path3623" style="opacity:.6" transform="matrix(1.6593 0 0 1.8447 -10.222 -55.292)" d="m51.964 56.536a16.875 15.179 0 1 1 -33.75 0 16.875 15.179 0 1 1 33.75 0z"/>
   <path id="path3294" style="stroke-linejoin:round;fill-rule:evenodd;stroke:url(#linearGradient3584);stroke-width:2.3165;fill:url(#linearGradient3582)" transform="matrix(.86339 0 0 .86339 -9.8135 -13.535)" d="m98.233 71.272a31.272 31.272 0 1 1 -62.544 0 31.272 31.272 0 1 1 62.544 0z"/>
   <path id="path3358" style="opacity:.4;fill:url(#radialGradient3620);fill-rule:evenodd" d="m32.162 68.74c-2.0487-1.5791-3.8754-3.4343-5.3759-5.5446l3.1821-2.3625c1.267 1.7957 2.7982 3.4033 4.5321 4.7491l-2.3384 3.158z"/>
   <path id="path3356" style="opacity:.6;fill:url(#radialGradient3617);fill-rule:evenodd" d="m63.838 68.74-2.3384-3.158c1.7339-1.3458 3.2651-2.9534 4.5321-4.7491l3.1821 2.3625c-1.5005 2.1103-3.3272 3.9656-5.3759 5.5446z"/>
   <path id="path3352" style="opacity:.5;fill:url(#radialGradient3614);fill-rule:evenodd" d="m48 74.164c-2.3634 0-4.6451-0.32393-6.8223-0.91607l1.0125-3.8089c1.8488 0.50361 3.8027 0.77142 5.8098 0.77142s3.961-0.26781 5.8098-0.77142l1.0125 3.8089c-2.1772 0.59215-4.4589 0.91607-6.8223 0.91607z"/>
   <path id="path3314" style="fill:url(#radialGradient3592);fill-rule:evenodd" transform="matrix(.76472 0 0 .76472 -3.2062 -6.5029)" d="m98.233 71.272a31.272 31.272 0 1 1 -62.544 0 31.272 31.272 0 1 1 62.544 0z"/>
   <path id="path2458" style="filter:url(#filter3443);fill:url(#radialGradient3594);fill-rule:evenodd" transform="matrix(.77143 0 0 .77143 -1.3713 -8.3142)" d="m48.219 50.072c-2.8503 1.937-5.3091 4.3945-7.2812 7.2188l3.4062 2.3438c1.6824-2.4031 3.7899-4.5085 6.2188-6.1562l-2.3438-3.4062z"/>
   <path id="path3386" style="filter:url(#filter3443);fill:url(#radialGradient3596);fill-rule:evenodd" transform="matrix(.85532 .041137 -.037059 .77054 -2.7296 -10.835)" d="m54.093 55.229c-2.1465 1.4552-4.0097 3.3169-5.5 5.4375l1.9062 1.3438c1.334-1.9039 2.9791-3.5411 4.9062-4.8438l-1.3125-1.9375z"/>
   <path id="path2468" style="filter:url(#filter3236);fill:url(#radialGradient3598);fill-rule:evenodd" transform="matrix(1.045 0 0 .77143 -18.907 -8.3142)" d="m64 45.228c-2.3906 0-4.7204 0.28063-6.9375 0.84375l1.0312 4c1.8878-0.47776 3.8706-0.71875 5.9062-0.71875 2.1153 0 4.1706 0.26663 6.125 0.78125l1.0312-4c-2.282-0.599-4.685-0.906-7.155-0.906z"/>
   <path id="path3397" style="filter:url(#filter3439);fill:url(#radialGradient3600);fill-rule:evenodd" transform="matrix(.77054 .037059 -.055773 1.1596 2.398 -31.591)" d="m64 53.852c-1.7858 0-3.5291 0.20794-5.1875 0.625l0.5625 2.2812c1.4842-0.3745 3.0255-0.59375 4.625-0.59375 1.6788 0 3.2932 0.24496 4.8438 0.65625l0.59375-2.2812c-1.733-0.458-3.562-0.687-5.437-0.687z"/>
   <path id="path2474" style="filter:url(#filter3435);fill:url(#radialGradient3602);fill-rule:evenodd" transform="matrix(.85232 0 0 .85232 -7.6506 -12.377)" d="m79.969 50.228-2.3438 3.375c2.3939 1.6567 4.4707 3.7606 6.125 6.1562l3.4062-2.3438c-1.9401-2.8116-4.379-5.2431-7.1875-7.1875z"/>
   <path id="path3400" style="filter:url(#filter3435);fill:url(#radialGradient3604);fill-rule:evenodd" transform="matrix(.85610 .041175 -.039816 .82785 -5.3212 -14.198)" d="m74.813 56.384-1.3125 1.9062c1.893 1.3095 3.5361 2.9181 4.8438 4.8125l1.9062-1.3125c-1.463-2.1148-3.3241-3.9414-5.4375-5.4062z"/>
   <path id="path3453" style="opacity:.2;fill:url(#radialGradient3246);fill-rule:evenodd" transform="matrix(1.3431 0 0 1.3431 -41.932 -47.722)" d="m98.233 71.272a31.272 31.272 0 1 1 -62.544 0 31.272 31.272 0 1 1 62.544 0z"/>
  </g>
  <rect id="rect3003" style="opacity:.15;fill:#fff" clip-path="url(#clipPath3009)" rx="25" ry="25" transform="translate(98)" width="92" y="958.36" x="-96" height="92"/>
 </g>
</svg>
