<?xml version="1.0" encoding="UTF-8" standalone="no"?>
<!-- Created with Inkscape (http://www.inkscape.org/) -->
<svg id="svg11037" xmlns:rdf="http://www.w3.org/1999/02/22-rdf-syntax-ns#" xmlns="http://www.w3.org/2000/svg" height="96" width="96" version="1.1" xmlns:cc="http://creativecommons.org/ns#" xmlns:xlink="http://www.w3.org/1999/xlink" xmlns:dc="http://purl.org/dc/elements/1.1/">
 <defs id="defs11039">
  <clipPath id="clipPath3009" clipPathUnits="userSpaceOnUse">
   <path id="path3011" style="opacity:.15;fill:#fff" d="m-2 956.36h-96v33.562l96 25.687v-59.25z"/>
  </clipPath>
  <linearGradient id="linearGradient3105" x1="11.999" gradientUnits="userSpaceOnUse" y1="1.8417" gradientTransform="matrix(2.7742 0 0 3.2616 2.8198 13.993)" x2="11.999" y2="20.237">
   <stop id="stop3639-1" style="stop-color:#f0f0f0" offset="0"/>
   <stop id="stop3641-4" style="stop-color:#aaa" offset="1"/>
  </linearGradient>
 </defs>
 <metadata id="metadata11042">
  <rdf:RDF>
   <cc:Work rdf:about="">
    <dc:format>image/svg+xml</dc:format>
    <dc:type rdf:resource="http://purl.org/dc/dcmitype/StillImage"/>
    <dc:title/>
   </cc:Work>
  </rdf:RDF>
 </metadata>
 <g id="layer1" transform="translate(0 -956.36)">
  <rect id="rect3867" style="opacity:.6" rx="25" ry="25" height="92" width="92" y="958.36" x="2"/>
  <g id="g3077" transform="translate(0 956.36)">
   <path id="path3894" style="opacity:.3" d="m42 21c-3.324 0-6 2.676-6 6h27c1.662 0 3 1.338 3 3v30c0 1.662-1.338 3-3 3h-27c0 3.324 2.676 6 6 6h9v4h-3v2h-9v2h9v2h12v-2h9v-2h-9v-2h-3v-4h9c3.324 0 6-2.676 6-6v-36c0-3.324-2.676-6-6-6h-24zm-17.031 7.0938c-1.662 0-3 1.338-3 3v1.9062h31.781c-0.44056-1.1089-1.5127-1.9062-2.7812-1.9062h-16c0-1.662-1.338-3-3-3h-7zm-0.5 7c-2.493 0-4.5 2.007-4.5 4.5v17c0 2.493 2.007 4.5 4.5 4.5h27.031c2.5135 0 4.4156-2.1958 4.4688-4.5v-17c0-2.493-2.007-4.5-4.5-4.5h-27z"/>
   <path id="path3096" style="fill:url(#linearGradient3105)" d="m42 20c-3.324 0-6 2.676-6 6h27c1.662 0 3 1.338 3 3v30c0 1.662-1.338 3-3 3h-27c0 3.324 2.676 6 6 6h9v4h-3v2h-9v2h9v2h12v-2h9v-2h-9v-2h-3v-4h9c3.324 0 6-2.676 6-6v-36c0-3.324-2.676-6-6-6h-24zm-17.031 7.0938c-1.662 0-3 1.338-3 3v1.9062h31.781c-0.44056-1.1089-1.5127-1.9062-2.7812-1.9062h-16c0-1.662-1.338-3-3-3h-7zm-0.5 7c-2.493 0-4.5 2.007-4.5 4.5v17c0 2.493 2.007 4.5 4.5 4.5h27.031c2.5135 0 4.4156-2.1958 4.4688-4.5v-17c0-2.493-2.007-4.5-4.5-4.5h-27z"/>
   <path id="path3108" style="opacity:.75;fill:#fff" d="m42 20c-3.324 0-6 2.676-6 6h0.09375c0.471-2.847 2.921-5 5.906-5h24c3.324 0 6 2.676 6 6v-1c0-3.324-2.676-6-6-6h-24zm-17.031 7.0938c-1.662 0-3 1.338-3 3v1c0-1.662 1.338-3 3-3h7c1.662 0 3 1.338 3 3h16c0.84041 0 1.5835 0.34758 2.125 0.90625h0.656c-0.44056-1.1089-1.5127-1.9062-2.7812-1.9062h-16c0-1.662-1.338-3-3-3h-7zm-0.5 7c-2.493 0-4.5 2.007-4.5 4.5v1c0-2.493 2.007-4.5 4.5-4.5h27c2.493 0 4.5 2.007 4.5 4.5v-1c0-2.493-2.007-4.5-4.5-4.5h-27zm41.531 24.906c0 1.662-1.338 3-3 3h-27c0 0.33914 0.04019 0.67651 0.09375 1h26.906c1.662 0 3-1.338 3-3v-1zm-18 13v1h3v-1h-3zm9 0v1h3v-1h-3zm-18 2v1h9v-1h-9zm21 0v1h9v-1h-9z"/>
   <path id="path3117" style="opacity:.15" d="m36.094 25c-0.054 0.323-0.094 0.661-0.094 1h27c1.662 0 3 1.338 3 3v-1c0-1.662-1.338-3-3-3h-26.906zm-14.125 6v1h31.781c-0.14869-0.37427-0.38041-0.7154-0.65625-1h-31.125zm-2 23.594v1c0 2.493 2.007 4.5 4.5 4.5h27.031c2.5135 0 4.4156-2.1958 4.4688-4.5v-1c-0.05317 2.3042-1.9552 4.5-4.4688 4.5h-27.031c-2.493 0-4.5-2.007-4.5-4.5zm52.031 6.406c0 3.324-2.676 6-6 6h-9v1h9c3.324 0 6-2.676 6-6v-1zm-36 1c0 3.324 2.676 6 6 6h9v-1h-9c-2.9849 0-5.4349-2.1528-5.9062-5h-0.094zm3 13v1h9v-1h-9zm21 0v1h9v-1h-9zm-12 2v1h12v-1h-12z"/>
  </g>
  <rect id="rect3003" style="opacity:.15;fill:#fff" clip-path="url(#clipPath3009)" rx="25" ry="25" transform="translate(98)" width="92" y="958.36" x="-96" height="92"/>
 </g>
</svg>
