<?xml version="1.0" encoding="UTF-8" standalone="no"?>
<!-- Created with Inkscape (http://www.inkscape.org/) -->
<svg id="svg11037" xmlns:rdf="http://www.w3.org/1999/02/22-rdf-syntax-ns#" xmlns="http://www.w3.org/2000/svg" height="96" width="96" version="1.1" xmlns:cc="http://creativecommons.org/ns#" xmlns:xlink="http://www.w3.org/1999/xlink" xmlns:dc="http://purl.org/dc/elements/1.1/">
 <defs id="defs11039">
  <clipPath id="clipPath3009" clipPathUnits="userSpaceOnUse">
   <path id="path3011" style="opacity:.15;fill:#fff" d="m-2 956.36h-96v33.562l96 25.687v-59.25z"/>
  </clipPath>
  <linearGradient id="linearGradient3139" x1="3" gradientUnits="userSpaceOnUse" y1="11" gradientTransform="matrix(0,3.125,-3.125,0,84.375,11.625)" x2="19" y2="11">
   <stop id="stop3639-5" style="stop-color:#f0f0f0" offset="0"/>
   <stop id="stop3641-9" style="stop-color:#aaa" offset="1"/>
  </linearGradient>
 </defs>
 <metadata id="metadata11042">
  <rdf:RDF>
   <cc:Work rdf:about="">
    <dc:format>image/svg+xml</dc:format>
    <dc:type rdf:resource="http://purl.org/dc/dcmitype/StillImage"/>
    <dc:title/>
   </cc:Work>
  </rdf:RDF>
 </metadata>
 <g id="layer1" transform="translate(0 -956.36)">
  <rect id="rect3867" style="opacity:.6" rx="25" ry="25" height="92" width="92" y="958.36" x="2"/>
  <g id="g3070" transform="translate(0 956.36)">
   <path id="path3928" style="opacity:.3;color:#000000" d="m50 22c-13.807 0-25 11.193-25 25 0 2.0685 0.24517 4.0777 0.71875 6h6.531c-0.6388-1.8877-1-3.8966-1-6 0-10.355 8.3947-18.75 18.75-18.75s18.75 8.3947 18.75 18.75-8.3947 18.75-18.75 18.75c-2.1034 0-4.1123-0.3612-6-1v6.5312c1.922 0.474 3.932 0.719 6 0.719 13.807 0 25-11.193 25-25s-11.193-25-25-25zm-0.1875 9.375c-1.6124 0-2.9375 1.325-2.9375 2.9375v12.875c0 1.6124 1.3251 2.9375 2.9375 2.9375 0.06678 0.0044 0.11962 0 0.1875 0h10.938c1.7312 0 3.125-1.3938 3.125-3.125s-1.3938-3.125-3.125-3.125h-7.8125v-9.5625c0-1.6124-1.325-2.9375-2.9375-2.9375h-0.375zm-23.812 23.625v8h-8v8h8v8h8v-8h8v-8h-8v-8h-8z"/>
   <path id="path3836" style="color:#000000;fill:url(#linearGradient3139)" d="m50 21c-13.807 0-25 11.193-25 25 0 2.0685 0.24517 4.0777 0.71875 6h6.531c-0.6388-1.8877-1-3.8966-1-6 0-10.355 8.3947-18.75 18.75-18.75s18.75 8.3947 18.75 18.75-8.3947 18.75-18.75 18.75c-2.1034 0-4.1123-0.3612-6-1v6.5312c1.922 0.474 3.932 0.719 6 0.719 13.807 0 25-11.193 25-25s-11.193-25-25-25zm-0.1875 9.375c-1.6124 0-2.9375 1.325-2.9375 2.9375v12.875c0 1.6124 1.3251 2.9375 2.9375 2.9375 0.06678 0.0044 0.11962 0 0.1875 0h10.938c1.7312 0 3.125-1.3938 3.125-3.125s-1.3938-3.125-3.125-3.125h-7.8125v-9.5625c0-1.6124-1.325-2.9375-2.9375-2.9375h-0.375zm-23.812 23.625v8h-8v8h8v8h8v-8h8v-8h-8v-8h-8z"/>
   <path id="path3910" style="opacity:.75;color:#000000;fill:#fff" d="m50 21c-13.807 0-25 11.193-25 25 0 0.17933-0.0037 0.35282 0 0.53125 0.252-13.589 11.351-24.531 25-24.531 13.639 0 24.732 10.925 25 24.5 0.003-0.167 0-0.332 0-0.5 0-13.807-11.193-25-25-25zm-0.1875 9.375c-1.6124 0-2.9375 1.325-2.9375 2.9375v1c0-1.6124 1.3251-2.9375 2.9375-2.9375h0.375c1.6124 0 2.9375 1.325 2.9375 2.9375v-1c0-1.6124-1.325-2.9375-2.9375-2.9375h-0.375zm3.3125 12.5v1h7.8125c1.5577 0 2.8206 1.1377 3.0625 2.625 0.02695-0.16571 0.0625-0.32645 0.0625-0.5 0-1.7312-1.3938-3.125-3.125-3.125h-7.8125zm15.595 3.625c-0.269 10.12-8.534 18.25-18.719 18.25-2.1034 0-4.1123-0.3612-6-1v1c1.8877 0.6388 3.8966 1 6 1 10.355 0 18.75-8.3947 18.75-18.75 0-0.16987-0.02676-0.33121-0.03125-0.5zm-37.438 0.0625c-0.003 0.148-0.031 0.289-0.031 0.438 0 1.7368 0.24205 3.4071 0.6875 5h0.312c-0.581-1.718-0.91-3.539-0.969-5.438zm-5.281 7.438v1h8v-1h-8zm-8 8v1h8v-1h-8zm16 0v1h8v-1h-8z"/>
   <path id="path3919" style="opacity:.15;color:#000000" d="m50 26.25c-10.355 0-18.75 8.3947-18.75 18.75 0 0.18943 0.02545 0.37463 0.03125 0.5625 0.237-10.149 8.512-18.312 18.719-18.312 10.185 0 18.45 8.13 18.719 18.25 0.004-0.169 0.031-0.33 0.031-0.5 0-10.355-8.395-18.75-18.75-18.75zm-3.125 18.938v1c0 1.6124 1.3251 2.9375 2.9375 2.9375 0.06678 0.0044 0.11962 0 0.1875 0h10.938c1.7312 0 3.125-1.3938 3.125-3.125 0-0.17355-0.03555-0.33429-0.0625-0.5-0.24188 1.4873-1.5048 2.625-3.0625 2.625h-10.938c-0.06788 0-0.12072 0.0044-0.1875 0-1.6124 0-2.9375-1.325-2.9375-2.9375zm28.125 0.312c-0.268 13.575-11.361 24.5-25 24.5-2.068 0-4.078-0.245-6-0.719v1c1.922 0.474 3.932 0.719 6 0.719 13.807 0 25-11.193 25-25 0-0.16828 0.0033-0.33251 0-0.5zm-50 0.03125c-0.0029 0.15707 0 0.31099 0 0.46875 0 2.0685 0.24517 4.0777 0.71875 6h6.531c-0.11135-0.32904-0.21846-0.66374-0.3125-1h-6.2188c-0.433-1.756-0.68-3.589-0.719-5.469zm-7 23.469v1h8v-1h-8zm16 0v1h8v-1h-8zm-8 8v1h8v-1h-8z"/>
  </g>
  <rect id="rect3003" style="opacity:.15;fill:#fff" clip-path="url(#clipPath3009)" rx="25" ry="25" transform="translate(98)" width="92" y="958.36" x="-96" height="92"/>
 </g>
</svg>
