<?xml version="1.0" encoding="UTF-8" standalone="no"?>
<!-- Created with Inkscape (http://www.inkscape.org/) -->
<svg id="svg11037" xmlns:rdf="http://www.w3.org/1999/02/22-rdf-syntax-ns#" xmlns="http://www.w3.org/2000/svg" height="96" width="96" version="1.1" xmlns:cc="http://creativecommons.org/ns#" xmlns:xlink="http://www.w3.org/1999/xlink" xmlns:dc="http://purl.org/dc/elements/1.1/">
 <defs id="defs11039">
  <clipPath id="clipPath3009" clipPathUnits="userSpaceOnUse">
   <path id="path3011" style="opacity:.15;fill:#fff" d="m-2 956.36h-96v33.562l96 25.687v-59.25z"/>
  </clipPath>
  <linearGradient id="linearGradient7313" x1="652.02" gradientUnits="userSpaceOnUse" y1="347.86" gradientTransform="matrix(.11587 -1.9518 1.9734 .11454 -711.1 1256.8)" x2="627.67" y2="349.29">
   <stop id="stop3639-9" style="stop-color:#f0f0f0" offset="0"/>
   <stop id="stop3641-8" style="stop-color:#aaa" offset="1"/>
  </linearGradient>
 </defs>
 <metadata id="metadata11042">
  <rdf:RDF>
   <cc:Work rdf:about="">
    <dc:format>image/svg+xml</dc:format>
    <dc:type rdf:resource="http://purl.org/dc/dcmitype/StillImage"/>
    <dc:title/>
   </cc:Work>
  </rdf:RDF>
 </metadata>
 <g id="layer1" transform="translate(0 -956.36)">
  <rect id="rect3867" style="opacity:.6" rx="25" ry="25" height="92" width="92" y="958.36" x="2"/>
  <g id="g3070" transform="translate(1.6376e-7 956.36)">
   <path id="path3886" style="opacity:.3" d="m71.845 38.905c-0.22769 1.0372-1.7738 5.5692-2.5098 7.3555-1.0224 2.4815-3.3301 6.4531-5.0089 8.6207-2.0062 2.5903-3.8849 4.4881-7.4898 7.566-5.5339 4.7249-10.985 7.9082-16.563 9.6721-2.5707 0.81291-3.5813 0.96325-5.6751 0.84427-4.1817-0.23627-8.6368-2.7275-10.157-5.6764-0.43116-0.83654-0.47513-1.1726-0.42655-3.26 0.06179-2.6556 0.22687-3.0436 1.5287-3.5989 2.0795-0.88679 10.685-3.7519 11.182-3.7231 0.8206 0.04763 2.8133 1.4361 4.4039 3.0686 1.7658 1.8123 2.0549 1.8463 4.4824 0.52853 4.9572-2.6914 8.876-6.155 11.953-10.565 1.5964-2.2876 3.3058-5.3684 3.345-6.0283 0.05566-0.93738-0.19803-1.3103-1.7767-2.6134-1.8553-1.5313-3.8718-3.5579-4.1669-4.1877-0.30077-0.64208-0.27547-0.70024 2.2042-5.0727 1.1624-2.0497 2.4541-4.3396 2.8705-5.0888 0.41635-0.7492 0.90854-1.4723 1.0937-1.6071 0.60409-0.4394 4.5348 0.22827 5.8909 1.0009 1.3762 0.78387 3.2817 3.2713 4.0404 5.2743 0.79023 2.0863 1.1673 5.716 0.77826 7.4904z"/>
   <path id="path4609" style="fill:url(#linearGradient7313)" d="m71.845 37.905c-0.22769 1.0372-1.7738 5.5692-2.5098 7.3555-1.0224 2.4815-3.3301 6.4531-5.0089 8.6207-2.0062 2.5903-3.8849 4.4881-7.4898 7.566-5.5339 4.7249-10.985 7.9082-16.563 9.6721-2.5707 0.81291-3.5813 0.96325-5.6751 0.84427-4.1817-0.23627-8.6368-2.7275-10.157-5.6764-0.43116-0.83654-0.47513-1.1726-0.42655-3.26 0.06179-2.6556 0.22687-3.0436 1.5287-3.5989 2.0795-0.88679 10.685-3.7519 11.182-3.7231 0.8206 0.04763 2.8133 1.4361 4.4039 3.0686 1.7658 1.8123 2.0549 1.8463 4.4824 0.52853 4.9572-2.6914 8.876-6.155 11.953-10.565 1.5964-2.2876 3.3058-5.3684 3.345-6.0283 0.05566-0.93738-0.19803-1.3103-1.7767-2.6134-1.8553-1.5313-3.8718-3.5579-4.1669-4.1877-0.30077-0.64208-0.27547-0.70024 2.2042-5.0727 1.1624-2.0497 2.4541-4.3396 2.8705-5.0888 0.41635-0.7492 0.90854-1.4723 1.0937-1.6071 0.60409-0.4394 4.5348 0.22827 5.8909 1.0009 1.3762 0.78387 3.2817 3.2713 4.0404 5.2743 0.79023 2.0863 1.1673 5.716 0.77826 7.4904z"/>
   <path id="path3868" style="opacity:.75;fill:#fff" d="m62.125 24c-0.47464-0.01288-0.84898 0.01515-1 0.125-0.18521 0.13472-0.6774 0.8758-1.0938 1.625-0.41644 0.74914-1.7126 3.0441-2.875 5.0938-2.4797 4.3725-2.4883 4.4204-2.1875 5.0625 0.24282-0.61636 0.84859-1.7016 2.1875-4.0625 1.1624-2.0497 2.4586-4.3446 2.875-5.0938 0.41635-0.7492 0.90854-1.4903 1.0938-1.625 0.60409-0.4394 4.5501 0.25865 5.9062 1.0312 1.3762 0.78387 3.2726 3.247 4.0312 5.25 0.53846 1.4216 0.86311 3.5642 0.90625 5.3438 0.09847-1.9115-0.2606-4.6392-0.90625-6.3438-0.75869-2.003-2.6551-4.4661-4.0312-5.25-1.017-0.579-3.482-1.117-4.906-1.156zm-1.2812 18.969c-0.29702 0.97439-1.8292 3.7004-3.2812 5.7812-3.0773 4.41-6.9803 7.8711-11.938 10.562-2.4276 1.3178-2.7342 1.281-4.5-0.53125-1.5906-1.6325-3.5856-3.0149-4.4062-3.0625-0.49722-0.02886-9.108 2.832-11.188 3.7188-1.3019 0.55529-1.4382 0.93819-1.5 3.5938-0.0159 0.683-0.01424 1.1444 0 1.5312 0.0027-0.18116-0.005-0.315 0-0.53125 0.06179-2.6556 0.19814-3.0385 1.5-3.5938 2.0795-0.88679 10.69-3.7476 11.188-3.7188 0.8206 0.04763 2.8157 1.43 4.4062 3.0625 1.7658 1.8123 2.0724 1.8491 4.5 0.53125 4.9572-2.6914 8.8602-6.1525 11.938-10.562 1.5964-2.2876 3.3046-5.3714 3.3438-6.0312 0.01693-0.28512 0.0064-0.52727-0.0625-0.75z"/>
   <path id="path3877" style="opacity:.15" d="m54.969 34.906c-0.20689 0.52515-0.13837 0.70461 0 1 0.29506 0.62978 2.3009 2.6562 4.1562 4.1875 1.0985 0.90673 1.5611 1.3655 1.7188 1.875 0.02951-0.09682 0.05896-0.19036 0.0625-0.25 0.05566-0.93738-0.20254-1.3219-1.7812-2.625-1.8553-1.5313-3.8612-3.5577-4.1562-4.1875zm17 0.84375c-0.02205 0.42805-0.05382 0.8316-0.125 1.1562-0.22769 1.0372-1.764 5.5574-2.5 7.3438-1.0224 2.4815-3.3525 6.4574-5.0312 8.625-2.0062 2.5903-3.8638 4.4846-7.4688 7.5625-5.5339 4.7249-10.985 7.9236-16.562 9.6875-2.5707 0.81291-3.5936 0.96273-5.6875 0.84375-4.1817-0.23627-8.6363-2.7387-10.156-5.6875-0.29008-0.56282-0.37696-0.92326-0.40625-1.7188-0.02352 1.5675 0.01976 1.9689 0.40625 2.7188 1.5199 2.9488 5.9746 5.4512 10.156 5.6875 2.0939 0.11898 3.1168-0.03084 5.6875-0.84375 5.5777-1.7639 11.029-4.9626 16.562-9.6875 3.6049-3.0779 5.4625-4.9722 7.4688-7.5625 1.6788-2.1676 4.0088-6.1435 5.0312-8.625 0.73602-1.7863 2.2723-6.3065 2.5-7.3438 0.12396-0.56535 0.14517-1.3242 0.125-2.1562z"/>
  </g>
  <rect id="rect3003" style="opacity:.15;fill:#fff" clip-path="url(#clipPath3009)" rx="25" ry="25" transform="translate(98)" width="92" y="958.36" x="-96" height="92"/>
 </g>
</svg>
