<?xml version="1.0" encoding="UTF-8" standalone="no"?>
<!-- Created with Inkscape (http://www.inkscape.org/) -->
<svg id="svg11037" xmlns:rdf="http://www.w3.org/1999/02/22-rdf-syntax-ns#" xmlns="http://www.w3.org/2000/svg" height="96" width="96" version="1.1" xmlns:cc="http://creativecommons.org/ns#" xmlns:xlink="http://www.w3.org/1999/xlink" xmlns:dc="http://purl.org/dc/elements/1.1/">
 <defs id="defs11039">
  <clipPath id="clipPath3009" clipPathUnits="userSpaceOnUse">
   <path id="path3011" style="opacity:.15;fill:#fff" d="m-2 956.36h-96v33.562l96 25.687v-59.25z"/>
  </clipPath>
  <linearGradient id="linearGradient3811" x1="647.28" gradientUnits="userSpaceOnUse" y1="349.1" gradientTransform="matrix(-1.3783 1.2009 -1.2251 -1.3503 1354.9 -244.77)" x2="639.47" y2="357.89">
   <stop id="stop3185-9" style="stop-color:#c80000" offset="0"/>
   <stop id="stop3187-6" style="stop-color:#f3604d" offset="1"/>
  </linearGradient>
 </defs>
 <metadata id="metadata11042">
  <rdf:RDF>
   <cc:Work rdf:about="">
    <dc:format>image/svg+xml</dc:format>
    <dc:type rdf:resource="http://purl.org/dc/dcmitype/StillImage"/>
    <dc:title/>
   </cc:Work>
  </rdf:RDF>
 </metadata>
 <g id="layer1" transform="translate(0 -956.36)">
  <rect id="rect3867" style="opacity:.6" rx="25" ry="25" height="92" width="92" y="958.36" x="2"/>
  <g id="g3070" transform="translate(3.778e-7 956.36)">
   <path id="path3886" style="opacity:.3" d="m25.483 46.906c0.84201-0.53081 4.8846-2.4938 6.5616-3.1857 2.3295-0.96115 6.5007-2.0657 9.0537-2.3974 3.051-0.39644 5.5559-0.42265 9.9865-0.1045 6.8014 0.48836 12.52 1.931 17.376 4.3831 2.2378 1.1302 3.0045 1.685 4.3062 3.1161 2.6004 2.8572 3.8771 7.365 2.9127 10.275-0.27361 0.82546-0.46875 1.0735-1.8931 2.4065-1.812 1.6958-2.1798 1.8428-3.4088 1.3643-1.963-0.76438-9.5497-4.4535-9.8584-4.7937-0.50946-0.56151-0.89762-2.757-0.85784-4.8521 0.04415-2.3259-0.12376-2.5349-2.6039-3.2426-5.0647-1.4448-9.9596-1.7137-14.931-0.8201-2.5788 0.46351-5.7612 1.3724-6.2271 1.7783-0.66195 0.57674-0.74336 0.98444-0.5713 2.8565 0.20228 2.2001 0.1805 4.8281-0.04496 5.4304-0.22992 0.61408-0.28538 0.63575-4.8373 1.891-2.1338 0.58844-4.5132 1.2504-5.2875 1.4709-0.77432 0.2206-1.5813 0.37517-1.7933 0.34352-0.69151-0.10324-2.8387-3.0802-3.2178-4.4617-0.38482-1.4018 0.01739-4.2592 0.85319-6.0589 0.87036-1.8744 3.0427-4.4907 4.4829-5.399z"/>
   <path id="path4609" style="fill:url(#linearGradient3811)" d="m25.483 45.906c0.84201-0.53081 4.8846-2.4938 6.5616-3.1857 2.3295-0.96115 6.5007-2.0657 9.0537-2.3974 3.051-0.39644 5.5559-0.42265 9.9865-0.1045 6.8014 0.48836 12.52 1.931 17.376 4.3831 2.2378 1.1302 3.0045 1.685 4.3062 3.1161 2.6004 2.8572 3.8771 7.365 2.9127 10.275-0.27361 0.82546-0.46875 1.0735-1.8931 2.4065-1.812 1.6958-2.1798 1.8428-3.4088 1.3643-1.963-0.76438-9.5497-4.4535-9.8584-4.7937-0.50946-0.56151-0.89762-2.757-0.85784-4.8521 0.04415-2.3259-0.12376-2.5349-2.6039-3.2426-5.0647-1.4448-9.9596-1.7137-14.931-0.8201-2.5788 0.46351-5.7612 1.3724-6.2271 1.7783-0.66195 0.57674-0.74336 0.98444-0.5713 2.8565 0.20228 2.2001 0.1805 4.8281-0.04496 5.4304-0.22992 0.61408-0.28538 0.63575-4.8373 1.891-2.1338 0.58844-4.5132 1.2504-5.2875 1.4709-0.77432 0.2206-1.5813 0.37517-1.7933 0.34352-0.69151-0.10324-2.8387-3.0802-3.2178-4.4617-0.38482-1.4018 0.01739-4.2592 0.85319-6.0589 0.87036-1.8744 3.0427-4.4907 4.4829-5.399z"/>
   <path id="path3868" style="opacity:.3;fill:#fff" d="m45.562 40c-1.5614 0.01634-2.9433 0.11428-4.4688 0.3125-2.553 0.33176-6.733 1.4451-9.0625 2.4062-1.6769 0.69189-5.7205 2.6567-6.5625 3.1875-1.4402 0.90837-3.5984 3.5318-4.4688 5.4062-0.69815 1.5032-1.0817 3.7355-0.96875 5.25 0.06843-1.3931 0.41299-3.0534 0.96875-4.25 0.87036-1.8744 3.0286-4.4979 4.4688-5.4062 0.84201-0.53081 4.8856-2.4956 6.5625-3.1875 2.3295-0.96115 6.5095-2.0745 9.0625-2.4062 3.051-0.39644 5.5694-0.4119 10-0.09375 6.8014 0.48836 12.52 1.9229 17.375 4.375 2.2378 1.1302 3.0108 1.6939 4.3125 3.125 1.9047 2.0927 3.0636 5.069 3.1875 7.6562 0.18372-2.7854-1.0336-6.2897-3.1875-8.6562-1.3017-1.4311-2.0747-1.9948-4.3125-3.125-4.8553-2.4521-10.574-3.8866-17.375-4.375-2.215-0.159-3.969-0.235-5.531-0.219zm-10.281 12.125c-0.02769 0.37997-0.03505 0.8411 0.03125 1.5625 0.07878 0.85685 0.14424 1.752 0.15625 2.5938 0.02186-1.0638-0.0443-2.3761-0.15625-3.5938-0.02093-0.22771-0.01841-0.37518-0.03125-0.5625z"/>
   <path id="path3877" style="opacity:.1" d="m47.688 46.531c-1.8557 0.0074-3.6983 0.19616-5.5625 0.53125-2.5788 0.46351-5.7528 1.3753-6.2188 1.7812-0.58143 0.50659-0.71772 0.92853-0.625 2.2812 0.04416-0.60608 0.21813-0.92676 0.625-1.2812 0.46595-0.40598 3.64-1.3177 6.2188-1.7812 4.9712-0.89358 9.8728-0.63231 14.938 0.8125 2.0619 0.5883 2.5213 0.84808 2.5938 2.25 0.04415-2.3259-0.11364-2.5424-2.5938-3.25-3.1654-0.90301-6.2821-1.3562-9.375-1.3438zm11.969 4.8125c0.0052 0.22969 0.0055 0.49051 0 0.78125-0.03978 2.0951 0.36554 4.2822 0.875 4.8438 0.3087 0.34023 7.8807 4.0169 9.8438 4.7812 1.229 0.47847 1.5942 0.35208 3.4062-1.3438 1.4243-1.333 1.6326-1.5808 1.9062-2.4062 0.25805-0.77855 0.32651-1.6799 0.28125-2.625-0.03809 0.57747-0.11564 1.1253-0.28125 1.625-0.27361 0.82546-0.4819 1.0733-1.9062 2.4062-1.812 1.6958-2.1772 1.8222-3.4062 1.3438-1.963-0.76438-9.5351-4.441-9.8438-4.7812-0.49166-0.54189-0.88489-2.5984-0.875-4.625zm-24.188 3.9375c-0.01763 0.85835-0.08682 1.5748-0.1875 1.8438-0.22992 0.61408-0.29179 0.61972-4.8438 1.875-2.1338 0.58844-4.5069 1.2482-5.2812 1.4688-0.77432 0.2206-1.5692 0.3754-1.7812 0.34375-0.69151-0.10324-2.8396-3.056-3.2188-4.4375-0.06338-0.23087-0.10274-0.5139-0.125-0.8125-0.03448 0.70199-0.0039 1.3428 0.125 1.8125 0.37911 1.3815 2.5272 4.3343 3.2188 4.4375 0.21202 0.03165 1.0069-0.12314 1.7812-0.34375 0.77435-0.2205 3.1474-0.88031 5.2812-1.4688 4.552-1.2553 4.6138-1.2609 4.8438-1.875 0.13765-0.36776 0.20633-1.5242 0.1875-2.8438z"/>
  </g>
  <rect id="rect3003" style="opacity:.15;fill:#fff" clip-path="url(#clipPath3009)" rx="25" ry="25" transform="translate(98)" width="92" y="958.36" x="-96" height="92"/>
 </g>
</svg>
