<?xml version="1.0" encoding="UTF-8" standalone="no"?>
<!-- Created with Inkscape (http://www.inkscape.org/) -->
<svg id="svg11037" xmlns:rdf="http://www.w3.org/1999/02/22-rdf-syntax-ns#" xmlns="http://www.w3.org/2000/svg" height="96" width="96" version="1.1" xmlns:cc="http://creativecommons.org/ns#" xmlns:xlink="http://www.w3.org/1999/xlink" xmlns:dc="http://purl.org/dc/elements/1.1/">
 <defs id="defs11039">
  <linearGradient id="linearGradient3617" x1="48" gradientUnits="userSpaceOnUse" y1="90" gradientTransform="matrix(1.0172 0 0 1.0172 -1.1034 -1.1034)" x2="48" y2="5.9877">
   <stop id="stop3189-4" style="stop-color:#dcdcdc" offset="0"/>
   <stop id="stop3191-8" style="stop-color:#f0f0f0" offset="1"/>
  </linearGradient>
  <linearGradient id="linearGradient3903" y2="36.613" gradientUnits="userSpaceOnUse" y1="6.8059" x2="44.638" x1="44.638">
   <stop id="stop3899" style="stop-color:#aec6e9" offset="0"/>
   <stop id="stop3901" style="stop-color:#aac3e8;stop-opacity:0" offset="1"/>
  </linearGradient>
  <linearGradient id="linearGradient3613" x1="48" xlink:href="#linearGradient3737" gradientUnits="userSpaceOnUse" x2="48" y1="20.221" y2="138.66"/>
  <linearGradient id="linearGradient3737">
   <stop id="stop3739" style="stop-color:#fff" offset="0"/>
   <stop id="stop3741" style="stop-color:#fff;stop-opacity:0" offset="1"/>
  </linearGradient>
  <clipPath id="clipPath3613">
   <rect id="rect3615" style="fill:#fff" rx="6" ry="6" height="84" width="84" y="6" x="6"/>
  </clipPath>
  <filter id="filter3794" width="1.384" y="-.192" x="-.192" height="1.384" color-interpolation-filters="sRGB">
   <feGaussianBlur id="feGaussianBlur3796" stdDeviation="5.28"/>
  </filter>
  <radialGradient id="radialGradient3767" gradientUnits="userSpaceOnUse" cy="55.726" cx="40.637" gradientTransform="matrix(-3.0154e-7 -2.4636 3.3191 -3.8167e-7 -144.32 158.78)" r="14">
   <stop id="stop3692" offset="0"/>
   <stop id="stop3694" style="stop-opacity:0" offset="1"/>
  </radialGradient>
  <linearGradient id="linearGradient3784" x1="24.334" gradientUnits="userSpaceOnUse" y1="55.89" gradientTransform="translate(0,-84)" x2="24.334" y2="28.22">
   <stop id="stop3780" style="stop-color:#98b5e3" offset="0"/>
   <stop id="stop3782" style="stop-color:#bed1ed" offset="1"/>
  </linearGradient>
  <linearGradient id="linearGradient3799" x1="26.607" xlink:href="#linearGradient3737" gradientUnits="userSpaceOnUse" x2="26.607" y1="25.706" y2="42.885"/>
  <clipPath id="clipPath3250" clipPathUnits="userSpaceOnUse">
   <rect id="rect3252" style="fill:url(#linearGradient3254)" rx="22.826" ry="22.826" height="84" width="84" y="6" x="6"/>
  </clipPath>
  <linearGradient id="linearGradient3254" x1="48" gradientUnits="userSpaceOnUse" y1="962.62" gradientTransform="matrix(1.05 0 0 1.05 -2.4 -1006.6)" x2="48" y2="1046.1">
   <stop id="stop3797" style="stop-color:#13a6fd" offset="0"/>
   <stop id="stop3799" style="stop-color:#2975b6" offset="1"/>
  </linearGradient>
  <clipPath id="clipPath3009" clipPathUnits="userSpaceOnUse">
   <path id="path3011" style="opacity:.15;fill:#fff" d="m-2 956.36h-96v33.562l96 25.687v-59.25z"/>
  </clipPath>
 </defs>
 <metadata id="metadata11042">
  <rdf:RDF>
   <cc:Work rdf:about="">
    <dc:format>image/svg+xml</dc:format>
    <dc:type rdf:resource="http://purl.org/dc/dcmitype/StillImage"/>
    <dc:title/>
   </cc:Work>
  </rdf:RDF>
 </metadata>
 <g id="layer1" transform="translate(0 -956.36)">
  <g id="g3132" transform="matrix(1.0952 0 0 1.0952 -4.5714 951.79)" clip-path="url(#clipPath3250)">
   <path id="rect2419" style="fill:url(#linearGradient3617)" d="m12 6c-3.324 0-6 2.676-6 6v72c0 3.324 2.676 6 6 6h72c3.324 0 6-2.676 6-6v-72c0-3.324-2.676-6-6-6h-14v2.5625c1.1938 0.69209 2 1.9583 2 3.4375 0 2.2091-1.7909 4-4 4s-4-1.7909-4-4c0-1.4792 0.80621-2.7454 2-3.4375v-2.5625h-36v2.5625c1.1938 0.69209 2 1.9583 2 3.4375 0 2.2091-1.7909 4-4 4s-4-1.7909-4-4c0-1.4792 0.80621-2.7454 2-3.4375v-2.5625h-14z"/>
   <path id="path3890" style="fill:url(#linearGradient3903)" d="m12 6c-3.324 0-6 2.676-6 6v24.906h84v-24.906c0-3.324-2.676-6-6-6h-14v2.5625c1.1938 0.69209 2 1.9583 2 3.4375 0 2.2091-1.7909 4-4 4s-4-1.7909-4-4c0-1.4792 0.80621-2.7454 2-3.4375v-2.5625h-36v2.5625c1.1938 0.69209 2 1.9583 2 3.4375 0 2.2091-1.7909 4-4 4s-4-1.7909-4-4c0-1.4792 0.80621-2.7454 2-3.4375v-2.5625h-14z"/>
   <path id="path3739" style="opacity:.3;fill:#fff" d="m24.031 12.406c-0.03 0.197-0.031 0.388-0.031 0.594 0 2.2091 1.7909 4 4 4s4-1.7909 4-4c0-0.20551-0.0012-0.39743-0.03125-0.59375-0.204 2.018-1.897 3.594-3.969 3.594s-3.765-1.576-3.969-3.594zm40 0c-0.03 0.197-0.031 0.388-0.031 0.594 0 2.2091 1.7909 4 4 4s4-1.7909 4-4c0-0.20551-0.0012-0.39743-0.03125-0.59375-0.204 2.018-1.897 3.594-3.969 3.594s-3.765-1.576-3.969-3.594z"/>
   <g id="layer5">
    <rect id="rect3171" style="opacity:.6;filter:url(#filter3794);stroke:#fff;stroke-linecap:round;stroke-width:.5;fill:url(#linearGradient3613)" clip-path="url(#clipPath3613)" rx="12" ry="12" height="66" width="66" y="15" x="15"/>
   </g>
   <g id="layer3">
    <rect id="rect3702" style="opacity:.2;fill:url(#radialGradient3767)" rx=".93333" ry=".94444" height="34" width="28" y="25" x="13"/>
    <rect id="rect3764" style="fill:#fff" height="32" width="26" y="26" x="14"/>
    <rect id="rect3766" style="fill:url(#linearGradient3784)" transform="scale(1,-1)" height="28" width="22" y="-56" x="16"/>
    <path id="path3798" style="enable-background:new;fill:#4d74ad" d="m27 30.596c-2.3442 0-4.2446 1.7581-4.2446 3.9269 0.0057 0.24854 0.0093 0.53233 0.03537 0.84148-0.37099 0.19604-0.41935 0.96268-0.08843 1.7356 0.1276 0.29802 0.30165 0.54018 0.47752 0.73629 0.0058 0.0066 0.01179 0.01112 0.01769 0.01751 0.04198 0.2042 0.07303 0.36571 0.1238 0.59605 0.15728 0.4677 0.80719 1.3474 1.3795 2.1037 0.05708 0.58341 0.06176 1.1596-0.05307 1.8232-1.6473 1.3547-5.8603 1.9635-5.854 3.3659l-0.56594 3.6464c0 0.74708 1.1259 1.4311 2.9182 1.8933l0.2476 0.99926a0.61637 0.61097 0 0 0 0.38909 0.40321c0.07955 0.03051 0.13569 0.09503 0.35372 0.15778 1.1485 0.33051 2.8973 0.56098 4.8636 0.56098s3.7328-0.23047 4.8813-0.56098c0.21802-0.06275 0.27416-0.12728 0.35372-0.15778a0.61637 0.61097 0 0 0 0.3714 -0.38568l0.30066-1.0518c1.7485-0.46148 2.8651-1.1217 2.8651-1.8583l-0.56595-3.6464c-0.0067-1.2003-4.2446-1.9635-5.8717-3.3659-0.06587-0.53722-0.06891-1.0662-0.03538-1.5953 0.52033-0.79561 1.2054-1.8138 1.3795-2.3316 0.06399-0.26814 0.09179-0.45346 0.14148-0.6837 0.15366-0.18616 0.29335-0.40126 0.40677-0.66617 0.31426-0.73395 0.28492-1.4447-0.03537-1.683 0.02238-0.31891 0.0437-0.62151 0.05306-0.89407 0.000003-2.1688-1.9004-3.9269-4.2446-3.9269z"/>
    <path id="rect3708" style="fill:#a3bee6" d="m16 28v28h22v-28h-1v27h-20v-27h-1z"/>
    <g id="text3704" style="fill:#333" transform="translate(-.19043 .34725)">
     <path id="path3878" d="m50.41 29.604v-1.4746h-1.499v1.4746h-0.72022v-3.4399h0.72022v1.3696h1.499v-1.3696h0.72022v3.4399h-0.72022"/>
     <path id="path3880" d="m55.148 27.868c-0.000003 0.26856-0.03988 0.5127-0.11963 0.73242-0.07976 0.21973-0.1945 0.40772-0.34424 0.56396-0.14974 0.15625-0.33285 0.27669-0.54932 0.36133-0.21485 0.08464-0.45817 0.12695-0.72998 0.12695-0.28809 0-0.54037-0.04394-0.75684-0.13184-0.21484-0.08952-0.39469-0.21322-0.53955-0.37109-0.14486-0.1595-0.25391-0.34831-0.32715-0.56641-0.07161-0.2181-0.10742-0.45654-0.10742-0.71533 0-0.26855 0.03744-0.51106 0.1123-0.72754 0.0765-0.21647 0.18799-0.40039 0.33447-0.55176 0.14811-0.15299 0.32959-0.27018 0.54443-0.35156 0.21647-0.08301 0.46468-0.12451 0.74463-0.12451 0.27995 0.000004 0.52734 0.04151 0.74219 0.12451 0.21647 0.08301 0.39795 0.20101 0.54443 0.354 0.14811 0.153 0.26041 0.33773 0.33691 0.5542 0.07649 0.21485 0.11474 0.45573 0.11475 0.72266m-0.73486 0c-0.000003-0.18066-0.02197-0.34342-0.06592-0.48828-0.04232-0.14648-0.1058-0.27181-0.19043-0.37598-0.08464-0.10416-0.18962-0.18392-0.31494-0.23926-0.1237-0.05696-0.26774-0.08545-0.43213-0.08545-0.16764 0.000003-0.31494 0.02849-0.44189 0.08545-0.12533 0.05534-0.23031 0.13509-0.31494 0.23926-0.08464 0.10417-0.14811 0.2295-0.19043 0.37598-0.04232 0.14486-0.06348 0.30762-0.06348 0.48828-0.000001 0.17904 0.02116 0.34343 0.06348 0.49316 0.04394 0.14811 0.10823 0.27588 0.19287 0.3833 0.08463 0.10742 0.18961 0.19124 0.31494 0.25146 0.12532 0.06022 0.27018 0.09033 0.43457 0.09033 0.17578 0 0.32715-0.03011 0.4541-0.09033 0.12695-0.06185 0.23112-0.14648 0.3125-0.25391 0.08301-0.10905 0.14404-0.23763 0.1831-0.38574 0.03906-0.14974 0.05859-0.3125 0.05859-0.48828"/>
     <path id="path3882" d="m55.69 29.604v-3.4399h0.72022v2.8833h1.8457v0.55664h-2.5659"/>
     <path id="path3884" d="m61.604 29.604v-2.085c-0.000004-0.08301 0.00081-0.16846 0.0024-0.25635 0.0033-0.08789 0.0065-0.16845 0.0098-0.2417 0.0049-0.08626 0.0089-0.17008 0.01221-0.25146-0.03418 0.12858-0.06674 0.25065-0.09766 0.36621-0.01302 0.04883-0.02686 0.09929-0.0415 0.15137-0.01465 0.05209-0.0293 0.10254-0.04395 0.15137-0.01302 0.04883-0.02604 0.0944-0.03906 0.13672s-0.02442 0.07894-0.03418 0.10986l-0.62012 1.9189h-0.5127l-0.62012-1.9189c-0.0098-0.03092-0.02116-0.06754-0.03418-0.10986-0.0114-0.04231-0.02442-0.08789-0.03906-0.13672-0.01302-0.04883-0.02686-0.09928-0.0415-0.15137-0.01465-0.05208-0.0293-0.10254-0.04395-0.15137-0.03255-0.11556-0.06673-0.23763-0.10254-0.36621 0.0049 0.0944 0.0098 0.18718 0.01465 0.27832 0.0033 0.07813 0.0065 0.16032 0.0098 0.24658s0.0049 0.16114 0.0049 0.22461v2.085h-0.63965v-3.4399h0.96436l0.61523 1.9238c0.01627 0.05046 0.03336 0.11231 0.05127 0.18555 0.01953 0.07324 0.03825 0.14404 0.05615 0.2124 0.01953 0.07975 0.04069 0.16276 0.06348 0.24902 0.02278-0.08463 0.04476-0.16601 0.06592-0.24414 0.0098-0.03418 0.01953-0.06917 0.0293-0.10498 0.0098-0.03581 0.01953-0.0708 0.0293-0.10498 0.0098-0.03418 0.01953-0.06673 0.0293-0.09766 0.0098-0.03092 0.01872-0.05859 0.02686-0.08301l0.60547-1.936h0.95947v3.4399h-0.63965"/>
     <path id="path3886" d="m62.917 29.604v-3.4399h2.7051v0.55664h-1.9849v0.86426h1.8359v0.55664h-1.8359v0.90576h2.085v0.55664h-2.8052"/>
     <path id="path3888" d="m69.062 28.613c-0.000003 0.15625-0.02849 0.29867-0.08545 0.42725-0.05697 0.12695-0.14567 0.236-0.26611 0.32715-0.11882 0.09115-0.27181 0.16195-0.45898 0.2124-0.18555 0.04883-0.4069 0.07324-0.66406 0.07324-0.22787 0-0.42888-0.02034-0.60303-0.06104-0.17416-0.04069-0.32389-0.10091-0.44922-0.18066-0.1237-0.07975-0.22461-0.17822-0.30273-0.29541-0.0765-0.11882-0.13184-0.25472-0.16602-0.40772l0.6958-0.11475c0.01953 0.0765 0.04801 0.14648 0.08545 0.20996 0.03743 0.06348 0.0887 0.11882 0.15381 0.16602 0.06673 0.04557 0.14892 0.08138 0.24658 0.10742 0.09928 0.02442 0.21891 0.03662 0.35889 0.03662 0.24414 0.000001 0.4305-0.03662 0.55908-0.10986 0.13021-0.07487 0.19531-0.19124 0.19531-0.34912-0.000002-0.0944-0.02604-0.17171-0.07813-0.23193s-0.12126-0.10986-0.20752-0.14892-0.18555-0.07161-0.29785-0.09766c-0.11231-0.02604-0.22949-0.05127-0.35156-0.07568-0.09766-0.02279-0.19531-0.04639-0.29297-0.0708s-0.19124-0.05371-0.28076-0.08789c-0.08789-0.03418-0.17008-0.07487-0.24658-0.12207s-0.14323-0.10498-0.2002-0.17334c-0.05534-0.06998-0.09928-0.15136-0.13184-0.24414-0.03092-0.09277-0.04639-0.20182-0.04639-0.32715 0-0.1709 0.03418-0.31738 0.10254-0.43945s0.16276-0.22135 0.2832-0.29785c0.12207-0.07812 0.26693-0.13509 0.43457-0.1709 0.16764-0.0358 0.35075-0.05371 0.54932-0.05371 0.22461 0.000004 0.41666 0.01791 0.57617 0.05371 0.16113 0.03418 0.29541 0.08708 0.40283 0.15869 0.10905 0.07162 0.1945 0.16195 0.25635 0.271 0.06347 0.10742 0.10986 0.23356 0.13916 0.37842l-0.69824 0.09521c-0.03581-0.14811-0.10905-0.2596-0.21973-0.33447-0.10905-0.07487-0.26612-0.1123-0.47119-0.1123-0.12696 0.000003-0.23275 0.0114-0.31738 0.03418-0.08301 0.02116-0.14974 0.05046-0.2002 0.08789-0.04883 0.03744-0.08382 0.08138-0.10498 0.13184-0.02116 0.04883-0.03174 0.10091-0.03174 0.15625-0.000001 0.08464 0.02034 0.15462 0.06104 0.20996 0.04069 0.05371 0.09765 0.09929 0.1709 0.13672 0.07324 0.03581 0.16032 0.06673 0.26123 0.09277 0.10254 0.02442 0.21484 0.04964 0.33691 0.07568 0.10742 0.02279 0.21403 0.0472 0.31982 0.07324 0.10579 0.02442 0.2067 0.05371 0.30273 0.08789s0.18554 0.07569 0.26856 0.12451c0.08301 0.04883 0.15462 0.10905 0.21484 0.18066 0.06185 0.06999 0.10986 0.15381 0.14404 0.25146 0.0358 0.09766 0.05371 0.21322 0.05371 0.34668"/>
    </g>
    <g id="text3712" style="fill:#333" transform="translate(0 .34725)">
     <path id="path3861" d="m50.996 34.613c-0.000003 0.15625-0.02849 0.29867-0.08545 0.42725-0.05697 0.12695-0.14567 0.236-0.26611 0.32715-0.11882 0.09115-0.27181 0.16195-0.45898 0.2124-0.18555 0.04883-0.4069 0.07324-0.66406 0.07324-0.22787 0-0.42888-0.02035-0.60303-0.06104-0.17416-0.04069-0.32389-0.10091-0.44922-0.18066-0.1237-0.07975-0.22461-0.17822-0.30273-0.29541-0.076-0.119-0.132-0.255-0.166-0.408l0.6958-0.11475c0.01953 0.0765 0.04801 0.14648 0.08545 0.20996 0.03743 0.06348 0.0887 0.11882 0.15381 0.16602 0.06673 0.04557 0.14892 0.08138 0.24658 0.10742 0.09928 0.02441 0.21891 0.03662 0.35889 0.03662 0.24414 0.000001 0.4305-0.03662 0.55908-0.10986 0.13021-0.07487 0.19531-0.19124 0.19531-0.34912-0.000003-0.0944-0.02604-0.17171-0.07813-0.23193s-0.12126-0.10986-0.20752-0.14892-0.18555-0.07161-0.29785-0.09766c-0.11231-0.02604-0.22949-0.05127-0.35156-0.07568-0.09766-0.02278-0.19531-0.04639-0.29297-0.0708s-0.19124-0.05371-0.28076-0.08789c-0.08789-0.03418-0.17009-0.07487-0.24658-0.12207-0.0765-0.0472-0.14323-0.10498-0.2002-0.17334-0.05534-0.06999-0.09928-0.15136-0.13184-0.24414-0.03093-0.09277-0.04639-0.20182-0.04639-0.32715 0-0.1709 0.03418-0.31738 0.10254-0.43945s0.16276-0.22135 0.2832-0.29785c0.12207-0.07812 0.26693-0.13509 0.43457-0.1709 0.16764-0.0358 0.35075-0.05371 0.54932-0.05371 0.22461 0.000004 0.41666 0.01791 0.57617 0.05371 0.16113 0.03418 0.29541 0.08708 0.40283 0.15869 0.10905 0.07162 0.1945 0.16195 0.25635 0.271 0.06347 0.10742 0.10986 0.23356 0.13916 0.37842l-0.69824 0.09522c-0.03581-0.14811-0.10905-0.2596-0.21973-0.33447-0.10905-0.07487-0.26612-0.1123-0.47119-0.1123-0.12695 0.000003-0.23275 0.0114-0.31738 0.03418-0.08301 0.02116-0.14974 0.05046-0.2002 0.08789-0.04883 0.03744-0.08382 0.08138-0.10498 0.13184-0.02116 0.04883-0.03174 0.10091-0.03174 0.15625-0.000001 0.08464 0.02034 0.15462 0.06104 0.20996 0.04069 0.05371 0.09766 0.09929 0.1709 0.13672 0.07324 0.03581 0.16032 0.06673 0.26123 0.09277 0.10254 0.02442 0.21484 0.04964 0.33692 0.07568 0.10742 0.02279 0.21403 0.0472 0.31982 0.07324 0.10579 0.02442 0.2067 0.05371 0.30273 0.08789s0.18554 0.07569 0.26856 0.12451c0.08301 0.04883 0.15462 0.10905 0.21484 0.18066 0.06185 0.06999 0.10986 0.15381 0.14404 0.25146 0.0358 0.09766 0.05371 0.21322 0.05371 0.34668"/>
     <path id="path3863" d="m52.221 33.49c0.09277-0.20182 0.20915-0.3483 0.34912-0.43945 0.13997-0.09114 0.3068-0.13672 0.50049-0.13672 0.1595 0.000003 0.29378 0.02604 0.40283 0.07813 0.11068 0.05209 0.20019 0.1237 0.26855 0.21484 0.06998 0.09115 0.12044 0.19857 0.15137 0.32227 0.03092 0.1237 0.04638 0.25716 0.04639 0.40039v1.6748h-0.68359v-1.4795c-0.000002-0.10254-0.0081-0.19612-0.02441-0.28076-0.01628-0.08626-0.04313-0.1595-0.08057-0.21973-0.03744-0.06185-0.08626-0.10986-0.14648-0.14404s-0.13346-0.05127-0.21973-0.05127c-0.08301 0.000002-0.15869 0.01872-0.22705 0.05615-0.06673 0.03581-0.12451 0.08789-0.17334 0.15625-0.04883 0.06673-0.08708 0.1473-0.11475 0.2417-0.02604 0.09278-0.03906 0.19531-0.03906 0.30762v1.4136h-0.68604v-3.623h0.68604v0.98877c-0.000001 0.05209-0.000815 0.10498-0.0024 0.15869-0.0016 0.05209-0.0041 0.10173-0.0073 0.14893-0.0016 0.04557-0.0033 0.08708-0.0049 0.12451-0.0016 0.03744-0.0033 0.06673-0.0049 0.08789h0.0098"/>
     <path id="path3865" d="m55.683 35.653c-0.19043 0-0.36214-0.02767-0.51514-0.08301-0.15137-0.05697-0.28076-0.14242-0.38818-0.25635-0.10742-0.11556-0.18962-0.2596-0.24658-0.43213-0.05697-0.17415-0.08545-0.3776-0.08545-0.61035 0-0.25228 0.03337-0.46468 0.1001-0.63721 0.06836-0.17252 0.1595-0.31168 0.27344-0.41748 0.11556-0.10742 0.24821-0.18473 0.39795-0.23193s0.30762-0.0708 0.47363-0.0708c0.20833 0.000003 0.38574 0.03662 0.53223 0.10986 0.14811 0.07162 0.26937 0.17253 0.36377 0.30273 0.0944 0.13021 0.16357 0.28646 0.20752 0.46875 0.04394 0.18067 0.06591 0.38086 0.06592 0.60059v0.01953h-1.6943c-0.000001 0.11068 0.0098 0.21403 0.0293 0.31006 0.01953 0.0944 0.05127 0.1766 0.09521 0.24658 0.04395 0.06836 0.10091 0.12288 0.1709 0.16357 0.06999 0.03906 0.15462 0.05859 0.25391 0.05859 0.12044 0 0.21891-0.02523 0.29541-0.07568 0.0765-0.05208 0.13102-0.13184 0.16358-0.23926l0.64697 0.05615c-0.0293 0.07487-0.0708 0.15462-0.12451 0.23926-0.05208 0.08464-0.12207 0.16276-0.20996 0.23438-0.08789 0.06999-0.19776 0.12858-0.32959 0.17578-0.13021 0.04557-0.2889 0.06836-0.47608 0.06836m0-2.3071c-0.06999 0.000002-0.13591 0.01221-0.19775 0.03662-0.06022 0.02279-0.11312 0.06022-0.15869 0.1123-0.04395 0.05046-0.07975 0.11638-0.10742 0.19775-0.02767 0.08138-0.04313 0.17904-0.04639 0.29297h1.0254c-0.01302-0.21322-0.06429-0.37272-0.15381-0.47852-0.08952-0.10742-0.20996-0.16113-0.36133-0.16113"/>
     <path id="path3867" d="m57.385 35.604v-2.0215c-0.000001-0.05696-0.000815-0.11719-0.0024-0.18066 0-0.06348-0.0016-0.1237-0.0049-0.18066-0.0016-0.05859-0.0033-0.11067-0.0049-0.15625-0.0016-0.0472-0.0041-0.08138-0.0073-0.10254h0.6543c0.0033 0.01953 0.0065 0.05371 0.0098 0.10254 0.0033 0.0472 0.0065 0.09929 0.0098 0.15625 0.0033 0.05697 0.0057 0.11394 0.0073 0.1709 0.0033 0.05534 0.0049 0.1001 0.0049 0.13428h0.0098c0.03418-0.09603 0.06836-0.18148 0.10254-0.25635 0.03418-0.0765 0.07406-0.14079 0.11963-0.19287 0.0472-0.05371 0.10335-0.0944 0.16846-0.12207 0.0651-0.02929 0.14567-0.04394 0.2417-0.04395 0.04069 0.000003 0.08057 0.0041 0.11963 0.01221 0.04069 0.0065 0.07161 0.01465 0.09277 0.02441v0.57373c-0.04395-0.0098-0.08871-0.0179-0.13428-0.02441-0.04395-0.0081-0.09684-0.01221-0.15869-0.01221-0.1709 0.000002-0.30436 0.06918-0.40039 0.20752-0.0944 0.13835-0.1416 0.34343-0.1416 0.61523v1.2964h-0.68604"/>
     <path id="path3869" d="m59.328 35.604v-3.623h0.68604v3.623h-0.68604"/>
     <path id="path3871" d="m63.225 34.281c-0.000002 0.20182-0.02849 0.38656-0.08545 0.5542-0.05534 0.16764-0.13916 0.3125-0.25146 0.43457-0.11231 0.12044-0.25228 0.21484-0.41992 0.2832-0.16764 0.06673-0.36296 0.1001-0.58594 0.1001-0.21484 0-0.40446-0.03337-0.56885-0.1001s-0.30274-0.16032-0.41504-0.28076c-0.11068-0.12044-0.1945-0.26448-0.25146-0.43213-0.05697-0.16927-0.08545-0.35563-0.08545-0.55908 0-0.19694 0.02686-0.37842 0.08057-0.54443 0.05534-0.16764 0.13835-0.3125 0.24902-0.43457 0.11068-0.12207 0.24984-0.21728 0.41748-0.28564s0.36377-0.10254 0.58838-0.10254c0.23763 0.000003 0.44026 0.03418 0.60791 0.10254 0.16764 0.06836 0.30436 0.16358 0.41016 0.28564 0.10742 0.12044 0.18554 0.26449 0.23438 0.43213 0.05045 0.16602 0.07568 0.34831 0.07568 0.54688m-0.71777 0c-0.000002-0.31413-0.05127-0.54199-0.15381-0.68359s-0.25147-0.2124-0.44678-0.2124c-0.20182 0.000002-0.35645 0.07162-0.46387 0.21484-0.10742 0.14323-0.16113 0.37028-0.16113 0.68115-0.000001 0.15788 0.01383 0.29378 0.0415 0.40772 0.0293 0.11393 0.06999 0.20752 0.12207 0.28076s0.11474 0.12777 0.18799 0.16358c0.07324 0.03418 0.15381 0.05127 0.2417 0.05127 0.10091 0.000001 0.19043-0.01709 0.26855-0.05127 0.07975-0.03581 0.14648-0.09033 0.2002-0.16358 0.05371-0.07324 0.0944-0.16683 0.12207-0.28076s0.0415-0.24984 0.0415-0.40772"/>
     <path id="path3873" d="m64.873 35.653c-0.20996 0-0.39388-0.03255-0.55176-0.09766-0.15625-0.0651-0.28646-0.15706-0.39062-0.27588-0.10417-0.11882-0.18229-0.26123-0.23438-0.42725-0.05208-0.16764-0.07813-0.35238-0.07813-0.5542 0-0.21972 0.02848-0.41504 0.08545-0.58594 0.05697-0.17252 0.13916-0.31738 0.24658-0.43457 0.10742-0.11881 0.23926-0.20914 0.39551-0.271 0.15788-0.06185 0.33691-0.09277 0.53711-0.09277 0.1709 0.000003 0.32226 0.02279 0.4541 0.06836 0.13346 0.04557 0.24821 0.10824 0.34424 0.18799 0.09603 0.07813 0.17334 0.1709 0.23193 0.27832 0.06022 0.10742 0.10172 0.22298 0.12451 0.34668l-0.69092 0.03418c-0.01953-0.13509-0.06836-0.24251-0.14648-0.32227-0.07813-0.08138-0.1888-0.12207-0.33203-0.12207-0.18392 0.000002-0.3182 0.07569-0.40283 0.22705-0.08464 0.15137-0.12695 0.3711-0.12695 0.65918-0.000001 0.60872 0.17985 0.91309 0.53955 0.91309 0.13021 0.000001 0.23926-0.04069 0.32715-0.12207 0.08789-0.08301 0.14241-0.20589 0.16357-0.36865l0.68848 0.03174c-0.01628 0.12207-0.05371 0.23926-0.1123 0.35156-0.05697 0.11068-0.13509 0.20915-0.23438 0.29541-0.09766 0.08464-0.21647 0.153-0.35644 0.20508-0.13998 0.05045-0.3003 0.07568-0.48096 0.07568"/>
     <path id="path3875" d="m68.242 35.604-0.70557-1.1963-0.29541 0.20508v0.99121h-0.68604v-3.623h0.68604v2.0752l0.94238-1.0938h0.7373l-0.92773 1.0303 0.99854 1.6113h-0.74951"/>
    </g>
    <g id="text3716" style="fill:#333" transform="translate(-.057129 -.43399)">
     <path id="path3804" d="m48.057 43.604v-0.24805c0.06641-0.15234 0.14714-0.28646 0.24219-0.40234 0.09635-0.11719 0.19726-0.22266 0.30274-0.31641 0.10547-0.09505 0.20963-0.18294 0.3125-0.26367 0.10416-0.08073 0.19792-0.16146 0.28125-0.24219s0.15039-0.16536 0.20117-0.25391c0.05208-0.08854 0.07812-0.1888 0.07813-0.30078-0.000002-0.07812-0.01172-0.14648-0.03516-0.20508-0.02344-0.05989-0.05729-0.11002-0.10156-0.15039-0.04427-0.04036-0.09766-0.07031-0.16016-0.08984-0.0612-0.02083-0.12956-0.03125-0.20508-0.03125-0.07031 0.000002-0.13672 0.0098-0.19922 0.0293-0.0612 0.01953-0.11589 0.04883-0.16406 0.08789-0.04818 0.03906-0.08789 0.08789-0.11914 0.14648-0.02995 0.05729-0.04948 0.12435-0.05859 0.20117l-0.35938-0.0332c0.01172-0.09896 0.03906-0.19206 0.08203-0.2793s0.10221-0.16341 0.17774-0.22852c0.07552-0.0664 0.16602-0.11849 0.27148-0.15625 0.10677-0.03776 0.22982-0.05664 0.36914-0.05664 0.13672 0.000003 0.25846 0.01628 0.36523 0.04883s0.19661 0.08073 0.26953 0.14453c0.07422 0.0638 0.13086 0.14258 0.16992 0.23633s0.05859 0.20182 0.05859 0.32422c-0.000002 0.09245-0.01693 0.18034-0.05078 0.26367-0.03255 0.08333-0.07682 0.16276-0.13281 0.23828-0.05469 0.07552-0.11849 0.14844-0.19141 0.21875s-0.14909 0.13932-0.22852 0.20703c-0.07943 0.06641-0.15951 0.13281-0.24023 0.19922-0.08073 0.0651-0.1569 0.13086-0.22852 0.19726-0.07031 0.06641-0.13346 0.13412-0.18945 0.20312-0.05599 0.06771-0.09961 0.13867-0.13086 0.21289h1.4355v0.29883h-1.8223"/>
     <path id="path3806" d="m50.284 43.604v-0.24805c0.06641-0.15234 0.14714-0.28646 0.24219-0.40234 0.09635-0.11719 0.19726-0.22266 0.30273-0.31641 0.10547-0.09505 0.20964-0.18294 0.3125-0.26367 0.10417-0.08073 0.19792-0.16146 0.28125-0.24219s0.15039-0.16536 0.20117-0.25391c0.05208-0.08854 0.07812-0.1888 0.07813-0.30078-0.000001-0.07812-0.01172-0.14648-0.03516-0.20508-0.02344-0.05989-0.05729-0.11002-0.10156-0.15039-0.04427-0.04036-0.09766-0.07031-0.16016-0.08984-0.0612-0.02083-0.12956-0.03125-0.20508-0.03125-0.07031 0.000002-0.13672 0.0098-0.19922 0.0293-0.0612 0.01953-0.11589 0.04883-0.16406 0.08789-0.04818 0.03906-0.08789 0.08789-0.11914 0.14648-0.02995 0.05729-0.04948 0.12435-0.05859 0.20117l-0.35938-0.0332c0.01172-0.09896 0.03906-0.19206 0.08203-0.2793s0.10221-0.16341 0.17773-0.22852c0.07552-0.0664 0.16602-0.11849 0.27148-0.15625 0.10677-0.03776 0.22982-0.05664 0.36914-0.05664 0.13672 0.000003 0.25846 0.01628 0.36523 0.04883s0.19661 0.08073 0.26953 0.14453c0.07422 0.0638 0.13086 0.14258 0.16992 0.23633s0.05859 0.20182 0.05859 0.32422c-0.000002 0.09245-0.01693 0.18034-0.05078 0.26367-0.03255 0.08333-0.07682 0.16276-0.13281 0.23828-0.05469 0.07552-0.11849 0.14844-0.19141 0.21875s-0.14909 0.13932-0.22852 0.20703c-0.07943 0.06641-0.15951 0.13281-0.24024 0.19922-0.08073 0.0651-0.1569 0.13086-0.22852 0.19726-0.07031 0.06641-0.13346 0.13412-0.18945 0.20312-0.05599 0.06771-0.09961 0.13867-0.13086 0.21289h1.4355v0.29883h-1.8223"/>
     <path id="path3808" d="m52.614 43.604v-0.29883h0.70117v-2.1172l-0.62109 0.44336v-0.33203l0.65039-0.44726h0.32422v2.4531h0.66992v0.29883h-1.7246"/>
     <path id="path3810" d="m56.592 42.538c-0.000002 0.73698-0.25912 1.1055-0.77734 1.1055-0.16016 0-0.29362-0.02865-0.40039-0.08594-0.10547-0.05859-0.19141-0.15234-0.25781-0.28125h-0.0039c-0.000001 0.03385-0.0013 0.06901-0.0039 0.10547-0.0013 0.03646-0.0033 0.07031-0.0059 0.10156-0.0013 0.03125-0.0033 0.05794-0.0059 0.08008-0.0013 0.02214-0.0026 0.03581-0.0039 0.04102h-0.33984c0.0013-0.01172 0.0026-0.03125 0.0039-0.05859 0.0013-0.02865 0.0026-0.0625 0.0039-0.10156s0.002-0.08203 0.002-0.12891c0.0013-0.04687 0.002-0.0957 0.002-0.14648v-2.4629h0.35156v0.82617c0 0.03906-0.000651 0.07682-0.002 0.11328 0 0.03516-0.000652 0.06641-0.002 0.09375-0.0013 0.03255-0.0026 0.06315-0.0039 0.0918h0.0078c0.0651-0.13541 0.15104-0.23242 0.25781-0.29102 0.10807-0.05859 0.24154-0.08789 0.40039-0.08789 0.26693 0.000002 0.46289 0.08985 0.58789 0.26953 0.1263 0.17969 0.18945 0.45182 0.18945 0.81641m-0.36914 0.01172c-0.000002-0.14583-0.0091-0.27083-0.02734-0.375-0.01823-0.10416-0.04753-0.18945-0.08789-0.25586-0.04037-0.06771-0.0918-0.11719-0.1543-0.14844s-0.13867-0.04687-0.22852-0.04687c-0.09245 0.000001-0.17448 0.01497-0.24609 0.04492-0.07031 0.02995-0.12956 0.07813-0.17773 0.14453-0.04688 0.06641-0.08268 0.15365-0.10742 0.26172-0.02474 0.10808-0.03711 0.24024-0.03711 0.39648 0 0.15104 0.01237 0.278 0.03711 0.38086s0.06055 0.18685 0.10742 0.25195c0.04818 0.0638 0.10742 0.11003 0.17773 0.13867 0.07031 0.02734 0.15104 0.04102 0.24219 0.04102 0.08594 0 0.16016-0.01497 0.22266-0.04492s0.11458-0.07813 0.15625-0.14453c0.04166-0.06641 0.07226-0.15234 0.0918-0.25781 0.02083-0.10677 0.03125-0.23568 0.03125-0.38672"/>
     <path id="path3812" d="m60.329 42.829c-0.000002 0.13932-0.02735 0.25846-0.08203 0.35742-0.05469 0.09766-0.12826 0.17774-0.2207 0.24024-0.09245 0.0612-0.19987 0.10612-0.32227 0.13476-0.1224 0.02865-0.2513 0.04297-0.38672 0.04297h-1.1172v-2.752h1c0.15234 0.000003 0.28841 0.01302 0.4082 0.03906 0.11979 0.02474 0.22135 0.06446 0.30469 0.11914 0.08333 0.05469 0.14648 0.12435 0.18945 0.20898 0.04427 0.08334 0.0664 0.1836 0.06641 0.30078-0.000002 0.07682-0.01107 0.14909-0.0332 0.2168-0.02084 0.06771-0.05339 0.12956-0.09766 0.18555-0.04297 0.05469-0.09766 0.10222-0.16406 0.14258-0.06511 0.03906-0.14128 0.06836-0.22852 0.08789 0.11068 0.01302 0.20833 0.03841 0.29297 0.07617 0.08594 0.03776 0.15755 0.08594 0.21484 0.14453s0.10091 0.12695 0.13086 0.20508c0.02995 0.07682 0.04492 0.16016 0.04492 0.25m-0.53516-1.2637c-0.000002-0.14844-0.05078-0.25456-0.15234-0.31836s-0.2487-0.0957-0.44141-0.0957h-0.62695v0.87109h0.62695c0.10937 0.000001 0.20182-0.01042 0.27734-0.03125 0.07552-0.02213 0.13672-0.05273 0.18359-0.0918 0.04687-0.04036 0.08073-0.08854 0.10156-0.14453s0.03125-0.11914 0.03125-0.18945m0.1582 1.2344c-0.000002-0.08724-0.01628-0.16146-0.04883-0.22266-0.03125-0.0612-0.07682-0.11133-0.13672-0.15039s-0.13216-0.06771-0.2168-0.08594c-0.08333-0.01823-0.17708-0.02734-0.28125-0.02734h-0.69531v0.99219h0.72461c0.09505 0 0.18229-0.0078 0.26172-0.02344 0.08073-0.01562 0.14974-0.04297 0.20703-0.08203 0.05859-0.03906 0.10416-0.09115 0.13672-0.15625 0.03255-0.0651 0.04883-0.14648 0.04883-0.24414"/>
     <path id="path3814" d="m61.352 43.643c-0.21224 0-0.37174-0.05599-0.47852-0.16797-0.10677-0.11198-0.16016-0.26562-0.16016-0.46094 0-0.13932 0.02604-0.25325 0.07813-0.3418 0.05338-0.08984 0.1224-0.16016 0.20703-0.21094 0.08594-0.05078 0.18359-0.08594 0.29297-0.10547 0.10937-0.01953 0.2207-0.0306 0.33398-0.0332l0.47461-0.0078v-0.11523c-0.000002-0.08724-0.0091-0.16146-0.02734-0.22266-0.01823-0.0612-0.04623-0.11068-0.08398-0.14844-0.03776-0.03776-0.08529-0.0651-0.14258-0.08203-0.05599-0.01823-0.1224-0.02734-0.19922-0.02734-0.06771 0.000002-0.12891 0.0052-0.18359 0.01563-0.05469 0.0091-0.10221 0.02669-0.14258 0.05273-0.04037 0.02474-0.07292 0.05925-0.09766 0.10352-0.02474 0.04297-0.04102 0.09766-0.04883 0.16406l-0.36719-0.0332c0.01302-0.08333 0.03776-0.1595 0.07422-0.22852 0.03646-0.07031 0.08789-0.13086 0.1543-0.18164 0.06771-0.05078 0.15169-0.08984 0.25195-0.11719 0.10156-0.02864 0.22396-0.04297 0.36719-0.04297 0.26562 0.000002 0.46549 0.0612 0.59961 0.18359 0.13411 0.1211 0.20117 0.29688 0.20117 0.52734v0.91016c-0.000002 0.10417 0.01367 0.18294 0.04102 0.23633 0.02734 0.05208 0.07943 0.07813 0.15625 0.07813 0.01953 0 0.03906-0.0013 0.05859-0.0039s0.03841-0.0059 0.05664-0.0098v0.21875c-0.04427 0.01042-0.08854 0.01823-0.13281 0.02344-0.04297 0.0052-0.0892 0.0078-0.13867 0.0078-0.06641 0-0.1237-0.0085-0.17188-0.02539-0.04688-0.01823-0.08529-0.04492-0.11523-0.08008-0.02995-0.03646-0.05274-0.08073-0.06836-0.13281-0.01563-0.05338-0.02539-0.11523-0.0293-0.18555h-0.01172c-0.03776 0.06771-0.07943 0.12891-0.125 0.18359-0.04427 0.05469-0.09636 0.10156-0.15625 0.14062-0.0599 0.03776-0.12826 0.06706-0.20508 0.08789-0.07552 0.02083-0.16276 0.03125-0.26172 0.03125m0.08008-0.26367c0.11198 0 0.20963-0.02018 0.29297-0.06055 0.08463-0.04167 0.1543-0.0944 0.20898-0.1582 0.05599-0.0638 0.09766-0.13346 0.125-0.20898s0.04101-0.14778 0.04102-0.2168v-0.17383l-0.38477 0.0078c-0.08594 0.0013-0.16797 0.0078-0.24609 0.01953-0.07682 0.01042-0.14453 0.0319-0.20312 0.06445s-0.10547 0.07813-0.14062 0.13672c-0.03385 0.05859-0.05078 0.13542-0.05078 0.23047-0.000001 0.11458 0.0306 0.20312 0.0918 0.26562 0.0625 0.0625 0.15104 0.09375 0.26562 0.09375"/>
     <path id="path3816" d="m64.364 43.604-0.71484-0.96484-0.25781 0.21289v0.75195h-0.35156v-2.8984h0.35156v1.8105l0.92774-1.0254h0.41211l-0.85742 0.9082 0.90234 1.2051h-0.41211"/>
     <path id="path3818" d="m65.309 42.621c-0.000001 0.11068 0.01107 0.21289 0.0332 0.30664 0.02344 0.09245 0.05859 0.17253 0.10547 0.24023 0.04818 0.06641 0.10937 0.11849 0.18359 0.15625 0.07422 0.03646 0.16341 0.05469 0.26758 0.05469 0.15234 0 0.27409-0.0306 0.36523-0.0918 0.09245-0.0612 0.15495-0.13867 0.1875-0.23242l0.30859 0.08789c-0.02214 0.05859-0.05339 0.11784-0.09375 0.17774-0.03906 0.05859-0.0918 0.11198-0.1582 0.16016-0.06641 0.04687-0.14974 0.08594-0.25 0.11719-0.09896 0.02995-0.21875 0.04492-0.35938 0.04492-0.3125 0-0.55078-0.0931-0.71484-0.2793-0.16276-0.1862-0.24414-0.46289-0.24414-0.83008 0-0.19792 0.02474-0.36523 0.07422-0.50195 0.04948-0.13802 0.11719-0.25 0.20312-0.33594 0.08594-0.08594 0.1862-0.14778 0.30078-0.18555 0.11458-0.03906 0.23698-0.05859 0.36719-0.05859 0.17708 0.000002 0.32487 0.02865 0.44336 0.08594 0.11979 0.05729 0.21549 0.13672 0.28711 0.23828 0.07291 0.10026 0.12435 0.21875 0.1543 0.35547 0.03125 0.13672 0.04687 0.28451 0.04687 0.44336v0.04687h-1.5078m1.1445-0.26953c-0.01953-0.22266-0.07617-0.38476-0.16992-0.48633-0.09375-0.10286-0.22852-0.1543-0.4043-0.1543-0.05859 0.000002-0.12044 0.0098-0.18555 0.0293-0.0638 0.01823-0.12305 0.05143-0.17774 0.09961s-0.10091 0.11393-0.13867 0.19727c-0.03776 0.08203-0.05925 0.18685-0.06445 0.31445h1.1406"/>
     <path id="path3820" d="m67.274 43.604v-1.6211c0-0.04427-0.000652-0.08919-0.002-0.13476-0.000001-0.04687-0.000652-0.0918-0.002-0.13477-0.0013-0.04297-0.0026-0.08333-0.0039-0.12109s-0.0026-0.07161-0.0039-0.10156h0.33203c0.0013 0.02995 0.0026 0.06445 0.0039 0.10352 0.0026 0.03776 0.0046 0.07682 0.0059 0.11719 0.0026 0.04037 0.0039 0.07943 0.0039 0.11719 0.0013 0.03646 0.002 0.06771 0.002 0.09375h0.0078c0.02474-0.08073 0.05078-0.15039 0.07813-0.20898 0.02864-0.05989 0.06185-0.10872 0.09961-0.14648 0.03776-0.03906 0.08268-0.06771 0.13477-0.08594 0.05208-0.01953 0.11523-0.0293 0.18945-0.0293 0.02864 0.000002 0.05599 0.0026 0.08203 0.0078 0.02604 0.0039 0.04622 0.0078 0.06055 0.01172v0.32227c-0.02344-0.0065-0.05078-0.01107-0.08203-0.01367-0.03125-0.0039-0.06641-0.0059-0.10547-0.0059-0.08073 0.000002-0.14974 0.01823-0.20703 0.05469-0.05599 0.03646-0.10222 0.08724-0.13867 0.15234-0.03516 0.0638-0.0612 0.14063-0.07813 0.23047-0.01693 0.08854-0.02539 0.18555-0.02539 0.29102v1.1016h-0.35156"/>
     <path id="path3822" d="m71.926 42.844c-0.000003 0.11589-0.02279 0.22266-0.06836 0.32031-0.04427 0.09766-0.11328 0.18229-0.20703 0.25391-0.09375 0.07031-0.21224 0.12565-0.35547 0.16602-0.14193 0.03906-0.31055 0.05859-0.50586 0.05859-0.34245 0-0.60938-0.0599-0.80078-0.17969-0.19141-0.11979-0.31315-0.29297-0.36524-0.51953l0.36133-0.07227c0.01823 0.07161 0.04622 0.13672 0.08398 0.19531s0.08854 0.10938 0.15234 0.15234c0.0651 0.04167 0.14518 0.07422 0.24024 0.09766 0.09505 0.02344 0.20898 0.03516 0.3418 0.03516 0.11068 0 0.21224-0.0091 0.30469-0.02734 0.09245-0.01953 0.17187-0.04883 0.23828-0.08789 0.0664-0.03906 0.11784-0.08919 0.1543-0.15039 0.03776-0.0625 0.05664-0.13672 0.05664-0.22266-0.000002-0.08984-0.02084-0.16276-0.0625-0.21875-0.04037-0.05599-0.09766-0.10221-0.17188-0.13867s-0.16276-0.06706-0.26562-0.0918c-0.10287-0.02474-0.2168-0.05143-0.3418-0.08008-0.07682-0.01693-0.1543-0.03516-0.23242-0.05469-0.07682-0.02083-0.15104-0.04492-0.22266-0.07227-0.07031-0.02865-0.13672-0.06185-0.19922-0.09961s-0.11654-0.08268-0.16211-0.13476c-0.04557-0.05338-0.08138-0.11458-0.10742-0.18359-0.02604-0.07031-0.03906-0.15104-0.03906-0.24219 0-0.13021 0.02604-0.24153 0.07813-0.33398 0.05338-0.09375 0.12695-0.17057 0.2207-0.23047 0.09375-0.05989 0.20443-0.10351 0.33203-0.13086 0.1276-0.02734 0.26562-0.04101 0.41406-0.04102 0.17057 0.000003 0.3164 0.01367 0.4375 0.04102 0.12109 0.02604 0.22331 0.06576 0.30664 0.11914 0.08333 0.05339 0.14974 0.1198 0.19922 0.19922 0.05078 0.07813 0.09114 0.16927 0.12109 0.27344l-0.36719 0.06445c-0.01823-0.0664-0.04492-0.12565-0.08008-0.17774-0.03386-0.05208-0.07878-0.0957-0.13477-0.13086-0.05599-0.03515-0.12435-0.06185-0.20508-0.08008-0.07943-0.01823-0.17318-0.02734-0.28125-0.02734-0.1276 0.000003-0.23503 0.01172-0.32227 0.03516-0.08594 0.02214-0.1556 0.05274-0.20898 0.0918-0.05208 0.03906-0.08984 0.08529-0.11328 0.13867-0.02214 0.05209-0.0332 0.10873-0.0332 0.16992-0.000001 0.08203 0.02018 0.14974 0.06055 0.20312 0.04166 0.05208 0.09766 0.0957 0.16797 0.13086s0.15169 0.06445 0.24414 0.08789 0.19075 0.04688 0.29492 0.07031c0.08463 0.01953 0.16862 0.03972 0.25195 0.06055 0.08463 0.01953 0.16536 0.04362 0.24219 0.07227 0.07682 0.02734 0.14844 0.0599 0.21484 0.09766 0.06771 0.03776 0.1263 0.08399 0.17578 0.13867 0.04948 0.05469 0.08789 0.11914 0.11524 0.19336 0.02864 0.07422 0.04297 0.16146 0.04297 0.26172"/>
     <path id="path3824" d="m73.196 43.588c-0.05339 0.01432-0.10807 0.02539-0.16406 0.0332-0.05469 0.0091-0.11849 0.01367-0.19141 0.01367-0.28125 0-0.42188-0.1595-0.42188-0.47852v-1.4102h-0.24414v-0.25586h0.25781l0.10352-0.47266h0.23438v0.47266h0.39062v0.25586h-0.39062v1.334c-0.000001 0.10156 0.01627 0.17318 0.04883 0.21484 0.03385 0.04036 0.0918 0.06055 0.17383 0.06055 0.03385 0 0.06641-0.0026 0.09766-0.0078 0.03255-0.0052 0.06771-0.01172 0.10547-0.01953v0.25977"/>
     <path id="path3826" d="m73.588 43.604v-0.42773h0.38086v0.42773h-0.38086"/>
     <path id="path3828" d="m49.969 48.604-1.4727-2.3438c0.0026 0.0638 0.0059 0.12696 0.0098 0.18945 0.0026 0.05339 0.0046 0.11003 0.0059 0.16992 0.0026 0.0586 0.0039 0.11068 0.0039 0.15625v1.8281h-0.33203v-2.752h0.43359l1.4883 2.3594c-0.0039-0.0638-0.0078-0.1276-0.01172-0.19141-0.0026-0.05469-0.0052-0.11393-0.0078-0.17774-0.0026-0.0651-0.0039-0.12695-0.0039-0.18555v-1.8047h0.33594v2.752h-0.44922"/>
     <path id="path3830" d="m53.698 48.604h-0.44531l-0.47656-1.748c-0.01433-0.04948-0.02995-0.10807-0.04687-0.17578-0.01563-0.06771-0.02995-0.13216-0.04297-0.19336-0.01563-0.07161-0.03125-0.14453-0.04687-0.21875-0.01693 0.07552-0.0332 0.14909-0.04883 0.2207-0.01432 0.0625-0.0293 0.12696-0.04492 0.19336-0.01563 0.06641-0.0306 0.12435-0.04492 0.17383l-0.48047 1.748h-0.44531l-0.81055-2.752h0.38867l0.49414 1.748c0.02213 0.08203 0.04297 0.16341 0.0625 0.24414 0.02083 0.08073 0.03841 0.153 0.05273 0.2168 0.01693 0.07552 0.03255 0.14714 0.04687 0.21484 0.01953-0.08984 0.03971-0.17838 0.06055-0.26562 0.0091-0.03646 0.01823-0.07487 0.02734-0.11523 0.0091-0.04036 0.01823-0.08008 0.02734-0.11914 0.01042-0.03906 0.02018-0.07617 0.0293-0.11133 0.01042-0.03646 0.01953-0.06966 0.02734-0.09961l0.47852-1.7129h0.35742l0.47852 1.7129c0.0078 0.02995 0.01627 0.06315 0.02539 0.09961 0.01041 0.03516 0.02018 0.07227 0.0293 0.11133 0.01041 0.03776 0.02018 0.07682 0.0293 0.11719 0.0091 0.04037 0.01823 0.07878 0.02734 0.11524 0.02083 0.08724 0.04101 0.17643 0.06055 0.26758 0.0013 0 0.0072-0.02213 0.01758-0.06641 0.01041-0.04557 0.02344-0.10221 0.03906-0.16992s0.03255-0.14062 0.05078-0.21875c0.01953-0.07943 0.03906-0.15299 0.05859-0.2207l0.48633-1.748h0.38867l-0.81055 2.752"/>
     <path id="path3832" d="m54.825 48.604v-0.29883h0.70117v-2.1172l-0.62109 0.44336v-0.33203l0.65039-0.44726h0.32422v2.4531h0.66992v0.29883h-1.7246"/>
     <path id="path3834" d="m59.905 47.704c-0.000002 0.13802-0.01953 0.26498-0.05859 0.38086-0.03776 0.11458-0.0944 0.21354-0.16992 0.29688-0.07422 0.08203-0.16667 0.14648-0.27734 0.19336-0.11068 0.04557-0.23828 0.06836-0.38281 0.06836-0.16016 0-0.30013-0.0306-0.41992-0.0918s-0.2194-0.14909-0.29883-0.26367c-0.07943-0.11588-0.13932-0.25716-0.17969-0.42383-0.03906-0.16797-0.05859-0.35872-0.05859-0.57227 0-0.24479 0.02214-0.45963 0.06641-0.64453 0.04557-0.18489 0.11068-0.33919 0.19531-0.46289s0.1875-0.21679 0.30859-0.2793c0.12239-0.0625 0.26042-0.09375 0.41406-0.09375 0.09375 0.000003 0.18164 0.0098 0.26367 0.0293 0.08203 0.01953 0.15625 0.05143 0.22266 0.0957 0.06771 0.04297 0.12695 0.10026 0.17774 0.17188 0.05078 0.07162 0.09114 0.15951 0.12109 0.26367l-0.33594 0.06055c-0.03646-0.11849-0.09505-0.20377-0.17578-0.25586-0.07943-0.05338-0.17188-0.08008-0.27734-0.08008-0.09636 0.000003-0.1836 0.02279-0.26172 0.06836-0.07813 0.04557-0.14453 0.11393-0.19922 0.20508-0.05469 0.08985-0.09701 0.20313-0.12695 0.33984-0.02865 0.13672-0.04297 0.29622-0.04297 0.47852 0.0638-0.11849 0.15365-0.20833 0.26953-0.26953 0.11588-0.0625 0.2487-0.09375 0.39844-0.09375 0.125 0.000002 0.23828 0.02018 0.33984 0.06055s0.18815 0.09896 0.25977 0.17578c0.07291 0.07552 0.1289 0.16797 0.16797 0.27734 0.04036 0.10807 0.06055 0.22982 0.06055 0.36523m-0.35742 0.01563c-0.000001-0.09505-0.01172-0.18099-0.03516-0.25781s-0.05859-0.14193-0.10547-0.19531c-0.04688-0.05469-0.10482-0.09635-0.17383-0.125-0.06901-0.02995-0.14909-0.04492-0.24023-0.04492-0.0638 0.000002-0.12826 0.0098-0.19336 0.0293-0.0651 0.01823-0.12435 0.04883-0.17773 0.0918-0.05208 0.04167-0.09505 0.09701-0.12891 0.16602-0.03255 0.06901-0.04883 0.153-0.04883 0.25195-0.000001 0.10156 0.01302 0.19662 0.03906 0.28516 0.02604 0.08724 0.06315 0.16341 0.11133 0.22852 0.04948 0.0651 0.10872 0.11654 0.17774 0.1543 0.06901 0.03776 0.14648 0.05664 0.23242 0.05664 0.08463 0.000001 0.16015-0.01432 0.22656-0.04297 0.06771-0.02995 0.125-0.07227 0.17188-0.12695 0.04687-0.05599 0.08268-0.1237 0.10742-0.20312 0.02474-0.07943 0.03711-0.16862 0.03711-0.26758"/>
     <path id="path3836" d="m62.254 48.604-0.82617-1.2031-0.84375 1.2031h-0.41211l1.0469-1.4297-0.9668-1.3223h0.41211l0.76562 1.0801 0.74414-1.0801h0.41211l-0.94141 1.3086 1.0215 1.4434h-0.41211"/>
     <path id="path3838" d="m63.083 48.604v-2.752h2.0879v0.30469h-1.7148v0.88281h1.5977v0.30078h-1.5977v0.95898h1.7949v0.30469h-2.168"/>
     <path id="path3840" d="m48.184 53.604v-2.752h0.37305v2.4473h1.3906v0.30469h-1.7637"/>
     <path id="path3842" d="m52.139 52.545c-0.000002 0.36979-0.08138 0.64518-0.24414 0.82617s-0.39909 0.27148-0.70898 0.27148c-0.14714 0-0.27865-0.02214-0.39453-0.06641-0.11589-0.04427-0.21419-0.11198-0.29492-0.20312-0.07943-0.09115-0.14062-0.20508-0.18359-0.3418-0.04167-0.13802-0.0625-0.30013-0.0625-0.48633 0-0.72916 0.31576-1.0937 0.94727-1.0938 0.16406 0.000002 0.30534 0.02279 0.42383 0.06836 0.11979 0.04557 0.21745 0.11393 0.29297 0.20508 0.07682 0.09115 0.13346 0.20508 0.16992 0.3418s0.05468 0.29622 0.05469 0.47852m-0.36914 0c-0.000002-0.16406-0.01302-0.29948-0.03906-0.40625-0.02474-0.10677-0.06185-0.19206-0.11133-0.25586-0.04818-0.0638-0.10742-0.10807-0.17773-0.13281-0.07031-0.02604-0.14974-0.03906-0.23828-0.03906-0.08984 0.000002-0.17122 0.01367-0.24414 0.04102-0.07162 0.02604-0.13281 0.07162-0.18359 0.13672-0.05078 0.0638-0.08984 0.14909-0.11719 0.25586-0.02604 0.10677-0.03906 0.24024-0.03906 0.40039-0.000001 0.16406 0.01432 0.30013 0.04297 0.4082 0.02864 0.10677 0.06771 0.19206 0.11719 0.25586 0.05078 0.0638 0.11002 0.10872 0.17774 0.13476 0.06901 0.02604 0.14388 0.03906 0.22461 0.03906 0.08984 0 0.17122-0.01237 0.24414-0.03711 0.07291-0.02604 0.13476-0.07096 0.18555-0.13476 0.05078-0.0638 0.08984-0.14974 0.11719-0.25781 0.02734-0.10807 0.04101-0.24414 0.04102-0.4082"/>
     <path id="path3844" d="m53.92 53.604v-1.3398c-0.000001-0.10286-0.0078-0.1888-0.02344-0.25781-0.01432-0.06901-0.03841-0.12435-0.07227-0.16602-0.03386-0.04297-0.07878-0.07292-0.13477-0.08984-0.05469-0.01823-0.12305-0.02734-0.20508-0.02734-0.08333 0.000001-0.15886 0.01497-0.22656 0.04492-0.06641 0.02865-0.1237 0.07097-0.17188 0.12695-0.04688 0.05469-0.08333 0.12305-0.10938 0.20508-0.02604 0.08073-0.03906 0.17383-0.03906 0.2793v1.2246h-0.35156v-1.6621c0-0.04427-0.000652-0.09049-0.002-0.13867-0.000001-0.04948-0.000652-0.0957-0.002-0.13867-0.0013-0.04427-0.0026-0.08203-0.0039-0.11328s-0.0026-0.05143-0.0039-0.06055h0.33203c0.0013 0.0065 0.0026 0.02409 0.0039 0.05273 0.0013 0.02865 0.0026 0.06185 0.0039 0.09961 0.0026 0.03646 0.0046 0.07422 0.0059 0.11328 0.0013 0.03776 0.002 0.06966 0.002 0.0957h0.0059c0.03385-0.0612 0.07096-0.11654 0.11133-0.16602 0.04036-0.04948 0.08724-0.09114 0.14062-0.125 0.05338-0.03515 0.11458-0.06185 0.18359-0.08008 0.06901-0.01953 0.14909-0.0293 0.24023-0.0293 0.11719 0.000002 0.2181 0.01432 0.30273 0.04297s0.1543 0.07292 0.20898 0.13281c0.05468 0.0599 0.0944 0.13737 0.11914 0.23242 0.02604 0.09375 0.03906 0.20573 0.03906 0.33594v1.4082h-0.35352"/>
     <path id="path3846" d="m56.139 53.264c-0.06511 0.13542-0.15169 0.23242-0.25976 0.29102-0.10677 0.05859-0.23958 0.08789-0.39844 0.08789-0.26693 0-0.46354-0.08984-0.58984-0.26953-0.125-0.17969-0.1875-0.45182-0.1875-0.81641 0-0.73698 0.25911-1.1055 0.77734-1.1055 0.16016 0.000002 0.29362 0.0293 0.40039 0.08789 0.10677 0.0586 0.19271 0.15169 0.25781 0.2793h0.0039c-0.000001-0.01302-0.000652-0.0332-0.002-0.06055-0.000001-0.02864-0.000652-0.05794-0.002-0.08789-0.000001-0.03125-0.000001-0.06055 0-0.08789-0.000001-0.02734-0.000001-0.04687 0-0.05859v-0.81836h0.35156v2.4629c-0.000002 0.05078-0.000002 0.09961 0 0.14648 0.0013 0.04688 0.0026 0.08984 0.0039 0.12891 0.0013 0.03906 0.0026 0.07292 0.0039 0.10156 0.0013 0.02734 0.0026 0.04687 0.0039 0.05859h-0.33594c-0.0026-0.01302-0.0052-0.03125-0.0078-0.05469-0.0013-0.02474-0.0033-0.05273-0.0059-0.08398-0.0013-0.03125-0.0026-0.0638-0.0039-0.09766-0.0013-0.03516-0.002-0.06966-0.002-0.10352h-0.0078m-1.0664-0.71875c-0.000001 0.14583 0.0091 0.27083 0.02734 0.375 0.01823 0.10417 0.04753 0.1901 0.08789 0.25781 0.04036 0.06641 0.0918 0.11523 0.1543 0.14648s0.13867 0.04687 0.22852 0.04687c0.09245 0 0.17383-0.01497 0.24414-0.04492 0.07161-0.02995 0.13086-0.07812 0.17774-0.14453 0.04818-0.06771 0.08463-0.1556 0.10938-0.26367 0.02474-0.10807 0.03711-0.24023 0.03711-0.39648-0.000001-0.14974-0.01237-0.27604-0.03711-0.37891-0.02474-0.10416-0.0612-0.18815-0.10938-0.25195s-0.10742-0.10937-0.17774-0.13672c-0.06901-0.02864-0.14909-0.04297-0.24023-0.04297-0.08594 0.000002-0.16016 0.01498-0.22266 0.04492-0.0625 0.02995-0.11458 0.07813-0.15625 0.14453-0.04167 0.06641-0.07292 0.153-0.09375 0.25977-0.01953 0.10547-0.0293 0.23372-0.0293 0.38476"/>
     <path id="path3848" d="m58.819 52.545c-0.000002 0.36979-0.08138 0.64518-0.24414 0.82617s-0.39909 0.27148-0.70898 0.27148c-0.14714 0-0.27865-0.02214-0.39453-0.06641-0.11589-0.04427-0.21419-0.11198-0.29492-0.20312-0.07943-0.09115-0.14063-0.20508-0.18359-0.3418-0.04167-0.13802-0.0625-0.30013-0.0625-0.48633 0-0.72916 0.31576-1.0937 0.94726-1.0938 0.16406 0.000002 0.30534 0.02279 0.42383 0.06836 0.11979 0.04557 0.21745 0.11393 0.29297 0.20508 0.07682 0.09115 0.13346 0.20508 0.16992 0.3418s0.05469 0.29622 0.05469 0.47852m-0.36914 0c-0.000002-0.16406-0.01302-0.29948-0.03906-0.40625-0.02474-0.10677-0.06185-0.19206-0.11133-0.25586-0.04818-0.0638-0.10742-0.10807-0.17773-0.13281-0.07031-0.02604-0.14974-0.03906-0.23828-0.03906-0.08985 0.000002-0.17122 0.01367-0.24414 0.04102-0.07161 0.02604-0.13281 0.07162-0.18359 0.13672-0.05078 0.0638-0.08984 0.14909-0.11719 0.25586-0.02604 0.10677-0.03906 0.24024-0.03906 0.40039 0 0.16406 0.01432 0.30013 0.04297 0.4082 0.02865 0.10677 0.06771 0.19206 0.11719 0.25586 0.05078 0.0638 0.11002 0.10872 0.17773 0.13476 0.06901 0.02604 0.14388 0.03906 0.22461 0.03906 0.08984 0 0.17122-0.01237 0.24414-0.03711 0.07292-0.02604 0.13476-0.07096 0.18555-0.13476 0.05078-0.0638 0.08984-0.14974 0.11719-0.25781 0.02734-0.10807 0.04101-0.24414 0.04102-0.4082"/>
     <path id="path3850" d="m60.6 53.604v-1.3398c-0.000002-0.10286-0.0078-0.1888-0.02344-0.25781-0.01432-0.06901-0.03841-0.12435-0.07226-0.16602-0.03386-0.04297-0.07878-0.07292-0.13477-0.08984-0.05469-0.01823-0.12305-0.02734-0.20508-0.02734-0.08334 0.000001-0.15886 0.01497-0.22656 0.04492-0.06641 0.02865-0.1237 0.07097-0.17188 0.12695-0.04687 0.05469-0.08333 0.12305-0.10938 0.20508-0.02604 0.08073-0.03906 0.17383-0.03906 0.2793v1.2246h-0.35156v-1.6621c0-0.04427-0.000651-0.09049-0.002-0.13867 0-0.04948-0.000651-0.0957-0.002-0.13867-0.0013-0.04427-0.0026-0.08203-0.0039-0.11328s-0.0026-0.05143-0.0039-0.06055h0.33203c0.0013 0.0065 0.0026 0.02409 0.0039 0.05273 0.0013 0.02865 0.0026 0.06185 0.0039 0.09961 0.0026 0.03646 0.0046 0.07422 0.0059 0.11328 0.0013 0.03776 0.002 0.06966 0.002 0.0957h0.0059c0.03385-0.0612 0.07096-0.11654 0.11133-0.16602 0.04036-0.04948 0.08724-0.09114 0.14062-0.125 0.05339-0.03515 0.11458-0.06185 0.18359-0.08008 0.06901-0.01953 0.14909-0.0293 0.24023-0.0293 0.11719 0.000002 0.2181 0.01432 0.30274 0.04297 0.08463 0.02865 0.1543 0.07292 0.20898 0.13281 0.05469 0.0599 0.0944 0.13737 0.11914 0.23242 0.02604 0.09375 0.03906 0.20573 0.03906 0.33594v1.4082h-0.35352"/>
     <path id="path3852" d="m63.872 51.116c-0.15625 0.000002-0.29492 0.02604-0.41602 0.07813-0.11979 0.05208-0.2207 0.1263-0.30273 0.22266-0.08073 0.09636-0.14193 0.21224-0.18359 0.34766-0.04167 0.13542-0.0625 0.28581-0.0625 0.45117 0 0.16537 0.02214 0.31706 0.06641 0.45508 0.04557 0.13672 0.11002 0.25456 0.19336 0.35352 0.08463 0.09896 0.1875 0.17578 0.30859 0.23047 0.12239 0.05469 0.25976 0.08203 0.41211 0.08203 0.10677 0 0.20377-0.01367 0.29102-0.04102 0.08854-0.02865 0.16797-0.06836 0.23828-0.11914 0.07161-0.05078 0.13541-0.11068 0.19141-0.17969 0.05599-0.07031 0.10547-0.14779 0.14844-0.23242l0.30469 0.15234c-0.04948 0.10286-0.11068 0.19857-0.18359 0.28711-0.07292 0.08854-0.15886 0.16536-0.25781 0.23047-0.09766 0.0651-0.20899 0.11654-0.33398 0.1543-0.1237 0.03646-0.26237 0.05469-0.41602 0.05469-0.22266 0-0.41797-0.03516-0.58594-0.10547-0.16667-0.07162-0.30664-0.17057-0.41992-0.29688-0.11198-0.1276-0.19596-0.27864-0.25195-0.45312s-0.08398-0.36523-0.08398-0.57227c0-0.21484 0.0293-0.40885 0.08789-0.58203 0.05989-0.17318 0.14648-0.32031 0.25976-0.44141 0.11458-0.12239 0.25521-0.21614 0.42188-0.28125 0.16667-0.0664 0.35677-0.09961 0.57031-0.09961 0.29297 0.000003 0.53776 0.05729 0.73438 0.17188 0.19661 0.11459 0.34114 0.28451 0.43359 0.50977l-0.35352 0.11719c-0.02604-0.0651-0.0612-0.12695-0.10547-0.18555-0.04427-0.05989-0.09961-0.11263-0.16602-0.1582s-0.14453-0.08203-0.23438-0.10938c-0.08854-0.02734-0.19011-0.04101-0.30469-0.04102"/>
     <path id="path3854" d="m65.483 51.041v-0.33594h0.35156v0.33594h-0.35156m0 2.5625v-2.1133h0.35156v2.1133h-0.35156"/>
     <path id="path3856" d="m67.188 53.588c-0.05339 0.01432-0.10807 0.02539-0.16406 0.0332-0.05469 0.0091-0.11849 0.01367-0.19141 0.01367-0.28125 0-0.42188-0.1595-0.42188-0.47852v-1.4102h-0.24414v-0.25586h0.25781l0.10352-0.47266h0.23438v0.47266h0.39062v0.25586h-0.39062v1.334c-0.000001 0.10156 0.01627 0.17318 0.04883 0.21484 0.03385 0.04036 0.0918 0.06055 0.17383 0.06055 0.03385 0 0.06641-0.0026 0.09766-0.0078 0.03255-0.0052 0.06771-0.01172 0.10547-0.01953v0.25977"/>
     <path id="path3858" d="m68.395 53.604c-0.04948 0.1276-0.10026 0.24219-0.15234 0.34375-0.05078 0.10286-0.10807 0.1901-0.17188 0.26172-0.0638 0.07292-0.13477 0.12825-0.21289 0.16602-0.07813 0.03906-0.16797 0.05859-0.26953 0.05859-0.04427-0.000001-0.08529-0.0013-0.12305-0.0039s-0.07747-0.0085-0.11914-0.01758v-0.26367c0.02474 0.0039 0.05273 0.0065 0.08398 0.0078 0.03125 0.0026 0.05794 0.0039 0.08008 0.0039 0.10286-0.000001 0.19857-0.03841 0.28711-0.11524 0.08854-0.07682 0.16602-0.19922 0.23242-0.36719l0.0332-0.08398-0.83789-2.1035h0.375l0.44531 1.168c0.01302 0.03516 0.0293 0.08203 0.04883 0.14062 0.02083 0.05859 0.04102 0.11719 0.06055 0.17578 0.02083 0.05859 0.03906 0.11133 0.05469 0.1582 0.01562 0.04687 0.02474 0.07617 0.02734 0.08789 0.0039-0.01432 0.01302-0.04232 0.02734-0.08398 0.01562-0.04297 0.03255-0.09049 0.05078-0.14258 0.01953-0.05208 0.03906-0.10482 0.05859-0.1582s0.03581-0.09961 0.04883-0.13867l0.41406-1.207h0.37109l-0.8125 2.1133"/>
    </g>
    <g id="text3724" style="fill:#333" transform="translate(-.036618 1.0781)">
     <path id="path3734" style="fill:#333" d="m49.252 71.818c0.09456 0 0.17602-0.0131 0.24438-0.03931 0.0695-0.02734 0.12931-0.06266 0.17944-0.10596 0.05127-0.04329 0.09342-0.09228 0.12646-0.14697 0.03418-0.05469 0.06209-0.10994 0.08374-0.16577l0.43921 0.16577c-0.03532 0.08659-0.08146 0.17147-0.13843 0.25464s-0.12818 0.15666-0.21362 0.22046c-0.08545 0.0638-0.18742 0.11564-0.30591 0.15552-0.11735 0.03874-0.25578 0.0581-0.41528 0.0581-0.2085 0-0.38908-0.03076-0.54175-0.09228-0.15267-0.06266-0.27914-0.14925-0.3794-0.25976-0.09912-0.11165-0.17318-0.24382-0.22217-0.39648-0.04785-0.15267-0.07178-0.31958-0.07178-0.50073 0-0.18799 0.02393-0.35775 0.07178-0.50928 0.04899-0.15153 0.12248-0.28027 0.22046-0.38623 0.09798-0.10709 0.2216-0.18912 0.37085-0.24609 0.15039-0.0581 0.32698-0.08716 0.52978-0.08716 0.15722 0.000002 0.29451 0.01652 0.41186 0.04956 0.11849 0.03304 0.22046 0.07975 0.30591 0.14014 0.08659 0.05925 0.15779 0.12988 0.21362 0.21191 0.05696 0.08089 0.1014 0.17033 0.1333 0.26831l-0.44434 0.12134c-0.01595-0.05127-0.04045-0.10026-0.07349-0.14697-0.03304-0.04785-0.0752-0.09-0.12646-0.12646-0.05013-0.03646-0.10938-0.06551-0.17773-0.08716-0.06836-0.02278-0.14584-0.03418-0.23242-0.03418-0.12191 0.000002-0.22673 0.01994-0.31445 0.05982-0.08773 0.03874-0.16008 0.09457-0.21704 0.16748-0.05583 0.07292-0.09741 0.16065-0.12476 0.26318-0.0262 0.1014-0.03931 0.21533-0.03931 0.3418 0 0.12533 0.0131 0.2404 0.03931 0.34522 0.02734 0.10368 0.0695 0.19312 0.12646 0.26831 0.05696 0.0752 0.12988 0.13387 0.21875 0.17603 0.09 0.04216 0.19767 0.06323 0.323 0.06323"/>
     <path id="path3736" style="fill:#333" d="m52.424 71.254c-0.000002 0.14128-0.01994 0.27059-0.05981 0.38794-0.03874 0.11735-0.09741 0.21875-0.17603 0.3042-0.07861 0.08431-0.1766 0.15039-0.29394 0.19824-0.11735 0.04671-0.25407 0.07007-0.41016 0.07007-0.15039 0-0.28312-0.02336-0.39819-0.07007s-0.21191-0.11222-0.29053-0.19653c-0.07747-0.08431-0.13615-0.18514-0.17603-0.30249-0.03988-0.11849-0.05981-0.24894-0.05981-0.39136 0-0.13786 0.0188-0.26489 0.0564-0.3811 0.03874-0.11735 0.09684-0.21875 0.17432-0.3042 0.07747-0.08545 0.17488-0.1521 0.29224-0.19995 0.11735-0.04785 0.25464-0.07178 0.41186-0.07178 0.16634 0.000002 0.30819 0.02393 0.42554 0.07178s0.21305 0.1145 0.28711 0.19995c0.07519 0.08431 0.12988 0.18514 0.16406 0.30249 0.03532 0.11621 0.05298 0.24382 0.05298 0.38281m-0.50244 0c-0.000002-0.21989-0.03589-0.37939-0.10767-0.47852-0.07178-0.09912-0.17603-0.14868-0.31274-0.14868-0.14128 0.000001-0.24951 0.05013-0.32471 0.15039s-0.11279 0.2592-0.11279 0.47681c0 0.11052 0.0097 0.20565 0.02905 0.2854 0.02051 0.07975 0.04899 0.14526 0.08545 0.19653s0.08032 0.08944 0.13159 0.1145c0.05127 0.02393 0.10766 0.03589 0.16919 0.03589 0.07064 0.000001 0.1333-0.01196 0.18799-0.03589 0.05582-0.02506 0.10254-0.06323 0.14014-0.1145s0.06608-0.11678 0.08545-0.19653 0.02905-0.17489 0.02905-0.2854"/>
     <path id="path3738" style="fill:#333" d="m54.004 72.18v-1.0374c-0.000002-0.07178-0.0057-0.13729-0.01709-0.19653-0.0114-0.06038-0.03019-0.11165-0.0564-0.15381-0.02621-0.04329-0.06039-0.0769-0.10254-0.10083-0.04216-0.02392-0.09343-0.03589-0.15381-0.03589-0.05811 0.000001-0.11108 0.0131-0.15894 0.03931-0.04671 0.02507-0.08716 0.06152-0.12134 0.10938-0.03418 0.04671-0.06095 0.10311-0.08032 0.16919-0.01823 0.06494-0.02735 0.13672-0.02734 0.21533v0.99121h-0.48022v-1.4355c0-0.03987-0.000569-0.08089-0.0017-0.12305 0-0.04215-0.0011-0.08203-0.0034-0.11963-0.0011-0.03874-0.0023-0.07291-0.0034-0.10254-0.0011-0.03076-0.0028-0.05355-0.0051-0.06836h0.45801c0.0023 0.01367 0.0046 0.03589 0.0068 0.06665 0.0023 0.02962 0.0046 0.06266 0.0068 0.09912 0.0023 0.03646 0.004 0.07292 0.0051 0.10938 0.0023 0.03646 0.0034 0.06722 0.0034 0.09229h0.0068c0.06494-0.14127 0.1464-0.24381 0.24438-0.30762 0.09798-0.0638 0.21476-0.0957 0.35034-0.0957 0.11165 0.000002 0.20565 0.01823 0.28198 0.05469 0.07747 0.03646 0.14014 0.08659 0.18799 0.15039 0.04899 0.0638 0.08431 0.139 0.10596 0.22559s0.03247 0.18001 0.03247 0.28027v1.1741h-0.47852"/>
     <path id="path3740" style="fill:#333" d="m56.505 71.64c-0.000002 0.08887-0.0188 0.16862-0.0564 0.23926-0.03646 0.07064-0.09001 0.13102-0.16064 0.18115-0.07064 0.04899-0.15723 0.08716-0.25977 0.1145-0.10254 0.0262-0.21932 0.03931-0.35034 0.03931-0.11735 0-0.22331-0.0085-0.31787-0.02563-0.09456-0.01709-0.17774-0.045-0.24951-0.08374-0.07064-0.03988-0.12988-0.09114-0.17773-0.15381-0.04785-0.06266-0.08374-0.14014-0.10767-0.23242l0.42212-0.06323c0.01367 0.05127 0.03247 0.09286 0.0564 0.12476 0.02392 0.0319 0.05355 0.0564 0.08887 0.07349s0.07633 0.02848 0.12305 0.03418c0.04785 0.0057 0.10197 0.0085 0.16235 0.0085 0.05469 0.000001 0.10539-0.0028 0.1521-0.0085 0.04785-0.0068 0.08887-0.01766 0.12305-0.03247 0.03532-0.01595 0.06266-0.0376 0.08203-0.06494 0.01937-0.02848 0.02905-0.0638 0.02905-0.10596-0.000002-0.04785-0.01424-0.08545-0.04273-0.11279-0.02734-0.02848-0.06551-0.05127-0.1145-0.06836-0.04785-0.01823-0.10482-0.03361-0.1709-0.04614-0.06494-0.01367-0.13444-0.02905-0.2085-0.04614-0.07747-0.01709-0.15381-0.0376-0.229-0.06152-0.0752-0.02393-0.14242-0.05639-0.20166-0.09741-0.05925-0.04101-0.1071-0.09285-0.14356-0.15552-0.03646-0.0638-0.05469-0.14412-0.05469-0.24097 0-0.08773 0.01709-0.16577 0.05127-0.23413 0.03418-0.0695 0.08431-0.12817 0.15039-0.17602 0.06608-0.04899 0.14754-0.08602 0.24438-0.11108 0.09798-0.0262 0.2102-0.0393 0.33667-0.03931 0.10026 0.000002 0.19368 0.0097 0.28027 0.02905 0.08659 0.01823 0.16406 0.04785 0.23242 0.08887 0.06836 0.03988 0.12532 0.09115 0.1709 0.15381 0.04671 0.06266 0.07918 0.13843 0.09741 0.2273l-0.42554 0.04443c-0.008-0.04443-0.02222-0.08089-0.04273-0.10938-0.02051-0.02962-0.04614-0.05298-0.0769-0.07007-0.02962-0.01709-0.06437-0.02848-0.10425-0.03418-0.03988-0.0068-0.08374-0.01025-0.13159-0.01025-0.11393 0.000002-0.19938 0.01481-0.25635 0.04443-0.05697 0.02848-0.08545 0.0769-0.08545 0.14526 0 0.04216 0.01139 0.07577 0.03418 0.10083 0.02392 0.02507 0.05696 0.04614 0.09912 0.06323 0.04329 0.01595 0.09399 0.03019 0.1521 0.04272 0.05924 0.0114 0.12362 0.02564 0.19312 0.04273 0.08545 0.01823 0.16919 0.03988 0.25122 0.06494 0.08317 0.02393 0.15666 0.05754 0.22046 0.10083 0.06494 0.04216 0.11678 0.09684 0.15552 0.16406 0.03988 0.06722 0.05981 0.15267 0.05982 0.25635"/>
     <path id="path3742" style="fill:#333" d="m57.347 70.331v1.0374c-0.000001 0.07178 0.0057 0.13786 0.01709 0.19824 0.01139 0.05925 0.03019 0.11052 0.0564 0.15381 0.0262 0.04215 0.05981 0.0752 0.10083 0.09912 0.04215 0.02393 0.09342 0.03589 0.15381 0.03589 0.0581 0 0.11051-0.01253 0.15723-0.0376 0.04785-0.0262 0.08886-0.06266 0.12305-0.10938 0.03418-0.04785 0.06038-0.10425 0.07861-0.16919 0.01937-0.06608 0.02905-0.13843 0.02905-0.21704v-0.99121h0.48022v1.4355c-0.000002 0.03874-0.000002 0.07975 0 0.12305 0.0011 0.04216 0.0023 0.0826 0.0034 0.12134 0.0023 0.0376 0.004 0.07178 0.0051 0.10254 0.0023 0.02962 0.004 0.05184 0.0051 0.06665h-0.45801c-0.0011-0.01367-0.0034-0.03532-0.0068-0.06494-0.0023-0.03076-0.0046-0.06437-0.0068-0.10083-0.0011-0.03646-0.0028-0.07292-0.0051-0.10938-0.0011-0.03646-0.0017-0.06722-0.0017-0.09229h-0.0085c-0.0638 0.14014-0.14526 0.24211-0.24438 0.30591-0.09798 0.0638-0.21476 0.0957-0.35034 0.0957-0.11052 0-0.20451-0.01823-0.28198-0.05469s-0.14071-0.08602-0.1897-0.14868c-0.04785-0.0638-0.0826-0.139-0.10425-0.22559s-0.03247-0.18001-0.03247-0.28027v-1.1741h0.48022"/>
     <path id="path3744" style="fill:#333" d="m59.034 72.18v-2.5361h0.48022v2.5361h-0.48022"/>
     <path id="path3746" style="fill:#333" d="m60.478 72.211c-0.14128 0-0.25008-0.03817-0.32642-0.1145-0.07634-0.07747-0.1145-0.19425-0.1145-0.35034v-1.0903h-0.23413v-0.32471h0.25806l0.15039-0.43408h0.30078v0.43408h0.35034v0.32471h-0.35034v0.96045c-0.000001 0.09001 0.01709 0.15666 0.05127 0.19995 0.03418 0.04215 0.08716 0.06323 0.15894 0.06323 0.02962 0.000001 0.0564-0.0023 0.08032-0.0068 0.02392-0.0046 0.0507-0.01025 0.08032-0.01709v0.29736c-0.05925 0.01937-0.12191 0.03361-0.18799 0.04273-0.06608 0.01025-0.13843 0.01538-0.21704 0.01538"/>
     <path id="path3749" style="fill:#333" d="m61.174 69.998v-0.35376h0.48022v0.35376h-0.48022m0 2.1824v-1.8491h0.48022v1.8491h-0.48022"/>
     <path id="path3751" style="fill:#333" d="m63.342 72.18v-1.0374c-0.000001-0.07178-0.0057-0.13729-0.01709-0.19653-0.01139-0.06038-0.03019-0.11165-0.0564-0.15381-0.02621-0.04329-0.06039-0.0769-0.10254-0.10083-0.04216-0.02392-0.09343-0.03589-0.15381-0.03589-0.05811 0.000001-0.11108 0.0131-0.15894 0.03931-0.04671 0.02507-0.08716 0.06152-0.12134 0.10938-0.03418 0.04671-0.06095 0.10311-0.08032 0.16919-0.01823 0.06494-0.02734 0.13672-0.02734 0.21533v0.99121h-0.48022v-1.4355c0-0.03987-0.00057-0.08089-0.0017-0.12305 0-0.04215-0.0011-0.08203-0.0034-0.11963-0.0011-0.03874-0.0023-0.07291-0.0034-0.10254-0.0011-0.03076-0.0028-0.05355-0.0051-0.06836h0.45801c0.0023 0.01367 0.0046 0.03589 0.0068 0.06665 0.0023 0.02962 0.0046 0.06266 0.0068 0.09912 0.0023 0.03646 0.004 0.07292 0.0051 0.10938 0.0023 0.03646 0.0034 0.06722 0.0034 0.09229h0.0068c0.06494-0.14127 0.1464-0.24381 0.24438-0.30762 0.09798-0.0638 0.21476-0.0957 0.35034-0.0957 0.11165 0.000002 0.20565 0.01823 0.28198 0.05469 0.07747 0.03646 0.14014 0.08659 0.18799 0.15039 0.04899 0.0638 0.08431 0.139 0.10596 0.22559 0.02164 0.08659 0.03247 0.18001 0.03247 0.28027v1.1741h-0.47852"/>
     <path id="path3753" style="fill:#333" d="m65.058 72.922c-0.12191-0.000001-0.22957-0.01253-0.323-0.0376-0.09229-0.02393-0.17147-0.05811-0.23755-0.10254-0.06494-0.0433-0.11735-0.0957-0.15723-0.15723-0.03874-0.06038-0.06551-0.12704-0.08032-0.19995l0.48022-0.0564c0.01709 0.07406 0.05355 0.13216 0.10938 0.17432 0.05697 0.04216 0.13102 0.06323 0.22217 0.06323 0.05697-0.000001 0.1088-0.008 0.15552-0.02393 0.04785-0.01595 0.0883-0.0433 0.12134-0.08203 0.03418-0.0376 0.06038-0.08773 0.07861-0.15039 0.01937-0.06266 0.02905-0.14014 0.02905-0.23242-0.000002-0.0319-0.000002-0.06437 0-0.09741-0.000002-0.03304 0.000568-0.06323 0.0017-0.09058 0.0011-0.0319 0.0017-0.06266 0.0017-0.09229h-0.0034c-0.05583 0.11963-0.13444 0.20622-0.23584 0.25976-0.10026 0.05355-0.21989 0.08032-0.35889 0.08032-0.11735 0-0.21875-0.02279-0.3042-0.06836-0.08431-0.04671-0.15438-0.11108-0.2102-0.19312-0.05583-0.08317-0.09741-0.18172-0.12476-0.29565-0.0262-0.11507-0.03931-0.24154-0.03931-0.3794 0-0.14241 0.01424-0.27116 0.04273-0.38623 0.02848-0.11621 0.07178-0.2159 0.12988-0.29907 0.05924-0.08317 0.1333-0.14697 0.22217-0.19141 0.09001-0.04557 0.19653-0.06836 0.31958-0.06836 0.12305 0.000002 0.23299 0.02621 0.32983 0.07861 0.09798 0.05241 0.17432 0.13729 0.229 0.25464h0.0085c-0.000002-0.02392 0.000568-0.05127 0.0017-0.08203 0.0023-0.0319 0.0046-0.06209 0.0068-0.09058 0.0023-0.02962 0.0046-0.05582 0.0068-0.07861 0.0034-0.02278 0.0063-0.03816 0.0085-0.04614h0.45459c-0.0023 0.04102-0.0046 0.09855-0.0068 0.17261-0.0023 0.07406-0.0034 0.15894-0.0034 0.25464v1.3655c-0.000001 0.13444-0.01937 0.25122-0.0581 0.35034-0.03874 0.10026-0.0957 0.18343-0.1709 0.24951-0.07406 0.06608-0.16577 0.11564-0.27515 0.14868-0.10824 0.03304-0.23185 0.04956-0.37085 0.04956m0.40161-1.6919c-0.000002-0.11621-0.01139-0.21305-0.03418-0.29053-0.02279-0.07747-0.05241-0.13957-0.08887-0.18628s-0.07861-0.07975-0.12646-0.09912c-0.04671-0.01937-0.094-0.02905-0.14185-0.02905-0.06152 0.000001-0.11621 0.01196-0.16406 0.03589-0.04671 0.02393-0.08659 0.06096-0.11963 0.11108-0.03304 0.05013-0.05811 0.11393-0.07519 0.19141-0.01709 0.07747-0.02564 0.16976-0.02564 0.27686-0.000001 0.19938 0.0319 0.34977 0.0957 0.45117s0.15894 0.1521 0.2854 0.1521c0.04785 0 0.09513-0.0091 0.14185-0.02734 0.04785-0.01937 0.09058-0.05241 0.12817-0.09912 0.0376-0.04785 0.06779-0.11108 0.09058-0.1897 0.02278-0.07861 0.03418-0.17773 0.03418-0.29736"/>
     <path id="path3755" style="fill:#333" d="m68.592 72.18c-0.0023-0.0091-0.0051-0.02506-0.0085-0.04785-0.0023-0.02393-0.0051-0.0507-0.0085-0.08032-0.0023-0.02962-0.0046-0.05981-0.0068-0.09058-0.0011-0.03076-0.0017-0.05811-0.0017-0.08203h-0.0068c-0.05583 0.11963-0.13387 0.20565-0.23413 0.25806-0.09912 0.05127-0.21818 0.0769-0.35718 0.0769-0.11621 0-0.21704-0.02392-0.30249-0.07178-0.08431-0.04785-0.15438-0.1145-0.2102-0.19995-0.05469-0.08545-0.0957-0.18628-0.12305-0.30249-0.02621-0.11735-0.03931-0.24495-0.03931-0.38281 0-0.14014 0.01367-0.26888 0.04102-0.38623 0.02848-0.11735 0.07178-0.21818 0.12988-0.30249 0.05811-0.08545 0.13159-0.1521 0.22046-0.19995 0.09001-0.04785 0.19653-0.07178 0.31958-0.07178 0.06038 0.000002 0.11849 0.0063 0.17432 0.0188 0.05583 0.01253 0.10766 0.0319 0.15552 0.0581 0.04785 0.02621 0.09114 0.05982 0.12988 0.10083 0.03874 0.04102 0.07178 0.09058 0.09912 0.14868h0.0034c-0.000001-0.01139-0.000571-0.02791-0.0017-0.04956-0.000001-0.02278-0.000001-0.04842 0-0.0769-0.000001-0.02848-0.000571-0.0581-0.0017-0.08887-0.000001-0.03076-0.000001-0.06038 0-0.08887v-0.67505h0.48022v2.1328c-0.000002 0.09001 0.0017 0.17033 0.0051 0.24097 0.0034 0.0695 0.0063 0.12362 0.0085 0.16235h-0.46484m-0.02222-0.93482c-0.000001-0.12191-0.01139-0.22274-0.03418-0.30249-0.02279-0.08089-0.05298-0.14469-0.09058-0.19141-0.03646-0.04785-0.07861-0.08089-0.12646-0.09912-0.04671-0.01937-0.09457-0.02905-0.14356-0.02905-0.06152 0.000001-0.11621 0.01196-0.16406 0.03589-0.04671 0.02393-0.08659 0.06152-0.11963 0.11279-0.0319 0.05127-0.0564 0.11678-0.07349 0.19653-0.01595 0.07975-0.02393 0.17603-0.02393 0.28882 0 0.41927 0.1259 0.62891 0.37769 0.62891 0.04785 0.000001 0.0957-0.01025 0.14356-0.03076 0.04785-0.02051 0.09057-0.05526 0.12817-0.10425s0.06779-0.1145 0.09058-0.19653c0.02392-0.08317 0.03589-0.18628 0.03589-0.30933"/>
     <path id="path3757" style="fill:#333" d="m70.291 72.214c-0.1333 0-0.2535-0.01937-0.3606-0.0581-0.10596-0.03988-0.19653-0.09969-0.27173-0.17944-0.0752-0.08089-0.13273-0.18172-0.17261-0.30249-0.03988-0.12191-0.05982-0.26432-0.05981-0.42725-0.000001-0.17659 0.02335-0.32528 0.07007-0.44604 0.04785-0.12077 0.11165-0.21818 0.19141-0.29224 0.08089-0.07519 0.17375-0.12931 0.27856-0.16235 0.10482-0.03304 0.21533-0.04956 0.33154-0.04956 0.14583 0.000002 0.27002 0.02564 0.37256 0.0769 0.10368 0.05013 0.18856 0.12077 0.25464 0.21191 0.06608 0.09115 0.1145 0.20052 0.14526 0.32812 0.03076 0.12647 0.04614 0.2666 0.04614 0.42041v0.01367h-1.186c-0.000001 0.07748 0.0068 0.14982 0.02051 0.21704 0.01367 0.06608 0.03589 0.12362 0.06665 0.17261 0.03076 0.04785 0.07064 0.08602 0.11963 0.1145 0.04899 0.02734 0.10824 0.04102 0.17773 0.04102 0.08431 0.000001 0.15324-0.01766 0.20679-0.05298 0.05355-0.03646 0.09171-0.09228 0.1145-0.16748l0.45288 0.03931c-0.02051 0.05241-0.04956 0.10824-0.08716 0.16748-0.03646 0.05924-0.08545 0.11393-0.14697 0.16406-0.06152 0.04899-0.13843 0.09001-0.23071 0.12305-0.09115 0.0319-0.20223 0.04785-0.33325 0.04785m0-1.615c-0.04899 0.000002-0.09513 0.0085-0.13843 0.02563-0.04216 0.01595-0.07918 0.04216-0.11108 0.07861-0.03076 0.03532-0.05583 0.08146-0.0752 0.13843s-0.03019 0.12533-0.03247 0.20508h0.71777c-0.0091-0.14925-0.045-0.2609-0.10767-0.33496-0.06266-0.07519-0.14697-0.11279-0.25293-0.11279"/>
     <path id="path3759" style="fill:#333" d="m71.956 72.211c-0.14128 0-0.25008-0.03817-0.32642-0.1145-0.07634-0.07747-0.1145-0.19425-0.1145-0.35034v-1.0903h-0.23413v-0.32471h0.25806l0.15039-0.43408h0.30078v0.43408h0.35034v0.32471h-0.35034v0.96045c-0.000001 0.09001 0.01709 0.15666 0.05127 0.19995 0.03418 0.04215 0.08716 0.06323 0.15894 0.06323 0.02962 0.000001 0.0564-0.0023 0.08032-0.0068 0.02393-0.0046 0.0507-0.01025 0.08032-0.01709v0.29736c-0.05925 0.01937-0.12191 0.03361-0.18799 0.04273-0.06608 0.01025-0.13843 0.01538-0.21704 0.01538"/>
     <path id="path3761" style="fill:#333" d="m73.408 72.214c-0.1333 0-0.2535-0.01937-0.3606-0.0581-0.10596-0.03988-0.19653-0.09969-0.27173-0.17944-0.0752-0.08089-0.13273-0.18172-0.17261-0.30249-0.03988-0.12191-0.05981-0.26432-0.05981-0.42725 0-0.17659 0.02336-0.32528 0.07007-0.44604 0.04785-0.12077 0.11165-0.21818 0.19141-0.29224 0.08089-0.07519 0.17375-0.12931 0.27856-0.16235 0.10482-0.03304 0.21533-0.04956 0.33154-0.04956 0.14583 0.000002 0.27002 0.02564 0.37256 0.0769 0.10368 0.05013 0.18856 0.12077 0.25464 0.21191 0.06608 0.09115 0.1145 0.20052 0.14526 0.32812 0.03076 0.12647 0.04614 0.2666 0.04614 0.42041v0.01367h-1.186c0 0.07748 0.0068 0.14982 0.02051 0.21704 0.01367 0.06608 0.03589 0.12362 0.06665 0.17261 0.03076 0.04785 0.07064 0.08602 0.11963 0.1145 0.04899 0.02734 0.10823 0.04102 0.17773 0.04102 0.08431 0.000001 0.15324-0.01766 0.20679-0.05298 0.05355-0.03646 0.09171-0.09228 0.1145-0.16748l0.45288 0.03931c-0.02051 0.05241-0.04956 0.10824-0.08716 0.16748-0.03646 0.05924-0.08545 0.11393-0.14697 0.16406-0.06153 0.04899-0.13843 0.09001-0.23071 0.12305-0.09115 0.0319-0.20223 0.04785-0.33325 0.04785m0-1.615c-0.04899 0.000002-0.09513 0.0085-0.13843 0.02563-0.04215 0.01595-0.07918 0.04216-0.11108 0.07861-0.03076 0.03532-0.05583 0.08146-0.0752 0.13843s-0.03019 0.12533-0.03247 0.20508h0.71777c-0.0091-0.14925-0.04501-0.2609-0.10767-0.33496-0.06266-0.07519-0.14697-0.11279-0.25293-0.11279"/>
     <path id="path3763" style="fill:#333" d="m75.37 72.214c-0.14697 0-0.27572-0.02279-0.38623-0.06836-0.10938-0.04557-0.20052-0.10994-0.27344-0.19312-0.07292-0.08317-0.1276-0.18286-0.16406-0.29907-0.03646-0.11735-0.05469-0.24666-0.05469-0.38794 0-0.15381 0.01994-0.29053 0.05982-0.41016 0.03988-0.12077 0.09741-0.22217 0.17261-0.3042 0.0752-0.08317 0.16748-0.1464 0.27686-0.1897 0.11051-0.04329 0.23584-0.06494 0.37598-0.06494 0.11963 0.000002 0.22558 0.01595 0.31787 0.04785 0.09342 0.0319 0.17374 0.07577 0.24097 0.13159 0.06722 0.05469 0.12134 0.11963 0.16235 0.19482 0.04215 0.0752 0.0712 0.15609 0.08716 0.24268l-0.48364 0.02393c-0.01367-0.09456-0.04785-0.16976-0.10254-0.22559-0.05469-0.05697-0.13216-0.08545-0.23242-0.08545-0.12874 0.000001-0.22274 0.05298-0.28198 0.15894-0.05925 0.10596-0.08887 0.25977-0.08887 0.46143-0.000001 0.42611 0.12589 0.63916 0.37768 0.63916 0.09114 0.000001 0.16748-0.02848 0.229-0.08545 0.06152-0.0581 0.09969-0.14412 0.1145-0.25806l0.48193 0.02222c-0.0114 0.08545-0.0376 0.16748-0.07861 0.24609-0.03988 0.07747-0.09457 0.1464-0.16406 0.20679-0.06836 0.05925-0.15153 0.1071-0.24951 0.14356-0.09798 0.03532-0.21021 0.05298-0.33667 0.05298"/>
     <path id="path3765" style="fill:#333" d="m77.021 72.211c-0.14128 0-0.25008-0.03817-0.32642-0.1145-0.07634-0.07747-0.1145-0.19425-0.1145-0.35034v-1.0903h-0.23413v-0.32471h0.25806l0.15039-0.43408h0.30078v0.43408h0.35034v0.32471h-0.35034v0.96045c-0.000001 0.09001 0.01709 0.15666 0.05127 0.19995 0.03418 0.04215 0.08716 0.06323 0.15894 0.06323 0.02962 0.000001 0.05639-0.0023 0.08032-0.0068 0.02393-0.0046 0.0507-0.01025 0.08032-0.01709v0.29736c-0.05924 0.01937-0.12191 0.03361-0.18799 0.04273-0.06608 0.01025-0.13843 0.01538-0.21704 0.01538"/>
     <path id="path3767" style="fill:#333" d="m77.717 69.998v-0.35376h0.48022v0.35376h-0.48022m0 2.1824v-1.8491h0.48022v1.8491h-0.48022"/>
     <path id="path3769" style="fill:#333" d="m79.692 72.18h-0.57422l-0.66138-1.8491h0.50757l0.323 1.0339c0.01025 0.03418 0.02108 0.07064 0.03247 0.10938 0.01139 0.0376 0.02222 0.0752 0.03247 0.11279 0.01025 0.0376 0.01994 0.07406 0.02905 0.10938 0.01025 0.03532 0.01937 0.06722 0.02734 0.0957 0.0068-0.02734 0.01538-0.0581 0.02564-0.09229 0.01025-0.03532 0.02051-0.07178 0.03076-0.10938 0.01139-0.0376 0.02278-0.07519 0.03418-0.11279 0.01253-0.0376 0.0245-0.07349 0.03589-0.10767l0.33667-1.0391h0.50244l-0.68188 1.8491"/>
     <path id="path3771" style="fill:#333" d="m81.393 72.214c-0.1333 0-0.2535-0.01937-0.3606-0.0581-0.10596-0.03988-0.19653-0.09969-0.27173-0.17944-0.0752-0.08089-0.13273-0.18172-0.17261-0.30249-0.03988-0.12191-0.05981-0.26432-0.05981-0.42725 0-0.17659 0.02336-0.32528 0.07007-0.44604 0.04785-0.12077 0.11165-0.21818 0.19141-0.29224 0.08089-0.07519 0.17375-0.12931 0.27856-0.16235 0.10482-0.03304 0.21533-0.04956 0.33154-0.04956 0.14583 0.000002 0.27002 0.02564 0.37256 0.0769 0.10368 0.05013 0.18856 0.12077 0.25464 0.21191 0.06608 0.09115 0.1145 0.20052 0.14526 0.32812 0.03076 0.12647 0.04614 0.2666 0.04614 0.42041v0.01367h-1.186c0 0.07748 0.0068 0.14982 0.02051 0.21704 0.01367 0.06608 0.03589 0.12362 0.06665 0.17261 0.03076 0.04785 0.07064 0.08602 0.11963 0.1145 0.04899 0.02734 0.10823 0.04102 0.17773 0.04102 0.08431 0.000001 0.15324-0.01766 0.20679-0.05298 0.05355-0.03646 0.09171-0.09228 0.1145-0.16748l0.45288 0.03931c-0.02051 0.05241-0.04956 0.10824-0.08716 0.16748-0.03646 0.05924-0.08545 0.11393-0.14697 0.16406-0.06153 0.04899-0.13843 0.09001-0.23071 0.12305-0.09115 0.0319-0.20223 0.04785-0.33325 0.04785m0-1.615c-0.04899 0.000002-0.09513 0.0085-0.13843 0.02563-0.04215 0.01595-0.07918 0.04216-0.11108 0.07861-0.03076 0.03532-0.05583 0.08146-0.0752 0.13843s-0.03019 0.12533-0.03247 0.20508h0.71777c-0.0091-0.14925-0.04501-0.2609-0.10767-0.33496-0.06266-0.07519-0.14697-0.11279-0.25293-0.11279"/>
    </g>
    <g id="text3728" style="fill:#333" transform="translate(-.18017 .09348)">
     <path id="path3774" style="fill:#333" d="m50.043 66.502c-0.000002 0.12191-0.02393 0.22616-0.07178 0.31274-0.04785 0.08545-0.11222 0.15552-0.19312 0.2102-0.08089 0.05355-0.17489 0.09286-0.28198 0.11792-0.1071 0.02506-0.21989 0.0376-0.33838 0.0376h-0.97754v-2.408h0.875c0.1333 0.000002 0.25236 0.0114 0.35718 0.03418 0.10482 0.02165 0.19368 0.0564 0.2666 0.10425 0.07291 0.04785 0.12817 0.10881 0.16577 0.18286 0.03874 0.07292 0.0581 0.16065 0.0581 0.26318-0.000002 0.06722-0.0097 0.13046-0.02905 0.1897-0.01823 0.05925-0.04671 0.11336-0.08545 0.16235-0.0376 0.04785-0.08545 0.08944-0.14356 0.12476-0.05697 0.03418-0.12362 0.05982-0.19995 0.0769 0.09684 0.0114 0.18229 0.03361 0.25635 0.06665 0.07519 0.03304 0.13786 0.0752 0.18799 0.12646 0.05013 0.05127 0.0883 0.11108 0.1145 0.17944 0.0262 0.06722 0.0393 0.14014 0.03931 0.21875m-0.46826-1.1057c-0.000002-0.12988-0.04443-0.22274-0.1333-0.27856-0.08887-0.05583-0.21761-0.08374-0.38623-0.08374h-0.54858v0.76221h0.54858c0.0957 0.000002 0.17659-0.0091 0.24268-0.02734 0.06608-0.01937 0.11963-0.04614 0.16064-0.08032 0.04101-0.03532 0.07064-0.07747 0.08887-0.12646s0.02734-0.10425 0.02734-0.16577m0.13843 1.0801c-0.000002-0.07633-0.01424-0.14128-0.04273-0.19482-0.02734-0.05355-0.06722-0.09741-0.11963-0.13159s-0.11564-0.05924-0.1897-0.0752c-0.07292-0.01595-0.15495-0.02392-0.24609-0.02393h-0.6084v0.86816h0.63403c0.08317 0 0.1595-0.0068 0.229-0.02051 0.07064-0.01367 0.13102-0.0376 0.18115-0.07178 0.05127-0.03418 0.09114-0.07975 0.11963-0.13672 0.02848-0.05696 0.04272-0.12817 0.04273-0.21362"/>
     <path id="path3776" style="fill:#333" d="m50.474 67.18v-1.4185c0-0.03874-0.00057-0.07804-0.0017-0.11792 0-0.04101-0.00057-0.08032-0.0017-0.11792-0.0011-0.0376-0.0023-0.07292-0.0034-0.10596s-0.0023-0.06266-0.0034-0.08887h0.29053c0.0011 0.02621 0.0023 0.0564 0.0034 0.09058 0.0023 0.03304 0.004 0.06722 0.0051 0.10254 0.0023 0.03532 0.0034 0.0695 0.0034 0.10254 0.0011 0.0319 0.0017 0.05925 0.0017 0.08203h0.0068c0.02165-0.07064 0.04443-0.13159 0.06836-0.18286 0.02506-0.05241 0.05412-0.09513 0.08716-0.12817 0.03304-0.03418 0.07235-0.05924 0.11792-0.07519 0.04557-0.01709 0.10083-0.02563 0.16577-0.02564 0.02506 0.000002 0.04899 0.0023 0.07178 0.0068 0.02279 0.0034 0.04044 0.0068 0.05298 0.01025v0.28198c-0.02051-0.0057-0.04443-0.0097-0.07178-0.01196-0.02734-0.0034-0.05811-0.0051-0.09229-0.0051-0.07064 0.000002-0.13102 0.01595-0.18115 0.04785-0.04899 0.0319-0.08944 0.07634-0.12134 0.1333-0.03076 0.05583-0.05355 0.12305-0.06836 0.20166-0.01481 0.07748-0.02222 0.16235-0.02222 0.25464v0.96387h-0.30762"/>
     <path id="path3778" style="fill:#333" d="m51.634 64.938v-0.29394h0.30762v0.29394h-0.30762m0 2.2422v-1.8491h0.30762v1.8491h-0.30762"/>
     <path id="path3780" style="fill:#333" d="m53.126 67.167c-0.04671 0.01253-0.09456 0.02222-0.14356 0.02905-0.04785 0.008-0.10368 0.01196-0.16748 0.01196-0.24609 0-0.36914-0.13957-0.36914-0.4187v-1.2339h-0.21362v-0.22388h0.22559l0.09058-0.41358h0.20508v0.41358h0.3418v0.22388h-0.3418v1.1672c-0.000001 0.08887 0.01424 0.15153 0.04272 0.18799 0.02962 0.03532 0.08032 0.05298 0.1521 0.05298 0.02962 0 0.0581-0.0023 0.08545-0.0068 0.02848-0.0046 0.05924-0.01025 0.09229-0.01709v0.2273"/>
     <path id="path3782" style="fill:#333" d="m53.384 64.938v-0.29394h0.30762v0.29394h-0.30762m0 2.2422v-1.8491h0.30762v1.8491h-0.30762"/>
     <path id="path3784" style="fill:#333" d="m55.553 66.669c-0.000001 0.08659-0.01709 0.16406-0.05127 0.23242-0.03304 0.06722-0.08146 0.12419-0.14526 0.1709-0.0638 0.04557-0.14242 0.08089-0.23584 0.10596-0.09229 0.02393-0.19824 0.03589-0.31787 0.03589-0.1071 0-0.20394-0.0085-0.29053-0.02563-0.08545-0.01595-0.16064-0.04215-0.22559-0.07861-0.06494-0.03646-0.11963-0.08431-0.16406-0.14355-0.04329-0.06038-0.0752-0.13387-0.0957-0.22046l0.27173-0.05298c0.0262 0.09912 0.08032 0.17204 0.16235 0.21875 0.08203 0.04557 0.19596 0.06836 0.3418 0.06836 0.06608 0.000001 0.12646-0.0046 0.18115-0.01367 0.05582-0.0091 0.10368-0.0245 0.14355-0.04614 0.03987-0.02279 0.07064-0.05241 0.09228-0.08887 0.02279-0.0376 0.03418-0.08374 0.03418-0.13843-0.000001-0.05583-0.0131-0.1014-0.03931-0.13672-0.0262-0.03646-0.06266-0.06665-0.10938-0.09058-0.04671-0.02393-0.10368-0.04443-0.1709-0.06152-0.06608-0.01823-0.139-0.03817-0.21875-0.05982-0.07406-0.01937-0.14754-0.04101-0.22046-0.06494-0.07292-0.02392-0.139-0.05526-0.19824-0.09399-0.05811-0.03988-0.10539-0.08887-0.14185-0.14697s-0.05469-0.13102-0.05469-0.21875c-0.000001-0.16862 0.05981-0.29679 0.17944-0.38452 0.12077-0.08887 0.29622-0.1333 0.52637-0.1333 0.20394 0.000002 0.36572 0.03589 0.48535 0.10767 0.12077 0.07178 0.1971 0.18685 0.229 0.34522l-0.27686 0.03418c-0.01026-0.04785-0.02905-0.08773-0.0564-0.11963-0.02735-0.03304-0.06039-0.05924-0.09912-0.07861-0.03874-0.02051-0.0826-0.03475-0.13159-0.04272-0.04785-0.0091-0.09798-0.01367-0.15039-0.01367-0.139 0.000001-0.24154 0.02108-0.30762 0.06323-0.06608 0.04216-0.09912 0.10596-0.09912 0.19141-0.000001 0.05013 0.01196 0.09172 0.03589 0.12476 0.02506 0.0319 0.05924 0.05925 0.10254 0.08203 0.04443 0.02165 0.09741 0.04102 0.15894 0.05811 0.06152 0.01595 0.12931 0.03304 0.20337 0.05127 0.04899 0.01253 0.09912 0.02621 0.15039 0.04102 0.05127 0.01367 0.10083 0.03076 0.14868 0.05127 0.04899 0.01937 0.09456 0.04272 0.13672 0.07007 0.04329 0.02621 0.08089 0.05811 0.11279 0.0957 0.0319 0.0376 0.05696 0.08146 0.0752 0.13159 0.01937 0.05013 0.02905 0.10824 0.02905 0.17432"/>
     <path id="path3786" style="fill:#333" d="m56.221 65.647c0.03418-0.06266 0.07121-0.11564 0.11108-0.15894 0.03988-0.04443 0.08374-0.08089 0.13159-0.10938 0.04785-0.02848 0.10026-0.04899 0.15723-0.06152 0.05697-0.01367 0.12077-0.02051 0.19141-0.02051 0.11849 0.000002 0.21533 0.01595 0.29053 0.04785 0.07633 0.0319 0.13615 0.07691 0.17944 0.13501 0.04443 0.05697 0.07462 0.12533 0.09058 0.20508 0.01709 0.07975 0.02563 0.16748 0.02563 0.26318v1.2322h-0.30933v-1.1724c-0.000001-0.07861-0.0051-0.14754-0.01538-0.20679-0.0091-0.05924-0.02734-0.10823-0.05469-0.14697-0.02735-0.03988-0.06608-0.0695-0.11621-0.08887-0.05013-0.02051-0.11507-0.03076-0.19482-0.03076-0.07292 0.000001-0.139 0.0131-0.19824 0.03931-0.05811 0.02621-0.10824 0.06323-0.15039 0.11108-0.04102 0.04785-0.07292 0.10596-0.0957 0.17432-0.02279 0.06836-0.03418 0.14526-0.03418 0.23071v1.0903h-0.30762v-2.5361h0.30762v0.65967c0 0.0376-0.00057 0.0752-0.0017 0.11279-0.0011 0.0376-0.0028 0.07235-0.0051 0.10425-0.0011 0.0319-0.0023 0.05925-0.0034 0.08203-0.0011 0.02165-0.0023 0.03646-0.0034 0.04443h0.0051"/>
     <path id="path3788" style="fill:#333" d="m60.222 66.669c-0.000002 0.08659-0.01709 0.16406-0.05127 0.23242-0.03304 0.06722-0.08146 0.12419-0.14526 0.1709-0.0638 0.04557-0.14242 0.08089-0.23584 0.10596-0.09229 0.02393-0.19824 0.03589-0.31787 0.03589-0.1071 0-0.20394-0.0085-0.29053-0.02563-0.08545-0.01595-0.16064-0.04215-0.22559-0.07861-0.06494-0.03646-0.11963-0.08431-0.16406-0.14355-0.0433-0.06038-0.0752-0.13387-0.0957-0.22046l0.27173-0.05298c0.0262 0.09912 0.08032 0.17204 0.16235 0.21875 0.08203 0.04557 0.19596 0.06836 0.3418 0.06836 0.06608 0.000001 0.12646-0.0046 0.18115-0.01367 0.05583-0.0091 0.10368-0.0245 0.14356-0.04614 0.03988-0.02279 0.07064-0.05241 0.09228-0.08887 0.02278-0.0376 0.03418-0.08374 0.03418-0.13843-0.000001-0.05583-0.0131-0.1014-0.03931-0.13672-0.02621-0.03646-0.06266-0.06665-0.10938-0.09058-0.04671-0.02393-0.10368-0.04443-0.1709-0.06152-0.06608-0.01823-0.139-0.03817-0.21875-0.05982-0.07406-0.01937-0.14754-0.04101-0.22046-0.06494-0.07292-0.02392-0.139-0.05526-0.19824-0.09399-0.05811-0.03988-0.10539-0.08887-0.14185-0.14697s-0.05469-0.13102-0.05469-0.21875c0-0.16862 0.05981-0.29679 0.17944-0.38452 0.12077-0.08887 0.29622-0.1333 0.52637-0.1333 0.20394 0.000002 0.36572 0.03589 0.48535 0.10767 0.12077 0.07178 0.1971 0.18685 0.229 0.34522l-0.27686 0.03418c-0.01026-0.04785-0.02905-0.08773-0.0564-0.11963-0.02734-0.03304-0.06038-0.05924-0.09912-0.07861-0.03874-0.02051-0.0826-0.03475-0.13159-0.04272-0.04785-0.0091-0.09798-0.01367-0.15039-0.01367-0.139 0.000001-0.24154 0.02108-0.30762 0.06323-0.06608 0.04216-0.09912 0.10596-0.09912 0.19141 0 0.05013 0.01196 0.09172 0.03589 0.12476 0.02506 0.0319 0.05924 0.05925 0.10254 0.08203 0.04443 0.02165 0.09741 0.04102 0.15894 0.05811 0.06152 0.01595 0.12931 0.03304 0.20337 0.05127 0.04899 0.01253 0.09912 0.02621 0.15039 0.04102 0.05127 0.01367 0.10083 0.03076 0.14868 0.05127 0.04899 0.01937 0.09456 0.04272 0.13672 0.07007 0.04329 0.02621 0.08089 0.05811 0.11279 0.0957 0.0319 0.0376 0.05696 0.08146 0.0752 0.13159 0.01937 0.05013 0.02905 0.10824 0.02905 0.17432"/>
     <path id="path3790" style="fill:#333" d="m60.885 65.331v1.1724c-0.000001 0.09001 0.0063 0.1652 0.0188 0.22559 0.01367 0.06038 0.03532 0.10938 0.06494 0.14697 0.02962 0.03646 0.06836 0.06266 0.11621 0.07861 0.04899 0.01481 0.10937 0.02222 0.18115 0.02222 0.07292 0 0.13843-0.01253 0.19653-0.0376 0.05924-0.0262 0.10937-0.06323 0.15039-0.11108 0.04215-0.04899 0.07462-0.1088 0.09741-0.17944 0.02278-0.07178 0.03418-0.15381 0.03418-0.24609v-1.0715h0.30762v1.4543c-0.000002 0.03874-0.000002 0.07975 0 0.12305 0.0011 0.04216 0.0023 0.0826 0.0034 0.12134 0.0011 0.0376 0.0023 0.07007 0.0034 0.09741s0.0023 0.045 0.0034 0.05298h-0.29053c-0.0011-0.0057-0.0023-0.02108-0.0034-0.04614s-0.0028-0.05355-0.0051-0.08545c-0.0011-0.03304-0.0023-0.06608-0.0034-0.09912-0.0011-0.03418-0.0017-0.06266-0.0017-0.08545h-0.0051c-0.02962 0.05355-0.06209 0.10197-0.09741 0.14526-0.03532 0.0433-0.07634 0.08032-0.12305 0.11108-0.04671 0.02962-0.10026 0.05241-0.16064 0.06836-0.06038 0.01709-0.13045 0.02563-0.2102 0.02563-0.10254 0-0.19084-0.01253-0.26489-0.0376-0.07406-0.02507-0.13501-0.0638-0.18286-0.11621s-0.08317-0.11963-0.10596-0.20166c-0.02165-0.08203-0.03247-0.18058-0.03247-0.29566v-1.2322h0.30933"/>
     <path id="path3792" style="fill:#333" d="m64.096 66.247c-0.000002 0.64486-0.22673 0.96728-0.68018 0.96728-0.14014 0-0.25692-0.02506-0.35034-0.07519-0.09229-0.05127-0.16748-0.1333-0.22559-0.24609h-0.0034c-0.000001 0.02962-0.0011 0.06038-0.0034 0.09228-0.0011 0.0319-0.0028 0.06152-0.0051 0.08887-0.0011 0.02734-0.0028 0.0507-0.0051 0.07007-0.0011 0.01937-0.0023 0.03133-0.0034 0.03589h-0.29736c0.0011-0.01025 0.0023-0.02734 0.0034-0.05127 0.0011-0.02506 0.0023-0.05469 0.0034-0.08887s0.0017-0.07178 0.0017-0.11279c0.0011-0.04102 0.0017-0.08374 0.0017-0.12817v-2.155h0.30762v0.7229c-0.000001 0.03418-0.00057 0.06722-0.0017 0.09912-0.000001 0.03076-0.00057 0.05811-0.0017 0.08203-0.0011 0.02848-0.0023 0.05526-0.0034 0.08032h0.0068c0.05696-0.11849 0.13216-0.20337 0.22559-0.25464 0.09456-0.05127 0.21134-0.0769 0.35034-0.0769 0.23356 0.000002 0.40503 0.07861 0.5144 0.23584 0.11051 0.15723 0.16577 0.39535 0.16577 0.71436m-0.323 0.01025c-0.000001-0.1276-0.008-0.23698-0.02393-0.32812-0.01595-0.09114-0.04159-0.16577-0.0769-0.22388-0.03532-0.05924-0.08032-0.10254-0.13501-0.12988s-0.12134-0.04101-0.19995-0.04102c-0.08089 0.000001-0.15267 0.0131-0.21533 0.03931-0.06152 0.02621-0.11336 0.06836-0.15552 0.12646-0.04102 0.05811-0.07235 0.13444-0.09399 0.229-0.02165 0.09457-0.03247 0.21021-0.03247 0.34692-0.000001 0.13216 0.01082 0.24325 0.03247 0.33325 0.02165 0.09001 0.05298 0.16349 0.09399 0.22046 0.04215 0.05583 0.09399 0.09627 0.15552 0.12134 0.06152 0.02393 0.13216 0.03589 0.21191 0.03589 0.07519 0.000001 0.14014-0.0131 0.19482-0.03931 0.05469-0.0262 0.10026-0.06836 0.13672-0.12646 0.03646-0.05811 0.06323-0.1333 0.08032-0.22559 0.01823-0.09342 0.02734-0.20622 0.02734-0.33838"/>
     <path id="path3794" style="fill:#333" d="m64.479 64.938v-0.29394h0.30762v0.29394h-0.30762m0.30762 2.4712c-0.000001 0.07064-0.0063 0.13615-0.0188 0.19653-0.01139 0.06038-0.03247 0.11279-0.06323 0.15723-0.03076 0.04443-0.07292 0.07918-0.12646 0.10425-0.05241 0.0262-0.11963 0.03931-0.20166 0.03931-0.03874-0.000001-0.0769-0.0011-0.1145-0.0034-0.03646-0.0023-0.07064-0.0063-0.10254-0.01196v-0.23755c0.01481 0.0023 0.03247 0.0046 0.05298 0.0068 0.02051 0.0023 0.03817 0.0034 0.05298 0.0034 0.04329 0 0.07861-0.0057 0.10596-0.01709 0.02848-0.01139 0.0507-0.02962 0.06665-0.05469 0.01595-0.02393 0.02677-0.05526 0.03247-0.09399 0.0057-0.0376 0.0085-0.0826 0.0085-0.13501v-2.032h0.30762v2.0781"/>
     <path id="path3796" style="fill:#333" d="m65.496 66.321c0 0.09684 0.0097 0.18628 0.02905 0.26831 0.02051 0.08089 0.05127 0.15096 0.09229 0.2102 0.04215 0.05811 0.0957 0.10368 0.16064 0.13672 0.06494 0.0319 0.14298 0.04785 0.23413 0.04785 0.1333 0.000001 0.23983-0.02677 0.31958-0.08032 0.08089-0.05355 0.13558-0.12134 0.16406-0.20337l0.27002 0.0769c-0.01937 0.05127-0.04671 0.10311-0.08203 0.15552-0.03418 0.05127-0.08032 0.09798-0.13843 0.14014-0.05811 0.04101-0.13102 0.07519-0.21875 0.10254-0.08659 0.0262-0.19141 0.03931-0.31445 0.03931-0.27344 0-0.48193-0.08146-0.62549-0.24438-0.14242-0.16292-0.21362-0.40503-0.21362-0.72632 0-0.17318 0.02165-0.31958 0.06494-0.43921 0.04329-0.12077 0.10254-0.21875 0.17773-0.29394s0.16292-0.12931 0.26318-0.16235c0.10026-0.03418 0.20736-0.05127 0.32129-0.05127 0.15495 0.000002 0.28426 0.02507 0.38794 0.0752 0.10482 0.05013 0.18856 0.11963 0.25122 0.2085 0.0638 0.08773 0.1088 0.19141 0.13501 0.31104 0.02734 0.11963 0.04101 0.24894 0.04102 0.38794v0.04102h-1.3193m1.0015-0.23584c-0.01709-0.19482-0.06665-0.33667-0.14868-0.42554-0.08203-0.09001-0.19995-0.13501-0.35376-0.13501-0.05127 0.000001-0.10539 0.0085-0.16235 0.02564-0.05583 0.01595-0.10767 0.045-0.15552 0.08716s-0.0883 0.09969-0.12134 0.17261c-0.03304 0.07178-0.05184 0.16349-0.0564 0.27515h0.99805"/>
     <path id="path3799" style="fill:#333" d="m67.442 66.247c-0.000001 0.10596 0.0074 0.20337 0.02222 0.29224 0.01595 0.08887 0.04216 0.16577 0.07861 0.23071 0.03646 0.0638 0.08431 0.11336 0.14355 0.14868 0.06038 0.03532 0.13444 0.05298 0.22217 0.05298 0.10937 0 0.20052-0.02962 0.27344-0.08887 0.07406-0.05924 0.11963-0.15039 0.13672-0.27344l0.31104 0.02051c-0.01026 0.07634-0.03247 0.14982-0.06665 0.22046s-0.08089 0.13273-0.14014 0.18628c-0.05811 0.05355-0.12932 0.09684-0.21362 0.12988-0.08431 0.0319-0.18172 0.04785-0.29224 0.04785-0.14469 0-0.26774-0.0245-0.36914-0.07349s-0.184-0.11621-0.2478-0.20166c-0.06266-0.08659-0.10824-0.18799-0.13672-0.3042-0.02848-0.11735-0.04272-0.24438-0.04272-0.3811-0.000001-0.12418 0.01025-0.23356 0.03076-0.32812 0.02051-0.0957 0.04899-0.17887 0.08545-0.24951 0.0376-0.07178 0.08146-0.13159 0.13159-0.17944 0.05013-0.04899 0.10425-0.08773 0.16235-0.11621 0.05924-0.02962 0.12134-0.0507 0.18628-0.06323 0.06494-0.01367 0.13045-0.02051 0.19653-0.02051 0.10368 0.000002 0.19596 0.01424 0.27686 0.04272 0.08089 0.02848 0.15039 0.06779 0.2085 0.11792 0.05924 0.04899 0.1071 0.1071 0.14356 0.17432s0.06209 0.13957 0.0769 0.21704l-0.31616 0.02393c-0.01595-0.10254-0.0564-0.184-0.12134-0.24438s-0.15723-0.09058-0.27686-0.09058c-0.08773 0.000001-0.16122 0.01481-0.22046 0.04443-0.05811 0.02849-0.10539 0.07235-0.14184 0.13159-0.03646 0.05811-0.06266 0.13159-0.07861 0.22046-0.01481 0.08887-0.02222 0.19312-0.02222 0.31274"/>
     <path id="path3801" style="fill:#333" d="m69.669 67.167c-0.04671 0.01253-0.09456 0.02222-0.14355 0.02905-0.04785 0.008-0.10368 0.01196-0.16748 0.01196-0.24609 0-0.36914-0.13957-0.36914-0.4187v-1.2339h-0.21362v-0.22388h0.22559l0.09058-0.41358h0.20508v0.41358h0.3418v0.22388h-0.3418v1.1672c-0.000001 0.08887 0.01424 0.15153 0.04272 0.18799 0.02962 0.03532 0.08032 0.05298 0.1521 0.05298 0.02962 0 0.0581-0.0023 0.08545-0.0068 0.02848-0.0046 0.05924-0.01025 0.09228-0.01709v0.2273"/>
    </g>
    <path id="path3748" style="fill:#333" d="m48 78c0.02791 2 0.0384 3.9999 0.03642 6h0.9106c-0.0036-2-0.01522-4-0.03122-6h-0.9158zm1.5558 0c0.0092 2 0.01012 4 0.03122 6h0.39546c-0.01048-2-0.01984-4-0.03122-6h-0.39546zm1.5819 0c0.15609 1.9991 0.05306 3.9999 0.02602 6h1.4205c-0.000097-2-0.0038-4-0.0156-6h-1.4309zm2.5653 0c0.01674 2 0.0089 4 0.02602 6h0.9262c0.000106-1.5992-0.0086-3.9579-0.02081-6h-0.93141zm2.1334 0c-0.02783 0.52975-0.02676 2.1751 0.0052 6h0.34863c0.01294-1.5731 0.000833-3.9444-0.02081-6h-0.33302 0.00008-0.000054zm2.0449 0c0.0052 2 0.0079 4 0.03122 6h0.31741c0.02152-2 0.01578-4 0.01048-6h-0.35911zm1.5506 0c0.01465 2 0.01294 4 0.04163 6h0.9158c-0.02349-2-0.03964-4-0.05202-6h-0.9054zm2.0761 0c0.0028 2 0.01236 4 0.04163 6h0.36944c-0.0095-2-0.02856-4-0.03642-6h-0.37465zm1.5506 0.000004c0.01907 2.2114 0.03394 4.8685 0.03641 5.9238 0.000073 0.03025-0.000089 0.04683 0 0.07624h1.4518c-0.0133-2-0.02933-4-0.05202-6h-1.4361zm2.149-0.000004c0.0064 2 0.0113 4 0.03122 6h0.88458c-0.0025-2-0.01012-4-0.02081-6h-0.89498zm1.587 0c-0.008 2-0.0077 4 0 6h0.90019c0.004-2-0.01178-4-0.03122-6h-0.86897zm1.5766 0c0.0133 2 0.01426 4 0.03641 6h0.87417c-0.01825-2-0.03628-4-0.05202-6h-0.85856zm2.5861 0c0.0064 2 0.02707 4 0.04163 6h0.89498c-0.008-2-0.0068-4-0.01559-6h-0.92103zm2.6433 0c0.0231 1.9999-0.01882 4.0001 0.01559 6h0.38505c-0.0031-2-0.02331-4-0.04682-6h-0.35383 0.000009zm1.0199 0c0.02853 2 0.0267 4 0.05202 6h0.33302c0.01142-1.5296 0.0071-3.925-0.0052-6h-0.37992 0.00005zm2.1594 0c0.0068 2.4984 0.02862 5.0845 0.05725 6h0.87938c-0.000332-2-0.01673-4-0.02603-6h-0.91059zm2.6537 0c0.02462 2 0.01712 4 0.03642 6h0.36424c-0.0095-2-0.02749-4-0.03642-6h-0.36424zm1.0355 0c0.01806 2 0.03521 4 0.04682 6h1.4309c-0.01788-2-0.02581-4-0.03122-6h-1.4465 0.000009zm2.1178 0c0.01048 2 0.03389 4 0.04682 6h1.3633c0.0055-1.6007 0.0025-3.9551-0.0052-6h-1.405 0.000044z"/>
    <path id="rect3786" style="opacity:.7;fill:url(#linearGradient3799)" d="m16 28v13.594c6.365-2.18 13.836-3.787 22-4.594v-9h-22z"/>
    <rect id="rect3731" style="opacity:.1" rx="1" ry=".66667" height="2" width="36" y="58" x="48"/>
   </g>
  </g>
  <rect id="rect3003" style="opacity:.15;fill:#fff" clip-path="url(#clipPath3009)" rx="25" ry="25" transform="translate(98 3.8281e-7)" width="92" y="958.36" x="-96" height="92"/>
 </g>
</svg>
