<?xml version="1.0" encoding="UTF-8" standalone="no"?>
<!-- Created with Inkscape (http://www.inkscape.org/) -->
<svg id="svg11037" xmlns:rdf="http://www.w3.org/1999/02/22-rdf-syntax-ns#" xmlns="http://www.w3.org/2000/svg" height="96" width="96" version="1.1" xmlns:cc="http://creativecommons.org/ns#" xmlns:xlink="http://www.w3.org/1999/xlink" xmlns:dc="http://purl.org/dc/elements/1.1/">
 <defs id="defs11039">
  <clipPath id="clipPath3009" clipPathUnits="userSpaceOnUse">
   <path id="path3011" style="opacity:.15;fill:#fff" d="m-2 956.36h-96v33.562l96 25.687v-59.25z"/>
  </clipPath>
  <linearGradient id="linearGradient3018" x1="11.162" gradientUnits="userSpaceOnUse" y1="5.6551" gradientTransform="matrix(3.6988 0 0 2.8914 10.902 15.338)" x2="11.162" y2="18.098">
   <stop id="stop3639-97" style="stop-color:#f0f0f0" offset="0"/>
   <stop id="stop3641-6" style="stop-color:#aaa" offset="1"/>
  </linearGradient>
 </defs>
 <metadata id="metadata11042">
  <rdf:RDF>
   <cc:Work rdf:about="">
    <dc:format>image/svg+xml</dc:format>
    <dc:type rdf:resource="http://purl.org/dc/dcmitype/StillImage"/>
    <dc:title/>
   </cc:Work>
  </rdf:RDF>
 </metadata>
 <g id="layer1" transform="translate(0 -956.36)">
  <rect id="rect3867" style="opacity:.6" rx="25" ry="25" height="92" width="92" y="958.36" x="2"/>
  <g id="g3070" transform="translate(0 956.36)">
   <path id="path3890" style="opacity:.3" d="m60.036 33v9.2961c0 5.4651-1.0244 6.6428-6.4895 6.6428l-11.546 0.061v-10l-20 15 20 15v-10h18.235c5.435 0 9.765-4.524 9.765-9.959v-16.041z"/>
   <path id="Symbol" style="fill:url(#linearGradient3018)" d="m60.036 32v9.2961c0 5.4651-1.0244 6.6428-6.4895 6.6428l-11.546 0.061v-10l-20 15 20 15v-10h18.235c5.435 0 9.765-4.524 9.765-9.959v-16.041z"/>
   <path id="path3872" style="opacity:.75;fill:#fff" d="m60.031 32v1h9.969v-1h-9.969zm-18.031 6-20 15 0.656 0.5 19.344-14.5v-1zm18.031 3.2812c0 5.4651-1.0349 6.6562-6.5 6.6562l-11.531 0.063v1l11.531-0.0625c5.4651 0 6.5-1.1912 6.5-6.6562v-1z"/>
   <path id="path3881" style="opacity:.15" d="m70 47.031c0 5.435-4.315 9.969-9.75 9.969h-18.25v1h18.25c5.435 0 9.75-4.534 9.75-9.969v-1zm-47.344 5.469-0.656 0.5 20 15v-1l-19.344-14.5z"/>
  </g>
  <rect id="rect3003" style="opacity:.15;fill:#fff" clip-path="url(#clipPath3009)" rx="25" ry="25" transform="translate(98)" width="92" y="958.36" x="-96" height="92"/>
 </g>
</svg>
