<?xml version="1.0" encoding="UTF-8" standalone="no"?>
<!-- Created with Inkscape (http://www.inkscape.org/) -->
<svg id="svg11037" xmlns:rdf="http://www.w3.org/1999/02/22-rdf-syntax-ns#" xmlns="http://www.w3.org/2000/svg" height="96" width="96" version="1.1" xmlns:cc="http://creativecommons.org/ns#" xmlns:xlink="http://www.w3.org/1999/xlink" xmlns:dc="http://purl.org/dc/elements/1.1/">
 <defs id="defs11039">
  <clipPath id="clipPath3009" clipPathUnits="userSpaceOnUse">
   <path id="path3011" style="opacity:.15;fill:#fff" d="m-2 956.36h-96v33.562l96 25.687v-59.25z"/>
  </clipPath>
  <linearGradient id="linearGradient4002" y2="72" gradientUnits="userSpaceOnUse" y1="24" x2="38" x1="38">
   <stop id="stop3639-49" style="stop-color:#f0f0f0" offset="0"/>
   <stop id="stop3641-87" style="stop-color:#aaa" offset="1"/>
  </linearGradient>
 </defs>
 <metadata id="metadata11042">
  <rdf:RDF>
   <cc:Work rdf:about="">
    <dc:format>image/svg+xml</dc:format>
    <dc:type rdf:resource="http://purl.org/dc/dcmitype/StillImage"/>
    <dc:title/>
   </cc:Work>
  </rdf:RDF>
 </metadata>
 <g id="layer1" transform="translate(0 -956.36)">
  <rect id="rect3867" style="opacity:.6" rx="25" ry="25" height="92" width="92" y="958.36" x="2"/>
  <g id="g3050" transform="translate(0 956.36)">
   <path id="path3744" style="opacity:.3" d="m27.594 25c-1.995 0-3.594 1.599-3.594 3.594v26.844c0 1.9944 1.5994 3.625 3.5938 3.625h20.875c1.9944 0 3.5938-1.6306 3.5938-3.625v-26.844c-0.001-1.995-1.6-3.594-3.594-3.594h-20.875zm3.5938 5.9688h13.719c0.6648 0 1.1875 0.55395 1.1875 1.2188v19.688c0 0.6648-0.5227 1.2188-1.1875 1.2188h-13.719c-0.6648 0-1.2188-0.55395-1.2188-1.2188v-19.688c0-0.6648 0.55395-1.2188 1.2188-1.2188zm24.906 14.062v1.9062h9.9062v-1.9062h-9.9062zm0 4.0625v3.8438h9.9062v-3.8438h-9.9062zm0 6.0625v5.8438h-5.6875l10.75 12 10.844-12h-6v-5.8438h-9.9062zm-29.094 11.844c-1.6569 0-3 1.3431-3 3s1.3431 3 3 3 3-1.3431 3-3-1.3431-3-3-3zm10 0c-1.6569 0-3 1.3431-3 3s1.3431 3 3 3 3-1.3431 3-3-1.3431-3-3-3zm10 0c-1.6569 0-3 1.3431-3 3s1.3431 3 3 3 3-1.3431 3-3-1.3431-3-3-3z"/>
   <path id="path3164" style="color:#000000;fill:url(#linearGradient4002)" d="m27.594 24c-1.995 0-3.594 1.599-3.594 3.594v26.844c0 1.9944 1.5994 3.625 3.5938 3.625h20.875c1.9944 0 3.5938-1.6306 3.5938-3.625v-26.844c-0.001-1.995-1.6-3.594-3.594-3.594h-20.875zm3.5938 5.9688h13.719c0.6648 0 1.1875 0.55395 1.1875 1.2188v19.688c0 0.6648-0.5227 1.2188-1.1875 1.2188h-13.719c-0.6648 0-1.2188-0.55395-1.2188-1.2188v-19.688c0-0.6648 0.55395-1.2188 1.2188-1.2188zm24.906 14.062v1.9062h9.9062v-1.9062h-9.9062zm0 4.0625v3.8438h9.9062v-3.8438h-9.9062zm0 6.0625v5.8438h-5.6875l10.75 12 10.844-12h-6v-5.8438h-9.9062zm-29.094 11.844c-1.6569 0-3 1.3431-3 3s1.3431 3 3 3 3-1.3431 3-3-1.3431-3-3-3zm10 0c-1.6569 0-3 1.3431-3 3s1.3431 3 3 3 3-1.3431 3-3-1.3431-3-3-3zm10 0c-1.6569 0-3 1.3431-3 3s1.3431 3 3 3 3-1.3431 3-3-1.3431-3-3-3z"/>
   <path id="path3939" style="opacity:.75;color:#000000;fill:#fff" d="m27.594 24c-1.995 0-3.594 1.599-3.594 3.594v1c0-1.995 1.599-3.594 3.594-3.594h20.875c1.9944 0 3.5938 1.5994 3.5938 3.5938v-1c-0.001-1.995-1.6-3.594-3.594-3.594h-20.875zm28.5 20.031v1h9.9062v-1h-9.9062zm0 4.0625v1h9.9062v-1h-9.9062zm-26.125 2.7812v1c0 0.6648 0.55395 1.2188 1.2188 1.2188h13.719c0.6648 0 1.1875-0.55395 1.1875-1.2188v-1c0 0.6648-0.5227 1.2188-1.1875 1.2188h-13.719c-0.6648 0-1.2188-0.55395-1.2188-1.2188zm26.125 3.2812v1h9.9062v-1h-9.9062zm-5.688 5.844l0.90625 1h4.7812v-1h-5.6875zm15.594 0v1h5.094l0.906-1h-6zm-39 6c-1.6569 0-3 1.3431-3 3 0 0.17476 0.03382 0.33342 0.0625 0.5 0.244-1.413 1.456-2.5 2.938-2.5 1.4821 0 2.6943 1.0874 2.9375 2.5 0.028-0.167 0.062-0.325 0.062-0.5 0-1.657-1.343-3-3-3zm10 0c-1.6569 0-3 1.3431-3 3 0 0.17476 0.03382 0.33342 0.0625 0.5 0.244-1.413 1.456-2.5 2.938-2.5 1.4821 0 2.6943 1.0874 2.9375 2.5 0.028-0.167 0.062-0.325 0.062-0.5 0-1.657-1.343-3-3-3zm10 0c-1.6569 0-3 1.3431-3 3 0 0.17476 0.03382 0.33342 0.0625 0.5 0.244-1.413 1.456-2.5 2.938-2.5 1.4821 0 2.6943 1.0874 2.9375 2.5 0.028-0.167 0.062-0.325 0.062-0.5 0-1.657-1.343-3-3-3z"/>
   <path id="path3944" style="opacity:.15;color:#000000" d="m31.188 28.969c-0.6648 0-1.2188 0.55395-1.2188 1.2188v1c0-0.6648 0.55395-1.2188 1.2188-1.2188h13.719c0.6648 0 1.1875 0.55395 1.1875 1.2188v-1c0-0.6648-0.5227-1.2188-1.1875-1.2188h-13.719zm24.906 15.969v1h9.9062v-1h-9.9062zm0 6v1h9.9062v-1h-9.9062zm-32.094 2.5v1c0 1.9944 1.5994 3.625 3.5938 3.625h20.875c1.9944 0 3.5938-1.6306 3.5938-3.625v-1c0 1.9944-1.5994 3.625-3.5938 3.625h-20.875c-1.995-0.001-3.594-1.631-3.594-3.625zm26.406 6.562 10.75 12 10.844-12h-0.906l-9.938 11-9.844-11h-0.906zm-26.344 8.5c-0.028 0.167-0.062 0.325-0.062 0.5 0 1.6569 1.3431 3 3 3s3-1.3431 3-3c0-0.17476-0.03382-0.33342-0.0625-0.5-0.244 1.413-1.456 2.5-2.938 2.5s-2.694-1.087-2.938-2.5zm10 0c-0.028 0.167-0.062 0.325-0.062 0.5 0 1.6569 1.3431 3 3 3s3-1.3431 3-3c0-0.17476-0.03382-0.33342-0.0625-0.5-0.244 1.413-1.456 2.5-2.938 2.5s-2.694-1.087-2.938-2.5zm10 0c-0.028 0.167-0.062 0.325-0.062 0.5 0 1.6569 1.3431 3 3 3s3-1.3431 3-3c0-0.17476-0.03382-0.33342-0.0625-0.5-0.244 1.413-1.456 2.5-2.938 2.5s-2.694-1.087-2.938-2.5z"/>
  </g>
  <rect id="rect3003" style="opacity:.15;fill:#fff" clip-path="url(#clipPath3009)" rx="25" ry="25" transform="translate(98 -.0000026172)" width="92" y="958.36" x="-96" height="92"/>
 </g>
</svg>
