<?xml version="1.0" encoding="UTF-8" standalone="no"?>
<!-- Created with Inkscape (http://www.inkscape.org/) -->
<svg id="svg11037" xmlns:rdf="http://www.w3.org/1999/02/22-rdf-syntax-ns#" xmlns="http://www.w3.org/2000/svg" height="96" width="96" version="1.1" xmlns:cc="http://creativecommons.org/ns#" xmlns:xlink="http://www.w3.org/1999/xlink" xmlns:dc="http://purl.org/dc/elements/1.1/">
 <defs id="defs11039">
  <clipPath id="clipPath3009" clipPathUnits="userSpaceOnUse">
   <path id="path3011" style="opacity:.15;fill:#fff" d="m-2 956.36h-96v33.562l96 25.687v-59.25z"/>
  </clipPath>
  <linearGradient id="linearGradient3195-7" y2="21.914" gradientUnits="userSpaceOnUse" y1="74" x2="48" x1="48">
   <stop id="stop4083-6" style="stop-color:#aaa" offset="0"/>
   <stop id="stop4085-8" style="stop-color:#f0f0f0" offset="1"/>
  </linearGradient>
 </defs>
 <metadata id="metadata11042">
  <rdf:RDF>
   <cc:Work rdf:about="">
    <dc:format>image/svg+xml</dc:format>
    <dc:type rdf:resource="http://purl.org/dc/dcmitype/StillImage"/>
    <dc:title/>
   </cc:Work>
  </rdf:RDF>
 </metadata>
 <g id="layer1" transform="translate(0 -956.36)">
  <rect id="rect3867" style="opacity:.6" rx="25" ry="25" height="92" width="92" y="958.36" x="2"/>
  <g id="g3053" transform="translate(0 956.36)">
   <path id="path3984" style="opacity:.3;color:#000000" d="m-49.406 23c-2.539 0-4.594 2.084-4.594 4.656v42.688c0 2.572 2.055 4.656 4.594 4.656h34.812c2.539 0 4.594-2.084 4.594-4.656v-13.344l-6 7v3c0 1.108-0.892 2-2 2h-28c-1.108 0-2-0.892-2-2v-36c0-1.108 0.892-2 2-2h28c1.108 0 2 0.892 2 2v4l6 6v-13.344c0-2.572-2.055-4.656-4.594-4.656h-34.812zm80 0c-2.539 0-4.594 2.084-4.594 4.656v15.344h6v-12c0-1.108 0.892-2 2-2h28c1.108 0 2 0.892 2 2v36c0 1.108-0.892 2-2 2h-28c-1.108 0-2-0.892-2-2v-11h-6v14.344c0 2.572 2.055 4.656 4.594 4.656h34.812c2.539 0 4.594-2.084 4.594-4.656v-42.688c0-2.572-2.055-4.656-4.594-4.656h-34.812zm-48.594 14v8h-14v9h14v8l12-13-12-12zm54 0v8h-14v9h14v8l12-13-12-12z"/>
   <path id="rect2957" style="color:#000000;fill:url(#linearGradient3195-7)" d="m-49.406 22c-2.539 0-4.594 2.084-4.594 4.656v42.688c0 2.572 2.055 4.656 4.594 4.656h34.812c2.539 0 4.594-2.084 4.594-4.656v-13.344l-6 7v3c0 1.108-0.892 2-2 2h-28c-1.108 0-2-0.892-2-2v-36c0-1.108 0.892-2 2-2h28c1.108 0 2 0.892 2 2v4l6 6v-13.344c0-2.572-2.055-4.656-4.594-4.656h-34.812zm80 0c-2.539 0-4.594 2.084-4.594 4.656v15.344h6v-12c0-1.108 0.892-2 2-2h28c1.108 0 2 0.892 2 2v36c0 1.108-0.892 2-2 2h-28c-1.108 0-2-0.892-2-2v-11h-6v14.344c0 2.572 2.055 4.656 4.594 4.656h34.812c2.539 0 4.594-2.084 4.594-4.656v-42.688c0-2.572-2.055-4.656-4.594-4.656h-34.812zm-48.594 14v8h-14v9h14v8l12-13-12-12zm54 0v8h-14v9h14v8l12-13-12-12z"/>
   <path id="path3198" style="opacity:.75;color:#000000;fill:#fff" d="m-49.406 22c-2.539 0-4.594 2.084-4.594 4.656v1c0-2.572 2.055-4.656 4.594-4.656h34.812c2.539 0 4.594 2.084 4.594 4.656v-1c0-2.572-2.055-4.656-4.594-4.656h-34.812zm80 0c-2.539 0-4.594 2.084-4.594 4.656v1c0-2.572 2.055-4.656 4.594-4.656h34.812c2.539 0 4.594 2.084 4.594 4.656v-1c0-2.572-2.055-4.656-4.594-4.656h-34.812zm-48.594 14v1l11.531 11.531 0.469-0.531-12-12zm54 0v1l11.531 11.531 0.469-0.531-12-12zm-68 8v1h14v-1h-14zm54 0v1h14v-1h-14zm4 11v1h6v-1h-6zm-36 1-6 7v1l6-7v-1zm-38 10v1c0 1.108 0.892 2 2 2h28c1.108 0 2-0.892 2-2v-1c0 1.108-0.892 2-2 2h-28c-1.108 0-2-0.892-2-2zm80 0v1c0 1.108 0.892 2 2 2h28c1.108 0 2-0.892 2-2v-1c0 1.108-0.892 2-2 2h-28c-1.108 0-2-0.892-2-2z"/>
   <path id="path3975" style="opacity:.15;color:#000000" d="m-46 27c-1.108 0-2 0.892-2 2v1c0-1.108 0.892-2 2-2h28c1.108 0 2 0.892 2 2v-1c0-1.108-0.892-2-2-2h-28zm80 0c-1.108 0-2 0.892-2 2v1c0-1.108 0.892-2 2-2h28c1.108 0 2 0.892 2 2v-1c0-1.108-0.892-2-2-2h-28zm-50 6v1l6 6v-1l-6-6zm42 8v1h6v-1h-6zm-32.469 6.531-11.531 12.469v1l12-13-0.46875-0.46875zm54 0l-11.531 12.469v1l12-13-0.469-0.469zm-79.531 4.469v1h14v-1h-14zm54 0v1h14v-1h-14zm-76 16.344v1c0 2.572 2.055 4.656 4.594 4.656h34.812c2.539 0 4.594-2.084 4.594-4.656v-1c0 2.572-2.055 4.656-4.594 4.656h-34.812c-2.539 0-4.594-2.084-4.594-4.656zm80 0v1c0 2.572 2.055 4.656 4.594 4.656h34.812c2.539 0 4.594-2.084 4.594-4.656v-1c0 2.572-2.055 4.656-4.594 4.656h-34.812c-2.539 0-4.594-2.084-4.594-4.656z"/>
  </g>
  <rect id="rect3003" style="opacity:.15;fill:#fff" clip-path="url(#clipPath3009)" rx="25" ry="25" transform="translate(98 -.0000026172)" width="92" y="958.36" x="-96" height="92"/>
 </g>
</svg>
