<?xml version="1.0" encoding="UTF-8" standalone="no"?>
<!-- Created with Inkscape (http://www.inkscape.org/) -->
<svg id="svg11037" xmlns:rdf="http://www.w3.org/1999/02/22-rdf-syntax-ns#" xmlns="http://www.w3.org/2000/svg" height="96" width="96" version="1.1" xmlns:cc="http://creativecommons.org/ns#" xmlns:xlink="http://www.w3.org/1999/xlink" xmlns:dc="http://purl.org/dc/elements/1.1/">
 <defs id="defs11039">
  <clipPath id="clipPath3009" clipPathUnits="userSpaceOnUse">
   <path id="path3011" style="opacity:.15;fill:#fff" d="m-2 956.36h-96v33.562l96 25.687v-59.25z"/>
  </clipPath>
  <linearGradient id="linearGradient3181" x1="18.449" gradientUnits="userSpaceOnUse" y1="17.478" gradientTransform="matrix(2.4659 0 0 2.8992 10.507 21.327)" x2="18.449" y2=".92195">
   <stop id="stop4083-61" style="stop-color:#aaa" offset="0"/>
   <stop id="stop4085-3" style="stop-color:#f0f0f0" offset="1"/>
  </linearGradient>
 </defs>
 <metadata id="metadata11042">
  <rdf:RDF>
   <cc:Work rdf:about="">
    <dc:format>image/svg+xml</dc:format>
    <dc:type rdf:resource="http://purl.org/dc/dcmitype/StillImage"/>
    <dc:title/>
   </cc:Work>
  </rdf:RDF>
 </metadata>
 <g id="layer1" transform="translate(0 -956.36)">
  <rect id="rect3867" style="opacity:.6" rx="25" ry="25" height="92" width="92" y="958.36" x="2"/>
  <g id="g3053" transform="translate(0 956.36)">
   <path id="path3986" style="opacity:.3" transform="translate(0,1)" d="m33.344 24c-2.216 0-4 1.784-4 4v14.656h-1.3438c-2.216 0-4 1.784-4 4v13.344c0 2.216 1.784 4 4 4h1.3438v4c0 2.216 1.784 4 4 4h29.312c0.6281 0 1.2221-0.15039 1.75-0.40625l-4.875-4.9375h-23.531c-0.73867 0-1.3438-0.57383-1.3438-1.3125v-4h6.9375c-0.85-0.542-1.662-1.165-2.406-1.906-3.823-3.809-5.045-9.244-3.657-14.094h-0.875v-14.688c0-0.73867 0.60508-1.3125 1.3438-1.3125h24c0.73867 0 1.3438 0.57383 1.3438 1.3125v10.719c2.9726 4.4926 3.0887 10.299 0.4375 14.969 0.01474 0.16684 0.03977 0.32118 0.0625 0.46875 0.09179 0.000772 0.10692-0.002 0.21875 0 0.78271 0.01369 2.2541 0.20064 3.3125 1.3125 0.02179 0.02289 0.04107 0.03881 0.0625 0.0625l4.9688 5c0.969-0.728 1.593-1.875 1.593-3.187v-13.344c0-2.216-1.784-4-4-4h-1.3438v-14.656c0-2.216-1.784-4-4-4h-29.312zm4 10.656v2.6875h4.0625c2.397-1.5949 5.166-2.4062 7.9375-2.4062 2.7716 0 5.562 0.81023 7.9688 2.4062h1.4375v-2.6875h-21.406zm12 2.3438c-3.1629 0-6.3072 1.1911-8.7188 3.5938-4.823 4.8054-4.823 12.601 0 17.406 4.2046 4.1892 10.678 4.7711 15.469 1.6562 0.81426 0.04071 2.1272 0.12887 2.5938 0.65625 0.63531 0.71808-0.2809 2.4056 0.9375 3.5l7.593 7.688s1.4044 1.4939 3.5938-0.6875c2.189-2.181 0.687-3.593 0.687-3.593l-7.594-7.657c-1.0984-1.2139-2.7793-0.33578-3.5-0.96875-0.52932-0.46488-0.64666-1.7512-0.6875-2.5625 3.1263-4.7728 2.5796-11.248-1.625-15.438-2.412-2.402-5.587-3.593-8.75-3.593zm-12 3v1.4062c0.321-0.486 0.675-0.954 1.062-1.406h-1.0625zm12.062 1.0938c4.5472 0 8.2188 3.6882 8.2188 8.2188 0 4.5305-3.6716 8.2188-8.2188 8.2188-4.5472 0.000002-8.25-3.6882-8.25-8.2188 0.000001-2.2653 0.91523-4.3582 2.4062-5.8438s3.5702-2.375 5.8438-2.375zm-4.8125 4.25c-0.87053 1.0664-1.375 2.4691-1.375 3.9688 0 3.4152 2.7472 6.1563 6.1875 6.1562 3.4403 0 6.1562-2.7316 6.1562-6.1562 0-1.5146-0.54727-2.9016-1.4375-3.9688h-9.5312zm20.75 5.3125c0.736 0 1.3125 0.60775 1.3125 1.3438 0.000004 0.736-0.5765 1.3438-1.3125 1.3438s-1.344-0.608-1.344-1.344c0.000002-0.736 0.60775-1.3438 1.3438-1.3438z"/>
   <path id="Symbol" style="fill:url(#linearGradient3181)" d="m33.344 24c-2.216 0-4 1.784-4 4v14.656h-1.3438c-2.216 0-4 1.784-4 4v13.344c0 2.216 1.784 4 4 4h1.3438v4c0 2.216 1.784 4 4 4h29.312c0.6281 0 1.2221-0.15039 1.75-0.40625l-4.875-4.9375h-23.531c-0.73867 0-1.3438-0.57383-1.3438-1.3125v-4h6.9375c-0.85-0.542-1.662-1.165-2.406-1.906-3.823-3.809-5.045-9.244-3.657-14.094h-0.875v-14.688c0-0.73867 0.60508-1.3125 1.3438-1.3125h24c0.73867 0 1.3438 0.57383 1.3438 1.3125v10.719c2.9726 4.4926 3.0887 10.299 0.4375 14.969 0.01474 0.16684 0.03977 0.32118 0.0625 0.46875 0.09179 0.000772 0.10692-0.002 0.21875 0 0.78271 0.01369 2.2541 0.20064 3.3125 1.3125 0.02179 0.02289 0.04107 0.03881 0.0625 0.0625l4.9688 5c0.969-0.728 1.593-1.875 1.593-3.187v-13.344c0-2.216-1.784-4-4-4h-1.3438v-14.656c0-2.216-1.784-4-4-4h-29.312zm4 10.656v2.6875h4.0625c2.397-1.5949 5.166-2.4062 7.9375-2.4062 2.7716 0 5.562 0.81023 7.9688 2.4062h1.4375v-2.6875h-21.406zm12 2.3438c-3.1629 0-6.3072 1.1911-8.7188 3.5938-4.823 4.8054-4.823 12.601 0 17.406 4.2046 4.1892 10.678 4.7711 15.469 1.6562 0.81426 0.04071 2.1272 0.12887 2.5938 0.65625 0.63531 0.71808-0.2809 2.4056 0.9375 3.5l7.593 7.688s1.4044 1.4939 3.5938-0.6875c2.189-2.181 0.687-3.593 0.687-3.593l-7.594-7.657c-1.0984-1.2139-2.7793-0.33578-3.5-0.96875-0.52932-0.46488-0.64666-1.7512-0.6875-2.5625 3.1263-4.7728 2.5796-11.248-1.625-15.438-2.412-2.402-5.587-3.593-8.75-3.593zm-12 3v1.4062c0.321-0.486 0.675-0.954 1.062-1.406h-1.0625zm12.062 1.0938c4.5472 0 8.2188 3.6882 8.2188 8.2188 0 4.5305-3.6716 8.2188-8.2188 8.2188-4.5472 0.000002-8.25-3.6882-8.25-8.2188 0.000001-2.2653 0.91523-4.3582 2.4062-5.8438s3.5702-2.375 5.8438-2.375zm-4.8125 4.25c-0.87053 1.0664-1.375 2.4691-1.375 3.9688 0 3.4152 2.7472 6.1563 6.1875 6.1562 3.4403 0 6.1562-2.7316 6.1562-6.1562 0-1.5146-0.54727-2.9016-1.4375-3.9688h-9.5312zm20.75 5.3125c0.736 0 1.3125 0.60775 1.3125 1.3438 0.000004 0.736-0.5765 1.3438-1.3125 1.3438s-1.344-0.608-1.344-1.344c0.000002-0.736 0.60775-1.3438 1.3438-1.3438z"/>
   <path id="path3184" style="opacity:.75;fill:#fff" d="m33.344 24c-2.216 0-4 1.784-4 4v1c0-2.216 1.784-4 4-4h29.312c2.216 0 4 1.784 4 4v-1c0-2.216-1.784-4-4-4h-29.312zm4 10.656v1h7.5312c1.4534-0.48049 2.9535-0.71875 4.4688-0.71875s3.0392 0.23838 4.5 0.71875h4.9062v-1h-21.406zm12 2.3438c-3.1629 0-6.3072 1.1911-8.7188 3.5938-2.5385 2.5292-3.7274 5.8736-3.5938 9.1875 0.12336-2.9778 1.3126-5.9148 3.5938-8.1875 2.412-2.403 5.556-3.594 8.719-3.594 3.1629 0 6.3385 1.1911 8.75 3.5938 2.2773 2.269 3.465 5.2109 3.5938 8.1875 0.12476-3.3103-1.0613-6.6644-3.5938-9.1875-2.412-2.403-5.587-3.594-8.75-3.594zm-12 3v1h0.28125c0.24391-0.34173 0.50318-0.67534 0.78125-1h-1.0625zm-9.344 2.656c-2.216 0-4 1.784-4 4v1c0-2.216 1.784-4 4-4h1.3438v-1h-1.3438zm38.656 0v1h1.3438c2.216 0 4 1.784 4 4v-1c0-2.216-1.784-4-4-4h-1.3438zm-32 2.6875v1h0.625c0.0709-0.33905 0.1543-0.66579 0.25-1h-0.875zm9.9375 0c-0.87053 1.0664-1.375 2.4691-1.375 3.9688 0 0.21345 0.01029 0.41732 0.03125 0.625 0.07812-1.3543 0.54782-2.6187 1.3438-3.5938h9.5312c0.77895 0.93376 1.2893 2.1115 1.4062 3.4062 0.01025-0.14716 0.03125-0.28751 0.03125-0.4375 0-1.5146-0.54727-2.9016-1.4375-3.9688h-9.5312zm-9.594 4.375c-0.15728 3.8662 1.2331 7.7752 4.1875 10.719 0.32979 0.32858 0.67754 0.62106 1.0312 0.90625h1.375c-0.85-0.542-1.662-1.165-2.406-1.906-2.7-2.69-4.086-6.186-4.188-9.719zm28.656 0.0625c-0.09307 2.2729-0.71509 4.5194-1.875 6.5625 0.01474 0.16684 0.03977 0.32118 0.0625 0.46875 0.09179 0.000772 0.10692-0.002 0.21875 0 1.1284-2.1964 1.6577-4.631 1.5938-7.0312zm-22.468 0.03c-0.0099 0.16588-0.03125 0.33204-0.03125 0.5 0 4.5305 3.7028 8.2188 8.25 8.2188s8.2188-3.6882 8.2188-8.2188c0-0.16796-0.0213-0.3345-0.03125-0.5-0.25843 4.2987-3.8089 7.7188-8.1875 7.7188-4.3786 0.000002-7.9582-3.4201-8.2188-7.7188zm22.906 2.7188c-0.054 0.145-0.094 0.307-0.094 0.469 0 0.736 0.60775 1.3438 1.3438 1.3438 0.736 0 1.3125-0.60775 1.3125-1.3438 0-0.16235-0.04212-0.32402-0.09375-0.46875-0.19664 0.48143-0.66675 0.8125-1.2188 0.8125-0.552 0-1.0446-0.33107-1.25-0.8125zm-4.282 4.344c-0.03303 0.05214-0.05986 0.10451-0.09375 0.15625 0.04084 0.81128 0.15818 2.0976 0.6875 2.5625 0.72072 0.63298 2.4016-0.24519 3.5 0.96875l7.594 7.656s0.29954 0.28258 0.4375 0.78125c0.246-1.106-0.438-1.781-0.438-1.781l-7.594-7.657c-1.0984-1.2139-2.7793-0.33578-3.5-0.96875-0.368-0.322-0.511-1.036-0.594-1.718zm-25.156 8.4688v1c0 0.73867 0.60508 1.3125 1.3438 1.3125h23.531l4.1562 4.2188c0.24817-0.06739 0.49237-0.17153 0.71875-0.28125l-4.875-4.9375h-23.531c-0.73867 0-1.3438-0.57383-1.3438-1.3125z"/>
   <path id="path3973" style="opacity:.15" d="m36 28.344c-0.73867 0-1.3438 0.57383-1.3438 1.3125v1c0-0.73867 0.60508-1.3125 1.3438-1.3125h24c0.73867 0 1.3438 0.57383 1.3438 1.3125v-1c0-0.73867-0.60508-1.3125-1.3438-1.3125h-24zm8.875 6.3125c-1.205 0.39836-2.3822 0.96456-3.4688 1.6875h-4.0625v1h4.0625c2.397-1.5949 5.166-2.4062 7.9375-2.4062 2.7716 0 5.562 0.81023 7.9688 2.4062h1.4375v-1h-1.4375c-1.0909-0.72344-2.2577-1.2892-3.4688-1.6875h-8.9688zm-7.25 5.344c-0.09587 0.13432-0.19047 0.26902-0.28125 0.40625v1c0.321-0.486 0.675-0.954 1.062-1.406h-0.781zm11.781 0.09375c-2.2736 0-4.3527 0.88944-5.8438 2.375-1.491 1.4856-2.4062 3.5785-2.4062 5.8438 0 0.16796 0.02122 0.3345 0.03125 0.5 0.12393-2.0714 0.99453-3.9683 2.375-5.3438 1.491-1.4856 3.5702-2.375 5.8438-2.375 4.3786 0 7.9291 3.4201 8.1875 7.7188 0.0099-0.1655 0.03125-0.33204 0.03125-0.5 0-4.5305-3.6716-8.2188-8.2188-8.2188zm11.938 0.28125v1c1.4863 2.2463 2.2433 4.8094 2.3125 7.4062 0.11966-2.9223-0.64041-5.8791-2.3125-8.4062zm-26.062 4.9688c-0.23135 1.1064-0.31376 2.25-0.28125 3.375 0.0462-1.1356 0.21595-2.2738 0.53125-3.375h-0.25zm1.75 3.4375c-0.138 3.318 1.051 6.685 3.593 9.218 4.2046 4.1892 10.678 4.7711 15.469 1.6562 0.81426 0.04071 2.1272 0.12887 2.5938 0.65625 0.13951 0.15769 0.22109 0.35911 0.25 0.59375-0.0027-0.64844 0.06765-1.2347-0.25-1.5938-0.467-0.527-1.78-0.615-2.594-0.656-4.791 3.115-11.264 2.533-15.469-1.656-2.285-2.276-3.473-5.236-3.594-8.219zm24.656 0c-0.08238 2.1859-0.72538 4.3518-1.9688 6.25 0.01245 0.2473 0.05758 0.54488 0.09375 0.84375 1.3635-2.1523 1.9814-4.6343 1.875-7.0938zm-18.438 0.156c-0.0073 0.12694-0.03125 0.24648-0.03125 0.375 0 3.4152 2.7472 6.1563 6.1875 6.1562 3.4403 0 6.1562-2.7316 6.1562-6.1562 0-0.12641-0.02374-0.25048-0.03125-0.375-0.31098 3.1219-2.8997 5.5312-6.125 5.5312-3.2253 0.000002-5.8418-2.4161-6.1562-5.5312zm22.094 0.71875c-0.736-0.001-1.344 0.607-1.344 1.343 0 0.16235 0.03975 0.32402 0.09375 0.46875 0.20543-0.48143 0.698-0.8125 1.25-0.8125s1.0221 0.33107 1.2188 0.8125c0.05163-0.14472 0.09375-0.3064 0.09375-0.46875 0-0.736-0.5765-1.3438-1.3125-1.3438zm-3.282 6.155c-0.09241 0.17987-0.18091 0.35451-0.28125 0.53125 0.01474 0.16684 0.03977 0.32118 0.0625 0.46875 0.09179 0.000772 0.10692-0.002 0.21875 0 0.78271 0.01369 2.2541 0.20064 3.3125 1.3125 0.02179 0.02289 0.04107 0.03881 0.0625 0.0625l4.9688 5c0.97-0.728 1.594-1.875 1.594-3.187v-1c0 1.3117-0.62398 2.4589-1.5938 3.1875l-4.9688-5c-0.021-0.024-0.04-0.04-0.062-0.063-1.058-1.112-2.53-1.299-3.313-1.313zm-38.062 3.188v1c0 2.216 1.784 4 4 4h1.3438v-1h-1.344c-2.216 0-4-1.784-4-4zm10.656 1.3438v1h6.9375c-0.4735-0.30189-0.93034-0.64149-1.375-1h-5.5625zm24.282 0.656c0.06745 0.82885-0.2263 1.9917 0.6875 2.8125l7.593 7.688s1.4044 1.4939 3.5938-0.6875c1.2192-1.2148 1.2984-2.1858 1.125-2.8125-0.11563 0.51858-0.42633 1.1164-1.125 1.8125-2.19 2.182-3.594 0.688-3.594 0.688l-7.594-7.688c-0.581-0.521-0.678-1.19-0.687-1.812zm-29.594 6v1c0 2.216 1.784 4 4 4h29.312c0.6281 0 1.2221-0.15039 1.75-0.40625l-0.718-0.719c-0.331 0.09-0.673 0.125-1.032 0.125h-29.312c-2.216 0-4-1.784-4-4z"/>
  </g>
  <rect id="rect3003" style="opacity:.15;fill:#fff" clip-path="url(#clipPath3009)" rx="25" ry="25" transform="translate(98 -.0000026172)" width="92" y="958.36" x="-96" height="92"/>
 </g>
</svg>
