<?xml version="1.0" encoding="UTF-8" standalone="no"?>
<!-- Created with Inkscape (http://www.inkscape.org/) -->
<svg id="svg11037" xmlns:rdf="http://www.w3.org/1999/02/22-rdf-syntax-ns#" xmlns="http://www.w3.org/2000/svg" height="96" width="96" version="1.1" xmlns:cc="http://creativecommons.org/ns#" xmlns:xlink="http://www.w3.org/1999/xlink" xmlns:dc="http://purl.org/dc/elements/1.1/">
 <defs id="defs11039">
  <clipPath id="clipPath3009" clipPathUnits="userSpaceOnUse">
   <path id="path3011" style="opacity:.15;fill:#fff" d="m-2 956.36h-96v33.562l96 25.687v-59.25z"/>
  </clipPath>
  <linearGradient id="linearGradient3762" y2="21.914" gradientUnits="userSpaceOnUse" y1="74" x2="48" x1="48">
   <stop id="stop4083-2" style="stop-color:#aaa" offset="0"/>
   <stop id="stop4085-4" style="stop-color:#f0f0f0" offset="1"/>
  </linearGradient>
 </defs>
 <metadata id="metadata11042">
  <rdf:RDF>
   <cc:Work rdf:about="">
    <dc:format>image/svg+xml</dc:format>
    <dc:type rdf:resource="http://purl.org/dc/dcmitype/StillImage"/>
    <dc:title/>
   </cc:Work>
  </rdf:RDF>
 </metadata>
 <g id="layer1" transform="translate(0 -956.36)">
  <rect id="rect3867" style="opacity:.6" rx="25" ry="25" height="92" width="92" y="958.36" x="2"/>
  <g id="g3060" transform="translate(0 956.36)">
   <path id="path3965" style="opacity:.3;color:#000000" d="m30.594 23c-2.539 0-4.594 2.084-4.594 4.656v42.688c0 2.572 2.055 4.656 4.594 4.656h34.812c2.539 0 4.594-2.084 4.594-4.656v-42.688c0-2.572-2.055-4.656-4.594-4.656h-34.812zm3.406 6h28c1.108 0 2 0.892 2 2v36c0 1.108-0.892 2-2 2h-28c-1.108 0-2-0.892-2-2v-36c0-1.108 0.892-2 2-2zm2 4v32h24l-24-32zm4 12 12 16h-12v-16z"/>
   <path id="rect2957" style="color:#000000;fill:url(#linearGradient3762)" d="m30.594 22c-2.539 0-4.594 2.084-4.594 4.656v42.688c0 2.572 2.055 4.656 4.594 4.656h34.812c2.539 0 4.594-2.084 4.594-4.656v-42.688c0-2.572-2.055-4.656-4.594-4.656h-34.812zm3.406 6h28c1.108 0 2 0.892 2 2v36c0 1.108-0.892 2-2 2h-28c-1.108 0-2-0.892-2-2v-36c0-1.108 0.892-2 2-2zm2 4v32h24l-24-32zm4 12 12 16h-12v-16z"/>
   <path id="path3947" style="opacity:.75;color:#000000;fill:#fff" d="m30.594 22c-2.539 0-4.594 2.084-4.594 4.656v1c0-2.572 2.055-4.656 4.594-4.656h34.812c2.539 0 4.594 2.084 4.594 4.656v-1c0-2.572-2.055-4.656-4.594-4.656h-34.812zm5.406 10v1l23.25 31h0.75l-24-32zm4 28v1h12l-0.75-1h-11.25zm-8 6v1c0 1.108 0.892 2 2 2h28c1.108 0 2-0.892 2-2v-1c0 1.108-0.892 2-2 2h-28c-1.108 0-2-0.892-2-2z"/>
   <path id="path3956" style="opacity:.15;color:#000000" d="m34 27c-1.108 0-2 0.892-2 2v1c0-1.108 0.892-2 2-2h28c1.108 0 2 0.892 2 2v-1c0-1.108-0.892-2-2-2h-28zm6 16v1l11.25 15h0.75l-12-16zm-4 20v1h24l-0.75-1h-23.25zm-10 5.3438v1c0 2.572 2.055 4.656 4.594 4.656h34.812c2.539 0 4.594-2.084 4.594-4.656v-1c0 2.572-2.055 4.656-4.594 4.656h-34.812c-2.539 0-4.594-2.084-4.594-4.656z"/>
  </g>
  <rect id="rect3003" style="opacity:.15;fill:#fff" clip-path="url(#clipPath3009)" rx="25" ry="25" transform="translate(98 -.0000026172)" width="92" y="958.36" x="-96" height="92"/>
 </g>
</svg>
