<?xml version="1.0" encoding="UTF-8" standalone="no"?>
<!-- Created with Inkscape (http://www.inkscape.org/) -->
<svg id="svg11037" xmlns:rdf="http://www.w3.org/1999/02/22-rdf-syntax-ns#" xmlns="http://www.w3.org/2000/svg" height="96" width="96" version="1.1" xmlns:cc="http://creativecommons.org/ns#" xmlns:xlink="http://www.w3.org/1999/xlink" xmlns:dc="http://purl.org/dc/elements/1.1/">
 <defs id="defs11039">
  <clipPath id="clipPath3009" clipPathUnits="userSpaceOnUse">
   <path id="path3011" style="opacity:.15;fill:#fff" d="m-2 956.36h-96v33.562l96 25.687v-59.25z"/>
  </clipPath>
  <linearGradient id="linearGradient3879" y2="76" gradientUnits="userSpaceOnUse" y1="24" x2="45" x1="45">
   <stop id="stop3639-56" style="stop-color:#f0f0f0" offset="0"/>
   <stop id="stop3641-32" style="stop-color:#aaa" offset="1"/>
  </linearGradient>
 </defs>
 <metadata id="metadata11042">
  <rdf:RDF>
   <cc:Work rdf:about="">
    <dc:format>image/svg+xml</dc:format>
    <dc:type rdf:resource="http://purl.org/dc/dcmitype/StillImage"/>
    <dc:title/>
   </cc:Work>
  </rdf:RDF>
 </metadata>
 <g id="layer1" transform="translate(0 -956.36)">
  <rect id="rect3867" style="opacity:.6" rx="25" ry="25" height="92" width="92" y="958.36" x="2"/>
  <g id="g3070" transform="translate(0 956.36)">
   <path id="path3908" style="opacity:.3;color:#000000" d="m33.5 25c-1.939 0-3.5 1.561-3.5 3.5v22.5h6v-18c0-1.108 0.892-2 2-2h20c1.108 0 2 0.892 2 2v28c0 1.108-0.892 2-2 2h-10v6h14.5c1.939 0 3.5-1.561 3.5-3.5v-37c0-1.939-1.561-3.5-3.5-3.5h-29zm-3.5 28v8h-8v8h8v8h8v-8h8v-8h-8v-8h-8z"/>
   <path id="rect3083" style="color:#000000;fill:url(#linearGradient3879)" d="m33.5 24c-1.939 0-3.5 1.561-3.5 3.5v22.5h6v-18c0-1.108 0.892-2 2-2h20c1.108 0 2 0.892 2 2v28c0 1.108-0.892 2-2 2h-10v6h14.5c1.939 0 3.5-1.561 3.5-3.5v-37c0-1.939-1.561-3.5-3.5-3.5h-29zm-3.5 28v8h-8v8h8v8h8v-8h8v-8h-8v-8h-8z"/>
   <path id="path3881" style="opacity:.75;color:#000000;fill:#fff" d="m33.5 24c-1.939 0-3.5 1.561-3.5 3.5v1c0-1.939 1.561-3.5 3.5-3.5h29c1.939 0 3.5 1.561 3.5 3.5v-1c0-1.939-1.561-3.5-3.5-3.5h-29zm-3.5 28v1h8v-1h-8zm-8 8v1h8v-1h-8zm16 0v1h8v-1h-8zm22 0c0 1.108-0.892 2-2 2h-10v1h10c1.108 0 2-0.892 2-2v-1z"/>
   <path id="path3890" style="opacity:.15;color:#000000" d="m38 29c-1.108 0-2 0.892-2 2v1c0-1.108 0.892-2 2-2h20c1.108 0 2 0.892 2 2v-1c0-1.108-0.892-2-2-2h-20zm-8 20v1h6v-1h-6zm36 14.5c0 1.939-1.561 3.5-3.5 3.5h-14.5v1h14.5c1.939 0 3.5-1.561 3.5-3.5v-1zm-44 3.5v1h8v-1h-8zm16 0v1h8v-1h-8zm-8 8v1h8v-1h-8z"/>
  </g>
  <rect id="rect3003" style="opacity:.15;fill:#fff" clip-path="url(#clipPath3009)" rx="25" ry="25" transform="translate(98 -.0000026172)" width="92" y="958.36" x="-96" height="92"/>
 </g>
</svg>
