<?xml version="1.0" encoding="UTF-8" standalone="no"?>
<!-- Created with Inkscape (http://www.inkscape.org/) -->
<svg id="svg11037" xmlns:rdf="http://www.w3.org/1999/02/22-rdf-syntax-ns#" xmlns="http://www.w3.org/2000/svg" height="96" width="96" version="1.1" xmlns:cc="http://creativecommons.org/ns#" xmlns:xlink="http://www.w3.org/1999/xlink" xmlns:dc="http://purl.org/dc/elements/1.1/">
 <defs id="defs11039">
  <clipPath id="clipPath3009" clipPathUnits="userSpaceOnUse">
   <path id="path3011" style="opacity:.15;fill:#fff" d="m-2 956.36h-96v33.562l96 25.687v-59.25z"/>
  </clipPath>
  <linearGradient id="linearGradient3161" y2="23.99" gradientUnits="userSpaceOnUse" y1="74" x2="48" x1="48">
   <stop id="stop4083-7" style="stop-color:#aaa" offset="0"/>
   <stop id="stop4085-7" style="stop-color:#f0f0f0" offset="1"/>
  </linearGradient>
 </defs>
 <metadata id="metadata11042">
  <rdf:RDF>
   <cc:Work rdf:about="">
    <dc:format>image/svg+xml</dc:format>
    <dc:type rdf:resource="http://purl.org/dc/dcmitype/StillImage"/>
    <dc:title/>
   </cc:Work>
  </rdf:RDF>
 </metadata>
 <g id="layer1" transform="translate(0 -956.36)">
  <rect id="rect3867" style="opacity:.6" rx="25" ry="25" height="92" width="92" y="958.36" x="2"/>
  <g id="g3065" transform="translate(0 956.36)">
   <path id="path3950" style="opacity:.3;color:#000000" d="m29 25c-1.662 0-3.3259 1.3703-3 3v5h44c0-2.216-1.784-4-4-4h-23v-1c0-1.662-1.338-3-3-3h-11zm-1 10c-2.216 0-4 1.784-4 4v24c0 2.216 1.784 4 4 4h9v4c0 2.216 1.784 4 4 4h22c2.216 0 4-1.784 4-4v-4h1c2.216 0 4-1.784 4-4v-24c0-2.216-1.5909-4-4-4h-40zm16.5 8h15c0.831 0 1.5 0.669 1.5 1.5v23c0 0.831-0.669 1.5-1.5 1.5h-15c-0.831 0-1.5-0.669-1.5-1.5v-23c0-0.831 0.669-1.5 1.5-1.5z"/>
   <path id="path3153" style="color:#000000;fill:url(#linearGradient3161)" d="m29 24c-1.662 0-3.3259 1.3703-3 3v5h44c0-2.216-1.784-4-4-4h-23v-1c0-1.662-1.338-3-3-3h-11zm-1 10c-2.216 0-4 1.784-4 4v24c0 2.216 1.784 4 4 4h9v4c0 2.216 1.784 4 4 4h22c2.216 0 4-1.784 4-4v-4h1c2.216 0 4-1.784 4-4v-24c0-2.216-1.5909-4-4-4h-40zm16.5 8h15c0.831 0 1.5 0.669 1.5 1.5v23c0 0.831-0.669 1.5-1.5 1.5h-15c-0.831 0-1.5-0.669-1.5-1.5v-23c0-0.831 0.669-1.5 1.5-1.5z"/>
   <path id="path3164" style="opacity:.75;color:#000000;fill:#fff" d="m29 24c-1.662 0-3.3259 1.3703-3 3v0.25c0.217-1.276 1.603-2.25 3-2.25h11c1.662 0 3 1.338 3 3v-1c0-1.662-1.338-3-3-3h-11zm14 4v1h23c1.869 0 3.4005 1.2731 3.8438 3h0.156c0-2.216-1.784-4-4-4h-23zm-15 6c-2.216 0-4 1.784-4 4v1c0-2.216 1.784-4 4-4h40c2.4091 0 4 1.784 4 4v-1c0-2.216-1.5909-4-4-4h-40zm15 32.5v1c0 0.831 0.669 1.5 1.5 1.5h15c0.831 0 1.5-0.669 1.5-1.5v-1c0 0.831-0.669 1.5-1.5 1.5h-15c-0.831 0-1.5-0.669-1.5-1.5z"/>
   <path id="path3173" style="opacity:.15;color:#000000" d="m26 26.25c-0.04122 0.24231-0.05201 0.48996 0 0.75v-0.75zm0 4.75v1h44c0-0.34703-0.07394-0.67936-0.15625-1h-43.844zm18.5 10c-0.831 0-1.5 0.669-1.5 1.5v1c0-0.831 0.669-1.5 1.5-1.5h15c0.831 0 1.5 0.669 1.5 1.5v-1c0-0.831-0.669-1.5-1.5-1.5h-15zm-20.5 20v1c0 2.216 1.784 4 4 4h9v-1h-9c-2.216 0-4-1.784-4-4zm48 0c0 2.216-1.784 4-4 4h-1v1h1c2.216 0 4-1.784 4-4v-1zm-35 8v1c0 2.216 1.784 4 4 4h22c2.216 0 4-1.784 4-4v-1c0 2.216-1.784 4-4 4h-22c-2.216 0-4-1.784-4-4z"/>
  </g>
  <rect id="rect3003" style="opacity:.15;fill:#fff" clip-path="url(#clipPath3009)" rx="25" ry="25" transform="translate(98 -.0000026172)" width="92" y="958.36" x="-96" height="92"/>
 </g>
</svg>
