<?xml version="1.0" encoding="UTF-8" standalone="no"?>
<!-- Created with Inkscape (http://www.inkscape.org/) -->
<svg id="svg11037" xmlns:rdf="http://www.w3.org/1999/02/22-rdf-syntax-ns#" xmlns="http://www.w3.org/2000/svg" height="96" width="96" version="1.1" xmlns:cc="http://creativecommons.org/ns#" xmlns:xlink="http://www.w3.org/1999/xlink" xmlns:dc="http://purl.org/dc/elements/1.1/">
 <defs id="defs11039">
  <clipPath id="clipPath3009" clipPathUnits="userSpaceOnUse">
   <path id="path3011" style="opacity:.15;fill:#fff" d="m-2 956.36h-96v33.562l96 25.687v-59.25z"/>
  </clipPath>
  <linearGradient id="linearGradient3100" x1="45" gradientUnits="userSpaceOnUse" y1="24" gradientTransform="translate(8,2)" x2="45" y2="76">
   <stop id="stop3639-7" style="stop-color:#f0f0f0" offset="0"/>
   <stop id="stop3641-88" style="stop-color:#aaa" offset="1"/>
  </linearGradient>
 </defs>
 <metadata id="metadata11042">
  <rdf:RDF>
   <cc:Work rdf:about="">
    <dc:format>image/svg+xml</dc:format>
    <dc:type rdf:resource="http://purl.org/dc/dcmitype/StillImage"/>
    <dc:title/>
   </cc:Work>
  </rdf:RDF>
 </metadata>
 <g id="layer1" transform="translate(0 -956.36)">
  <rect id="rect3867" style="opacity:.6" rx="25" ry="25" height="92" width="92" y="958.36" x="2"/>
  <g id="g3070" transform="translate(0 956.36)">
   <path id="path3896" style="opacity:.3;color:#000000" d="m41.5 27c-1.939 0-3.5 1.561-3.5 3.5v37c0 1.939 1.561 3.5 3.5 3.5h29c1.939 0 3.5-1.561 3.5-3.5v-37c0-1.939-1.561-3.5-3.5-3.5zm4.5 6h20c1.108 0 2 0.892 2 2v28c0 1.108-0.892 2-2 2h-20c-1.108 0-2-0.892-2-2v-28c0-1.108 0.892-2 2-2zm-18 6v4h6v-4zm-10 10v4h16v-4zm6 10v4h10v-4z"/>
   <path id="rect3083" style="color:#000000;fill:url(#linearGradient3100)" d="m41.5 26c-1.939 0-3.5 1.561-3.5 3.5v37c0 1.939 1.561 3.5 3.5 3.5h29c1.939 0 3.5-1.561 3.5-3.5v-37c0-1.939-1.561-3.5-3.5-3.5zm4.5 6h20c1.108 0 2 0.892 2 2v28c0 1.108-0.892 2-2 2h-20c-1.108 0-2-0.892-2-2v-28c0-1.108 0.892-2 2-2zm-18 6v4h6v-4zm-10 10v4h16v-4zm6 10v4h10v-4z"/>
   <path id="path3110" style="opacity:.75;color:#000000;fill:#fff" d="m41.5 26c-1.939 0-3.5 1.561-3.5 3.5v1c0-1.939 1.561-3.5 3.5-3.5h29c1.939 0 3.5 1.561 3.5 3.5v-1c0-1.939-1.561-3.5-3.5-3.5h-29zm-13.5 12v1h6v-1h-6zm-10 10v1h16v-1h-16zm6 10v1h10v-1h-10zm20 4v1c0 1.108 0.892 2 2 2h20c1.108 0 2-0.892 2-2v-1c0 1.108-0.892 2-2 2h-20c-1.108 0-2-0.892-2-2z"/>
   <path id="path3887" style="opacity:.15;color:#000000" d="m46 31c-1.108 0-2 0.892-2 2v1c0-1.108 0.892-2 2-2h20c1.108 0 2 0.892 2 2v-1c0-1.108-0.892-2-2-2h-20zm-18 10v1h6v-1h-6zm-10 10v1h16v-1h-16zm6 10v1h10v-1h-10zm14 4.5v1c0 1.939 1.561 3.5 3.5 3.5h29c1.939 0 3.5-1.561 3.5-3.5v-1c0 1.939-1.561 3.5-3.5 3.5h-29c-1.939 0-3.5-1.561-3.5-3.5z"/>
  </g>
  <rect id="rect3003" style="opacity:.15;fill:#fff" clip-path="url(#clipPath3009)" rx="25" ry="25" transform="translate(98 -.0000026172)" width="92" y="958.36" x="-96" height="92"/>
 </g>
</svg>
