<?xml version="1.0" encoding="UTF-8" standalone="no"?>
<!-- Created with Inkscape (http://www.inkscape.org/) -->
<svg id="svg11037" xmlns:rdf="http://www.w3.org/1999/02/22-rdf-syntax-ns#" xmlns="http://www.w3.org/2000/svg" height="96" width="96" version="1.1" xmlns:cc="http://creativecommons.org/ns#" xmlns:xlink="http://www.w3.org/1999/xlink" xmlns:dc="http://purl.org/dc/elements/1.1/">
 <defs id="defs11039">
  <clipPath id="clipPath3009" clipPathUnits="userSpaceOnUse">
   <path id="path3011" style="opacity:.15;fill:#fff" d="m-2 956.36h-96v33.562l96 25.687v-59.25z"/>
  </clipPath>
  <linearGradient id="linearGradient2869" x1="18.449" gradientUnits="userSpaceOnUse" y1="17.478" gradientTransform="matrix(2.4659 0 0 2.8992 10.507 21.327)" x2="18.449" y2=".92195">
   <stop id="stop4083-3" style="stop-color:#aaa" offset="0"/>
   <stop id="stop4085-6" style="stop-color:#f0f0f0" offset="1"/>
  </linearGradient>
 </defs>
 <metadata id="metadata11042">
  <rdf:RDF>
   <cc:Work rdf:about="">
    <dc:format>image/svg+xml</dc:format>
    <dc:type rdf:resource="http://purl.org/dc/dcmitype/StillImage"/>
    <dc:title/>
   </cc:Work>
  </rdf:RDF>
 </metadata>
 <g id="layer1" transform="translate(0 -956.36)">
  <rect id="rect3867" style="opacity:.6" rx="25" ry="25" height="92" width="92" y="958.36" x="2"/>
  <g id="g3053" transform="translate(0 956.36)">
   <path id="path3738" style="opacity:.3" d="m33.333 25c-2.216 0-4 1.784-4 4v14.667h-1.3333c-2.216 0-4 1.784-4 4v13.333c0 2.216 1.784 4 4 4h1.3333v4c0 2.216 1.784 4 4 4h29.333c2.216 0 4-1.784 4-4v-4h1.334c2.216 0 4-1.784 4-4v-13.333c0-2.216-1.784-4-4-4h-1.3333v-14.667c0-2.216-1.784-4-4-4h-29.334zm2.667 5.333h24c0.73867 0 1.3333 0.59467 1.3333 1.3333v14.667h-26.667v-14.667c0-0.73867 0.59467-1.3333 1.3333-1.3333zm1.3333 5.3333v2.6667h21.417v-2.6667h-21.417zm0 5.3333v2.6667h16v-2.6667h-16zm22.667 10.668c0.736 0 1.3333 0.59733 1.3333 1.3333 0 0.736-0.597 1.333-1.333 1.333s-1.333-0.597-1.333-1.333 0.597-1.333 1.333-1.333zm5.3333 0c0.736 0 1.3333 0.59733 1.3333 1.3333 0.000004 0.736-0.59733 1.3333-1.3333 1.3333-0.736-0.001-1.333-0.598-1.333-1.334 0.000002-0.736 0.59733-1.3333 1.3333-1.3333zm-30.667 10.667h26.667v4c0 0.73867-0.59467 1.3333-1.3333 1.3333h-24c-0.73867 0-1.3333-0.59467-1.3333-1.3333v-4z"/>
   <path id="Symbol" style="fill:url(#linearGradient2869)" d="m33.333 24c-2.216 0-4 1.784-4 4v14.667h-1.3333c-2.216 0-4 1.784-4 4v13.333c0 2.216 1.784 4 4 4h1.3333v4c0 2.216 1.784 4 4 4h29.333c2.216 0 4-1.784 4-4v-4h1.334c2.216 0 4-1.784 4-4v-13.333c0-2.216-1.784-4-4-4h-1.3333v-14.667c0-2.216-1.784-4-4-4h-29.334zm2.667 5.333h24c0.73867 0 1.3333 0.59467 1.3333 1.3333v14.667h-26.667v-14.667c0-0.73867 0.59467-1.3333 1.3333-1.3333zm1.3333 5.3333v2.6667h21.417v-2.6667h-21.417zm0 5.3333v2.6667h16v-2.6667h-16zm22.667 10.668c0.736 0 1.3333 0.59733 1.3333 1.3333 0 0.736-0.597 1.333-1.333 1.333s-1.333-0.597-1.333-1.333 0.597-1.333 1.333-1.333zm5.3333 0c0.736 0 1.3333 0.59733 1.3333 1.3333 0.000004 0.736-0.59733 1.3333-1.3333 1.3333-0.736-0.001-1.333-0.598-1.333-1.334 0.000002-0.736 0.59733-1.3333 1.3333-1.3333zm-30.667 10.667h26.667v4c0 0.73867-0.59467 1.3333-1.3333 1.3333h-24c-0.73867 0-1.3333-0.59467-1.3333-1.3333v-4z"/>
   <path id="path3719" style="opacity:.75;fill:#fff" d="m33.344 24c-2.216 0-4 1.784-4 4v1c0-2.216 1.784-4 4-4h29.312c2.216 0 4 1.784 4 4v-1c0-2.216-1.784-4-4-4h-29.312zm4 10.656v1h21.406v-1h-21.406zm0 5.3438v1h16v-1h-16zm-9.344 2.656c-2.216 0-4 1.784-4 4v1c0-2.216 1.784-4 4-4h1.3438v-1h-1.3438zm38.656 0v1h1.3438c2.216 0 4 1.784 4 4v-1c0-2.216-1.784-4-4-4h-1.3438zm-32 2.6875v1h26.688v-1h-26.688zm24.125 7.156c-0.06066 0.15238-0.125 0.32608-0.125 0.5 0 0.736 0.60775 1.3438 1.3438 1.3438 0.736 0 1.3438-0.60775 1.3438-1.3438 0-0.17392-0.06434-0.34762-0.125-0.5-0.19603 0.49248-0.65667 0.84375-1.2188 0.84375-0.56208 0-1.0227-0.35128-1.2188-0.84375zm5.3125 0.03125c-0.053 0.144-0.094 0.307-0.094 0.469 0 0.736 0.60775 1.3438 1.3438 1.3438 0.736 0 1.3125-0.60775 1.3125-1.3438 0-0.16235-0.04054-0.32482-0.09375-0.46875-0.2025 0.4785-0.66675 0.8125-1.2188 0.8125-0.552 0-1.0475-0.334-1.25-0.8125zm-29.438 12.812v1c0 0.73867 0.60508 1.3125 1.3438 1.3125h24c0.73867 0 1.3438-0.57383 1.3438-1.3125v-1c0 0.73867-0.60508 1.3125-1.3438 1.3125h-24c-0.73867 0-1.3438-0.57383-1.3438-1.3125z"/>
   <path id="path3729" style="opacity:.15" d="m36 28.344c-0.73867 0-1.3438 0.57383-1.3438 1.3125v1c0-0.73867 0.60508-1.3125 1.3438-1.3125h24c0.73867 0 1.3438 0.57383 1.3438 1.3125v-1c0-0.73867-0.60508-1.3125-1.3438-1.3125h-24zm1.3438 8v1h21.406v-1h-21.406zm0 5.3125v1h16v-1h-16zm22.656 8c-0.736 0-1.3438 0.60775-1.3438 1.3438 0 0.17392 0.06434 0.34762 0.125 0.5 0.19603-0.49248 0.65667-0.84375 1.2188-0.84375 0.56208 0 1.0227 0.35128 1.2188 0.84375 0.06066-0.15238 0.125-0.32608 0.125-0.5 0-0.736-0.60775-1.3438-1.3438-1.3438zm5.3438 0c-0.736 0-1.344 0.608-1.344 1.344 0 0.16235 0.04054 0.32482 0.09375 0.46875 0.2025-0.4785 0.698-0.8125 1.25-0.8125s1.0163 0.334 1.2188 0.8125c0.05321-0.14394 0.09375-0.3064 0.09375-0.46875 0-0.736-0.5765-1.3438-1.3125-1.3438zm-41.344 9.344v1c0 2.216 1.784 4 4 4h1.3438v-1h-1.344c-2.216 0-4-1.784-4-4zm48 0c0 2.216-1.784 4-4 4h-1.3438v1h1.344c2.216 0 4-1.784 4-4v-1zm-37.344 1.3438v1h26.688v-1h-26.688zm-5.312 6.656v1c0 2.216 1.784 4 4 4h29.312c2.216 0 4-1.784 4-4v-1c0 2.216-1.784 4-4 4h-29.312c-2.216 0-4-1.784-4-4z"/>
  </g>
  <rect id="rect3003" style="opacity:.15;fill:#fff" clip-path="url(#clipPath3009)" rx="25" ry="25" transform="translate(98 -.0000026172)" width="92" y="958.36" x="-96" height="92"/>
 </g>
</svg>
