<?xml version="1.0" encoding="UTF-8" standalone="no"?>
<!-- Created with Inkscape (http://www.inkscape.org/) -->
<svg id="svg11037" xmlns:rdf="http://www.w3.org/1999/02/22-rdf-syntax-ns#" xmlns="http://www.w3.org/2000/svg" height="96" width="96" version="1.1" xmlns:cc="http://creativecommons.org/ns#" xmlns:xlink="http://www.w3.org/1999/xlink" xmlns:dc="http://purl.org/dc/elements/1.1/">
 <defs id="defs11039">
  <clipPath id="clipPath3009" clipPathUnits="userSpaceOnUse">
   <path id="path3011" style="opacity:.15;fill:#fff" d="m-2 956.36h-96v33.562l96 25.687v-59.25z"/>
  </clipPath>
  <linearGradient id="linearGradient3765" y2="20" gradientUnits="userSpaceOnUse" y1="76" x2="48" x1="48">
   <stop id="stop4083-1" style="stop-color:#aaa" offset="0"/>
   <stop id="stop4085-1" style="stop-color:#f0f0f0" offset="1"/>
  </linearGradient>
 </defs>
 <metadata id="metadata11042">
  <rdf:RDF>
   <cc:Work rdf:about="">
    <dc:format>image/svg+xml</dc:format>
    <dc:type rdf:resource="http://purl.org/dc/dcmitype/StillImage"/>
    <dc:title/>
   </cc:Work>
  </rdf:RDF>
 </metadata>
 <g id="layer1" transform="translate(0 -956.36)">
  <rect id="rect3867" style="opacity:.6" rx="25" ry="25" height="92" width="92" y="958.36" x="2"/>
  <g id="g3053" transform="translate(0 956.36)">
   <path id="path3785" style="opacity:.3;color:#000000" d="m41 21c-0.554 0-1 0.446-1 1v1h-1c-0.554 0-1 0.446-1 1v1h-6c-2.216 0-4 1.784-4 4v40c0 2.216 1.784 4 4 4h4c0 2.216 1.784 4 4 4h28c2.216 0 4-1.784 4-4v-36c0-2.216-1.784-4-4-4v-4c0-2.216-1.784-4-4-4h-6v-1c0-0.554-0.446-1-1-1h-1v-1c0-0.554-0.446-1-1-1h-14zm4 2h6c0.554 0 1 0.446 1 1v2c0 0.554-0.446 1-1 1h-6c-0.554 0-1-0.446-1-1v-2c0-0.554 0.446-1 1-1zm-1 16h20c1.108 0 2 0.892 2 2v28c0 1.108-0.892 2-2 2h-20c-1.108 0-2-0.892-2-2v-28c0-1.108 0.892-2 2-2z"/>
   <path id="rect2961" style="color:#000000;fill:url(#linearGradient3765)" d="m41 20c-0.554 0-1 0.446-1 1v1h-1c-0.554 0-1 0.446-1 1v1h-6c-2.216 0-4 1.784-4 4v40c0 2.216 1.784 4 4 4h4c0 2.216 1.784 4 4 4h28c2.216 0 4-1.784 4-4v-36c0-2.216-1.784-4-4-4v-4c0-2.216-1.784-4-4-4h-6v-1c0-0.554-0.446-1-1-1h-1v-1c0-0.554-0.446-1-1-1h-14zm4 2h6c0.554 0 1 0.446 1 1v2c0 0.554-0.446 1-1 1h-6c-0.554 0-1-0.446-1-1v-2c0-0.554 0.446-1 1-1zm-1 16h20c1.108 0 2 0.892 2 2v28c0 1.108-0.892 2-2 2h-20c-1.108 0-2-0.892-2-2v-28c0-1.108 0.892-2 2-2z"/>
   <path id="path3767" style="opacity:.75;color:#000000;fill:#fff" d="m41 20c-0.554 0-1 0.446-1 1v1c0-0.554 0.446-1 1-1h14c0.554 0 1 0.446 1 1v-1c0-0.554-0.446-1-1-1h-14zm15 2v1h1c0.554 0 1 0.446 1 1v-1c0-0.554-0.446-1-1-1h-1zm2 2v1h6c2.216 0 4 1.784 4 4v-1c0-2.216-1.784-4-4-4h-6zm-18-2h-1c-0.554 0-1 0.446-1 1v1c0-0.554 0.446-1 1-1h1v-1zm-2 2h-6c-2.216 0-4 1.784-4 4v1c0-2.216 1.784-4 4-4h6v-1zm6 1v1c0 0.554 0.446 1 1 1h6c0.554 0 1-0.446 1-1v-1c0 0.554-0.446 1-1 1h-6c-0.554 0-1-0.446-1-1zm24 7v1c2.216 0 4 1.784 4 4v-1c0-2.216-1.784-4-4-4zm-26 36v1c0 1.108 0.892 2 2 2h20c1.108 0 2-0.892 2-2v-1c0 1.108-0.892 2-2 2h-20c-1.108 0-2-0.892-2-2z"/>
   <path id="path3776" style="opacity:.15;color:#000000" d="m45 21c-0.554 0-1 0.446-1 1v1c0-0.554 0.446-1 1-1h6c0.554 0 1 0.446 1 1v-1c0-0.554-0.446-1-1-1h-6zm-1 16c-1.108 0-2 0.892-2 2v1c0-1.108 0.892-2 2-2h20c1.108 0 2 0.892 2 2v-1c0-1.108-0.892-2-2-2h-20zm-16 30v1c0 2.216 1.784 4 4 4h4c0 2.216 1.784 4 4 4h28c2.216 0 4-1.784 4-4v-1c0 2.216-1.784 4-4 4h-28c-2.216 0-4-1.784-4-4h-4c-2.216 0-4-1.784-4-4z"/>
  </g>
  <rect id="rect3003" style="opacity:.15;fill:#fff" clip-path="url(#clipPath3009)" rx="25" ry="25" transform="translate(98 -.0000026172)" width="92" y="958.36" x="-96" height="92"/>
 </g>
</svg>
