<?xml version="1.0" encoding="UTF-8" standalone="no"?>
<!-- Created with Inkscape (http://www.inkscape.org/) -->
<svg id="svg11037" xmlns:rdf="http://www.w3.org/1999/02/22-rdf-syntax-ns#" xmlns="http://www.w3.org/2000/svg" height="96" width="96" version="1.1" xmlns:cc="http://creativecommons.org/ns#" xmlns:xlink="http://www.w3.org/1999/xlink" xmlns:dc="http://purl.org/dc/elements/1.1/">
 <defs id="defs11039">
  <clipPath id="clipPath3009" clipPathUnits="userSpaceOnUse">
   <path id="path3011" style="opacity:.15;fill:#fff" d="m-2 956.36h-96v33.562l96 25.687v-59.25z"/>
  </clipPath>
  <linearGradient id="linearGradient3895" x1="45" gradientUnits="userSpaceOnUse" y1="24" gradientTransform="translate(4,-2)" x2="45" y2="76">
   <stop id="stop3639-40" style="stop-color:#f0f0f0" offset="0"/>
   <stop id="stop3641-7" style="stop-color:#aaa" offset="1"/>
  </linearGradient>
 </defs>
 <metadata id="metadata11042">
  <rdf:RDF>
   <cc:Work rdf:about="">
    <dc:format>image/svg+xml</dc:format>
    <dc:type rdf:resource="http://purl.org/dc/dcmitype/StillImage"/>
    <dc:title/>
   </cc:Work>
  </rdf:RDF>
 </metadata>
 <g id="layer1" transform="translate(0 -956.36)">
  <rect id="rect3867" style="opacity:.6" rx="25" ry="25" height="92" width="92" y="958.36" x="2"/>
  <g id="g3070" transform="translate(0 956.36)">
   <path id="path3917" style="opacity:.3;color:#000000" d="m37.5 23c-1.939 0-3.5 1.561-3.5 3.5v37c0 1.939 1.561 3.5 3.5 3.5h29c1.939 0 3.5-1.561 3.5-3.5v-37c0-1.939-1.561-3.5-3.5-3.5h-29zm4.25 6h20.5c0.9695 0 1.75 0.7805 1.75 1.75v28.5c0 0.97-0.78 1.75-1.75 1.75h-20.5c-0.97 0-1.75-0.78-1.75-1.75v-28.5c0-0.97 0.78-1.75 1.75-1.75zm-12.25 2c-1.939 0-3.5 1.561-3.5 3.5v37c0 1.939 1.561 3.5 3.5 3.5h29c1.939 0 3.5-1.561 3.5-3.5v-2.5h-28.25c-0.97 0-1.75-0.78-1.75-1.75v-36.25h-2.5z"/>
   <path id="path3109" style="color:#000000;fill:url(#linearGradient3895)" d="m37.5 22c-1.939 0-3.5 1.561-3.5 3.5v37c0 1.939 1.561 3.5 3.5 3.5h29c1.939 0 3.5-1.561 3.5-3.5v-37c0-1.939-1.561-3.5-3.5-3.5h-29zm4.25 6h20.5c0.9695 0 1.75 0.7805 1.75 1.75v28.5c0 0.97-0.78 1.75-1.75 1.75h-20.5c-0.97 0-1.75-0.78-1.75-1.75v-28.5c0-0.97 0.78-1.75 1.75-1.75zm-12.25 2c-1.939 0-3.5 1.561-3.5 3.5v37c0 1.939 1.561 3.5 3.5 3.5h29c1.939 0 3.5-1.561 3.5-3.5v-2.5h-28.25c-0.97 0-1.75-0.78-1.75-1.75v-36.25h-2.5z"/>
   <path id="path3897" style="opacity:.75;color:#000000;fill:#fff" d="m37.5 22c-1.939 0-3.5 1.561-3.5 3.5v1c0-1.939 1.561-3.5 3.5-3.5h29c1.939 0 3.5 1.561 3.5 3.5v-1c0-1.939-1.561-3.5-3.5-3.5h-29zm-8 8c-1.939 0-3.5 1.561-3.5 3.5v1c0-1.939 1.561-3.5 3.5-3.5h2.5v-1h-2.5zm10.5 28.25v1c0 0.9695 0.7805 1.75 1.75 1.75h20.5c0.97 0 1.75-0.78 1.75-1.75v-1c0 0.97-0.78 1.75-1.75 1.75h-20.5c-0.97 0-1.75-0.78-1.75-1.75zm-8 8v1c0 0.9695 0.7805 1.75 1.75 1.75h28.25v-1h-28.25c-0.97 0-1.75-0.78-1.75-1.75z"/>
   <path id="path3907" style="opacity:.15;color:#000000" d="m41.75 27c-0.97 0-1.75 0.78-1.75 1.75v1c0-0.97 0.78-1.75 1.75-1.75h20.5c0.9695 0 1.75 0.7805 1.75 1.75v-1c0-0.97-0.78-1.75-1.75-1.75h-20.5zm-7.75 34.5v1c0 1.939 1.561 3.5 3.5 3.5h29c1.939 0 3.5-1.561 3.5-3.5v-1c0 1.939-1.561 3.5-3.5 3.5h-29c-1.939 0-3.5-1.561-3.5-3.5zm-8 8v1c0 1.939 1.561 3.5 3.5 3.5h29c1.939 0 3.5-1.561 3.5-3.5v-1c0 1.939-1.561 3.5-3.5 3.5h-29c-1.939 0-3.5-1.561-3.5-3.5z"/>
  </g>
  <rect id="rect3003" style="opacity:.15;fill:#fff" clip-path="url(#clipPath3009)" rx="25" ry="25" transform="translate(98 -.0000026172)" width="92" y="958.36" x="-96" height="92"/>
 </g>
</svg>
