<?xml version="1.0" encoding="UTF-8" standalone="no"?>
<!-- Created with Inkscape (http://www.inkscape.org/) -->
<svg id="svg11037" xmlns:rdf="http://www.w3.org/1999/02/22-rdf-syntax-ns#" xmlns="http://www.w3.org/2000/svg" height="96" width="96" version="1.1" xmlns:cc="http://creativecommons.org/ns#" xmlns:xlink="http://www.w3.org/1999/xlink" xmlns:dc="http://purl.org/dc/elements/1.1/">
 <defs id="defs11039">
  <clipPath id="clipPath3009" clipPathUnits="userSpaceOnUse">
   <path id="path3011" style="opacity:.15;fill:#fff" d="m-2 956.36h-96v33.562l96 25.687v-59.25z"/>
  </clipPath>
  <linearGradient id="linearGradient3015" x1="6.7846" gradientUnits="userSpaceOnUse" y1="10.091" gradientTransform="matrix(4.3842 0 0 2.1096 13.822 18.473)" x2="6.7846" y2="21.579">
   <stop id="stop3639-6" style="stop-color:#f0f0f0" offset="0"/>
   <stop id="stop3641-48" style="stop-color:#aaa" offset="1"/>
  </linearGradient>
 </defs>
 <metadata id="metadata11042">
  <rdf:RDF>
   <cc:Work rdf:about="">
    <dc:format>image/svg+xml</dc:format>
    <dc:type rdf:resource="http://purl.org/dc/dcmitype/StillImage"/>
    <dc:title/>
   </cc:Work>
  </rdf:RDF>
 </metadata>
 <g id="layer1" transform="translate(0 -956.36)">
  <rect id="rect3867" style="opacity:.6" rx="25" ry="25" height="92" width="92" y="958.36" x="2"/>
  <g id="g3070" transform="translate(0 956.36)">
   <path id="path3884" style="opacity:.3" d="m68.803 64.027 4.2239-23.131-23.215 4.2086 6.1951 6.1727c-5.664 5.3011-14.569 5.1913-20.095-0.31424-1.6026-1.5968-2.7568-3.4748-3.4467-5.4768l-9.4391 2.514c1.1167 3.652 3.1192 7.1033 6.0149 9.9885 9.296 9.2623 24.435 9.2386 33.927 0.22447l5.8346 5.8135z"/>
   <path id="Symbol" style="fill:url(#linearGradient3015)" d="m68.803 63.027 4.2239-23.131-23.215 4.2086 6.1951 6.1727c-5.664 5.3011-14.569 5.1913-20.095-0.31424-1.6026-1.5968-2.7568-3.4748-3.4467-5.4768l-9.4391 2.514c1.1167 3.652 3.1192 7.1033 6.0149 9.9885 9.296 9.2623 24.435 9.2386 33.927 0.22447l5.8346 5.8135z"/>
   <path id="path3866" style="opacity:.75;fill:#fff" d="m73.031 39.906-23.219 4.1875 0.84375 0.84375 22.188-4 0.1875-1.0312zm-40.562 4.594-9.438 2.5c0.09211 0.30123 0.20833 0.60795 0.3125 0.90625l9.125-2.406c0.68995 2.0021 1.8349 3.8719 3.4375 5.4688 5.5255 5.5055 14.43 5.6136 20.094 0.3125l-0.532-0.531c-5.677 4.816-14.207 4.555-19.563-0.781-1.602-1.597-2.747-3.467-3.437-5.469z"/>
   <path id="path3875" style="opacity:.15" d="m73.031 39.906-0.1875 0.03125-4.0312 22.094-5.8438-5.8125c-9.492 9.015-24.642 9.044-33.938-0.218-2.657-2.647-4.529-5.776-5.687-9.094l-0.313 0.094c1.1167 3.652 3.1043 7.1148 6 10 9.296 9.2623 24.446 9.2329 33.938 0.21875l5.8438 5.8125 4.2188-23.125zm-22.375 4.032-0.844 0.156 5.657 5.656c0.18-0.153 0.357-0.306 0.531-0.469l-5.344-5.343z"/>
  </g>
  <rect id="rect3003" style="opacity:.15;fill:#fff" clip-path="url(#clipPath3009)" rx="25" ry="25" transform="translate(98 -.0000026172)" width="92" y="958.36" x="-96" height="92"/>
 </g>
</svg>
