<?xml version="1.0" encoding="UTF-8" standalone="no"?>
<!-- Created with Inkscape (http://www.inkscape.org/) -->
<svg id="svg11037" xmlns:rdf="http://www.w3.org/1999/02/22-rdf-syntax-ns#" xmlns="http://www.w3.org/2000/svg" height="96" width="96" version="1.1" xmlns:cc="http://creativecommons.org/ns#" xmlns:xlink="http://www.w3.org/1999/xlink" xmlns:dc="http://purl.org/dc/elements/1.1/">
 <defs id="defs11039">
  <clipPath id="clipPath3009" clipPathUnits="userSpaceOnUse">
   <path id="path3011" style="opacity:.15;fill:#fff" d="m-2 956.36h-96v33.562l96 25.687v-59.25z"/>
  </clipPath>
  <linearGradient id="linearGradient3018-5" x1="10.71" gradientUnits="userSpaceOnUse" y1="1.9963" gradientTransform="matrix(2.8192 0 0 2.8192 15.4 18.516)" x2="10.71" y2="18.974">
   <stop id="stop3639-2" style="stop-color:#f0f0f0" offset="0"/>
   <stop id="stop3641-5" style="stop-color:#aaa" offset="1"/>
  </linearGradient>
 </defs>
 <metadata id="metadata11042">
  <rdf:RDF>
   <cc:Work rdf:about="">
    <dc:format>image/svg+xml</dc:format>
    <dc:type rdf:resource="http://purl.org/dc/dcmitype/StillImage"/>
    <dc:title/>
   </cc:Work>
  </rdf:RDF>
 </metadata>
 <g id="layer1" transform="translate(0 -956.36)">
  <rect id="rect3867" style="opacity:.6" rx="25" ry="25" height="92" width="92" y="958.36" x="2"/>
  <g id="g3070" transform="translate(0 956.36)">
   <path id="path3921" style="opacity:.3" d="m40.938 25c-4.3377 0-8.6615 1.6424-11.969 4.9375-6.6144 6.5902-6.6144 17.285 0 23.875 5.7663 5.7452 14.649 6.5218 21.219 2.25 1.1167 0.05582 2.9226 0.21423 3.5625 0.9375 0.87128 0.98479-0.35845 3.2803 1.3125 4.7812l10.375 10.531s1.9349 2.0541 4.9375-0.9375 0.9375-4.9062 0.9375-4.9062l-10.406-10.53c-1.506-1.665-3.824-0.445-4.812-1.313-0.726-0.638-0.85-2.419-0.906-3.531 4.287-6.546 3.516-15.411-2.25-21.156-3.308-3.296-7.663-4.938-12-4.938zm0.062 5.625c6.2361 0 11.312 5.0367 11.312 11.25s-5.0763 11.25-11.312 11.25c-6.2361 0.000003-11.281-5.0367-11.281-11.25 0-3.1067 1.2677-5.9627 3.3125-8s4.8507-3.25 7.9688-3.25zm-14 36.375c-1.6569 0-3 1.3431-3 3s1.3431 3 3 3 3-1.3431 3-3-1.3431-3-3-3zm10 0c-1.6569 0-3 1.3431-3 3s1.3431 3 3 3 3-1.3431 3-3-1.3431-3-3-3zm10 0c-1.6569 0-3 1.3431-3 3s1.3431 3 3 3 3-1.3431 3-3-1.3431-3-3-3z"/>
   <path id="Symbol" style="fill:url(#linearGradient3018-5)" d="m40.938 24c-4.3377 0-8.6615 1.6424-11.969 4.9375-6.6144 6.5902-6.6144 17.285 0 23.875 5.7663 5.7452 14.649 6.5218 21.219 2.25 1.1167 0.05582 2.9226 0.21423 3.5625 0.9375 0.87128 0.98479-0.35845 3.2803 1.3125 4.7812l10.375 10.531s1.9349 2.0541 4.9375-0.9375 0.9375-4.9062 0.9375-4.9062l-10.406-10.53c-1.506-1.665-3.824-0.445-4.812-1.313-0.726-0.638-0.85-2.419-0.906-3.531 4.287-6.546 3.516-15.411-2.25-21.156-3.308-3.296-7.663-4.938-12-4.938zm0.062 5.625c6.2361 0 11.312 5.0367 11.312 11.25s-5.0763 11.25-11.312 11.25c-6.2361 0.000003-11.281-5.0367-11.281-11.25 0-3.1067 1.2677-5.9627 3.3125-8s4.8507-3.25 7.9688-3.25zm-14 36.375c-1.6569 0-3 1.3431-3 3s1.3431 3 3 3 3-1.3431 3-3-1.3431-3-3-3zm10 0c-1.6569 0-3 1.3431-3 3s1.3431 3 3 3 3-1.3431 3-3-1.3431-3-3-3zm10 0c-1.6569 0-3 1.3431-3 3s1.3431 3 3 3 3-1.3431 3-3-1.3431-3-3-3z"/>
   <path id="path3903" style="opacity:.75;fill:#fff" d="m40.938 24c-4.3377 0-8.6615 1.6424-11.969 4.9375-3.4345 3.4219-5.0696 7.9516-4.9375 12.438 0.12234-4.1535 1.7575-8.2692 4.9375-11.438 3.306-3.296 7.63-4.938 11.968-4.938 4.3377 0 8.6928 1.6424 12 4.9375 3.1556 3.1441 4.8155 7.2223 4.9688 11.344 0.098-4.458-1.558-8.945-4.969-12.344-3.308-3.296-7.663-4.938-12-4.938zm-11.188 17.375c-0.0073 0.16645-0.03125 0.332-0.03125 0.5 0 6.2133 5.0451 11.25 11.281 11.25 6.2362 0 11.312-5.0367 11.312-11.25 0-0.168-0.0239-0.33379-0.03125-0.5-0.26431 5.9806-5.2137 10.75-11.281 10.75-6.0675 0.000003-10.987-4.7694-11.25-10.75zm25.5 9.6562c-0.01563 0.02413-0.04674 0.03843-0.0625 0.0625 0.05601 1.1126 0.18032 2.8937 0.90625 3.5312 0.98841 0.86808 3.3061-0.35233 4.8125 1.3125l10.406 10.532s0.50805 0.47948 0.65625 1.3125c0.2831-1.459-0.65625-2.3125-0.65625-2.3125l-10.406-10.531c-1.506-1.665-3.824-0.445-4.812-1.313-0.545-0.478-0.751-1.594-0.844-2.594zm-28.25 14.969c-1.6569 0-3 1.3431-3 3 0 0.17476 0.03382 0.33342 0.0625 0.5 0.244-1.413 1.456-2.5 2.938-2.5 1.4821 0 2.6943 1.0874 2.9375 2.5 0.028-0.167 0.062-0.325 0.062-0.5 0-1.657-1.343-3-3-3zm10 0c-1.6569 0-3 1.3431-3 3 0 0.17476 0.03382 0.33342 0.0625 0.5 0.244-1.413 1.456-2.5 2.938-2.5 1.4821 0 2.6943 1.0874 2.9375 2.5 0.028-0.167 0.062-0.325 0.062-0.5 0-1.657-1.343-3-3-3zm10 0c-1.6569 0-3 1.3431-3 3 0 0.17476 0.03382 0.33342 0.0625 0.5 0.244-1.413 1.456-2.5 2.938-2.5 1.4821 0 2.6943 1.0874 2.9375 2.5 0.028-0.167 0.062-0.325 0.062-0.5 0-1.657-1.343-3-3-3z"/>
   <path id="path3912" style="opacity:.15" d="m41 28.625c-3.1181 0-5.9239 1.2127-7.9688 3.25-2.0448 2.0373-3.3125 4.8933-3.3125 8 0 0.168 0.02395 0.33379 0.03125 0.5 0.12834-2.9114 1.347-5.5728 3.2812-7.5 2.0448-2.0373 4.8507-3.25 7.9688-3.25 6.0675 0 11.017 4.7694 11.281 10.75 0.0073-0.16621 0.03125-0.332 0.03125-0.5 0-6.2133-5.0764-11.25-11.312-11.25zm16.906 11.656c-0.06806 3.0761-0.96794 6.1396-2.7188 8.8125 0.01354 0.26892 0.03345 0.58481 0.0625 0.90625 1.8986-2.9419 2.7817-6.3454 2.6562-9.7188zm-33.875 0.09375c-0.13213 4.4859 1.503 9.0156 4.9375 12.438 5.7663 5.7452 14.649 6.5218 21.219 2.25 1.1167 0.05582 2.9226 0.21423 3.5625 0.9375 0.21782 0.2462 0.3104 0.56035 0.34375 0.9375 0.004-0.784 0.049-1.496-0.343-1.939-0.64-0.723-2.446-0.882-3.562-0.938-6.57 4.272-15.453 3.496-21.219-2.25-3.18-3.168-4.815-7.284-4.938-11.437zm30.062 16.812c0.04258 1.1072-0.20092 2.5431 0.96875 3.5938l10.375 10.531s1.9349 2.0541 4.9375-0.9375c1.5013-1.4958 1.7347-2.7099 1.5938-3.5625-0.14707 0.71906-0.61097 1.5833-1.5938 2.5625-3.0026 2.9916-4.9375 0.9375-4.9375 0.9375l-10.375-10.531c-0.835-0.75-0.958-1.709-0.968-2.593zm-30.031 11.313c-0.028 0.167-0.062 0.325-0.062 0.5 0 1.6569 1.3431 3 3 3s3-1.3431 3-3c0-0.17476-0.03382-0.33342-0.0625-0.5-0.244 1.413-1.456 2.5-2.938 2.5s-2.694-1.087-2.938-2.5zm10 0c-0.028 0.167-0.062 0.325-0.062 0.5 0 1.6569 1.3431 3 3 3s3-1.3431 3-3c0-0.17476-0.03382-0.33342-0.0625-0.5-0.244 1.413-1.456 2.5-2.938 2.5s-2.694-1.087-2.938-2.5zm10 0c-0.028 0.167-0.062 0.325-0.062 0.5 0 1.6569 1.3431 3 3 3s3-1.3431 3-3c0-0.17476-0.03382-0.33342-0.0625-0.5-0.244 1.413-1.456 2.5-2.938 2.5s-2.694-1.087-2.938-2.5z"/>
  </g>
  <rect id="rect3003" style="opacity:.15;fill:#fff" clip-path="url(#clipPath3009)" rx="25" ry="25" transform="translate(98 -.0000026172)" width="92" y="958.36" x="-96" height="92"/>
 </g>
</svg>
