<?xml version="1.0" encoding="UTF-8" standalone="no"?>
<!-- Created with Inkscape (http://www.inkscape.org/) -->
<svg id="svg11037" xmlns:rdf="http://www.w3.org/1999/02/22-rdf-syntax-ns#" xmlns="http://www.w3.org/2000/svg" height="96" width="96" version="1.1" xmlns:cc="http://creativecommons.org/ns#" xmlns:xlink="http://www.w3.org/1999/xlink" xmlns:dc="http://purl.org/dc/elements/1.1/">
 <defs id="defs11039">
  <clipPath id="clipPath3009" clipPathUnits="userSpaceOnUse">
   <path id="path3011" style="opacity:.15;fill:#fff" d="m-2 956.36h-96v33.562l96 25.687v-59.25z"/>
  </clipPath>
  <linearGradient id="linearGradient3916" x1="46.07" gradientUnits="userSpaceOnUse" y1=".92128" gradientTransform="matrix(-2.6691 0 0 3.1691 171.99 18.593)" x2="46.07" y2="17.478">
   <stop id="stop3639-48" style="stop-color:#f0f0f0" offset="0"/>
   <stop id="stop3641-2" style="stop-color:#aaa" offset="1"/>
  </linearGradient>
 </defs>
 <metadata id="metadata11042">
  <rdf:RDF>
   <cc:Work rdf:about="">
    <dc:format>image/svg+xml</dc:format>
    <dc:type rdf:resource="http://purl.org/dc/dcmitype/StillImage"/>
    <dc:title/>
   </cc:Work>
  </rdf:RDF>
 </metadata>
 <g id="layer1" transform="translate(0 -956.36)">
  <rect id="rect3867" style="opacity:.6" rx="25" ry="25" height="92" width="92" y="958.36" x="2"/>
  <g id="g3070" transform="translate(-3.6753e-7 956.36)">
   <path id="path3936" style="opacity:.3" d="m33.75 21c-0.04115-0.000897-0.08502 0.01398-0.125 0.03125-0.23987 0.1036-0.43058 0.45192-0.71875 0.8125 0 0-0.93044 2.5544-0.90625 4.1562 0.0299 1.9801 0.62789 5.2979 1.6875 8.1875 2.2482 6.131 5.3824 12.868 8.1562 17.781 0.534-1.972 1.14-4.103 2.187-5.969a2.4116 2.4116 0 0 1 0.031 -0.062l2.532-4.219-11.875-19.781c-0.341-0.585-0.626-0.841-0.844-0.907-0.045-0.013-0.084-0.03-0.125-0.031zm28.375 0.03125c-0.21809 0.0657-0.50288 0.3213-0.84375 0.90625l-15.156 25.251c-1.2834 2.2857-1.9394 5.7626-2.875 8.5625-0.4678 1.4-1.0195 2.6455-1.5312 3.3125-0.31877 0.54547-0.69392 0.59375-1.1562 0.59375-2.5703-0.10003-5.4258 1.6555-7.1562 4.625-2.2606 3.8793-1.7179 8.414 1.2188 10.094 2.9366 1.6798 7.1144-0.12074 9.375-4 1.0405-1.7856 1.4836-3.6917 1.375-5.4062l0.0625 0.09375c-0.03135-1.2804 0.09966-2.8936 0.6875-4.375 0.67426-1.699 1.7864-3.2228 4.7812-4.0938 0.25789-0.0701 0.53822-0.24509 0.6875-0.46875 3.209-4.618 7.734-13.8 10.718-21.938 1.06-2.89 1.658-6.208 1.688-8.188 0.024-1.602-0.906-4.156-0.906-4.156-0.384-0.481-0.606-0.922-0.969-0.813zm-8.656 36.594c-0.54846 0.73926-1.1525 1.045-1.875 1.25v0.03125c-1.0546 0.3067-1.687 0.59512-2.125 0.9375 0.14683 0.27472 0.2922 0.55636 0.40625 0.84375 0.58785 1.4814 0.71885 3.0946 0.6875 4.375l0.0625-0.09375c-0.10863 1.7146 0.33445 3.6206 1.375 5.4062 2.2606 3.8793 6.4384 5.6798 9.375 4s3.4793-6.2145 1.2188-10.094c-1.7304-2.9695-4.586-4.725-7.1562-4.625-0.46233 0-0.83748-0.04828-1.1562-0.59375-0.26472-0.345-0.54262-0.83797-0.8125-1.4375zm-13.657 5.375c0.4439-0.0181 0.87359 0.09719 1.25 0.3125 1.5057 0.86125 1.6737 3.3339 0.375 5.5625s-3.5568 3.3612-5.0625 2.5c-1.505-0.861-1.673-3.365-0.374-5.594 0.974-1.671 2.481-2.727 3.812-2.781zm16.375 0c1.3317 0.05431 2.8385 1.1098 3.8125 2.7812 1.2987 2.2286 1.1307 4.7325-0.375 5.5938-1.5057 0.86125-3.7638-0.27142-5.0625-2.5s-1.1307-4.7012 0.375-5.5625c0.37641-0.21531 0.8061-0.3306 1.25-0.3125z"/>
   <path id="path3113" style="fill:url(#linearGradient3916)" d="m33.75 20c-0.04115-0.000897-0.08502 0.01398-0.125 0.03125-0.23987 0.1036-0.43058 0.45192-0.71875 0.8125 0 0-0.93044 2.5544-0.90625 4.1562 0.0299 1.9801 0.62789 5.2979 1.6875 8.1875 2.2482 6.131 5.3824 12.868 8.1562 17.781 0.534-1.972 1.14-4.103 2.187-5.969a2.4116 2.4116 0 0 1 0.031 -0.062l2.532-4.219-11.875-19.781c-0.341-0.585-0.626-0.841-0.844-0.907-0.045-0.013-0.084-0.03-0.125-0.031zm28.375 0.03125c-0.21809 0.0657-0.50288 0.3213-0.84375 0.90625l-15.156 25.251c-1.2834 2.2857-1.9394 5.7626-2.875 8.5625-0.4678 1.4-1.0195 2.6455-1.5312 3.3125-0.31877 0.54547-0.69392 0.59375-1.1562 0.59375-2.5703-0.10003-5.4258 1.6555-7.1562 4.625-2.2606 3.8793-1.7179 8.414 1.2188 10.094 2.9366 1.6798 7.1144-0.12074 9.375-4 1.0405-1.7856 1.4836-3.6917 1.375-5.4062l0.0625 0.09375c-0.03135-1.2804 0.09966-2.8936 0.6875-4.375 0.67426-1.699 1.7864-3.2228 4.7812-4.0938 0.25789-0.0701 0.53822-0.24509 0.6875-0.46875 3.209-4.618 7.734-13.8 10.718-21.938 1.06-2.89 1.658-6.208 1.688-8.188 0.024-1.602-0.906-4.156-0.906-4.156-0.384-0.481-0.606-0.922-0.969-0.813zm-8.656 36.594c-0.54846 0.73926-1.1525 1.045-1.875 1.25v0.03125c-1.0546 0.3067-1.687 0.59512-2.125 0.9375 0.14683 0.27472 0.2922 0.55636 0.40625 0.84375 0.58785 1.4814 0.71885 3.0946 0.6875 4.375l0.0625-0.09375c-0.10863 1.7146 0.33445 3.6206 1.375 5.4062 2.2606 3.8793 6.4384 5.6798 9.375 4s3.4793-6.2145 1.2188-10.094c-1.7304-2.9695-4.586-4.725-7.1562-4.625-0.46233 0-0.83748-0.04828-1.1562-0.59375-0.26472-0.345-0.54262-0.83797-0.8125-1.4375zm-13.657 5.375c0.4439-0.0181 0.87359 0.09719 1.25 0.3125 1.5057 0.86125 1.6737 3.3339 0.375 5.5625s-3.5568 3.3612-5.0625 2.5c-1.505-0.861-1.673-3.365-0.374-5.594 0.974-1.671 2.481-2.727 3.812-2.781zm16.375 0c1.3317 0.05431 2.8385 1.1098 3.8125 2.7812 1.2987 2.2286 1.1307 4.7325-0.375 5.5938-1.5057 0.86125-3.7638-0.27142-5.0625-2.5s-1.1307-4.7012 0.375-5.5625c0.37641-0.21531 0.8061-0.3306 1.25-0.3125z"/>
   <path id="path3918" style="opacity:.75;fill:#fff" d="m33.75 20c-0.04115-0.000897-0.08502 0.01398-0.125 0.03125-0.23987 0.1036-0.43058 0.45192-0.71875 0.8125 0 0-0.93044 2.5544-0.90625 4.1562 0.0016 0.10809 0.02625 0.25923 0.03125 0.375 0.16189-1.5621 0.875-3.5312 0.875-3.5312 0.28817-0.36058 0.47888-0.7089 0.71875-0.8125 0.04-0.017 0.084-0.032 0.125-0.031 0.04115 0.000897 0.07956 0.01757 0.125 0.03125 0.21809 0.0657 0.50288 0.3213 0.84375 0.90625l11.562 19.281 0.3125-0.5-11.875-19.781c-0.34-0.585-0.625-0.841-0.843-0.907-0.045-0.013-0.084-0.03-0.125-0.031zm28.375 0.03125c-0.21809 0.0657-0.50288 0.3213-0.84375 0.90625l-15.156 25.251c-1.2834 2.2857-1.9394 5.7626-2.875 8.5625-0.4678 1.4-1.0195 2.6455-1.5312 3.3125-0.31877 0.54547-0.69392 0.59375-1.1562 0.59375-2.5703-0.10003-5.4258 1.6555-7.1562 4.625-1.0469 1.7965-1.4899 3.7397-1.375 5.4688 0.08088-1.454 0.52728-3.014 1.375-4.4688 1.7304-2.9695 4.586-4.725 7.1562-4.625 0.46233 0 0.83748-0.04828 1.1562-0.59375 0.5118-0.667 1.0635-1.9126 1.5312-3.3125 0.93559-2.7999 1.5916-6.2768 2.875-8.5625l15.156-25.25c0.34087-0.58495 0.62566-0.84055 0.84375-0.90625 0.36349-0.10944 0.58452 0.33172 0.96875 0.8125 0 0 0.71311 1.9692 0.875 3.5312 0.006-0.116 0.03-0.267 0.032-0.375 0.024-1.602-0.906-4.156-0.906-4.156-0.384-0.481-0.606-0.922-0.969-0.813zm-8.656 36.594c-0.54846 0.73926-1.1525 1.045-1.875 1.25v0.03125c-1.0546 0.3067-1.687 0.59512-2.125 0.9375 0.13146 0.24597 0.26731 0.49378 0.375 0.75 0.41207-0.23994 0.95903-0.45747 1.75-0.6875v-0.03125c0.72254-0.20496 1.3265-0.51074 1.875-1.25 0.26988 0.59953 0.54778 1.0925 0.8125 1.4375 0.31877 0.54547 0.69392 0.59375 1.1562 0.59375 2.5703-0.10003 5.4258 1.6555 7.1562 4.625 0.84772 1.4547 1.2941 3.0148 1.375 4.4688 0.11491-1.729-0.32808-3.6722-1.375-5.4688-1.7304-2.9695-4.586-4.725-7.1562-4.625-0.46233 0-0.83748-0.04828-1.1562-0.59375-0.26472-0.345-0.54262-0.83797-0.8125-1.4375zm-11.188 8.7812c-0.08517 0.79808-0.36276 1.6434-0.84375 2.4688-1.2987 2.2286-3.5568 3.3612-5.0625 2.5-0.69585-0.39803-1.107-1.1521-1.2188-2.0625-0.1355 1.3534 0.27772 2.5242 1.2188 3.0625 1.5057 0.86125 3.7638-0.27142 5.0625-2.5 0.69164-1.1869 0.96462-2.4237 0.84375-3.4688zm11.438 0c-0.12087 1.0451 0.15211 2.2819 0.84375 3.4688 1.2987 2.2286 3.5568 3.3612 5.0625 2.5 0.94103-0.53828 1.3543-1.7091 1.2188-3.0625-0.1117 0.91041-0.5229 1.6645-1.2188 2.0625-1.5057 0.86125-3.7638-0.27142-5.0625-2.5-0.48099-0.82539-0.75858-1.6707-0.84375-2.4688z"/>
   <path id="path3927" style="opacity:.15" d="m32.031 24.406c-0.021 0.211-0.034 0.404-0.031 0.594 0.0299 1.9801 0.62789 5.2979 1.6875 8.1875 2.2482 6.131 5.3824 12.868 8.1562 17.781 0.53444-1.9721 1.1398-4.1029 2.1875-5.9688a2.4116 2.4116 0 0 1 0.03125 -0.0625l2.5312-4.2188-0.3125-0.5-2.2188 3.7188a2.4116 2.4116 0 0 0 -0.031 0.064c-1.0477 1.8658-1.6531 3.9966-2.1875 5.9688-2.774-4.914-5.908-11.651-8.156-17.781-0.997-2.719-1.566-5.776-1.657-7.782zm31.938 0c-0.09097 2.0061-0.65927 5.0624-1.6562 7.7812-2.9845 8.1389-7.5099 17.32-10.719 21.938-0.14928 0.22366-0.42961 0.39865-0.6875 0.46875-2.9948 0.87096-4.107 2.3947-4.7812 4.0938-0.58784 1.4814-0.71885 3.0946-0.6875 4.375 0.05118-1.0633 0.24662-2.2639 0.6875-3.375 0.67426-1.699 1.7864-3.2228 4.7812-4.0938 0.25789-0.0701 0.53822-0.24509 0.6875-0.46875 3.208-4.617 7.733-13.799 10.717-21.937 1.06-2.89 1.658-6.208 1.688-8.188 0.003-0.19-0.01-0.383-0.031-0.594zm-18.531 38.656-0.063-0.093c0.02067 0.32633 0.01961 0.66195 0 1l0.0625 0.09375c-0.0078-0.32011-0.01706-0.64556 0-1zm-0.063 0.907c-0.083 1.438-0.532 2.96-1.375 4.406-2.2606 3.8793-6.4384 5.6798-9.375 4-1.5683-0.89711-2.4534-2.6028-2.5938-4.5938-0.12527 2.4105 0.76634 4.5484 2.5938 5.5938 2.9366 1.6798 7.1144-0.12074 9.375-4 1.0405-1.7856 1.4836-3.6917 1.375-5.4062zm4.4688-5.375c-0.13736 0.07998-0.26551 0.1644-0.375 0.25 0.14683 0.27472 0.2922 0.55636 0.40625 0.84375 0.44088 1.1111 0.63633 2.3117 0.6875 3.375 0.03135-1.2804-0.09965-2.8936-0.6875-4.375-0.01194-0.03008-0.01866-0.06379-0.03125-0.09375zm0.71875 4.4688c0.01706 0.35444 0.0078 0.67989 0 1l0.0625-0.09375c-0.01961-0.33805-0.02067-0.67367 0-1l-0.0625 0.09375zm0.0625 0.90625c-0.10863 1.7146 0.33445 3.6206 1.375 5.4062 2.2606 3.8793 6.4384 5.6798 9.375 4 1.8274-1.0453 2.719-3.1833 2.5938-5.5938-0.14038 1.991-1.0254 3.6966-2.5938 4.5938-2.9366 1.6798-7.1144-0.12074-9.375-4-0.8425-1.4458-1.2916-2.9681-1.375-4.4062zm-10.814-2.969c-1.3317 0.05431-2.8385 1.1098-3.8125 2.7812-0.69164 1.1869-0.96462 2.4467-0.84375 3.5 0.08504-0.80378 0.36256-1.6743 0.84375-2.5 0.97401-1.6714 2.4808-2.7269 3.8125-2.7812 0.4439-0.0181 0.87359 0.09719 1.25 0.3125 0.69585 0.39803 1.107 1.1593 1.2188 2.0625 0.136-1.344-0.277-2.524-1.219-3.063-0.376-0.215-0.806-0.33-1.25-0.312zm16.375 0c-0.4439-0.0181-0.87359 0.09719-1.25 0.3125-0.94103 0.53828-1.3543 1.7183-1.2188 3.0625 0.1117-0.90323 0.5229-1.6645 1.2188-2.0625 0.37641-0.21531 0.8061-0.3306 1.25-0.3125 1.3317 0.05431 2.8385 1.1098 3.8125 2.7812 0.48119 0.82575 0.75871 1.6962 0.84375 2.5 0.122-1.053-0.151-2.313-0.843-3.5-0.974-1.671-2.481-2.727-3.812-2.781z"/>
  </g>
  <rect id="rect3003" style="opacity:.15;fill:#fff" clip-path="url(#clipPath3009)" rx="25" ry="25" transform="translate(98 -.0000026172)" width="92" y="958.36" x="-96" height="92"/>
 </g>
</svg>
