<?xml version="1.0" encoding="UTF-8" standalone="no"?>
<!-- Created with Inkscape (http://www.inkscape.org/) -->
<svg id="svg11037" xmlns:rdf="http://www.w3.org/1999/02/22-rdf-syntax-ns#" xmlns="http://www.w3.org/2000/svg" height="96" width="96" version="1.1" xmlns:cc="http://creativecommons.org/ns#" xmlns:xlink="http://www.w3.org/1999/xlink" xmlns:dc="http://purl.org/dc/elements/1.1/">
 <defs id="defs11039">
  <clipPath id="clipPath3009" clipPathUnits="userSpaceOnUse">
   <path id="path3011" style="opacity:.15;fill:#fff" d="m-2 956.36h-96v33.562l96 25.687v-59.25z"/>
  </clipPath>
  <linearGradient id="linearGradient3149" x1="85" gradientUnits="userSpaceOnUse" y1="43" gradientTransform="matrix(0,-1,1,0,2,102)" x2="30" y2="43">
   <stop id="stop3639-99" style="stop-color:#f0f0f0" offset="0"/>
   <stop id="stop3641-42" style="stop-color:#aaa" offset="1"/>
  </linearGradient>
 </defs>
 <metadata id="metadata11042">
  <rdf:RDF>
   <cc:Work rdf:about="">
    <dc:format>image/svg+xml</dc:format>
    <dc:type rdf:resource="http://purl.org/dc/dcmitype/StillImage"/>
    <dc:title/>
   </cc:Work>
  </rdf:RDF>
 </metadata>
 <g id="layer1" transform="translate(0 -956.36)">
  <rect id="rect3867" style="opacity:.6" rx="25" ry="25" height="92" width="92" y="958.36" x="2"/>
  <g id="g3070" transform="translate(0 956.36)">
   <path id="path3937" style="opacity:.3;color:#000000" d="m55 18-15 15h8v18h14v-18h8l-15-15zm-27.5 19c-1.939 0-3.5 1.561-3.5 3.5v29c0 1.939 1.561 3.5 3.5 3.5h41c1.939 0 3.5-1.561 3.5-3.5v-29c0-1.939-1.561-3.5-3.5-3.5h-4.5v6h0.25c0.9695 0 1.75 0.7805 1.75 1.75v20.5c0 0.97-0.78 1.75-1.75 1.75h-32.5c-0.97 0-1.75-0.78-1.75-1.75v-20.5c0-0.97 0.78-1.75 1.75-1.75h14.25v-6h-18.5z"/>
   <path id="path3113" style="color:#000000;fill:url(#linearGradient3149)" d="m55 17-15 15h8v18h14v-18h8l-15-15zm-27.5 19c-1.939 0-3.5 1.561-3.5 3.5v29c0 1.939 1.561 3.5 3.5 3.5h41c1.939 0 3.5-1.561 3.5-3.5v-29c0-1.939-1.561-3.5-3.5-3.5h-4.5v6h0.25c0.9695 0 1.75 0.7805 1.75 1.75v20.5c0 0.97-0.78 1.75-1.75 1.75h-32.5c-0.97 0-1.75-0.78-1.75-1.75v-20.5c0-0.97 0.78-1.75 1.75-1.75h14.25v-6h-18.5z"/>
   <path id="path3151" style="opacity:.75;color:#000000;fill:#fff" d="m55 17-15 15h1l14-14 14 14h1l-15-15zm-27.5 19c-1.939 0-3.5 1.561-3.5 3.5v1c0-1.939 1.561-3.5 3.5-3.5h18.5v-1h-18.5zm36.5 0v1h4.5c1.939 0 3.5 1.561 3.5 3.5v-1c0-1.939-1.561-3.5-3.5-3.5h-4.5zm-34 28.25v1c0 0.9695 0.7805 1.75 1.75 1.75h32.5c0.97 0 1.75-0.78 1.75-1.75v-1c0 0.97-0.78 1.75-1.75 1.75h-32.5c-0.97 0-1.75-0.78-1.75-1.75z"/>
   <path id="path3928" style="opacity:.15;color:#000000" d="m41 31-1 1h8v-1h-7zm21 0v1h8l-1-1h-7zm-30.25 10c-0.97 0-1.75 0.78-1.75 1.75v1c0-0.97 0.78-1.75 1.75-1.75h14.25v-1h-14.25zm32.25 0v1h0.25c0.9695 0 1.75 0.7805 1.75 1.75v-1c0-0.97-0.78-1.75-1.75-1.75h-0.25zm-16 8v1h14v-1h-14zm-24 18.5v1c0 1.939 1.561 3.5 3.5 3.5h41c1.939 0 3.5-1.561 3.5-3.5v-1c0 1.939-1.561 3.5-3.5 3.5h-41c-1.939 0-3.5-1.561-3.5-3.5z"/>
  </g>
  <rect id="rect3003" style="opacity:.15;fill:#fff" clip-path="url(#clipPath3009)" rx="25" ry="25" transform="translate(98 -.0000026172)" width="92" y="958.36" x="-96" height="92"/>
 </g>
</svg>
