<?xml version="1.0" encoding="UTF-8" standalone="no"?>
<!-- Created with Inkscape (http://www.inkscape.org/) -->
<svg id="svg11037" xmlns:rdf="http://www.w3.org/1999/02/22-rdf-syntax-ns#" xmlns="http://www.w3.org/2000/svg" height="96" width="96" version="1.1" xmlns:cc="http://creativecommons.org/ns#" xmlns:xlink="http://www.w3.org/1999/xlink" xmlns:dc="http://purl.org/dc/elements/1.1/">
 <defs id="defs11039">
  <clipPath id="clipPath3009" clipPathUnits="userSpaceOnUse">
   <path id="path3011" style="opacity:.15;fill:#fff" d="m-2 956.36h-96v33.562l96 25.687v-59.25z"/>
  </clipPath>
  <linearGradient id="linearGradient4048" x1="48" gradientUnits="userSpaceOnUse" y1="60" gradientTransform="translate(12,14)" x2="48" y2="24">
   <stop id="stop4083-5" style="stop-color:#aaa" offset="0"/>
   <stop id="stop4085-44" style="stop-color:#f0f0f0" offset="1"/>
  </linearGradient>
 </defs>
 <metadata id="metadata11042">
  <rdf:RDF>
   <cc:Work rdf:about="">
    <dc:format>image/svg+xml</dc:format>
    <dc:type rdf:resource="http://purl.org/dc/dcmitype/StillImage"/>
    <dc:title/>
   </cc:Work>
  </rdf:RDF>
 </metadata>
 <g id="layer1" transform="translate(0 -956.36)">
  <rect id="rect3867" style="opacity:.6" rx="25" ry="25" height="92" width="92" y="958.36" x="2"/>
  <g id="g3066" transform="translate(0 956.36)">
   <path id="path4071" style="opacity:.3;color:#000000" d="m42 39c-1.662 0-3 1.338-3 3v5h32c0-2.216-1.784-4-4-4h-14v-1c0-1.662-1.338-3-3-3h-8zm-2 10c-2.216 0-4 1.784-4 4v18c0 2.216 1.784 4 4 4h30c2.216 0 4-1.784 4-4v-18c0-2.216-1.784-4-4-4h-30z"/>
   <path id="path4043" style="opacity:.3;color:#000000;fill:#fff" d="m28 22c-1.662 0-3 1.338-3 3v5h32c0-2.216-1.784-4-4-4h-14v-1c0-1.662-1.338-3-3-3h-8zm-2 10c-2.216 0-4 1.784-4 4v18c0 2.216 1.784 4 4 4h8v-6c0-2.2452 1.3374-4.1322 3.1875-5.1562a1.9876 1.9876 0 0 1 -0.188 -0.844v-5c0-2.7287 2.2713-5 5-5h8c2.3759 0 4.2988 1.7559 4.7812 4h5.219v-4c0-2.216-1.784-4-4-4h-30z"/>
   <path id="path4039" style="color:#000000;fill:url(#linearGradient4048)" d="m42 38c-1.662 0-3 1.338-3 3v5h32c0-2.216-1.784-4-4-4h-14v-1c0-1.662-1.338-3-3-3h-8zm-2 10c-2.216 0-4 1.784-4 4v18c0 2.216 1.784 4 4 4h30c2.216 0 4-1.784 4-4v-18c0-2.216-1.784-4-4-4h-30z"/>
   <path id="path4053" style="opacity:.75;color:#000000;fill:#fff" d="m42 38c-1.662 0-3 1.338-3 3v1c0-1.662 1.338-3 3-3h8c1.662 0 3 1.338 3 3v-1c0-1.662-1.338-3-3-3h-8zm11 4v1h14c1.869 0 3.4005 1.2731 3.8438 3h0.156c0-2.216-1.784-4-4-4h-14zm-13 6c-2.216 0-4 1.784-4 4v1c0-2.216 1.784-4 4-4h30c2.216 0 4 1.784 4 4v-1c0-2.216-1.784-4-4-4h-30z"/>
   <path id="path4062" style="opacity:.15;color:#000000" d="m39 45v1h32c0-0.34703-0.07394-0.67936-0.15625-1h-31.844zm-3 24v1c0 2.216 1.784 4 4 4h30c2.216 0 4-1.784 4-4v-1c0 2.216-1.784 4-4 4h-30c-2.216 0-4-1.784-4-4z"/>
  </g>
  <rect id="rect3003" style="opacity:.15;fill:#fff" clip-path="url(#clipPath3009)" rx="25" ry="25" transform="translate(98 -.0000026172)" width="92" y="958.36" x="-96" height="92"/>
 </g>
</svg>
