<?xml version="1.0" encoding="UTF-8" standalone="no"?>
<!-- Created with Inkscape (http://www.inkscape.org/) -->
<svg id="svg11037" xmlns:rdf="http://www.w3.org/1999/02/22-rdf-syntax-ns#" xmlns="http://www.w3.org/2000/svg" height="96" width="96" version="1.1" xmlns:cc="http://creativecommons.org/ns#" xmlns:xlink="http://www.w3.org/1999/xlink" xmlns:dc="http://purl.org/dc/elements/1.1/">
 <defs id="defs11039">
  <clipPath id="clipPath3009" clipPathUnits="userSpaceOnUse">
   <path id="path3011" style="opacity:.15;fill:#fff" d="m-2 956.36h-96v33.562l96 25.687v-59.25z"/>
  </clipPath>
  <linearGradient id="linearGradient3047" x1="10.467" gradientUnits="userSpaceOnUse" y1="5.8862" gradientTransform="matrix(3 0 0 3 15.156 12)" x2="10.467" y2="17.767">
   <stop id="stop3639-71" style="stop-color:#f0f0f0" offset="0"/>
   <stop id="stop3641-58" style="stop-color:#aaa" offset="1"/>
  </linearGradient>
 </defs>
 <metadata id="metadata11042">
  <rdf:RDF>
   <cc:Work rdf:about="">
    <dc:format>image/svg+xml</dc:format>
    <dc:type rdf:resource="http://purl.org/dc/dcmitype/StillImage"/>
    <dc:title/>
   </cc:Work>
  </rdf:RDF>
 </metadata>
 <g id="layer1" transform="translate(0 -956.36)">
  <rect id="rect3867" style="opacity:.6" rx="25" ry="25" height="92" width="92" y="958.36" x="2"/>
  <g id="g3070" transform="translate(2.2913e-7 956.36)">
   <path id="path3954" style="opacity:.3" d="m51.615 48.878c-4.551 0.000015-7.8163 0.52042-9.7959 1.5612-1.9592 1.0408-3.1837 2.8163-3.6735 5.3265-0.40818 2-0.07144 3.5918 1.0102 4.7755 1.0816 1.1633 2.7551 1.7449 5.0204 1.7449 3.1224 0.000006 5.8469-1.102 8.1735-3.3061 2.3265-2.2245 3.8571-5.1735 4.5918-8.8469l0.27552-1.2551h-5.602m11.693-2.327-4.545 20.449h-5.6327l1.6676-6.0918c-1.6939 2.0816-3.6021 3.6224-5.7245 4.6224-2.1225 0.97959-4.5714 1.4694-7.3469 1.4694-3.5102 0-6.102-0.97959-7.7755-2.9388-1.6735-1.9796-2.1837-4.6224-1.5306-7.9286 0.7755-3.8571 2.6428-6.7653 5.602-8.7245 2.9796-1.9592 7.0306-2.9388 12.153-2.9388h7.898l0.12246-0.55102c0.51015-2.5918 0.05097-4.5918-1.3776-6-1.4082-1.4285-3.6531-2.1428-6.7347-2.1429-1.9592 0.00003-3.9184 0.23472-5.8776 0.70408-1.9388 0.46942-3.8572 1.1735-5.7551 2.1122l1.0408-5.2041c2.2245-0.79588 4.3367-1.3877 6.3367-1.7755 2.0204-0.40813 3.949-0.61221 5.7857-0.61225 4.9592 0.000036 8.4081 1.2857 10.347 3.8571 1.9387 2.5715 2.3877 6.4694 1.3469 11.694"/>
   <path id="path2864" style="fill:url(#linearGradient3047)" d="m51.615 47.878c-4.551 0.000015-7.8163 0.52042-9.7959 1.5612-1.9592 1.0408-3.1837 2.8163-3.6735 5.3265-0.40818 2-0.07144 3.5918 1.0102 4.7755 1.0816 1.1633 2.7551 1.7449 5.0204 1.7449 3.1224 0.000006 5.8469-1.102 8.1735-3.3061 2.3265-2.2245 3.8571-5.1735 4.5918-8.8469l0.27552-1.2551h-5.602m11.693-2.327-4.545 20.449h-5.6327l1.6676-6.0918c-1.6939 2.0816-3.6021 3.6224-5.7245 4.6224-2.1225 0.97959-4.5714 1.4694-7.3469 1.4694-3.5102 0-6.102-0.97959-7.7755-2.9388-1.6735-1.9796-2.1837-4.6224-1.5306-7.9286 0.7755-3.8571 2.6428-6.7653 5.602-8.7245 2.9796-1.9592 7.0306-2.9388 12.153-2.9388h7.898l0.12246-0.55102c0.51015-2.5918 0.05097-4.5918-1.3776-6-1.4082-1.4285-3.6531-2.1428-6.7347-2.1429-1.9592 0.00003-3.9184 0.23472-5.8776 0.70408-1.9388 0.46942-3.8572 1.1735-5.7551 2.1122l1.0408-5.2041c2.2245-0.79588 4.3367-1.3877 6.3367-1.7755 2.0204-0.40813 3.949-0.61221 5.7857-0.61225 4.9592 0.000036 8.4081 1.2857 10.347 3.8571 1.9387 2.5715 2.3877 6.4694 1.3469 11.694"/>
   <path id="path3936" style="opacity:.75;fill:#fff" d="m51.625 30c-1.8368 0.000036-3.7609 0.21687-5.7812 0.625-2 0.38779-4.1193 0.95412-6.3438 1.75l-1.0625 5.2188c0.071-0.036 0.147-0.059 0.218-0.094l0.844-4.125c2.2245-0.79588 4.3437-1.3622 6.3438-1.75 2.0204-0.40813 3.9445-0.62496 5.7812-0.625 4.9592 0.000036 8.4049 1.2724 10.344 3.8438 1.1765 1.5605 1.7957 3.6188 1.875 6.1562 0.06776-2.9997-0.54902-5.3975-1.875-7.1562-1.939-2.572-5.385-3.844-10.344-3.844zm6.75 11.438c-0.02426 0.47276-0.08505 0.94825-0.1875 1.4688l-0.125 0.5625h-7.875c-5.1225 0.000021-9.1767 0.97834-12.156 2.9375-2.9592 1.9592-4.8495 4.8616-5.625 8.7188-0.21371 1.0819-0.25419 2.0914-0.21875 3.0312 0.03363-0.64337 0.0798-1.3278 0.21875-2.0312 0.7755-3.8571 2.6658-6.7596 5.625-8.7188 2.9796-1.9592 7.0338-2.9375 12.156-2.9375h7.875l0.125-0.5625c0.17716-0.90003 0.24413-1.7114 0.1875-2.4688zm-1.375 7.437l-0.0625 0.25c-0.73472 3.6735-2.2672 6.6193-4.5938 8.8438-2.3266 2.2041-5.0338 3.3125-8.1562 3.3125-2.2653 0.000006-3.9496-0.58673-5.0312-1.75-0.677-0.74-1.063-1.629-1.157-2.687-0.10468 1.5006 0.27741 2.7258 1.1562 3.6875 1.0816 1.1633 2.7659 1.75 5.0312 1.75 3.1224 0.000006 5.8297-1.1084 8.1562-3.3125 2.3265-2.2245 3.859-5.1703 4.5938-8.8438l0.28125-1.25h-0.21875zm-2.1875 12.031c-0.12833 0.15771-0.27546 0.286-0.40625 0.4375l-1.281 4.656h0.28125l1.4062-5.0938z"/>
   <path id="path3945" style="opacity:.15" d="m50.094 33.781c-1.9592 0.00003-3.9158 0.21814-5.875 0.6875-1.8658 0.45175-3.7345 1.1448-5.5625 2.0312l-0.21875 1.0938c1.8979-0.93874 3.8425-1.6556 5.7812-2.125 1.9592-0.46936 3.9158-0.68747 5.875-0.6875 3.0816 0.00003 5.3106 0.69646 6.7188 2.125 0.93246 0.91918 1.4561 2.1078 1.5625 3.5312 0.09656-1.8813-0.42085-3.4059-1.5625-4.5312-1.4082-1.4285-3.6371-2.125-6.7188-2.125zm13.75 6.219c-0.03131 1.3862-0.2023 2.9113-0.53125 4.5625l-4.563 20.438h-5.344l-0.281 1h5.625l4.562-20.438c0.41-2.054 0.583-3.918 0.532-5.562zm-12.219 6.875c-4.551 0.000015-7.8329 0.5217-9.8125 1.5625-1.9592 1.0408-3.1665 2.8023-3.6562 5.3125-0.15307 0.75-0.21269 1.4585-0.15625 2.0938 0.02416-0.3463 0.07972-0.71875 0.15625-1.0938 0.48978-2.5102 1.6971-4.2717 3.6562-5.3125 1.9796-1.0408 5.2615-1.5625 9.8125-1.5625h5.375l0.21875-1h-5.5938zm-19.437 10.281c-0.12443 2.3805 0.43258 4.3478 1.75 5.9062 1.6735 1.9592 4.271 2.9375 7.7812 2.9375 2.7755 0 5.2213-0.48916 7.3438-1.4688 1.9616-0.92424 3.7482-2.3393 5.3438-4.1875l0.40625-1.4375c-1.6939 2.0816-3.6276 3.625-5.75 4.625-2.123 0.98-4.569 1.469-7.344 1.469-3.5102 0-6.1078-0.97832-7.7812-2.9375-1.1258-1.3318-1.6771-2.9741-1.75-4.9062z"/>
  </g>
  <rect id="rect3003" style="opacity:.15;fill:#fff" clip-path="url(#clipPath3009)" rx="25" ry="25" transform="translate(98 -.0000026172)" width="92" y="958.36" x="-96" height="92"/>
 </g>
</svg>
