<?xml version="1.0" encoding="UTF-8" standalone="no"?>
<!-- Created with Inkscape (http://www.inkscape.org/) -->
<svg id="svg11037" xmlns:rdf="http://www.w3.org/1999/02/22-rdf-syntax-ns#" xmlns="http://www.w3.org/2000/svg" height="96" width="96" version="1.1" xmlns:cc="http://creativecommons.org/ns#" xmlns:xlink="http://www.w3.org/1999/xlink" xmlns:dc="http://purl.org/dc/elements/1.1/">
 <defs id="defs11039">
  <clipPath id="clipPath3009" clipPathUnits="userSpaceOnUse">
   <path id="path3011" style="opacity:.15;fill:#fff" d="m-2 956.36h-96v33.562l96 25.687v-59.25z"/>
  </clipPath>
  <linearGradient id="linearGradient3941" x1="10.71" gradientUnits="userSpaceOnUse" y1="1.9963" gradientTransform="matrix(-2.9954 0 0 2.9954 81.138 16.173)" x2="10.71" y2="18.974">
   <stop id="stop3639-91" style="stop-color:#f0f0f0" offset="0"/>
   <stop id="stop3641-76" style="stop-color:#aaa" offset="1"/>
  </linearGradient>
 </defs>
 <metadata id="metadata11042">
  <rdf:RDF>
   <cc:Work rdf:about="">
    <dc:format>image/svg+xml</dc:format>
    <dc:type rdf:resource="http://purl.org/dc/dcmitype/StillImage"/>
    <dc:title/>
   </cc:Work>
  </rdf:RDF>
 </metadata>
 <g id="layer1" transform="translate(0 -956.36)">
  <rect id="rect3867" style="opacity:.6" rx="25" ry="25" height="92" width="92" y="958.36" x="2"/>
  <g id="g3070" transform="translate(0 956.36)">
   <path id="path3962" style="opacity:.3" d="m63 23.562c-0.27374 0-0.52854 0.05978-0.75 0.1875l-0.062 0.031-32.188 32.219-6 15 15-6 32.219-32.188c0.01258-0.01945 0.01964-0.04237 0.03125-0.0625 0.12772-0.22146 0.1875-0.47626 0.1875-0.75s-0.05978-0.52854-0.1875-0.75c-0.01161-0.02013-0.01867-0.04305-0.03125-0.0625l-7.407-7.406c-0.019-0.012-0.042-0.019-0.062-0.031-0.221-0.128-0.476-0.188-0.75-0.188zm-28.125 33.25 0.125 3.188h3l-1 3-9 4 4-9 2.875-1.1875zm27.125 2.188l-10 8 10 8v-4h12v-8h-12v-4z"/>
   <path id="path3934" style="fill:url(#linearGradient3941)" d="m63 22.562c-0.27374 0-0.52854 0.05978-0.75 0.1875l-0.062 0.031-32.188 32.219-6 15 15-6 32.219-32.188c0.01258-0.01945 0.01964-0.04237 0.03125-0.0625 0.12772-0.22146 0.1875-0.47626 0.1875-0.75s-0.05978-0.52854-0.1875-0.75c-0.01161-0.02013-0.01867-0.04305-0.03125-0.0625l-7.407-7.406c-0.019-0.012-0.042-0.019-0.062-0.031-0.221-0.128-0.476-0.188-0.75-0.188zm-28.125 33.25 0.125 3.188h3l-1 3-9 4 4-9 2.875-1.1875zm27.125 2.188l-10 8 10 8v-4h12v-8h-12v-4z"/>
   <path id="path3944" style="opacity:.75;fill:#fff" d="m63 22.562c-0.27374 0-0.52854 0.05978-0.75 0.1875l-0.062 0.031-32.188 32.219-6 15 0.469-0.188 5.531-13.812 32.188-32.219 0.062-0.031c0.22146-0.12772 0.47626-0.1875 0.75-0.1875s0.52854 0.05978 0.75 0.1875c0.02013 0.01161 0.04305 0.01867 0.0625 0.03125l7.4062 7.4062c0.01258 0.01945 0.01964 0.04237 0.03125 0.0625 0.04724 0.08191 0.09594 0.1597 0.125 0.25 0.04952-0.15385 0.0625-0.32751 0.0625-0.5 0-0.27374-0.05978-0.52854-0.1875-0.75-0.01161-0.02013-0.01867-0.04305-0.03125-0.0625l-7.406-7.406c-0.019-0.012-0.042-0.019-0.062-0.031-0.221-0.128-0.476-0.188-0.75-0.188zm-1 35.438-10 8 0.625 0.5 9.375-7.5v-1zm-24.344 2-0.656 2-8.438 3.75-0.562 1.25l9-4 1-3h-0.34375zm24.344 2v1h12v-1h-12z"/>
   <path id="path3953" style="opacity:.15" d="m71.375 30.5c-0.02906 0.0903-0.07776 0.16809-0.125 0.25-0.01161 0.02013-0.01867 0.04305-0.03125 0.0625l-32.219 32.188-14.531 5.812-0.469 1.188 15-6 32.219-32.188c0.01258-0.01945 0.01964-0.04237 0.03125-0.0625 0.12772-0.22146 0.1875-0.47626 0.1875-0.75 0-0.17249-0.01298-0.34615-0.0625-0.5zm-36.5 24.312-2.875 1.188-4 9 0.562-0.25 3.438-7.75 2.875-1.188 0.125 3.188h2.656l0.344-1h-3l-0.125-3.188zm17.75 10.688-0.625 0.5 10 8v-1l-9.375-7.5zm9.375 3.5v1h12v-1h-12z"/>
  </g>
  <rect id="rect3003" style="opacity:.15;fill:#fff" clip-path="url(#clipPath3009)" rx="25" ry="25" transform="translate(98 -.0000026172)" width="92" y="958.36" x="-96" height="92"/>
 </g>
</svg>
