<?xml version="1.0" encoding="UTF-8" standalone="no"?>
<!-- Created with Inkscape (http://www.inkscape.org/) -->
<svg id="svg11037" xmlns:rdf="http://www.w3.org/1999/02/22-rdf-syntax-ns#" xmlns="http://www.w3.org/2000/svg" height="96" width="96" version="1.1" xmlns:cc="http://creativecommons.org/ns#" xmlns:xlink="http://www.w3.org/1999/xlink" xmlns:dc="http://purl.org/dc/elements/1.1/">
 <defs id="defs11039">
  <clipPath id="clipPath3009" clipPathUnits="userSpaceOnUse">
   <path id="path3011" style="opacity:.15;fill:#fff" d="m-2 956.36h-96v33.562l96 25.687v-59.25z"/>
  </clipPath>
  <linearGradient id="linearGradient3045" x1="12.07" gradientUnits="userSpaceOnUse" y1="3.1332" gradientTransform="matrix(3,0,0,3,15,19)" x2="12.07" y2="19.053">
   <stop id="stop3639-487" style="stop-color:#f0f0f0" offset="0"/>
   <stop id="stop3641-69" style="stop-color:#aaa" offset="1"/>
  </linearGradient>
 </defs>
 <metadata id="metadata11042">
  <rdf:RDF>
   <cc:Work rdf:about="">
    <dc:format>image/svg+xml</dc:format>
    <dc:type rdf:resource="http://purl.org/dc/dcmitype/StillImage"/>
    <dc:title/>
   </cc:Work>
  </rdf:RDF>
 </metadata>
 <g id="layer1" transform="translate(0 -956.36)">
  <rect id="rect3867" style="opacity:.6" rx="25" ry="25" height="92" width="92" y="958.36" x="2"/>
  <g id="g3070" transform="translate(0 956.36)">
   <path id="path4088" style="opacity:.3" d="m47.719 29c-1.9028 0.000036-3.8978 0.24813-5.9062 0.65625-2.0085 0.38779-4.0522 0.89162-6.1875 1.6875v5.25c1.7759-0.93875 3.6073-1.6868 5.5312-2.1562 1.9239-0.46936 3.8766-0.65622 5.9062-0.65625 3.1924 0.00003 5.6515 0.72771 7.4062 2.1562 1.7759 1.4082 2.7187 3.4082 2.7188 6v0.5625h-8.25c-5.3066 0.000021-9.2213 0.94709-11.906 2.9062-2.664 1.959-4.031 4.862-4.031 8.719-0.000003 3.3061 1.0522 5.9892 3.1875 7.9688 2.156 1.959 5.082 2.906 8.718 2.906 2.8753 0 5.3252-0.52041 7.3125-1.5 1.9873-1 3.6368-2.5121 4.9688-4.5938l0.001 6.094h5.812v-20.438c0-5.224-1.307-9.147-3.844-11.718-2.537-2.572-6.3-3.844-11.437-3.844zm3.6562 17.906h5.8125v1.2188c-0.00003 3.6735-1.0339 6.588-3 8.8125-1.9451 2.2041-4.5466 3.375-7.7812 3.375-2.3467 0.000006-4.1571-0.61798-5.5312-1.7812-1.3531-1.1837-2.0625-2.7812-2.0625-4.7812-0.000009-2.5102 0.90056-4.3029 2.7188-5.3438 1.8182-1.0408 5.1291-1.5 9.8438-1.5zm-18.375 24.094v6h30v-6h-30z"/>
   <path id="path2864" style="fill:url(#linearGradient3045)" d="m47.719 28c-1.9028 0.000036-3.8978 0.24813-5.9062 0.65625-2.0085 0.38779-4.0522 0.89162-6.1875 1.6875v5.25c1.7759-0.93875 3.6073-1.6868 5.5312-2.1562 1.9239-0.46936 3.8766-0.65622 5.9062-0.65625 3.1924 0.00003 5.6515 0.72771 7.4062 2.1562 1.7759 1.4082 2.7187 3.4082 2.7188 6v0.5625h-8.25c-5.3066 0.000021-9.2213 0.94709-11.906 2.9062-2.664 1.959-4.031 4.862-4.031 8.719-0.000003 3.3061 1.0522 5.9892 3.1875 7.9688 2.156 1.959 5.082 2.906 8.718 2.906 2.8753 0 5.3252-0.52041 7.3125-1.5 1.9873-1 3.6368-2.5121 4.9688-4.5938l0.001 6.094h5.812v-20.438c0-5.224-1.307-9.147-3.844-11.718-2.537-2.572-6.3-3.844-11.437-3.844zm3.6562 17.906h5.8125v1.2188c-0.00003 3.6735-1.0339 6.588-3 8.8125-1.9451 2.2041-4.5466 3.375-7.7812 3.375-2.3467 0.000006-4.1571-0.61798-5.5312-1.7812-1.3531-1.1837-2.0625-2.7812-2.0625-4.7812-0.000009-2.5102 0.90056-4.3029 2.7188-5.3438 1.8182-1.0408 5.1291-1.5 9.8438-1.5zm-18.375 24.094v6h30v-6h-30z"/>
   <path id="path4070" style="opacity:.75;fill:#fff" d="m47.719 28c-1.9028 0.000036-3.8978 0.24813-5.9062 0.65625-2.0085 0.38779-4.0522 0.89162-6.1875 1.6875v1c2.1353-0.79588 4.179-1.2997 6.1875-1.6875 2.0084-0.40812 4.0035-0.65621 5.9062-0.65625 5.1374 0.000036 8.9005 1.2724 11.438 3.8438 2.537 2.5715 3.8437 6.4943 3.8438 11.719v-1c-0.001-5.225-1.308-9.148-3.845-11.719-2.537-2.572-6.3-3.844-11.437-3.844zm1.2188 13.5c-5.3066 0.000021-9.2213 0.94709-11.906 2.9062-2.665 1.959-4.032 4.862-4.032 8.719 0 0.15907 0.02638 0.31257 0.03125 0.46875 0.12297-3.5889 1.462-6.3209 4-8.1875 2.685-1.959 6.6-2.906 11.907-2.906h8.25v-0.5625c-0.000002-0.15102 0.0064-0.2905 0-0.4375h-8.25zm8.25 5.625c-0.00003 3.6735-1.0339 6.588-3 8.8125-1.9451 2.2041-4.5466 3.375-7.7812 3.375-2.3467 0.000006-4.1571-0.61798-5.5312-1.7812-1.25-1.0935-1.9318-2.5528-2.0312-4.3438-0.01087 0.18623-0.03125 0.3676-0.03125 0.5625-0.000009 2 0.70942 3.5976 2.0625 4.7812 1.3742 1.1633 3.1845 1.7813 5.5312 1.7812 3.2347 0.000006 5.8362-1.1709 7.7812-3.375 1.9661-2.2245 3-5.139 3-8.8125v-1zm-24.188 22.875v1h30v-1h-30z"/>
   <path id="path4079" style="opacity:.15" d="m47.062 31.781c-2.0296 0.00003-3.9824 0.18689-5.9062 0.65625-1.9239 0.46942-3.7554 1.2175-5.5312 2.1562v1c1.7759-0.93875 3.6073-1.6868 5.5312-2.1562 1.9239-0.46936 3.8766-0.65622 5.9062-0.65625 3.1924 0.00003 5.6515 0.72771 7.4062 2.1562 1.6724 1.3261 2.6156 3.1867 2.7188 5.5625v-0.5625c-0.00003-2.5918-0.94288-4.5918-2.7188-6-1.7548-1.4285-4.2139-2.1562-7.4062-2.1562zm4.3125 13.125c-4.7146 0.000015-8.0256 0.45919-9.8438 1.5s-2.7188 2.8336-2.7188 5.3438c-0.000001 0.15236 0.02305 0.28982 0.03125 0.4375 0.12907-2.2123 1.0105-3.8212 2.6875-4.7812 1.8182-1.0408 5.1291-1.5 9.8438-1.5h5.8125v-1h-5.8125zm-18.344 7.6875c-0.005 0.178-0.03 0.349-0.03 0.531-0.000003 3.3061 1.0522 5.9892 3.1875 7.9688 2.156 1.959 5.082 2.906 8.718 2.906 2.8753 0 5.3252-0.52041 7.3125-1.5 1.9873-1 3.6368-2.5121 4.9688-4.5938v-1c-1.332 2.0816-2.9815 3.5938-4.9688 4.5938-1.9873 0.97959-4.4372 1.5-7.3125 1.5-3.6364 0-6.5623-0.94707-8.7188-2.9062-2.0326-1.8843-3.0598-4.4102-3.1562-7.5zm24.158 10.406v1h5.8125v-1h-5.8125zm-24.188 12v1h30v-1h-30z"/>
  </g>
  <rect id="rect3003" style="opacity:.15;fill:#fff" clip-path="url(#clipPath3009)" rx="25" ry="25" transform="translate(98 -.0000026172)" width="92" y="958.36" x="-96" height="92"/>
 </g>
</svg>
