<?xml version="1.0" encoding="UTF-8" standalone="no"?>
<!-- Created with Inkscape (http://www.inkscape.org/) -->
<svg id="svg11037" xmlns:rdf="http://www.w3.org/1999/02/22-rdf-syntax-ns#" xmlns="http://www.w3.org/2000/svg" height="96" width="96" version="1.1" xmlns:cc="http://creativecommons.org/ns#" xmlns:xlink="http://www.w3.org/1999/xlink" xmlns:dc="http://purl.org/dc/elements/1.1/">
 <defs id="defs11039">
  <clipPath id="clipPath3009" clipPathUnits="userSpaceOnUse">
   <path id="path3011" style="opacity:.15;fill:#fff" d="m-2 956.36h-96v33.562l96 25.687v-59.25z"/>
  </clipPath>
  <linearGradient id="linearGradient3034" x1="12.028" gradientUnits="userSpaceOnUse" y1="4.5632" gradientTransform="matrix(5.2245 0 0 5.2245 -11.841 6.1598)" x2="12.028" y2="11.478">
   <stop id="stop3639-13" style="stop-color:#f0f0f0" offset="0"/>
   <stop id="stop3641-91" style="stop-color:#aaa" offset="1"/>
  </linearGradient>
 </defs>
 <metadata id="metadata11042">
  <rdf:RDF>
   <cc:Work rdf:about="">
    <dc:format>image/svg+xml</dc:format>
    <dc:type rdf:resource="http://purl.org/dc/dcmitype/StillImage"/>
    <dc:title/>
   </cc:Work>
  </rdf:RDF>
 </metadata>
 <g id="layer1" transform="translate(0 -956.36)">
  <rect id="rect3867" style="opacity:.6" rx="25" ry="25" height="92" width="92" y="958.36" x="2"/>
  <g id="g3070" transform="translate(0 956.36)">
   <path id="path3886" style="opacity:.3" d="m48.597 50.684c-2.2857 0.000015-4.0102 0.38777-5.1735 1.1633-1.1429 0.77552-1.7143 1.9184-1.7143 3.4286-0.000015 1.3878 0.45918 2.4796 1.3776 3.2755 0.93876 0.77552 2.2347 1.1633 3.8878 1.1633 2.0612 0.000006 3.7959-0.73469 5.2041-2.2041 1.4081-1.4898 2.1122-3.3469 2.1122-5.5714v-1.2551h-5.6939m16.745-4.1327v20.449h-11.051v-5.9694c-1.4694 2.0816-3.1225 3.602-4.9592 4.5612-1.837 0.939-4.072 1.408-6.704 1.408-3.551 0-6.4388-1.0306-8.6633-3.0918-2.2041-2.0816-3.3061-4.7755-3.3061-8.0816-0.000003-4.0204 1.3775-6.9694 4.1327-8.8469 2.7755-1.8775 7.1224-2.8163 13.041-2.8163h6.4592v-0.85714c-0.000027-1.7347-0.6837-3-2.051-3.7959-1.3674-0.8163-3.5-1.2245-6.398-1.2245-2.347 0.000027-4.5306 0.23472-6.551 0.70408-2.0204 0.46941-3.898 1.1735-5.6327 2.1122v-8.3571c2.3469-0.5714 4.7041-0.99997 7.0714-1.2857 2.3673-0.30609 4.7347-0.45915 7.102-0.45919 6.1836 0.000036 10.643 1.2245 13.378 3.6735 2.7551 2.4286 4.1326 6.3878 4.1326 11.878"/>
   <path id="path2847" style="fill:url(#linearGradient3034)" d="m48.597 49.684c-2.2857 0.000015-4.0102 0.38777-5.1735 1.1633-1.1429 0.77552-1.7143 1.9184-1.7143 3.4286-0.000015 1.3878 0.45918 2.4796 1.3776 3.2755 0.93876 0.77552 2.2347 1.1633 3.8878 1.1633 2.0612 0.000006 3.7959-0.73469 5.2041-2.2041 1.4081-1.4898 2.1122-3.3469 2.1122-5.5714v-1.2551h-5.6939m16.745-4.1327v20.449h-11.051v-5.9694c-1.4694 2.0816-3.1225 3.602-4.9592 4.5612-1.837 0.939-4.072 1.408-6.704 1.408-3.551 0-6.4388-1.0306-8.6633-3.0918-2.2041-2.0816-3.3061-4.7755-3.3061-8.0816-0.000003-4.0204 1.3775-6.9694 4.1327-8.8469 2.7755-1.8775 7.1224-2.8163 13.041-2.8163h6.4592v-0.85714c-0.000027-1.7347-0.6837-3-2.051-3.7959-1.3674-0.8163-3.5-1.2245-6.398-1.2245-2.347 0.000027-4.5306 0.23472-6.551 0.70408-2.0204 0.46941-3.898 1.1735-5.6327 2.1122v-8.3571c2.3469-0.5714 4.7041-0.99997 7.0714-1.2857 2.3673-0.30609 4.7347-0.45915 7.102-0.45919 6.1836 0.000036 10.643 1.2245 13.378 3.6735 2.7551 2.4286 4.1326 6.3878 4.1326 11.878"/>
   <path id="path3868" style="opacity:.75;fill:#fff" d="m47.844 30c-2.3674 0.000036-4.7577 0.16266-7.125 0.46875-2.3674 0.28575-4.7156 0.70986-7.0625 1.2812v1c2.3469-0.5714 4.6951-0.9955 7.0625-1.2812 2.3673-0.30609 4.7576-0.46871 7.125-0.46875 6.1836 0.000036 10.64 1.2386 13.375 3.6875 2.7551 2.4286 4.125 6.3852 4.125 11.875v-1c-0.000039-5.4898-1.3699-9.4464-4.125-11.875-2.735-2.448-7.192-3.687-13.375-3.687zm0 13.156c-5.9184 0.000021-10.287 0.93497-13.062 2.8125-2.7551 1.8776-4.125 4.8234-4.125 8.8438 0 0.15907 0.02615 0.31251 0.03125 0.46875 0.12147-3.7401 1.466-6.5217 4.0938-8.3125 2.7755-1.8775 7.1441-2.8125 13.062-2.8125h6.4375v-0.84375c-0.000001-0.05407 0.0013-0.10309 0-0.15625h-6.4375zm6.4375 7.7812c-0.000027 2.2245-0.68561 4.0727-2.0938 5.5625-1.4082 1.4694-3.1575 2.2188-5.2188 2.2188-1.6531 0.000006-2.9362-0.38073-3.875-1.1562-0.808-0.699-1.246-1.655-1.344-2.812-0.01593 0.16808-0.03125 0.35293-0.03125 0.53125-0.000015 1.3878 0.45663 2.4853 1.375 3.2812 0.93876 0.77552 2.2219 1.1563 3.875 1.1562 2.0612 0.000006 3.8106-0.74936 5.2188-2.2188 1.4081-1.4898 2.0937-3.338 2.0938-5.5625v-1z"/>
   <path id="path3877" style="opacity:.15" d="m45.844 36.281c-2.347 0.000027-4.5421 0.24939-6.5625 0.71875-2.0204 0.46941-3.8903 1.155-5.625 2.0938v1c1.7347-0.93875 3.6046-1.6243 5.625-2.0938 2.0204-0.46936 4.2155-0.71872 6.5625-0.71875 2.8979 0.000027 5.0389 0.40245 6.4062 1.2188 1.3247 0.77113 1.9899 2.004 2.0312 3.6562v-0.84375c0-1.734-0.664-3.016-2.031-3.812-1.367-0.816-3.508-1.219-6.406-1.219zm2.75 12.406c-2.2857 0.000015-3.993 0.38076-5.1562 1.1562-1.1429 0.77552-1.7188 1.9273-1.7188 3.4375-0.000002 0.15675 0.01953 0.2883 0.03125 0.4375 0.12499-1.2411 0.68749-2.1964 1.6875-2.875 1.1632-0.77549 2.8705-1.1562 5.1562-1.1562h5.6875v-1h-5.6875zm-17.906 5.594c-0.0059 0.18127-0.03125 0.3454-0.03125 0.53125-0.000003 3.3061 1.1084 6.0121 3.3125 8.0938 2.224 2.061 5.105 3.094 8.656 3.094 2.6326 0 4.882-0.46748 6.7188-1.4062 1.8367-0.95919 3.4681-2.4809 4.9375-4.5625v-1c-1.4694 2.0816-3.1008 3.6033-4.9375 4.5625-1.837 0.939-4.086 1.406-6.719 1.406-3.551 0-6.432-1.033-8.656-3.094-2.098-1.981-3.181-4.534-3.281-7.625zm23.593 10.719v1h11.062v-1h-11.062z"/>
  </g>
  <rect id="rect3003" style="opacity:.15;fill:#fff" clip-path="url(#clipPath3009)" rx="25" ry="25" transform="translate(98 -.0000026172)" width="92" y="958.36" x="-96" height="92"/>
 </g>
</svg>
