<?xml version="1.0" encoding="UTF-8" standalone="no"?>
<!-- Created with Inkscape (http://www.inkscape.org/) -->
<svg id="svg11037" xmlns:rdf="http://www.w3.org/1999/02/22-rdf-syntax-ns#" xmlns="http://www.w3.org/2000/svg" height="96" width="96" version="1.1" xmlns:cc="http://creativecommons.org/ns#" xmlns:xlink="http://www.w3.org/1999/xlink" xmlns:dc="http://purl.org/dc/elements/1.1/">
 <defs id="defs11039">
  <clipPath id="clipPath3009" clipPathUnits="userSpaceOnUse">
   <path id="path3011" style="opacity:.15;fill:#fff" d="m-2 956.36h-96v33.562l96 25.687v-59.25z"/>
  </clipPath>
  <linearGradient id="linearGradient3746-5" x1="49" gradientUnits="userSpaceOnUse" y1="72.09" gradientTransform="matrix(1.2632 0 0 1 -18.947 0)" x2="49" y2="23.729">
   <stop id="stop4083-167" style="stop-color:#aaa" offset="0"/>
   <stop id="stop4085-08" style="stop-color:#f0f0f0" offset="1"/>
  </linearGradient>
 </defs>
 <metadata id="metadata11042">
  <rdf:RDF>
   <cc:Work rdf:about="">
    <dc:format>image/svg+xml</dc:format>
    <dc:type rdf:resource="http://purl.org/dc/dcmitype/StillImage"/>
    <dc:title/>
   </cc:Work>
  </rdf:RDF>
 </metadata>
 <g id="layer1" transform="translate(0 -956.36)">
  <rect id="rect3867" style="opacity:.6" rx="25" ry="25" height="92" width="92" y="958.36" x="2"/>
  <g id="g3053" transform="translate(0 956.36)">
   <path id="path3951" style="opacity:.3" d="m24 25v6h38v-6zm0 10v6h48v-6zm0 10v6h28v-6zm8 11-8 8 8 9v-6h14v-6h-14z"/>
   <path id="path3724" style="fill:url(#linearGradient3746-5)" d="m24 24v6h38v-6zm0 10v6h48v-6zm0 10v6h28v-6zm8 11-8 8 8 9v-6h14v-6h-14z"/>
   <path id="path3165" style="opacity:.75;fill:#fff" d="m24 24v1h38v-1h-38zm0 10v1h48v-1h-48zm0 10v1h28v-1h-28zm8 11-8 8 0.46875 0.53125l7.531-7.531v-1zm0 5v1h14v-1h-14z"/>
   <path id="path3942" style="opacity:.15" d="m24 29v1h38v-1h-38zm0 10v1h48v-1h-48zm0 10v1h28v-1h-28zm0.469 13.531-0.469 0.469l8 9v-1l-7.5312-8.4688zm7.531 2.469v1h14v-1h-14z"/>
  </g>
  <rect id="rect3003" style="opacity:.15;fill:#fff" clip-path="url(#clipPath3009)" rx="25" ry="25" transform="translate(98 -.0000026172)" width="92" y="958.36" x="-96" height="92"/>
 </g>
</svg>
