<?xml version="1.0" encoding="UTF-8" standalone="no"?>
<!-- Created with Inkscape (http://www.inkscape.org/) -->
<svg id="svg11037" xmlns:rdf="http://www.w3.org/1999/02/22-rdf-syntax-ns#" xmlns="http://www.w3.org/2000/svg" height="96" width="96" version="1.1" xmlns:cc="http://creativecommons.org/ns#" xmlns:xlink="http://www.w3.org/1999/xlink" xmlns:dc="http://purl.org/dc/elements/1.1/">
 <defs id="defs11039">
  <clipPath id="clipPath3009" clipPathUnits="userSpaceOnUse">
   <path id="path3011" style="opacity:.15;fill:#fff" d="m-2 956.36h-96v33.562l96 25.687v-59.25z"/>
  </clipPath>
  <linearGradient id="linearGradient4013" x1="49" gradientUnits="userSpaceOnUse" y1="72.09" gradientTransform="matrix(-1.1965 0 0 1 106.68 0)" x2="49" y2="23.729">
   <stop id="stop4083-64" style="stop-color:#aaa" offset="0"/>
   <stop id="stop4085-0" style="stop-color:#f0f0f0" offset="1"/>
  </linearGradient>
 </defs>
 <metadata id="metadata11042">
  <rdf:RDF>
   <cc:Work rdf:about="">
    <dc:format>image/svg+xml</dc:format>
    <dc:type rdf:resource="http://purl.org/dc/dcmitype/StillImage"/>
    <dc:title/>
   </cc:Work>
  </rdf:RDF>
 </metadata>
 <g id="layer1" transform="translate(0 -956.36)">
  <rect id="rect3867" style="opacity:.6" rx="25" ry="25" height="92" width="92" y="958.36" x="2"/>
  <g id="g3053" transform="translate(0 956.36)">
   <path id="path4042" style="opacity:.3" d="m30 25v6h36v-6h-36zm-6 10v6h48v-6h-48zm10 10v6h28v-6h-28zm6 11v5h-14v6h14v6l8-9-8-8zm8 8 8 9v-6h14v-6h-14v-5l-8 8z"/>
   <path id="path4011" style="fill:url(#linearGradient4013)" d="m30 24v6h36v-6h-36zm-6 10v6h48v-6h-48zm10 10v6h28v-6h-28zm6 11v5h-14v6h14v6l8-9-8-8zm8 8 8 9v-6h14v-6h-14v-5l-8 8z"/>
   <path id="path4024" style="opacity:.75;fill:#fff" d="m30 24v1h36v-1h-36zm-6 10v1h48v-1h-48zm10 10v1h28v-1h-28zm6 11v1l7.5312 7.5312 0.469-0.531-8-8zm8 8 0.46875 0.53125l7.531-7.531v-1l-8 8zm-22-3v1h14v-1h-14zm30 0v1h14v-1h-14z"/>
   <path id="path4033" style="opacity:.15" d="m30 29v1h36v-1h-36zm-6 10v1h48v-1h-48zm10 10v1h28v-1h-28zm13.531 13.531-7.531 8.469v1l8-9-0.46875-0.46875zm0.469 0.469 8 9v-1l-7.531-8.469-0.469 0.469zm-22 2v1h14v-1h-14zm30 0v1h14v-1h-14z"/>
  </g>
  <rect id="rect3003" style="opacity:.15;fill:#fff" clip-path="url(#clipPath3009)" rx="25" ry="25" transform="translate(98 -.0000026172)" width="92" y="958.36" x="-96" height="92"/>
 </g>
</svg>
