<?xml version="1.0" encoding="UTF-8" standalone="no"?>
<!-- Created with Inkscape (http://www.inkscape.org/) -->
<svg id="svg11037" xmlns:rdf="http://www.w3.org/1999/02/22-rdf-syntax-ns#" xmlns="http://www.w3.org/2000/svg" height="96" width="96" version="1.1" xmlns:cc="http://creativecommons.org/ns#" xmlns:xlink="http://www.w3.org/1999/xlink" xmlns:dc="http://purl.org/dc/elements/1.1/">
 <defs id="defs11039">
  <clipPath id="clipPath3009" clipPathUnits="userSpaceOnUse">
   <path id="path3011" style="opacity:.15;fill:#fff" d="m-2 956.36h-96v33.562l96 25.687v-59.25z"/>
  </clipPath>
  <linearGradient id="linearGradient3823" x1="12.07" gradientUnits="userSpaceOnUse" y1="3.1332" gradientTransform="matrix(3,0,0,3,15,20)" x2="12.07" y2="19.053">
   <stop id="stop3639-39" style="stop-color:#f0f0f0" offset="0"/>
   <stop id="stop3641-60" style="stop-color:#aaa" offset="1"/>
  </linearGradient>
 </defs>
 <metadata id="metadata11042">
  <rdf:RDF>
   <cc:Work rdf:about="">
    <dc:format>image/svg+xml</dc:format>
    <dc:type rdf:resource="http://purl.org/dc/dcmitype/StillImage"/>
    <dc:title/>
   </cc:Work>
  </rdf:RDF>
 </metadata>
 <g id="layer1" transform="translate(0 -956.36)">
  <rect id="rect3867" style="opacity:.6" rx="25" ry="25" height="92" width="92" y="958.36" x="2"/>
  <g id="g3070" transform="translate(0 956.36)">
   <path id="path4020" style="opacity:.3" d="m47.719 30c-1.9028 0.000036-3.8978 0.24813-5.9062 0.65625-2.0085 0.38779-4.0522 0.89162-6.1875 1.6875v5.25c1.7759-0.93875 3.6073-1.6868 5.5312-2.1562 1.9239-0.46936 3.8766-0.65622 5.9062-0.65625 3.1924 0.00003 5.6515 0.72771 7.4062 2.1562 1.7759 1.4082 2.7187 3.4082 2.7188 6v0.5625h-8.25c-5.3066 0.000021-9.2213 0.94709-11.906 2.9062-1.597 1.175-2.631 2.739-3.281 4.594h-6.75v6h6.1875c0.33809 2.4416 1.2924 4.5107 3 6.0938 2.156 1.959 5.082 2.906 8.718 2.906 2.8753 0 5.3252-0.52041 7.3125-1.5 1.9873-1 3.6368-2.5121 4.9688-4.5938v6.0938h5.8125v-9h6v-6h-6v-5.4375c0.001-5.224-1.306-9.147-3.843-11.718-2.537-2.572-6.3-3.844-11.437-3.844zm3.6562 17.906h5.8125v1.2188c-0.000006 0.65498-0.0285 1.2679-0.09375 1.875h-17.25c0.42936-0.62384 0.98568-1.192 1.6875-1.5938 1.8182-1.0408 5.1291-1.5 9.8438-1.5zm-12.187 9.094h15.656c-0.22278 0.31076-0.4021 0.64996-0.65625 0.9375-1.9451 2.2041-4.5466 3.375-7.7812 3.375-2.3467 0.000006-4.1571-0.61798-5.5312-1.7812-0.799-0.699-1.351-1.546-1.687-2.531z"/>
   <path id="path2871" style="fill:url(#linearGradient3823)" d="m47.719 29c-1.9028 0.000036-3.8978 0.24813-5.9062 0.65625-2.0085 0.38779-4.0522 0.89162-6.1875 1.6875v5.25c1.7759-0.93875 3.6073-1.6868 5.5312-2.1562 1.9239-0.46936 3.8766-0.65622 5.9062-0.65625 3.1924 0.00003 5.6515 0.72771 7.4062 2.1562 1.7759 1.4082 2.7187 3.4082 2.7188 6v0.5625h-8.25c-5.3066 0.000021-9.2213 0.94709-11.906 2.9062-1.597 1.175-2.631 2.739-3.281 4.594h-6.75v6h6.1875c0.33809 2.4416 1.2924 4.5107 3 6.0938 2.156 1.959 5.082 2.906 8.718 2.906 2.8753 0 5.3252-0.52041 7.3125-1.5 1.9873-1 3.6368-2.5121 4.9688-4.5938v6.0938h5.8125v-9h6v-6h-6v-5.4375c0.001-5.224-1.306-9.147-3.843-11.718-2.537-2.572-6.3-3.844-11.437-3.844zm3.6562 17.906h5.8125v1.2188c-0.000006 0.65498-0.0285 1.2679-0.09375 1.875h-17.25c0.42936-0.62384 0.98568-1.192 1.6875-1.5938 1.8182-1.0408 5.1291-1.5 9.8438-1.5zm-12.187 9.094h15.656c-0.22278 0.31076-0.4021 0.64996-0.65625 0.9375-1.9451 2.2041-4.5466 3.375-7.7812 3.375-2.3467 0.000006-4.1571-0.61798-5.5312-1.7812-0.799-0.699-1.351-1.546-1.687-2.531z"/>
   <path id="path4002" style="opacity:.75;fill:#fff" d="m47.719 29c-1.9028 0.000036-3.8978 0.24813-5.9062 0.65625-2.0085 0.38779-4.0522 0.89162-6.1875 1.6875v1c2.1353-0.79588 4.179-1.2997 6.1875-1.6875 2.0084-0.40812 4.0035-0.65621 5.9062-0.65625 5.1374 0.000036 8.9005 1.2724 11.438 3.8438 2.537 2.5715 3.8437 6.4943 3.8438 11.719v-1c-0.001-5.225-1.308-9.148-3.845-11.719-2.537-2.572-6.3-3.844-11.437-3.844zm1.2188 13.5c-5.3066 0.000021-9.2213 0.94709-11.906 2.9062-1.598 1.175-2.632 2.739-3.282 4.594h-6.75v1h6.75c0.64984-1.8547 1.6845-3.4194 3.2812-4.5938 2.685-1.959 6.6-2.906 11.907-2.906h8.25v-0.5625c-0.000002-0.15102 0.0064-0.2905 0-0.4375h-8.25zm8.25 5.625c-0.000006 0.65498-0.0285 1.2679-0.09375 1.875h-16.344c-0.3431 0.30534-0.65432 0.63395-0.90625 1h17.25c0.06525-0.60712 0.09374-1.22 0.09375-1.875v-1zm5.812 1.875v1h6v-1h-6zm-23.812 7c0.33658 0.98524 0.88851 1.8323 1.6875 2.5312 1.3742 1.1633 3.1845 1.7813 5.5312 1.7812 3.2347 0.000006 5.8362-1.1709 7.7812-3.375 0.254-0.287 0.433-0.626 0.656-0.937h-0.719c-1.9385 2.1607-4.5171 3.3125-7.7188 3.3125-2.3467 0.000006-4.1571-0.61798-5.5312-1.7812-0.514-0.45-0.932-0.961-1.25-1.531h-0.4375z"/>
   <path id="path4011" style="opacity:.15" d="m47.062 32.781c-2.0296 0.00003-3.9824 0.18689-5.9062 0.65625-1.9239 0.46942-3.7554 1.2175-5.5312 2.1562v1c1.7759-0.93875 3.6073-1.6868 5.5312-2.1562 1.9239-0.46936 3.8766-0.65622 5.9062-0.65625 3.1924 0.00003 5.6515 0.72771 7.4062 2.1562 1.6724 1.3261 2.6156 3.1867 2.7188 5.5625v-0.5625c-0.00003-2.5918-0.94288-4.5918-2.7188-6-1.7548-1.4285-4.2139-2.1562-7.4062-2.1562zm4.3125 13.125c-4.7146 0.000015-8.0256 0.45919-9.8438 1.5-0.701 0.402-1.257 0.97-1.686 1.594h0.906c0.24163-0.21504 0.49123-0.42773 0.78125-0.59375 1.8182-1.0408 5.1291-1.5 9.8438-1.5h5.8125v-1h-5.8125zm-24.374 9.094v1h6.1875c0.33809 2.4416 1.2924 4.5107 3 6.0938 2.156 1.959 5.082 2.906 8.718 2.906 2.8753 0 5.3252-0.52041 7.3125-1.5 1.9873-1 3.6368-2.5121 4.9688-4.5938v-1c-1.331 2.082-2.981 3.594-4.968 4.594-1.988 0.98-4.437 1.5-7.313 1.5-3.636 0-6.562-0.947-8.718-2.906-1.708-1.583-2.662-3.652-3-6.094h-6.188zm12.188 0c0.11996 0.35115 0.26139 0.68441 0.4375 1h14.5c0.01998-0.02227 0.04266-0.04002 0.0625-0.0625 0.254-0.288 0.433-0.627 0.656-0.938h-15.656zm23.812 0v1h6v-1h-6zm-5.8125 9v1h5.8125v-1h-5.8125z"/>
  </g>
  <rect id="rect3003" style="opacity:.15;fill:#fff" clip-path="url(#clipPath3009)" rx="25" ry="25" transform="translate(98 -.0000026172)" width="92" y="958.36" x="-96" height="92"/>
 </g>
</svg>
