<?xml version="1.0" encoding="UTF-8" standalone="no"?>
<!-- Created with Inkscape (http://www.inkscape.org/) -->
<svg id="svg11037" xmlns:rdf="http://www.w3.org/1999/02/22-rdf-syntax-ns#" xmlns="http://www.w3.org/2000/svg" height="96" width="96" version="1.1" xmlns:cc="http://creativecommons.org/ns#" xmlns:xlink="http://www.w3.org/1999/xlink" xmlns:dc="http://purl.org/dc/elements/1.1/">
 <defs id="defs11039">
  <linearGradient id="linearGradient11642" x1="48" gradientUnits="userSpaceOnUse" x2="48" gradientTransform="matrix(1.15 0 0 1.15 -7.1999 -150.65)" y1="962.62" y2="1046.1">
   <stop id="stop3189-4" style="stop-color:#c8c8c8" offset="0"/>
   <stop id="stop3191-0" style="stop-color:#e6e6e6" offset="1"/>
  </linearGradient>
  <clipPath id="clipPath3009" clipPathUnits="userSpaceOnUse">
   <path id="path3011" style="opacity:.15;fill:#fff" d="m-2 956.36h-96v33.562l96 25.687v-59.25z"/>
  </clipPath>
  <filter id="filter3851" color-interpolation-filters="sRGB">
   <feGaussianBlur id="feGaussianBlur3853" stdDeviation="0.15745957"/>
  </filter>
  <linearGradient id="linearGradient2902" y2="15.422" gradientUnits="userSpaceOnUse" y1="5.3143" x2="12.34" x1="10.735">
   <stop id="stop3653" style="stop-color:#f3840c" offset="0"/>
   <stop id="stop3655" style="stop-color:#f9ba3f" offset="1"/>
  </linearGradient>
 </defs>
 <metadata id="metadata11042">
  <rdf:RDF>
   <cc:Work rdf:about="">
    <dc:format>image/svg+xml</dc:format>
    <dc:type rdf:resource="http://purl.org/dc/dcmitype/StillImage"/>
    <dc:title/>
   </cc:Work>
  </rdf:RDF>
 </metadata>
 <g id="layer1" transform="translate(0 -956.36)">
  <rect id="rect3867" style="fill:url(#linearGradient11642)" rx="25" ry="25" height="92" width="92" y="958.36" x="2"/>
  <g id="g3054" transform="translate(3.5037e-7 1030.4)">
   <path id="path3081" style="opacity:.2;color:#000000;filter:url(#filter3851);stroke:#fff;stroke-width:.68231;fill:none" transform="matrix(5.7899 .91933 -.91933 5.7899 -5.5804 -96.639)" d="m15 15-3.558-1.206-3.0102 2.246 0.0481-3.756-3.0671-2.169 3.5872-1.115l1.1151-3.5872 2.169 3.0671 3.7562-0.048011-2.2467 3.0106z"/>
   <path id="path3649" style="color:#000000;fill:url(#linearGradient2902)" transform="matrix(5.7899 .91933 -.91933 5.7899 -5.5804 -96.639)" d="m15 15-3.558-1.206-3.0102 2.246 0.0481-3.756-3.0671-2.169 3.5872-1.115l1.1151-3.5872 2.169 3.0671 3.7562-0.048011-2.2467 3.0106z"/>
   <path id="path3899" style="opacity:.1;color:#000000;fill:#d45500" transform="translate(0,-74)" d="m48 18-9.75 19.75-21.781 3.1562 15.75 15.375l-3.719 21.719 19.5-10.25 19.469 10.25-3.719-21.719 15.781-15.343-21.781-3.188-9.75-19.75zm-0.03125 4.0312 8.1562 16.5a1.7703 1.7703 0 0 0 1.344 0.969l18.094 2.6875-13.125 12.75a1.7703 1.7703 0 0 0 -0.28125 0.5 1.7703 1.7703 0 0 0 -0.1875 1.0938l3.219 18.312-16.407-8.719a1.7703 1.7703 0 0 0 -1.656 -0.063l-16.219 8.5312 3.0625-18.062a1.7703 1.7703 0 0 0 -0.5 -1.5625l-13.157-12.843 18.219-2.656a1.7703 1.7703 0 0 0 1.0312 -0.59375 1.7703 1.7703 0 0 0 0.25 -0.34375l8.1562-16.5z"/>
   <path id="path3127" style="opacity:.2;color:#000000;fill:#d45500" transform="translate(0,-74)" d="m48 18-9.75 19.75-21.781 3.1562 15.75 15.375l-3.719 21.719 19.5-10.25 19.469 10.25-3.719-21.719 15.781-15.343-21.781-3.188-9.75-19.75zm-0.03125 1.8125 8.9688 18.312a0.81396 0.81396 0 0 0 0.1875 0.03125 0.81396 0.81396 0 0 0 0.125 0.1875 0.81396 0.81396 0 0 0 0.1875 0.03125 0.81396 0.81396 0 0 0 0.1875 0.03125l20.125 3-14.688 14.188a0.81396 0.81396 0 0 0 -0.032 0.188 0.81396 0.81396 0 0 0 -0.031 0.188 0.81396 0.81396 0 0 0 -0.031 0.156 0.81396 0.81396 0 0 0 -0.031 0.187l3.4688 20.219-18.125-9.5625a0.81396 0.81396 0 0 0 -0.1875 -0.03125 0.81396 0.81396 0 0 0 -0.1875 -0.03125 0.81396 0.81396 0 0 0 -0.1875 -0.03125 0.81396 0.81396 0 0 0 -0.1875 -0.03125l-18 9.5938 3.343-20.062a0.81396 0.81396 0 0 0 0.031 -0.187 0.81396 0.81396 0 0 0 0.032 -0.188 0.81396 0.81396 0 0 0 -0.157 -0.188 0.81396 0.81396 0 0 0 0.031 -0.187l-14.624-14.187 20.124-2.938a0.81396 0.81396 0 0 0 0.1875 0.03125 0.81396 0.81396 0 0 0 0.21875 -0.15625 0.81396 0.81396 0 0 0 0.1875 -0.15625 0.81396 0.81396 0 0 0 0.03125 -0.1875l9.032-18.219z"/>
   <path id="path3925" style="opacity:.5;color:#000000;fill:#d45500" transform="translate(0,-74)" d="m48 18-9.75 19.75-21.781 3.156 0.906 0.875 20.875-3.031 9.75-19.75 9.75 19.75 20.875 3.062 0.906-0.874-21.781-3.188-9.75-19.75zm-15.938 39.125-3.562 20.875 0.188-0.094 3.531-20.625-0.157-0.156zm31.844 0-0.15625 0.15625 3.5312 20.625l0.188 0.094-3.563-20.875z"/>
   <path id="path3934" style="opacity:.5;color:#000000;fill:#fff" transform="translate(0,-74)" d="m17.375 41.781-0.90625 0.125l15.593 15.219 0.157-0.844-14.844-14.5zm61.25 0.031-14.875 14.469 0.156 0.844 15.625-15.187-0.906-0.126zm-30.625 25.938-19.312 10.156-0.188 1.094 19.5-10.25 19.469 10.25-0.188-1.094-19.281-10.156z"/>
  </g>
  <rect id="rect3003" style="opacity:.15;fill:#fff" clip-path="url(#clipPath3009)" rx="25" ry="25" transform="translate(98)" width="92" y="958.36" x="-96" height="92"/>
 </g>
</svg>
