<?xml version="1.0" encoding="UTF-8" standalone="no"?>
<!-- Created with Inkscape (http://www.inkscape.org/) -->
<svg id="svg11037" xmlns:rdf="http://www.w3.org/1999/02/22-rdf-syntax-ns#" xmlns="http://www.w3.org/2000/svg" height="96" width="96" version="1.1" xmlns:cc="http://creativecommons.org/ns#" xmlns:xlink="http://www.w3.org/1999/xlink" xmlns:dc="http://purl.org/dc/elements/1.1/">
 <defs id="defs11039">
  <clipPath id="clipPath3009" clipPathUnits="userSpaceOnUse">
   <path id="path3011" style="opacity:.15;fill:#fff" d="m-2 956.36h-96v33.562l96 25.687v-59.25z"/>
  </clipPath>
  <linearGradient id="linearGradient3862-4" x1="5.0137" gradientUnits="userSpaceOnUse" y1="8.377" gradientTransform="matrix(0 2.7923 3.2231 0 16 15)" x2="18.622" y2="8.377">
   <stop id="stop3639-28" style="stop-color:#f0f0f0" offset="0"/>
   <stop id="stop3641-322" style="stop-color:#aaa" offset="1"/>
  </linearGradient>
 </defs>
 <metadata id="metadata11042">
  <rdf:RDF>
   <cc:Work rdf:about="">
    <dc:format>image/svg+xml</dc:format>
    <dc:type rdf:resource="http://purl.org/dc/dcmitype/StillImage"/>
    <dc:title/>
   </cc:Work>
  </rdf:RDF>
 </metadata>
 <g id="layer1" transform="translate(0 -956.36)">
  <rect id="rect3867" style="opacity:.6" rx="25" ry="25" height="92" width="92" y="958.36" x="2"/>
  <g id="g3070" transform="translate(0 956.36)">
   <path id="path3882" style="opacity:.3" d="m74 58.906h-16.094v9.0938l-29.906-19 29.906-19v9h16.094v19.906zm-46-9.906v18h-6v-36h6v18z"/>
   <path id="Symbol" style="fill:url(#linearGradient3862-4)" d="m74 38.094h-16.094v-9.0938l-29.906 19 29.906 19v-9h16.094v-19.906zm-46 9.906v-18h-6v36h6v-18z"/>
   <path id="path3934" style="opacity:.75;fill:#fff" d="m57.906 29-29.906 19l0.78125 0.5 29.125-18.5v-1zm-35.906 1v1h6v-1h-6zm35.906 8.0938v1h16.094v-1h-16.094z"/>
   <path id="path3943" style="opacity:.15" d="m28.781 47.5-0.781 0.5l29.906 19v-1l-29.125-18.5zm29.125 9.5v1h16.094v-1h-16.094zm-35.906 8v1h6v-1h-6z"/>
  </g>
  <rect id="rect3003" style="opacity:.15;fill:#fff" clip-path="url(#clipPath3009)" rx="25" ry="25" transform="translate(98 -.0000026172)" width="92" y="958.36" x="-96" height="92"/>
 </g>
</svg>
