<?xml version="1.0" encoding="UTF-8" standalone="no"?>
<!-- Created with Inkscape (http://www.inkscape.org/) -->
<svg id="svg11037" xmlns:rdf="http://www.w3.org/1999/02/22-rdf-syntax-ns#" xmlns="http://www.w3.org/2000/svg" height="96" width="96" version="1.1" xmlns:cc="http://creativecommons.org/ns#" xmlns:xlink="http://www.w3.org/1999/xlink" xmlns:dc="http://purl.org/dc/elements/1.1/">
 <defs id="defs11039">
  <clipPath id="clipPath3009" clipPathUnits="userSpaceOnUse">
   <path id="path3011" style="opacity:.15;fill:#fff" d="m-2 956.36h-96v33.562l96 25.687v-59.25z"/>
  </clipPath>
  <linearGradient id="linearGradient3875" x1="11.162" gradientUnits="userSpaceOnUse" y1="-1.131" gradientTransform="matrix(3.3931 0 0 2.6525 24 29)" x2="11.162" y2="16.588">
   <stop id="stop3639-12" style="stop-color:#f0f0f0" offset="0"/>
   <stop id="stop3641-77" style="stop-color:#aaa" offset="1"/>
  </linearGradient>
 </defs>
 <metadata id="metadata11042">
  <rdf:RDF>
   <cc:Work rdf:about="">
    <dc:format>image/svg+xml</dc:format>
    <dc:type rdf:resource="http://purl.org/dc/dcmitype/StillImage"/>
    <dc:title/>
   </cc:Work>
  </rdf:RDF>
 </metadata>
 <g id="layer1" transform="translate(0 -956.36)">
  <rect id="rect3867" style="opacity:.6" rx="25" ry="25" height="92" width="92" y="958.36" x="2"/>
  <g id="g3070" transform="translate(0 956.36)">
   <path id="path3895" style="opacity:.3" d="m54.188 27v6.0938h5.9062c5.0134 0 6 1.0804 6 6.0938v13.625c0 5.0134-0.98662 6.0938-6 6.0938h-5.9062v-8.907l-18.188 12 18.188 12v-9h9c4.986 0 9-4.014 9-9v-20c0-4.986-4.014-9-9-9h-9zm-27.188 30c-2.7614 0-5 2.2386-5 5s2.2386 5 5 5 5-2.2386 5-5-2.2386-5-5-5z"/>
   <path id="path3102" style="fill:url(#linearGradient3875)" d="m54.188 26v6.0938h5.9062c5.0134 0 6 1.0804 6 6.0938v13.625c0 5.0134-0.98662 6.0938-6 6.0938h-5.9062v-8.907l-18.188 12 18.188 12v-9h9c4.986 0 9-4.014 9-9v-20c0-4.986-4.014-9-9-9h-9zm-27.188 30c-2.7614 0-5 2.2386-5 5s2.2386 5 5 5 5-2.2386 5-5-2.2386-5-5-5z"/>
   <path id="path3877" style="opacity:.75;fill:#fff" d="m54.188 26v1h9c4.986 0 9 4.014 9 9v-1c0-4.986-4.014-9-9-9h-9zm0 23l-18.188 12 0.75 0.5 17.438-11.5v-1zm11.906 2.8125c0 5.0134-0.98662 6.0938-6 6.0938h-5.9062v1h5.9062c5.0134 0 6-1.0804 6-6.0938v-1zm-39.094 4.188c-2.7614 0-5 2.2386-5 5 0 0.17259 0.01418 0.33192 0.03125 0.5 0.256-2.521 2.38-4.5 4.969-4.5 2.5888 0 4.7127 1.9787 4.9688 4.5 0.017-0.168 0.031-0.327 0.031-0.5 0-2.761-2.239-5-5-5z"/>
   <path id="path3886" style="opacity:.15" d="m54.188 31.094v1h5.9062c5.0134 0 6 1.0804 6 6.0938v-1c0-5.0134-0.98662-6.0938-6-6.0938h-5.9062zm18 22.906c0 4.986-4.014 9-9 9h-9v1h9c4.986 0 9-4.014 9-9v-1zm-50.157 6.5c-0.017 0.168-0.031 0.327-0.031 0.5 0 2.7614 2.2386 5 5 5s5-2.2386 5-5c0-0.17259-0.01418-0.33192-0.03125-0.5-0.256 2.521-2.38 4.5-4.969 4.5s-4.713-1.979-4.969-4.5zm14.719 0-0.75 0.5l18.188 12v-1l-17.438-11.5z"/>
  </g>
  <rect id="rect3003" style="opacity:.15;fill:#fff" clip-path="url(#clipPath3009)" rx="25" ry="25" transform="translate(98 -.0000026172)" width="92" y="958.36" x="-96" height="92"/>
 </g>
</svg>
