<?xml version="1.0" encoding="UTF-8" standalone="no"?>
<!-- Created with Inkscape (http://www.inkscape.org/) -->
<svg id="svg11037" xmlns:rdf="http://www.w3.org/1999/02/22-rdf-syntax-ns#" xmlns="http://www.w3.org/2000/svg" height="96" width="96" version="1.1" xmlns:cc="http://creativecommons.org/ns#" xmlns:xlink="http://www.w3.org/1999/xlink" xmlns:dc="http://purl.org/dc/elements/1.1/">
 <defs id="defs11039">
  <clipPath id="clipPath3009" clipPathUnits="userSpaceOnUse">
   <path id="path3011" style="opacity:.15;fill:#fff" d="m-2 956.36h-96v33.562l96 25.687v-59.25z"/>
  </clipPath>
  <linearGradient id="linearGradient3022-5" x1="18.693" gradientUnits="userSpaceOnUse" y1="8.9975" gradientTransform="matrix(0 -2.7635 -3.2231 0 80.027 80.66)" x2="4.9429" y2="8.9975">
   <stop id="stop3639-25" style="stop-color:#f0f0f0" offset="0"/>
   <stop id="stop3641-62" style="stop-color:#aaa" offset="1"/>
  </linearGradient>
 </defs>
 <metadata id="metadata11042">
  <rdf:RDF>
   <cc:Work rdf:about="">
    <dc:format>image/svg+xml</dc:format>
    <dc:type rdf:resource="http://purl.org/dc/dcmitype/StillImage"/>
    <dc:title/>
   </cc:Work>
  </rdf:RDF>
 </metadata>
 <g id="layer1" transform="translate(0 -956.36)">
  <rect id="rect3867" style="opacity:.6" rx="25" ry="25" height="92" width="92" y="958.36" x="2"/>
  <g id="g3070" transform="translate(0 956.36)">
   <path id="path3905" style="opacity:.3" d="m26.027 58.907h16.094v9.0928l29.906-19-29.906-19v9h-16.094z"/>
   <path id="Symbol" style="fill:url(#linearGradient3022-5)" d="m26.027 57.907h16.094v9.0928l29.906-19-29.906-19v9h-16.094z"/>
   <path id="path3974" style="opacity:.75;fill:#fff" d="m42.121 29 29.906 19-0.78125 0.5-29.125-18.5v-1zm0 9v1h-16.094v-1h16.094z"/>
   <path id="path3983" style="opacity:.15" d="m71.246 47.5 0.78125 0.5-29.906 19v-1l29.125-18.5zm-29.125 9.4062v1h-16.094v-1h16.094z"/>
  </g>
  <rect id="rect3003" style="opacity:.15;fill:#fff" clip-path="url(#clipPath3009)" rx="25" ry="25" transform="translate(98 -.0000026172)" width="92" y="958.36" x="-96" height="92"/>
 </g>
</svg>
