<?xml version="1.0" encoding="UTF-8" standalone="no"?>
<!-- Created with Inkscape (http://www.inkscape.org/) -->
<svg id="svg11037" xmlns:rdf="http://www.w3.org/1999/02/22-rdf-syntax-ns#" xmlns="http://www.w3.org/2000/svg" height="96" width="96" version="1.1" xmlns:cc="http://creativecommons.org/ns#" xmlns:xlink="http://www.w3.org/1999/xlink" xmlns:dc="http://purl.org/dc/elements/1.1/">
 <defs id="defs11039">
  <clipPath id="clipPath3009" clipPathUnits="userSpaceOnUse">
   <path id="path3011" style="opacity:.15;fill:#fff" d="m-2 956.36h-96v33.562l96 25.687v-59.25z"/>
  </clipPath>
  <linearGradient id="linearGradient3900" x1="10.71" gradientUnits="userSpaceOnUse" y1="1.9963" gradientTransform="matrix(2.9954 0 0 2.9954 14.862 18.173)" x2="10.71" y2="18.974">
   <stop id="stop3639-70" style="stop-color:#f0f0f0" offset="0"/>
   <stop id="stop3641-27" style="stop-color:#aaa" offset="1"/>
  </linearGradient>
 </defs>
 <metadata id="metadata11042">
  <rdf:RDF>
   <cc:Work rdf:about="">
    <dc:format>image/svg+xml</dc:format>
    <dc:type rdf:resource="http://purl.org/dc/dcmitype/StillImage"/>
    <dc:title/>
   </cc:Work>
  </rdf:RDF>
 </metadata>
 <g id="layer1" transform="translate(0 -956.36)">
  <rect id="rect3867" style="opacity:.6" rx="25" ry="25" height="92" width="92" y="958.36" x="2"/>
  <g id="g3070" transform="translate(0 956.36)">
   <path id="path3920" style="opacity:.3" d="m33 25.562c-0.27374 0-0.52854 0.05978-0.75 0.1875-0.02013 0.01161-0.04305 0.01867-0.0625 0.03125l-7.4062 7.4062c-0.01258 0.01945-0.01964 0.04237-0.03125 0.0625-0.12772 0.22146-0.1875 0.47626-0.1875 0.75s0.05978 0.52854 0.1875 0.75c0.01161 0.02013 0.01867 0.04305 0.03125 0.0625l32.218 32.188 15 6-6-15-32.188-32.219-0.062-0.031c-0.221-0.128-0.476-0.188-0.75-0.188zm28.125 33.25 2.875 1.188l4 9-9-4-1-3h3l0.125-3.1875zm-34.125 10.188c-1.656 0-3 1.344-3 3s1.344 3 3 3 3-1.344 3-3-1.344-3-3-3zm9 0c-1.656 0-3 1.344-3 3s1.344 3 3 3 3-1.344 3-3-1.344-3-3-3zm9 0c-1.656 0-3 1.344-3 3s1.344 3 3 3 3-1.344 3-3-1.344-3-3-3z"/>
   <path id="path3108" style="fill:url(#linearGradient3900)" d="m33 24.562c-0.27374 0-0.52854 0.05978-0.75 0.1875-0.02013 0.01161-0.04305 0.01867-0.0625 0.03125l-7.4062 7.4062c-0.01258 0.01945-0.01964 0.04237-0.03125 0.0625-0.12772 0.22146-0.1875 0.47626-0.1875 0.75s0.05978 0.52854 0.1875 0.75c0.01161 0.02013 0.01867 0.04305 0.03125 0.0625l32.218 32.188 15 6-6-15-32.188-32.219-0.062-0.031c-0.221-0.128-0.476-0.188-0.75-0.188zm28.125 33.25 2.875 1.188l4 9-9-4-1-3h3l0.125-3.1875zm-34.125 10.188c-1.656 0-3 1.344-3 3s1.344 3 3 3 3-1.344 3-3-1.344-3-3-3zm9 0c-1.656 0-3 1.344-3 3s1.344 3 3 3 3-1.344 3-3-1.344-3-3-3zm9 0c-1.656 0-3 1.344-3 3s1.344 3 3 3 3-1.344 3-3-1.344-3-3-3z"/>
   <path id="path3902" style="opacity:.75;fill:#fff" d="m33 24.562c-0.27374 0-0.52854 0.05978-0.75 0.1875-0.02013 0.01161-0.04305 0.01867-0.0625 0.03125l-7.4062 7.4062c-0.01258 0.01945-0.01964 0.04237-0.03125 0.0625-0.12772 0.22146-0.1875 0.47626-0.1875 0.75 0 0.17249 0.01298 0.34615 0.0625 0.5 0.02906-0.0903 0.07776-0.16809 0.125-0.25 0.01161-0.02013 0.01867-0.04305 0.03125-0.0625l7.4062-7.4062c0.01945-0.01258 0.04237-0.01964 0.0625-0.03125 0.22146-0.12772 0.47626-0.1875 0.75-0.1875s0.52854 0.05978 0.75 0.1875l0.062 0.031 32.188 32.219 5.531 13.812 0.469 0.188-6-15-32.188-32.219-0.062-0.031c-0.221-0.128-0.476-0.188-0.75-0.188zm25 37.438 1 3 9 4-0.562-1.25-8.438-3.75-0.656-2h-0.344zm-31 6c-1.656 0-3 1.344-3 3 0 0.17467 0.03381 0.33348 0.0625 0.5 0.244-1.412 1.457-2.5 2.938-2.5 1.4813 0.000003 2.6941 1.0878 2.9375 2.5 0.028-0.167 0.062-0.325 0.062-0.5 0-1.656-1.344-3-3-3zm9 0c-1.656 0-3 1.344-3 3 0 0.17467 0.03381 0.33348 0.0625 0.5 0.244-1.412 1.457-2.5 2.938-2.5 1.4813 0.000003 2.6941 1.0878 2.9375 2.5 0.028-0.167 0.062-0.325 0.062-0.5 0-1.656-1.344-3-3-3zm9 0c-1.656 0-3 1.344-3 3 0 0.17467 0.03381 0.33348 0.0625 0.5 0.244-1.412 1.457-2.5 2.938-2.5 1.4813 0.000003 2.6941 1.0878 2.9375 2.5 0.028-0.167 0.062-0.325 0.062-0.5 0-1.656-1.344-3-3-3z"/>
   <path id="path3911" style="opacity:.15" d="m24.625 32.5c-0.04952 0.15385-0.0625 0.32751-0.0625 0.5 0 0.27374 0.05978 0.52854 0.1875 0.75 0.01161 0.02013 0.01867 0.04305 0.03125 0.0625l32.219 32.188 15 6-0.469-1.188-14.531-5.812-32.219-32.188c-0.012-0.019-0.019-0.042-0.031-0.062-0.047-0.082-0.096-0.16-0.125-0.25zm36.5 24.312-0.125 3.188h-3l0.344 1h2.656l0.125-3.188 2.875 1.188 3.438 7.75 0.562 0.25-4-9-2.875-1.188zm-37.063 13.688c-0.028 0.167-0.062 0.325-0.062 0.5 0 1.656 1.344 3 3 3s3-1.344 3-3c0-0.17467-0.03381-0.33348-0.0625-0.5-0.244 1.412-1.457 2.5-2.938 2.5-1.4813 0.000003-2.6941-1.0878-2.9375-2.5zm9 0c-0.028 0.167-0.062 0.325-0.062 0.5 0 1.656 1.344 3 3 3s3-1.344 3-3c0-0.17467-0.03381-0.33348-0.0625-0.5-0.244 1.412-1.457 2.5-2.938 2.5-1.4813 0.000003-2.6941-1.0878-2.9375-2.5zm9 0c-0.028 0.167-0.062 0.325-0.062 0.5 0 1.656 1.344 3 3 3s3-1.344 3-3c0-0.17467-0.03381-0.33348-0.0625-0.5-0.244 1.412-1.457 2.5-2.938 2.5-1.4813 0.000003-2.6941-1.0878-2.9375-2.5z"/>
  </g>
  <rect id="rect3003" style="opacity:.15;fill:#fff" clip-path="url(#clipPath3009)" rx="25" ry="25" transform="translate(98 -.0000026172)" width="92" y="958.36" x="-96" height="92"/>
 </g>
</svg>
