<?xml version="1.0" encoding="UTF-8" standalone="no"?>
<!-- Created with Inkscape (http://www.inkscape.org/) -->
<svg id="svg11037" xmlns:rdf="http://www.w3.org/1999/02/22-rdf-syntax-ns#" xmlns="http://www.w3.org/2000/svg" height="96" width="96" version="1.1" xmlns:cc="http://creativecommons.org/ns#" xmlns:xlink="http://www.w3.org/1999/xlink" xmlns:dc="http://purl.org/dc/elements/1.1/">
 <defs id="defs11039">
  <clipPath id="clipPath3009" clipPathUnits="userSpaceOnUse">
   <path id="path3011" style="opacity:.15;fill:#fff" d="m-2 956.36h-96v33.562l96 25.687v-59.25z"/>
  </clipPath>
  <linearGradient id="linearGradient4179" x1="9.1735" gradientUnits="userSpaceOnUse" y1="2" gradientTransform="matrix(3,0,0,3,12,26)" x2="9.1735" y2="18.002">
   <stop id="stop3639-16" style="stop-color:#f0f0f0" offset="0"/>
   <stop id="stop3641-39" style="stop-color:#aaa" offset="1"/>
  </linearGradient>
 </defs>
 <metadata id="metadata11042">
  <rdf:RDF>
   <cc:Work rdf:about="">
    <dc:format>image/svg+xml</dc:format>
    <dc:type rdf:resource="http://purl.org/dc/dcmitype/StillImage"/>
    <dc:title/>
   </cc:Work>
  </rdf:RDF>
 </metadata>
 <g id="layer1" transform="translate(0 -956.36)">
  <rect id="rect3867" style="opacity:.6" rx="25" ry="25" height="92" width="92" y="958.36" x="2"/>
  <g id="g3070" transform="translate(0 956.36)">
   <path id="path3903" style="opacity:.3" d="m24 35c-3.324 0-6 2.676-6 6v12c0 3.324 2.676 6 6 6h15c3.324 0 6-2.676 6-6h-19.5c-0.831 0-1.5-0.669-1.5-1.5v-9c0-0.831 0.669-1.5 1.5-1.5h19.5c0-3.324-2.676-6-6-6h-15zm33 0c-3.324 0-6 2.676-6 6h19.5c0.831 0 1.5 0.669 1.5 1.5v9c0 0.831-0.669 1.5-1.5 1.5h-19.5c0 3.324 2.676 6 6 6h15c3.324 0 6-2.676 6-6v-12c0-3.324-2.676-6-6-6h-15zm-21 9c-1.662 0-3 1.338-3 3s1.338 3 3 3h24c1.662 0 3-1.338 3-3s-1.338-3-3-3h-24zm0 25 12 12 12-12h-24z"/>
   <path id="path3648" style="fill:url(#linearGradient4179)" d="m24 34c-3.324 0-6 2.676-6 6v12c0 3.324 2.676 6 6 6h15c3.324 0 6-2.676 6-6h-19.5c-0.831 0-1.5-0.669-1.5-1.5v-9c0-0.831 0.669-1.5 1.5-1.5h19.5c0-3.324-2.676-6-6-6h-15zm33 0c-3.324 0-6 2.676-6 6h19.5c0.831 0 1.5 0.669 1.5 1.5v9c0 0.831-0.669 1.5-1.5 1.5h-19.5c0 3.324 2.676 6 6 6h15c3.324 0 6-2.676 6-6v-12c0-3.324-2.676-6-6-6h-15zm-21 9c-1.662 0-3 1.338-3 3s1.338 3 3 3h24c1.662 0 3-1.338 3-3s-1.338-3-3-3h-24zm0 25 12 12 12-12h-24z"/>
   <path id="path3117" style="opacity:.75;fill:#fff" d="m24 34c-3.324 0-6 2.676-6 6v1c0-3.324 2.676-6 6-6h15c2.9849 0 5.4349 2.1528 5.9062 5h0.094c0-3.324-2.676-6-6-6h-15zm33 0c-3.324 0-6 2.676-6 6h0.09375c0.471-2.847 2.921-5 5.906-5h15c3.324 0 6 2.676 6 6v-1c0-3.324-2.676-6-6-6h-15zm-21 9c-1.662 0-3 1.338-3 3 0 0.17531 0.03392 0.33309 0.0625 0.5 0.243-1.415 1.451-2.5 2.938-2.5h24c1.4867 0 2.6951 1.0845 2.9375 2.5 0.028-0.167 0.062-0.325 0.062-0.5 0-1.662-1.338-3-3-3h-24zm-12 7.5v1c0 0.831 0.669 1.5 1.5 1.5h19.406c0.054-0.323 0.094-0.661 0.094-1h-19.5c-0.831 0-1.5-0.669-1.5-1.5zm48 0c0 0.831-0.669 1.5-1.5 1.5h-19.5c0 0.33914 0.04019 0.67651 0.09375 1h19.406c0.831 0 1.5-0.669 1.5-1.5v-1zm-36 17.5l1 1h22l1-1h-24z"/>
   <path id="path3894" style="opacity:.15" d="m25.5 39c-0.831 0-1.5 0.669-1.5 1.5v1c0-0.831 0.669-1.5 1.5-1.5h19.5c0-0.33914-0.04019-0.67651-0.09375-1h-19.406zm25.594 0c-0.054 0.323-0.094 0.661-0.094 1h19.5c0.831 0 1.5 0.669 1.5 1.5v-1c0-0.831-0.669-1.5-1.5-1.5h-19.406zm-18.032 6.5c-0.028 0.167-0.062 0.325-0.062 0.5 0 1.662 1.338 3 3 3h24c1.662 0 3-1.338 3-3 0-0.17531-0.03392-0.33309-0.0625-0.5-0.243 1.415-1.451 2.5-2.938 2.5h-24c-1.4867 0-2.6951-1.0845-2.9375-2.5zm-15.062 5.5v1c0 3.324 2.676 6 6 6h15c3.324 0 6-2.676 6-6h-0.09375c-0.471 2.847-2.921 5-5.906 5h-15c-3.324 0-6-2.676-6-6zm60 0c0 3.324-2.676 6-6 6h-15c-2.9849 0-5.4349-2.1528-5.9062-5h-0.094c0 3.324 2.676 6 6 6h15c3.324 0 6-2.676 6-6v-1zm-42 17 12 12 12-12h-1l-11 11-11-11h-1z"/>
  </g>
  <rect id="rect3003" style="opacity:.15;fill:#fff" clip-path="url(#clipPath3009)" rx="25" ry="25" transform="translate(98 -.0000026172)" width="92" y="958.36" x="-96" height="92"/>
 </g>
</svg>
