<?xml version="1.0" encoding="UTF-8" standalone="no"?>
<!-- Created with Inkscape (http://www.inkscape.org/) -->
<svg id="svg11037" xmlns:rdf="http://www.w3.org/1999/02/22-rdf-syntax-ns#" xmlns="http://www.w3.org/2000/svg" height="96" width="96" version="1.1" xmlns:cc="http://creativecommons.org/ns#" xmlns:xlink="http://www.w3.org/1999/xlink" xmlns:dc="http://purl.org/dc/elements/1.1/">
 <defs id="defs11039">
  <clipPath id="clipPath3009" clipPathUnits="userSpaceOnUse">
   <path id="path3011" style="opacity:.15;fill:#fff" d="m-2 956.36h-96v33.562l96 25.687v-59.25z"/>
  </clipPath>
  <linearGradient id="linearGradient4179-5" x1="9.1735" gradientUnits="userSpaceOnUse" y1="2" gradientTransform="matrix(3,0,0,3,12,26)" x2="9.1735" y2="18.002">
   <stop id="stop3639-47" style="stop-color:#f0f0f0" offset="0"/>
   <stop id="stop3641-02" style="stop-color:#aaa" offset="1"/>
  </linearGradient>
 </defs>
 <metadata id="metadata11042">
  <rdf:RDF>
   <cc:Work rdf:about="">
    <dc:format>image/svg+xml</dc:format>
    <dc:type rdf:resource="http://purl.org/dc/dcmitype/StillImage"/>
    <dc:title/>
   </cc:Work>
  </rdf:RDF>
 </metadata>
 <g id="layer1" transform="translate(0 -956.36)">
  <rect id="rect3867" style="opacity:.6" rx="25" ry="25" height="92" width="92" y="958.36" x="2"/>
  <g id="g3070" transform="translate(0 956.36)">
   <path id="path3894" style="opacity:.3" d="m34.5 27c-2.493 0-4.5 2.007-4.5 4.5v27c0 2.493 2.007 4.5 4.5 4.5h27c2.493 0 4.5-2.007 4.5-4.5v-27c0-2.493-2.007-4.5-4.5-4.5zm3 6h21c0.831 0 1.5 0.669 1.5 1.5v21c0 0.831-0.669 1.5-1.5 1.5h-21c-0.831 0-1.5-0.669-1.5-1.5v-21c0-0.831 0.669-1.5 1.5-1.5zm-1.5 36 12 12 12-12z"/>
   <path id="path3648" style="fill:url(#linearGradient4179-5)" d="m34.5 26c-2.493 0-4.5 2.007-4.5 4.5v27c0 2.493 2.007 4.5 4.5 4.5h27c2.493 0 4.5-2.007 4.5-4.5v-27c0-2.493-2.007-4.5-4.5-4.5zm3 6h21c0.831 0 1.5 0.669 1.5 1.5v21c0 0.831-0.669 1.5-1.5 1.5h-21c-0.831 0-1.5-0.669-1.5-1.5v-21c0-0.831 0.669-1.5 1.5-1.5zm-1.5 36 12 12 12-12z"/>
   <path id="path3868" style="opacity:.75;fill:#fff" d="m34.5 26c-2.493 0-4.5 2.007-4.5 4.5v1c0-2.493 2.007-4.5 4.5-4.5h27c2.493 0 4.5 2.007 4.5 4.5v-1c0-2.493-2.007-4.5-4.5-4.5h-27zm1.5 28.5v1c0 0.831 0.669 1.5 1.5 1.5h21c0.831 0 1.5-0.669 1.5-1.5v-1c0 0.831-0.669 1.5-1.5 1.5h-21c-0.831 0-1.5-0.669-1.5-1.5zm0 13.5 1 1h22l1-1h-24z"/>
   <path id="path3877" style="opacity:.15" d="m37.5 31c-0.831 0-1.5 0.669-1.5 1.5v1c0-0.831 0.669-1.5 1.5-1.5h21c0.831 0 1.5 0.669 1.5 1.5v-1c0-0.831-0.669-1.5-1.5-1.5h-21zm-7.5 25.5v1c0 2.493 2.007 4.5 4.5 4.5h27c2.493 0 4.5-2.007 4.5-4.5v-1c0 2.493-2.007 4.5-4.5 4.5h-27c-2.493 0-4.5-2.007-4.5-4.5zm6 11.5 12 12 12-12h-1l-11 11-11-11h-1z"/>
  </g>
  <rect id="rect3003" style="opacity:.15;fill:#fff" clip-path="url(#clipPath3009)" rx="25" ry="25" transform="translate(98 -.0000026172)" width="92" y="958.36" x="-96" height="92"/>
 </g>
</svg>
