<?xml version="1.0" encoding="UTF-8" standalone="no"?>
<!-- Created with Inkscape (http://www.inkscape.org/) -->
<svg id="svg11037" xmlns:rdf="http://www.w3.org/1999/02/22-rdf-syntax-ns#" xmlns="http://www.w3.org/2000/svg" height="96" width="96" version="1.1" xmlns:cc="http://creativecommons.org/ns#" xmlns:xlink="http://www.w3.org/1999/xlink" xmlns:dc="http://purl.org/dc/elements/1.1/">
 <defs id="defs11039">
  <clipPath id="clipPath3009" clipPathUnits="userSpaceOnUse">
   <path id="path3011" style="opacity:.15;fill:#fff" d="m-2 956.36h-96v33.562l96 25.687v-59.25z"/>
  </clipPath>
  <linearGradient id="linearGradient3887" x1="9.1735" gradientUnits="userSpaceOnUse" y1="3.1499" gradientTransform="matrix(3,0,0,3,16,22)" x2="9.1735" y2="18.002">
   <stop id="stop3639-69" style="stop-color:#f0f0f0" offset="0"/>
   <stop id="stop3641-05" style="stop-color:#aaa" offset="1"/>
  </linearGradient>
 </defs>
 <metadata id="metadata11042">
  <rdf:RDF>
   <cc:Work rdf:about="">
    <dc:format>image/svg+xml</dc:format>
    <dc:type rdf:resource="http://purl.org/dc/dcmitype/StillImage"/>
    <dc:title/>
   </cc:Work>
  </rdf:RDF>
 </metadata>
 <g id="layer1" transform="translate(0 -956.36)">
  <rect id="rect3867" style="opacity:.6" rx="25" ry="25" height="92" width="92" y="958.36" x="2"/>
  <g id="g3070" transform="translate(0 956.36)">
   <path id="path3929" style="opacity:.3" d="m53.969 31.906v27.094h6.5625v-3c0.90026 1.1814 1.9051 2.0584 3 2.625 1.0949 0.5545 2.3266 0.84375 3.75 0.84375 2.5183 0 4.5694-0.92924 6.1875-2.9062 1.618-1.9891 2.4375-4.5653 2.4375-7.6875-0.000024-3.1222-0.81947-5.7105-2.4375-7.6875-1.6181-1.989-3.6692-3-6.1875-3-1.4234 0.000021-2.6551 0.2772-3.75 0.84375-1.0949 0.55455-2.0997 1.4436-3 2.625v-9.75h-6.5625zm-22.75 0.094l-10.125 27h7.0312l1.7812-4.9688h10.969l1.6875 4.9688h7.125l-10.125-27h-8.3438zm4.2188 6.2812 3.6562 10.781h-7.4062l3.75-10.781zm29.406 4.6875c1.3991 0.000015 2.4575 0.4874 3.1875 1.5 0.7421 1.0126 1.125 2.4775 1.125 4.4062-0.000018 1.9288-0.3829 3.3936-1.125 4.4062-0.72997 1.0126-1.7884 1.5-3.1875 1.5-1.3991 0.000003-2.4332-0.48738-3.1875-1.5-0.74212-1.0247-1.125-2.4895-1.125-4.4062-0.000009-1.9167 0.38288-3.3936 1.125-4.4062 0.75427-1.0247 1.7884-1.5 3.1875-1.5zm-28.844 26.032 12 12 12-12h-24z"/>
   <path id="path3108" style="fill:url(#linearGradient3887)" d="m53.969 30.906v27.094h6.5625v-3c0.90026 1.1814 1.9051 2.0584 3 2.625 1.0949 0.5545 2.3266 0.84375 3.75 0.84375 2.5183 0 4.5694-0.92924 6.1875-2.9062 1.618-1.9891 2.4375-4.5653 2.4375-7.6875-0.000024-3.1222-0.81947-5.7105-2.4375-7.6875-1.6181-1.989-3.6692-3-6.1875-3-1.4234 0.000021-2.6551 0.2772-3.75 0.84375-1.0949 0.55455-2.0997 1.4436-3 2.625v-9.75h-6.5625zm-22.75 0.094l-10.125 27h7.0312l1.7812-4.9688h10.969l1.6875 4.9688h7.125l-10.125-27h-8.3438zm4.2188 6.2812 3.6562 10.781h-7.4062l3.75-10.781zm29.406 4.6875c1.3991 0.000015 2.4575 0.4874 3.1875 1.5 0.7421 1.0126 1.125 2.4775 1.125 4.4062-0.000018 1.9288-0.3829 3.3936-1.125 4.4062-0.72997 1.0126-1.7884 1.5-3.1875 1.5-1.3991 0.000003-2.4332-0.48738-3.1875-1.5-0.74212-1.0247-1.125-2.4895-1.125-4.4062-0.000009-1.9167 0.38288-3.3936 1.125-4.4062 0.75427-1.0247 1.7884-1.5 3.1875-1.5zm-28.844 26.032 12 12 12-12h-24z"/>
   <path id="path3143" style="opacity:.75;fill:#fff" d="m53.969 30.906v1h6.5625v-1h-6.5625zm-22.75 0.094l-10.125 27h0.375l9.75-26h8.3438l9.75 26h0.375l-10.125-27h-8.3438zm36.062 6.1875c-1.4234 0.000021-2.6551 0.2772-3.75 0.84375-1.0949 0.55455-2.0997 1.4436-3 2.625v1c0.90026-1.1814 1.9051-2.0705 3-2.625 1.0949-0.56655 2.3266-0.84373 3.75-0.84375 2.5183 0.000021 4.5694 1.011 6.1875 3 1.5306 1.8702 2.3538 4.2887 2.4375 7.1875 0.0048-0.16545-0.000001-0.33135 0-0.5-0.000024-3.1222-0.81947-5.7105-2.4375-7.6875-1.6181-1.989-3.6692-3-6.1875-3zm-35.25 10.875-0.34375 1h7.4062l-0.34375-1h-6.7188zm28.531 0.312c-0.0066 0.17079-0.03125 0.32157-0.03125 0.5-0.000009 1.9167 0.38288 3.3816 1.125 4.4062 0.75427 1.0126 1.7884 1.5 3.1875 1.5 1.3991 0.000003 2.4575-0.48738 3.1875-1.5 0.7421-1.0126 1.125-2.4775 1.125-4.4062-0.000002-0.17548-0.02493-0.33219-0.03125-0.5-0.06317 1.6767-0.41917 2.9858-1.0938 3.9062-0.72997 1.0126-1.7884 1.5-3.1875 1.5-1.3991 0.000003-2.4332-0.48738-3.1875-1.5-0.673-0.929-1.029-2.244-1.094-3.906zm-24.562 19.625l1 1h22l1-1h-24z"/>
   <path id="path3920" style="opacity:.15" d="m35.438 36.281-3.75 10.781h0.34375l3.4062-9.7812 3.3125 9.7812h0.34375l-3.6562-10.781zm29.406 4.6875c-1.3991 0.000015-2.4332 0.47534-3.1875 1.5-0.74212 1.0126-1.125 2.4895-1.125 4.4062-0.000001 0.17843 0.02463 0.32939 0.03125 0.5 0.06446-1.6638 0.42071-2.9879 1.0938-3.9062 0.75427-1.0247 1.7884-1.5 3.1875-1.5 1.3991 0.000015 2.4575 0.4874 3.1875 1.5 0.67458 0.9205 1.0306 2.2296 1.0938 3.9062 0.0063-0.16781 0.03125-0.32452 0.03125-0.5-0.000018-1.9288-0.3829-3.3936-1.125-4.4062-0.72997-1.0126-1.7884-1.5-3.1875-1.5zm11.062 6.4062c-0.0837 2.8977-0.90687 5.3059-2.4375 7.1875-1.6181 1.977-3.6692 2.9062-6.1875 2.9062-1.4234 0-2.6551-0.28925-3.75-0.84375-1.0949-0.56658-2.0997-1.4436-3-2.625v1c0.90026 1.1814 1.9051 2.0584 3 2.625 1.0949 0.5545 2.3266 0.84375 3.75 0.84375 2.5183 0 4.5694-0.92924 6.1875-2.9062 1.618-1.9891 2.4375-4.5653 2.4375-7.6875-0.000001-0.16864 0.0048-0.33448 0-0.5zm-46 4.6562l-1.781 4.97h-6.6562l-0.375 1h7.0312l1.7812-4.9688h10.969l1.6875 4.9688h7.125l-0.375-1h-6.75l-1.6875-4.9688h-10.969zm24.063 4.97v1h6.5625v-1h-6.5625zm-17.969 11 12 12 12-12h-1l-11 11-11-11h-1z"/>
  </g>
  <rect id="rect3003" style="opacity:.15;fill:#fff" clip-path="url(#clipPath3009)" rx="25" ry="25" transform="translate(98 -.0000026172)" width="92" y="958.36" x="-96" height="92"/>
 </g>
</svg>
