<?xml version="1.0" encoding="UTF-8" standalone="no"?>
<!-- Created with Inkscape (http://www.inkscape.org/) -->
<svg id="svg11037" xmlns:rdf="http://www.w3.org/1999/02/22-rdf-syntax-ns#" xmlns="http://www.w3.org/2000/svg" height="96" width="96" version="1.1" xmlns:cc="http://creativecommons.org/ns#" xmlns:xlink="http://www.w3.org/1999/xlink" xmlns:dc="http://purl.org/dc/elements/1.1/">
 <defs id="defs11039">
  <clipPath id="clipPath3009" clipPathUnits="userSpaceOnUse">
   <path id="path3011" style="opacity:.15;fill:#fff" d="m-2 956.36h-96v33.562l96 25.687v-59.25z"/>
  </clipPath>
  <linearGradient id="linearGradient3117" x1="9.1735" gradientUnits="userSpaceOnUse" y1="-.66667" gradientTransform="matrix(3,0,0,3,12,26)" x2="9.1735" y2="18.002">
   <stop id="stop3639-73" style="stop-color:#f0f0f0" offset="0"/>
   <stop id="stop3641-73" style="stop-color:#aaa" offset="1"/>
  </linearGradient>
 </defs>
 <metadata id="metadata11042">
  <rdf:RDF>
   <cc:Work rdf:about="">
    <dc:format>image/svg+xml</dc:format>
    <dc:type rdf:resource="http://purl.org/dc/dcmitype/StillImage"/>
    <dc:title/>
   </cc:Work>
  </rdf:RDF>
 </metadata>
 <g id="layer1" transform="translate(0 -956.36)">
  <rect id="rect3867" style="opacity:.6" rx="25" ry="25" height="92" width="92" y="958.36" x="2"/>
  <g id="g3070" transform="translate(0 956.36)">
   <path id="path3905" style="opacity:.3" d="m27.281 23c-1.813 0-3.281 1.497-3.281 3.344v33.312c0 1.847 1.468 3.344 3.281 3.344h41.438c1.813 0 3.281-1.497 3.281-3.344v-33.312c0-1.847-1.468-3.344-3.281-3.344h-41.438zm31.625 6.6562c2.41 0 4.375 2.0142 4.375 4.4688s-1.965 4.4375-4.375 4.4375-4.375-1.9829-4.375-4.4375 1.965-4.4688 4.375-4.4688zm-15.281 8.906l10.906 10 3.281-3.343 9.813 7.781v5.5625h-39.25v-10l5.4375-6.6875 4.375 3.3438 5.4375-6.6562zm-7.625 30.438 12 12 12-12h-24z"/>
   <path id="path3648" style="fill:url(#linearGradient3117)" d="m27.281 22c-1.813 0-3.281 1.497-3.281 3.344v33.312c0 1.847 1.468 3.344 3.281 3.344h41.438c1.813 0 3.281-1.497 3.281-3.344v-33.312c0-1.847-1.468-3.344-3.281-3.344h-41.438zm31.625 6.6562c2.41 0 4.375 2.0142 4.375 4.4688s-1.965 4.4375-4.375 4.4375-4.375-1.9829-4.375-4.4375 1.965-4.4688 4.375-4.4688zm-15.281 8.906l10.906 10 3.281-3.343 9.813 7.781v5.5625h-39.25v-10l5.4375-6.6875 4.375 3.3438 5.4375-6.6562zm-7.625 30.438 12 12 12-12h-24z"/>
   <path id="path3119" style="opacity:.75;fill:#fff" d="m27.281 22c-1.813 0-3.281 1.497-3.281 3.344v1c0-1.847 1.468-3.344 3.281-3.344h41.438c1.813 0 3.281 1.497 3.281 3.344v-1c0-1.847-1.468-3.344-3.281-3.344h-41.438zm27.312 11.625c-0.01827 0.16493-0.0625 0.33034-0.0625 0.5 0 2.4546 1.965 4.4375 4.375 4.4375s4.375-1.9829 4.375-4.4375c0-0.16966-0.04423-0.33507-0.0625-0.5-0.2461 2.2175-2.0691 3.9375-4.3125 3.9375s-4.0664-1.72-4.3125-3.9375zm-26.218 23.937v1h39.25v-1h-39.25zm7.625 10.438l1 1h22l1-1h-24z"/>
   <path id="path3896" style="opacity:.15" d="m58.906 27.656c-2.41 0-4.375 2.0142-4.375 4.4688 0 0.16966 0.04423 0.33535 0.0625 0.5 0.2461-2.2213 2.0691-3.9688 4.3125-3.9688s4.0664 1.7475 4.3125 3.9688c0.01827-0.16465 0.0625-0.33034 0.0625-0.5 0-2.4546-1.965-4.4688-4.375-4.4688zm-15.281 8.906l-5.4375 6.6562-4.375-3.3438-5.4375 6.6875v1l5.4375-6.6875 4.375 3.3438 5.4375-6.6562 10.906 10 3.281-3.343 9.813 7.781v-1l-9.8125-7.7812-3.2812 3.3438-10.906-10zm-19.625 21.094v1c0 1.847 1.468 3.344 3.281 3.344h41.438c1.813 0 3.281-1.497 3.281-3.344v-1c0 1.847-1.468 3.344-3.281 3.344h-41.438c-1.813 0-3.281-1.497-3.281-3.344zm12 10.344 12 12 12-12h-1l-11 11-11-11h-1z"/>
  </g>
  <rect id="rect3003" style="opacity:.15;fill:#fff" clip-path="url(#clipPath3009)" rx="25" ry="25" transform="translate(98 -.0000026172)" width="92" y="958.36" x="-96" height="92"/>
 </g>
</svg>
