<?xml version="1.0" encoding="UTF-8" standalone="no"?>
<!-- Created with Inkscape (http://www.inkscape.org/) -->
<svg id="svg11037" xmlns:rdf="http://www.w3.org/1999/02/22-rdf-syntax-ns#" xmlns="http://www.w3.org/2000/svg" height="96" width="96" version="1.1" xmlns:cc="http://creativecommons.org/ns#" xmlns:xlink="http://www.w3.org/1999/xlink" xmlns:dc="http://purl.org/dc/elements/1.1/">
 <defs id="defs11039">
  <clipPath id="clipPath3009" clipPathUnits="userSpaceOnUse">
   <path id="path3011" style="opacity:.15;fill:#fff" d="m-2 956.36h-96v33.562l96 25.687v-59.25z"/>
  </clipPath>
  <linearGradient id="linearGradient3048" x1="7.8612" gradientUnits="userSpaceOnUse" y1="-1" gradientTransform="matrix(3 0 0 3 12.417 32)" x2="7.8612" y2="12">
   <stop id="stop3639-53" style="stop-color:#f0f0f0" offset="0"/>
   <stop id="stop3641-57" style="stop-color:#aaa" offset="1"/>
  </linearGradient>
 </defs>
 <metadata id="metadata11042">
  <rdf:RDF>
   <cc:Work rdf:about="">
    <dc:format>image/svg+xml</dc:format>
    <dc:type rdf:resource="http://purl.org/dc/dcmitype/StillImage"/>
    <dc:title/>
   </cc:Work>
  </rdf:RDF>
 </metadata>
 <g id="layer1" transform="translate(0 -956.36)">
  <rect id="rect3867" style="opacity:.6" rx="25" ry="25" height="92" width="92" y="958.36" x="2"/>
  <g id="g3070" transform="translate(0 956.36)">
   <path id="path3886" style="opacity:.3" d="m42 29c-2.4797 0-4 1.4813-4 4v10h-3c-1.662 0-3 1.338-3 3v20c0 1.662 1.338 3 3 3h26c1.662 0 3-1.338 3-3v-20c0-1.662-1.338-3-3-3h-3v-10c0-2.4019-1.3645-4-4-4zm1.5 4h9c0.831 0 1.5 0.669 1.5 1.5v8.5h-12v-8.5c0-0.831 0.669-1.5 1.5-1.5z"/>
   <path id="rect2953" style="fill:url(#linearGradient3048)" d="m42 28c-2.4797 0-4 1.4813-4 4v10h-3c-1.662 0-3 1.338-3 3v20c0 1.662 1.338 3 3 3h26c1.662 0 3-1.338 3-3v-20c0-1.662-1.338-3-3-3h-3v-10c0-2.4019-1.3645-4-4-4zm1.5 4h9c0.831 0 1.5 0.669 1.5 1.5v8.5h-12v-8.5c0-0.831 0.669-1.5 1.5-1.5z"/>
   <path id="path3868" style="opacity:.75;fill:#fff" d="m42 28c-2.4797 0-4 1.4813-4 4v1c0-2.5187 1.5203-4 4-4h12c2.6355 0 4 1.5981 4 4v-1c0-2.4019-1.3645-4-4-4h-12zm-7 14c-1.662 0-3 1.338-3 3v1c0-1.662 1.338-3 3-3h3v-1h-3zm7 0v1h12v-1h-12zm16 0v1h3c1.662 0 3 1.338 3 3v-1c0-1.662-1.338-3-3-3h-3z"/>
   <path id="path3877" style="opacity:.15" d="m43.5 31c-0.831 0-1.5 0.669-1.5 1.5v1c0-0.831 0.669-1.5 1.5-1.5h9c0.831 0 1.5 0.669 1.5 1.5v-1c0-0.831-0.669-1.5-1.5-1.5h-9zm-11.5 33v1c0 1.662 1.338 3 3 3h26c1.662 0 3-1.338 3-3v-1c0 1.662-1.338 3-3 3h-26c-1.662 0-3-1.338-3-3z"/>
  </g>
  <rect id="rect3003" style="opacity:.15;fill:#fff" clip-path="url(#clipPath3009)" rx="25" ry="25" transform="translate(98 -.0000026172)" width="92" y="958.36" x="-96" height="92"/>
 </g>
</svg>
