<?xml version="1.0" encoding="UTF-8" standalone="no"?>
<!-- Created with Inkscape (http://www.inkscape.org/) -->
<svg id="svg11037" xmlns:rdf="http://www.w3.org/1999/02/22-rdf-syntax-ns#" xmlns="http://www.w3.org/2000/svg" height="96" width="96" version="1.1" xmlns:cc="http://creativecommons.org/ns#" xmlns:xlink="http://www.w3.org/1999/xlink" xmlns:dc="http://purl.org/dc/elements/1.1/">
 <defs id="defs11039">
  <linearGradient id="linearGradient3689" x1="48" xlink:href="#linearGradient3700" gradientUnits="userSpaceOnUse" x2="48" y1="90" y2="5.9877"/>
  <linearGradient id="linearGradient3700">
   <stop id="stop3702" style="stop-color:#dcdcdc" offset="0"/>
   <stop id="stop3704" style="stop-color:#f0f0f0" offset="1"/>
  </linearGradient>
  <linearGradient id="linearGradient3701" x1="48" xlink:href="#linearGradient3641" gradientUnits="userSpaceOnUse" y1="32" gradientTransform="translate(100)" x2="48" y2="80"/>
  <linearGradient id="linearGradient3641">
   <stop id="stop3643" offset="0"/>
   <stop id="stop3645" style="stop-opacity:0" offset="1"/>
  </linearGradient>
  <clipPath id="clipPath3696">
   <rect id="rect3698" style="fill:#f0f" rx="6" ry="6" height="84" width="84" y="6" x="106"/>
  </clipPath>
  <filter id="filter3665" color-interpolation-filters="sRGB">
   <feGaussianBlur id="feGaussianBlur3667" stdDeviation="0.69"/>
  </filter>
  <linearGradient id="linearGradient3635" y2="36" gradientUnits="userSpaceOnUse" y1="88" x2="48" x1="48">
   <stop id="stop3729" style="stop-color:#d5d5d5" offset="0"/>
   <stop id="stop3731" style="stop-color:#f1f1f1" offset="1"/>
  </linearGradient>
  <linearGradient id="linearGradient3707" x1="51" xlink:href="#linearGradient3641" gradientUnits="userSpaceOnUse" y1="62" gradientTransform="translate(100,-1)" x2="51" y2="21"/>
  <clipPath id="clipPath3703">
   <rect id="rect3705" style="fill:#f0f" rx="6" ry="6" height="84" width="84" y="6" x="106"/>
  </clipPath>
  <filter id="filter3649" color-interpolation-filters="sRGB">
   <feGaussianBlur id="feGaussianBlur3651" stdDeviation="1.38"/>
  </filter>
  <linearGradient id="linearGradient3627" x1="48" xlink:href="#linearGradient3700" gradientUnits="userSpaceOnUse" x2="48" y1="88" y2="32"/>
  <clipPath id="clipPath3076" clipPathUnits="userSpaceOnUse">
   <rect id="rect3078" style="fill:url(#linearGradient3080)" rx="22.826" ry="22.826" height="84" width="84" y="6" x="6"/>
  </clipPath>
  <linearGradient id="linearGradient3080" x1="48" gradientUnits="userSpaceOnUse" y1="962.62" gradientTransform="matrix(1.05 0 0 1.05 -2.4 -1006.6)" x2="48" y2="1046.1">
   <stop id="stop3797" style="stop-color:#13a6fd" offset="0"/>
   <stop id="stop3799" style="stop-color:#2975b6" offset="1"/>
  </linearGradient>
  <clipPath id="clipPath3009" clipPathUnits="userSpaceOnUse">
   <path id="path3011" style="opacity:.15;fill:#fff" d="m-2 956.36h-96v33.562l96 25.687v-59.25z"/>
  </clipPath>
  <linearGradient id="linearGradient3755" y2="23.566" gradientUnits="userSpaceOnUse" y1="51.02" x2="56.658" x1="56.658">
   <stop id="stop3781" style="stop-color:#d00000" offset="0"/>
   <stop id="stop3783" style="stop-color:#ff3c22" offset="1"/>
  </linearGradient>
 </defs>
 <metadata id="metadata11042">
  <rdf:RDF>
   <cc:Work rdf:about="">
    <dc:format>image/svg+xml</dc:format>
    <dc:type rdf:resource="http://purl.org/dc/dcmitype/StillImage"/>
    <dc:title/>
   </cc:Work>
  </rdf:RDF>
 </metadata>
 <g id="layer1" transform="translate(0 -956.36)">
  <g id="layer1-9" transform="matrix(1.0952 0 0 1.0952 -4.5714 951.79)" clip-path="url(#clipPath3076)">
   <rect id="rect2419" style="fill:url(#linearGradient3689)" rx="6" ry="6" height="84" width="84" y="6" x="6"/>
   <path id="path3653" style="opacity:.3;filter:url(#filter3665);fill:url(#linearGradient3701)" clip-path="url(#clipPath3696)" transform="translate(-100,-1)" d="m112 89c-3.324 0-6-2.676-6-6v-6l42-42 42 42v6c0 3.324-2.676 6-6 6h-72z"/>
   <path id="path3619" style="fill:url(#linearGradient3635)" d="m12 90c-3.324 0-6-2.676-6-6v-6l42-42 42 42v6c0 3.324-2.676 6-6 6h-72z"/>
   <path id="path3718" style="opacity:.4;fill:#fff" d="m48 36-42 42v1l42-42 42 42v-1l-42-42z"/>
   <path id="path3637" style="opacity:.4;filter:url(#filter3649);fill:url(#linearGradient3707)" clip-path="url(#clipPath3703)" transform="translate(-100,1)" d="m112 7c-3.324 0-6 2.676-6 6v6l42 42 42-42v-6c0-3.324-2.676-6-6-6h-72z"/>
   <path id="path3613" style="fill:url(#linearGradient3627)" d="m12 6c-3.324 0-6 2.676-6 6v6l42 42 42-42v-6c0-3.324-2.676-6-6-6h-72z"/>
   <path id="path3709" style="opacity:.6;fill:#fff" d="m6 17v1l42 42 42-42v-1l-42 42-42-42z"/>
  </g>
  <rect id="rect3003" style="opacity:.15;fill:#fff" clip-path="url(#clipPath3009)" rx="25" ry="25" transform="translate(98 3.8281e-7)" width="92" y="958.36" x="-96" height="92"/>
  <g id="g3067" transform="translate(-2.464e-7 956.36)">
   <path id="path3757" style="opacity:.3;color:#000000" transform="matrix(1.1579 0 0 1.1556 3.6087 27.812)" d="m55.438 23.531a2.9965 2.9965 0 0 0 -2.4375 1.5l-12.531 21.688a2.9965 2.9965 0 0 0 2.5938 4.5l25.094-0.0625a2.9965 2.9965 0 0 0 2.5938 -4.5l-12.562-21.625a2.9965 2.9965 0 0 0 -2.75 -1.5z"/>
   <path id="path3746" style="color:#000000;fill:url(#linearGradient3755)" transform="matrix(1.1579 0 0 1.1556 3.6087 26.812)" d="m55.438 23.531a2.9965 2.9965 0 0 0 -2.4375 1.5l-12.531 21.688a2.9965 2.9965 0 0 0 2.5938 4.5l25.094-0.0625a2.9965 2.9965 0 0 0 2.5938 -4.5l-12.562-21.625a2.9965 2.9965 0 0 0 -2.75 -1.5z"/>
   <path id="path3787" style="color:#000000;fill:#fff" d="m67.906 56c-1.152 0.05532-1.4218 1.2789-1.9688 2.0625-4.6014 7.9371-9.1687 15.882-13.781 23.812-0.4613 0.81992 0.13962 2.0623 1.125 2.0938 2.6346 0.07861 5.2945 0.01355 7.9375 0.03125 7.1315-0.02183 14.275-0.03044 21.406-0.0625 1.0177-0.03644 1.7121-1.2001 1.25-2.125-1.8511-3.0767-3.6637-6.2811-5.5-9.4062-3.037-5.237-6.141-10.47-9.155-15.717-0.289-0.435-0.786-0.706-1.313-0.688zm0.0625 2c2.9432 5.1145 5.9584 10.198 8.9062 15.281 1.735 2.9528 3.481 5.9796 5.25 8.9375-6.9616 0.03024-13.939 0.04117-20.906 0.0625-2.4771-0.01658-4.8933 0.02123-7.2813-0.03125 4.4913-7.7254 8.9291-15.464 13.406-23.188 0.02593-0.04474 0.06781-0.08026 0.09375-0.125 0.272-0.41648 0.41573-0.72113 0.53125-0.9375z"/>
   <path id="path3802" style="opacity:.3;color:#000000;fill:#fff" d="m67.812 54a3.4697 3.4628 0 0 0 -2.8438 1.75l-14.499 25.062a3.4697 3.4628 0 0 0 -0.4375 2.2188 3.4697 3.4628 0 0 1 0.4375 -1.2188l14.5-25.062a3.4697 3.4628 0 0 1 2.843 -1.75 3.4697 3.4628 0 0 1 3.188 1.75l14.531 24.969a3.4697 3.4628 0 0 1 0.4375 1.25 3.4697 3.4628 0 0 0 -0.4375 -2.25l-14.531-24.969a3.4697 3.4628 0 0 0 -3.188 -1.75z"/>
   <path id="path3815" style="opacity:.4;color:#000000;fill:#500" d="m85.969 81.969a3.4697 3.4628 0 0 1 -3.4375 2.9688l-29.063 0.062a3.4697 3.4628 0 0 1 -3.438 -2.969 3.4697 3.4628 0 0 0 3.438 3.969l29.062-0.062a3.4697 3.4628 0 0 0 3.4375 -3.9688z"/>
   <rect id="rect3826" style="color:#000000;fill:#fff" rx="1.9171" ry="2" height="10" width="4" y="65" x="66"/>
   <path id="path3828" style="color:#000000;fill:#fff" transform="translate(6 5)" d="m64 73a2 2 0 1 1 -4 0 2 2 0 1 1 4 0z"/>
  </g>
 </g>
</svg>
