<?xml version="1.0" encoding="UTF-8" standalone="no"?>
<!-- Created with Inkscape (http://www.inkscape.org/) -->
<svg id="svg11037" xmlns:rdf="http://www.w3.org/1999/02/22-rdf-syntax-ns#" xmlns="http://www.w3.org/2000/svg" height="96" width="96" version="1.1" xmlns:cc="http://creativecommons.org/ns#" xmlns:xlink="http://www.w3.org/1999/xlink" xmlns:dc="http://purl.org/dc/elements/1.1/">
 <defs id="defs11039">
  <linearGradient id="linearGradient3689" x1="48" xlink:href="#linearGradient3700" gradientUnits="userSpaceOnUse" x2="48" y1="90" y2="5.9877"/>
  <linearGradient id="linearGradient3700">
   <stop id="stop3702" style="stop-color:#dcdcdc" offset="0"/>
   <stop id="stop3704" style="stop-color:#f0f0f0" offset="1"/>
  </linearGradient>
  <linearGradient id="linearGradient3701" x1="48" xlink:href="#linearGradient3641" gradientUnits="userSpaceOnUse" y1="32" gradientTransform="translate(100)" x2="48" y2="80"/>
  <linearGradient id="linearGradient3641">
   <stop id="stop3643" offset="0"/>
   <stop id="stop3645" style="stop-opacity:0" offset="1"/>
  </linearGradient>
  <clipPath id="clipPath3696">
   <rect id="rect3698" style="fill:#f0f" rx="6" ry="6" height="84" width="84" y="6" x="106"/>
  </clipPath>
  <filter id="filter3665" color-interpolation-filters="sRGB">
   <feGaussianBlur id="feGaussianBlur3667" stdDeviation="0.69"/>
  </filter>
  <linearGradient id="linearGradient3635" y2="36" gradientUnits="userSpaceOnUse" y1="88" x2="48" x1="48">
   <stop id="stop3729" style="stop-color:#d5d5d5" offset="0"/>
   <stop id="stop3731" style="stop-color:#f1f1f1" offset="1"/>
  </linearGradient>
  <linearGradient id="linearGradient3707" x1="51" xlink:href="#linearGradient3641" gradientUnits="userSpaceOnUse" y1="62" gradientTransform="translate(100,-1)" x2="51" y2="21"/>
  <clipPath id="clipPath3703">
   <rect id="rect3705" style="fill:#f0f" rx="6" ry="6" height="84" width="84" y="6" x="106"/>
  </clipPath>
  <filter id="filter3649" color-interpolation-filters="sRGB">
   <feGaussianBlur id="feGaussianBlur3651" stdDeviation="1.38"/>
  </filter>
  <linearGradient id="linearGradient3627" x1="48" xlink:href="#linearGradient3700" gradientUnits="userSpaceOnUse" x2="48" y1="88" y2="32"/>
  <clipPath id="clipPath3076" clipPathUnits="userSpaceOnUse">
   <rect id="rect3078" style="fill:url(#linearGradient3080)" rx="22.826" ry="22.826" height="84" width="84" y="6" x="6"/>
  </clipPath>
  <linearGradient id="linearGradient3080" x1="48" gradientUnits="userSpaceOnUse" y1="962.62" gradientTransform="matrix(1.05 0 0 1.05 -2.4 -1006.6)" x2="48" y2="1046.1">
   <stop id="stop3797" style="stop-color:#13a6fd" offset="0"/>
   <stop id="stop3799" style="stop-color:#2975b6" offset="1"/>
  </linearGradient>
  <clipPath id="clipPath3009" clipPathUnits="userSpaceOnUse">
   <path id="path3011" style="opacity:.15;fill:#fff" d="m-2 956.36h-96v33.562l96 25.687v-59.25z"/>
  </clipPath>
  <linearGradient id="linearGradient3915" y2="72.618" gradientUnits="userSpaceOnUse" y1="72.618" x2="79.622" x1="45.298">
   <stop id="stop3803" style="stop-color:#a4d620" offset="0"/>
   <stop id="stop3805" style="stop-color:#62a915" offset="1"/>
  </linearGradient>
  <linearGradient id="linearGradient3108-3" y2="84" gradientUnits="userSpaceOnUse" x2="68" y1="52" x1="68">
   <stop id="stop3944" style="stop-color:#fff" offset="0"/>
   <stop id="stop3946" style="stop-color:#fff;stop-opacity:0" offset="1"/>
  </linearGradient>
 </defs>
 <metadata id="metadata11042">
  <rdf:RDF>
   <cc:Work rdf:about="">
    <dc:format>image/svg+xml</dc:format>
    <dc:type rdf:resource="http://purl.org/dc/dcmitype/StillImage"/>
    <dc:title/>
   </cc:Work>
  </rdf:RDF>
 </metadata>
 <g id="layer1" transform="translate(0 -956.36)">
  <g id="layer1-9" transform="matrix(1.0952 0 0 1.0952 -4.5714 951.79)" clip-path="url(#clipPath3076)">
   <rect id="rect2419" style="fill:url(#linearGradient3689)" rx="6" ry="6" height="84" width="84" y="6" x="6"/>
   <path id="path3653" style="opacity:.3;filter:url(#filter3665);fill:url(#linearGradient3701)" clip-path="url(#clipPath3696)" transform="translate(-100,-1)" d="m112 89c-3.324 0-6-2.676-6-6v-6l42-42 42 42v6c0 3.324-2.676 6-6 6h-72z"/>
   <path id="path3619" style="fill:url(#linearGradient3635)" d="m12 90c-3.324 0-6-2.676-6-6v-6l42-42 42 42v6c0 3.324-2.676 6-6 6h-72z"/>
   <path id="path3718" style="opacity:.4;fill:#fff" d="m48 36-42 42v1l42-42 42 42v-1l-42-42z"/>
   <path id="path3637" style="opacity:.4;filter:url(#filter3649);fill:url(#linearGradient3707)" clip-path="url(#clipPath3703)" transform="translate(-100,1)" d="m112 7c-3.324 0-6 2.676-6 6v6l42 42 42-42v-6c0-3.324-2.676-6-6-6h-72z"/>
   <path id="path3613" style="fill:url(#linearGradient3627)" d="m12 6c-3.324 0-6 2.676-6 6v6l42 42 42-42v-6c0-3.324-2.676-6-6-6h-72z"/>
   <path id="path3709" style="opacity:.6;fill:#fff" d="m6 17v1l42 42 42-42v-1l-42 42-42-42z"/>
  </g>
  <rect id="rect3003" style="opacity:.15;fill:#fff" clip-path="url(#clipPath3009)" rx="25" ry="25" transform="translate(98 3.8281e-7)" width="92" y="958.36" x="-96" height="92"/>
  <g id="g3071" transform="translate(0 956.36)">
   <path id="path3950" style="opacity:.3;color:#000000" transform="matrix(0 1.0488 -1.0488 0 146.16 5.4895)" d="m74.642 84.8-4.1284-0.68045-0.77259 4.1122-3.6467-2.0514-2.1324 3.5999-2.7252-3.175-3.2351 2.6535-1.4749-3.9155-3.9475 1.387-0.04678-4.1839-4.1839-0.04678 1.387-3.9475-3.9155-1.4749 2.6535-3.2351-3.175-2.7252 3.5999-2.1324-2.0514-3.6467 4.1122-0.77259-0.68045-4.1284 4.1284 0.68045 0.77259-4.1122 3.6467 2.0514 2.1324-3.5999 2.7252 3.175 3.2351-2.6535 1.4749 3.9155 3.9475-1.387 0.04678 4.1839 4.1839 0.04678-1.387 3.9475 3.9155 1.4749-2.6535 3.2351 3.175 2.7252-3.5999 2.1324 2.0514 3.6467-4.1122 0.77259z"/>
   <path id="path3139" style="color:#000000;fill:url(#linearGradient3915)" transform="matrix(0 1.0488 -1.0488 0 146.16 4.4895)" d="m74.642 84.8-4.1284-0.68045-0.77259 4.1122-3.6467-2.0514-2.1324 3.5999-2.7252-3.175-3.2351 2.6535-1.4749-3.9155-3.9475 1.387-0.04678-4.1839-4.1839-0.04678 1.387-3.9475-3.9155-1.4749 2.6535-3.2351-3.175-2.7252 3.5999-2.1324-2.0514-3.6467 4.1122-0.77259-0.68045-4.1284 4.1284 0.68045 0.77259-4.1122 3.6467 2.0514 2.1324-3.5999 2.7252 3.175 3.2351-2.6535 1.4749 3.9155 3.9475-1.387 0.04678 4.1839 4.1839 0.04678-1.387 3.9475 3.9155 1.4749-2.6535 3.2351 3.175 2.7252-3.5999 2.1324 2.0514 3.6467-4.1122 0.77259z"/>
   <path id="path3919" style="opacity:0" d="m60 72 4-4 4 4 8-8 4 4-12 12-8-8z"/>
   <path id="path3929" style="opacity:.08" d="m75.875 62c-0.89787 0.0099-1.4381 0.77558-2.0323 1.3448-1.948 1.947-3.895 3.895-5.843 5.843-0.96438-0.93916-1.8688-1.97-2.875-2.8438-0.87962-0.66303-2.1307-0.32695-2.7834 0.47091-1.2841 1.3042-2.6253 2.5847-3.8728 3.9041-0.78338 0.83669-0.53664 2.2114 0.30207 2.8951 2.6492 2.6392 5.2991 5.2778 7.9479 7.9174 0.83698 0.78367 2.2109 0.53611 2.8955-0.30173l11.792-11.792c0.834-0.781 0.796-2.268-0.132-2.977-1.339-1.338-2.698-2.698-4.024-4.023-0.389-0.305-0.89-0.438-1.375-0.438z"/>
   <path id="path3925" style="opacity:.12" d="m75.906 63.094a0.9085 0.9085 0 0 0 -0.5625 0.25l-7.344 7.344-3.344-3.344a0.9085 0.9085 0 0 0 -1.3125 0l-4 4a0.9085 0.9085 0 0 0 0 1.3125l8 8a0.9085 0.9085 0 0 0 1.3125 0l12-12a0.9085 0.9085 0 0 0 0 -1.3125l-4-4a0.9085 0.9085 0 0 0 -0.75 -0.25z"/>
   <path id="path3921" style="opacity:.3" d="m60 72 4-4 4 4 8-8 4 4-12 12-8-8z"/>
   <path id="path3917" style="fill:#fff" d="m60 71 4-4 4 4 8-8 4 4-12 12-8-8z"/>
   <path id="path3933" style="opacity:.6;color:#000000;fill:url(#linearGradient3108-3)" d="m71.562 52-2.843 3.344-3.407-2.782-1.531 4.094-4.156-1.468v1l4.1562 1.4688 1.5312-4.0938 3.4062 2.7812 2.843-3.344 2.25 3.781 3.813-2.156 0.813 4.313 4.187-0.688 0.156-1.031-4.343 0.719-0.813-4.313-3.813 2.156-2.25-3.781zm-11.969 7.5938-4.4062 0.03125 0.34375 1 4.0625-0.03125v-1zm22.625 2-0.15625 0.96875 3.8125 0.71875 0.5-0.90625-4.1562-0.78125zm-25.875 2.3125-3.7812 1.4062 0.625 0.78125 3.4688-1.3125-0.3125-0.875zm28.312 2.5312-0.4375 0.75 3.0938 1.8438l0.688-0.593-3.3438-2zm-29.78 2.688-2.875 2.437l0.6875 0.40625 2.6562-2.25-0.469-0.593zm30.25 2.75-0.46875 0.40625 2.1562 2.625 0.625-0.21875-2.3125-2.8125zm-29.781 2.6875-1.7188 3.0625 0.5 0.09375 1.6562-2.9062-0.4375-0.25zm28.312 2.5312-0.3125 0.125 1.125 3.1562h0.34375l-1.1562-3.2812zm-25.875 2.3125-0.5625 3.375l0.157-0.031 0.563-3.312-0.157-0.032z"/>
  </g>
 </g>
</svg>
