<?xml version="1.0" encoding="UTF-8" standalone="no"?>
<!-- Created with Inkscape (http://www.inkscape.org/) -->
<svg id="svg11037" xmlns:rdf="http://www.w3.org/1999/02/22-rdf-syntax-ns#" xmlns="http://www.w3.org/2000/svg" height="96" width="96" version="1.1" xmlns:cc="http://creativecommons.org/ns#" xmlns:xlink="http://www.w3.org/1999/xlink" xmlns:dc="http://purl.org/dc/elements/1.1/">
 <defs id="defs11039">
  <clipPath id="clipPath3009" clipPathUnits="userSpaceOnUse">
   <path id="path3011" style="opacity:.15;fill:#fff" d="m-2 956.36h-96v33.562l96 25.687v-59.25z"/>
  </clipPath>
  <linearGradient id="linearGradient2881" x1="15.502" gradientUnits="userSpaceOnUse" y1="23.279" gradientTransform="matrix(2.5332 0 0 3.2305 16.605 -.072171)" x2="15.502" y2="6.5162">
   <stop id="stop4083-8" style="stop-color:#aaa" offset="0"/>
   <stop id="stop4085-386" style="stop-color:#f0f0f0" offset="1"/>
  </linearGradient>
 </defs>
 <metadata id="metadata11042">
  <rdf:RDF>
   <cc:Work rdf:about="">
    <dc:format>image/svg+xml</dc:format>
    <dc:type rdf:resource="http://purl.org/dc/dcmitype/StillImage"/>
    <dc:title/>
   </cc:Work>
  </rdf:RDF>
 </metadata>
 <g id="layer1" transform="translate(0 -956.36)">
  <rect id="rect3867" style="opacity:.6" rx="25" ry="25" height="92" width="92" y="958.36" x="2"/>
  <g id="g3053" transform="translate(1.8082e-8 956.36)">
   <path id="path3738" style="opacity:.3" d="m49.164 22c-0.75856 0.0114-1.5357 0.29697-2.059 0.84399l-20.309 20.256c-0.73229 0.71036-1.0098 1.8262-0.74873 2.8133 0.26108 0.98706 0.97632 1.7088 1.9654 1.9693 0.9891 0.26055 2.0959-0.0192 2.8077-0.75021l19.467-19.412h15.91v16.317l-25.176 25.133-10.107-10.128 16.565-16.505h3.8372v4.0324l-10.482 10.503c-0.73229 0.71036-1.0098 1.7325-0.74873 2.7195 0.26108 0.98707 1.0699 1.7088 2.059 1.9693 0.9891 0.26055 2.0023-0.0192 2.7141-0.75021l11.325-11.347c0.54815-0.5222 0.92443-1.2123 0.93591-1.9693v-7.971c0.012-0.76642-0.29856-1.5205-0.84232-2.0631-0.54374-0.54263-1.291-0.85577-2.059-0.84399h-7.8616c-0.75856 0.0117-1.5357 0.29697-2.059 0.84399l-19.467 19.412c-1.1056 1.1036-1.1081 2.9263 0 4.0324l14.132 14.067c1.1083 1.1058 2.9186 1.1033 4.0244 0l28.078-28.04c0.548-0.522 0.925-1.212 0.936-1.969l-0.094-20.256c-0.003-0.885-0.414-1.717-1.123-2.251-0.498-0.4-1.046-0.65-1.684-0.656h-19.935z"/>
   <path id="Symbol" style="fill:url(#linearGradient2881)" d="m49.164 21c-0.75856 0.0114-1.5357 0.29697-2.059 0.84399l-20.309 20.256c-0.73229 0.71036-1.0098 1.8262-0.74873 2.8133 0.26108 0.98706 0.97632 1.7088 1.9654 1.9693 0.9891 0.26055 2.0959-0.0192 2.8077-0.75021l19.467-19.412h15.91v16.317l-25.176 25.133-10.107-10.128 16.565-16.505h3.8372v4.0324l-10.482 10.503c-0.73229 0.71036-1.0098 1.7325-0.74873 2.7195 0.26108 0.98707 1.0699 1.7088 2.059 1.9693 0.9891 0.26055 2.0023-0.0192 2.7141-0.75021l11.325-11.347c0.54815-0.5222 0.92443-1.2123 0.93591-1.9693v-7.971c0.012-0.76642-0.29856-1.5205-0.84232-2.0631-0.54374-0.54263-1.291-0.85577-2.059-0.84399h-7.8616c-0.75856 0.0117-1.5357 0.29697-2.059 0.84399l-19.467 19.412c-1.1056 1.1036-1.1081 2.9263 0 4.0324l14.132 14.067c1.1083 1.1058 2.9186 1.1033 4.0244 0l28.078-28.04c0.548-0.522 0.925-1.212 0.936-1.969l-0.094-20.256c-0.003-0.885-0.414-1.717-1.123-2.251-0.498-0.4-1.046-0.65-1.684-0.656h-19.935z"/>
   <path id="path3719" style="opacity:.75;fill:#fff" d="m49.156 21c-0.75856 0.0114-1.5392 0.29673-2.0625 0.84375l-20.312 20.25c-0.695 0.673-0.976 1.709-0.782 2.656 0.08691-0.61919 0.33099-1.2195 0.78125-1.6562l20.312-20.25c0.524-0.547 1.305-0.833 2.063-0.844h19.938c0.63849 0.006 1.1896 0.25616 1.6875 0.65625 0.70838 0.53371 1.1214 1.3652 1.125 2.25v-1c-0.0036-0.88481-0.41662-1.7163-1.125-2.25-0.498-0.4-1.049-0.65-1.687-0.656h-19.938zm-2.8125 14.812c-0.75856 0.0117-1.508 0.29673-2.0312 0.84375l-19.469 19.406c-0.66695 0.66572-0.91879 1.5948-0.78125 2.4688 0.10396-0.54039 0.36665-1.0549 0.78125-1.4688l19.468-19.406c0.52327-0.54702 1.2727-0.83205 2.0312-0.84375h7.875c0.76799-0.01178 1.5188 0.30112 2.0625 0.84375 0.54376 0.54264 0.85575 1.2961 0.84375 2.0625v-1c0.012-0.76642-0.29999-1.5199-0.84375-2.0625-0.54374-0.54263-1.2945-0.85552-2.0625-0.84375h-7.875zm19.844 7.2188-25.156 25.125-9.625-9.625-0.5 0.5 10.125 10.125 25.156-25.125v-1zm-14.875 2.5312-10.469 10.5c-0.67649 0.65623-0.94705 1.5851-0.78125 2.5 0.10393-0.54998 0.3593-1.0907 0.78125-1.5l10.469-10.5v-1z"/>
   <path id="path3729" style="opacity:.15" d="m50.281 25.719-19.469 19.406c-0.711 0.731-1.823 1.011-2.812 0.75s-1.708-0.982-1.969-1.969c-0.013-0.051-0.02-0.104-0.031-0.156-0.05444 0.38784-0.0693 0.7761 0.03125 1.1562 0.26108 0.98706 0.97966 1.7082 1.9688 1.9688 0.9891 0.26055 2.1007-0.01899 2.8125-0.75l19.469-19.406h15.906v-1h-15.906zm-2.8125 14.812-16.562 16.5 0.5 0.5 16.062-16h3.8438v-1h-3.8438zm24.532 2.657c-0.02115 0.74479-0.39687 1.4225-0.9375 1.9375l-28.062 28.03c-1.1058 1.1033-2.9229 1.1058-4.0312 0l-14.125-14.062c-0.416-0.415-0.678-0.928-0.782-1.469-0.14005 0.87513 0.11148 1.8002 0.78125 2.4688l14.125 14.062c1.1083 1.1058 2.9254 1.1033 4.0312 0l28.063-28.031c0.549-0.522 0.927-1.212 0.938-1.969v-0.96875zm-14.875 2.5c-0.01148 0.75701-0.38935 1.4465-0.9375 1.9688l-11.344 11.343c-0.71183 0.73101-1.6984 1.0106-2.6875 0.75-0.98909-0.26055-1.8014-0.98168-2.0625-1.9688-0.0199-0.07522-0.01757-0.14327-0.03125-0.21875-0.07644 0.4045-0.07939 0.80044 0.03125 1.2188 0.26108 0.98707 1.0734 1.7082 2.0625 1.9688 0.9891 0.26055 1.9757-0.01899 2.6875-0.75l11.344-11.344c0.54815-0.5222 0.92602-1.2117 0.9375-1.9688v-1z"/>
  </g>
  <rect id="rect3003" style="opacity:.15;fill:#fff" clip-path="url(#clipPath3009)" rx="25" ry="25" transform="translate(98 -.0000026172)" width="92" y="958.36" x="-96" height="92"/>
 </g>
</svg>
