<?xml version="1.0" encoding="UTF-8" standalone="no"?>
<!-- Created with Inkscape (http://www.inkscape.org/) -->
<svg id="svg11037" xmlns:rdf="http://www.w3.org/1999/02/22-rdf-syntax-ns#" xmlns="http://www.w3.org/2000/svg" height="96" width="96" version="1.1" xmlns:cc="http://creativecommons.org/ns#" xmlns:xlink="http://www.w3.org/1999/xlink" xmlns:dc="http://purl.org/dc/elements/1.1/">
 <defs id="defs11039">
  <clipPath id="clipPath3009" clipPathUnits="userSpaceOnUse">
   <path id="path3011" style="opacity:.15;fill:#fff" d="m-2 956.36h-96v33.562l96 25.687v-59.25z"/>
  </clipPath>
  <linearGradient id="linearGradient3177" x1="57" xlink:href="#linearGradient4081-9" gradientUnits="userSpaceOnUse" x2="57" y1="63" y2="20"/>
  <linearGradient id="linearGradient4081-9">
   <stop id="stop4083-70" style="stop-color:#aaa" offset="0"/>
   <stop id="stop4085-77" style="stop-color:#f0f0f0" offset="1"/>
  </linearGradient>
  <linearGradient id="linearGradient3175" x1="57" xlink:href="#linearGradient4081-9" gradientUnits="userSpaceOnUse" x2="57" y1="76" y2="39"/>
 </defs>
 <metadata id="metadata11042">
  <rdf:RDF>
   <cc:Work rdf:about="">
    <dc:format>image/svg+xml</dc:format>
    <dc:type rdf:resource="http://purl.org/dc/dcmitype/StillImage"/>
    <dc:title/>
   </cc:Work>
  </rdf:RDF>
 </metadata>
 <g id="layer1" transform="translate(0 -956.36)">
  <rect id="rect3867" style="opacity:.6" rx="25" ry="25" height="92" width="92" y="958.36" x="2"/>
  <g id="g3063" transform="translate(0 956.36)">
   <path id="path5337" style="opacity:.3;color:#000000" d="m52 21v18.219h-8l16 17 16-17h-8.0938v-18.219h-15.906zm-16 21-16 17h8.0938v18.219h15.906v-18.219h8l-16-17z"/>
   <path id="path3173" style="color:#000000;fill:url(#linearGradient3177)" d="m52 20v18.219h-8l16 17 16-17h-8.0938v-18.219h-15.906z"/>
   <path id="rect4793" style="color:#000000;fill:url(#linearGradient3175)" d="m36 41-16 17h8.0938v18.219h15.906v-18.219h8l-16-17z"/>
   <path id="path5319" style="opacity:.75;color:#000000;fill:#fff" d="m52 20v1h15.906v-1h-15.906zm-8 18.219 0.9375 1h7.0625v-1h-8zm23.906 0v1h7.1562l0.9375-1h-8.0938zm-31.906 2.781-16 17h0.938l15.062-16 15.062 16h0.938l-16-17z"/>
   <path id="path5328" style="opacity:.15;color:#000000" d="m44 38.219 16 17 16-17h-0.9375l-15.062 16-15.062-16h-0.9375zm-23.062 18.781-0.938 1h8.0938v-1h-7.1562zm23.062 0v1h8l-0.938-1h-7.062zm-15.906 18.219v1h15.906v-1h-15.906z"/>
  </g>
  <rect id="rect3003" style="opacity:.15;fill:#fff" clip-path="url(#clipPath3009)" rx="25" ry="25" transform="translate(98 -.0000026172)" width="92" y="958.36" x="-96" height="92"/>
 </g>
</svg>
