<?xml version="1.0" encoding="UTF-8" standalone="no"?>
<!-- Created with Inkscape (http://www.inkscape.org/) -->
<svg id="svg11037" xmlns:rdf="http://www.w3.org/1999/02/22-rdf-syntax-ns#" xmlns="http://www.w3.org/2000/svg" height="96" width="96" version="1.1" xmlns:cc="http://creativecommons.org/ns#" xmlns:xlink="http://www.w3.org/1999/xlink" xmlns:dc="http://purl.org/dc/elements/1.1/">
 <defs id="defs11039">
  <clipPath id="clipPath3009" clipPathUnits="userSpaceOnUse">
   <path id="path3011" style="opacity:.15;fill:#fff" d="m-2 956.36h-96v33.562l96 25.687v-59.25z"/>
  </clipPath>
  <linearGradient id="linearGradient2982" x1="48" xlink:href="#ButtonColor-6" gradientUnits="userSpaceOnUse" x2="48" y1="90" y2="5.9877"/>
  <linearGradient id="ButtonColor-6" y2="5.4252" gradientUnits="userSpaceOnUse" y1="122" x2="58.65" x1="58.65">
   <stop id="stop3189-4" style="stop-color:#dcdcdc" offset="0"/>
   <stop id="stop3191-0" style="stop-color:#f5f5f5" offset="1"/>
  </linearGradient>
  <radialGradient id="radialGradient2986" gradientUnits="userSpaceOnUse" cy="89.689" cx="47.967" gradientTransform="matrix(1.3341 0 0 .95759 -16.026 2.1113)" r="42">
   <stop id="stop3739-1" style="stop-color:#fff" offset="0"/>
   <stop id="stop3741-0" style="stop-color:#fff;stop-opacity:0" offset="1"/>
  </radialGradient>
  <linearGradient id="linearGradient4073" y2="16.641" gradientUnits="userSpaceOnUse" y1="78.923" x2="47.727" x1="47.727">
   <stop id="stop3823" style="stop-color:#4d81cf" offset="0"/>
   <stop id="stop3825" style="stop-color:#9cb8e4" offset="1"/>
  </linearGradient>
  <clipPath id="clipPath4146">
   <rect id="rect4148" style="fill:#f0f" height="64" width="64" y="26" x="16"/>
  </clipPath>
  <linearGradient id="linearGradient3982" x1="39.819" xlink:href="#linearGradient3814-9" gradientUnits="userSpaceOnUse" y1="13.056" gradientTransform="matrix(-.96032 .27889 .27889 .96032 111.44 15.295)" x2="44.586" y2="29.471"/>
  <linearGradient id="linearGradient3814-9">
   <stop id="stop3816-9" style="stop-color:#fff" offset="0"/>
   <stop id="stop3818-8" style="stop-color:#fff;stop-opacity:0" offset="1"/>
  </linearGradient>
  <linearGradient id="linearGradient3980" x1="35.838" xlink:href="#linearGradient3814-9" gradientUnits="userSpaceOnUse" y1="56.924" gradientTransform="translate(-10,-3)" x2="35.838" y2="89.995"/>
  <linearGradient id="linearGradient3929" x1="45.967" xlink:href="#linearGradient3814-9" gradientUnits="userSpaceOnUse" y1="28.946" gradientTransform="translate(44.277 16.233)" x2="45.967" y2="48.086"/>
  <linearGradient id="linearGradient3926" x1="76.758" xlink:href="#linearGradient3814-9" gradientUnits="userSpaceOnUse" y1="27.41" gradientTransform="matrix(-1 0 0 1 80.942 38.325)" x2="76.758" y2="56.865"/>
  <linearGradient id="linearGradient3235" x1="75.918" gradientUnits="userSpaceOnUse" y1="63.139" gradientTransform="matrix(-1 0 0 1 85.594 12)" x2="75.918" y2="76.55">
   <stop id="stop3864-9" style="stop-color:#fff" offset="0"/>
   <stop id="stop3866-2" style="stop-color:#fff;stop-opacity:0" offset="1"/>
  </linearGradient>
  <linearGradient id="linearGradient4184" x1="49.191" xlink:href="#ButtonColor-6" gradientUnits="userSpaceOnUse" x2="49.191" y1="68.262" y2="27.219"/>
  <clipPath id="clipPath3124" clipPathUnits="userSpaceOnUse">
   <rect id="rect3126" style="fill:url(#linearGradient3128)" rx="22.826" ry="22.826" height="84" width="84" y="6" x="6"/>
  </clipPath>
  <linearGradient id="linearGradient3128" x1="48" gradientUnits="userSpaceOnUse" y1="962.62" gradientTransform="matrix(1.05 0 0 1.05 -2.4 -1006.6)" x2="48" y2="1046.1">
   <stop id="stop3797" style="stop-color:#13a6fd" offset="0"/>
   <stop id="stop3799" style="stop-color:#2975b6" offset="1"/>
  </linearGradient>
 </defs>
 <metadata id="metadata11042">
  <rdf:RDF>
   <cc:Work rdf:about="">
    <dc:format>image/svg+xml</dc:format>
    <dc:type rdf:resource="http://purl.org/dc/dcmitype/StillImage"/>
    <dc:title/>
   </cc:Work>
  </rdf:RDF>
 </metadata>
 <g id="layer1" transform="translate(0 -956.36)">
  <g id="g3080" transform="matrix(1.0952 0 0 1.0952 -4.5714 951.79)" clip-path="url(#clipPath3124)">
   <g id="layer1-4">
    <path id="rect2419" style="fill:url(#linearGradient2982)" d="m12 6c-3.1577 0-5.7192 2.4087-5.9688 5.5 2.4695 0.017 4.4688 2.027 4.4688 4.5 0 2.484-2.016 4.5-4.5 4.5v7c2.484 0 4.5 2.016 4.5 4.5s-2.016 4.5-4.5 4.5v7c2.484 0 4.5 2.016 4.5 4.5s-2.016 4.5-4.5 4.5v7c2.484 0 4.5 2.016 4.5 4.5s-2.016 4.5-4.5 4.5v7c2.484-0.000004 4.5 2.016 4.5 4.5 0 2.4734-1.9993 4.4829-4.4688 4.5 0.2496 3.091 2.8111 5.5 5.9688 5.5 0-2.484 2.016-4.5 4.5-4.5s4.5 2.016 4.5 4.5h7c0-2.484 2.016-4.5 4.5-4.5s4.5 2.016 4.5 4.5h7c0-2.484 2.016-4.5 4.5-4.5s4.5 2.016 4.5 4.5h7c0-2.484 2.016-4.5 4.5-4.5s4.5 2.016 4.5 4.5h7c-0.000004-2.484 2.016-4.5 4.5-4.5 2.4522 0 4.4493 1.9661 4.5 4.4062 2.689-0.445 4.746-2.647 4.969-5.406-2.47-0.017-4.469-2.027-4.469-4.5 0-2.484 2.016-4.5 4.5-4.5v-7c-2.484 0.000001-4.5-2.016-4.5-4.5s2.016-4.5 4.5-4.5v-7c-2.484 0.000001-4.5-2.016-4.5-4.5s2.016-4.5 4.5-4.5v-7c-2.484 0.000001-4.5-2.016-4.5-4.5s2.016-4.5 4.5-4.5v-7c-2.484 0.000001-4.5-2.016-4.5-4.5 0-2.4734 1.9993-4.4829 4.4688-4.5-0.223-2.7593-2.28-4.9611-4.969-5.4062-0.051 2.4401-2.048 4.4062-4.5 4.4062-2.484 0-4.5-2.016-4.5-4.5h-7c0.000001 2.484-2.016 4.5-4.5 4.5s-4.5-2.016-4.5-4.5h-7c0.000001 2.484-2.016 4.5-4.5 4.5s-4.5-2.016-4.5-4.5h-7c0.000001 2.484-2.016 4.5-4.5 4.5s-4.5-2.016-4.5-4.5h-7c0.000001 2.484-2.016 4.5-4.5 4.5s-4.5-2.016-4.5-4.5z"/>
    <path id="path2901" style="opacity:.3;fill:url(#radialGradient2986)" d="m6.5312 9.5625c-0.266 0.6015-0.4444 1.2485-0.5 1.9375 2.1261 0.015 3.8906 1.507 4.3438 3.5 0.074-0.323 0.125-0.655 0.125-1 0-2.302-1.7373-4.172-3.9688-4.4375zm82.938 0c-2.232 0.2655-3.969 2.1355-3.969 4.4375 0 0.34535 0.05123 0.6769 0.125 1 0.45319-1.993 2.2177-3.4853 4.3438-3.5-0.05569-0.68982-0.23378-1.3361-0.5-1.9375zm-83.469 15.938v2c2.1387 0 3.9181 1.4991 4.375 3.5 0.07377-0.3231 0.125-0.65465 0.125-1 0-2.484-2.016-4.5-4.5-4.5zm84 0c-2.484 0-4.5 2.016-4.5 4.5 0 0.34535 0.05123 0.6769 0.125 1 0.45687-2.0009 2.2363-3.5 4.375-3.5v-2zm-84 16v2c2.1387 0 3.9181 1.4991 4.375 3.5 0.07377-0.3231 0.125-0.65465 0.125-1 0-2.484-2.016-4.5-4.5-4.5zm84 0c-2.484 0-4.5 2.016-4.5 4.5 0 0.34535 0.05123 0.6769 0.125 1 0.45687-2.0009 2.2363-3.5 4.375-3.5v-2zm-84 16v2c2.1387 0 3.9181 1.4991 4.375 3.5 0.07377-0.3231 0.125-0.65465 0.125-1 0-2.484-2.016-4.5-4.5-4.5zm84 0c-2.484 0-4.5 2.016-4.5 4.5 0 0.34535 0.05123 0.6769 0.125 1 0.45687-2.0009 2.2363-3.5 4.375-3.5v-2zm-84 16v2c2.1387-0.000003 3.9181 1.4991 4.375 3.5 0.07318-0.32183 0.125-0.65612 0.125-1 0-2.484-2.016-4.5-4.5-4.5zm84 0c-2.484 0-4.5 2.016-4.5 4.5 0 0.34388 0.05182 0.67817 0.125 1 0.45687-2.0009 2.2363-3.5 4.375-3.5v-2zm-73.5 10c-2.484 0-4.5 2.016-4.5 4.5-2.4543 0-4.5404-1.463-5.4688-3.562-0.1656 0.019-0.3293 0.061-0.5 0.062 0.2496 3.091 2.8111 5.5 5.9688 5.5 0-2.484 2.016-4.5 4.5-4.5s4.5 2.016 4.5 4.5h7c0-2.484 2.016-4.5 4.5-4.5s4.5 2.016 4.5 4.5h7c0-2.484 2.016-4.5 4.5-4.5s4.5 2.016 4.5 4.5h7c0-2.484 2.016-4.5 4.5-4.5s4.5 2.016 4.5 4.5h7c-0.000004-2.484 2.016-4.5 4.5-4.5 2.4522 0 4.4493 1.9661 4.5 4.4062 2.6885-0.44512 4.746-2.647 4.9688-5.4062-0.17068-0.0012-0.33432-0.04279-0.5-0.0625-0.799 1.804-2.453 3.134-4.469 3.468-0.051-2.44-2.048-4.406-4.5-4.406-2.484 0-4.5 2.016-4.5 4.5h-7c0-2.484-2.016-4.5-4.5-4.5s-4.5 2.016-4.5 4.5h-7c0-2.484-2.016-4.5-4.5-4.5s-4.5 2.016-4.5 4.5h-7c0-2.484-2.016-4.5-4.5-4.5s-4.5 2.016-4.5 4.5h-7c0-2.484-2.016-4.5-4.5-4.5z"/>
   </g>
   <rect id="rect2411" style="fill:url(#linearGradient4073)" height="64" width="64" y="16" x="16"/>
   <g id="g3963" style="opacity:.8" clip-path="url(#clipPath4146)" transform="translate(0,-10)">
    <path id="path3870" style="color:#000000;fill:url(#linearGradient3982)" d="m63.176 37.577c1.3695-0.39771 2.8078 0.36799 3.2055 1.7375 0.26277 0.90483 0.01648 1.8361-0.58162 2.4793 0.58655 0.47866 1.0897 1.0561 1.5055 1.7105 0.67528-0.47186 1.3964-0.88205 2.1926-1.19-0.06956-0.13999-0.14562-0.27731-0.19075-0.43272-0.40846-1.4065 0.40358-2.8832 1.8101-3.2917 1.0305-0.29927 2.09 0.06539 2.7465 0.82944 0.71646-1.3394 1.9296-2.4116 3.4859-2.8997-0.36546-1.2584 0.35998-2.5777 1.6184-2.9431 1.1849-0.34412 2.4063 0.29254 2.8521 1.4171 0.32427-0.23589 0.70211-0.43169 1.1094-0.54996 1.8877-0.54819 3.8665 0.53996 4.4147 2.4276 0.01796 0.06184 0.0078 0.1268 0.02228 0.18878 0.5619-0.24483 1.1335-0.45935 1.7357-0.63424 1.6025-0.46537 3.1983-0.63221 4.7794-0.57446 0.79208-1.3548 2.0873-2.4285 3.7134-2.9007 3.3682-0.97815 6.8831 0.9547 7.8612 4.3229 0.14672 0.50522 0.22646 1.0197 0.24699 1.5228 2.1491-0.3304 4.2499 0.9638 4.8726 3.1082 0.12227 0.42102 0.17183 0.83567 0.16855 1.2527 0.2622 0.12185 0.51679 0.24917 0.76579 0.39589 0.63234-0.96454 1.5939-1.732 2.8112-2.0855 2.6279-0.76317 5.3354 0.66766 6.0663 3.1845 0.73092 2.5169-0.78897 5.1754-3.4169 5.9385-0.39479 0.11465-0.79196 0.1614-1.184 0.18113 0.12908 3.8894-2.3625 7.5197-6.2725 8.6552-1.2289 0.3569-2.4795 0.42203-3.669 0.252-1.92 2.7901-4.7482 4.9584-8.2544 5.9767-4.7374 1.3758-9.6028 0.33061-13.287-2.3892-0.58501 0.61766-1.3331 1.103-2.2091 1.3574-2.331 0.67695-4.7547-0.41753-5.8058-2.5117-0.02951 0.0088-0.06039 0.01754-0.09003 0.02614-3.47 1.0077-7.0196 0.12201-9.6027-2.0274-0.85466 1.6019-2.3363 2.8588-4.2177 3.4051-3.3969 0.98648-6.954-0.7078-8.3443-3.8572-0.39834 0.22718-0.80841 0.43002-1.2682 0.56353-3.1461 0.91365-6.4442-0.89994-7.3578-4.046-0.91365-3.1461 0.89994-6.4442 4.046-7.3578 0.32887-0.09551 0.65822-0.15163 0.98647-0.18886 0.33617-0.60813 0.87158-1.0666 1.5527-1.2644 0.70433-0.20454 1.4424-0.08217 2.0659 0.27864-0.12887-3.2244 1.9287-6.2548 5.1671-7.1953 0.70473-0.20466 1.4091-0.26407 2.1065-0.25381-0.06387-1.1722 0.66728-2.2764 1.843-2.6179z"/>
    <path id="path3739" style="color:#000000;fill:url(#linearGradient3980)" d="m20.5 50.312c-0.95045 0-1.8285 0.30559-2.5312 0.8125-0.58004-0.08942-1.1762-0.15625-1.7812-0.15625-2.6437 0-5.0504 0.91554-7 2.4062-0.2257-0.035-0.4522-0.062-0.688-0.062-2.3125 0-4.1875 1.7719-4.1875 3.9688 0 0.82384 0.26727 1.5839 0.71875 2.2188-0.268 0.97769-0.40625 1.9997-0.40625 3.0625 0 1.0735 0.13301 2.1073 0.40625 3.0938-0.6199-0.279-1.3073-0.437-2.0312-0.437-2.7365 0-4.9375 2.201-4.9375 4.9375s2.201 4.9688 4.9375 4.9688c0.36612 0 0.719-0.04965 1.0625-0.125-0.000643 0.04129 0 0.08355 0 0.125 0 4.3167 3.4958 7.8125 7.8125 7.8125 2.786 0 5.2097-1.4621 6.5938-3.6562 2.0411 1.841 4.7536 2.9688 7.7188 2.9688 4.015 0 7.533-2.072 9.5938-5.1875 1.2942 0.97115 2.8824 1.5625 4.625 1.5625 2.725 0 5.1192-1.4353 6.5-3.5625 0.69317 0.55616 1.5421 0.90625 2.5 0.90625 1.3093 0 2.4789-0.6295 3.2188-1.5938 0.32267 0.20323 0.71549 0.34375 1.125 0.34375 1.1563 0 2.0938-0.93749 2.0938-2.0938s-0.93749-2.0938-2.0938-2.0938c-0.18067 0-0.36401 0.01947-0.53125 0.0625-0.509-1.456-1.821-2.527-3.408-2.688-0.086-1.348-1.192-2.406-2.562-2.406-0.3812 0-0.73681 0.07047-1.0625 0.21875-1.4183-1.5835-3.4881-2.5938-5.7812-2.5938-1.0245 0-1.9799 0.20126-2.875 0.5625-0.22426-2.3734-2.2241-4.25-4.6562-4.25-0.28018 0-0.54588 0.04651-0.8125 0.09375 0.03207-0.21766 0.0625-0.42967 0.0625-0.65625 0-2.5052-2.0573-4.5312-4.5625-4.5312-0.93946 0-1.8073 0.2609-2.5312 0.75-0.12466-0.14758-0.24323-0.29637-0.375-0.4375 0.01212-0.12327 0.03125-0.24872 0.03125-0.375 0-2.1969-1.875-3.9688-4.1875-3.9688z"/>
    <path id="path3772" style="color:#000000;fill:url(#linearGradient3929)" d="m94.09 34.889c-1.7951 0-3.2871 1.3348-3.5312 3.0625-0.99024 0.39781-1.8962 0.90849-2.7188 1.5625-0.48316-0.50848-1.1494-0.84375-1.9062-0.84375-1.4646 0-2.6562 1.1917-2.6562 2.6562 0 0.01073-0.00013 0.02055 0 0.03125-1.0357 0.06809-2.0271 0.26679-2.9688 0.59375-0.55027-0.63705-1.3734-1.0312-2.2813-1.0312-1.6368 0-2.9673 1.3085-3 2.9375-0.04347-0.0022-0.08097-0.03125-0.125-0.03125-1.2037 0-2.2233 0.86986-2.4688 2-2.4536 0.16605-4.5626 1.5198-5.7812 3.5-0.4926-0.20835-1.0253-0.3125-1.5938-0.3125-2.274 0-4.125 1.851-4.125 4.125s1.851 4.0938 4.125 4.0938c0.53425 0 1.0316-0.09607 1.5-0.28125 1.2861 2.1833 3.6578 3.625 6.375 3.625 0.87777 0 1.7188-0.15691 2.5-0.4375 2.0858 2.4103 5.156 3.9375 8.5938 3.9375 3.5742 0 6.7584-1.6406 8.8438-4.2188 1.215 1.3833 2.9829 2.2812 4.9688 2.2812 1.5447 0 2.9666-0.55175 4.0938-1.4375 1.0575 0.54918 2.2573 0.875 3.5312 0.875 1.5489 0 2.9813-0.46094 4.1875-1.25 0.49805 0.25713 1.0571 0.40625 1.6562 0.40625 1.7433 0 3.213-1.236 3.5625-2.875 0.23611 1.5401 1.5501 2.7188 3.1562 2.7188 1.7729 0 3.2188-1.4146 3.2188-3.1875 0-1.6151-1.1974-2.9623-2.75-3.1875 0.0458-0.25866 0.0937-0.54069 0.0937-0.8125 0-2.5052-2.026-4.5312-4.5312-4.5312-0.84008 0-1.6378 0.25822-2.3125 0.65625-0.22398-0.31986-0.44981-0.65593-0.71875-0.9375 0.10594-0.25048 0.15625-0.52343 0.15625-0.8125 0-1.1563-0.93749-2.0938-2.0938-2.0938-0.0932 0-0.1913 0.01945-0.28125 0.03125-0.0172-1.7967-1.4805-3.25-3.2812-3.25-0.47744 0-0.93457 0.09784-1.3438 0.28125-1.4251-2.523-3.8275-4.4148-6.6875-5.1875-0.40134-1.5259-1.7544-2.6562-3.4062-2.6562z"/>
    <path id="path3671" style="opacity:.8;color:#000000;fill:url(#linearGradient3926)" d="m10.661 61.763c3.0264 0.30734 5.375 2.8925 5.375 6 0 0.50225-0.07128 0.97124-0.1875 1.4375 1.3556-0.82923 2.9508-1.3125 4.6562-1.3125 0.69713 0 1.3801 0.09893 2.0312 0.25 0.47506-1.3625 1.7568-2.3438 3.2812-2.3438 1.9271 0 3.4688 1.5729 3.4688 3.5 0 0.92305-0.35225 1.751-0.9375 2.375 0.19649-0.02238 0.39127 0 0.59375 0 2.8907 0 5.25 2.3281 5.25 5.2188s-2.3593 5.25-5.25 5.25c-0.40398 0-0.77855-0.06962-1.1562-0.15625-1.0117 1.427-2.4356 2.5193-4.0938 3.1562 0.0042 0.11543 0.03125 0.2273 0.03125 0.34375 0 5.2417-4.2583 9.4688-9.5 9.4688-1.5304 0-2.9698-0.3566-4.25-1-2.6246 1.7834-5.8064 2.8438-9.2188 2.8438-6.8387 0-12.693-4.2051-15.156-10.156-4.7852-0.59661-8.5-4.647-8.5-9.5938 0-5.3573 4.3302-9.7188 9.6875-9.7188 1.1595 0 2.2818 0.22061 3.3125 0.59375 0.85422-0.73119 1.7894-1.3932 2.7812-1.9375-0.0827-0.23333-0.15625-0.48833-0.15625-0.75 0-1.2333 1.0166-2.2188 2.25-2.2188 0.94828 0 1.7699 0.57244 2.0938 1.4062 1.0568-0.24278 2.1573-0.40621 3.2813-0.4375 0.31043-1.2856 1.4628-2.2188 2.8438-2.2188 1.1744 0 2.1886 0.6901 2.6562 1.6875 1.0788-1.0542 2.5545-1.6875 4.1875-1.6875 0.20716 0 0.42324-0.02049 0.625 0z"/>
    <path id="path3713" style="opacity:.8;color:#000000;fill:url(#linearGradient3235)" d="m7.6562 74.656c3.5005 0 6.464 2.1862 7.625 5.2812 2.9227 0.05208 5.2812 2.4399 5.2812 5.375 0 2.9677-2.4073 5.375-5.375 5.375-1.1753 0-2.2405-0.3911-3.125-1.0312-1.2736 0.82112-2.7782 1.3125-4.4062 1.3125-0.41217 0-0.82299-0.03481-1.2188-0.09375-0.4608 0.55836-1.157 0.9375-1.9375 0.9375-1.11 0-2.0426-0.72039-2.375-1.7188-0.573 0.1721-1.1834 0.28125-1.8125 0.28125-3.4688 0-6.2812-2.8125-6.2812-6.2812 0-2.9051 1.9776-5.3448 4.6562-6.0625-0.02473-0.15323-0.0625-0.30854-0.0625-0.46875 0-1.6188 1.3187-2.9062 2.9375-2.9062 0.86619 0 1.6509 0.37137 2.1875 0.96875 1.1569-0.62848 2.4971-0.96875 3.9062-0.96875z"/>
   </g>
   <path id="rect4183" style="opacity:.6;fill:#3365a8" d="m16.438 16c-0.03654 0.0073-0.06024 0.01707-0.09375 0.03125-0.07367 0.02998-0.13462 0.06872-0.1875 0.125-0.09518 0.1013-0.15946 0.22767-0.15625 0.375v62.937c0.0019 0.05425 0.01433 0.10669 0.03125 0.15625 0.01558 0.04455 0.03654 0.08657 0.0625 0.125 0.01089 0.01749 0.01848 0.04637 0.03125 0.0625 0.0088 0.01017 0.02176 0.02176 0.03125 0.03125 0.05288 0.05628 0.11383 0.09502 0.1875 0.125 0.02947 0.01199 0.06172 0.02443 0.09375 0.03125 0.03461 0.0069 0.05711-0.000004 0.09375 0h62.937c0.07531-0.000007 0.12225-0.0036 0.1875-0.03125 0.19576-0.08281 0.34373-0.27407 0.34375-0.5 0.000591-0.0104-0.000001-0.02071 0-0.03125v-62.906c-0.000007-0.07531-0.0036-0.12225-0.03125-0.1875-0.08281-0.19576-0.27407-0.34373-0.5-0.34375h-62.938c-0.03777-0.004-0.05597-0.004-0.09375 0zm0.65625 1.0938h61.813v61.812h-61.813v-61.812z"/>
   <g id="text4154" style="opacity:.3;fill:#072045" transform="scale(1.0006 .99942)">
    <path id="path4159" style="fill:#072045" d="m58.454 60.485c-1.0401 0.000002-1.9014-0.14626-2.5839-0.43877-0.68256-0.29251-1.2513-0.68253-1.7063-1.1701-0.71506 0.39002-1.5763 0.73129-2.5839 1.0238-1.0076 0.26001-2.0151 0.39002-3.0226 0.39002-1.5601 0.000002-2.9902-0.24376-4.2902-0.73128-1.2676-0.48752-2.3726-1.2026-3.3151-2.1451-0.94256-0.97504-1.6738-2.1613-2.1938-3.5589-0.52004-1.3976-0.78005-3.0226-0.78004-4.8752-0.000013-1.5601 0.24375-3.0226 0.73128-4.3877 0.48751-1.3975 1.2025-2.6001 2.1451-3.6077 0.97503-1.04 2.1451-1.8526 3.5102-2.4376 1.3975-0.585 2.9739-0.87751 4.729-0.87754 1.6575 0.000025 3.1689 0.13003 4.534 0.39002 1.3975 0.26004 2.4701 0.52005 3.2176 0.78004v14.918c-0.000032 1.0401 0.17873 1.7713 0.53627 2.1938 0.35748 0.42252 0.82875 0.63378 1.4138 0.63378 0.845 0.000006 1.5763-0.29251 2.1938-0.87754 0.64999-0.58502 1.17-1.3488 1.5601-2.2914 0.42248-0.94253 0.73124-1.9988 0.92629-3.1689 0.19497-1.2025 0.29247-2.4213 0.29251-3.6564-0.000039-2.0476-0.35755-3.9652-1.0725-5.7528-0.71507-1.8201-1.7389-3.4126-3.0714-4.7777-1.3326-1.365-2.9577-2.4376-4.8752-3.2176-1.8851-0.78-4.014-1.17-6.3865-1.1701-2.3726 0.000031-4.5502 0.4063-6.5328 1.2188-1.9826 0.78006-3.6889 1.9176-5.119 3.4127-1.4301 1.4626-2.5514 3.2664-3.3639 5.4115-0.78004 2.1451-1.1701 4.5827-1.1701 7.3128-0.000007 2.8601 0.42251 5.379 1.2676 7.5566 0.84503 2.1451 2.0151 3.9489 3.5102 5.4115 1.5276 1.4301 3.3151 2.5026 5.3627 3.2176 2.0801 0.74753 4.3552 1.1213 6.8253 1.1213 1.9176-0.000004 3.4939-0.11376 4.729-0.34126 1.2675-0.22751 2.0801-0.40627 2.4376-0.53627l0.48752 3.6077c-0.55256 0.195-1.5601 0.40626-3.0226 0.63378-1.4301 0.2275-2.9739 0.34126-4.6315 0.34126-2.8927-0.000007-5.6228-0.42253-8.1904-1.2676-2.5676-0.81254-4.8102-2.0801-6.7278-3.8027-1.9176-1.6901-3.4452-3.8514-4.5827-6.484-1.1051-2.6651-1.6576-5.8178-1.6576-9.4579-0.000003-3.5101 0.55252-6.5815 1.6576-9.2142 1.105-2.6326 2.5839-4.8102 4.4364-6.5328 1.8851-1.755 4.0464-3.0714 6.484-3.9489 2.4701-0.8775 5.0702-1.3163 7.8004-1.3163 2.6651 0.000034 5.184 0.4388 7.5566 1.3163 2.3726 0.84507 4.4527 2.0964 6.2403 3.7539 1.7875 1.6251 3.2014 3.6077 4.2414 5.9478 1.04 2.3076 1.56 4.924 1.5601 7.8491-0.000043 2.2101-0.26005 4.1602-0.78004 5.8503-0.48756 1.6901-1.1538 3.1201-1.9988 4.2902-0.84508 1.1376-1.8526 1.9988-3.0226 2.5839-1.1701 0.58503-2.4051 0.87754-3.7052 0.87754m-9.751-3.946c0.68251 0.000006 1.365-0.065 2.0476-0.19501 0.715-0.1625 1.3488-0.39001 1.9013-0.68253-0.09753-0.42251-0.16254-0.84503-0.19501-1.2676-0.03253-0.42251-0.04878-0.82878-0.04875-1.2188v-11.457c-0.19504-0.06498-0.5688-0.12998-1.1213-0.19501-0.55255-0.06498-1.1701-0.09748-1.8526-0.0975-2.3076 0.000021-4.0302 0.71505-5.1677 2.1451-1.1376 1.4301-1.7063 3.2339-1.7063 5.4115-0.000018 2.3076 0.55251 4.1439 1.6576 5.509 1.105 1.3651 2.6001 2.0476 4.4852 2.0476"/>
   </g>
   <text id="text4150" style="font-size:48.752px;letter-spacing:0px;word-spacing:0px;font-family:Ubuntu;line-height:125%;fill:url(#linearGradient4184)" xml:space="preserve" transform="scale(1.0006 .99942)" y="61.580971" x="24.717358"><tspan id="tspan4152" y="61.580971" x="24.717358" style="fill:url(#linearGradient4184)">@</tspan></text>
   <path id="text4186" style="fill:#fff" d="m48.375 27c-2.7317 0.000035-5.3097 0.4355-7.7812 1.3125-2.439 0.87706-4.6138 2.1835-6.5 3.9375-1.8537 1.7216-3.3318 3.9002-4.4375 6.5312-1.106 2.631-1.657 5.711-1.657 9.219 0 0.16912-0.0024 0.33298 0 0.5 0.05127-3.2964 0.60446-6.2159 1.6562-8.7188 1.1057-2.6311 2.5838-4.8096 4.4375-6.5312 1.8862-1.754 4.061-3.0604 6.5-3.9375 2.4715-0.877 5.0495-1.3125 7.7812-1.3125 2.6666 0.000035 5.1885 0.4355 7.5625 1.3125 2.374 0.84458 4.4613 2.0934 6.25 3.75 1.7886 1.6242 3.2093 3.5988 4.25 5.9375 0.97169 2.1535 1.4669 4.5896 1.5312 7.2812 0.002-0.146 0.031-0.288 0.031-0.437 0-2.924-0.522-5.538-1.562-7.844-1.0407-2.3387-2.4614-4.3133-4.25-5.9375-1.7887-1.6566-3.876-2.9054-6.25-3.75-2.375-0.876-4.896-1.312-7.563-1.312zm0.75 9.6562c-1.7561 0.000025-3.3516 0.29034-4.75 0.875-1.3659 0.58471-2.5244 1.3981-3.5 2.4375-0.9431 1.007-1.6685 2.197-2.1562 3.5938-0.48782 1.3643-0.71876 2.8158-0.71875 4.375-0.000001 0.12646 0.02882 0.25066 0.03125 0.375 0.05836-1.3192 0.26748-2.5753 0.6875-3.75 0.48779-1.3967 1.2131-2.5868 2.1562-3.5938 0.97559-1.0394 2.1341-1.8528 3.5-2.4375 1.3984-0.58466 2.9939-0.87498 4.75-0.875 1.6585 0.000025 3.1654 0.11516 4.5312 0.375 1.3983 0.25988 2.4708 0.52141 3.2188 0.78125v-1c-0.748-0.259-1.82-0.521-3.219-0.781-1.366-0.26-2.872-0.375-4.531-0.375zm14.656 9.344c-0.02045 1.0843-0.10934 2.1596-0.28125 3.2188-0.19516 1.1694-0.48352 2.2143-0.90625 3.1562-0.39028 0.942-0.91213 1.7278-1.5625 2.3125-0.61792 0.58469-1.342 0.87501-2.1875 0.875-0.5854 0.000006-1.0798-0.23397-1.4375-0.65625-0.35776-0.42227-0.53128-1.148-0.53125-2.1875v1c-0.000032 1.0395 0.17349 1.7652 0.53125 2.1875 0.35769 0.42228 0.8521 0.65626 1.4375 0.65625 0.84549 0.000006 1.5696-0.29031 2.1875-0.875 0.65037-0.58468 1.1722-1.3705 1.5625-2.3125 0.42273-0.94198 0.71109-1.9869 0.90625-3.1562 0.19508-1.2018 0.31246-2.4219 0.3125-3.6562-0.000004-0.19196-0.02495-0.37283-0.03125-0.5625zm-21.156 2.469c-0.0064 0.15919-0.03125 0.30535-0.03125 0.46875-0.000018 2.3063 0.55054 4.167 1.6562 5.5312 1.1057 1.3643 2.5825 2.0313 4.4688 2.0312 0.6829 0.000006 1.3795-0.05756 2.0625-0.1875 0.71542-0.16241 1.3534-0.39515 1.9062-0.6875-0.07301-0.31593-0.08843-0.62157-0.125-0.9375-0.52463 0.26331-1.1161 0.47401-1.7812 0.625-0.68295 0.12994-1.3796 0.18751-2.0625 0.1875-1.8862 0.000006-3.3631-0.66697-4.4688-2.0312-1.0186-1.2568-1.5448-2.9437-1.625-5zm-10.406 0.031c-0.0031 0.16837-0.03125 0.32934-0.03125 0.5-0.000007 2.8585 0.43571 5.3862 1.2812 7.5625 0.84552 2.1439 2.0041 3.9445 3.5 5.4062 1.5284 1.4292 3.3262 2.5041 5.375 3.2188 2.0813 0.7471 4.3409 1.125 6.8125 1.125 1.9187-0.000004 3.5142-0.11638 4.75-0.34375 1.2683-0.22738 2.0797-0.43257 2.4375-0.5625l0.375 2.6562c0.03151-0.01031 0.096-0.02103 0.125-0.03125l-0.5-3.625c-0.35776 0.12993-1.1692 0.33512-2.4375 0.5625-1.2358 0.22738-2.8313 0.34375-4.75 0.34375-2.4716-0.000004-4.7312-0.3779-6.8125-1.125-2.0488-0.71462-3.8466-1.7895-5.375-3.2188-1.4959-1.4617-2.6545-3.2624-3.5-5.4062-0.79502-2.0463-1.2025-4.4131-1.25-7.0625z"/>
  </g>
  <rect id="rect3003" style="opacity:.15;fill:#fff" clip-path="url(#clipPath3009)" rx="25" ry="25" transform="translate(98)" width="92" y="958.36" x="-96" height="92"/>
 </g>
</svg>
