<?xml version="1.0" encoding="UTF-8" standalone="no"?>
<!-- Created with Inkscape (http://www.inkscape.org/) -->
<svg id="svg11037" xmlns:rdf="http://www.w3.org/1999/02/22-rdf-syntax-ns#" xmlns="http://www.w3.org/2000/svg" height="96" width="96" version="1.1" xmlns:cc="http://creativecommons.org/ns#" xmlns:xlink="http://www.w3.org/1999/xlink" xmlns:dc="http://purl.org/dc/elements/1.1/">
 <defs id="defs11039">
  <clipPath id="clipPath3009" clipPathUnits="userSpaceOnUse">
   <path id="path3011" style="opacity:.15;fill:#fff" d="m-2 956.36h-96v33.562l96 25.687v-59.25z"/>
  </clipPath>
  <linearGradient id="linearGradient3856-0" x1="48" gradientUnits="userSpaceOnUse" y1="72" gradientTransform="translate(4)" x2="48" y2="24">
   <stop id="stop4083-4" style="stop-color:#aaa" offset="0"/>
   <stop id="stop4085-47" style="stop-color:#f0f0f0" offset="1"/>
  </linearGradient>
 </defs>
 <metadata id="metadata11042">
  <rdf:RDF>
   <cc:Work rdf:about="">
    <dc:format>image/svg+xml</dc:format>
    <dc:type rdf:resource="http://purl.org/dc/dcmitype/StillImage"/>
    <dc:title/>
   </cc:Work>
  </rdf:RDF>
 </metadata>
 <g id="layer1" transform="translate(0 -956.36)">
  <rect id="rect3867" style="opacity:.6" rx="25" ry="25" height="92" width="92" y="958.36" x="2"/>
  <g id="g3055" transform="translate(0 956.36)">
   <path id="path3876" style="opacity:.3" d="m52 25c-9.47 0-17.627 5.503-21.531 13.469l10.531 10.531-10.531 10.531c3.904 7.966 12.061 13.469 21.531 13.469 13.255 0 24-10.745 24-24s-10.745-24-24-24zm-26 11.875v6.125h-8v12h8v6l12-12.094-12-12.031zm26 2.125c5.5228 0 10 4.4772 10 10s-4.4772 10-10 10-10-4.4772-10-10 4.4772-10 10-10zm0 2c-4.4183 0-8 3.5817-8 8s3.5817 8 8 8 8-3.5817 8-8-3.5817-8-8-8zm0 2c3.3137 0 6 2.6863 6 6s-2.6863 6-6 6-6-2.6863-6-6 2.6863-6 6-6z"/>
   <path id="path2949" style="fill:url(#linearGradient3856-0)" d="m52 24c-9.47 0-17.627 5.503-21.531 13.469l10.531 10.531-10.531 10.531c3.904 7.966 12.061 13.469 21.531 13.469 13.255 0 24-10.745 24-24s-10.745-24-24-24zm-26 11.875v6.125h-8v12h8v6l12-12.094-12-12.031zm26 2.125c5.5228 0 10 4.4772 10 10s-4.4772 10-10 10-10-4.4772-10-10 4.4772-10 10-10zm0 2c-4.4183 0-8 3.5817-8 8s3.5817 8 8 8 8-3.5817 8-8-3.5817-8-8-8zm0 2c3.3137 0 6 2.6863 6 6s-2.6863 6-6 6-6-2.6863-6-6 2.6863-6 6-6z"/>
   <path id="path3858" style="opacity:.75;fill:#fff" d="m52 24c-9.47 0-17.627 5.503-21.531 13.469l0.343 0.343c4.024-7.608 11.982-12.812 21.188-12.812 13.089 0 23.736 10.474 24 23.5 0.003-0.165 0-0.334 0-0.5 0-13.255-10.745-24-24-24zm-26 11.875v1l11.5 11.531 0.5-0.5-12-12.031zm26 4.125c-4.4183 0-8 3.5817-8 8 0 0.17009 0.02079 0.33255 0.03125 0.5 0.261-4.182 3.721-7.5 7.969-7.5 4.2482 0 7.7075 3.3177 7.9688 7.5 0.01-0.167 0.031-0.33 0.031-0.5 0-4.418-3.582-8-8-8zm-34 2v1h8v-1h-8zm22.5 6.5-10.031 10.031c0.10866 0.22171 0.22856 0.43842 0.34375 0.65625l10.187-10.187-0.5-0.5zm1.5312 0c-0.008 0.165-0.031 0.333-0.031 0.5 0 5.5228 4.4772 10 10 10s10-4.4772 10-10c0-0.16738-0.02312-0.33464-0.03125-0.5-0.26 5.291-4.614 9.5-9.969 9.5s-9.709-4.209-9.969-9.5zm4 0.125c-0.007 0.123-0.031 0.251-0.031 0.375 0 3.3137 2.6863 6 6 6s6-2.6863 6-6c0-0.12447-0.02378-0.25241-0.03125-0.375-0.308 3.026-2.862 5.375-5.969 5.375s-5.661-2.349-5.969-5.375z"/>
   <path id="path3867" style="opacity:.15" d="m30.812 36.812c-0.11519 0.21783-0.23509 0.43454-0.34375 0.65625l10.032 10.032 0.5-0.5-10.188-10.188zm21.188 0.188c-5.5228 0-10 4.4772-10 10 0 0.16738 0.02312 0.33464 0.03125 0.5 0.26-5.291 4.614-9.5 9.969-9.5 5.3555 0 9.7087 4.209 9.9688 9.5 0.008-0.165 0.031-0.333 0.031-0.5 0-5.523-4.477-10-10-10zm0 4c-3.3137 0-6 2.6863-6 6 0 0.12447 0.02378 0.25241 0.03125 0.375 0.308-3.026 2.862-5.375 5.969-5.375 3.1066 0 5.6615 2.3495 5.9688 5.375 0.007-0.123 0.031-0.251 0.031-0.375 0-3.314-2.686-6-6-6zm-14.5 6.406-11.5 11.594v1l12-12.094-0.5-0.5zm6.531 0.094c-0.01 0.167-0.031 0.33-0.031 0.5 0 4.4183 3.5817 8 8 8s8-3.5817 8-8c0-0.17009-0.02079-0.33255-0.03125-0.5-0.261 4.182-3.721 7.5-7.969 7.5s-7.708-3.318-7.969-7.5zm31.969 0c-0.264 13.026-10.911 23.5-24 23.5-9.206 0-17.164-5.204-21.188-12.812l-0.34375 0.34375c3.905 7.965 12.062 13.468 21.532 13.468 13.255 0 24-10.745 24-24 0-0.16558 0.0033-0.33522 0-0.5zm-58 5.5v1h8v-1h-8z"/>
  </g>
  <rect id="rect3003" style="opacity:.15;fill:#fff" clip-path="url(#clipPath3009)" rx="25" ry="25" transform="translate(98 -.0000026172)" width="92" y="958.36" x="-96" height="92"/>
 </g>
</svg>
