<?xml version="1.0" encoding="UTF-8" standalone="no"?>
<!-- Created with Inkscape (http://www.inkscape.org/) -->
<svg id="svg11037" xmlns:rdf="http://www.w3.org/1999/02/22-rdf-syntax-ns#" xmlns="http://www.w3.org/2000/svg" height="96" width="96" version="1.1" xmlns:cc="http://creativecommons.org/ns#" xmlns:xlink="http://www.w3.org/1999/xlink" xmlns:dc="http://purl.org/dc/elements/1.1/">
 <defs id="defs11039">
  <clipPath id="clipPath3009" clipPathUnits="userSpaceOnUse">
   <path id="path3011" style="opacity:.15;fill:#fff" d="m-2 956.36h-96v33.562l96 25.687v-59.25z"/>
  </clipPath>
  <linearGradient id="linearGradient3940" x1="27" gradientUnits="userSpaceOnUse" y1="48" gradientTransform="matrix(0,-1,1,0,4,100)" x2="69" y2="48">
   <stop id="stop4083-57" style="stop-color:#aaa" offset="0"/>
   <stop id="stop4085-30" style="stop-color:#f0f0f0" offset="1"/>
  </linearGradient>
 </defs>
 <metadata id="metadata11042">
  <rdf:RDF>
   <cc:Work rdf:about="">
    <dc:format>image/svg+xml</dc:format>
    <dc:type rdf:resource="http://purl.org/dc/dcmitype/StillImage"/>
    <dc:title/>
   </cc:Work>
  </rdf:RDF>
 </metadata>
 <g id="layer1" transform="translate(0 -956.36)">
  <rect id="rect3867" style="opacity:.6" rx="25" ry="25" height="92" width="92" y="958.36" x="2"/>
  <g id="g3062" transform="translate(0 956.36)">
   <path id="path3967" style="opacity:.3;color:#000000" d="m31 53c0 11.598 9.402 21 21 21s21-9.402 21-21-9.402-21-21-21-21 9.402-21 21zm12 0c0-4.9706 4.0294-9 9-9s9 4.0294 9 9-4.0294 9-9 9-9-4.0294-9-9zm2 0c0 3.866 3.134 7 7 7s7-3.134 7-7-3.134-7-7-7-7 3.134-7 7zm2 0c0-2.7614 2.2386-5 5-5s5 2.2386 5 5-2.2386 5-5 5-5-2.2386-5-5z"/>
   <path id="path3915" style="color:#000000;fill:url(#linearGradient3940)" d="m31 52c0 11.598 9.402 21 21 21s21-9.402 21-21-9.402-21-21-21-21 9.402-21 21zm12 0c0-4.9706 4.0294-9 9-9s9 4.0294 9 9-4.0294 9-9 9-9-4.0294-9-9zm2 0c0 3.866 3.134 7 7 7s7-3.134 7-7-3.134-7-7-7-7 3.134-7 7zm2 0c0-2.7614 2.2386-5 5-5s5 2.2386 5 5-2.2386 5-5 5-5-2.2386-5-5z"/>
   <path id="path3942" style="opacity:.2;color:#000000;fill:#fff" d="m44 23c-11.598 0-21 9.402-21 21 0 6.4295 2.9176 12.179 7.4688 16.031-0.934-2.503-1.469-5.202-1.469-8.031 0-12.703 10.297-23 23-23 2.8285 0 5.5284 0.53471 8.0312 1.4688-3.852-4.551-9.602-7.469-16.031-7.469z"/>
   <path id="path3949" style="opacity:.75;color:#000000;fill:#fff" d="m52 31c-11.598 0-21 9.402-21 21 0 0.16555-0.0038 0.33537 0 0.5 0.263-11.369 9.568-20.5 21-20.5s20.737 9.131 21 20.5c0.004-0.165 0-0.334 0-0.5 0-11.598-9.402-21-21-21zm0 14c-3.866 0-7 3.134-7 7 0 0.16822 0.01958 0.33474 0.03125 0.5 0.257-3.632 3.271-6.5 6.969-6.5 3.6978 0 6.7122 2.8675 6.9688 6.5 0.011-0.165 0.031-0.332 0.031-0.5 0-3.866-3.134-7-7-7zm-8.9688 7.5c-0.009 0.169-0.031 0.328-0.031 0.5 0 4.9706 4.0294 9 9 9s9-4.0294 9-9c0-0.17156-0.02178-0.3308-0.03125-0.5-0.265 4.733-4.17 8.5-8.969 8.5s-8.704-3.767-8.969-8.5zm4 0c-0.017 0.168-0.031 0.327-0.031 0.5 0 2.7614 2.2386 5 5 5s5-2.2386 5-5c0-0.17259-0.01418-0.33192-0.03125-0.5-0.256 2.521-2.38 4.5-4.969 4.5s-4.713-1.979-4.969-4.5z"/>
   <path id="path3958" style="opacity:.15;color:#000000" d="m52 42c-4.9706 0-9 4.0294-9 9 0 0.17156 0.02178 0.3308 0.03125 0.5 0.265-4.733 4.17-8.5 8.969-8.5s8.7037 3.7673 8.9688 8.5c0.009-0.169 0.031-0.328 0.031-0.5 0-4.971-4.029-9-9-9zm0 4c-2.7614 0-5 2.2386-5 5 0 0.17259 0.01418 0.33192 0.03125 0.5 0.256-2.521 2.38-4.5 4.969-4.5 2.5888 0 4.7127 1.9787 4.9688 4.5 0.017-0.168 0.031-0.327 0.031-0.5 0-2.761-2.239-5-5-5zm-21 5.5c-0.0038 0.16463 0 0.33445 0 0.5 0 11.598 9.402 21 21 21s21-9.402 21-21c0-0.16555 0.0038-0.33537 0-0.5-0.263 11.369-9.568 20.5-21 20.5s-20.737-9.131-21-20.5zm14.031 0c-0.011 0.165-0.031 0.332-0.031 0.5 0 3.866 3.134 7 7 7s7-3.134 7-7c0-0.16822-0.01958-0.33474-0.03125-0.5-0.257 3.632-3.271 6.5-6.969 6.5s-6.712-2.868-6.969-6.5z"/>
  </g>
  <rect id="rect3003" style="opacity:.15;fill:#fff" clip-path="url(#clipPath3009)" rx="25" ry="25" transform="translate(98 -.0000026172)" width="92" y="958.36" x="-96" height="92"/>
 </g>
</svg>
