<?xml version="1.0" encoding="UTF-8" standalone="no"?>
<!-- Created with Inkscape (http://www.inkscape.org/) -->
<svg id="svg11037" xmlns:rdf="http://www.w3.org/1999/02/22-rdf-syntax-ns#" xmlns="http://www.w3.org/2000/svg" height="96" width="96" version="1.1" xmlns:cc="http://creativecommons.org/ns#" xmlns:xlink="http://www.w3.org/1999/xlink" xmlns:dc="http://purl.org/dc/elements/1.1/">
 <defs id="defs11039">
  <clipPath id="clipPath3009" clipPathUnits="userSpaceOnUse">
   <path id="path3011" style="opacity:.15;fill:#fff" d="m-2 956.36h-96v33.562l96 25.687v-59.25z"/>
  </clipPath>
  <linearGradient id="linearGradient4005" y2="24" gradientUnits="userSpaceOnUse" y1="72" x2="48" x1="48">
   <stop id="stop4083-74" style="stop-color:#aaa" offset="0"/>
   <stop id="stop4085-70" style="stop-color:#f0f0f0" offset="1"/>
  </linearGradient>
 </defs>
 <metadata id="metadata11042">
  <rdf:RDF>
   <cc:Work rdf:about="">
    <dc:format>image/svg+xml</dc:format>
    <dc:type rdf:resource="http://purl.org/dc/dcmitype/StillImage"/>
    <dc:title/>
   </cc:Work>
  </rdf:RDF>
 </metadata>
 <g id="layer1" transform="translate(0 -956.36)">
  <rect id="rect3867" style="opacity:.6" rx="25" ry="25" height="92" width="92" y="958.36" x="2"/>
  <g id="g3053" transform="translate(-3.3333e-7 956.36)">
   <path id="path4025" style="opacity:.3" d="m48 25c-13.255 0-24 10.745-24 24s10.745 24 24 24c1.6358 0 3.2374-0.18818 4.7812-0.5l-6.219-6.188a1.9506 1.9506 0 0 1 1.376 -3.312h4.1875v-4.875c-1.254 0.566-2.661 0.875-4.126 0.875-5.523 0-10-4.477-10-10 0-5.5228 4.4772-10 10-10s10 4.4772 10 10c0 2.2482-0.74766 4.3298-2 6h10.062a1.9506 1.9506 0 0 1 1.938 1.938v5.312c2.526-3.8 4-8.345 4-13.25 0-13.255-10.745-24-24-24zm0 16c-4.4183 0-8 3.5817-8 8s3.5817 8 8 8 8-3.5817 8-8-3.5817-8-8-8zm0 2c3.3137 0 6 2.6863 6 6s-2.6863 6-6 6-6-2.6863-6-6 2.6863-6 6-6zm6.0625 13.938v8h-6.125l12.031 12 12.094-12h-6v-8h-12z"/>
   <path id="path3794" style="fill:url(#linearGradient4005)" d="m48 24c-13.255 0-24 10.745-24 24s10.745 24 24 24c1.6358 0 3.2374-0.18818 4.7812-0.5l-6.219-6.188a1.9506 1.9506 0 0 1 1.376 -3.312h4.1875v-4.875c-1.254 0.566-2.661 0.875-4.126 0.875-5.523 0-10-4.477-10-10 0-5.5228 4.4772-10 10-10s10 4.4772 10 10c0 2.2482-0.74766 4.3298-2 6h10.062a1.9506 1.9506 0 0 1 1.938 1.938v5.312c2.526-3.8 4-8.345 4-13.25 0-13.255-10.745-24-24-24zm0 16c-4.4183 0-8 3.5817-8 8s3.5817 8 8 8 8-3.5817 8-8-3.5817-8-8-8zm0 2c3.3137 0 6 2.6863 6 6s-2.6863 6-6 6-6-2.6863-6-6 2.6863-6 6-6zm6.0625 13.938v8h-6.125l12.031 12 12.094-12h-6v-8h-12z"/>
   <path id="path4007" style="opacity:.75;fill:#fff" d="m48 24c-13.255 0-24 10.745-24 24 0 0.16558-0.0033 0.33522 0 0.5 0.264-13.026 10.911-23.5 24-23.5 13.058 0 23.688 10.423 24 23.406 0.002-0.136 0-0.269 0-0.406 0-13.255-10.745-24-24-24zm0 16c-4.4183 0-8 3.5817-8 8 0 0.17009 0.02079 0.33255 0.03125 0.5 0.261-4.182 3.721-7.5 7.969-7.5 4.2482 0 7.7075 3.3177 7.9688 7.5 0.01-0.167 0.031-0.33 0.031-0.5 0-4.418-3.582-8-8-8zm-9.9688 8.5c-0.008 0.165-0.031 0.333-0.031 0.5 0 5.5228 4.4772 10 10 10 1.4645 0 2.8715-0.30932 4.125-0.875v-1c-1.253 0.566-2.66 0.875-4.125 0.875-5.355 0-9.709-4.209-9.969-9.5zm4 0.125c-0.007 0.123-0.031 0.251-0.031 0.375 0 3.3137 2.6863 6 6 6s6-2.6863 6-6c0-0.12447-0.02378-0.25241-0.03125-0.375-0.308 3.026-2.862 5.375-5.969 5.375s-5.661-2.349-5.969-5.375zm15.938 0c-0.124 2.01-0.833 3.86-1.969 5.375h0.65625c0.85-1.471 1.344-3.181 1.344-5 0-0.126-0.027-0.25-0.031-0.375zm-3.9062 7.3125v1h12v-1h-12zm-6.125 8 1 1h5.125v-1h-6.125zm18.125 0v1h5l1-1h-6zm-19.969 0.53125a1.9506 1.9506 0 0 0 0.46875 1.8438l5.375 5.3438c0.285-0.049 0.562-0.1 0.843-0.157l-6.219-6.188a1.9506 1.9506 0 0 1 -0.46875 -0.84375z"/>
   <path id="path4016" style="opacity:.15" d="m48 37c-5.5228 0-10 4.4772-10 10 0 0.16738 0.02312 0.33464 0.03125 0.5 0.26-5.291 4.614-9.5 9.969-9.5 5.3972 0 9.7713 4.2761 9.9688 9.625 0.012-0.205 0.031-0.417 0.031-0.625 0-5.523-4.477-10-10-10zm0 4c-3.3137 0-6 2.6863-6 6 0 0.12447 0.02378 0.25241 0.03125 0.375 0.308-3.026 2.862-5.375 5.969-5.375 3.1066 0 5.6615 2.3495 5.9688 5.375 0.007-0.123 0.031-0.251 0.031-0.375 0-3.314-2.686-6-6-6zm24 6.4062c-0.08 4.748-1.545 9.15-4 12.844v1c2.5257-3.8004 4-8.3449 4-13.25 0-0.19663 0.0047-0.39825 0-0.59375zm-48 0.094c-0.0033 0.16478 0 0.33442 0 0.5 0 13.255 10.745 24 24 24 1.6358 0 3.2374-0.18818 4.7812-0.5l-0.843-0.844c-1.279 0.217-2.6 0.344-3.938 0.344-13.089 0-23.736-10.474-24-23.5zm16.031 0c-0.01 0.167-0.031 0.33-0.031 0.5 0 4.4183 3.5817 8 8 8s8-3.5817 8-8c0-0.17009-0.02079-0.33255-0.03125-0.5-0.261 4.182-3.721 7.5-7.969 7.5s-7.708-3.318-7.969-7.5zm16.625 5.5c-0.2 0.347-0.417 0.681-0.656 1h10.062a1.9506 1.9506 0 0 1 1.938 1.812v-0.875a1.9506 1.9506 0 0 0 -1.938 -1.937h-9.4062zm-8.781 8a1.9506 1.9506 0 0 0 -1.781 2.438 1.9506 1.9506 0 0 1 1.844 -1.438h4.1875v-1h-4.1875a1.9506 1.9506 0 0 0 -0.0625 0zm0.0625 2.9375 12.031 12 12.094-12h-1l-11.094 11-11.031-11h-1z"/>
  </g>
  <rect id="rect3003" style="opacity:.15;fill:#fff" clip-path="url(#clipPath3009)" rx="25" ry="25" transform="translate(98 -.0000026172)" width="92" y="958.36" x="-96" height="92"/>
 </g>
</svg>
