<?xml version="1.0" encoding="UTF-8" standalone="no"?>
<!-- Created with Inkscape (http://www.inkscape.org/) -->
<svg id="svg11037" xmlns:rdf="http://www.w3.org/1999/02/22-rdf-syntax-ns#" xmlns="http://www.w3.org/2000/svg" height="96" width="96" version="1.1" xmlns:cc="http://creativecommons.org/ns#" xmlns:xlink="http://www.w3.org/1999/xlink" xmlns:dc="http://purl.org/dc/elements/1.1/">
 <defs id="defs11039">
  <clipPath id="clipPath3009" clipPathUnits="userSpaceOnUse">
   <path id="path3011" style="opacity:.15;fill:#fff" d="m-2 956.36h-96v33.562l96 25.687v-59.25z"/>
  </clipPath>
  <linearGradient id="linearGradient3919-4" x1="12.968" gradientUnits="userSpaceOnUse" y1="8.7065" gradientTransform="matrix(-3.3931 0 0 2.6525 90 13.906)" x2="12.968" y2="17.001">
   <stop id="stop3639-09" style="stop-color:#f0f0f0" offset="0"/>
   <stop id="stop3641-80" style="stop-color:#aaa" offset="1"/>
  </linearGradient>
 </defs>
 <metadata id="metadata11042">
  <rdf:RDF>
   <cc:Work rdf:about="">
    <dc:format>image/svg+xml</dc:format>
    <dc:type rdf:resource="http://purl.org/dc/dcmitype/StillImage"/>
    <dc:title/>
   </cc:Work>
  </rdf:RDF>
 </metadata>
 <g id="layer1" transform="translate(0 -956.36)">
  <rect id="rect3867" style="opacity:.6" rx="25" ry="25" height="92" width="92" y="958.36" x="2"/>
  <g id="g3070" transform="translate(0 956.36)">
   <path id="path3939" style="opacity:.3" d="m62 38 16 10.906-16 11.094v-7.0938l-28-0.000001v7.0938l-16-11.094 16-10.906v6.9062h28z"/>
   <path id="Symbol" style="fill:url(#linearGradient3919-4)" d="m62 37 16 10.906-16 11.094v-7.0938l-28-0.000001v7.0938l-16-11.094 16-10.906v6.9062h28z"/>
   <path id="path3921" style="opacity:.75;fill:#fff" d="m34 37-16 10.906 0.71875 0.5l15.281-10.406v-1zm28 0v1l15.281 10.406 0.719-0.5-16-10.906zm-28 6.9062v1h28v-1h-28z"/>
   <path id="path3930" style="opacity:.15" d="m18.719 47.406-0.719 0.5 16 11.094v-1l-15.281-10.594zm58.562 0l-15.281 10.594v1l16-11.094-0.71875-0.5zm-43.281 3.5v1h28v-1h-28z"/>
  </g>
  <rect id="rect3003" style="opacity:.15;fill:#fff" clip-path="url(#clipPath3009)" rx="25" ry="25" transform="translate(98 -.0000026172)" width="92" y="958.36" x="-96" height="92"/>
 </g>
</svg>
