<?xml version="1.0" encoding="UTF-8" standalone="no"?>
<!-- Created with Inkscape (http://www.inkscape.org/) -->
<svg id="svg11037" xmlns:rdf="http://www.w3.org/1999/02/22-rdf-syntax-ns#" xmlns="http://www.w3.org/2000/svg" height="96" width="96" version="1.1" xmlns:cc="http://creativecommons.org/ns#" xmlns:xlink="http://www.w3.org/1999/xlink" xmlns:dc="http://purl.org/dc/elements/1.1/">
 <defs id="defs11039">
  <clipPath id="clipPath3009" clipPathUnits="userSpaceOnUse">
   <path id="path3011" style="opacity:.15;fill:#fff" d="m-2 956.36h-96v33.562l96 25.687v-59.25z"/>
  </clipPath>
  <linearGradient id="linearGradient3011" x1="21.22" gradientUnits="userSpaceOnUse" y1="13.572" gradientTransform="matrix(0 -3.3931 -2.6525 0 82 90)" x2="3.5366" y2="13.572">
   <stop id="stop3639-87" style="stop-color:#f0f0f0" offset="0"/>
   <stop id="stop3641-773" style="stop-color:#aaa" offset="1"/>
  </linearGradient>
 </defs>
 <metadata id="metadata11042">
  <rdf:RDF>
   <cc:Work rdf:about="">
    <dc:format>image/svg+xml</dc:format>
    <dc:type rdf:resource="http://purl.org/dc/dcmitype/StillImage"/>
    <dc:title/>
   </cc:Work>
  </rdf:RDF>
 </metadata>
 <g id="layer1" transform="translate(0 -956.36)">
  <rect id="rect3867" style="opacity:.6" rx="25" ry="25" height="92" width="92" y="958.36" x="2"/>
  <g id="g3070" transform="translate(0 956.36)">
   <path id="path3886" style="opacity:.3" d="m58.906 63-10.906 16-11.094-16h7.094l0.000001-28h-7.0938l11.094-16 10.906 16h-6.906v28z"/>
   <path id="Symbol" style="fill:url(#linearGradient3011)" d="m58.906 62-10.906 16-11.094-16h7.094l0.000001-28h-7.0938l11.094-16 10.906 16h-6.906v28z"/>
   <path id="path3868" style="opacity:.75;fill:#fff" d="m48 18-11.094 16h0.688l10.406-15 10.219 15h0.687l-10.906-16zm-11.094 44 0.688 1h6.406v-1h-7.094zm15.094 0v1h6.2188l0.6875-1h-6.906z"/>
   <path id="path3877" style="opacity:.15" d="m37.594 33-0.688 1h7.094v-1h-6.406zm14.406 0v1h6.9062l-0.6875-1h-6.219zm-15.094 29 11.094 16 10.906-16h-0.687l-10.219 15-10.406-15h-0.6875z"/>
  </g>
  <rect id="rect3003" style="opacity:.15;fill:#fff" clip-path="url(#clipPath3009)" rx="25" ry="25" transform="translate(98 -.0000026172)" width="92" y="958.36" x="-96" height="92"/>
 </g>
</svg>
