<?xml version="1.0" encoding="UTF-8" standalone="no"?>
<!-- Created with Inkscape (http://www.inkscape.org/) -->
<svg id="svg11037" xmlns:rdf="http://www.w3.org/1999/02/22-rdf-syntax-ns#" xmlns="http://www.w3.org/2000/svg" height="96" width="96" version="1.1" xmlns:cc="http://creativecommons.org/ns#" xmlns:xlink="http://www.w3.org/1999/xlink" xmlns:dc="http://purl.org/dc/elements/1.1/">
 <defs id="defs11039">
  <clipPath id="clipPath3009" clipPathUnits="userSpaceOnUse">
   <path id="path3011" style="opacity:.15;fill:#fff" d="m-2 956.36h-96v33.562l96 25.687v-59.25z"/>
  </clipPath>
  <linearGradient id="linearGradient3026" x1="11" gradientUnits="userSpaceOnUse" y1="2" gradientTransform="matrix(3 0 0 3 15.013 12)" x2="10.917" y2="19.38">
   <stop id="stop3639-740" style="stop-color:#f0f0f0" offset="0"/>
   <stop id="stop3641-41" style="stop-color:#aaa" offset="1"/>
  </linearGradient>
 </defs>
 <metadata id="metadata11042">
  <rdf:RDF>
   <cc:Work rdf:about="">
    <dc:format>image/svg+xml</dc:format>
    <dc:type rdf:resource="http://purl.org/dc/dcmitype/StillImage"/>
    <dc:title/>
   </cc:Work>
  </rdf:RDF>
 </metadata>
 <g id="layer1" transform="translate(0 -956.36)">
  <rect id="rect3867" style="opacity:.6" rx="25" ry="25" height="92" width="92" y="958.36" x="2"/>
  <g id="g3070" transform="translate(0 956.36)">
   <path id="path3886" style="opacity:.3" d="m51.013 19-15.094 10.312 15.094 10.688v-6.9375c7.0291 1.2913 12.487 7.0435 13.219 14.25 0.05553 0.54672 0 1.1261 0 1.6875 0 8.9819-7.2369 16.219-16.219 16.219-6.41-0.13-10.615-3.264-14.157-8.063l-6.562 3.844c4.4403 7.7991 10.893 12 20.719 12 13.255 0 24-10.745 24-24 0-12.235-9.1667-22.331-21-23.812v-6.1875zm-3 24c-3.3137 0-6 2.6863-6 6s2.6863 6 6 6 6-2.6863 6-6-2.6863-6-6-6z"/>
   <path id="path2856" style="fill:url(#linearGradient3026)" d="m51.013 18-15.094 10.312 15.094 10.688v-6.9375c7.0291 1.2913 12.487 7.0435 13.219 14.25 0.05553 0.54672 0 1.1261 0 1.6875 0 8.9819-7.2369 16.219-16.219 16.219-6.41-0.13-10.615-3.264-14.157-8.063l-6.562 3.844c4.4403 7.7991 10.893 12 20.719 12 13.255 0 24-10.745 24-24 0-12.235-9.1667-22.331-21-23.812v-6.1875zm-3 24c-3.3137 0-6 2.6863-6 6s2.6863 6 6 6 6-2.6863 6-6-2.6863-6-6-6z"/>
   <path id="path3868" style="opacity:.75;fill:#fff" d="m51 18-15.094 10.312 0.719 0.5 14.375-9.812v-1zm0 6.1875v1c11.464 1.435 20.451 10.97 21 22.687-0.063-12.178-9.208-22.211-21-23.687zm-3 17.812c-3.3137 0-6 2.6863-6 6 0 0.12447 0.02378 0.25241 0.03125 0.375 0.308-3.026 2.862-5.375 5.969-5.375 3.1066 0 5.6615 2.3495 5.9688 5.375 0.007-0.123 0.031-0.251 0.031-0.375 0-3.314-2.686-6-6-6zm16.219 5.6562c-0.0032 0.11526 0 0.22955 0 0.34375 0 8.9819-7.2369 16.219-16.219 16.219-6.4096-0.12942-10.615-3.2635-14.156-8.0625l-6.563 3.844c0.14375 0.25249 0.32074 0.47383 0.46875 0.71875l6.0938-3.5625c3.5411 4.799 7.7467 7.9331 14.156 8.0625 8.9819 0 16.219-7.2369 16.219-16.219 0-0.44717 0.01373-0.89932 0-1.3438z"/>
   <path id="path3877" style="opacity:.15" d="m36.625 27.812-0.71875 0.5l15.094 10.688v-1l-14.375-10.188zm14.375 3.25v1c7.0291 1.2913 12.487 7.0435 13.219 14.25 0.0113 0.11122-0.0035 0.23026 0 0.34375 0.01251-0.45135 0.04423-0.90825 0-1.3438-0.732-7.206-6.19-12.958-13.219-14.25zm21 15.938c0 13.255-10.745 24-24 24-9.507 0-15.826-3.961-20.25-11.281l-0.469 0.281c4.441 7.799 10.893 12 20.719 12 13.255 0 24-10.745 24-24 0-0.33986 0.01401-0.66358 0-1zm-29.969 0.625c-0.007 0.123-0.031 0.251-0.031 0.375 0 3.3137 2.6863 6 6 6s6-2.6863 6-6c0-0.12447-0.02378-0.25241-0.03125-0.375-0.308 3.026-2.862 5.375-5.969 5.375s-5.661-2.349-5.969-5.375z"/>
  </g>
  <rect id="rect3003" style="opacity:.15;fill:#fff" clip-path="url(#clipPath3009)" rx="25" ry="25" transform="translate(98 -.0000026172)" width="92" y="958.36" x="-96" height="92"/>
 </g>
</svg>
