<?xml version="1.0" encoding="UTF-8" standalone="no"?>
<!-- Created with Inkscape (http://www.inkscape.org/) -->
<svg id="svg11037" xmlns:rdf="http://www.w3.org/1999/02/22-rdf-syntax-ns#" xmlns="http://www.w3.org/2000/svg" height="96" width="96" version="1.1" xmlns:cc="http://creativecommons.org/ns#" xmlns:xlink="http://www.w3.org/1999/xlink" xmlns:dc="http://purl.org/dc/elements/1.1/">
 <defs id="defs11039">
  <linearGradient id="linearGradient11642" x1="48" gradientUnits="userSpaceOnUse" x2="48" gradientTransform="matrix(1.15 0 0 1.15 -7.1999 -150.65)" y1="962.62" y2="1046.1">
   <stop id="stop3189-6" style="stop-color:#e6e6e6" offset="0"/>
   <stop id="stop3191-6" style="stop-color:#fafafa" offset="1"/>
  </linearGradient>
  <clipPath id="clipPath3009" clipPathUnits="userSpaceOnUse">
   <path id="path3011" style="opacity:.15;fill:#fff" d="m-2 956.36h-96v33.562l96 25.687v-59.25z"/>
  </clipPath>
  <linearGradient id="linearGradient3089" x1="10.363" gradientUnits="userSpaceOnUse" y1="20.41" gradientTransform="matrix(3.0237 0 0 2.3518 18.667 20)" x2="10.363" y2="4.2521">
   <stop id="stop5410" style="stop-color:#6c9707" offset="0"/>
   <stop id="stop5412" style="stop-color:#9edb0a" offset="1"/>
  </linearGradient>
 </defs>
 <metadata id="metadata11042">
  <rdf:RDF>
   <cc:Work rdf:about="">
    <dc:format>image/svg+xml</dc:format>
    <dc:type rdf:resource="http://purl.org/dc/dcmitype/StillImage"/>
    <dc:title/>
   </cc:Work>
  </rdf:RDF>
 </metadata>
 <g id="layer1" transform="translate(0 -956.36)">
  <rect id="rect3867" style="fill:url(#linearGradient11642)" rx="25" ry="25" height="92" width="92" y="958.36" x="2"/>
  <g id="layer4" transform="translate(0 956.36)">
   <path id="Symbol" style="fill:url(#linearGradient3089)" d="m64 30-22 22-10-10-8 8 18 18 30-30z"/>
   <path id="path3856" style="opacity:.6;fill:#fff" d="m71.5 38.5-29.5 29.5-17.5-17.5-0.5 0.5 18 18 30-30-0.5-0.5z"/>
   <path id="path3865" style="opacity:.15" d="m64 30-22 22-10-10-8 8 0.5 0.5 7.5-7.5 10 10 22-22 7.5 7.5 0.5-0.5-8-8z"/>
  </g>
  <rect id="rect3003" style="opacity:.15;fill:#fff" clip-path="url(#clipPath3009)" rx="25" ry="25" transform="translate(98)" width="92" y="958.36" x="-96" height="92"/>
 </g>
</svg>
