<?xml version="1.0" encoding="UTF-8" standalone="no"?>
<!-- Created with Inkscape (http://www.inkscape.org/) -->
<svg id="svg11037" xmlns:rdf="http://www.w3.org/1999/02/22-rdf-syntax-ns#" xmlns="http://www.w3.org/2000/svg" height="96" width="96" version="1.1" xmlns:cc="http://creativecommons.org/ns#" xmlns:xlink="http://www.w3.org/1999/xlink" xmlns:dc="http://purl.org/dc/elements/1.1/">
 <defs id="defs11039">
  <linearGradient id="linearGradient11642" x1="48" gradientUnits="userSpaceOnUse" x2="48" gradientTransform="matrix(1.15 0 0 1.15 -7.1999 -150.65)" y1="962.62" y2="1046.1">
   <stop id="stop3650" style="stop-color:#d45500" offset="0"/>
   <stop id="stop3652" style="stop-color:#ffb149" offset="1"/>
  </linearGradient>
  <clipPath id="clipPath3009" clipPathUnits="userSpaceOnUse">
   <path id="path3011" style="opacity:.15;fill:#fff" d="m-2 956.36h-96v33.562l96 25.687v-59.25z"/>
  </clipPath>
  <linearGradient id="linearGradient3089-5" x1="27" gradientUnits="userSpaceOnUse" y1="48" gradientTransform="matrix(0,-1,1,0,0,96)" x2="69" y2="48">
   <stop id="stop3671" style="stop-color:#ad4405" offset="0"/>
   <stop id="stop3673" style="stop-color:#e28416" offset="1"/>
  </linearGradient>
  <clipPath id="clipPath3613">
   <rect id="rect3615" style="fill:#fff" rx="6" ry="6" height="84" width="84" y="6" x="6"/>
  </clipPath>
  <filter id="filter3794" width="1.384" y="-.192" x="-.192" height="1.384" color-interpolation-filters="sRGB">
   <feGaussianBlur id="feGaussianBlur3796" stdDeviation="5.28"/>
  </filter>
  <linearGradient id="linearGradient3086" y2="138.66" gradientUnits="userSpaceOnUse" x2="48" y1="20.221" x1="48">
   <stop id="stop3739" style="stop-color:#fff" offset="0"/>
   <stop id="stop3741" style="stop-color:#fff;stop-opacity:0" offset="1"/>
  </linearGradient>
 </defs>
 <metadata id="metadata11042">
  <rdf:RDF>
   <cc:Work rdf:about="">
    <dc:format>image/svg+xml</dc:format>
    <dc:type rdf:resource="http://purl.org/dc/dcmitype/StillImage"/>
    <dc:title/>
   </cc:Work>
  </rdf:RDF>
 </metadata>
 <g id="layer1" transform="translate(0 -956.36)">
  <rect id="rect3867" style="fill:url(#linearGradient11642)" rx="25" ry="25" height="92" width="92" y="958.36" x="2"/>
  <g id="layer5" transform="translate(0 956.36)">
   <rect id="rect3171" style="opacity:.1;filter:url(#filter3794);stroke:#fff;stroke-linecap:round;stroke-width:.5;fill:url(#linearGradient3086)" clip-path="url(#clipPath3613)" rx="12" ry="12" height="66" width="66" y="15" x="15"/>
  </g>
  <g id="layer4" transform="translate(0 956.36)">
   <path id="path2929" style="fill:url(#linearGradient3089-5)" d="m27 59.667 9.333 9.333 11.667-11.667 11.667 11.667 9.333-9.333-11.667-11.667 11.667-11.667-9.333-9.333-11.667 11.667-11.667-11.667-9.333 9.333 11.667 11.667-11.667 11.667z"/>
   <path id="path3877" style="opacity:.15;fill:#fff" d="m27.5 36.844-0.5 0.5l11.156 11.156 0.5-0.5-11.156-11.156zm41 0l-11.156 11.156 0.5 0.5 11.156-11.156-0.5-0.5zm-20.5 20.5-11.656 11.656-8.844-8.844-0.5 0.5 9.344 9.344 11.656-11.656 11.656 11.656 9.344-9.344-0.5-0.5-8.844 8.844-11.656-11.656z"/>
   <path id="path3886" style="opacity:.15" d="m36.344 27-9.344 9.344l0.5 0.5 8.844-8.844 11.656 11.656 11.656-11.656 8.844 8.844 0.5-0.5-9.344-9.344-11.656 11.656-11.656-11.656zm1.812 21.5-11.156 11.156l0.5 0.5 11.156-11.156-0.5-0.5zm19.688 0-0.5 0.5l11.156 11.156 0.5-0.5-11.156-11.156z"/>
  </g>
  <rect id="rect3003" style="opacity:.15;fill:#fff" clip-path="url(#clipPath3009)" rx="25" ry="25" transform="translate(98)" width="92" y="958.36" x="-96" height="92"/>
 </g>
</svg>
