<?xml version="1.0" encoding="UTF-8" standalone="no"?>
<!-- Created with Inkscape (http://www.inkscape.org/) -->
<svg id="svg11037" xmlns:rdf="http://www.w3.org/1999/02/22-rdf-syntax-ns#" xmlns="http://www.w3.org/2000/svg" height="96" width="96" version="1.1" xmlns:cc="http://creativecommons.org/ns#" xmlns:xlink="http://www.w3.org/1999/xlink" xmlns:dc="http://purl.org/dc/elements/1.1/">
 <defs id="defs11039">
  <clipPath id="clipPath3009" clipPathUnits="userSpaceOnUse">
   <path id="path3011" style="opacity:.15;fill:#fff" d="m-2 956.36h-96v33.562l96 25.687v-59.25z"/>
  </clipPath>
  <linearGradient id="linearGradient3806" x1="6.5625" gradientUnits="userSpaceOnUse" y1="2" gradientTransform="matrix(-4.3333 0 0 -4.3333 82.667 82.667)" x2="6.5625" y2="14.001">
   <stop id="stop3185-9-5" style="stop-color:#c80000" offset="0"/>
   <stop id="stop3187-6-9" style="stop-color:#f3604d" offset="1"/>
  </linearGradient>
 </defs>
 <metadata id="metadata11042">
  <rdf:RDF>
   <cc:Work rdf:about="">
    <dc:format>image/svg+xml</dc:format>
    <dc:type rdf:resource="http://purl.org/dc/dcmitype/StillImage"/>
    <dc:title/>
   </cc:Work>
  </rdf:RDF>
 </metadata>
 <g id="layer1" transform="translate(0 -956.36)">
  <rect id="rect3867" style="opacity:.6" rx="25" ry="25" height="92" width="92" y="958.36" x="2"/>
  <g id="g3077" transform="translate(-2.2222e-7 956.36)">
   <path id="path3878" style="opacity:.3" d="m48 75c14.352 0 26-11.648 26-26s-11.648-26-26-26-26 11.648-26 26 11.648 26 26 26zm0-9.2857c-9.2263 0-16.714-7.488-16.714-16.714 0-2.4934 0.55767-4.8528 1.5379-6.9788l22.169 22.155c-2.129 0.984-4.495 1.538-6.993 1.538zm14.973-9.314-22.387-22.373c2.2358-1.1102 4.75-1.7411 7.4141-1.7411 9.2263 0 16.714 7.488 16.714 16.714 0 2.6595-0.63445 5.1666-1.7411 7.3996z"/>
   <path id="Symbol" style="fill:url(#linearGradient3806)" d="m48 74c14.352 0 26-11.648 26-26s-11.648-26-26-26-26 11.648-26 26 11.648 26 26 26zm0-9.2857c-9.2263 0-16.714-7.488-16.714-16.714 0-2.4934 0.55767-4.8528 1.5379-6.9788l22.169 22.155c-2.129 0.984-4.495 1.538-6.993 1.538zm14.973-9.314-22.387-22.373c2.2358-1.1102 4.75-1.7411 7.4141-1.7411 9.2263 0 16.714 7.488 16.714 16.714 0 2.6595-0.63445 5.1666-1.7411 7.3996z"/>
   <path id="path3860" style="opacity:.3;fill:#fff" d="m48 22c-14.352 0-26 11.648-26 26 0 0.16679-0.0031 0.33395 0 0.5 0.266-14.122 11.815-25.5 26-25.5s25.734 11.378 26 25.5c0.003-0.166 0-0.333 0-0.5 0-14.352-11.648-26-26-26zm-6.7188 11.719c-0.23085 0.102-0.46218 0.20061-0.6875 0.3125l22.375 22.375c1.1066-2.2329 1.75-4.7468 1.75-7.4062 0-0.12601-0.02847-0.24965-0.03125-0.375-0.09052 2.4289-0.69864 4.7229-1.7188 6.7812l-21.688-21.688zm-9.969 14.656c-0.0077 0.20598-0.03125 0.4171-0.03125 0.625 0 9.2263 7.4925 16.719 16.719 16.719 2.4981 0 4.8709-0.5475 7-1.5312l-0.71875-0.71875c-1.9432 0.79293-4.0537 1.25-6.2812 1.25-9.1003 0-16.487-7.2914-16.688-16.344z"/>
   <path id="path3869" style="opacity:.15" d="m48 30.281c-2.6641 0-5.1704 0.63978-7.4062 1.75l0.6875 0.6875c2.0598-0.91006 4.3231-1.4375 6.7188-1.4375 9.1003 0 16.487 7.2914 16.688 16.344 0.006-0.205 0.03-0.416 0.03-0.624 0-9.226-7.493-16.719-16.719-16.719zm-15.188 9.75c-0.98 2.126-1.531 4.476-1.531 6.969 0 0.12601 0.02847 0.24965 0.03125 0.375 0.08438-2.2644 0.60146-4.395 1.5-6.3438l21.469 21.438c0.236-0.097 0.488-0.175 0.719-0.281l-22.188-22.157zm-10.812 7.469c-0.0031 0.16605 0 0.33321 0 0.5 0 14.352 11.648 26 26 26s26-11.648 26-26c0-0.16679 0.0031-0.33395 0-0.5-0.266 14.122-11.815 25.5-26 25.5s-25.734-11.378-26-25.5z"/>
  </g>
  <rect id="rect3003" style="opacity:.15;fill:#fff" clip-path="url(#clipPath3009)" rx="25" ry="25" transform="translate(98 -.0000026172)" width="92" y="958.36" x="-96" height="92"/>
 </g>
</svg>
