<?xml version="1.0" encoding="UTF-8" standalone="no"?>
<!-- Created with Inkscape (http://www.inkscape.org/) -->
<svg id="svg11037" xmlns:rdf="http://www.w3.org/1999/02/22-rdf-syntax-ns#" xmlns="http://www.w3.org/2000/svg" height="96" width="96" version="1.1" xmlns:cc="http://creativecommons.org/ns#" xmlns:xlink="http://www.w3.org/1999/xlink" xmlns:dc="http://purl.org/dc/elements/1.1/">
 <defs id="defs11039">
  <clipPath id="clipPath3009" clipPathUnits="userSpaceOnUse">
   <path id="path3011" style="opacity:.15;fill:#fff" d="m-2 956.36h-96v33.562l96 25.687v-59.25z"/>
  </clipPath>
  <linearGradient id="linearGradient3665" x1="20.759" xlink:href="#linearGradient4081-87" gradientUnits="userSpaceOnUse" y1="1" gradientTransform="matrix(.93023 0 0 -.93023 23.674 61.395)" x2="20.759" y2="45.017"/>
  <linearGradient id="linearGradient4081-87">
   <stop id="stop4083-85" style="stop-color:#aaa" offset="0"/>
   <stop id="stop4085-72" style="stop-color:#f0f0f0" offset="1"/>
  </linearGradient>
  <linearGradient id="linearGradient3669" x1="20.759" xlink:href="#linearGradient4081-87" gradientUnits="userSpaceOnUse" y1="1" gradientTransform="matrix(.47268 .12666 .12666 -.47268 44.479 74.734)" x2="20.759" y2="45.017"/>
 </defs>
 <metadata id="metadata11042">
  <rdf:RDF>
   <cc:Work rdf:about="">
    <dc:format>image/svg+xml</dc:format>
    <dc:type rdf:resource="http://purl.org/dc/dcmitype/StillImage"/>
    <dc:title/>
   </cc:Work>
  </rdf:RDF>
 </metadata>
 <g id="layer1" transform="translate(0 -956.36)">
  <rect id="rect3867" style="opacity:.6" rx="25" ry="25" height="92" width="92" y="958.36" x="2"/>
  <g id="g3054" transform="translate(0 956.36)">
   <path id="path3703" style="opacity:.3;display:block" transform="translate(0,1)" d="m43.25 20c-0.7871 0-1.4375 0.6682-1.4375 1.4688v2.8125c-1.4074 0.37498-2.7383 0.94066-3.9688 1.6562l-2.0312-2c-0.56607-0.56607-1.4434-0.58781-2-0.03125l-3.9062 3.9062c-0.55661 0.55656-0.53482 1.4339 0.03125 2l2 2.0312c-0.71559 1.2304-1.2813 2.5614-1.6562 3.9688h-2.8125c-0.8-0.001-1.468 0.65-1.468 1.437v5.5c0 0.7871 0.6682 1.4375 1.4688 1.4375h2.8125c0.37499 1.4074 0.94066 2.7383 1.6562 3.9688l-2 2.0312c-0.56602 0.56607-0.5878 1.4434-0.03125 2l3.9062 3.9062c0.27828 0.27828 0.66497 0.40945 1.0312 0.40625 0.36628-0.0031 0.68571-0.15446 0.96875-0.4375l2.0312-2c1.2304 0.71559 2.5614 1.2813 3.9688 1.6562v2.8125c-0.001 0.8 0.65 1.468 1.437 1.468h5.5c0.78709 0 1.4375-0.6682 1.4375-1.4688v-2.8125c1.4074-0.37498 2.7383-0.94066 3.9688-1.6562l2.0312 2c0.56607 0.56607 1.4434 0.58781 2 0.03125l3.9062-3.9062c0.55661-0.55656 0.53482-1.4339-0.03125-2l-2-2.0312c0.71559-1.2304 1.2813-2.5614 1.6562-3.9688h2.8125c0.8 0.001 1.468-0.65 1.468-1.437v-5.5c0-0.7871-0.66821-1.4375-1.4688-1.4375h-2.8125c-0.374-1.407-0.94-2.738-1.656-3.968l2-2.0312c0.56602-0.56607 0.5878-1.4434 0.03125-2l-3.905-3.907c-0.55656-0.55656-1.4339-0.53482-2 0.03125l-2.0312 2c-1.231-0.715-2.562-1.281-3.969-1.656v-2.8125c0-0.8-0.651-1.468-1.438-1.468h-5.5zm2.75 13.969c3.3377 0 6.0312 2.6936 6.0312 6.0312 0 3.3377-2.6936 6.0312-6.0312 6.0312-3.3377 0-6.0312-2.6936-6.0312-6.0312 0-3.3377 2.6936-6.0312 6.0312-6.0312zm13.75 22.375c-0.28992 0.04277-0.54325 0.25741-0.625 0.5625l-0.375 1.4375c-0.7662-0.0011-1.5274 0.08514-2.25 0.28125l-0.75-1.2812c-0.21057-0.36471-0.64142-0.48828-1-0.28125l-2.5312 1.4688c-0.35861 0.20703-0.46057 0.63528-0.25 1l0.71875 1.3125c-0.53114 0.52778-0.99283 1.1172-1.375 1.7812l-1.438-0.375c-0.40679-0.109-0.83033 0.1313-0.9375 0.53125l-0.75 2.8125c-0.108 0.4 0.155 0.797 0.562 0.906l1.4375 0.375c-0.0011 0.7662 0.08513 1.5274 0.28125 2.25l-1.2812 0.75c-0.36469 0.21057-0.48828 0.67266-0.28125 1.0312l1.4375 2.5312c0.10351 0.1793 0.28219 0.29552 0.46875 0.34375 0.18654 0.04829 0.38014 0.01154 0.5625-0.09375l1.2812-0.75c0.52778 0.53114 1.1484 0.99284 1.8125 1.375l-0.375 1.4375c-0.109 0.40679 0.1313 0.83033 0.53125 0.9375l2.7812 0.75c0.39995 0.10717 0.8285-0.12446 0.9375-0.53125l0.375-1.4375c0.7662 0.0011 1.5274-0.11638 2.25-0.3125l0.75 1.3125c0.21057 0.36471 0.64141 0.48828 1 0.28125l2.533-1.47c0.35861-0.20702 0.49182-0.66653 0.28125-1.0312l-0.75-1.2812c0.53114-0.52778 0.99285-1.1484 1.375-1.8125l1.4375 0.40625c0.40678 0.109 0.83033-0.1313 0.9375-0.53125l0.75-2.8125c0.10717-0.39995-0.15572-0.79725-0.5625-0.90625l-1.408-0.406c0.002-0.766-0.116-1.527-0.312-2.25l1.2812-0.75c0.36469-0.21058 0.51953-0.64141 0.3125-1l-1.469-2.531c-0.20703-0.35859-0.66653-0.46057-1.0312-0.25l-1.2812 0.75c-0.528-0.531-1.149-1.024-1.813-1.406l0.375-1.4062c0.109-0.40679-0.10005-0.83033-0.5-0.9375l-2.8125-0.75c-0.099-0.028-0.215-0.046-0.312-0.032zm-0.8125 7.375c0.21092 0.01263 0.413 0.0682 0.625 0.125 1.696 0.45444 2.7044 2.179 2.25 3.875-0.45444 1.696-2.2103 2.7044-3.9062 2.25-1.696-0.45444-2.7044-2.179-2.25-3.875 0.39764-1.484 1.8048-2.4634 3.2812-2.375z"/>
   <path id="rect3267" style="display:block;fill:url(#linearGradient3665)" d="m43.238 60c-0.7871 0-1.4244-0.65294-1.4244-1.4535v-2.8198c-1.4074-0.37498-2.7521-0.94138-3.9825-1.657l-2.0058 2.0058c-0.28304 0.28304-0.62209 0.43294-0.98837 0.43605-0.36628 0.0032-0.73916-0.1287-1.0174-0.40698l-3.9244-3.9244c-0.55656-0.55656-0.537-1.4397 0.02902-2.0058l2.0058-2.0058c-0.71559-1.2304-1.282-2.5752-1.657-3.9825h-2.8198c-0.801 0-1.454-0.637-1.454-1.424v-5.5232c0-0.7871 0.65294-1.4244 1.4535-1.4244h2.8198c0.37499-1.4074 0.94139-2.7521 1.657-3.9825l-2.0058-2.0058c-0.56607-0.56607-0.58563-1.4492-0.02902-2.0058l3.9244-3.9244c0.55656-0.55656 1.4397-0.537 2.0058 0.02907l2.0058 2.0058c1.2304-0.71559 2.5752-1.282 3.9825-1.657v-2.8198c0-0.80055 0.63732-1.4535 1.4244-1.4535h5.5232c0.78709 0 1.4244 0.65294 1.4244 1.4535v2.8198c1.4074 0.37498 2.7521 0.94138 3.9825 1.657l2.0058-2.0058c0.56607-0.56607 1.4492-0.58563 2.0058-0.02907l3.925 3.924c0.55656 0.55656 0.537 1.4397-0.02902 2.0058l-2.0058 2.0058c0.71559 1.2304 1.282 2.5752 1.657 3.9825h2.8198c0.80054 0 1.4535 0.63732 1.4535 1.4244v5.5232c0 0.78709-0.65294 1.4244-1.4535 1.4244h-2.8198c-0.37498 1.4074-0.94138 2.7521-1.657 3.9825l2.0058 2.0058c0.56607 0.56607 0.58563 1.4492 0.02902 2.0058l-3.9244 3.9244c-0.55656 0.55656-1.4397 0.537-2.0058-0.02907l-2.0058-2.0058c-1.2304 0.7156-2.5752 1.282-3.9825 1.657v2.8198c0 0.801-0.637 1.454-1.424 1.454h-5.5232zm2.7616-13.953c3.3377 0 6.0465-2.7088 6.0465-6.0465s-2.7088-6.0465-6.0465-6.0465-6.0465 2.7088-6.0465 6.0465 2.7088 6.0465 6.0465 6.0465z"/>
   <path id="path3667" style="display:block;fill:url(#linearGradient3669)" d="m54.61 76.688c-0.39996-0.10717-0.6349-0.52572-0.5259-0.93251l0.38392-1.4328c-0.66409-0.38216-1.2703-0.85307-1.7981-1.3842l-1.2923 0.74612c-0.18236 0.10529-0.37506 0.13529-0.5616 0.087-0.18656-0.04823-0.35807-0.16603-0.46158-0.34533l-1.4598-2.5285c-0.20703-0.35859-0.07684-0.8047 0.28785-1.0153l1.2923-0.74612c-0.196-0.723-0.301-1.483-0.3-2.25l-1.432-0.383c-0.407-0.109-0.652-0.522-0.545-0.922l0.75202-2.8066c0.10717-0.39995 0.52572-0.6349 0.93251-0.5259l1.4328 0.38392c0.38217-0.66409 0.85307-1.2703 1.3842-1.7981l-0.74612-1.2923c-0.21057-0.36472-0.10026-0.81615 0.25835-1.0232l2.5285-1.4598c0.35858-0.20703 0.8047-0.07684 1.0153 0.28787l0.74613 1.2923c0.72264-0.19612 1.4831-0.30081 2.2493-0.29973l0.38392-1.4328c0.109-0.40679 0.52174-0.6518 0.9217-0.54463l2.8066 0.75202c0.39995 0.10717 0.6349 0.52572 0.5259 0.93251l-0.38392 1.4328c0.66409 0.38216 1.2703 0.85307 1.7981 1.3842l1.2923-0.74612c0.36472-0.21057 0.81615-0.10026 1.0232 0.25833l1.4598 2.5285c0.20703 0.35859 0.07684 0.8047-0.28785 1.0153l-1.2923 0.74613c0.19612 0.72264 0.3008 1.4831 0.29972 2.2493l1.4328 0.38392c0.40678 0.109 0.65179 0.52174 0.54463 0.9217l-0.75202 2.8066c-0.10717 0.39995-0.52573 0.6349-0.93251 0.5259l-1.4328-0.38392c-0.38215 0.66409-0.85306 1.2703-1.3842 1.7981l0.74612 1.2923c0.21057 0.36472 0.10026 0.81616-0.25835 1.0232l-2.529 1.461c-0.35859 0.20703-0.8047 0.07684-1.0153-0.28787l-0.74612-1.2923c-0.72264 0.19612-1.4831 0.30081-2.2493 0.29973l-0.38392 1.4328c-0.109 0.40679-0.52174 0.6518-0.9217 0.54463l-2.8066-0.75202zm3.3031-6.7143c1.696 0.45444 3.4413-0.5532 3.8957-2.2492 0.45444-1.696-0.5532-3.4413-2.2492-3.8957-1.696-0.45444-3.4413 0.5532-3.8957 2.2492-0.45444 1.696 0.5532 3.4413 2.2492 3.8957z"/>
   <path id="path3716" style="display:block;fill:#fff" d="m43.25 20c-0.7871 0-1.4375 0.6682-1.4375 1.4688v1c0-0.801 0.651-1.469 1.438-1.469h5.5c0.78709 0 1.4375 0.6682 1.4375 1.4688v-1c0-0.801-0.651-1.469-1.438-1.469h-5.5zm-8.4375 3.5c-0.35967-0.0066-0.72172 0.12797-1 0.40625l-3.9062 3.9062c-0.40122 0.40119-0.49957 0.97093-0.3125 1.4688 0.06739-0.16936 0.17335-0.32961 0.3125-0.46875l3.9062-3.9062c0.55656-0.55656 1.4339-0.53482 2 0.03125l2.0312 2c1.2304-0.71559 2.5614-1.2813 3.9688-1.6562v-1c-1.4074 0.37498-2.7383 0.94066-3.9688 1.6562l-2.0312-2c-0.28304-0.28304-0.64033-0.43088-1-0.4375zm22.375 0c-0.35967 0.0066-0.71696 0.15446-1 0.4375l-2.0312 2c-1.23-0.716-2.561-1.282-3.968-1.657v1c1.4074 0.37498 2.7383 0.94066 3.9688 1.6562l2.0312-2c0.56607-0.56607 1.4434-0.58781 2-0.03125l3.9062 3.9062c0.13914 0.13914 0.24512 0.29939 0.3125 0.46875 0.18706-0.49782 0.08868-1.0676-0.3125-1.4688l-3.906-3.906c-0.27828-0.27828-0.64033-0.41287-1-0.40625zm-25.594 9c-0.54668 1.0443-1.0029 2.1504-1.3125 3.3125h-2.8125c-0.8 0-1.468 0.651-1.468 1.438v1c0-0.7871 0.6682-1.4375 1.4688-1.4375h2.8125c0.37499-1.4074 0.94066-2.7383 1.6562-3.9688l-0.344-0.343zm28.812 0-0.34375 0.34375c0.71559 1.2304 1.2813 2.5614 1.6562 3.9688h2.8125c0.802-0.001 1.47 0.65 1.47 1.437v-1c0-0.7871-0.66821-1.4375-1.4688-1.4375h-2.8125c-0.309-1.162-0.765-2.268-1.312-3.312zm-20.405 8.125c-0.0075 0.12344-0.03125 0.24963-0.03125 0.375 0 3.3377 2.6936 6.0312 6.0312 6.0312 3.3377 0 6.0312-2.6936 6.0312-6.0312 0-0.12537-0.02376-0.25156-0.03125-0.375-0.30815 3.0461-2.8709 5.4062-6 5.4062s-5.6919-2.3602-6-5.4062zm-8.406 7.875-1.656 1.688c-0.42452 0.42456-0.54589 1.0232-0.34375 1.5312 0.07244-0.1928 0.18574-0.37322 0.34375-0.53125l2-2.0312c-0.125-0.215-0.229-0.437-0.344-0.657zm28.812 0c-0.11541 0.22045-0.21902 0.44178-0.34375 0.65625l2 2.0312c0.15803 0.15803 0.2713 0.33845 0.34375 0.53125 0.20216-0.50809 0.0808-1.1067-0.34375-1.5312l-1.656-1.687zm-0.656 7.844c-0.28992 0.04277-0.54325 0.25741-0.625 0.5625l-0.375 1.4375c-0.7662-0.0011-1.5274 0.08514-2.25 0.28125l-0.75-1.2812c-0.21057-0.36471-0.64142-0.48828-1-0.28125l-2.5312 1.4688c-0.35861 0.20703-0.46057 0.63528-0.25 1l0.09375 0.15625c0.04941-0.05376 0.08769-0.11667 0.15625-0.15625l2.531-1.47c0.35858-0.20703 0.78943-0.08346 1 0.28125l0.75 1.282c0.72264-0.19611 1.4838-0.28235 2.25-0.28125l0.375-1.4375c0.08175-0.30509 0.33508-0.51973 0.625-0.5625 0.09664-0.01425 0.21251 0.0045 0.3125 0.03125l2.8125 0.75c0.18468 0.04948 0.3155 0.16089 0.40625 0.3125l0.09375-0.375c0.109-0.40679-0.10005-0.83033-0.5-0.9375l-2.8125-0.75c-0.099-0.028-0.215-0.046-0.312-0.032zm3.469 3.281-0.219 0.844c0.66409 0.38216 1.2847 0.8751 1.8125 1.4062l1.2812-0.75c0.36472-0.21057 0.82422-0.10859 1.0312 0.25l1.375 2.3438c0.1877-0.22682 0.24902-0.54356 0.09375-0.8125l-1.468-2.531c-0.20703-0.35859-0.66653-0.46057-1.0312-0.25l-1.2812 0.75c-0.46718-0.47015-1.0153-0.89005-1.5938-1.25zm-10.875 1.5938c-0.387 0.431-0.735 0.892-1.032 1.406l-1.437-0.375c-0.40679-0.109-0.83033 0.1313-0.9375 0.53125l-0.75 2.8125c-0.05768 0.21527 0.0035 0.42456 0.125 0.59375l0.625-2.4062c0.107-0.401 0.53-0.641 0.937-0.532l1.4375 0.375c0.38217-0.66409 0.84386-1.2535 1.375-1.7812l-0.34375-0.625zm14.844 4.343-0.188 0.094c0.19612 0.72264 0.3136 1.4838 0.3125 2.25l1.4062 0.40625c0.18784 0.05033 0.3333 0.16735 0.4375 0.3125l0.125-0.40625c0.10717-0.39995-0.15572-0.79725-0.5625-0.90625l-1.406-0.406c0.00063-0.44835-0.05244-0.90556-0.125-1.3438zm-5.3125 1.7812c-0.01796 0.12728-0.02833 0.24749-0.0625 0.375-0.45444 1.696-2.2103 2.7044-3.9062 2.25-1.2275-0.32891-2.0993-1.3328-2.3125-2.5-0.2209 1.5657 0.74402 3.0797 2.3125 3.5 1.696 0.45444 3.4518-0.55401 3.9062-2.25 0.12553-0.46848 0.14387-0.92953 0.0625-1.375zm-11.594 1.875-1.0938 0.65625c-0.36469 0.21057-0.48828 0.67266-0.28125 1.0312l0.093 0.157c0.05721-0.0705 0.10384-0.13919 0.1875-0.1875l1.2812-0.75c-0.08136-0.29978-0.14235-0.59561-0.1875-0.90625zm14.843 4.344c-0.11731 0.13403-0.2186 0.28189-0.34375 0.40625l0.657 1.157c0.20324-0.2352 0.25973-0.58752 0.09375-0.875l-0.407-0.688zm-10.875 1.594-0.156 0.594c-0.05867 0.21895-0.02039 0.44829 0.09375 0.625l0.28125-1.0625c-0.078-0.044-0.143-0.109-0.219-0.156z"/>
  </g>
  <rect id="rect3003" style="opacity:.15;fill:#fff" clip-path="url(#clipPath3009)" rx="25" ry="25" transform="translate(98 -.0000026172)" width="92" y="958.36" x="-96" height="92"/>
 </g>
</svg>
