<?xml version="1.0" encoding="UTF-8" standalone="no"?>
<!-- Created with Inkscape (http://www.inkscape.org/) -->
<svg id="svg11037" xmlns:rdf="http://www.w3.org/1999/02/22-rdf-syntax-ns#" xmlns="http://www.w3.org/2000/svg" height="96" width="96" version="1.1" xmlns:cc="http://creativecommons.org/ns#" xmlns:xlink="http://www.w3.org/1999/xlink" xmlns:dc="http://purl.org/dc/elements/1.1/">
 <defs id="defs11039">
  <clipPath id="clipPath3009" clipPathUnits="userSpaceOnUse">
   <path id="path3011" style="opacity:.15;fill:#fff" d="m-2 956.36h-96v33.562l96 25.687v-59.25z"/>
  </clipPath>
  <linearGradient id="linearGradient3053" x1="24" gradientUnits="userSpaceOnUse" y1="44.5" gradientTransform="matrix(1.2558 0 0 -1.2558 17.861 76.884)" x2="24" y2="1.4999">
   <stop id="stop3639-59" style="stop-color:#f0f0f0" offset="0"/>
   <stop id="stop3641-768" style="stop-color:#aaa" offset="1"/>
  </linearGradient>
 </defs>
 <metadata id="metadata11042">
  <rdf:RDF>
   <cc:Work rdf:about="">
    <dc:format>image/svg+xml</dc:format>
    <dc:type rdf:resource="http://purl.org/dc/dcmitype/StillImage"/>
    <dc:title/>
   </cc:Work>
  </rdf:RDF>
 </metadata>
 <g id="layer1" transform="translate(0 -956.36)">
  <rect id="rect3867" style="opacity:.6" rx="25" ry="25" height="92" width="92" y="958.36" x="2"/>
  <g id="g3070" transform="translate(0 956.36)">
   <path id="path3847" style="opacity:.3;display:block" d="m44.25 76c-1.0626 0-1.875-0.88801-1.875-1.9688v-3.8438c-1.9-0.50622-3.7765-1.1902-5.4375-2.1562l-2.7188 2.625c-0.38211 0.38209-0.81802 0.65206-1.3125 0.65625-0.49448 0.0042-0.93682-0.18684-1.3125-0.5625l-5.344-5.344c-0.75135-0.75136-0.6704-1.8608 0.09375-2.625l2.625-2.7188c-0.966-1.661-1.65-3.537-2.157-5.437h-3.8438c-1.08 0-1.968-0.812-1.968-1.875v-7.5c0-1.0626 0.88801-1.875 1.9688-1.875h3.8438c0.50624-1.9 1.1902-3.7765 2.1562-5.4375l-2.625-2.7188c-0.764-0.764-0.845-1.874-0.094-2.625l5.344-5.344c0.75135-0.75136 1.8608-0.67044 2.625 0.09375l2.7188 2.625c1.661-0.96605 3.5375-1.65 5.4375-2.1562v-3.8438c-0.001-1.081 0.811-1.969 1.874-1.969h7.5c1.0626 0 1.875 0.88801 1.875 1.9688v3.8438c1.9 0.50623 3.7765 1.1902 5.4375 2.1562l2.7188-2.625c0.76419-0.76419 1.8736-0.84514 2.625-0.09375l5.344 5.344c0.75135 0.75136 0.67035 1.8608-0.09375 2.625l-2.625 2.7188c0.96605 1.661 1.65 3.5375 2.1562 5.4375h3.8438c1.081-0.001 1.969 0.811 1.969 1.874v7.5c0 1.0626-0.88802 1.875-1.9688 1.875h-3.8438c-0.50622 1.9-1.1902 3.7764-2.1562 5.4375l2.625 2.7188c0.76419 0.7642 0.8452 1.8736 0.09375 2.625l-5.344 5.344c-0.75137 0.75135-1.8608 0.67035-2.625-0.09375l-2.7188-2.625c-1.661 0.96606-3.5375 1.65-5.4375 2.1562v3.8438c0.001 1.081-0.811 1.969-1.874 1.969zm-4.25-15h16v-12h7l-15-15-15 15h7z"/>
   <path id="rect3267" style="display:block;fill:url(#linearGradient3053)" d="m44.25 75c-1.0626 0-1.875-0.88801-1.875-1.9688v-3.8438c-1.9-0.50622-3.7765-1.1902-5.4375-2.1562l-2.7188 2.625c-0.38211 0.38209-0.81802 0.65206-1.3125 0.65625-0.49448 0.0042-0.93682-0.18684-1.3125-0.5625l-5.344-5.344c-0.75135-0.75136-0.6704-1.8608 0.09375-2.625l2.625-2.7188c-0.966-1.661-1.65-3.537-2.157-5.437h-3.8438c-1.08 0-1.968-0.812-1.968-1.875v-7.5c0-1.0626 0.88801-1.875 1.9688-1.875h3.8438c0.50624-1.9 1.1902-3.7765 2.1562-5.4375l-2.625-2.7188c-0.764-0.764-0.845-1.874-0.094-2.625l5.344-5.344c0.75135-0.75136 1.8608-0.67044 2.625 0.09375l2.7188 2.625c1.661-0.96605 3.5375-1.65 5.4375-2.1562v-3.8438c-0.001-1.081 0.811-1.969 1.874-1.969h7.5c1.0626 0 1.875 0.88801 1.875 1.9688v3.8438c1.9 0.50623 3.7765 1.1902 5.4375 2.1562l2.7188-2.625c0.76419-0.76419 1.8736-0.84514 2.625-0.09375l5.344 5.344c0.75135 0.75136 0.67035 1.8608-0.09375 2.625l-2.625 2.7188c0.96605 1.661 1.65 3.5375 2.1562 5.4375h3.8438c1.081-0.001 1.969 0.811 1.969 1.874v7.5c0 1.0626-0.88802 1.875-1.9688 1.875h-3.8438c-0.50622 1.9-1.1902 3.7764-2.1562 5.4375l2.625 2.7188c0.76419 0.7642 0.8452 1.8736 0.09375 2.625l-5.344 5.344c-0.75137 0.75135-1.8608 0.67035-2.625-0.09375l-2.7188-2.625c-1.661 0.96606-3.5375 1.65-5.4375 2.1562v3.8438c0.001 1.081-0.811 1.969-1.874 1.969zm-4.25-15h16v-12h7l-15-15-15 15h7z"/>
   <path id="path3868" style="opacity:.15;display:block" d="m44.25 75c-1.0626 0-1.875-0.88801-1.875-1.9688v-1c0 1.081 0.812 1.969 1.875 1.969h7.5c1.0626 0 1.875-0.888 1.875-1.9688v1c0 1.081-0.812 1.969-1.875 1.969h-7.5zm-11.344-4.688c-0.494 0.005-0.937-0.186-1.312-0.562l-5.344-5.344c-0.49496-0.49496-0.62229-1.1453-0.4375-1.75 0.08058 0.26611 0.21571 0.5282 0.4375 0.75l5.344 5.344c0.37568 0.37566 0.81802 0.5667 1.3125 0.5625s0.93039-0.27416 1.3125-0.65625l2.7188-2.625c1.661 0.96605 3.5375 1.65 5.4375 2.1562v1c-1.9-0.50622-3.7765-1.1902-5.4375-2.1562l-2.7188 2.625c-0.38211 0.38209-0.81802 0.65206-1.3125 0.65625zm30.188-0.03125c-0.4668-0.02184-0.9304-0.24295-1.3125-0.625l-2.7188-2.625c-1.661 0.96606-3.5375 1.65-5.4375 2.1562v-1c1.9-0.50623 3.7765-1.1902 5.4375-2.1562l2.7188 2.625c0.7642 0.7641 1.8736 0.8451 2.625 0.09375l5.342-5.344c0.22182-0.2218 0.35692-0.48389 0.4375-0.75 0.18481 0.60469 0.05752 1.255-0.4375 1.75l-5.344 5.344c-0.37569 0.37567-0.8457 0.55309-1.3125 0.53125zm-34.469-11.875c-0.782-1.494-1.371-3.123-1.813-4.781h-3.8438c-1.08 0-1.968-0.812-1.968-1.875v-1c0 1.0626 0.88801 1.875 1.9688 1.875h3.8438c0.50624 1.9 1.1902 3.7765 2.1562 5.4375l-0.344 0.344zm38.75 0-0.34375-0.34375c0.96605-1.6611 1.65-3.5375 2.1562-5.4375h3.8438c1.081 0.001 1.969-0.811 1.969-1.874v1c0 1.0626-0.88802 1.875-1.9688 1.875h-3.8438c-0.44175 1.658-1.0307 3.2866-1.8125 4.7812zm-34.375-11.406 15-15 15 15h-1l-14-14-14 14h-1zm-4.375-10.406-2.2812-2.375c-0.53861-0.53861-0.72365-1.2396-0.53125-1.875 0.09573 0.31323 0.27047 0.61422 0.53125 0.875l2.625 2.7188c-0.12304 0.21156-0.22964 0.43809-0.34375 0.65625zm38.75 0c-0.114-0.218-0.221-0.445-0.344-0.656l2.625-2.7188c0.26074-0.26078 0.43553-0.56177 0.53125-0.875 0.19238 0.63537 0.0073 1.3364-0.53125 1.875l-2.2812 2.375z"/>
   <path id="path3877" style="opacity:.75;display:block;fill:#fff" d="m25.812 63.656c-0.19239-0.63537-0.0073-1.3364 0.53125-1.875l2.2812-2.375c0.11411 0.21816 0.22071 0.44469 0.34375 0.65625l-2.625 2.7188c-0.26076 0.26078-0.43553 0.56177-0.53125 0.875zm44.375 0c-0.09573-0.31323-0.27048-0.61422-0.53125-0.875l-2.625-2.7188c0.12304-0.21156 0.22964-0.43809 0.34375-0.65625l2.2812 2.375c0.53861 0.53861 0.72365 1.2396 0.53125 1.875zm-30.187-2.656v-1h16v1h-16zm-7-12 1-1h6v1h-7zm23 0v-1h6l1 1h-7zm-35-3.75v-1c0-1.0626 0.88801-1.875 1.9688-1.875h3.8438c0.44176-1.658 1.0307-3.2866 1.8125-4.7812l0.34375 0.34375c-0.96604 1.661-1.65 3.5375-2.1562 5.4375h-3.8438c-1.082-0.001-1.97 0.811-1.97 1.874zm54 0c0-1.0626-0.88802-1.875-1.9688-1.875h-3.8438c-0.506-1.9-1.19-3.776-2.156-5.437l0.344-0.344c0.78178 1.4947 1.3708 3.1233 1.8125 4.7812h3.8438c1.08 0 1.968 0.812 1.968 1.875v1zm-49.188-11.906c-0.18481-0.60469-0.0575-1.255 0.4375-1.75l5.344-5.344c0.75135-0.75136 1.8608-0.67044 2.625 0.09375l2.7188 2.625c1.661-0.96605 3.5375-1.65 5.4375-2.1562v1c-1.9 0.50623-3.7765 1.1902-5.4375 2.1562l-2.7188-2.625c-0.764-0.764-1.874-0.845-2.625-0.094l-5.344 5.344c-0.22181 0.2218-0.35692 0.48389-0.4375 0.75zm44.375 0c-0.08057-0.26611-0.21571-0.5282-0.4375-0.75l-5.344-5.344c-0.75136-0.75139-1.8608-0.67044-2.625 0.09375l-2.7188 2.625c-1.661-0.966-3.537-1.65-5.437-2.157v-1c1.9 0.50623 3.7765 1.1902 5.4375 2.1562l2.7188-2.625c0.76419-0.76419 1.8736-0.84514 2.625-0.09375l5.344 5.345c0.49496 0.49496 0.62229 1.1453 0.4375 1.75zm-27.812-9.375v-1c0-1.081 0.812-1.969 1.875-1.969h7.5c1.0626 0 1.875 0.88801 1.875 1.9688v1c0-1.081-0.812-1.969-1.875-1.969h-7.5c-1.0626 0-1.875 0.88801-1.875 1.9688z"/>
  </g>
  <rect id="rect3003" style="opacity:.15;fill:#fff" clip-path="url(#clipPath3009)" rx="25" ry="25" transform="translate(98 -.0000026172)" width="92" y="958.36" x="-96" height="92"/>
 </g>
</svg>
