<?xml version="1.0" encoding="UTF-8" standalone="no"?>
<!-- Created with Inkscape (http://www.inkscape.org/) -->
<svg id="svg11037" xmlns:rdf="http://www.w3.org/1999/02/22-rdf-syntax-ns#" xmlns="http://www.w3.org/2000/svg" height="96" width="96" version="1.1" xmlns:cc="http://creativecommons.org/ns#" xmlns:xlink="http://www.w3.org/1999/xlink" xmlns:dc="http://purl.org/dc/elements/1.1/">
 <defs id="defs11039">
  <linearGradient id="linearGradient11642" x1="48" gradientUnits="userSpaceOnUse" x2="48" gradientTransform="matrix(1.15 0 0 1.15 -7.1999 -150.65)" y1="962.62" y2="1046.1">
   <stop id="stop3177-6" style="stop-color:#4490e6" offset="0"/>
   <stop id="stop3179-3" style="stop-color:#103d8f" offset="1"/>
  </linearGradient>
  <clipPath id="clipPath3009" clipPathUnits="userSpaceOnUse">
   <path id="path3011" style="opacity:.15;fill:#fff" d="m-2 956.36h-96v33.562l96 25.687v-59.25z"/>
  </clipPath>
  <linearGradient id="linearGradient3963" x1="49" gradientUnits="userSpaceOnUse" y1="91" gradientTransform="scale(1.0059 .99417)" x2="49" y2="7">
   <stop id="stop3750" offset="0"/>
   <stop id="stop3752" style="stop-opacity:.58824" offset="1"/>
  </linearGradient>
  <linearGradient id="linearGradient3831" y2="82.822" gradientUnits="userSpaceOnUse" y1="91.125" x2="43.31" x1="43.31">
   <stop id="stop3736" style="stop-color:#bfbfbf" offset="0"/>
   <stop id="stop3738" style="stop-color:#9a9a9a" offset="1"/>
  </linearGradient>
  <linearGradient id="linearGradient3769" x1="48" gradientUnits="userSpaceOnUse" y1="86.071" gradientTransform="translate(0,1)" x2="48" y2="72.304">
   <stop id="stop3773" style="stop-color:#ababab;stop-opacity:0" offset="0"/>
   <stop id="stop3779" style="stop-color:#e6e6e6" offset=".1562"/>
   <stop id="stop3777" style="stop-color:#aaa" offset="1"/>
  </linearGradient>
  <linearGradient id="linearGradient3797" x1="37" xlink:href="#linearGradient3803" gradientUnits="userSpaceOnUse" y1="72.089" gradientTransform="translate(0,1)" x2="37" y2="84"/>
  <linearGradient id="linearGradient3803">
   <stop id="stop3805" offset="0"/>
   <stop id="stop3807" style="stop-opacity:0" offset="1"/>
  </linearGradient>
  <linearGradient id="linearGradient3809" x1="60" xlink:href="#linearGradient3803" gradientUnits="userSpaceOnUse" y1="70" gradientTransform="translate(0,1)" x2="60" y2="84.028"/>
  <linearGradient id="linearGradient3813" x1="44.696" xlink:href="#linearGradient3803" gradientUnits="userSpaceOnUse" y1="66.995" gradientTransform="matrix(1 0 0 .42105 -1.3177e-7 44.789)" x2="44.696" y2="78.307"/>
  <linearGradient id="linearGradient3205" y2="5.9877" gradientUnits="userSpaceOnUse" y1="72" x2="48" x1="48">
   <stop id="stop3702-5" offset="0"/>
   <stop id="stop3704-6" style="stop-color:#1f1f1f" offset="1"/>
  </linearGradient>
  <linearGradient id="linearGradient3922" y2="63.893" gradientUnits="userSpaceOnUse" y1="6" x2="36.357" x1="36.357">
   <stop id="stop3739-6" style="stop-color:#fff" offset="0"/>
   <stop id="stop3741-9" style="stop-color:#fff;stop-opacity:0" offset="1"/>
  </linearGradient>
  <radialGradient id="radialGradient3465" gradientUnits="userSpaceOnUse" cy="4.3132" cx="48" gradientTransform="matrix(-2.7021e-8 1.6166 -1.3333 -2.2261e-8 53.751 -65.764)" r="35.938">
   <stop id="stop3177-5" style="stop-color:#55a6eb" offset="0"/>
   <stop id="stop3179-1-2" style="stop-color:#1754c4" offset="1"/>
  </radialGradient>
  <radialGradient id="radialGradient3619" gradientUnits="userSpaceOnUse" cy="72.098" cx="48" gradientTransform="matrix(1.1573 0 0 .99591 -7.551 .19713)" r="42">
   <stop id="stop3739" style="stop-color:#fff" offset="0"/>
   <stop id="stop3741" style="stop-color:#fff;stop-opacity:0" offset="1"/>
  </radialGradient>
  <linearGradient id="linearGradient3129" x1="65.156" xlink:href="#linearGradient3737-1" gradientUnits="userSpaceOnUse" y1="16.125" gradientTransform="translate(2,-2)" x2="65.156" y2="66"/>
  <linearGradient id="linearGradient3737-1">
   <stop id="stop3739-4" style="stop-color:#fff" offset="0"/>
   <stop id="stop3741-91" style="stop-color:#fff;stop-opacity:0" offset="1"/>
  </linearGradient>
  <linearGradient id="linearGradient4126" x1="142.47" gradientUnits="userSpaceOnUse" y1="16.125" gradientTransform="translate(-78,-2)" x2="142.47" y2="58">
   <stop id="stop3689" style="stop-color:#fff" offset="0"/>
   <stop id="stop3691" style="stop-color:#fff;stop-opacity:0" offset="1"/>
  </linearGradient>
  <linearGradient id="linearGradient3926" x1="68.517" xlink:href="#linearGradient3737-1" gradientUnits="userSpaceOnUse" y1="9.0625" gradientTransform="translate(2,-2)" x2="68.517" y2="90"/>
  <linearGradient id="linearGradient3983" x1="48" spreadMethod="reflect" gradientUnits="userSpaceOnUse" y1="36" x2="56.969" y2="36">
   <stop id="stop3979" style="stop-color:#cbcbcb" offset="0"/>
   <stop id="stop3981" style="stop-color:#efefef" offset="1"/>
  </linearGradient>
  <linearGradient id="linearGradient4011" y2="24.975" gradientUnits="userSpaceOnUse" y1="35.984" x2="47.23" x1="39.031">
   <stop id="stop4007" offset="0"/>
   <stop id="stop4009" style="stop-opacity:0" offset="1"/>
  </linearGradient>
  <linearGradient id="linearGradient4039" y2="23.479" gradientUnits="userSpaceOnUse" y1="37.282" x2="48.758" x1="56.728">
   <stop id="stop4035" offset="0"/>
   <stop id="stop4037" style="stop-opacity:0" offset="1"/>
  </linearGradient>
  <linearGradient id="linearGradient3933" x1="48" xlink:href="#linearGradient3956" spreadMethod="reflect" gradientUnits="userSpaceOnUse" y1="41" x2="60" y2="41"/>
  <linearGradient id="linearGradient3956">
   <stop id="stop3958" style="stop-color:#e6c94c" offset="0"/>
   <stop id="stop3966" style="stop-color:#e7ce5f" offset=".57832"/>
   <stop id="stop3960" style="stop-color:#f0de93" offset=".83333"/>
   <stop id="stop3962" style="stop-color:#d0b64c" offset=".91667"/>
   <stop id="stop3964" style="stop-color:#907d2e" offset="1"/>
  </linearGradient>
  <linearGradient id="linearGradient3945" x1="48" xlink:href="#linearGradient3956" spreadMethod="reflect" gradientUnits="userSpaceOnUse" y1="41" gradientTransform="translate(0,6)" x2="60" y2="41"/>
  <linearGradient id="linearGradient3954" x1="48" xlink:href="#linearGradient3956" spreadMethod="reflect" gradientUnits="userSpaceOnUse" y1="41" gradientTransform="translate(0,12)" x2="60" y2="41"/>
 </defs>
 <metadata id="metadata11042">
  <rdf:RDF>
   <cc:Work rdf:about="">
    <dc:format>image/svg+xml</dc:format>
    <dc:type rdf:resource="http://purl.org/dc/dcmitype/StillImage"/>
    <dc:title/>
   </cc:Work>
  </rdf:RDF>
 </metadata>
 <g id="layer1" transform="translate(0 -956.36)">
  <rect id="rect3867" style="fill:url(#linearGradient11642)" rx="25" ry="25" height="92" width="92" y="958.36" x="2"/>
  <g id="g3171" transform="matrix(.77381 0 0 .77381 10.857 963.95)">
   <g id="g3148">
    <path id="path3929" style="opacity:.45;fill:url(#linearGradient3963)" d="m12 7c-3.324 0-6 2.676-6 6v56c0 3.324 2.676 6 6 6h24v10h-8.1562c-0.06979-0.0051-0.11771-0.0051-0.1875 0a1.0904 0.55069 0 0 0 -0.21875 0.03125c-0.03256 0.0068-0.06235 0.02303-0.09375 0.03125a1.0904 0.55069 0 0 0 -0.1875 0.0625c-0.02929 0.01182-0.06785 0.0182-0.09375 0.03125l-5.75 2.9062a1.0904 0.55069 0 0 0 -0.125 0.09375c-0.0177 0.01386-0.0476 0.01678-0.0625 0.03125a1.0904 0.55069 0 0 0 -0.124 0.283c0.0011 0.01017-0.0023 0.02107 0 0.03125 0.0045 0.02024 0.02225 0.04235 0.03125 0.0625a1.0904 0.55069 0 0 0 0.03125 0.0625c0.0083 0.01224 0.02121 0.01916 0.03125 0.03125v1.8438c0.17072 0.3084 0.55856 0.50182 1 0.5h51.812c0.44144 0.0018 0.82928-0.1916 1-0.5v-1.8438a1.0904 0.55069 0 0 0 0.095 -0.157c0.0045-0.02036-0.000023-0.04222 0-0.0625a1.0904 0.55069 0 0 0 -0.03125 -0.09375c-0.0027-0.0076 0.0034-0.02375 0-0.03125a1.0904 0.55069 0 0 0 -0.0625 -0.09375c-0.0037-0.0043-0.02736 0.0042-0.03125 0a1.0904 0.55069 0 0 0 0 -0.03125c-0.0056-0.0054-0.02527 0.0053-0.03125 0a1.0904 0.55069 0 0 0 -0.063 -0.063c-0.031-0.022-0.055-0.043-0.093-0.063l-0.282-0.124-5.468-2.782a1.0904 0.55069 0 0 0 -0.094 -0.031c-0.05671-0.02251-0.12378-0.04585-0.1875-0.0625a1.0904 0.55069 0 0 0 -0.094 -0.031c-0.132-0.027-0.261-0.033-0.406-0.031h-8.156v-10h24c3.324 0 6-2.676 6-6v-56c0-3.324-2.676-6-6-6h-72z"/>
   </g>
   <g id="layer4-5">
    <path id="path3742" style="fill:#414141" d="m27.656 84c-0.21572 0.02037-0.43837 0.07797-0.59375 0.15625l-5.75 2.9062c-0.31111 0.15817-0.38947 0.38815-0.21875 0.59375v1.8437c0.17072 0.3084 0.55856 0.50182 1 0.5h51.812c0.44144 0.0018 0.82928-0.1916 1-0.5v-1.8437c0.17072-0.2056 0.09236-0.43558-0.21875-0.59375l-5.75-2.9062c-0.20974-0.10072-0.49192-0.16003-0.78125-0.15625h-40.312c-0.06979-0.0051-0.11771-0.0051-0.1875 0z"/>
    <path id="path3732" style="fill:url(#linearGradient3831)" transform="matrix(.95939 0 0 .48454 1.9491 43.846)" d="m26.781 82.875a1.1365 1.1365 0 0 0 -0.59375 0.3125l-6 6a1.1365 1.1365 0 0 0 0.813 1.937h54a1.1365 1.1365 0 0 0 0.8125 -1.9375l-6-6a1.1365 1.1365 0 0 0 -0.812 -0.313h-42a1.1365 1.1365 0 0 0 -0.21875 0z"/>
    <path id="path3758" style="opacity:.6;fill:#fff" d="m21.594 86.937-0.28125 0.125c-0.31111 0.15817-0.38947 0.38815-0.21875 0.59375s0.55856 0.34496 1 0.34375h51.812c0.44144 0.0012 0.82928-0.13815 1-0.34375s0.09236-0.43558-0.21875-0.59375l-0.28125-0.125c-0.15528 0.04133-0.31693 0.063-0.5 0.0625h-51.812c-0.18307 0.000503-0.34472-0.02117-0.5-0.0625z"/>
    <rect id="rect3727" style="fill:url(#linearGradient3769)" height="19" width="24" y="68" x="36"/>
    <rect id="rect3781" style="opacity:.5;fill:url(#linearGradient3797)" height="14" width="1" y="71" x="36"/>
    <rect id="rect3799" style="opacity:.5;fill:url(#linearGradient3809)" height="14" width="1" y="71" x="59"/>
    <rect id="rect3811" style="opacity:.8;fill:url(#linearGradient3813)" height="8" width="24" y="73" x="36"/>
   </g>
   <g id="layer1-7">
    <rect id="rect2419-9" style="fill:url(#linearGradient3205)" rx="6" ry="6" height="68" width="84" y="6" x="6"/>
    <path id="rect3884" style="fill:#b3b3b3" d="m6 66v2c0 3.324 2.676 6 6 6h72c3.324 0 6-2.676 6-6v-2c0 3.324-2.676 6-6 6h-72c-3.324 0-6-2.676-6-6z"/>
    <path id="rect3728-7" style="opacity:.15;fill:url(#linearGradient3922)" d="m12 6c-3.324 0-6 2.676-6 6v54.026c0 0.33472 0.04135 0.6507 0.09375 0.96875 0.0487 0.2956 0.09704 0.59692 0.1875 0.875 0.0099 0.03038 0.02089 0.0636 0.03125 0.09375 0.09886 0.28777 0.23488 0.54745 0.375 0.8125 0.14459 0.27351 0.31562 0.53562 0.5 0.78125 0.18438 0.24564 0.37378 0.47347 0.59375 0.6875 0.43995 0.42806 0.94291 0.81453 1.5 1.0938 0.27854 0.13961 0.57347 0.24695 0.875 0.34375-0.2562-0.10022-0.48671-0.23627-0.71875-0.375-0.0074-0.0044-0.02387 0.0045-0.03125 0-0.03193-0.0193-0.06229-0.04251-0.09375-0.0625-0.1204-0.0767-0.23102-0.16351-0.34375-0.25-0.10617-0.0808-0.21328-0.16111-0.3125-0.25-0.17793-0.16143-0.34746-0.34539-0.5-0.53125-0.10758-0.13026-0.21839-0.26528-0.3125-0.40625-0.02509-0.03838-0.03845-0.08587-0.0625-0.125-0.0646-0.102-0.1301-0.204-0.1873-0.312-0.1011-0.194-0.2057-0.415-0.2813-0.625-0.008-0.022-0.0236-0.04-0.0313-0.062-0.0318-0.092-0.0358-0.187-0.0624-0.282-0.0304-0.106-0.0704-0.203-0.0938-0.312-0.0729-0.342-0.125-0.698-0.125-1.063v-54.026c0-2.782 2.2182-5 5-5h72c2.7818 0 5 2.2182 5 5v54.026c0 0.3643-0.05212 0.72099-0.125 1.0625-0.04415 0.20689-0.08838 0.39766-0.15625 0.59375-0.0077 0.02195-0.0233 0.04069-0.03125 0.0625-0.06274 0.17374-0.13838 0.36745-0.21875 0.53125-0.04158 0.0828-0.07904 0.16995-0.125 0.25-0.0546 0.09721-0.12677 0.18835-0.1875 0.28125-0.09411 0.14096-0.20492 0.276-0.3125 0.40625-0.14317 0.17445-0.30314 0.347-0.46875 0.5-0.01117 0.0102-0.01998 0.02116-0.03125 0.03125-0.13839 0.12556-0.28509 0.23444-0.4375 0.34375-0.10257 0.07315-0.20432 0.15336-0.3125 0.21875-0.0074 0.0045-0.02384-0.0044-0.03125 0-0.23204 0.13873-0.46255 0.27478-0.71875 0.375 0.30153-0.0968 0.59646-0.20414 0.875-0.34375 0.55709-0.27922 1.0601-0.66569 1.5-1.0938 0.21997-0.21403 0.40937-0.44186 0.59375-0.6875s0.35541-0.50774 0.5-0.78125c0.14012-0.26505 0.27614-0.52473 0.375-0.8125 0.01041-0.03078 0.02133-0.06274 0.03125-0.09375 0.09046-0.27808 0.1388-0.5794 0.1875-0.875 0.053-0.318 0.094-0.634 0.094-0.969v-54.026c0-3.324-2.676-6-6-6h-72z"/>
    <path id="path3215" style="fill:url(#radialGradient3465)" transform="matrix(-1.0017 0 0 -1.0023 96.083 78.09)" d="m12.062 12.062v53.875h71.875v-53.875h-71.875z"/>
    <path id="rect3291" style="fill:#b3b3b3" d="m6 67v1c0 3.324 2.676 6 6 6h72c3.324 0 6-2.676 6-6v-1c0 3.324-2.676 6-6 6h-72c-3.324 0-6-2.676-6-6z"/>
    <rect id="rect3724" style="opacity:.4;fill:#fff" height="1" width="72" y="66.064" x="12"/>
    <path id="path3615" style="opacity:.15;fill:url(#radialGradient3619)" d="m12 74c-3.324 0-6-2.676-6-6v-56c0-0.33472 0.0413-0.6507 0.0937-0.96875 0.0487-0.2956 0.097-0.59692 0.1875-0.875 0.01-0.03038 0.0209-0.0636 0.0312-0.09375 0.0989-0.2873 0.2349-0.547 0.375-0.812 0.1446-0.2735 0.3156-0.5356 0.5-0.7812 0.1844-0.2457 0.3738-0.4735 0.5938-0.6876 0.4399-0.428 0.9429-0.8145 1.5-1.0937 0.2785-0.1396 0.5734-0.2469 0.8748-0.3437-0.256 0.1002-0.4866 0.2362-0.7186 0.375-0.007 0.0044-0.0239-0.0045-0.0312 0-0.0319 0.0193-0.0623 0.04251-0.0937 0.0625-0.1204 0.0767-0.23102 0.16351-0.34375 0.25-0.10617 0.0808-0.21328 0.16111-0.3125 0.25-0.1779 0.1614-0.3474 0.3453-0.5 0.5312-0.1075 0.1303-0.2183 0.2653-0.3124 0.4063-0.0252 0.0383-0.0384 0.0858-0.0626 0.125-0.0648 0.103-0.1302 0.2045-0.1874 0.3124-0.1011 0.1948-0.2057 0.4158-0.2813 0.625-0.008 0.0219-0.0236 0.0406-0.0312 0.0626-0.0318 0.0919-0.0358 0.1868-0.0625 0.2812-0.0303 0.1066-0.0704 0.203-0.0937 0.3125-0.073 0.3415-0.1251 0.6985-0.1251 1.0625v56c0 2.7818 2.5118 6.2441 5 5h72c2.7818 0 5-2.2182 5-5v-56c0-0.364-0.052-0.721-0.125-1.0625-0.044-0.2069-0.088-0.3977-0.156-0.5937-0.008-0.022-0.024-0.0407-0.031-0.0626-0.063-0.1737-0.139-0.3674-0.219-0.5312-0.042-0.0828-0.079-0.17-0.125-0.25-0.055-0.0972-0.127-0.1884-0.188-0.2812-0.094-0.141-0.205-0.276-0.312-0.4063-0.143-0.1745-0.303-0.347-0.469-0.5-0.011-0.0102-0.02-0.0211-0.031-0.0313-0.139-0.1255-0.285-0.2344-0.438-0.3437-0.102-0.0731-0.204-0.1534-0.312-0.2187-0.0074-0.0045-0.02384 0.0044-0.03125 0-0.23204-0.13873-0.46255-0.27478-0.71875-0.375 0.30153 0.0968 0.59646 0.20414 0.875 0.34375 0.55709 0.27922 1.0601 0.66569 1.5 1.0938 0.21997 0.21403 0.40937 0.44186 0.59375 0.6875s0.35541 0.50774 0.5 0.78125c0.14012 0.26505 0.27614 0.52473 0.375 0.8125 0.01041 0.03078 0.02133 0.06274 0.03125 0.09375 0.09046 0.27808 0.1388 0.5794 0.1875 0.875 0.053 0.318 0.094 0.634 0.094 0.969v56c0 3.324-2.676 6-6 6z"/>
    <path id="path3992" style="opacity:.3" d="m12 12v1h72v-1h-72z"/>
    <path id="path2669" style="opacity:.5;fill:url(#linearGradient3129);fill-rule:evenodd" d="m49.656 14.125 17.031 50.75h1l-17.031-50.75z"/>
    <path id="path3664" style="opacity:.7;fill:url(#linearGradient4126);fill-rule:evenodd" d="m49.656 14.125 17.031 50.75h14.312c0.5388 0 0.875-0.3362 0.875-0.875v-49c0-0.5388-0.33619-0.875-0.875-0.875z"/>
    <path id="path4128" style="opacity:.25;fill:url(#linearGradient3926);fill-rule:evenodd" d="m47.375 8 1.0312 2.9375h35.594c0.58434 0.0059 1.0566 0.47816 1.0625 1.0625v55c-0.005 0.584-0.478 1.057-1.062 1.062h-14.25l1.375 3.875h14.406c1.2791-0.16353 2.3147-0.91678 2.9062-1.9688-0.07832 0.08832-0.13258 0.19741-0.21875 0.28125-0.43995 0.42806-0.94291 0.81453-1.5 1.0938-0.27854 0.13961-0.57347 0.24695-0.875 0.34375 0.2562-0.10022 0.48671-0.23627 0.71875-0.375 0.0074-0.0044 0.02385 0.0045 0.03125 0 0.10818-0.06539 0.20993-0.1456 0.3125-0.21875 0.15241-0.10931 0.29911-0.21819 0.4375-0.34375 0.01127-0.01009 0.02008-0.02105 0.03125-0.03125 0.16561-0.153 0.32558-0.32555 0.46875-0.5 0.10758-0.13026 0.21839-0.26528 0.3125-0.40625 0.06073-0.0929 0.1329-0.18404 0.1875-0.28125 0.04596-0.08005 0.08342-0.1672 0.125-0.25 0.08037-0.1638 0.15601-0.35751 0.21875-0.53125 0.0079-0.02181 0.02355-0.04055 0.03125-0.0625 0.06787-0.19609 0.1121-0.38686 0.15625-0.59375 0.0236-0.11059 0.04432-0.23023 0.0625-0.34375v-55.5c-0.363-2.4121-2.416-4.25-4.937-4.25h-36.625z"/>
    <g id="g3895" transform="matrix(1,0,0,1.5,0,-37)">
     <g id="g3302" transform="translate(0,2)">
      <rect id="rect3296" style="fill:#b3b3b3" height="2" width="6" y="70" x="56"/>
      <rect id="rect3298" style="opacity:.4;fill:#fff" height="2" width="1" y="70" x="56"/>
      <rect id="rect3300" style="opacity:.4" height="2" width="1" y="70" x="61"/>
     </g>
     <g id="g3307" transform="translate(6,2)">
      <rect id="rect3309" style="fill:#b3b3b3" height="2" width="6" y="70" x="56"/>
      <rect id="rect3311" style="opacity:.4;fill:#fff" height="2" width="1" y="70" x="56"/>
      <rect id="rect3313" style="opacity:.4" height="2" width="1" y="70" x="61"/>
     </g>
     <g id="g3315" transform="translate(12,2)">
      <rect id="rect3317" style="fill:#b3b3b3" height="2" width="6" y="70" x="56"/>
      <rect id="rect3319" style="opacity:.4;fill:#fff" height="2" width="1" y="70" x="56"/>
      <rect id="rect3321" style="opacity:.4" height="2" width="1" y="70" x="61"/>
     </g>
     <g id="g3323" transform="translate(18,2)">
      <rect id="rect3325" style="fill:#b3b3b3" height="2" width="6" y="70" x="56"/>
      <rect id="rect3327" style="opacity:.4;fill:#fff" height="2" width="1" y="70" x="56"/>
      <rect id="rect3329" style="opacity:.4" height="2" width="1" y="70" x="61"/>
     </g>
    </g>
   </g>
   <g id="layer6">
    <path id="path4063" style="opacity:.3;color:#000000" d="m48 24.031c-4.9531 0-8.9688 4.0156-8.9688 8.9688v6h-2.031c-0.554 0-1 0.446-1 1v4c0 0.554 0.446 1 1 1-0.554 0-1 0.446-1 1v4c0 0.554 0.446 1 1 1-0.554 0-1 0.446-1 1v4c0 0.554 0.446 1 1 1h22c0.554 0 1-0.446 1-1v-4c0-0.554-0.446-1-1-1 0.554 0 1-0.446 1-1v-4c0-0.554-0.446-1-1-1 0.554 0 1-0.446 1-1v-4c0-0.554-0.446-1-1-1h-2.0312v-6c0-4.9531-4.0156-8.9688-8.9688-8.9688zm0 3c3.3495 0 5.9688 2.6193 5.9688 5.9688v6h-11.938v-6c0-3.3495 2.6193-5.9688 5.9688-5.9688z"/>
    <path id="path3974" style="color:#000000;fill:url(#linearGradient3983)" d="m48 23.031c-4.9531 0-8.9688 4.0156-8.9688 8.9688v8c0 4.9531 4.0156 8.9688 8.9688 8.9688 4.9531 0 8.9688-4.0156 8.9688-8.9688v-8c0-4.9531-4.0156-8.9688-8.9688-8.9688zm0 3c3.3495 0 5.9688 2.6193 5.9688 5.9688v8c0 3.3495-2.6193 5.9688-5.9688 5.9688s-5.9688-2.6193-5.9688-5.9688v-8c0-3.3495 2.6193-5.9688 5.9688-5.9688z"/>
    <path id="rect3985" style="opacity:.1;color:#000000" d="m48 25c-3.878 0-7 3.122-7 7v12c0 0.66189 0.11112 1.3002 0.28125 1.9062 1.6439 1.8741 4.0301 3.0625 6.7188 3.0625 2.6886 0 5.0749-1.1884 6.7188-3.0625 0.17-0.606 0.281-1.244 0.281-1.906v-12c0-3.878-3.122-7-7-7zm0 1.0312c3.3495 0 5.9688 2.6193 5.9688 5.9688v8c0 3.3495-2.6193 5.9688-5.9688 5.9688s-5.9688-2.6193-5.9688-5.9688v-8c0-3.3495 2.6193-5.9688 5.9688-5.9688z"/>
    <path id="path3993" style="opacity:.2;color:#000000" transform="matrix(.95522 0 0 .98760 2.1493 .60355)" d="m48 25.312c-3.7028 0-6.6875 2.9847-6.6875 6.6875v12c0 0.59376 0.13129 1.1617 0.28125 1.7188 1.584 1.7785 3.8381 2.9375 6.4062 2.9375s4.8223-1.159 6.4062-2.9375c0.15-0.557 0.282-1.125 0.282-1.719v-12c0-3.7028-2.9847-6.6875-6.6875-6.6875zm0 0.40625c3.5197 0 6.2812 2.7616 6.2812 6.2812v8c0 3.5197-2.7616 6.2812-6.2812 6.2812-3.5197 0-6.2812-2.7616-6.2812-6.2812v-8c0-3.5197 2.7616-6.2812 6.2812-6.2812z"/>
    <path id="path3995" style="opacity:.2;color:#000000;fill:url(#linearGradient4011)" d="m48 23.031c-4.9531 0-8.9688 4.0156-8.9688 8.9688v8c0 4.8035 3.7854 8.7049 8.5312 8.9375-4.522-0.453-8.062-4.241-8.062-8.813v-7.875c0-4.8771 4.0156-8.8125 8.9688-8.8125 1.9615 0 3.7737 0.60426 5.25 1.6562-1.551-1.28-3.552-2.063-5.719-2.063zm3.8438 4.3438c1.3108 1.086 2.125 2.7495 2.125 4.625v8c0 3.3495-2.6193 5.9688-5.9688 5.9688-0.17802 0-0.35764-0.01674-0.53125-0.03125 0.32453 0.05172 0.65826 0.0625 1 0.0625 3.3495 0 5.9688-2.5769 5.9688-5.875v-7.875c0-2.0613-1.0086-3.8295-2.5938-4.875z"/>
    <path id="path4013" style="opacity:.1;color:#000000" d="m48 23.031c-4.9531 0-8.9688 4.0156-8.9688 8.9688v8h0.78125v-8c0-4.8145 3.8013-8.7526 8.5625-8.9688-0.12664-0.0053-0.24706 0-0.375 0z"/>
    <path id="path4024" style="opacity:.15;color:#000000;fill:url(#linearGradient4039)" d="m48 23.031c-0.17096 0-0.3314 0.02181-0.5 0.03125 4.7161 0.2641 8.4688 4.1554 8.4688 8.9375v8c0 4.7821-3.7526 8.6734-8.4688 8.9375 0.1686 0.0094 0.32904 0.03125 0.5 0.03125 4.9531 0 8.9688-4.0156 8.9688-8.9688v-8c0-4.9531-4.0156-8.9688-8.9688-8.9688zm-1 3c-3.3495 0-5.9688 2.6193-5.9688 5.9688v8c0 3.3495 2.6193 5.9688 5.9688 5.9688 0.12581 0 0.25135-0.02396 0.375-0.03125-3.048-0.301-5.344-2.798-5.344-5.938v-8c0-3.1401 2.2961-5.6375 5.3438-5.9375-0.124-0.007-0.249-0.031-0.375-0.031z"/>
    <path id="path4041" style="opacity:.2;color:#000000" d="m47.75 23.031c4.8204 0.15145 8.6875 4.1116 8.6875 8.9688v8c0 4.8571-3.8671 8.8173-8.6875 8.9688 0.08472 0.0024 0.1647 0 0.25 0 4.9531 0 8.9688-4.0156 8.9688-8.9688v-8c0-4.9531-4.0156-8.9688-8.9688-8.9688-0.0853 0-0.16528-0.0024-0.25 0zm-0.28125 3c-3.35 0-5.969 2.62-5.969 5.969v8c0 3.3495 2.6193 5.9688 5.9688 5.9688 0.09397 0 0.18847 0.0041 0.28125 0-3.229-0.126-5.719-2.703-5.719-5.969v-8c0-3.2659 2.4895-5.8425 5.7188-5.9688-0.09278-0.0041-0.18728 0-0.28125 0z"/>
    <path id="rect4052" style="opacity:.3;block-progression:tb;text-indent:0;color:#000000;text-transform:none;fill:#fff" d="m47.969 24.5 0.78125 0.03125h0.03125l0.71875 0.125h0.03125l0.6875 0.1875h0.03125l0.65625 0.21875 0.03125 0.03125 0.625 0.28125 0.03125 0.03125 0.59375 0.34375 0.03125 0.03125 0.15625 0.125 0.471 0.094 0.312-0.344-0.094-0.468-0.093-0.063-0.188-0.156-0.031-0.031-0.656-0.407-0.063-0.031-0.687-0.312-0.063-0.032-0.719-0.281h-0.0625l-0.75-0.1875-0.0625-0.03125-0.78125-0.125h-0.0625l-0.812-0.031c-0.95631-0.06672-1.1523 1.089-0.0625 1zm-4 0-0.0625 0.03125-0.65625 0.40625-0.03125 0.03125-0.625 0.4375l-0.032 0.032-0.562 0.531-0.031 0.031-0.53125 0.5625-0.03125 0.03125-0.4375 0.625-0.03125 0.03125-0.40625 0.65625-0.03125 0.0625-0.28125 0.625v0.46875l0.40625 0.25 0.437-0.187 0.063-0.125 0.25-0.562 0.031-0.032 0.344-0.594 0.031-0.031 0.407-0.531 0.03125-0.03125 0.46875-0.5h0.03125v-0.03125l0.5-0.46875 0.031-0.031 0.531-0.407 0.031-0.031 0.594-0.344 0.032-0.031 0.593-0.25c0.712-0.467-0.031-1.125-0.437-0.906z"/>
    <path id="path4061" style="opacity:.6;block-progression:tb;text-indent:0;color:#000000;text-transform:none;fill:#fff" d="m48.031 23.688c-0.3993-0.02786-0.5759 0.19484-0.59375 0.34375-0.0089 0.07446-0.0071 0.13251 0.0625 0.1875 0.06958 0.05499 0.19869 0.11324 0.4375 0.09375a0.1949 0.1949 0 0 1 0.03125 0l0.78125 0.03125h0.03125a0.1949 0.1949 0 0 1 0.03125 0l0.6875 0.125h0.03125a0.1949 0.1949 0 0 1 0.03125 0 0.1949 0.1949 0 0 1 0.03125 0l0.625 0.1875h0.0625a0.1949 0.1949 0 0 1 0.03125 0l0.65625 0.21875a0.1949 0.1949 0 0 1 0.0625 0.03125l0.625 0.28125a0.1949 0.1949 0 0 1 0.03125 0.03125 0.1949 0.1949 0 0 1 0 0.03125l0.03125 0.03125 0.5625 0.3125a0.1949 0.1949 0 0 1 0.03125 0 0.1949 0.1949 0 0 1 0 0.03125h0.03125l0.125 0.09375 0.033 0.031 0.25 0.03125 0.1875-0.1875-0.0625-0.3125a0.1949 0.1949 0 0 1 -0.03125 0l-0.188-0.156a0.1949 0.1949 0 0 1 0 -0.03125l-0.031-0.032-0.625-0.374v0.031l-0.062-0.031-0.688-0.313-0.03125-0.03125h-0.03125l-0.688-0.282a0.1949 0.1949 0 0 1 -0.03125 0 0.1949 0.1949 0 0 1 -0.03125 0l-0.75-0.1875a0.1949 0.1949 0 0 1 -0.03125 0l-0.0625-0.03125-0.6875-0.125h-0.0625l-0.8125-0.03125zm-3.343 0.687a0.1949 0.1949 0 0 1 0 0.03125l-0.626 0.282-0.062 0.031v-0.03125l-0.625 0.375-0.03125 0.03125a0.1949 0.1949 0 0 1 0 0.03125l-0.625 0.4375h-0.03125a0.1949 0.1949 0 0 1 0 0.03125l-0.563 0.532-0.531 0.563a0.1949 0.1949 0 0 1 -0.03125 0v0.03125l-0.4375 0.625a0.1949 0.1949 0 0 1 -0.03125 0l-0.033 0.031-0.374 0.625h0.03125l-0.03125 0.0625-0.28125 0.625v0.28125l0.21875 0.125 0.28125-0.125 0.03125-0.0625 0.25-0.5625a0.1949 0.1949 0 0 1 0.03125 -0.03125 0.1949 0.1949 0 0 1 0.03125 0l0.03125-0.03125 0.3125-0.5625a0.1949 0.1949 0 0 1 0 -0.03125 0.1949 0.1949 0 0 1 0.03125 0v-0.03125l0.40625-0.53125a0.1949 0.1949 0 0 1 0.03125 0v-0.03125l0.46875-0.46875a0.1949 0.1949 0 0 1 0 -0.03125 0.1949 0.1949 0 0 1 0.03125 -0.03125 0.1949 0.1949 0 0 1 0.03125 0 0.1949 0.1949 0 0 1 0 -0.03125h0.03125l0.46875-0.46875h0.03125a0.1949 0.1949 0 0 1 0 -0.03125l0.53125-0.40625h0.03125a0.1949 0.1949 0 0 1 0.03125 -0.03125l0.5625-0.3125 0.03-0.032a0.1949 0.1949 0 0 1 0.0625 -0.0625l0.5625-0.21875c0.02063-0.01354 0.01444-0.01822 0.03125-0.03125 0.10328-0.08006 0.14581-0.16503 0.15625-0.21875 0.01214-0.06247-0.01479-0.12428-0.0625-0.1875s-0.1107-0.13087-0.1875-0.15625-0.14368-0.0236-0.1875 0z"/>
    <rect id="rect3138" style="color:#000000;fill:url(#linearGradient3933)" rx="1" ry="1" height="6" width="24" y="38" x="36"/>
    <path id="rect3148" style="opacity:.3;color:#000000;fill:#fff" d="m37 38c-0.554 0-1 0.446-1 1v1c0-0.554 0.446-1 1-1h22c0.554 0 1 0.446 1 1v-1c0-0.554-0.446-1-1-1h-22z"/>
    <path id="rect3921" style="opacity:.15;color:#000000;fill:#a05a2c" d="m36 42v1c0 0.554 0.446 1 1 1h22c0.554 0 1-0.446 1-1v-1c0 0.554-0.446 1-1 1h-22c-0.554 0-1-0.446-1-1z"/>
    <rect id="rect3939" style="color:#000000;fill:url(#linearGradient3945)" rx="1" ry="1" height="6" width="24" y="44" x="36"/>
    <path id="path3941" style="opacity:.3;color:#000000;fill:#fff" d="m37 44c-0.554 0-1 0.446-1 1v1c0-0.554 0.446-1 1-1h22c0.554 0 1 0.446 1 1v-1c0-0.554-0.446-1-1-1h-22z"/>
    <path id="path3943" style="opacity:.15;color:#000000;fill:#a05a2c" d="m36 48v1c0 0.554 0.446 1 1 1h22c0.554 0 1-0.446 1-1v-1c0 0.554-0.446 1-1 1h-22c-0.554 0-1-0.446-1-1z"/>
    <rect id="rect3947" style="color:#000000;fill:url(#linearGradient3954)" rx="1" ry="1" height="6" width="24" y="50" x="36"/>
    <path id="path3949" style="opacity:.3;color:#000000;fill:#fff" d="m37 50c-0.554 0-1 0.446-1 1v1c0-0.554 0.446-1 1-1h22c0.554 0 1 0.446 1 1v-1c0-0.554-0.446-1-1-1h-22z"/>
    <path id="path3952" style="opacity:.15;color:#000000;fill:#a05a2c" d="m36 54v1c0 0.554 0.446 1 1 1h22c0.554 0 1-0.446 1-1v-1c0 0.554-0.446 1-1 1h-22c-0.554 0-1-0.446-1-1z"/>
   </g>
  </g>
  <rect id="rect3003" style="opacity:.15;fill:#fff" clip-path="url(#clipPath3009)" rx="25" ry="25" transform="translate(98 3.8281e-7)" width="92" y="958.36" x="-96" height="92"/>
 </g>
</svg>
