<?xml version="1.0" encoding="UTF-8" standalone="no"?>
<!-- Created with Inkscape (http://www.inkscape.org/) -->
<svg id="svg11037" xmlns:rdf="http://www.w3.org/1999/02/22-rdf-syntax-ns#" xmlns="http://www.w3.org/2000/svg" height="96" width="96" version="1.1" xmlns:cc="http://creativecommons.org/ns#" xmlns:xlink="http://www.w3.org/1999/xlink" xmlns:dc="http://purl.org/dc/elements/1.1/">
 <defs id="defs11039">
  <clipPath id="clipPath3009" clipPathUnits="userSpaceOnUse">
   <path id="path3011" style="opacity:.15;fill:#fff" d="m-2 956.36h-96v33.562l96 25.687v-59.25z"/>
  </clipPath>
  <linearGradient id="linearGradient3045-8" x1="11.999" gradientUnits="userSpaceOnUse" y1="5.5317" gradientTransform="matrix(2.7659 0 0 3.254 10 11)" x2="11.999" y2="21.205">
   <stop id="stop3639-45" style="stop-color:#f0f0f0" offset="0"/>
   <stop id="stop3641-00" style="stop-color:#aaa" offset="1"/>
  </linearGradient>
 </defs>
 <metadata id="metadata11042">
  <rdf:RDF>
   <cc:Work rdf:about="">
    <dc:format>image/svg+xml</dc:format>
    <dc:type rdf:resource="http://purl.org/dc/dcmitype/StillImage"/>
    <dc:title/>
   </cc:Work>
  </rdf:RDF>
 </metadata>
 <g id="layer1" transform="translate(0 -956.36)">
  <rect id="rect3867" style="opacity:.6" rx="25" ry="25" height="92" width="92" y="958.36" x="2"/>
  <g id="g3070" transform="translate(0 956.36)">
   <path id="path3903" style="opacity:.3" d="m52.5 29c-2.493 0-4.054 2.0472-4.5 4.5v5.5h-21.5c-2.493 0-4.5 2.007-4.5 4.5v11.5h6v-8h12v8h8v10h26v-31.5c0-2.493-2.007-4.5-4.5-4.5zm1.5 6h14v4h-14zm-24 14v8h-8v8h8v8h8v-8h8v-8h-8v-8z"/>
   <path id="path3643" style="fill:url(#linearGradient3045-8)" d="m52.5 28c-2.493 0-4.054 2.0472-4.5 4.5v5.5h-21.5c-2.493 0-4.5 2.007-4.5 4.5v11.5h6v-8h12v8h8v10h26v-31.5c0-2.493-2.007-4.5-4.5-4.5zm1.5 6h14v4h-14zm-24 14v8h-8v8h8v8h8v-8h8v-8h-8v-8z"/>
   <path id="path3885" style="opacity:.75;fill:#fff" d="m52.5 28c-2.493 0-4.054 2.0472-4.5 4.5v1c0.446-2.453 2.007-4.5 4.5-4.5h17c2.493 0 4.5 2.007 4.5 4.5v-1c0-2.493-2.007-4.5-4.5-4.5h-17zm-26 10c-2.493 0-4.5 2.007-4.5 4.5v1c0-2.493 2.007-4.5 4.5-4.5h21.5v-1h-21.5zm27.5 0v1h14v-1h-14zm-24 10v1h8v-1h-8zm-8 8v1h8v-1h-8zm16 0v1h8v-1h-8z"/>
   <path id="path3894" style="opacity:.15" d="m54 33v1h14v-1h-14zm-26 12v1h12v-1h-12zm-6 8v1h6v-1h-6zm18 0v1h8v-1h-8zm-18 10v1h8v-1h-8zm16 0v1h8v-1h-8zm10 0v1h26v-1h-26zm-18 8v1h8v-1h-8z"/>
  </g>
  <rect id="rect3003" style="opacity:.15;fill:#fff" clip-path="url(#clipPath3009)" rx="25" ry="25" transform="translate(98 -.0000026172)" width="92" y="958.36" x="-96" height="92"/>
 </g>
</svg>
