<?xml version="1.0" encoding="UTF-8" standalone="no"?>
<!-- Created with Inkscape (http://www.inkscape.org/) -->
<svg id="svg11037" xmlns:rdf="http://www.w3.org/1999/02/22-rdf-syntax-ns#" xmlns="http://www.w3.org/2000/svg" height="96" width="96" version="1.1" xmlns:cc="http://creativecommons.org/ns#" xmlns:xlink="http://www.w3.org/1999/xlink" xmlns:dc="http://purl.org/dc/elements/1.1/">
 <defs id="defs11039">
  <clipPath id="clipPath3009" clipPathUnits="userSpaceOnUse">
   <path id="path3011" style="opacity:.15;fill:#fff" d="m-2 956.36h-96v33.562l96 25.687v-59.25z"/>
  </clipPath>
  <linearGradient id="linearGradient3133" x1="11.999" gradientUnits="userSpaceOnUse" y1="5.5317" gradientTransform="matrix(2.7659 0 0 3.254 10 10)" x2="11.999" y2="20.283">
   <stop id="stop3639-93" style="stop-color:#f0f0f0" offset="0"/>
   <stop id="stop3641-45" style="stop-color:#aaa" offset="1"/>
  </linearGradient>
 </defs>
 <metadata id="metadata11042">
  <rdf:RDF>
   <cc:Work rdf:about="">
    <dc:format>image/svg+xml</dc:format>
    <dc:type rdf:resource="http://purl.org/dc/dcmitype/StillImage"/>
    <dc:title/>
   </cc:Work>
  </rdf:RDF>
 </metadata>
 <g id="layer1" transform="translate(0 -956.36)">
  <rect id="rect3867" style="opacity:.6" rx="25" ry="25" height="92" width="92" y="958.36" x="2"/>
  <g id="g3070" transform="translate(0 956.36)">
   <path id="path3922" style="opacity:.3" d="m34.062 25a2.5208 2.5201 0 0 0 -2.062 2.531v13.219a2.5208 2.5201 0 0 0 0.75 1.7812l23.719 23.719a2.5208 2.5201 0 0 0 3.5625 0l13.218-13.219a2.5208 2.5201 0 0 0 0 -3.5625l-23.719-23.718a2.5208 2.5201 0 0 0 -1.781 -0.75h-13.219a2.5208 2.5201 0 0 0 -0.469 0zm8.438 6c2.486 0 4.5 2.015 4.5 4.5s-2.014 4.5-4.5 4.5-4.5-2.015-4.5-4.5 2.014-4.5 4.5-4.5zm-12.5 22v8h-8v8h8v8h8v-8h8v-8h-8v-8h-8z"/>
   <path id="path3102" style="fill:url(#linearGradient3133)" d="m34.062 24a2.5208 2.5201 0 0 0 -2.062 2.531v13.219a2.5208 2.5201 0 0 0 0.75 1.7812l23.719 23.719a2.5208 2.5201 0 0 0 3.5625 0l13.218-13.219a2.5208 2.5201 0 0 0 0 -3.5625l-23.719-23.718a2.5208 2.5201 0 0 0 -1.781 -0.75h-13.219a2.5208 2.5201 0 0 0 -0.469 0zm8.438 6c2.486 0 4.5 2.015 4.5 4.5s-2.014 4.5-4.5 4.5-4.5-2.015-4.5-4.5 2.014-4.5 4.5-4.5zm-12.5 22v8h-8v8h8v8h8v-8h8v-8h-8v-8h-8z"/>
   <path id="path3136" style="opacity:.75;fill:#fff" d="m34.062 24a2.5208 2.5201 0 0 0 -2.062 2.531v0.719a2.5208 2.5201 0 0 1 2.062 -2.25 2.5208 2.5201 0 0 1 0.469 0h13.219a2.5208 2.5201 0 0 1 1.7812 0.75l23.719 23.719a2.5208 2.5201 0 0 1 0.6875 1.25 2.5208 2.5201 0 0 0 -0.6875 -2.25l-23.719-23.719a2.5208 2.5201 0 0 0 -1.781 -0.75h-13.219a2.5208 2.5201 0 0 0 -0.46875 0zm4 11c-0.018 0.167-0.062 0.328-0.062 0.5 0 2.485 2.014 4.5 4.5 4.5s4.5-2.015 4.5-4.5c0-0.172-0.044-0.333-0.062-0.5-0.253 2.246-2.124 4-4.438 4s-4.185-1.754-4.438-4zm-8.062 17v1h8v-1h-8zm-8 8v1h8v-1h-8zm16 0v1h8v-1h-8z"/>
   <path id="path3913" style="opacity:.15" d="m42.5 29c-2.486 0-4.5 2.0146-4.5 4.5 0 0.17178 0.04377 0.33322 0.0625 0.5 0.25231-2.2462 2.1233-4 4.4375-4s4.1852 1.7538 4.4375 4c0.018-0.167 0.062-0.328 0.062-0.5 0-2.485-2.014-4.5-4.5-4.5zm-10.5 10v0.75a2.5208 2.5201 0 0 0 0.75 1.7812l23.719 23.719a2.5208 2.5201 0 0 0 3.5625 0l13.218-13.219a2.5208 2.5201 0 0 0 0.6875 -2.3125 2.5208 2.5201 0 0 1 -0.6875 1.3125l-13.219 13.219a2.5208 2.5201 0 0 1 -3.5625 0l-23.718-23.719a2.5208 2.5201 0 0 1 -0.75 -1.531zm-10 28v1h8v-1h-8zm16 0v1h8v-1h-8zm-8 8v1h8v-1h-8z"/>
  </g>
  <rect id="rect3003" style="opacity:.15;fill:#fff" clip-path="url(#clipPath3009)" rx="25" ry="25" transform="translate(98 -.0000026172)" width="92" y="958.36" x="-96" height="92"/>
 </g>
</svg>
