<?xml version="1.0" encoding="UTF-8" standalone="no"?>
<!-- Created with Inkscape (http://www.inkscape.org/) -->
<svg id="svg11037" xmlns:rdf="http://www.w3.org/1999/02/22-rdf-syntax-ns#" xmlns="http://www.w3.org/2000/svg" height="96" width="96" version="1.1" xmlns:cc="http://creativecommons.org/ns#" xmlns:xlink="http://www.w3.org/1999/xlink" xmlns:dc="http://purl.org/dc/elements/1.1/">
 <defs id="defs11039">
  <clipPath id="clipPath3009" clipPathUnits="userSpaceOnUse">
   <path id="path3011" style="opacity:.15;fill:#fff" d="m-2 956.36h-96v33.562l96 25.687v-59.25z"/>
  </clipPath>
  <linearGradient id="linearGradient3201" x1="56" gradientUnits="userSpaceOnUse" y1="-26" gradientTransform="matrix(1,0,0,-1,0,50)" x2="56" y2="30">
   <stop id="stop4083-9" style="stop-color:#aaa" offset="0"/>
   <stop id="stop4085-86" style="stop-color:#f0f0f0" offset="1"/>
  </linearGradient>
 </defs>
 <metadata id="metadata11042">
  <rdf:RDF>
   <cc:Work rdf:about="">
    <dc:format>image/svg+xml</dc:format>
    <dc:type rdf:resource="http://purl.org/dc/dcmitype/StillImage"/>
    <dc:title/>
   </cc:Work>
  </rdf:RDF>
 </metadata>
 <g id="layer1" transform="translate(0 -956.36)">
  <rect id="rect3867" style="opacity:.6" rx="25" ry="25" height="92" width="92" y="958.36" x="2"/>
  <g id="g3050" transform="translate(0 956.36)">
   <path id="path3989" style="opacity:.3" d="m39 21 9 12 9-12h-18zm-0.594 16c-1.329 0-2.406 1.077-2.406 2.406v21.594h24v-21.594c0-1.329-1.077-2.406-2.406-2.406h-19.188zm10.594 2c0.554 0 1 0.446 1 1s-0.446 1-1 1-1-0.446-1-1 0.446-1 1-1zm4 0c0.554 0 1 0.446 1 1s-0.446 1-1 1-1-0.446-1-1 0.446-1 1-1zm4 0c0.554 0 1 0.446 1 1s-0.446 1-1 1-1-0.446-1-1 0.446-1 1-1zm-37 1v18l12-9-12-9zm56 0-12 9 12 9v-18zm-35.906 3h15.906v13.969h-15.906v-13.969zm7.906 22-9 12h18l-9-12z"/>
   <path id="path2887" style="fill:url(#linearGradient3201)" d="m39 20 9 12 9-12h-18zm-0.594 16c-1.329 0-2.406 1.077-2.406 2.406v21.594h24v-21.594c0-1.329-1.077-2.406-2.406-2.406h-19.188zm10.594 2c0.554 0 1 0.446 1 1s-0.446 1-1 1-1-0.446-1-1 0.446-1 1-1zm4 0c0.554 0 1 0.446 1 1s-0.446 1-1 1-1-0.446-1-1 0.446-1 1-1zm4 0c0.554 0 1 0.446 1 1s-0.446 1-1 1-1-0.446-1-1 0.446-1 1-1zm-37 1v18l12-9-12-9zm56 0-12 9 12 9v-18zm-35.906 3h15.906v13.969h-15.906v-13.969zm7.906 22-9 12h18l-9-12z"/>
   <path id="path3203" style="opacity:.75;fill:#fff" d="m39 20 0.75 1h16.5l0.75-1h-18zm-0.594 16c-1.329 0-2.406 1.077-2.406 2.406v1c0-1.329 1.077-2.406 2.406-2.406h19.188c1.329 0 2.406 1.077 2.406 2.406v-1c0-1.329-1.077-2.406-2.406-2.406h-19.188zm-18.406 3v1l11.344 8.5 0.656-0.5-12-9zm56 0-12 9 0.65625 0.5l11.344-8.5v-1zm-27.844 0.5c-0.089 0.15-0.156 0.312-0.156 0.5 0 0.554 0.446 1 1 1s1-0.446 1-1c0-0.1879-0.06682-0.35014-0.15625-0.5-0.174 0.292-0.478 0.5-0.844 0.5s-0.67-0.208-0.844-0.5zm4 0c-0.089 0.15-0.156 0.312-0.156 0.5 0 0.554 0.446 1 1 1s1-0.446 1-1c0-0.1879-0.06682-0.35014-0.15625-0.5-0.174 0.292-0.478 0.5-0.844 0.5s-0.67-0.208-0.844-0.5zm4 0c-0.089 0.15-0.156 0.312-0.156 0.5 0 0.554 0.446 1 1 1s1-0.446 1-1c0-0.1879-0.06682-0.35014-0.15625-0.5-0.174 0.292-0.478 0.5-0.844 0.5s-0.67-0.208-0.844-0.5zm-16.062 16.469v1h15.906v-1h-15.906zm7.906 8.031-9 12h0.75l8.25-11 8.25 11h0.75l-9-12z"/>
   <path id="path3980" style="opacity:.15" d="m39 20 9 12 9-12h-0.75l-8.25 11-8.25-11h-0.75zm10 17c-0.554 0-1 0.446-1 1 0 0.1879 0.06682 0.35014 0.15625 0.5 0.174-0.292 0.478-0.5 0.844-0.5 0.3661 0 0.66952 0.20801 0.84375 0.5 0.089-0.15 0.156-0.312 0.156-0.5 0-0.554-0.446-1-1-1zm4 0c-0.554 0-1 0.446-1 1 0 0.1879 0.06682 0.35014 0.15625 0.5 0.174-0.292 0.478-0.5 0.844-0.5 0.3661 0 0.66952 0.20801 0.84375 0.5 0.089-0.15 0.156-0.312 0.156-0.5 0-0.554-0.446-1-1-1zm4 0c-0.554 0-1 0.446-1 1 0 0.1879 0.06682 0.35014 0.15625 0.5 0.174-0.292 0.478-0.5 0.844-0.5 0.3661 0 0.66952 0.20801 0.84375 0.5 0.089-0.15 0.156-0.312 0.156-0.5 0-0.554-0.446-1-1-1zm-16.906 4v1h15.906v-1h-15.906zm-8.75 6.5l-11.344 8.5v1l12-9-0.65625-0.5zm33.312 0l-0.656 0.5 12 9v-1l-11.344-8.5zm-28.656 11.5v1h24v-1h-24zm3.75 16-0.75 1h18l-0.75-1h-16.5z"/>
  </g>
  <rect id="rect3003" style="opacity:.15;fill:#fff" clip-path="url(#clipPath3009)" rx="25" ry="25" transform="translate(98 -.0000026172)" width="92" y="958.36" x="-96" height="92"/>
 </g>
</svg>
