<?xml version="1.0" encoding="UTF-8" standalone="no"?>
<!-- Created with Inkscape (http://www.inkscape.org/) -->
<svg id="svg11037" xmlns:rdf="http://www.w3.org/1999/02/22-rdf-syntax-ns#" xmlns="http://www.w3.org/2000/svg" height="96" width="96" version="1.1" xmlns:cc="http://creativecommons.org/ns#" xmlns:xlink="http://www.w3.org/1999/xlink" xmlns:dc="http://purl.org/dc/elements/1.1/">
 <defs id="defs11039">
  <clipPath id="clipPath3009" clipPathUnits="userSpaceOnUse">
   <path id="path3011" style="opacity:.15;fill:#fff" d="m-2 956.36h-96v33.562l96 25.687v-59.25z"/>
  </clipPath>
  <linearGradient id="linearGradient3984-3" x1="49" gradientUnits="userSpaceOnUse" y1="57" gradientTransform="matrix(1.3333 0 0 1.3333 -8 -6)" x2="49" y2="23.729">
   <stop id="stop4083-02" style="stop-color:#aaa" offset="0"/>
   <stop id="stop4085-17" style="stop-color:#f0f0f0" offset="1"/>
  </linearGradient>
 </defs>
 <metadata id="metadata11042">
  <rdf:RDF>
   <cc:Work rdf:about="">
    <dc:format>image/svg+xml</dc:format>
    <dc:type rdf:resource="http://purl.org/dc/dcmitype/StillImage"/>
    <dc:title/>
   </cc:Work>
  </rdf:RDF>
 </metadata>
 <g id="layer1" transform="translate(0 -956.36)">
  <rect id="rect3867" style="opacity:.6" rx="25" ry="25" height="92" width="92" y="958.36" x="2"/>
  <g id="g3053" transform="translate(0 956.36)">
   <path id="path4004" style="opacity:.3" d="m24 27v8h8v-8h-8zm2 2h4v4h-4v-4zm10 0v4h36v-4h-36zm-12 10v8h8v-8h-8zm2 2h4v4h-4v-4zm10 0v4h36v-4h-36zm-12 10v8h8v-8h-8zm2 2h4v4h-4v-4zm10 0v4h36v-4h-36zm-12 10v8h8v-8h-8zm2 2h4v4h-4v-4zm10 0v4h36v-4h-36z"/>
   <path id="path3948" style="fill:url(#linearGradient3984-3)" d="m24 26v8h8v-8h-8zm2 2h4v4h-4v-4zm10 0v4h36v-4h-36zm-12 10v8h8v-8h-8zm2 2h4v4h-4v-4zm10 0v4h36v-4h-36zm-12 10v8h8v-8h-8zm2 2h4v4h-4v-4zm10 0v4h36v-4h-36zm-12 10v8h8v-8h-8zm2 2h4v4h-4v-4zm10 0v4h36v-4h-36z"/>
   <path id="path3986" style="opacity:.75;fill:#fff" d="m24 26v1h8v-1h-8zm12 2v1h36v-1h-36zm-10 4v1h4v-1h-4zm-2 6v1h8v-1h-8zm12 2v1h36v-1h-36zm-10 4v1h4v-1h-4zm-2 6v1h8v-1h-8zm12 2v1h36v-1h-36zm-10 4v1h4v-1h-4zm-2 6v1h8v-1h-8zm12 2v1h36v-1h-36zm-10 4v1h4v-1h-4z"/>
   <path id="path3995" style="opacity:.15" d="m26 27v1h4v-1h-4zm10 4v1h36v-1h-36zm-12 2v1h8v-1h-8zm2 6v1h4v-1h-4zm10 4v1h36v-1h-36zm-12 2v1h8v-1h-8zm2 6v1h4v-1h-4zm10 4v1h36v-1h-36zm-12 2v1h8v-1h-8zm2 6v1h4v-1h-4zm10 4v1h36v-1h-36zm-12 2v1h8v-1h-8z"/>
  </g>
  <rect id="rect3003" style="opacity:.15;fill:#fff" clip-path="url(#clipPath3009)" rx="25" ry="25" transform="translate(98 -.0000026172)" width="92" y="958.36" x="-96" height="92"/>
 </g>
</svg>
