<?xml version="1.0" encoding="UTF-8" standalone="no"?>
<!-- Created with Inkscape (http://www.inkscape.org/) -->
<svg id="svg11037" xmlns:rdf="http://www.w3.org/1999/02/22-rdf-syntax-ns#" xmlns="http://www.w3.org/2000/svg" height="96" width="96" version="1.1" xmlns:cc="http://creativecommons.org/ns#" xmlns:xlink="http://www.w3.org/1999/xlink" xmlns:dc="http://purl.org/dc/elements/1.1/">
 <defs id="defs11039">
  <clipPath id="clipPath3009" clipPathUnits="userSpaceOnUse">
   <path id="path3011" style="opacity:.15;fill:#fff" d="m-2 956.36h-96v33.562l96 25.687v-59.25z"/>
  </clipPath>
  <linearGradient id="linearGradient3895-1" x1="13.262" gradientUnits="userSpaceOnUse" y1="6.7861" gradientTransform="matrix(0 -3.7701 2.9472 0 22.667 72)" x2="-.53049" y2="6.7861">
   <stop id="stop3639-41" style="stop-color:#f0f0f0" offset="0"/>
   <stop id="stop3641-92" style="stop-color:#aaa" offset="1"/>
  </linearGradient>
 </defs>
 <metadata id="metadata11042">
  <rdf:RDF>
   <cc:Work rdf:about="">
    <dc:format>image/svg+xml</dc:format>
    <dc:type rdf:resource="http://purl.org/dc/dcmitype/StillImage"/>
    <dc:title/>
   </cc:Work>
  </rdf:RDF>
 </metadata>
 <g id="layer1" transform="translate(0 -956.36)">
  <rect id="rect3867" style="opacity:.6" rx="25" ry="25" height="92" width="92" y="958.36" x="2"/>
  <g id="g3070" transform="translate(0 956.36)">
   <path id="path3915" style="opacity:.3" d="m31 23c-2.7614 0-5 2.2386-5 5s2.2386 5 5 5 5-2.2386 5-5-2.2386-5-5-5zm20.906 0v15.812h-7.906l13.688 18.188 13.312-18.188h-8v-15.812h-11.094zm-20.906 14c-2.7614 0-5 2.2386-5 5s2.2386 5 5 5 5-2.2386 5-5-2.2386-5-5-5zm0 14c-2.7614 0-5 2.2386-5 5s2.2386 5 5 5 5-2.2386 5-5-2.2386-5-5-5zm0 14c-2.7614 0-5 2.2386-5 5s2.2386 5 5 5 5-2.2386 5-5-2.2386-5-5-5z"/>
   <path id="path3108" style="fill:url(#linearGradient3895-1)" d="m31 22c-2.7614 0-5 2.2386-5 5s2.2386 5 5 5 5-2.2386 5-5-2.2386-5-5-5zm20.906 0v15.812h-7.906l13.688 18.188 13.312-18.188h-8v-15.812h-11.094zm-20.906 14c-2.7614 0-5 2.2386-5 5s2.2386 5 5 5 5-2.2386 5-5-2.2386-5-5-5zm0 14c-2.7614 0-5 2.2386-5 5s2.2386 5 5 5 5-2.2386 5-5-2.2386-5-5-5zm0 14c-2.7614 0-5 2.2386-5 5s2.2386 5 5 5 5-2.2386 5-5-2.2386-5-5-5z"/>
   <path id="path3897" style="opacity:.75;fill:#fff" d="m31 22c-2.7614 0-5 2.2386-5 5 0 0.17259 0.01418 0.33192 0.03125 0.5 0.256-2.521 2.38-4.5 4.969-4.5 2.5888 0 4.7127 1.9787 4.9688 4.5 0.017-0.168 0.031-0.327 0.031-0.5 0-2.761-2.239-5-5-5zm20.906 0v1h11.094v-1h-11.094zm-20.906 14c-2.7614 0-5 2.2386-5 5 0 0.17259 0.01418 0.33192 0.03125 0.5 0.256-2.521 2.38-4.5 4.969-4.5 2.5888 0 4.7127 1.9787 4.9688 4.5 0.017-0.168 0.031-0.327 0.031-0.5 0-2.761-2.239-5-5-5zm13 1.8125 0.75 1h7.1562v-1h-7.9062zm19 0v1h7.2812l0.71875-1h-8zm-32 12.188c-2.7614 0-5 2.2386-5 5 0 0.17259 0.01418 0.33192 0.03125 0.5 0.256-2.521 2.38-4.5 4.969-4.5 2.5888 0 4.7127 1.9787 4.9688 4.5 0.017-0.168 0.031-0.327 0.031-0.5 0-2.761-2.239-5-5-5zm0 14c-2.7614 0-5 2.2386-5 5 0 0.17259 0.01418 0.33192 0.03125 0.5 0.256-2.521 2.38-4.5 4.969-4.5 2.5888 0 4.7127 1.9787 4.9688 4.5 0.017-0.168 0.031-0.327 0.031-0.5 0-2.761-2.239-5-5-5z"/>
   <path id="path3906" style="opacity:.15" d="m26.031 26.5c-0.017 0.168-0.031 0.327-0.031 0.5 0 2.7614 2.2386 5 5 5s5-2.2386 5-5c0-0.17259-0.01418-0.33192-0.03125-0.5-0.256 2.521-2.38 4.5-4.969 4.5s-4.713-1.979-4.969-4.5zm17.969 11.312 13.688 18.188 13.312-18.188h-0.71875l-12.593 17.188-12.938-17.188h-0.75zm-17.969 2.688c-0.017 0.168-0.031 0.327-0.031 0.5 0 2.7614 2.2386 5 5 5s5-2.2386 5-5c0-0.17259-0.01418-0.33192-0.03125-0.5-0.256 2.521-2.38 4.5-4.969 4.5s-4.713-1.979-4.969-4.5zm0 14c-0.017 0.168-0.031 0.327-0.031 0.5 0 2.7614 2.2386 5 5 5s5-2.2386 5-5c0-0.17259-0.01418-0.33192-0.03125-0.5-0.256 2.521-2.38 4.5-4.969 4.5s-4.713-1.979-4.969-4.5zm0 14c-0.017 0.168-0.031 0.327-0.031 0.5 0 2.7614 2.2386 5 5 5s5-2.2386 5-5c0-0.17259-0.01418-0.33192-0.03125-0.5-0.256 2.521-2.38 4.5-4.969 4.5s-4.713-1.979-4.969-4.5z"/>
  </g>
  <rect id="rect3003" style="opacity:.15;fill:#fff" clip-path="url(#clipPath3009)" rx="25" ry="25" transform="translate(98 -.0000026172)" width="92" y="958.36" x="-96" height="92"/>
 </g>
</svg>
