<?xml version="1.0" encoding="UTF-8" standalone="no"?>
<!-- Created with Inkscape (http://www.inkscape.org/) -->
<svg id="svg11037" xmlns:rdf="http://www.w3.org/1999/02/22-rdf-syntax-ns#" xmlns="http://www.w3.org/2000/svg" height="96" width="96" version="1.1" xmlns:cc="http://creativecommons.org/ns#" xmlns:xlink="http://www.w3.org/1999/xlink" xmlns:dc="http://purl.org/dc/elements/1.1/">
 <defs id="defs11039">
  <clipPath id="clipPath3009" clipPathUnits="userSpaceOnUse">
   <path id="path3011" style="opacity:.15;fill:#fff" d="m-2 956.36h-96v33.562l96 25.687v-59.25z"/>
  </clipPath>
  <linearGradient id="linearGradient3960" x1="13.262" gradientUnits="userSpaceOnUse" y1="6.7861" gradientTransform="matrix(0 -3.7701 2.9472 0 22.667 72)" x2="-.53049" y2="6.7861">
   <stop id="stop3639-091" style="stop-color:#f0f0f0" offset="0"/>
   <stop id="stop3641-34" style="stop-color:#aaa" offset="1"/>
  </linearGradient>
 </defs>
 <metadata id="metadata11042">
  <rdf:RDF>
   <cc:Work rdf:about="">
    <dc:format>image/svg+xml</dc:format>
    <dc:type rdf:resource="http://purl.org/dc/dcmitype/StillImage"/>
    <dc:title/>
   </cc:Work>
  </rdf:RDF>
 </metadata>
 <g id="layer1" transform="translate(0 -956.36)">
  <rect id="rect3867" style="opacity:.6" rx="25" ry="25" height="92" width="92" y="958.36" x="2"/>
  <g id="g3070" transform="translate(0 956.36)">
   <path id="path3981" style="opacity:.3" d="m31 23c-2.7614 0-5 2.2386-5 5s2.2386 5 5 5 5-2.2386 5-5-2.2386-5-5-5zm0 14c-2.7614 0-5 2.2386-5 5s2.2386 5 5 5 5-2.2386 5-5-2.2386-5-5-5zm26.688 4-13.688 18.188h7.9062v15.812h11.094v-15.812h8l-13.312-18.188zm-26.688 10c-2.7614 0-5 2.2386-5 5s2.2386 5 5 5 5-2.2386 5-5-2.2386-5-5-5zm0 14c-2.7614 0-5 2.2386-5 5s2.2386 5 5 5 5-2.2386 5-5-2.2386-5-5-5z"/>
   <path id="path3956" style="fill:url(#linearGradient3960)" d="m31 22c-2.7614 0-5 2.2386-5 5s2.2386 5 5 5 5-2.2386 5-5-2.2386-5-5-5zm0 14c-2.7614 0-5 2.2386-5 5s2.2386 5 5 5 5-2.2386 5-5-2.2386-5-5-5zm26.688 4-13.688 18.188h7.9062v15.812h11.094v-15.812h8l-13.312-18.188zm-26.688 10c-2.7614 0-5 2.2386-5 5s2.2386 5 5 5 5-2.2386 5-5-2.2386-5-5-5zm0 14c-2.7614 0-5 2.2386-5 5s2.2386 5 5 5 5-2.2386 5-5-2.2386-5-5-5z"/>
   <path id="path3963" style="opacity:.75;fill:#fff" d="m31 22c-2.7614 0-5 2.2386-5 5 0 0.17259 0.01418 0.33192 0.03125 0.5 0.256-2.521 2.38-4.5 4.969-4.5 2.5888 0 4.7127 1.9787 4.9688 4.5 0.017-0.168 0.031-0.327 0.031-0.5 0-2.761-2.239-5-5-5zm0 14c-2.7614 0-5 2.2386-5 5 0 0.17259 0.01418 0.33192 0.03125 0.5 0.256-2.521 2.38-4.5 4.969-4.5 2.5888 0 4.7127 1.9787 4.9688 4.5 0.017-0.168 0.031-0.327 0.031-0.5 0-2.761-2.239-5-5-5zm26.688 4-13.688 18.188h0.75l12.938-17.188 12.593 17.188h0.719l-13.312-18.188zm-26.688 10c-2.7614 0-5 2.2386-5 5 0 0.17259 0.01418 0.33192 0.03125 0.5 0.256-2.521 2.38-4.5 4.969-4.5 2.5888 0 4.7127 1.9787 4.9688 4.5 0.017-0.168 0.031-0.327 0.031-0.5 0-2.761-2.239-5-5-5zm0 14c-2.7614 0-5 2.2386-5 5 0 0.17259 0.01418 0.33192 0.03125 0.5 0.256-2.521 2.38-4.5 4.969-4.5 2.5888 0 4.7127 1.9787 4.9688 4.5 0.017-0.168 0.031-0.327 0.031-0.5 0-2.761-2.239-5-5-5z"/>
   <path id="path3972" style="opacity:.15" d="m26.031 26.5c-0.017 0.168-0.031 0.327-0.031 0.5 0 2.7614 2.2386 5 5 5s5-2.2386 5-5c0-0.17259-0.01418-0.33192-0.03125-0.5-0.256 2.521-2.38 4.5-4.969 4.5s-4.713-1.979-4.969-4.5zm0 14c-0.017 0.168-0.031 0.327-0.031 0.5 0 2.7614 2.2386 5 5 5s5-2.2386 5-5c0-0.17259-0.01418-0.33192-0.03125-0.5-0.256 2.521-2.38 4.5-4.969 4.5s-4.713-1.979-4.969-4.5zm0 14c-0.017 0.168-0.031 0.327-0.031 0.5 0 2.7614 2.2386 5 5 5s5-2.2386 5-5c0-0.17259-0.01418-0.33192-0.03125-0.5-0.256 2.521-2.38 4.5-4.969 4.5s-4.713-1.979-4.969-4.5zm18.719 2.6875-0.75 1h7.9062v-1h-7.1562zm18.25 0v1h8l-0.71875-1h-7.2812zm-36.969 11.312c-0.017 0.168-0.031 0.327-0.031 0.5 0 2.7614 2.2386 5 5 5s5-2.2386 5-5c0-0.17259-0.01418-0.33192-0.03125-0.5-0.256 2.521-2.38 4.5-4.969 4.5s-4.713-1.979-4.969-4.5zm25.875 4.5v1h11.094v-1h-11.094z"/>
  </g>
  <rect id="rect3003" style="opacity:.15;fill:#fff" clip-path="url(#clipPath3009)" rx="25" ry="25" transform="translate(98 -.0000026172)" width="92" y="958.36" x="-96" height="92"/>
 </g>
</svg>
