<?xml version="1.0" encoding="UTF-8" standalone="no"?>
<!-- Created with Inkscape (http://www.inkscape.org/) -->
<svg id="svg11037" xmlns:rdf="http://www.w3.org/1999/02/22-rdf-syntax-ns#" xmlns="http://www.w3.org/2000/svg" height="96" width="96" version="1.1" xmlns:cc="http://creativecommons.org/ns#" xmlns:xlink="http://www.w3.org/1999/xlink" xmlns:dc="http://purl.org/dc/elements/1.1/">
 <defs id="defs11039">
  <clipPath id="clipPath3009" clipPathUnits="userSpaceOnUse">
   <path id="path3011" style="opacity:.15;fill:#fff" d="m-2 956.36h-96v33.562l96 25.687v-59.25z"/>
  </clipPath>
  <linearGradient id="linearGradient3015-3" x1="10.458" gradientUnits="userSpaceOnUse" y1="4.3967" gradientTransform="matrix(3.4919 0 0 3.0248 10.25 10.608)" x2="10.458" y2="19.29">
   <stop id="stop3639-32" style="stop-color:#f0f0f0" offset="0"/>
   <stop id="stop3641-16" style="stop-color:#aaa" offset="1"/>
  </linearGradient>
 </defs>
 <metadata id="metadata11042">
  <rdf:RDF>
   <cc:Work rdf:about="">
    <dc:format>image/svg+xml</dc:format>
    <dc:type rdf:resource="http://purl.org/dc/dcmitype/StillImage"/>
    <dc:title/>
   </cc:Work>
  </rdf:RDF>
 </metadata>
 <g id="layer1" transform="translate(0 -956.36)">
  <rect id="rect3867" style="opacity:.6" rx="25" ry="25" height="92" width="92" y="958.36" x="2"/>
  <g id="g3070" transform="translate(0 956.36)">
   <path id="path3884" style="opacity:.3" d="m20 46.022 11.261 16.868 11.261-16.868h-7.949c0.69246-7.6416 7.0799-13.58 14.904-13.58 8.2882 0.000003 14.987 6.6991 14.987 14.987 0 8.2882-6.6991 14.987-14.987 14.987v7.535c12.433 0.001 22.523-10.089 22.523-22.521 0-12.433-10.09-22.523-22.522-22.523-11.96-0.000003-21.713 9.3364-22.439 21.115h-7.0382z"/>
   <path id="Symbol" style="fill:url(#linearGradient3015-3)" d="m20 45.022 11.261 16.868 11.261-16.868h-7.949c0.69246-7.6416 7.0799-13.58 14.904-13.58 8.2882 0.000003 14.987 6.6991 14.987 14.987 0 8.2882-6.6991 14.987-14.987 14.987v7.535c12.433 0.001 22.523-10.089 22.523-22.521 0-12.433-10.09-22.523-22.522-22.523-11.96-0.000003-21.713 9.3364-22.439 21.115h-7.0382z"/>
   <path id="path3866" style="opacity:.75;fill:#fff" d="m49.469 23.906c-11.96-0.000003-21.711 9.3467-22.438 21.125h-7.0312l0.65625 1h6.375c0.72653-11.778 10.477-21.125 22.438-21.125 12.264 0 22.264 9.8306 22.531 22.031 0.0037-0.16701 0-0.33212 0-0.5 0.000003-12.432-10.099-22.531-22.531-22.531zm-14.75 21.125c-0.05291 0.33256-0.12547 0.66034-0.15625 1h7.3125l0.65625-1h-7.8125zm29.719 1.907c-0.26579 8.0534-6.8497 14.469-14.969 14.469v1c8.2882 0 15-6.6806 15-14.969 0-0.16916-0.02571-0.33221-0.03125-0.5z"/>
   <path id="path3875" style="opacity:.15" d="m49.469 30.438c-7.8246 0-14.214 5.9521-14.906 13.594h0.15625c1.1374-7.1493 7.2732-12.594 14.75-12.594 8.119 0.000003 14.703 6.4466 14.969 14.5 0.0055-0.16779 0.03125-0.33084 0.03125-0.5 0-8.2882-6.7118-15-15-15zm-29.469 14.593 11.25 16.844 11.281-16.844h-0.65625l-10.625 15.844-10.594-15.844h-0.656zm52 0.90625c-0.26743 12.201-10.267 22-22.531 22v1c12.432 0.001 22.531-10.067 22.531-22.499 0-0.16788 0.0037-0.33299 0-0.5z"/>
  </g>
  <rect id="rect3003" style="opacity:.15;fill:#fff" clip-path="url(#clipPath3009)" rx="25" ry="25" transform="translate(98 -.0000026172)" width="92" y="958.36" x="-96" height="92"/>
 </g>
</svg>
