<?xml version="1.0" encoding="UTF-8" standalone="no"?>
<!-- Created with Inkscape (http://www.inkscape.org/) -->
<svg id="svg11037" xmlns:rdf="http://www.w3.org/1999/02/22-rdf-syntax-ns#" xmlns="http://www.w3.org/2000/svg" height="96" width="96" version="1.1" xmlns:cc="http://creativecommons.org/ns#" xmlns:xlink="http://www.w3.org/1999/xlink" xmlns:dc="http://purl.org/dc/elements/1.1/">
 <defs id="defs11039">
  <clipPath id="clipPath3009" clipPathUnits="userSpaceOnUse">
   <path id="path3011" style="opacity:.15;fill:#fff" d="m-2 956.36h-96v33.562l96 25.687v-59.25z"/>
  </clipPath>
  <linearGradient id="linearGradient4122" x1="18.375" gradientUnits="userSpaceOnUse" y1="63" gradientTransform="matrix(1.7778 0 0 1.3333 25.333 -12)" x2="18.375" y2="27">
   <stop id="stop4083-53" style="stop-color:#aaa" offset="0"/>
   <stop id="stop4085-00" style="stop-color:#f0f0f0" offset="1"/>
  </linearGradient>
 </defs>
 <metadata id="metadata11042">
  <rdf:RDF>
   <cc:Work rdf:about="">
    <dc:format>image/svg+xml</dc:format>
    <dc:type rdf:resource="http://purl.org/dc/dcmitype/StillImage"/>
    <dc:title/>
   </cc:Work>
  </rdf:RDF>
 </metadata>
 <g id="layer1" transform="translate(0 -956.36)">
  <rect id="rect3867" style="opacity:.6" rx="25" ry="25" height="92" width="92" y="958.36" x="2"/>
  <g id="g3053" transform="translate(0 956.36)">
   <path id="path4142" style="opacity:.3" d="m24 25v20h20v-20zm28 0v20h20v-20zm-22 6h8v8h-8zm28 0h8v8h-8zm-34 22v20h20v-20zm28 0v20h20v-20zm-22 6h8v8h-8zm28 0h8v8h-8z"/>
   <path id="path4043" style="fill:url(#linearGradient4122)" d="m24 24v20h20v-20zm28 0v20h20v-20zm-22 6h8v8h-8zm28 0h8v8h-8zm-34 22v20h20v-20zm28 0v20h20v-20zm-22 6h8v8h-8zm28 0h8v8h-8z"/>
   <path id="path4124" style="opacity:.75;fill:#fff" d="m24 24v1h20v-1h-20zm28 0v1h20v-1h-20zm-22 14v1h8v-1h-8zm28 0v1h8v-1h-8zm-34 14v1h20v-1h-20zm28 0v1h20v-1h-20zm-22 14v1h8v-1h-8zm28 0v1h8v-1h-8z"/>
   <path id="path4133" style="opacity:.15" d="m30 29v1h8v-1h-8zm28 0v1h8v-1h-8zm-34 14v1h20v-1h-20zm28 0v1h20v-1h-20zm-22 14v1h8v-1h-8zm28 0v1h8v-1h-8zm-34 14v1h20v-1h-20zm28 0v1h20v-1h-20z"/>
  </g>
  <rect id="rect3003" style="opacity:.15;fill:#fff" clip-path="url(#clipPath3009)" rx="25" ry="25" transform="translate(98 -.0000026172)" width="92" y="958.36" x="-96" height="92"/>
 </g>
</svg>
