<?xml version="1.0" encoding="UTF-8" standalone="no"?>
<!-- Created with Inkscape (http://www.inkscape.org/) -->
<svg id="svg11037" xmlns:rdf="http://www.w3.org/1999/02/22-rdf-syntax-ns#" xmlns="http://www.w3.org/2000/svg" height="96" width="96" version="1.1" xmlns:cc="http://creativecommons.org/ns#" xmlns:xlink="http://www.w3.org/1999/xlink" xmlns:dc="http://purl.org/dc/elements/1.1/">
 <defs id="defs11039">
  <clipPath id="clipPath3009" clipPathUnits="userSpaceOnUse">
   <path id="path3011" style="opacity:.15;fill:#fff" d="m-2 956.36h-96v33.562l96 25.687v-59.25z"/>
  </clipPath>
  <linearGradient id="linearGradient3042-5" x1="11" gradientUnits="userSpaceOnUse" y1="2" gradientTransform="matrix(3.3103 0 0 3.3103 11.586 11.586)" x2="11" y2="20.028">
   <stop id="stop3639-07" style="stop-color:#f0f0f0" offset="0"/>
   <stop id="stop3641-33" style="stop-color:#aaa" offset="1"/>
  </linearGradient>
 </defs>
 <metadata id="metadata11042">
  <rdf:RDF>
   <cc:Work rdf:about="">
    <dc:format>image/svg+xml</dc:format>
    <dc:type rdf:resource="http://purl.org/dc/dcmitype/StillImage"/>
    <dc:title/>
   </cc:Work>
  </rdf:RDF>
 </metadata>
 <g id="layer1" transform="translate(0 -956.36)">
  <rect id="rect3867" style="opacity:.6" rx="25" ry="25" height="92" width="92" y="958.36" x="2"/>
  <g id="g3080" transform="translate(-4.6679e-7 956.36)">
   <path id="path3892" style="opacity:.15;color:#000000" d="m47.812 18a1.0065 1.0065 0 0 0 -0.812 0.844s-0.42056 2.5372-1.3438 5.2188c-0.46159 1.3408-1.0377 2.688-1.7188 3.75-0.68108 1.062-1.4561 1.7725-2.1562 2-0.70241 0.22823-1.7324 0.10998-2.9062-0.34375s-2.4656-1.194-3.625-2c-2.319-1.612-4.125-3.407-4.125-3.407a1.0065 1.0065 0 0 0 -1.625 1.157s1.1288 2.3047 1.9375 5c0.40435 1.3476 0.71521 2.7777 0.78125 4.0312 0.06604 1.2536-0.12737 2.2761-0.5625 2.875-0.4326 0.59542-1.342 1.1186-2.5625 1.4375-1.2205 0.31888-2.707 0.44502-4.125 0.46875-2.8359 0.04746-5.375-0.34375-5.375-0.34375a1.0065 1.0065 0 0 0 -0.625 1.9062s2.3136 1.1855 4.5938 2.9062c1.1401 0.86036 2.2572 1.8622 3.0625 2.8438 0.80529 0.98154 1.25 1.9223 1.25 2.6562 0 0.73398-0.44471 1.6747-1.25 2.6562-0.80529 0.98154-1.9224 1.9834-3.0625 2.8438-2.2802 1.7207-4.5938 2.9062-4.5938 2.9062a1.0065 1.0065 0 0 0 0.625 1.9062s2.5391-0.39121 5.375-0.34375c1.418 0.02373 2.9045 0.14987 4.125 0.46875s2.1299 0.84208 2.5625 1.4375c0.43513 0.5989 0.62854 1.6214 0.5625 2.875s-0.3769 2.6836-0.78125 4.0312c-0.8087 2.6953-1.9375 5-1.9375 5a1.0065 1.0065 0 0 0 1.625 1.1562s1.8061-1.7942 4.125-3.4062c1.1594-0.80605 2.4512-1.5463 3.625-2 1.1738-0.45373 2.2038-0.57198 2.9062-0.34375 0.70017 0.2275 1.4752 0.938 2.1562 2 0.68108 1.062 1.2572 2.4092 1.7188 3.75 0.923 2.682 1.344 5.219 1.344 5.219a1.0065 1.0065 0 0 0 2 0s0.42056-2.5372 1.3438-5.2188c0.46159-1.3408 1.0377-2.688 1.7188-3.75 0.68108-1.062 1.4561-1.7725 2.1562-2 0.70241-0.22823 1.7324-0.10998 2.9062 0.34375s2.4656 1.194 3.625 2c2.3189 1.6121 4.125 3.4062 4.125 3.4062a1.0065 1.0065 0 0 0 1.625 -1.156s-1.1288-2.3047-1.9375-5c-0.40435-1.3476-0.71521-2.7777-0.78125-4.0312-0.06604-1.2536 0.12737-2.2761 0.5625-2.875 0.4326-0.59542 1.342-1.1186 2.5625-1.4375 1.2205-0.31888 2.707-0.44502 4.125-0.46875 2.8359-0.04746 5.375 0.34375 5.375 0.34375a1.0065 1.0065 0 0 0 0.625 -1.9062s-2.3136-1.1855-4.5938-2.9062c-1.14-0.86-2.257-1.862-3.062-2.844-0.805-0.981-1.25-1.922-1.25-2.656 0-0.73398 0.44471-1.6747 1.25-2.6562 0.80529-0.98154 1.9224-1.9834 3.0625-2.8438 2.2802-1.7207 4.5938-2.9062 4.5938-2.9062a1.0065 1.0065 0 0 0 -0.625 -1.9062s-2.5391 0.39121-5.375 0.34375c-1.418-0.02373-2.9045-0.14987-4.125-0.46875s-2.1299-0.84208-2.5625-1.4375c-0.43513-0.5989-0.62854-1.6214-0.5625-2.875s0.3769-2.6836 0.78125-4.0312c0.8087-2.6953 1.9375-5 1.9375-5a1.0065 1.0065 0 0 0 -1.625 -1.157s-1.8061 1.7942-4.125 3.4062c-1.1594 0.80605-2.4512 1.5463-3.625 2-1.1738 0.45373-2.2038 0.57198-2.9062 0.34375-0.70017-0.2275-1.4752-0.938-2.1562-2-0.68108-1.062-1.2572-2.4092-1.7188-3.75-0.923-2.681-1.344-5.218-1.344-5.218a1.0065 1.0065 0 0 0 -1.188 -0.844zm0.188 18.75c6.7683 0 12.25 5.4817 12.25 12.25s-5.4817 12.25-12.25 12.25-12.25-5.4817-12.25-12.25 5.4817-12.25 12.25-12.25z"/>
   <path id="path3886" style="opacity:.3;color:#000000" d="m48 19s-1.7298 10.439-5.8966 11.793c-4.1667 1.3539-11.69-6-11.69-6s4.6441 9.3866 2.069 12.931c-2.5752 3.5444-13.034 1.9655-13.034 1.9655s9.4138 4.9292 9.4138 9.3103c0 4.3812-9.4138 9.3103-9.4138 9.3103s10.459-1.5789 13.034 1.9655c2.5752 3.5444-2.069 12.931-2.069 12.931s7.5229-7.3539 11.69-6c4.167 1.354 5.897 11.793 5.897 11.793s1.7298-10.439 5.8966-11.793c4.1667-1.3539 11.69 6 11.69 6s-4.6441-9.3866-2.069-12.931c2.5752-3.5444 13.034-1.9655 13.034-1.9655s-9.4138-4.9292-9.4138-9.3103c0-4.3812 9.4138-9.3103 9.4138-9.3103s-10.459 1.5789-13.034-1.9655c-2.5752-3.5444 2.069-12.931 2.069-12.931s-7.5229 7.3539-11.69 6c-4.167-1.354-5.897-11.793-5.897-11.793zm0 16.759c7.313 0 13.241 5.9284 13.241 13.241 0 7.313-5.9284 13.241-13.241 13.241-7.313 0-13.241-5.9284-13.241-13.241 0-7.313 5.9284-13.241 13.241-13.241z"/>
   <path id="path2880" style="color:#000000;fill:url(#linearGradient3042-5)" d="m48 18s-1.7298 10.439-5.8966 11.793c-4.1667 1.3539-11.69-6-11.69-6s4.6441 9.3866 2.069 12.931c-2.5752 3.5444-13.034 1.9655-13.034 1.9655s9.4138 4.9292 9.4138 9.3103c0 4.3812-9.4138 9.3103-9.4138 9.3103s10.459-1.5789 13.034 1.9655c2.5752 3.5444-2.069 12.931-2.069 12.931s7.5229-7.3539 11.69-6c4.167 1.354 5.897 11.793 5.897 11.793s1.7298-10.439 5.8966-11.793c4.1667-1.3539 11.69 6 11.69 6s-4.6441-9.3866-2.069-12.931c2.5752-3.5444 13.034-1.9655 13.034-1.9655s-9.4138-4.9292-9.4138-9.3103c0-4.3812 9.4138-9.3103 9.4138-9.3103s-10.459 1.5789-13.034-1.9655c-2.5752-3.5444 2.069-12.931 2.069-12.931s-7.5229 7.3539-11.69 6c-4.167-1.354-5.897-11.793-5.897-11.793zm0 16.759c7.313 0 13.241 5.9284 13.241 13.241 0 7.313-5.9284 13.241-13.241 13.241-7.313 0-13.241-5.9284-13.241-13.241 0-7.313 5.9284-13.241 13.241-13.241z"/>
   <path id="path3868" style="opacity:.75;color:#000000;fill:#fff" d="m48 18s-1.7395 10.427-5.9062 11.781c-4.1667 1.3539-11.688-6-11.688-6s0.33078 0.65527 0.75 1.6562c1.6953 1.5557 7.388 6.4971 10.938 5.3438 4.166-1.354 5.906-11.781 5.906-11.781s1.7395 10.427 5.9062 11.781c3.5495 1.1533 9.2422-3.788 10.938-5.3438 0.41922-1.001 0.75-1.6562 0.75-1.6562s-7.5208 7.3539-11.688 6c-4.166-1.354-5.906-11.781-5.906-11.781zm-14.75 16.219c-0.05344 0.97497-0.2984 1.8354-0.78125 2.5-2.5752 3.5444-13.031 1.9688-13.031 1.9688s0.88328 0.48431 2.0625 1.2188c3.1695 0.26112 9.1052 0.37747 10.969-2.1875 0.6438-0.88611 0.8545-2.1216 0.78125-3.5zm29.5 0c-0.07325 1.3784 0.13745 2.6139 0.78125 3.5 1.8636 2.565 7.7992 2.4486 10.969 2.1875 1.1792-0.73444 2.0625-1.2188 2.0625-1.2188s-10.456 1.5757-13.031-1.9688c-0.48285-0.66458-0.72781-1.525-0.78125-2.5zm-33.938 14.281c-0.6721 4.2448-9.375 8.8125-9.375 8.8125s0.85217-0.11904 2.0625-0.21875c2.7662-1.7228 7.375-5.0221 7.375-8.0938 0-0.16922-0.0355-0.32946-0.0625-0.5zm5.9688 0c-0.006 0.169-0.031 0.33-0.031 0.5 0 7.313 5.937 13.25 13.25 13.25s13.25-5.937 13.25-13.25c0-0.1702-0.02488-0.33136-0.03125-0.5-0.267 7.077-6.076 12.75-13.219 12.75s-12.952-5.673-13.219-12.75zm32.406 0c-0.027 0.17054-0.0625 0.33078-0.0625 0.5 0 3.0717 4.6088 6.3709 7.375 8.0938 1.2103 0.09971 2.0625 0.21875 2.0625 0.21875s-8.7029-4.5677-9.375-8.8125zm-33.937 14.281c-0.21976 4.1353-2.8438 9.4375-2.8438 9.4375s0.4552-0.38571 0.75-0.65625c0.89117-2.1279 2.2512-5.908 2.0938-8.7812zm29.5 0c-0.15749 2.8733 1.2026 6.6534 2.0938 8.7812 0.2948 0.27054 0.75 0.65625 0.75 0.65625s-2.624-5.3022-2.8438-9.4375z"/>
   <path id="path3877" style="opacity:.15;color:#000000" d="m30.406 23.781s2.624 5.3022 2.8438 9.4375c0.15749-2.8733-1.2026-6.6534-2.0938-8.7812-0.2948-0.27054-0.75-0.65625-0.75-0.65625zm35.188 0s-0.4552 0.38571-0.75 0.65625c-0.89117 2.1279-2.2512 5.908-2.0938 8.7812 0.21976-4.1353 2.8438-9.4375 2.8438-9.4375zm-17.594 9.969c-7.313 0-13.25 5.937-13.25 13.25 0 0.1702 0.02488 0.33136 0.03125 0.5 0.267-7.077 6.076-12.75 13.219-12.75 7.1428 0 12.952 5.6725 13.219 12.75 0.006-0.169 0.031-0.33 0.031-0.5 0-7.313-5.937-13.25-13.25-13.25zm-28.562 4.9375s8.7029 4.5677 9.375 8.8125c0.027-0.17054 0.0625-0.33078 0.0625-0.5-0.000001-3.0717-4.6088-6.3709-7.375-8.0938-1.2103-0.09971-2.0625-0.21875-2.0625-0.21875zm57.125 0s-0.85217 0.11904-2.0625 0.21875c-2.7662 1.7228-7.375 5.0221-7.375 8.0938 0 0.16922 0.0355 0.32946 0.0625 0.5 0.6721-4.2448 9.375-8.8125 9.375-8.8125zm-51.563 17.281c-1.3137-0.02162-2.5204 0.0443-3.5 0.125-1.1792 0.73444-2.0625 1.2188-2.0625 1.2188s10.456-1.5757 13.031 1.9688c0.48285 0.66458 0.72781 1.525 0.78125 2.5 0.07325-1.3784-0.13745-2.6139-0.78125-3.5-1.288-1.773-4.532-2.265-7.469-2.313zm46 0c-2.9367 0.04832-6.1812 0.54028-7.4688 2.3125-0.6438 0.88611-0.8545 2.1216-0.78125 3.5 0.05344-0.97497 0.2984-1.8354 0.78125-2.5 2.5752-3.5444 13.031-1.9688 13.031-1.9688s-0.88328-0.48431-2.0625-1.2188c-0.9796-0.0807-2.1863-0.14662-3.5-0.125zm-30.594 9.093c-3.515 0.41585-7.8035 4.1725-9.25 5.5-0.41922 1.001-0.75 1.6562-0.75 1.6562s7.5208-7.3539 11.688-6c4.166 1.355 5.906 11.782 5.906 11.782s1.7395-10.427 5.9062-11.781c4.1667-1.3539 11.688 6 11.688 6s-0.33078-0.65527-0.75-1.6562c-1.696-1.556-7.388-6.498-10.938-5.344-4.166 1.354-5.906 11.781-5.906 11.781s-1.74-10.427-5.906-11.781c-0.521-0.169-1.083-0.228-1.688-0.157z"/>
  </g>
  <rect id="rect3003" style="opacity:.15;fill:#fff" clip-path="url(#clipPath3009)" rx="25" ry="25" transform="translate(98 -.0000026172)" width="92" y="958.36" x="-96" height="92"/>
 </g>
</svg>
