<?xml version="1.0" encoding="UTF-8" standalone="no"?>
<!-- Created with Inkscape (http://www.inkscape.org/) -->
<svg id="svg11037" xmlns:rdf="http://www.w3.org/1999/02/22-rdf-syntax-ns#" xmlns="http://www.w3.org/2000/svg" height="96" width="96" version="1.1" xmlns:cc="http://creativecommons.org/ns#" xmlns:xlink="http://www.w3.org/1999/xlink" xmlns:dc="http://purl.org/dc/elements/1.1/">
 <defs id="defs11039">
  <clipPath id="clipPath3009" clipPathUnits="userSpaceOnUse">
   <path id="path3011" style="opacity:.15;fill:#fff" d="m-2 956.36h-96v33.562l96 25.687v-59.25z"/>
  </clipPath>
  <linearGradient id="linearGradient3702-1" x1="27" gradientUnits="userSpaceOnUse" y1="48" gradientTransform="matrix(0,-1,1,0,0,96)" x2="69" y2="48">
   <stop id="stop4083-39" style="stop-color:#aaa" offset="0"/>
   <stop id="stop4085-01" style="stop-color:#f0f0f0" offset="1"/>
  </linearGradient>
 </defs>
 <metadata id="metadata11042">
  <rdf:RDF>
   <cc:Work rdf:about="">
    <dc:format>image/svg+xml</dc:format>
    <dc:type rdf:resource="http://purl.org/dc/dcmitype/StillImage"/>
    <dc:title/>
   </cc:Work>
  </rdf:RDF>
 </metadata>
 <g id="layer1" transform="translate(0 -956.36)">
  <rect id="rect3867" style="opacity:.6" rx="25" ry="25" height="92" width="92" y="958.36" x="2"/>
  <g id="g3065" transform="translate(0 956.36)">
   <path id="path3724" style="opacity:.3" d="m27 60.667 9.333 9.333 11.667-11.667 11.667 11.667 9.333-9.333-11.667-11.667 11.667-11.667-9.333-9.333-11.667 11.667-11.667-11.667-9.333 9.333 11.667 11.667-11.667 11.667z"/>
   <path id="path2929" style="fill:url(#linearGradient3702-1)" d="m27 59.667 9.333 9.333 11.667-11.667 11.667 11.667 9.333-9.333-11.667-11.667 11.667-11.667-9.333-9.333-11.667 11.667-11.667-11.667-9.333 9.333 11.667 11.667-11.667 11.667z"/>
   <path id="path3704" style="opacity:.75;fill:#fff" d="m36.344 27-9.344 9.344l0.5 0.5 8.844-8.844 11.656 11.656 11.656-11.656 8.844 8.844 0.5-0.5-9.344-9.344-11.656 11.656-11.656-11.656zm1.812 21.5-11.156 11.156l0.5 0.5 11.156-11.156-0.5-0.5zm19.688 0-0.5 0.5l11.156 11.156 0.5-0.5-11.156-11.156z"/>
   <path id="path3714" style="opacity:.15" d="m27.5 35.844-0.5 0.5l11.156 11.156 0.5-0.5-11.156-11.156zm41 0l-11.156 11.156 0.5 0.5 11.156-11.156-0.5-0.5zm-20.5 20.5-11.656 11.656-8.844-8.844-0.5 0.5 9.344 9.344 11.656-11.656 11.656 11.656 9.344-9.344-0.5-0.5-8.844 8.844-11.656-11.656z"/>
  </g>
  <rect id="rect3003" style="opacity:.15;fill:#fff" clip-path="url(#clipPath3009)" rx="25" ry="25" transform="translate(98 -.0000026172)" width="92" y="958.36" x="-96" height="92"/>
 </g>
</svg>
