<?xml version="1.0" encoding="UTF-8" standalone="no"?>
<!-- Created with Inkscape (http://www.inkscape.org/) -->
<svg id="svg11037" xmlns:rdf="http://www.w3.org/1999/02/22-rdf-syntax-ns#" xmlns="http://www.w3.org/2000/svg" height="96" width="96" version="1.1" xmlns:cc="http://creativecommons.org/ns#" xmlns:xlink="http://www.w3.org/1999/xlink" xmlns:dc="http://purl.org/dc/elements/1.1/">
 <defs id="defs11039">
  <clipPath id="clipPath3009" clipPathUnits="userSpaceOnUse">
   <path id="path3011" style="opacity:.15;fill:#fff" d="m-2 956.36h-96v33.562l96 25.687v-59.25z"/>
  </clipPath>
  <linearGradient id="linearGradient3032" x1="24.81" gradientUnits="userSpaceOnUse" y1="5.2104" gradientTransform="matrix(3.2296 0 0 2.7682 -47.024 9.5692)" x2="24.81" y2="24.723">
   <stop id="stop3639-55" style="stop-color:#f0f0f0" offset="0"/>
   <stop id="stop3641-399" style="stop-color:#aaa" offset="1"/>
  </linearGradient>
 </defs>
 <metadata id="metadata11042">
  <rdf:RDF>
   <cc:Work rdf:about="">
    <dc:format>image/svg+xml</dc:format>
    <dc:type rdf:resource="http://purl.org/dc/dcmitype/StillImage"/>
    <dc:title/>
   </cc:Work>
  </rdf:RDF>
 </metadata>
 <g id="layer1" transform="translate(0 -956.36)">
  <rect id="rect3867" style="opacity:.6" rx="25" ry="25" height="92" width="92" y="958.36" x="2"/>
  <g id="g3070" transform="translate(0 956.36)">
   <path id="path3886" style="opacity:.3" d="m25 25c-1.662 0-3 1.338-3 3v32h6v-23h40v27h-20v6h23c1.662 0 3-1.338 3-3v-39c0-1.662-1.338-3-3-3zm28 3h3v3h-3zm6 0h3v3h-3zm6 0h3v3h-3zm-35 26v8h-8v8h8v8h8v-8h8v-8h-8v-8z"/>
   <path id="Symbol" style="fill:url(#linearGradient3032)" d="m25 24c-1.662 0-3 1.338-3 3v32h6v-23h40v27h-20v6h23c1.662 0 3-1.338 3-3v-39c0-1.662-1.338-3-3-3zm28 3h3v3h-3zm6 0h3v3h-3zm6 0h3v3h-3zm-35 26v8h-8v8h8v8h8v-8h8v-8h-8v-8z"/>
   <path id="path3868" style="opacity:.75;fill:#fff" d="m25 24c-1.662 0-3 1.338-3 3v1c0-1.662 1.338-3 3-3h46c1.662 0 3 1.338 3 3v-1c0-1.662-1.338-3-3-3h-46zm28 6v1h3v-1h-3zm6 0v1h3v-1h-3zm6 0v1h3v-1h-3zm-35 23v1h8v-1h-8zm-8 8v1h8v-1h-8zm16 0v1h8v-1h-8zm10 2v1h20v-1h-20z"/>
   <path id="path3877" style="opacity:.15" d="m53 26v1h3v-1h-3zm6 0v1h3v-1h-3zm6 0v1h3v-1h-3zm-37 9v1h40v-1h-40zm-6 23v1h6v-1h-6zm52 7c0 1.662-1.338 3-3 3h-23v1h23c1.662 0 3-1.338 3-3v-1zm-52 3v1h8v-1h-8zm16 0v1h8v-1h-8zm-8 8v1h8v-1h-8z"/>
  </g>
  <rect id="rect3003" style="opacity:.15;fill:#fff" clip-path="url(#clipPath3009)" rx="25" ry="25" transform="translate(98 -.0000026172)" width="92" y="958.36" x="-96" height="92"/>
 </g>
</svg>
