<?xml version="1.0" encoding="UTF-8" standalone="no"?>
<!-- Created with Inkscape (http://www.inkscape.org/) -->
<svg id="svg11037" xmlns:rdf="http://www.w3.org/1999/02/22-rdf-syntax-ns#" xmlns="http://www.w3.org/2000/svg" height="96" width="96" version="1.1" xmlns:cc="http://creativecommons.org/ns#" xmlns:xlink="http://www.w3.org/1999/xlink" xmlns:dc="http://purl.org/dc/elements/1.1/">
 <defs id="defs11039">
  <clipPath id="clipPath3009" clipPathUnits="userSpaceOnUse">
   <path id="path3011" style="opacity:.15;fill:#fff" d="m-2 956.36h-96v33.562l96 25.687v-59.25z"/>
  </clipPath>
  <linearGradient id="linearGradient3878-8" x1="10.559" gradientUnits="userSpaceOnUse" y1="3.0149" gradientTransform="matrix(3.2728 0 0 3.2706 11.509 11.352)" x2="10.559" y2="19.286">
   <stop id="stop3639-02" style="stop-color:#f0f0f0" offset="0"/>
   <stop id="stop3641-49" style="stop-color:#aaa" offset="1"/>
  </linearGradient>
 </defs>
 <metadata id="metadata11042">
  <rdf:RDF>
   <cc:Work rdf:about="">
    <dc:format>image/svg+xml</dc:format>
    <dc:type rdf:resource="http://purl.org/dc/dcmitype/StillImage"/>
    <dc:title/>
   </cc:Work>
  </rdf:RDF>
 </metadata>
 <g id="layer1" transform="translate(0 -956.36)">
  <rect id="rect3867" style="opacity:.6" rx="25" ry="25" height="92" width="92" y="958.36" x="2"/>
  <g id="g3070" transform="translate(-1.25e-7 956.36)">
   <path id="path3867" style="opacity:.3" d="m40.938 22.156c-5.0248 0-10.044 2.0127-13.875 5.8438-7.6622 7.6622-7.6622 20.057 0 27.719 6.0659 6.0659 15.062 7.2884 22.375 3.75 0.19244-0.09311 0.43506-0.1815 0.625-0.28125 1.1871-0.46882 4.1419-1.3894 5.7188 0.1875 1.1696 1.1696 0.77327 2.7108 2.5625 4.5l10.438 10.344c0.01242-0.01244 2.2549 2.3389 4.5938 0 2.3479-2.3479 0.03413-4.6758 0-4.7188l-10.345-10.313c-1.7892-1.7892-3.2054-1.3929-4.375-2.5625-1.9283-1.9283-0.1152-6.0041 0-6.25 3.539-7.314 2.254-16.31-3.812-22.376-3.831-3.831-8.882-5.844-13.906-5.844zm0 5c8.127 0 14.75 6.5918 14.75 14.719 0 8.127-6.623 14.75-14.75 14.75s-14.719-6.623-14.719-14.75 6.5918-14.719 14.719-14.719zm-2.938 5.844c-1 2-2 3-4 3v5h4v10h6v-18z"/>
   <path id="path3102" style="fill:url(#linearGradient3878-8)" d="m40.938 21.156c-5.0248 0-10.044 2.0127-13.875 5.8438-7.6622 7.6622-7.6622 20.057 0 27.719 6.0659 6.0659 15.062 7.2884 22.375 3.75 0.19244-0.09311 0.43506-0.1815 0.625-0.28125 1.1871-0.46882 4.1419-1.3894 5.7188 0.1875 1.1696 1.1696 0.77327 2.7108 2.5625 4.5l10.438 10.344c0.01242-0.01244 2.2549 2.3389 4.5938 0 2.3479-2.3479 0.03413-4.6758 0-4.7188l-10.345-10.313c-1.7892-1.7892-3.2054-1.3929-4.375-2.5625-1.9283-1.9283-0.1152-6.0041 0-6.25 3.539-7.314 2.254-16.31-3.812-22.376-3.831-3.831-8.882-5.844-13.906-5.844zm0 5c8.127 0 14.75 6.5918 14.75 14.719 0 8.127-6.623 14.75-14.75 14.75s-14.719-6.623-14.719-14.75 6.5918-14.719 14.719-14.719zm-2.938 5.844c-1 2-2 3-4 3v5h4v10h6v-18z"/>
   <path id="path3081" style="opacity:.75;fill:#fff" d="m40.938 21.156c-5.0248 0-10.044 2.0127-13.875 5.8438-3.9589 3.9589-5.8508 9.195-5.7188 14.375 0.12157-4.8484 2.0133-9.6696 5.7188-13.375 3.8311-3.8311 8.8502-5.8438 13.875-5.8438s10.075 2.0127 13.906 5.8438c3.7045 3.7045 5.6214 8.5044 5.75 13.344 0.127-5.175-1.79-10.383-5.75-14.344-3.831-3.831-8.882-5.844-13.906-5.844zm-2.938 10.844c-1 2-2 3-4 3v1c2 0 3-1 4-3h6v-1h-6zm-11.75 9.375c-0.0057 0.16808-0.03125 0.33054-0.03125 0.5 0 8.127 6.5918 14.75 14.719 14.75 8.127 0 14.75-6.623 14.75-14.75 0-0.16946-0.02554-0.33192-0.03125-0.5-0.26826 7.8939-6.7612 14.25-14.719 14.25-7.9575 0-14.42-6.3561-14.688-14.25zm31.562 12.312c-0.07578 1.0725 0.07515 2.1689 0.84375 2.9375 1.1696 1.1696 2.5858 0.77327 4.375 2.5625l10.344 10.313c0.02004 0.02524 0.81322 0.85779 1 2 0.33818-1.6472-0.9744-2.9678-1-3l-10.344-10.312c-1.7892-1.7892-3.2054-1.3929-4.375-2.5625-0.52708-0.52708-0.76467-1.2116-0.84375-1.9375z"/>
   <path id="path3858" style="opacity:.15" d="m40.938 25.156c-8.127 0-14.719 6.5918-14.719 14.719 0 0.16946 0.02556 0.3319 0.03125 0.5 0.26701-7.8927 6.73-14.219 14.688-14.219 7.9575 0 14.45 6.3261 14.719 14.219 0.0057-0.1681 0.03125-0.33054 0.03125-0.5 0-8.127-6.623-14.719-14.75-14.719zm-6.938 13.844v1h4v-1h-4zm26.594 1.3438c-0.06777 2.7509-0.70935 5.4931-1.9375 8.0312-0.08371 0.17868-1.054 2.3827-0.84375 4.3125 0.11434-1.6181 0.77447-3.1646 0.84375-3.3125 1.3775-2.8469 2.0195-5.9463 1.9375-9.0312zm-39.25 0.03125c-0.12982 5.1773 1.762 10.387 5.7188 14.344 6.0659 6.0659 15.062 7.2884 22.375 3.75 0.19244-0.09311 0.43506-0.1815 0.625-0.28125 1.1871-0.46882 4.1419-1.3894 5.7188 0.1875 1.1696 1.1696 0.77327 2.7108 2.5625 4.5l10.438 10.344c0.01242-0.01244 2.2549 2.3389 4.5938 0 0.96932-0.96932 1.1313-1.9156 1-2.7188-0.11272 0.54908-0.41302 1.1318-1 1.7188-2.3389 2.3389-4.5813-0.01244-4.5938 0l-10.438-10.344c-1.7892-1.7892-1.3929-3.3304-2.5625-4.5-1.5769-1.5769-4.5317-0.65632-5.7188-0.1875-0.18994 0.09976-0.43256 0.18814-0.625 0.28125-7.3128 3.5384-16.309 2.3159-22.375-3.75-3.704-3.704-5.596-8.498-5.719-13.344zm16.656 8.625v1h6v-1h-6z"/>
  </g>
  <rect id="rect3003" style="opacity:.15;fill:#fff" clip-path="url(#clipPath3009)" rx="25" ry="25" transform="translate(98 -.0000026172)" width="92" y="958.36" x="-96" height="92"/>
 </g>
</svg>
